<?xml version="1.0" encoding="utf-8" standalone="no"?>
<!DOCTYPE svg PUBLIC "-//W3C//DTD SVG 1.1//EN"
  "http://www.w3.org/Graphics/SVG/1.1/DTD/svg11.dtd">
<svg xmlns:xlink="http://www.w3.org/1999/xlink" width="1080pt" height="360pt" viewBox="0 0 1080 360" xmlns="http://www.w3.org/2000/svg" version="1.1">
 <metadata>
  <rdf:RDF xmlns:dc="http://purl.org/dc/elements/1.1/" xmlns:cc="http://creativecommons.org/ns#" xmlns:rdf="http://www.w3.org/1999/02/22-rdf-syntax-ns#">
   <cc:Work>
    <dc:type rdf:resource="http://purl.org/dc/dcmitype/StillImage"/>
    <dc:date>2024-10-21T17:52:25.527518</dc:date>
    <dc:format>image/svg+xml</dc:format>
    <dc:creator>
     <cc:Agent>
      <dc:title>Matplotlib v3.8.2, https://matplotlib.org/</dc:title>
     </cc:Agent>
    </dc:creator>
   </cc:Work>
  </rdf:RDF>
 </metadata>
 <defs>
  <style type="text/css">*{stroke-linejoin: round; stroke-linecap: butt}</style>
 </defs>
 <g id="figure_1">
  <g id="patch_1">
   <path d="M 0 360 
L 1080 360 
L 1080 0 
L 0 0 
z
" style="fill: #ffffff"/>
  </g>
  <g id="axes_1">
   <g id="patch_2">
    <path d="M 54.02 318.04 
L 352.2 318.04 
L 352.2 26.88 
L 54.02 26.88 
z
" style="fill: #ffffff"/>
   </g>
   <g id="matplotlib.axis_1">
    <g id="xtick_1">
     <g id="line2d_1">
      <defs>
       <path id="mb6d4bad4db" d="M 0 0 
L 0 3.5 
" style="stroke: #000000; stroke-width: 0.8"/>
      </defs>
      <g>
       <use xlink:href="#mb6d4bad4db" x="67.573636" y="318.04" style="stroke: #000000; stroke-width: 0.8"/>
      </g>
     </g>
     <g id="text_1">
      <!-- 0 -->
      <g transform="translate(64.392386 332.638438) scale(0.1 -0.1)">
       <defs>
        <path id="DejaVuSans-30" d="M 2034 4250 
Q 1547 4250 1301 3770 
Q 1056 3291 1056 2328 
Q 1056 1369 1301 889 
Q 1547 409 2034 409 
Q 2525 409 2770 889 
Q 3016 1369 3016 2328 
Q 3016 3291 2770 3770 
Q 2525 4250 2034 4250 
z
M 2034 4750 
Q 2819 4750 3233 4129 
Q 3647 3509 3647 2328 
Q 3647 1150 3233 529 
Q 2819 -91 2034 -91 
Q 1250 -91 836 529 
Q 422 1150 422 2328 
Q 422 3509 836 4129 
Q 1250 4750 2034 4750 
z
" transform="scale(0.015625)"/>
       </defs>
       <use xlink:href="#DejaVuSans-30"/>
      </g>
     </g>
    </g>
    <g id="xtick_2">
     <g id="line2d_2">
      <g>
       <use xlink:href="#mb6d4bad4db" x="129.181074" y="318.04" style="stroke: #000000; stroke-width: 0.8"/>
      </g>
     </g>
     <g id="text_2">
      <!-- 50 -->
      <g transform="translate(122.818574 332.638438) scale(0.1 -0.1)">
       <defs>
        <path id="DejaVuSans-35" d="M 691 4666 
L 3169 4666 
L 3169 4134 
L 1269 4134 
L 1269 2991 
Q 1406 3038 1543 3061 
Q 1681 3084 1819 3084 
Q 2600 3084 3056 2656 
Q 3513 2228 3513 1497 
Q 3513 744 3044 326 
Q 2575 -91 1722 -91 
Q 1428 -91 1123 -41 
Q 819 9 494 109 
L 494 744 
Q 775 591 1075 516 
Q 1375 441 1709 441 
Q 2250 441 2565 725 
Q 2881 1009 2881 1497 
Q 2881 1984 2565 2268 
Q 2250 2553 1709 2553 
Q 1456 2553 1204 2497 
Q 953 2441 691 2322 
L 691 4666 
z
" transform="scale(0.015625)"/>
       </defs>
       <use xlink:href="#DejaVuSans-35"/>
       <use xlink:href="#DejaVuSans-30" x="63.623047"/>
      </g>
     </g>
    </g>
    <g id="xtick_3">
     <g id="line2d_3">
      <g>
       <use xlink:href="#mb6d4bad4db" x="190.788512" y="318.04" style="stroke: #000000; stroke-width: 0.8"/>
      </g>
     </g>
     <g id="text_3">
      <!-- 100 -->
      <g transform="translate(181.244762 332.638438) scale(0.1 -0.1)">
       <defs>
        <path id="DejaVuSans-31" d="M 794 531 
L 1825 531 
L 1825 4091 
L 703 3866 
L 703 4441 
L 1819 4666 
L 2450 4666 
L 2450 531 
L 3481 531 
L 3481 0 
L 794 0 
L 794 531 
z
" transform="scale(0.015625)"/>
       </defs>
       <use xlink:href="#DejaVuSans-31"/>
       <use xlink:href="#DejaVuSans-30" x="63.623047"/>
       <use xlink:href="#DejaVuSans-30" x="127.246094"/>
      </g>
     </g>
    </g>
    <g id="xtick_4">
     <g id="line2d_4">
      <g>
       <use xlink:href="#mb6d4bad4db" x="252.39595" y="318.04" style="stroke: #000000; stroke-width: 0.8"/>
      </g>
     </g>
     <g id="text_4">
      <!-- 150 -->
      <g transform="translate(242.8522 332.638438) scale(0.1 -0.1)">
       <use xlink:href="#DejaVuSans-31"/>
       <use xlink:href="#DejaVuSans-35" x="63.623047"/>
       <use xlink:href="#DejaVuSans-30" x="127.246094"/>
      </g>
     </g>
    </g>
    <g id="xtick_5">
     <g id="line2d_5">
      <g>
       <use xlink:href="#mb6d4bad4db" x="314.003388" y="318.04" style="stroke: #000000; stroke-width: 0.8"/>
      </g>
     </g>
     <g id="text_5">
      <!-- 200 -->
      <g transform="translate(304.459638 332.638438) scale(0.1 -0.1)">
       <defs>
        <path id="DejaVuSans-32" d="M 1228 531 
L 3431 531 
L 3431 0 
L 469 0 
L 469 531 
Q 828 903 1448 1529 
Q 2069 2156 2228 2338 
Q 2531 2678 2651 2914 
Q 2772 3150 2772 3378 
Q 2772 3750 2511 3984 
Q 2250 4219 1831 4219 
Q 1534 4219 1204 4116 
Q 875 4013 500 3803 
L 500 4441 
Q 881 4594 1212 4672 
Q 1544 4750 1819 4750 
Q 2544 4750 2975 4387 
Q 3406 4025 3406 3419 
Q 3406 3131 3298 2873 
Q 3191 2616 2906 2266 
Q 2828 2175 2409 1742 
Q 1991 1309 1228 531 
z
" transform="scale(0.015625)"/>
       </defs>
       <use xlink:href="#DejaVuSans-32"/>
       <use xlink:href="#DejaVuSans-30" x="63.623047"/>
       <use xlink:href="#DejaVuSans-30" x="127.246094"/>
      </g>
     </g>
    </g>
    <g id="text_6">
     <!-- Epoch -->
     <g transform="translate(187.799063 346.316563) scale(0.1 -0.1)">
      <defs>
       <path id="DejaVuSans-45" d="M 628 4666 
L 3578 4666 
L 3578 4134 
L 1259 4134 
L 1259 2753 
L 3481 2753 
L 3481 2222 
L 1259 2222 
L 1259 531 
L 3634 531 
L 3634 0 
L 628 0 
L 628 4666 
z
" transform="scale(0.015625)"/>
       <path id="DejaVuSans-70" d="M 1159 525 
L 1159 -1331 
L 581 -1331 
L 581 3500 
L 1159 3500 
L 1159 2969 
Q 1341 3281 1617 3432 
Q 1894 3584 2278 3584 
Q 2916 3584 3314 3078 
Q 3713 2572 3713 1747 
Q 3713 922 3314 415 
Q 2916 -91 2278 -91 
Q 1894 -91 1617 61 
Q 1341 213 1159 525 
z
M 3116 1747 
Q 3116 2381 2855 2742 
Q 2594 3103 2138 3103 
Q 1681 3103 1420 2742 
Q 1159 2381 1159 1747 
Q 1159 1113 1420 752 
Q 1681 391 2138 391 
Q 2594 391 2855 752 
Q 3116 1113 3116 1747 
z
" transform="scale(0.015625)"/>
       <path id="DejaVuSans-6f" d="M 1959 3097 
Q 1497 3097 1228 2736 
Q 959 2375 959 1747 
Q 959 1119 1226 758 
Q 1494 397 1959 397 
Q 2419 397 2687 759 
Q 2956 1122 2956 1747 
Q 2956 2369 2687 2733 
Q 2419 3097 1959 3097 
z
M 1959 3584 
Q 2709 3584 3137 3096 
Q 3566 2609 3566 1747 
Q 3566 888 3137 398 
Q 2709 -91 1959 -91 
Q 1206 -91 779 398 
Q 353 888 353 1747 
Q 353 2609 779 3096 
Q 1206 3584 1959 3584 
z
" transform="scale(0.015625)"/>
       <path id="DejaVuSans-63" d="M 3122 3366 
L 3122 2828 
Q 2878 2963 2633 3030 
Q 2388 3097 2138 3097 
Q 1578 3097 1268 2742 
Q 959 2388 959 1747 
Q 959 1106 1268 751 
Q 1578 397 2138 397 
Q 2388 397 2633 464 
Q 2878 531 3122 666 
L 3122 134 
Q 2881 22 2623 -34 
Q 2366 -91 2075 -91 
Q 1284 -91 818 406 
Q 353 903 353 1747 
Q 353 2603 823 3093 
Q 1294 3584 2113 3584 
Q 2378 3584 2631 3529 
Q 2884 3475 3122 3366 
z
" transform="scale(0.015625)"/>
       <path id="DejaVuSans-68" d="M 3513 2113 
L 3513 0 
L 2938 0 
L 2938 2094 
Q 2938 2591 2744 2837 
Q 2550 3084 2163 3084 
Q 1697 3084 1428 2787 
Q 1159 2491 1159 1978 
L 1159 0 
L 581 0 
L 581 4863 
L 1159 4863 
L 1159 2956 
Q 1366 3272 1645 3428 
Q 1925 3584 2291 3584 
Q 2894 3584 3203 3211 
Q 3513 2838 3513 2113 
z
" transform="scale(0.015625)"/>
      </defs>
      <use xlink:href="#DejaVuSans-45"/>
      <use xlink:href="#DejaVuSans-70" x="63.183594"/>
      <use xlink:href="#DejaVuSans-6f" x="126.660156"/>
      <use xlink:href="#DejaVuSans-63" x="187.841797"/>
      <use xlink:href="#DejaVuSans-68" x="242.822266"/>
     </g>
    </g>
   </g>
   <g id="matplotlib.axis_2">
    <g id="ytick_1">
     <g id="line2d_6">
      <defs>
       <path id="ma25f0941e9" d="M 0 0 
L -3.5 0 
" style="stroke: #000000; stroke-width: 0.8"/>
      </defs>
      <g>
       <use xlink:href="#ma25f0941e9" x="54.02" y="308.305299" style="stroke: #000000; stroke-width: 0.8"/>
      </g>
     </g>
     <g id="text_7">
      <!-- 0.35 -->
      <g transform="translate(24.754375 312.104518) scale(0.1 -0.1)">
       <defs>
        <path id="DejaVuSans-2e" d="M 684 794 
L 1344 794 
L 1344 0 
L 684 0 
L 684 794 
z
" transform="scale(0.015625)"/>
        <path id="DejaVuSans-33" d="M 2597 2516 
Q 3050 2419 3304 2112 
Q 3559 1806 3559 1356 
Q 3559 666 3084 287 
Q 2609 -91 1734 -91 
Q 1441 -91 1130 -33 
Q 819 25 488 141 
L 488 750 
Q 750 597 1062 519 
Q 1375 441 1716 441 
Q 2309 441 2620 675 
Q 2931 909 2931 1356 
Q 2931 1769 2642 2001 
Q 2353 2234 1838 2234 
L 1294 2234 
L 1294 2753 
L 1863 2753 
Q 2328 2753 2575 2939 
Q 2822 3125 2822 3475 
Q 2822 3834 2567 4026 
Q 2313 4219 1838 4219 
Q 1578 4219 1281 4162 
Q 984 4106 628 3988 
L 628 4550 
Q 988 4650 1302 4700 
Q 1616 4750 1894 4750 
Q 2613 4750 3031 4423 
Q 3450 4097 3450 3541 
Q 3450 3153 3228 2886 
Q 3006 2619 2597 2516 
z
" transform="scale(0.015625)"/>
       </defs>
       <use xlink:href="#DejaVuSans-30"/>
       <use xlink:href="#DejaVuSans-2e" x="63.623047"/>
       <use xlink:href="#DejaVuSans-33" x="95.410156"/>
       <use xlink:href="#DejaVuSans-35" x="159.033203"/>
      </g>
     </g>
    </g>
    <g id="ytick_2">
     <g id="line2d_7">
      <g>
       <use xlink:href="#ma25f0941e9" x="54.02" y="259.016163" style="stroke: #000000; stroke-width: 0.8"/>
      </g>
     </g>
     <g id="text_8">
      <!-- 0.40 -->
      <g transform="translate(24.754375 262.815382) scale(0.1 -0.1)">
       <defs>
        <path id="DejaVuSans-34" d="M 2419 4116 
L 825 1625 
L 2419 1625 
L 2419 4116 
z
M 2253 4666 
L 3047 4666 
L 3047 1625 
L 3713 1625 
L 3713 1100 
L 3047 1100 
L 3047 0 
L 2419 0 
L 2419 1100 
L 313 1100 
L 313 1709 
L 2253 4666 
z
" transform="scale(0.015625)"/>
       </defs>
       <use xlink:href="#DejaVuSans-30"/>
       <use xlink:href="#DejaVuSans-2e" x="63.623047"/>
       <use xlink:href="#DejaVuSans-34" x="95.410156"/>
       <use xlink:href="#DejaVuSans-30" x="159.033203"/>
      </g>
     </g>
    </g>
    <g id="ytick_3">
     <g id="line2d_8">
      <g>
       <use xlink:href="#ma25f0941e9" x="54.02" y="209.727028" style="stroke: #000000; stroke-width: 0.8"/>
      </g>
     </g>
     <g id="text_9">
      <!-- 0.45 -->
      <g transform="translate(24.754375 213.526247) scale(0.1 -0.1)">
       <use xlink:href="#DejaVuSans-30"/>
       <use xlink:href="#DejaVuSans-2e" x="63.623047"/>
       <use xlink:href="#DejaVuSans-34" x="95.410156"/>
       <use xlink:href="#DejaVuSans-35" x="159.033203"/>
      </g>
     </g>
    </g>
    <g id="ytick_4">
     <g id="line2d_9">
      <g>
       <use xlink:href="#ma25f0941e9" x="54.02" y="160.437892" style="stroke: #000000; stroke-width: 0.8"/>
      </g>
     </g>
     <g id="text_10">
      <!-- 0.50 -->
      <g transform="translate(24.754375 164.237111) scale(0.1 -0.1)">
       <use xlink:href="#DejaVuSans-30"/>
       <use xlink:href="#DejaVuSans-2e" x="63.623047"/>
       <use xlink:href="#DejaVuSans-35" x="95.410156"/>
       <use xlink:href="#DejaVuSans-30" x="159.033203"/>
      </g>
     </g>
    </g>
    <g id="ytick_5">
     <g id="line2d_10">
      <g>
       <use xlink:href="#ma25f0941e9" x="54.02" y="111.148757" style="stroke: #000000; stroke-width: 0.8"/>
      </g>
     </g>
     <g id="text_11">
      <!-- 0.55 -->
      <g transform="translate(24.754375 114.947975) scale(0.1 -0.1)">
       <use xlink:href="#DejaVuSans-30"/>
       <use xlink:href="#DejaVuSans-2e" x="63.623047"/>
       <use xlink:href="#DejaVuSans-35" x="95.410156"/>
       <use xlink:href="#DejaVuSans-35" x="159.033203"/>
      </g>
     </g>
    </g>
    <g id="ytick_6">
     <g id="line2d_11">
      <g>
       <use xlink:href="#ma25f0941e9" x="54.02" y="61.859621" style="stroke: #000000; stroke-width: 0.8"/>
      </g>
     </g>
     <g id="text_12">
      <!-- 0.60 -->
      <g transform="translate(24.754375 65.65884) scale(0.1 -0.1)">
       <defs>
        <path id="DejaVuSans-36" d="M 2113 2584 
Q 1688 2584 1439 2293 
Q 1191 2003 1191 1497 
Q 1191 994 1439 701 
Q 1688 409 2113 409 
Q 2538 409 2786 701 
Q 3034 994 3034 1497 
Q 3034 2003 2786 2293 
Q 2538 2584 2113 2584 
z
M 3366 4563 
L 3366 3988 
Q 3128 4100 2886 4159 
Q 2644 4219 2406 4219 
Q 1781 4219 1451 3797 
Q 1122 3375 1075 2522 
Q 1259 2794 1537 2939 
Q 1816 3084 2150 3084 
Q 2853 3084 3261 2657 
Q 3669 2231 3669 1497 
Q 3669 778 3244 343 
Q 2819 -91 2113 -91 
Q 1303 -91 875 529 
Q 447 1150 447 2328 
Q 447 3434 972 4092 
Q 1497 4750 2381 4750 
Q 2619 4750 2861 4703 
Q 3103 4656 3366 4563 
z
" transform="scale(0.015625)"/>
       </defs>
       <use xlink:href="#DejaVuSans-30"/>
       <use xlink:href="#DejaVuSans-2e" x="63.623047"/>
       <use xlink:href="#DejaVuSans-36" x="95.410156"/>
       <use xlink:href="#DejaVuSans-30" x="159.033203"/>
      </g>
     </g>
    </g>
    <g id="text_13">
     <!-- Loss -->
     <g transform="translate(18.674688 183.427188) rotate(-90) scale(0.1 -0.1)">
      <defs>
       <path id="DejaVuSans-4c" d="M 628 4666 
L 1259 4666 
L 1259 531 
L 3531 531 
L 3531 0 
L 628 0 
L 628 4666 
z
" transform="scale(0.015625)"/>
       <path id="DejaVuSans-73" d="M 2834 3397 
L 2834 2853 
Q 2591 2978 2328 3040 
Q 2066 3103 1784 3103 
Q 1356 3103 1142 2972 
Q 928 2841 928 2578 
Q 928 2378 1081 2264 
Q 1234 2150 1697 2047 
L 1894 2003 
Q 2506 1872 2764 1633 
Q 3022 1394 3022 966 
Q 3022 478 2636 193 
Q 2250 -91 1575 -91 
Q 1294 -91 989 -36 
Q 684 19 347 128 
L 347 722 
Q 666 556 975 473 
Q 1284 391 1588 391 
Q 1994 391 2212 530 
Q 2431 669 2431 922 
Q 2431 1156 2273 1281 
Q 2116 1406 1581 1522 
L 1381 1569 
Q 847 1681 609 1914 
Q 372 2147 372 2553 
Q 372 3047 722 3315 
Q 1072 3584 1716 3584 
Q 2034 3584 2315 3537 
Q 2597 3491 2834 3397 
z
" transform="scale(0.015625)"/>
      </defs>
      <use xlink:href="#DejaVuSans-4c"/>
      <use xlink:href="#DejaVuSans-6f" x="53.962891"/>
      <use xlink:href="#DejaVuSans-73" x="115.144531"/>
      <use xlink:href="#DejaVuSans-73" x="167.244141"/>
     </g>
    </g>
   </g>
   <g id="line2d_12">
    <path d="M 67.573636 40.114545 
L 68.805785 42.240577 
L 70.037934 51.938137 
L 71.270083 43.299883 
L 72.502231 66.575629 
L 73.73438 79.239969 
L 74.966529 84.903862 
L 76.198678 105.444327 
L 77.430826 108.763923 
L 78.662975 126.275366 
L 79.895124 111.94366 
L 81.127273 129.142561 
L 82.359421 134.102508 
L 83.59157 141.565014 
L 84.823719 157.175377 
L 86.055868 137.347267 
L 87.288017 153.642448 
L 88.520165 157.764196 
L 89.752314 154.054345 
L 90.984463 159.952501 
L 92.216612 176.41705 
L 93.44876 165.545845 
L 94.680909 176.400471 
L 95.913058 165.057467 
L 97.145207 184.647319 
L 98.377355 185.213628 
L 99.609504 177.463098 
L 100.841653 179.063857 
L 102.073802 195.695317 
L 103.30595 189.538251 
L 104.538099 180.821716 
L 105.770248 198.328805 
L 107.002397 192.135272 
L 109.466694 207.050803 
L 110.698843 199.635132 
L 111.930992 201.181178 
L 114.395289 199.107735 
L 115.627438 205.295371 
L 116.859587 207.790438 
L 118.091736 205.956636 
L 119.323884 208.137369 
L 120.556033 209.583211 
L 121.788182 219.919554 
L 123.020331 218.06394 
L 124.252479 217.205845 
L 125.484628 221.338907 
L 126.716777 224.927925 
L 127.948926 216.235032 
L 129.181074 228.386548 
L 130.413223 217.909431 
L 132.877521 224.37982 
L 134.109669 229.712319 
L 135.341818 233.227567 
L 136.573967 226.33435 
L 137.806116 234.727945 
L 139.038264 209.045345 
L 140.270413 230.363833 
L 141.502562 240.986939 
L 142.734711 234.279408 
L 143.96686 237.25841 
L 145.199008 236.834481 
L 146.431157 233.214983 
L 147.663306 242.047354 
L 148.895455 247.179673 
L 150.127603 234.077836 
L 151.359752 242.457961 
L 152.591901 242.385746 
L 153.82405 232.162275 
L 155.056198 237.10656 
L 156.288347 233.357122 
L 157.520496 245.6155 
L 159.984793 248.285009 
L 161.216942 249.114791 
L 162.449091 251.09302 
L 163.68124 230.837398 
L 164.913388 250.375148 
L 166.145537 252.791921 
L 167.377686 257.474951 
L 168.609835 242.157298 
L 169.841983 254.131565 
L 171.074132 251.432386 
L 172.306281 257.728927 
L 173.53843 249.510811 
L 174.770579 248.794896 
L 176.002727 253.032921 
L 177.234876 253.567436 
L 178.467025 259.380186 
L 179.699174 251.561801 
L 180.931322 253.367199 
L 182.163471 252.930113 
L 183.39562 245.823 
L 184.627769 252.410458 
L 185.859917 261.953205 
L 187.092066 255.749192 
L 188.324215 265.763592 
L 189.556364 256.528289 
L 190.788512 257.37184 
L 192.020661 266.950756 
L 193.25281 263.853315 
L 194.484959 267.379575 
L 195.717107 264.535633 
L 196.949256 264.081042 
L 198.181405 267.636329 
L 199.413554 260.656542 
L 200.645702 270.7353 
L 201.877851 259.652938 
L 203.11 268.633778 
L 204.342149 261.619062 
L 205.574298 268.798522 
L 206.806446 263.348716 
L 208.038595 265.310454 
L 209.270744 269.845163 
L 210.502893 262.16935 
L 211.735041 273.687267 
L 212.96719 264.748581 
L 214.199339 266.629271 
L 215.431488 271.870525 
L 216.663636 266.609052 
L 217.895785 272.279361 
L 219.127934 271.842877 
L 220.360083 273.731806 
L 221.592231 278.925011 
L 222.82438 270.398086 
L 224.056529 281.380602 
L 225.288678 277.61339 
L 226.520826 277.134251 
L 227.752975 279.95264 
L 228.985124 277.287101 
L 230.217273 273.449575 
L 231.449421 277.678449 
L 232.68157 274.535529 
L 233.913719 278.068608 
L 235.145868 279.574284 
L 236.378017 279.921893 
L 237.610165 281.45076 
L 238.842314 280.783796 
L 240.074463 276.142307 
L 241.306612 283.07055 
L 242.53876 280.160661 
L 243.770909 281.702817 
L 245.003058 280.051862 
L 246.235207 285.35932 
L 247.467355 284.824467 
L 248.699504 280.720001 
L 249.931653 280.988216 
L 251.163802 280.664567 
L 253.628099 288.918356 
L 254.860248 286.029447 
L 256.092397 283.867307 
L 257.324545 285.432055 
L 258.556694 289.138956 
L 259.788843 290.666988 
L 261.020992 285.17859 
L 262.25314 287.232303 
L 263.485289 288.54092 
L 264.717438 287.69834 
L 265.949587 292.628257 
L 267.181736 288.401666 
L 268.413884 286.990124 
L 269.646033 288.003115 
L 270.878182 292.486333 
L 272.110331 285.0555 
L 273.342479 287.349812 
L 274.574628 285.780292 
L 275.806777 291.26665 
L 277.038926 288.134949 
L 278.271074 296.934993 
L 279.503223 291.345659 
L 280.735372 293.534581 
L 281.967521 287.493288 
L 283.199669 293.414525 
L 284.431818 295.347631 
L 285.663967 292.014309 
L 286.896116 295.218191 
L 288.128264 295.986661 
L 289.360413 290.382638 
L 290.592562 296.863061 
L 291.824711 297.143248 
L 293.05686 295.552301 
L 294.289008 295.115963 
L 295.521157 296.253809 
L 296.753306 297.139419 
L 297.985455 295.040125 
L 299.217603 292.068972 
L 300.449752 295.385727 
L 301.681901 294.089384 
L 302.91405 299.202999 
L 304.146198 300.243602 
L 305.378347 295.593711 
L 306.610496 299.22945 
L 307.842645 296.480864 
L 309.074793 296.916318 
L 310.306942 300.355149 
L 311.539091 298.754732 
L 312.77124 294.438462 
L 314.003388 301.854598 
L 315.235537 301.232486 
L 316.467686 300.305317 
L 317.699835 299.732735 
L 318.931983 300.689239 
L 320.164132 302.66131 
L 321.396281 297.803931 
L 322.62843 302.09949 
L 323.860579 302.47379 
L 325.092727 304.42546 
L 326.324876 299.158419 
L 327.557025 300.156334 
L 328.789174 302.405664 
L 330.021322 303.158411 
L 331.253471 302.05673 
L 332.48562 301.506304 
L 333.717769 304.805455 
L 334.949917 300.344171 
L 336.182066 302.41123 
L 337.414215 302.862598 
L 338.646364 301.953868 
L 338.646364 301.953868 
" clip-path="url(#pf4533b3e17)" style="fill: none; stroke: #1f77b4; stroke-width: 1.5; stroke-linecap: square"/>
   </g>
   <g id="line2d_13">
    <path d="M 67.573636 42.534272 
L 68.805785 70.884297 
L 70.037934 57.70862 
L 71.270083 78.526247 
L 72.502231 95.333862 
L 73.73438 86.650286 
L 74.966529 72.64766 
L 76.198678 97.361343 
L 77.430826 111.423729 
L 78.662975 76.035315 
L 79.895124 119.35507 
L 81.127273 108.219091 
L 82.359421 130.475217 
L 83.59157 160.524361 
L 84.823719 72.307147 
L 86.055868 141.774459 
L 87.288017 135.758938 
L 88.520165 99.044583 
L 89.752314 155.529831 
L 90.984463 168.970345 
L 92.216612 148.763782 
L 93.44876 197.246229 
L 94.680909 106.482598 
L 95.913058 171.66306 
L 97.145207 150.452101 
L 98.377355 137.633022 
L 99.609504 140.043971 
L 100.841653 169.287678 
L 102.073802 152.975794 
L 103.30595 162.492115 
L 104.538099 141.627412 
L 105.770248 149.126167 
L 107.002397 150.926379 
L 108.234545 170.956997 
L 109.466694 144.777857 
L 110.698843 141.826184 
L 111.930992 153.496427 
L 113.16314 150.340033 
L 114.395289 162.7795 
L 115.627438 142.308074 
L 116.859587 146.35294 
L 118.091736 132.146838 
L 119.323884 151.728114 
L 120.556033 165.668832 
L 121.788182 133.309867 
L 123.020331 129.810088 
L 124.252479 157.14726 
L 125.484628 152.000663 
L 126.716777 138.503977 
L 127.948926 156.885001 
L 129.181074 124.030621 
L 130.413223 136.952044 
L 131.645372 131.909855 
L 132.877521 137.05148 
L 134.109669 166.941377 
L 135.341818 128.995052 
L 136.573967 155.570469 
L 137.806116 104.90518 
L 139.038264 161.22456 
L 140.270413 144.714245 
L 141.502562 136.108661 
L 142.734711 134.037124 
L 143.96686 142.580634 
L 145.199008 128.189788 
L 146.431157 130.243276 
L 147.663306 158.631912 
L 150.127603 141.249339 
L 151.359752 140.915689 
L 152.591901 116.476659 
L 153.82405 149.93228 
L 155.056198 122.690075 
L 156.288347 147.773767 
L 157.520496 165.630243 
L 158.752645 145.125468 
L 159.984793 134.175053 
L 161.216942 152.094685 
L 162.449091 115.387179 
L 163.68124 136.261694 
L 164.913388 132.786399 
L 166.145537 126.340279 
L 167.377686 151.168466 
L 168.609835 128.124612 
L 169.841983 154.185774 
L 171.074132 162.164536 
L 172.306281 152.304662 
L 173.53843 123.095867 
L 174.770579 143.792799 
L 176.002727 118.589 
L 177.234876 146.888964 
L 178.467025 152.679959 
L 179.699174 156.466825 
L 180.931322 145.710033 
L 182.163471 136.350719 
L 183.39562 140.521138 
L 184.627769 161.198975 
L 185.859917 140.426748 
L 187.092066 157.548193 
L 188.324215 138.135933 
L 189.556364 138.618998 
L 190.788512 165.382262 
L 192.020661 144.384756 
L 193.25281 160.946322 
L 194.484959 165.052634 
L 195.717107 163.940976 
L 196.949256 139.588723 
L 198.181405 117.694543 
L 199.413554 141.63079 
L 200.645702 137.612248 
L 201.877851 163.203055 
L 203.11 139.96253 
L 204.342149 158.852185 
L 205.574298 149.733027 
L 206.806446 147.126416 
L 208.038595 167.676331 
L 209.270744 137.551555 
L 210.502893 170.713999 
L 211.735041 138.519566 
L 212.96719 132.16597 
L 215.431488 179.0132 
L 216.663636 154.534642 
L 217.895785 159.703611 
L 219.127934 148.476334 
L 220.360083 158.406714 
L 221.592231 143.594894 
L 222.82438 150.022696 
L 225.288678 169.161718 
L 226.520826 158.653744 
L 227.752975 159.291998 
L 228.985124 141.473971 
L 230.217273 165.152198 
L 231.449421 154.113216 
L 232.68157 157.495488 
L 233.913719 165.811065 
L 235.145868 150.252742 
L 236.378017 163.79813 
L 237.610165 151.500356 
L 238.842314 157.812362 
L 240.074463 150.126931 
L 241.306612 144.20645 
L 242.53876 146.802947 
L 243.770909 150.221292 
L 245.003058 155.14593 
L 246.235207 148.011447 
L 247.467355 147.028112 
L 248.699504 144.506872 
L 249.931653 150.125562 
L 251.163802 161.150493 
L 252.39595 161.688606 
L 253.628099 164.936386 
L 254.860248 152.181855 
L 256.092397 152.218322 
L 257.324545 175.123208 
L 258.556694 161.111063 
L 259.788843 156.832013 
L 261.020992 159.040054 
L 262.25314 155.207717 
L 263.485289 160.197094 
L 264.717438 152.264049 
L 265.949587 143.474945 
L 267.181736 159.314634 
L 268.413884 158.201438 
L 269.646033 160.415601 
L 270.878182 134.318123 
L 272.110331 157.743682 
L 273.342479 144.388734 
L 274.574628 159.157359 
L 275.806777 156.103074 
L 277.038926 150.718518 
L 278.271074 142.859569 
L 279.503223 140.153531 
L 280.735372 150.611991 
L 281.967521 158.861594 
L 283.199669 166.235839 
L 284.431818 146.82031 
L 285.663967 144.096791 
L 286.896116 155.085909 
L 288.128264 136.022483 
L 289.360413 162.633246 
L 290.592562 137.417629 
L 291.824711 149.727941 
L 293.05686 147.490014 
L 294.289008 155.854318 
L 295.521157 155.509321 
L 296.753306 150.942012 
L 297.985455 142.119588 
L 299.217603 139.92242 
L 300.449752 145.880826 
L 301.681901 161.425047 
L 302.91405 153.284112 
L 304.146198 138.867398 
L 305.378347 148.955217 
L 306.610496 143.525641 
L 307.842645 148.58003 
L 309.074793 139.413271 
L 310.306942 142.082123 
L 311.539091 135.395356 
L 312.77124 138.066658 
L 314.003388 154.963757 
L 315.235537 149.663976 
L 316.467686 147.117599 
L 317.699835 147.848073 
L 318.931983 149.89845 
L 320.164132 143.580807 
L 321.396281 149.381754 
L 322.62843 148.677082 
L 323.860579 154.294317 
L 325.092727 145.571843 
L 326.324876 143.377889 
L 327.557025 141.705853 
L 328.789174 140.344418 
L 330.021322 143.894993 
L 331.253471 136.94489 
L 332.48562 139.526573 
L 333.717769 133.181365 
L 334.949917 141.775131 
L 336.182066 135.482959 
L 337.414215 128.23455 
L 338.646364 135.145278 
L 338.646364 135.145278 
" clip-path="url(#pf4533b3e17)" style="fill: none; stroke: #ff7f0e; stroke-width: 1.5; stroke-linecap: square"/>
   </g>
   <g id="patch_3">
    <path d="M 54.02 318.04 
L 54.02 26.88 
" style="fill: none; stroke: #000000; stroke-width: 0.8; stroke-linejoin: miter; stroke-linecap: square"/>
   </g>
   <g id="patch_4">
    <path d="M 352.2 318.04 
L 352.2 26.88 
" style="fill: none; stroke: #000000; stroke-width: 0.8; stroke-linejoin: miter; stroke-linecap: square"/>
   </g>
   <g id="patch_5">
    <path d="M 54.02 318.04 
L 352.2 318.04 
" style="fill: none; stroke: #000000; stroke-width: 0.8; stroke-linejoin: miter; stroke-linecap: square"/>
   </g>
   <g id="patch_6">
    <path d="M 54.02 26.88 
L 352.2 26.88 
" style="fill: none; stroke: #000000; stroke-width: 0.8; stroke-linejoin: miter; stroke-linecap: square"/>
   </g>
   <g id="text_14">
    <!-- Loss vs Epoch -->
    <g transform="translate(161.085625 20.88) scale(0.12 -0.12)">
     <defs>
      <path id="DejaVuSans-20" transform="scale(0.015625)"/>
      <path id="DejaVuSans-76" d="M 191 3500 
L 800 3500 
L 1894 563 
L 2988 3500 
L 3597 3500 
L 2284 0 
L 1503 0 
L 191 3500 
z
" transform="scale(0.015625)"/>
     </defs>
     <use xlink:href="#DejaVuSans-4c"/>
     <use xlink:href="#DejaVuSans-6f" x="53.962891"/>
     <use xlink:href="#DejaVuSans-73" x="115.144531"/>
     <use xlink:href="#DejaVuSans-73" x="167.244141"/>
     <use xlink:href="#DejaVuSans-20" x="219.34375"/>
     <use xlink:href="#DejaVuSans-76" x="251.130859"/>
     <use xlink:href="#DejaVuSans-73" x="310.310547"/>
     <use xlink:href="#DejaVuSans-20" x="362.410156"/>
     <use xlink:href="#DejaVuSans-45" x="394.197266"/>
     <use xlink:href="#DejaVuSans-70" x="457.380859"/>
     <use xlink:href="#DejaVuSans-6f" x="520.857422"/>
     <use xlink:href="#DejaVuSans-63" x="582.039062"/>
     <use xlink:href="#DejaVuSans-68" x="637.019531"/>
    </g>
   </g>
   <g id="legend_1">
    <g id="patch_7">
     <path d="M 238.70625 64.23625 
L 345.2 64.23625 
Q 347.2 64.23625 347.2 62.23625 
L 347.2 33.88 
Q 347.2 31.88 345.2 31.88 
L 238.70625 31.88 
Q 236.70625 31.88 236.70625 33.88 
L 236.70625 62.23625 
Q 236.70625 64.23625 238.70625 64.23625 
z
" style="fill: #ffffff; opacity: 0.8; stroke: #cccccc; stroke-linejoin: miter"/>
    </g>
    <g id="line2d_14">
     <path d="M 240.70625 39.978437 
L 250.70625 39.978437 
L 260.70625 39.978437 
" style="fill: none; stroke: #1f77b4; stroke-width: 1.5; stroke-linecap: square"/>
    </g>
    <g id="text_15">
     <!-- Train Loss -->
     <g transform="translate(268.70625 43.478437) scale(0.1 -0.1)">
      <defs>
       <path id="DejaVuSans-54" d="M -19 4666 
L 3928 4666 
L 3928 4134 
L 2272 4134 
L 2272 0 
L 1638 0 
L 1638 4134 
L -19 4134 
L -19 4666 
z
" transform="scale(0.015625)"/>
       <path id="DejaVuSans-72" d="M 2631 2963 
Q 2534 3019 2420 3045 
Q 2306 3072 2169 3072 
Q 1681 3072 1420 2755 
Q 1159 2438 1159 1844 
L 1159 0 
L 581 0 
L 581 3500 
L 1159 3500 
L 1159 2956 
Q 1341 3275 1631 3429 
Q 1922 3584 2338 3584 
Q 2397 3584 2469 3576 
Q 2541 3569 2628 3553 
L 2631 2963 
z
" transform="scale(0.015625)"/>
       <path id="DejaVuSans-61" d="M 2194 1759 
Q 1497 1759 1228 1600 
Q 959 1441 959 1056 
Q 959 750 1161 570 
Q 1363 391 1709 391 
Q 2188 391 2477 730 
Q 2766 1069 2766 1631 
L 2766 1759 
L 2194 1759 
z
M 3341 1997 
L 3341 0 
L 2766 0 
L 2766 531 
Q 2569 213 2275 61 
Q 1981 -91 1556 -91 
Q 1019 -91 701 211 
Q 384 513 384 1019 
Q 384 1609 779 1909 
Q 1175 2209 1959 2209 
L 2766 2209 
L 2766 2266 
Q 2766 2663 2505 2880 
Q 2244 3097 1772 3097 
Q 1472 3097 1187 3025 
Q 903 2953 641 2809 
L 641 3341 
Q 956 3463 1253 3523 
Q 1550 3584 1831 3584 
Q 2591 3584 2966 3190 
Q 3341 2797 3341 1997 
z
" transform="scale(0.015625)"/>
       <path id="DejaVuSans-69" d="M 603 3500 
L 1178 3500 
L 1178 0 
L 603 0 
L 603 3500 
z
M 603 4863 
L 1178 4863 
L 1178 4134 
L 603 4134 
L 603 4863 
z
" transform="scale(0.015625)"/>
       <path id="DejaVuSans-6e" d="M 3513 2113 
L 3513 0 
L 2938 0 
L 2938 2094 
Q 2938 2591 2744 2837 
Q 2550 3084 2163 3084 
Q 1697 3084 1428 2787 
Q 1159 2491 1159 1978 
L 1159 0 
L 581 0 
L 581 3500 
L 1159 3500 
L 1159 2956 
Q 1366 3272 1645 3428 
Q 1925 3584 2291 3584 
Q 2894 3584 3203 3211 
Q 3513 2838 3513 2113 
z
" transform="scale(0.015625)"/>
      </defs>
      <use xlink:href="#DejaVuSans-54"/>
      <use xlink:href="#DejaVuSans-72" x="46.333984"/>
      <use xlink:href="#DejaVuSans-61" x="87.447266"/>
      <use xlink:href="#DejaVuSans-69" x="148.726562"/>
      <use xlink:href="#DejaVuSans-6e" x="176.509766"/>
      <use xlink:href="#DejaVuSans-20" x="239.888672"/>
      <use xlink:href="#DejaVuSans-4c" x="271.675781"/>
      <use xlink:href="#DejaVuSans-6f" x="325.638672"/>
      <use xlink:href="#DejaVuSans-73" x="386.820312"/>
      <use xlink:href="#DejaVuSans-73" x="438.919922"/>
     </g>
    </g>
    <g id="line2d_15">
     <path d="M 240.70625 54.656563 
L 250.70625 54.656563 
L 260.70625 54.656563 
" style="fill: none; stroke: #ff7f0e; stroke-width: 1.5; stroke-linecap: square"/>
    </g>
    <g id="text_16">
     <!-- Validation Loss -->
     <g transform="translate(268.70625 58.156563) scale(0.1 -0.1)">
      <defs>
       <path id="DejaVuSans-56" d="M 1831 0 
L 50 4666 
L 709 4666 
L 2188 738 
L 3669 4666 
L 4325 4666 
L 2547 0 
L 1831 0 
z
" transform="scale(0.015625)"/>
       <path id="DejaVuSans-6c" d="M 603 4863 
L 1178 4863 
L 1178 0 
L 603 0 
L 603 4863 
z
" transform="scale(0.015625)"/>
       <path id="DejaVuSans-64" d="M 2906 2969 
L 2906 4863 
L 3481 4863 
L 3481 0 
L 2906 0 
L 2906 525 
Q 2725 213 2448 61 
Q 2172 -91 1784 -91 
Q 1150 -91 751 415 
Q 353 922 353 1747 
Q 353 2572 751 3078 
Q 1150 3584 1784 3584 
Q 2172 3584 2448 3432 
Q 2725 3281 2906 2969 
z
M 947 1747 
Q 947 1113 1208 752 
Q 1469 391 1925 391 
Q 2381 391 2643 752 
Q 2906 1113 2906 1747 
Q 2906 2381 2643 2742 
Q 2381 3103 1925 3103 
Q 1469 3103 1208 2742 
Q 947 2381 947 1747 
z
" transform="scale(0.015625)"/>
       <path id="DejaVuSans-74" d="M 1172 4494 
L 1172 3500 
L 2356 3500 
L 2356 3053 
L 1172 3053 
L 1172 1153 
Q 1172 725 1289 603 
Q 1406 481 1766 481 
L 2356 481 
L 2356 0 
L 1766 0 
Q 1100 0 847 248 
Q 594 497 594 1153 
L 594 3053 
L 172 3053 
L 172 3500 
L 594 3500 
L 594 4494 
L 1172 4494 
z
" transform="scale(0.015625)"/>
      </defs>
      <use xlink:href="#DejaVuSans-56"/>
      <use xlink:href="#DejaVuSans-61" x="60.658203"/>
      <use xlink:href="#DejaVuSans-6c" x="121.9375"/>
      <use xlink:href="#DejaVuSans-69" x="149.720703"/>
      <use xlink:href="#DejaVuSans-64" x="177.503906"/>
      <use xlink:href="#DejaVuSans-61" x="240.980469"/>
      <use xlink:href="#DejaVuSans-74" x="302.259766"/>
      <use xlink:href="#DejaVuSans-69" x="341.46875"/>
      <use xlink:href="#DejaVuSans-6f" x="369.251953"/>
      <use xlink:href="#DejaVuSans-6e" x="430.433594"/>
      <use xlink:href="#DejaVuSans-20" x="493.8125"/>
      <use xlink:href="#DejaVuSans-4c" x="525.599609"/>
      <use xlink:href="#DejaVuSans-6f" x="579.5625"/>
      <use xlink:href="#DejaVuSans-73" x="640.744141"/>
      <use xlink:href="#DejaVuSans-73" x="692.84375"/>
     </g>
    </g>
   </g>
  </g>
  <g id="axes_2">
   <g id="patch_8">
    <path d="M 412.52 318.04 
L 710.7 318.04 
L 710.7 26.88 
L 412.52 26.88 
z
" style="fill: #ffffff"/>
   </g>
   <g id="matplotlib.axis_3">
    <g id="xtick_6">
     <g id="line2d_16">
      <g>
       <use xlink:href="#mb6d4bad4db" x="426.073636" y="318.04" style="stroke: #000000; stroke-width: 0.8"/>
      </g>
     </g>
     <g id="text_17">
      <!-- 0 -->
      <g transform="translate(422.892386 332.638438) scale(0.1 -0.1)">
       <use xlink:href="#DejaVuSans-30"/>
      </g>
     </g>
    </g>
    <g id="xtick_7">
     <g id="line2d_17">
      <g>
       <use xlink:href="#mb6d4bad4db" x="487.681074" y="318.04" style="stroke: #000000; stroke-width: 0.8"/>
      </g>
     </g>
     <g id="text_18">
      <!-- 50 -->
      <g transform="translate(481.318574 332.638438) scale(0.1 -0.1)">
       <use xlink:href="#DejaVuSans-35"/>
       <use xlink:href="#DejaVuSans-30" x="63.623047"/>
      </g>
     </g>
    </g>
    <g id="xtick_8">
     <g id="line2d_18">
      <g>
       <use xlink:href="#mb6d4bad4db" x="549.288512" y="318.04" style="stroke: #000000; stroke-width: 0.8"/>
      </g>
     </g>
     <g id="text_19">
      <!-- 100 -->
      <g transform="translate(539.744762 332.638438) scale(0.1 -0.1)">
       <use xlink:href="#DejaVuSans-31"/>
       <use xlink:href="#DejaVuSans-30" x="63.623047"/>
       <use xlink:href="#DejaVuSans-30" x="127.246094"/>
      </g>
     </g>
    </g>
    <g id="xtick_9">
     <g id="line2d_19">
      <g>
       <use xlink:href="#mb6d4bad4db" x="610.89595" y="318.04" style="stroke: #000000; stroke-width: 0.8"/>
      </g>
     </g>
     <g id="text_20">
      <!-- 150 -->
      <g transform="translate(601.3522 332.638438) scale(0.1 -0.1)">
       <use xlink:href="#DejaVuSans-31"/>
       <use xlink:href="#DejaVuSans-35" x="63.623047"/>
       <use xlink:href="#DejaVuSans-30" x="127.246094"/>
      </g>
     </g>
    </g>
    <g id="xtick_10">
     <g id="line2d_20">
      <g>
       <use xlink:href="#mb6d4bad4db" x="672.503388" y="318.04" style="stroke: #000000; stroke-width: 0.8"/>
      </g>
     </g>
     <g id="text_21">
      <!-- 200 -->
      <g transform="translate(662.959638 332.638438) scale(0.1 -0.1)">
       <use xlink:href="#DejaVuSans-32"/>
       <use xlink:href="#DejaVuSans-30" x="63.623047"/>
       <use xlink:href="#DejaVuSans-30" x="127.246094"/>
      </g>
     </g>
    </g>
    <g id="text_22">
     <!-- Epoch -->
     <g transform="translate(546.299062 346.316563) scale(0.1 -0.1)">
      <use xlink:href="#DejaVuSans-45"/>
      <use xlink:href="#DejaVuSans-70" x="63.183594"/>
      <use xlink:href="#DejaVuSans-6f" x="126.660156"/>
      <use xlink:href="#DejaVuSans-63" x="187.841797"/>
      <use xlink:href="#DejaVuSans-68" x="242.822266"/>
     </g>
    </g>
   </g>
   <g id="matplotlib.axis_4">
    <g id="ytick_7">
     <g id="line2d_21">
      <g>
       <use xlink:href="#ma25f0941e9" x="412.52" y="308.396336" style="stroke: #000000; stroke-width: 0.8"/>
      </g>
     </g>
     <g id="text_23">
      <!-- 0.650 -->
      <g transform="translate(376.891875 312.195554) scale(0.1 -0.1)">
       <use xlink:href="#DejaVuSans-30"/>
       <use xlink:href="#DejaVuSans-2e" x="63.623047"/>
       <use xlink:href="#DejaVuSans-36" x="95.410156"/>
       <use xlink:href="#DejaVuSans-35" x="159.033203"/>
       <use xlink:href="#DejaVuSans-30" x="222.65625"/>
      </g>
     </g>
    </g>
    <g id="ytick_8">
     <g id="line2d_22">
      <g>
       <use xlink:href="#ma25f0941e9" x="412.52" y="271.617119" style="stroke: #000000; stroke-width: 0.8"/>
      </g>
     </g>
     <g id="text_24">
      <!-- 0.675 -->
      <g transform="translate(376.891875 275.416337) scale(0.1 -0.1)">
       <defs>
        <path id="DejaVuSans-37" d="M 525 4666 
L 3525 4666 
L 3525 4397 
L 1831 0 
L 1172 0 
L 2766 4134 
L 525 4134 
L 525 4666 
z
" transform="scale(0.015625)"/>
       </defs>
       <use xlink:href="#DejaVuSans-30"/>
       <use xlink:href="#DejaVuSans-2e" x="63.623047"/>
       <use xlink:href="#DejaVuSans-36" x="95.410156"/>
       <use xlink:href="#DejaVuSans-37" x="159.033203"/>
       <use xlink:href="#DejaVuSans-35" x="222.65625"/>
      </g>
     </g>
    </g>
    <g id="ytick_9">
     <g id="line2d_23">
      <g>
       <use xlink:href="#ma25f0941e9" x="412.52" y="234.837902" style="stroke: #000000; stroke-width: 0.8"/>
      </g>
     </g>
     <g id="text_25">
      <!-- 0.700 -->
      <g transform="translate(376.891875 238.63712) scale(0.1 -0.1)">
       <use xlink:href="#DejaVuSans-30"/>
       <use xlink:href="#DejaVuSans-2e" x="63.623047"/>
       <use xlink:href="#DejaVuSans-37" x="95.410156"/>
       <use xlink:href="#DejaVuSans-30" x="159.033203"/>
       <use xlink:href="#DejaVuSans-30" x="222.65625"/>
      </g>
     </g>
    </g>
    <g id="ytick_10">
     <g id="line2d_24">
      <g>
       <use xlink:href="#ma25f0941e9" x="412.52" y="198.058685" style="stroke: #000000; stroke-width: 0.8"/>
      </g>
     </g>
     <g id="text_26">
      <!-- 0.725 -->
      <g transform="translate(376.891875 201.857903) scale(0.1 -0.1)">
       <use xlink:href="#DejaVuSans-30"/>
       <use xlink:href="#DejaVuSans-2e" x="63.623047"/>
       <use xlink:href="#DejaVuSans-37" x="95.410156"/>
       <use xlink:href="#DejaVuSans-32" x="159.033203"/>
       <use xlink:href="#DejaVuSans-35" x="222.65625"/>
      </g>
     </g>
    </g>
    <g id="ytick_11">
     <g id="line2d_25">
      <g>
       <use xlink:href="#ma25f0941e9" x="412.52" y="161.279468" style="stroke: #000000; stroke-width: 0.8"/>
      </g>
     </g>
     <g id="text_27">
      <!-- 0.750 -->
      <g transform="translate(376.891875 165.078686) scale(0.1 -0.1)">
       <use xlink:href="#DejaVuSans-30"/>
       <use xlink:href="#DejaVuSans-2e" x="63.623047"/>
       <use xlink:href="#DejaVuSans-37" x="95.410156"/>
       <use xlink:href="#DejaVuSans-35" x="159.033203"/>
       <use xlink:href="#DejaVuSans-30" x="222.65625"/>
      </g>
     </g>
    </g>
    <g id="ytick_12">
     <g id="line2d_26">
      <g>
       <use xlink:href="#ma25f0941e9" x="412.52" y="124.500251" style="stroke: #000000; stroke-width: 0.8"/>
      </g>
     </g>
     <g id="text_28">
      <!-- 0.775 -->
      <g transform="translate(376.891875 128.299469) scale(0.1 -0.1)">
       <use xlink:href="#DejaVuSans-30"/>
       <use xlink:href="#DejaVuSans-2e" x="63.623047"/>
       <use xlink:href="#DejaVuSans-37" x="95.410156"/>
       <use xlink:href="#DejaVuSans-37" x="159.033203"/>
       <use xlink:href="#DejaVuSans-35" x="222.65625"/>
      </g>
     </g>
    </g>
    <g id="ytick_13">
     <g id="line2d_27">
      <g>
       <use xlink:href="#ma25f0941e9" x="412.52" y="87.721034" style="stroke: #000000; stroke-width: 0.8"/>
      </g>
     </g>
     <g id="text_29">
      <!-- 0.800 -->
      <g transform="translate(376.891875 91.520252) scale(0.1 -0.1)">
       <defs>
        <path id="DejaVuSans-38" d="M 2034 2216 
Q 1584 2216 1326 1975 
Q 1069 1734 1069 1313 
Q 1069 891 1326 650 
Q 1584 409 2034 409 
Q 2484 409 2743 651 
Q 3003 894 3003 1313 
Q 3003 1734 2745 1975 
Q 2488 2216 2034 2216 
z
M 1403 2484 
Q 997 2584 770 2862 
Q 544 3141 544 3541 
Q 544 4100 942 4425 
Q 1341 4750 2034 4750 
Q 2731 4750 3128 4425 
Q 3525 4100 3525 3541 
Q 3525 3141 3298 2862 
Q 3072 2584 2669 2484 
Q 3125 2378 3379 2068 
Q 3634 1759 3634 1313 
Q 3634 634 3220 271 
Q 2806 -91 2034 -91 
Q 1263 -91 848 271 
Q 434 634 434 1313 
Q 434 1759 690 2068 
Q 947 2378 1403 2484 
z
M 1172 3481 
Q 1172 3119 1398 2916 
Q 1625 2713 2034 2713 
Q 2441 2713 2670 2916 
Q 2900 3119 2900 3481 
Q 2900 3844 2670 4047 
Q 2441 4250 2034 4250 
Q 1625 4250 1398 4047 
Q 1172 3844 1172 3481 
z
" transform="scale(0.015625)"/>
       </defs>
       <use xlink:href="#DejaVuSans-30"/>
       <use xlink:href="#DejaVuSans-2e" x="63.623047"/>
       <use xlink:href="#DejaVuSans-38" x="95.410156"/>
       <use xlink:href="#DejaVuSans-30" x="159.033203"/>
       <use xlink:href="#DejaVuSans-30" x="222.65625"/>
      </g>
     </g>
    </g>
    <g id="ytick_14">
     <g id="line2d_28">
      <g>
       <use xlink:href="#ma25f0941e9" x="412.52" y="50.941817" style="stroke: #000000; stroke-width: 0.8"/>
      </g>
     </g>
     <g id="text_30">
      <!-- 0.825 -->
      <g transform="translate(376.891875 54.741035) scale(0.1 -0.1)">
       <use xlink:href="#DejaVuSans-30"/>
       <use xlink:href="#DejaVuSans-2e" x="63.623047"/>
       <use xlink:href="#DejaVuSans-38" x="95.410156"/>
       <use xlink:href="#DejaVuSans-32" x="159.033203"/>
       <use xlink:href="#DejaVuSans-35" x="222.65625"/>
      </g>
     </g>
    </g>
    <g id="text_31">
     <!-- Accuracy -->
     <g transform="translate(370.812187 195.288125) rotate(-90) scale(0.1 -0.1)">
      <defs>
       <path id="DejaVuSans-41" d="M 2188 4044 
L 1331 1722 
L 3047 1722 
L 2188 4044 
z
M 1831 4666 
L 2547 4666 
L 4325 0 
L 3669 0 
L 3244 1197 
L 1141 1197 
L 716 0 
L 50 0 
L 1831 4666 
z
" transform="scale(0.015625)"/>
       <path id="DejaVuSans-75" d="M 544 1381 
L 544 3500 
L 1119 3500 
L 1119 1403 
Q 1119 906 1312 657 
Q 1506 409 1894 409 
Q 2359 409 2629 706 
Q 2900 1003 2900 1516 
L 2900 3500 
L 3475 3500 
L 3475 0 
L 2900 0 
L 2900 538 
Q 2691 219 2414 64 
Q 2138 -91 1772 -91 
Q 1169 -91 856 284 
Q 544 659 544 1381 
z
M 1991 3584 
L 1991 3584 
z
" transform="scale(0.015625)"/>
       <path id="DejaVuSans-79" d="M 2059 -325 
Q 1816 -950 1584 -1140 
Q 1353 -1331 966 -1331 
L 506 -1331 
L 506 -850 
L 844 -850 
Q 1081 -850 1212 -737 
Q 1344 -625 1503 -206 
L 1606 56 
L 191 3500 
L 800 3500 
L 1894 763 
L 2988 3500 
L 3597 3500 
L 2059 -325 
z
" transform="scale(0.015625)"/>
      </defs>
      <use xlink:href="#DejaVuSans-41"/>
      <use xlink:href="#DejaVuSans-63" x="66.658203"/>
      <use xlink:href="#DejaVuSans-63" x="121.638672"/>
      <use xlink:href="#DejaVuSans-75" x="176.619141"/>
      <use xlink:href="#DejaVuSans-72" x="239.998047"/>
      <use xlink:href="#DejaVuSans-61" x="281.111328"/>
      <use xlink:href="#DejaVuSans-63" x="342.390625"/>
      <use xlink:href="#DejaVuSans-79" x="397.371094"/>
     </g>
    </g>
   </g>
   <g id="line2d_29">
    <path d="M 426.073636 304.805455 
L 427.305785 291.986082 
L 428.537934 275.524842 
L 429.770083 279.895083 
L 431.002231 257.169831 
L 432.23438 245.224507 
L 433.466529 248.720699 
L 434.698678 215.069846 
L 435.930826 216.817943 
L 437.162975 203.415871 
L 438.395124 214.050124 
L 439.627273 196.714836 
L 440.859421 193.509992 
L 442.09157 181.273319 
L 443.323719 166.997199 
L 444.555868 185.789234 
L 445.788017 169.910693 
L 447.020165 165.103428 
L 448.252314 174.572283 
L 449.484463 165.977476 
L 450.716612 143.10655 
L 451.94876 158.693742 
L 453.180909 150.535959 
L 454.413058 158.693742 
L 455.645207 133.346346 
L 456.877355 138.73631 
L 458.109504 147.331116 
L 459.341653 147.622466 
L 460.573802 130.287178 
L 461.80595 136.25984 
L 463.038099 147.622466 
L 464.270248 135.677141 
L 465.502397 136.405515 
L 466.734545 126.93666 
L 467.966694 123.149118 
L 469.198843 132.035274 
L 470.430992 126.062612 
L 471.66314 127.665033 
L 472.895289 129.558804 
L 474.127438 121.401022 
L 475.359587 119.652925 
L 476.591736 123.731817 
L 477.823884 120.381299 
L 479.056033 118.633203 
L 480.288182 107.99895 
L 481.520331 109.601372 
L 482.752479 117.759154 
L 483.984628 107.416252 
L 485.216777 105.376806 
L 486.448926 114.699986 
L 487.681074 108.2903 
L 488.913223 108.2903 
L 490.145372 108.727324 
L 491.377521 101.589264 
L 492.609669 100.715216 
L 493.841818 97.656047 
L 495.073967 104.211408 
L 496.306116 100.715216 
L 497.538264 116.156733 
L 498.770413 104.794107 
L 500.002562 97.364698 
L 501.234711 92.703108 
L 502.46686 95.470927 
L 504.931157 99.986842 
L 506.163306 92.411759 
L 507.395455 91.537711 
L 508.627603 98.238746 
L 509.859752 95.762276 
L 511.091901 97.801722 
L 512.32405 103.191686 
L 513.556198 94.30553 
L 514.788347 99.695493 
L 516.020496 85.565048 
L 517.252645 90.663662 
L 518.484793 88.769891 
L 519.716942 85.565048 
L 520.949091 81.486157 
L 522.18124 98.384421 
L 523.413388 89.35259 
L 524.645537 85.128024 
L 525.877686 76.970242 
L 527.109835 86.87612 
L 528.341983 81.049133 
L 529.574132 81.777506 
L 530.806281 76.241868 
L 532.03843 86.147747 
L 533.270579 88.478542 
L 534.502727 82.068856 
L 535.734876 86.293422 
L 536.967025 80.02941 
L 538.199174 82.068856 
L 539.431322 83.671277 
L 540.663471 86.87612 
L 541.89562 92.848783 
L 543.127769 85.565048 
L 544.359917 79.446711 
L 545.592066 81.777506 
L 546.824215 75.076471 
L 548.056364 84.399651 
L 549.288512 79.155362 
L 550.520661 75.076471 
L 551.75281 72.017302 
L 552.984959 71.143254 
L 554.217107 74.493772 
L 555.449256 75.804844 
L 556.681405 73.1827 
L 557.913554 76.387543 
L 559.145702 68.22976 
L 560.377851 76.096194 
L 561.61 74.930796 
L 562.842149 78.572663 
L 564.074298 70.70623 
L 565.306446 73.328374 
L 566.538595 74.348097 
L 567.770744 72.89135 
L 569.002893 78.572663 
L 570.235041 69.540833 
L 571.46719 75.076471 
L 572.699339 72.308652 
L 573.931488 70.851905 
L 575.163636 73.1827 
L 576.395785 71.288929 
L 577.627934 67.792736 
L 578.860083 68.812459 
L 580.092231 66.627339 
L 581.32438 71.143254 
L 582.556529 60.071978 
L 583.788678 65.024917 
L 585.020826 63.56817 
L 586.252975 62.985472 
L 587.485124 66.04464 
L 588.717273 68.084086 
L 589.949421 63.56817 
L 591.18157 65.898965 
L 592.413719 63.85952 
L 593.645868 60.071978 
L 594.878017 60.071978 
L 596.110165 63.85952 
L 597.342314 60.071978 
L 598.574463 62.402773 
L 599.806612 60.654677 
L 601.03876 62.548447 
L 602.270909 60.217652 
L 603.503058 56.72146 
L 604.735207 57.595508 
L 605.967355 58.90658 
L 607.199504 65.753291 
L 608.431653 63.85952 
L 609.663802 63.56817 
L 610.89595 60.509002 
L 612.128099 55.264713 
L 613.360248 52.933918 
L 614.592397 59.634954 
L 615.824545 62.694122 
L 617.056694 56.284436 
L 618.288843 53.953641 
L 619.520992 55.847412 
L 620.75314 55.993087 
L 621.985289 54.682014 
L 623.217438 55.556062 
L 624.449587 50.603123 
L 625.681736 56.575785 
L 626.913884 57.595508 
L 629.378182 51.477171 
L 630.610331 61.820074 
L 633.074628 56.284436 
L 634.306777 52.351219 
L 635.538926 55.119038 
L 636.771074 49.87475 
L 638.003223 53.807966 
L 639.235372 47.689629 
L 640.467521 58.178207 
L 641.699669 52.05987 
L 642.931818 50.748798 
L 644.163967 51.185822 
L 645.396116 51.331496 
L 646.628264 50.020424 
L 647.860413 55.410388 
L 649.092562 49.292051 
L 650.324711 49.437726 
L 651.55686 51.331496 
L 652.789008 52.642569 
L 654.021157 51.622846 
L 655.253306 49.000701 
L 656.485455 49.5834 
L 657.717603 51.914195 
L 658.949752 48.272328 
L 660.181901 50.311774 
L 661.41405 43.319389 
L 662.646198 50.603123 
L 665.110496 47.835304 
L 666.342645 49.729075 
L 667.574793 48.709352 
L 668.806942 48.563677 
L 670.039091 47.835304 
L 671.27124 48.855027 
L 672.503388 46.378557 
L 673.735537 45.21316 
L 674.967686 44.776135 
L 676.199835 46.669906 
L 677.431983 45.067485 
L 678.664132 43.756413 
L 679.896281 45.795858 
L 681.12843 43.173714 
L 682.360579 45.504509 
L 683.592727 41.134268 
L 684.824876 47.689629 
L 687.289174 40.114545 
L 688.521322 41.862642 
L 689.753471 43.902087 
L 690.98562 44.047762 
L 692.217769 43.173714 
L 693.449917 46.087208 
L 694.682066 44.92181 
L 695.914215 42.299666 
L 697.146364 46.087208 
L 697.146364 46.087208 
" clip-path="url(#p6263aebd24)" style="fill: none; stroke: #1f77b4; stroke-width: 1.5; stroke-linecap: square"/>
   </g>
   <g id="line2d_30">
    <path d="M 426.073636 243.604505 
L 427.305785 238.44768 
L 428.537934 218.557066 
L 429.770083 238.44768 
L 431.002231 212.663551 
L 432.23438 239.184369 
L 433.466529 233.290854 
L 434.698678 206.033347 
L 435.930826 183.195977 
L 437.162975 193.509628 
L 438.395124 174.355704 
L 439.627273 161.831985 
L 440.859421 155.93847 
L 442.09157 113.210486 
L 443.323719 185.406045 
L 444.555868 145.624818 
L 445.788017 144.888129 
L 447.020165 164.042053 
L 448.252314 124.260827 
L 449.484463 115.420554 
L 450.716612 132.36441 
L 451.94876 95.529941 
L 453.180909 154.465091 
L 454.413058 116.893933 
L 455.645207 122.787448 
L 456.877355 125.734205 
L 458.109504 130.154342 
L 459.341653 108.05366 
L 460.573802 108.05366 
L 461.80595 104.370214 
L 463.038099 112.473797 
L 464.270248 124.997516 
L 465.502397 113.947175 
L 466.734545 99.213388 
L 469.198843 119.104001 
L 470.430992 108.79035 
L 471.66314 116.157244 
L 472.895289 108.05366 
L 474.127438 122.050758 
L 475.359587 118.367312 
L 476.591736 119.84069 
L 477.823884 115.420554 
L 479.056033 112.473797 
L 480.288182 129.417652 
L 481.520331 134.574478 
L 482.752479 113.947175 
L 483.984628 135.311167 
L 485.216777 116.893933 
L 486.448926 124.260827 
L 487.681074 130.891031 
L 488.913223 116.157244 
L 490.145372 122.787448 
L 491.377521 124.997516 
L 492.609669 116.893933 
L 493.841818 128.680963 
L 495.073967 122.787448 
L 496.306116 127.944273 
L 497.538264 111.737107 
L 498.770413 125.734205 
L 500.002562 122.787448 
L 502.46686 128.680963 
L 503.699008 126.470895 
L 504.931157 127.944273 
L 506.163306 123.524137 
L 507.395455 122.050758 
L 508.627603 126.470895 
L 509.859752 120.57738 
L 511.091901 127.944273 
L 512.32405 121.314069 
L 513.556198 124.997516 
L 514.788347 122.050758 
L 516.020496 108.05366 
L 517.252645 118.367312 
L 518.484793 130.891031 
L 519.716942 119.84069 
L 520.949091 131.62772 
L 522.18124 133.837788 
L 523.413388 127.944273 
L 524.645537 130.891031 
L 525.877686 115.420554 
L 527.109835 130.154342 
L 528.341983 118.367312 
L 529.574132 112.473797 
L 530.806281 119.84069 
L 532.03843 138.257925 
L 533.270579 127.944273 
L 534.502727 130.891031 
L 535.734876 113.210486 
L 536.967025 114.683865 
L 538.199174 107.316971 
L 539.431322 118.367312 
L 540.663471 124.260827 
L 541.89562 125.734205 
L 543.127769 118.367312 
L 544.359917 116.893933 
L 545.592066 113.210486 
L 546.824215 126.470895 
L 548.056364 119.84069 
L 549.288512 110.263729 
L 550.520661 124.260827 
L 551.75281 109.527039 
L 552.984959 112.473797 
L 554.217107 112.473797 
L 555.449256 127.207584 
L 556.681405 131.62772 
L 557.913554 126.470895 
L 559.145702 119.84069 
L 560.377851 110.263729 
L 561.61 122.050758 
L 562.842149 109.527039 
L 564.074298 108.05366 
L 565.306446 126.470895 
L 566.538595 109.527039 
L 567.770744 122.050758 
L 569.002893 109.527039 
L 571.46719 124.260827 
L 572.699339 122.050758 
L 573.931488 89.636426 
L 575.163636 116.893933 
L 576.395785 113.947175 
L 577.627934 118.367312 
L 578.860083 107.316971 
L 580.092231 114.683865 
L 581.32438 119.84069 
L 582.556529 105.843592 
L 583.788678 100.686767 
L 585.020826 108.79035 
L 586.252975 109.527039 
L 587.485124 114.683865 
L 588.717273 104.370214 
L 589.949421 99.950077 
L 591.18157 110.263729 
L 592.413719 102.160145 
L 593.645868 108.79035 
L 594.878017 104.370214 
L 596.110165 112.473797 
L 597.342314 105.106903 
L 598.574463 102.160145 
L 599.806612 115.420554 
L 601.03876 107.316971 
L 602.270909 106.580282 
L 603.503058 113.947175 
L 604.735207 103.633524 
L 607.199504 111.000418 
L 608.431653 106.580282 
L 609.663802 98.476699 
L 610.89595 101.423456 
L 612.128099 99.213388 
L 613.360248 102.896835 
L 614.592397 108.79035 
L 615.824545 94.793252 
L 617.056694 101.423456 
L 618.288843 105.843592 
L 619.520992 108.79035 
L 620.75314 102.896835 
L 621.985289 102.160145 
L 623.217438 107.316971 
L 624.449587 115.420554 
L 625.681736 105.106903 
L 626.913884 96.26663 
L 628.146033 97.740009 
L 629.378182 111.737107 
L 630.610331 110.263729 
L 631.842479 105.843592 
L 633.074628 99.213388 
L 634.306777 108.05366 
L 635.538926 113.947175 
L 636.771074 102.896835 
L 638.003223 112.473797 
L 639.235372 105.106903 
L 640.467521 104.370214 
L 641.699669 97.740009 
L 644.163967 112.473797 
L 645.396116 102.896835 
L 646.628264 106.580282 
L 647.860413 97.740009 
L 649.092562 113.210486 
L 650.324711 98.476699 
L 651.55686 102.896835 
L 654.021157 104.370214 
L 655.253306 98.476699 
L 656.485455 108.05366 
L 657.717603 110.263729 
L 658.949752 101.423456 
L 660.181901 105.843592 
L 661.41405 102.896835 
L 662.646198 106.580282 
L 663.878347 102.160145 
L 665.110496 108.79035 
L 666.342645 108.79035 
L 667.574793 113.947175 
L 668.806942 104.370214 
L 670.039091 102.896835 
L 671.27124 118.367312 
L 672.503388 98.476699 
L 673.735537 96.26663 
L 674.967686 107.316971 
L 676.199835 108.79035 
L 677.431983 99.213388 
L 681.12843 101.423456 
L 682.360579 97.740009 
L 683.592727 99.950077 
L 684.824876 99.950077 
L 686.057025 100.686767 
L 687.289174 105.843592 
L 688.521322 96.26663 
L 689.753471 105.843592 
L 690.98562 103.633524 
L 692.217769 105.106903 
L 693.449917 99.213388 
L 694.682066 112.473797 
L 695.914215 105.106903 
L 697.146364 105.106903 
L 697.146364 105.106903 
" clip-path="url(#p6263aebd24)" style="fill: none; stroke: #ff7f0e; stroke-width: 1.5; stroke-linecap: square"/>
   </g>
   <g id="patch_9">
    <path d="M 412.52 318.04 
L 412.52 26.88 
" style="fill: none; stroke: #000000; stroke-width: 0.8; stroke-linejoin: miter; stroke-linecap: square"/>
   </g>
   <g id="patch_10">
    <path d="M 710.7 318.04 
L 710.7 26.88 
" style="fill: none; stroke: #000000; stroke-width: 0.8; stroke-linejoin: miter; stroke-linecap: square"/>
   </g>
   <g id="patch_11">
    <path d="M 412.52 318.04 
L 710.7 318.04 
" style="fill: none; stroke: #000000; stroke-width: 0.8; stroke-linejoin: miter; stroke-linecap: square"/>
   </g>
   <g id="patch_12">
    <path d="M 412.52 26.88 
L 710.7 26.88 
" style="fill: none; stroke: #000000; stroke-width: 0.8; stroke-linejoin: miter; stroke-linecap: square"/>
   </g>
   <g id="text_32">
    <!-- Accuracy vs Epoch -->
    <g transform="translate(505.3525 20.88) scale(0.12 -0.12)">
     <use xlink:href="#DejaVuSans-41"/>
     <use xlink:href="#DejaVuSans-63" x="66.658203"/>
     <use xlink:href="#DejaVuSans-63" x="121.638672"/>
     <use xlink:href="#DejaVuSans-75" x="176.619141"/>
     <use xlink:href="#DejaVuSans-72" x="239.998047"/>
     <use xlink:href="#DejaVuSans-61" x="281.111328"/>
     <use xlink:href="#DejaVuSans-63" x="342.390625"/>
     <use xlink:href="#DejaVuSans-79" x="397.371094"/>
     <use xlink:href="#DejaVuSans-20" x="456.550781"/>
     <use xlink:href="#DejaVuSans-76" x="488.337891"/>
     <use xlink:href="#DejaVuSans-73" x="547.517578"/>
     <use xlink:href="#DejaVuSans-20" x="599.617188"/>
     <use xlink:href="#DejaVuSans-45" x="631.404297"/>
     <use xlink:href="#DejaVuSans-70" x="694.587891"/>
     <use xlink:href="#DejaVuSans-6f" x="758.064453"/>
     <use xlink:href="#DejaVuSans-63" x="819.246094"/>
     <use xlink:href="#DejaVuSans-68" x="874.226562"/>
    </g>
   </g>
   <g id="legend_2">
    <g id="patch_13">
     <path d="M 419.52 64.23625 
L 549.735625 64.23625 
Q 551.735625 64.23625 551.735625 62.23625 
L 551.735625 33.88 
Q 551.735625 31.88 549.735625 31.88 
L 419.52 31.88 
Q 417.52 31.88 417.52 33.88 
L 417.52 62.23625 
Q 417.52 64.23625 419.52 64.23625 
z
" style="fill: #ffffff; opacity: 0.8; stroke: #cccccc; stroke-linejoin: miter"/>
    </g>
    <g id="line2d_31">
     <path d="M 421.52 39.978437 
L 431.52 39.978437 
L 441.52 39.978437 
" style="fill: none; stroke: #1f77b4; stroke-width: 1.5; stroke-linecap: square"/>
    </g>
    <g id="text_33">
     <!-- Train Accuracy -->
     <g transform="translate(449.52 43.478437) scale(0.1 -0.1)">
      <use xlink:href="#DejaVuSans-54"/>
      <use xlink:href="#DejaVuSans-72" x="46.333984"/>
      <use xlink:href="#DejaVuSans-61" x="87.447266"/>
      <use xlink:href="#DejaVuSans-69" x="148.726562"/>
      <use xlink:href="#DejaVuSans-6e" x="176.509766"/>
      <use xlink:href="#DejaVuSans-20" x="239.888672"/>
      <use xlink:href="#DejaVuSans-41" x="271.675781"/>
      <use xlink:href="#DejaVuSans-63" x="338.333984"/>
      <use xlink:href="#DejaVuSans-63" x="393.314453"/>
      <use xlink:href="#DejaVuSans-75" x="448.294922"/>
      <use xlink:href="#DejaVuSans-72" x="511.673828"/>
      <use xlink:href="#DejaVuSans-61" x="552.787109"/>
      <use xlink:href="#DejaVuSans-63" x="614.066406"/>
      <use xlink:href="#DejaVuSans-79" x="669.046875"/>
     </g>
    </g>
    <g id="line2d_32">
     <path d="M 421.52 54.656563 
L 431.52 54.656563 
L 441.52 54.656563 
" style="fill: none; stroke: #ff7f0e; stroke-width: 1.5; stroke-linecap: square"/>
    </g>
    <g id="text_34">
     <!-- Validation Accuracy -->
     <g transform="translate(449.52 58.156563) scale(0.1 -0.1)">
      <use xlink:href="#DejaVuSans-56"/>
      <use xlink:href="#DejaVuSans-61" x="60.658203"/>
      <use xlink:href="#DejaVuSans-6c" x="121.9375"/>
      <use xlink:href="#DejaVuSans-69" x="149.720703"/>
      <use xlink:href="#DejaVuSans-64" x="177.503906"/>
      <use xlink:href="#DejaVuSans-61" x="240.980469"/>
      <use xlink:href="#DejaVuSans-74" x="302.259766"/>
      <use xlink:href="#DejaVuSans-69" x="341.46875"/>
      <use xlink:href="#DejaVuSans-6f" x="369.251953"/>
      <use xlink:href="#DejaVuSans-6e" x="430.433594"/>
      <use xlink:href="#DejaVuSans-20" x="493.8125"/>
      <use xlink:href="#DejaVuSans-41" x="525.599609"/>
      <use xlink:href="#DejaVuSans-63" x="592.257812"/>
      <use xlink:href="#DejaVuSans-63" x="647.238281"/>
      <use xlink:href="#DejaVuSans-75" x="702.21875"/>
      <use xlink:href="#DejaVuSans-72" x="765.597656"/>
      <use xlink:href="#DejaVuSans-61" x="806.710938"/>
      <use xlink:href="#DejaVuSans-63" x="867.990234"/>
      <use xlink:href="#DejaVuSans-79" x="922.970703"/>
     </g>
    </g>
   </g>
  </g>
  <g id="axes_3">
   <g id="patch_14">
    <path d="M 771.02 318.04 
L 1069.2 318.04 
L 1069.2 26.88 
L 771.02 26.88 
z
" style="fill: #ffffff"/>
   </g>
   <g id="matplotlib.axis_5">
    <g id="xtick_11">
     <g id="line2d_33">
      <g>
       <use xlink:href="#mb6d4bad4db" x="784.573636" y="318.04" style="stroke: #000000; stroke-width: 0.8"/>
      </g>
     </g>
     <g id="text_35">
      <!-- 0 -->
      <g transform="translate(781.392386 332.638438) scale(0.1 -0.1)">
       <use xlink:href="#DejaVuSans-30"/>
      </g>
     </g>
    </g>
    <g id="xtick_12">
     <g id="line2d_34">
      <g>
       <use xlink:href="#mb6d4bad4db" x="846.181074" y="318.04" style="stroke: #000000; stroke-width: 0.8"/>
      </g>
     </g>
     <g id="text_36">
      <!-- 50 -->
      <g transform="translate(839.818574 332.638438) scale(0.1 -0.1)">
       <use xlink:href="#DejaVuSans-35"/>
       <use xlink:href="#DejaVuSans-30" x="63.623047"/>
      </g>
     </g>
    </g>
    <g id="xtick_13">
     <g id="line2d_35">
      <g>
       <use xlink:href="#mb6d4bad4db" x="907.788512" y="318.04" style="stroke: #000000; stroke-width: 0.8"/>
      </g>
     </g>
     <g id="text_37">
      <!-- 100 -->
      <g transform="translate(898.244762 332.638438) scale(0.1 -0.1)">
       <use xlink:href="#DejaVuSans-31"/>
       <use xlink:href="#DejaVuSans-30" x="63.623047"/>
       <use xlink:href="#DejaVuSans-30" x="127.246094"/>
      </g>
     </g>
    </g>
    <g id="xtick_14">
     <g id="line2d_36">
      <g>
       <use xlink:href="#mb6d4bad4db" x="969.39595" y="318.04" style="stroke: #000000; stroke-width: 0.8"/>
      </g>
     </g>
     <g id="text_38">
      <!-- 150 -->
      <g transform="translate(959.8522 332.638438) scale(0.1 -0.1)">
       <use xlink:href="#DejaVuSans-31"/>
       <use xlink:href="#DejaVuSans-35" x="63.623047"/>
       <use xlink:href="#DejaVuSans-30" x="127.246094"/>
      </g>
     </g>
    </g>
    <g id="xtick_15">
     <g id="line2d_37">
      <g>
       <use xlink:href="#mb6d4bad4db" x="1031.003388" y="318.04" style="stroke: #000000; stroke-width: 0.8"/>
      </g>
     </g>
     <g id="text_39">
      <!-- 200 -->
      <g transform="translate(1021.459638 332.638438) scale(0.1 -0.1)">
       <use xlink:href="#DejaVuSans-32"/>
       <use xlink:href="#DejaVuSans-30" x="63.623047"/>
       <use xlink:href="#DejaVuSans-30" x="127.246094"/>
      </g>
     </g>
    </g>
    <g id="text_40">
     <!-- Epoch -->
     <g transform="translate(904.799062 346.316563) scale(0.1 -0.1)">
      <use xlink:href="#DejaVuSans-45"/>
      <use xlink:href="#DejaVuSans-70" x="63.183594"/>
      <use xlink:href="#DejaVuSans-6f" x="126.660156"/>
      <use xlink:href="#DejaVuSans-63" x="187.841797"/>
      <use xlink:href="#DejaVuSans-68" x="242.822266"/>
     </g>
    </g>
   </g>
   <g id="matplotlib.axis_6">
    <g id="ytick_15">
     <g id="line2d_38">
      <g>
       <use xlink:href="#ma25f0941e9" x="771.02" y="285.551788" style="stroke: #000000; stroke-width: 0.8"/>
      </g>
     </g>
     <g id="text_41">
      <!-- 0.74 -->
      <g transform="translate(741.754375 289.351007) scale(0.1 -0.1)">
       <use xlink:href="#DejaVuSans-30"/>
       <use xlink:href="#DejaVuSans-2e" x="63.623047"/>
       <use xlink:href="#DejaVuSans-37" x="95.410156"/>
       <use xlink:href="#DejaVuSans-34" x="159.033203"/>
      </g>
     </g>
    </g>
    <g id="ytick_16">
     <g id="line2d_39">
      <g>
       <use xlink:href="#ma25f0941e9" x="771.02" y="248.133634" style="stroke: #000000; stroke-width: 0.8"/>
      </g>
     </g>
     <g id="text_42">
      <!-- 0.76 -->
      <g transform="translate(741.754375 251.932853) scale(0.1 -0.1)">
       <use xlink:href="#DejaVuSans-30"/>
       <use xlink:href="#DejaVuSans-2e" x="63.623047"/>
       <use xlink:href="#DejaVuSans-37" x="95.410156"/>
       <use xlink:href="#DejaVuSans-36" x="159.033203"/>
      </g>
     </g>
    </g>
    <g id="ytick_17">
     <g id="line2d_40">
      <g>
       <use xlink:href="#ma25f0941e9" x="771.02" y="210.715479" style="stroke: #000000; stroke-width: 0.8"/>
      </g>
     </g>
     <g id="text_43">
      <!-- 0.78 -->
      <g transform="translate(741.754375 214.514698) scale(0.1 -0.1)">
       <use xlink:href="#DejaVuSans-30"/>
       <use xlink:href="#DejaVuSans-2e" x="63.623047"/>
       <use xlink:href="#DejaVuSans-37" x="95.410156"/>
       <use xlink:href="#DejaVuSans-38" x="159.033203"/>
      </g>
     </g>
    </g>
    <g id="ytick_18">
     <g id="line2d_41">
      <g>
       <use xlink:href="#ma25f0941e9" x="771.02" y="173.297325" style="stroke: #000000; stroke-width: 0.8"/>
      </g>
     </g>
     <g id="text_44">
      <!-- 0.80 -->
      <g transform="translate(741.754375 177.096544) scale(0.1 -0.1)">
       <use xlink:href="#DejaVuSans-30"/>
       <use xlink:href="#DejaVuSans-2e" x="63.623047"/>
       <use xlink:href="#DejaVuSans-38" x="95.410156"/>
       <use xlink:href="#DejaVuSans-30" x="159.033203"/>
      </g>
     </g>
    </g>
    <g id="ytick_19">
     <g id="line2d_42">
      <g>
       <use xlink:href="#ma25f0941e9" x="771.02" y="135.87917" style="stroke: #000000; stroke-width: 0.8"/>
      </g>
     </g>
     <g id="text_45">
      <!-- 0.82 -->
      <g transform="translate(741.754375 139.678389) scale(0.1 -0.1)">
       <use xlink:href="#DejaVuSans-30"/>
       <use xlink:href="#DejaVuSans-2e" x="63.623047"/>
       <use xlink:href="#DejaVuSans-38" x="95.410156"/>
       <use xlink:href="#DejaVuSans-32" x="159.033203"/>
      </g>
     </g>
    </g>
    <g id="ytick_20">
     <g id="line2d_43">
      <g>
       <use xlink:href="#ma25f0941e9" x="771.02" y="98.461016" style="stroke: #000000; stroke-width: 0.8"/>
      </g>
     </g>
     <g id="text_46">
      <!-- 0.84 -->
      <g transform="translate(741.754375 102.260234) scale(0.1 -0.1)">
       <use xlink:href="#DejaVuSans-30"/>
       <use xlink:href="#DejaVuSans-2e" x="63.623047"/>
       <use xlink:href="#DejaVuSans-38" x="95.410156"/>
       <use xlink:href="#DejaVuSans-34" x="159.033203"/>
      </g>
     </g>
    </g>
    <g id="ytick_21">
     <g id="line2d_44">
      <g>
       <use xlink:href="#ma25f0941e9" x="771.02" y="61.042861" style="stroke: #000000; stroke-width: 0.8"/>
      </g>
     </g>
     <g id="text_47">
      <!-- 0.86 -->
      <g transform="translate(741.754375 64.84208) scale(0.1 -0.1)">
       <use xlink:href="#DejaVuSans-30"/>
       <use xlink:href="#DejaVuSans-2e" x="63.623047"/>
       <use xlink:href="#DejaVuSans-38" x="95.410156"/>
       <use xlink:href="#DejaVuSans-36" x="159.033203"/>
      </g>
     </g>
    </g>
    <g id="text_48">
     <!-- F1-Score -->
     <g transform="translate(735.674688 194.323281) rotate(-90) scale(0.1 -0.1)">
      <defs>
       <path id="DejaVuSans-46" d="M 628 4666 
L 3309 4666 
L 3309 4134 
L 1259 4134 
L 1259 2759 
L 3109 2759 
L 3109 2228 
L 1259 2228 
L 1259 0 
L 628 0 
L 628 4666 
z
" transform="scale(0.015625)"/>
       <path id="DejaVuSans-2d" d="M 313 2009 
L 1997 2009 
L 1997 1497 
L 313 1497 
L 313 2009 
z
" transform="scale(0.015625)"/>
       <path id="DejaVuSans-53" d="M 3425 4513 
L 3425 3897 
Q 3066 4069 2747 4153 
Q 2428 4238 2131 4238 
Q 1616 4238 1336 4038 
Q 1056 3838 1056 3469 
Q 1056 3159 1242 3001 
Q 1428 2844 1947 2747 
L 2328 2669 
Q 3034 2534 3370 2195 
Q 3706 1856 3706 1288 
Q 3706 609 3251 259 
Q 2797 -91 1919 -91 
Q 1588 -91 1214 -16 
Q 841 59 441 206 
L 441 856 
Q 825 641 1194 531 
Q 1563 422 1919 422 
Q 2459 422 2753 634 
Q 3047 847 3047 1241 
Q 3047 1584 2836 1778 
Q 2625 1972 2144 2069 
L 1759 2144 
Q 1053 2284 737 2584 
Q 422 2884 422 3419 
Q 422 4038 858 4394 
Q 1294 4750 2059 4750 
Q 2388 4750 2728 4690 
Q 3069 4631 3425 4513 
z
" transform="scale(0.015625)"/>
       <path id="DejaVuSans-65" d="M 3597 1894 
L 3597 1613 
L 953 1613 
Q 991 1019 1311 708 
Q 1631 397 2203 397 
Q 2534 397 2845 478 
Q 3156 559 3463 722 
L 3463 178 
Q 3153 47 2828 -22 
Q 2503 -91 2169 -91 
Q 1331 -91 842 396 
Q 353 884 353 1716 
Q 353 2575 817 3079 
Q 1281 3584 2069 3584 
Q 2775 3584 3186 3129 
Q 3597 2675 3597 1894 
z
M 3022 2063 
Q 3016 2534 2758 2815 
Q 2500 3097 2075 3097 
Q 1594 3097 1305 2825 
Q 1016 2553 972 2059 
L 3022 2063 
z
" transform="scale(0.015625)"/>
      </defs>
      <use xlink:href="#DejaVuSans-46"/>
      <use xlink:href="#DejaVuSans-31" x="57.519531"/>
      <use xlink:href="#DejaVuSans-2d" x="121.142578"/>
      <use xlink:href="#DejaVuSans-53" x="157.226562"/>
      <use xlink:href="#DejaVuSans-63" x="220.703125"/>
      <use xlink:href="#DejaVuSans-6f" x="275.683594"/>
      <use xlink:href="#DejaVuSans-72" x="336.865234"/>
      <use xlink:href="#DejaVuSans-65" x="375.728516"/>
     </g>
    </g>
   </g>
   <g id="line2d_45">
    <path d="M 784.573636 304.805455 
L 785.805785 272.584663 
L 787.037934 257.526269 
L 788.270083 260.452527 
L 789.502231 238.379576 
L 790.73438 230.243435 
L 791.966529 236.701787 
L 793.198678 203.115702 
L 794.430826 202.92281 
L 795.662975 194.960467 
L 796.895124 197.58945 
L 798.127273 184.319036 
L 799.359421 181.997924 
L 801.823719 158.981302 
L 803.055868 174.58001 
L 804.288017 159.463541 
L 805.520165 157.129853 
L 806.752314 163.926052 
L 807.984463 157.864265 
L 809.216612 136.216271 
L 810.44876 150.796493 
L 811.680909 143.767778 
L 812.913058 148.595376 
L 814.145207 127.02711 
L 815.377355 132.653564 
L 816.609504 140.674206 
L 817.841653 139.981903 
L 819.073802 124.148742 
L 820.30595 128.501928 
L 821.538099 139.115532 
L 822.770248 127.941986 
L 824.002397 130.352 
L 825.234545 119.734765 
L 826.466694 118.676817 
L 827.698843 126.672624 
L 828.930992 119.75855 
L 830.16314 123.078817 
L 831.395289 123.811794 
L 832.627438 115.93014 
L 833.859587 114.525944 
L 835.091736 117.463585 
L 836.323884 115.635452 
L 837.556033 114.037804 
L 838.788182 103.485441 
L 840.020331 104.32325 
L 841.252479 112.954559 
L 842.484628 103.288254 
L 843.716777 102.135179 
L 844.948926 110.017244 
L 846.181074 104.688419 
L 847.413223 105.429258 
L 848.645372 104.489465 
L 849.877521 98.319548 
L 851.109669 97.967889 
L 852.341818 94.924907 
L 853.573967 100.364831 
L 854.806116 97.020226 
L 856.038264 112.134936 
L 857.270413 101.614819 
L 858.502562 95.314437 
L 859.734711 90.152168 
L 860.96686 94.34237 
L 862.199008 94.954568 
L 863.431157 97.372323 
L 864.663306 89.91283 
L 865.895455 89.458408 
L 867.127603 96.753724 
L 868.359752 93.9539 
L 869.591901 95.403115 
L 870.82405 100.354027 
L 872.056198 91.865984 
L 873.288347 96.053868 
L 874.520496 83.70496 
L 875.752645 88.782732 
L 876.984793 87.308648 
L 878.216942 83.359925 
L 879.449091 80.242524 
L 880.68124 96.105531 
L 881.913388 87.220533 
L 883.145537 83.430131 
L 884.377686 76.361168 
L 885.609835 85.525643 
L 886.841983 79.96535 
L 888.074132 79.546469 
L 889.306281 75.20731 
L 890.53843 84.749462 
L 891.770579 85.587473 
L 893.002727 81.541155 
L 894.234876 84.826502 
L 895.467025 78.480806 
L 896.699174 80.04265 
L 897.931322 82.569399 
L 900.39562 89.963452 
L 901.627769 83.273797 
L 902.859917 78.421572 
L 904.092066 80.48415 
L 905.324215 74.278576 
L 906.556364 82.612458 
L 909.020661 73.610249 
L 910.25281 71.18572 
L 911.484959 69.961148 
L 912.717107 73.416988 
L 913.949256 74.633954 
L 915.181405 72.282535 
L 916.413554 75.412571 
L 917.645702 67.486024 
L 918.877851 74.49977 
L 920.11 73.614088 
L 921.342149 77.779789 
L 922.574298 69.268098 
L 923.806446 72.154885 
L 925.038595 73.08738 
L 926.270744 72.621955 
L 927.502893 76.891853 
L 928.735041 68.582234 
L 929.96719 74.655942 
L 931.199339 70.767834 
L 932.431488 70.294853 
L 933.663636 71.702123 
L 934.895785 70.991192 
L 936.127934 66.87585 
L 937.360083 67.728329 
L 938.592231 66.510549 
L 939.82438 69.714514 
L 941.056529 60.152768 
L 942.288678 64.476608 
L 943.520826 62.892428 
L 944.752975 62.60385 
L 945.985124 65.615083 
L 947.217273 66.956674 
L 948.449421 63.133356 
L 949.68157 65.128359 
L 950.913719 63.257324 
L 952.145868 59.477843 
L 953.378017 60.351942 
L 954.610165 62.296372 
L 955.842314 60.551419 
L 957.074463 61.59455 
L 958.306612 60.245518 
L 959.53876 62.036465 
L 960.770909 60.355164 
L 962.003058 56.34246 
L 963.235207 57.668696 
L 964.467355 58.536927 
L 965.699504 65.249164 
L 968.163802 62.69199 
L 969.39595 59.488861 
L 970.628099 54.880038 
L 971.860248 53.842992 
L 973.092397 59.031255 
L 974.324545 62.038782 
L 975.556694 55.661655 
L 976.788843 53.773439 
L 978.020992 55.021059 
L 979.25314 55.728333 
L 980.485289 55.050589 
L 981.717438 55.047876 
L 982.949587 50.287312 
L 984.181736 56.454649 
L 985.413884 57.157294 
L 986.646033 53.684242 
L 987.878182 51.179498 
L 989.110331 62.305945 
L 990.342479 58.462201 
L 991.574628 55.895872 
L 992.806777 51.764387 
L 994.038926 54.679384 
L 995.271074 50.359301 
L 996.503223 53.495457 
L 997.735372 48.35114 
L 998.967521 57.687266 
L 1000.199669 52.172338 
L 1001.431818 50.946804 
L 1002.663967 50.818249 
L 1003.896116 51.632683 
L 1005.128264 49.679967 
L 1006.360413 54.691839 
L 1007.592562 49.482642 
L 1008.824711 49.644312 
L 1010.05686 51.171395 
L 1011.289008 52.433752 
L 1012.521157 52.226826 
L 1013.753306 49.045113 
L 1014.985455 49.462543 
L 1016.217603 51.741012 
L 1017.449752 48.541621 
L 1018.681901 50.308402 
L 1019.91405 43.767457 
L 1021.146198 50.555065 
L 1022.378347 49.664659 
L 1023.610496 48.322744 
L 1024.842645 49.967726 
L 1026.074793 48.798163 
L 1028.539091 48.132771 
L 1029.77124 48.2764 
L 1031.003388 46.517959 
L 1032.235537 45.302846 
L 1033.467686 45.494574 
L 1034.699835 46.426217 
L 1035.931983 45.141641 
L 1037.164132 44.476045 
L 1038.396281 45.760031 
L 1039.62843 43.382678 
L 1040.860579 45.775615 
L 1042.092727 41.276822 
L 1043.324876 47.592375 
L 1044.557025 44.300683 
L 1045.789174 40.114545 
L 1047.021322 42.824059 
L 1048.253471 44.039272 
L 1049.48562 44.312464 
L 1050.717769 43.382678 
L 1051.949917 46.836763 
L 1053.182066 44.569317 
L 1054.414215 43.346168 
L 1055.646364 45.594582 
L 1055.646364 45.594582 
" clip-path="url(#pd5b64de95a)" style="fill: none; stroke: #1f77b4; stroke-width: 1.5; stroke-linecap: square"/>
   </g>
   <g id="line2d_46">
    <path d="M 784.573636 141.881783 
L 785.805785 136.639157 
L 787.037934 127.734884 
L 788.270083 141.13402 
L 789.502231 127.578136 
L 790.73438 151.62253 
L 791.966529 147.395141 
L 793.198678 127.139676 
L 794.430826 115.216127 
L 795.662975 115.497871 
L 796.895124 107.062069 
L 798.127273 94.958241 
L 799.359421 96.622761 
L 800.59157 63.086506 
L 801.823719 109.572083 
L 803.055868 88.344076 
L 804.288017 88.957607 
L 805.520165 97.015933 
L 806.752314 71.060606 
L 807.984463 70.64905 
L 809.216612 80.731471 
L 810.44876 51.608264 
L 811.680909 90.701271 
L 812.913058 70.091857 
L 814.145207 70.024673 
L 815.377355 68.780012 
L 816.609504 75.547991 
L 817.841653 62.858797 
L 819.073802 57.90347 
L 820.30595 54.129688 
L 821.538099 60.692481 
L 822.770248 75.877278 
L 824.002397 64.125503 
L 825.234545 54.940065 
L 826.466694 58.276068 
L 827.698843 68.127235 
L 828.930992 58.93035 
L 830.16314 66.912376 
L 831.395289 57.735915 
L 832.627438 70.032937 
L 833.859587 64.49703 
L 835.091736 67.948774 
L 837.556033 64.984846 
L 838.788182 74.142834 
L 840.020331 78.094935 
L 841.252479 67.622827 
L 842.484628 82.994519 
L 843.716777 63.804304 
L 844.948926 73.727603 
L 846.181074 76.96135 
L 847.413223 65.866295 
L 849.877521 72.640301 
L 851.109669 70.808962 
L 852.341818 77.215425 
L 853.573967 76.862626 
L 854.806116 73.467236 
L 856.038264 63.416675 
L 857.270413 77.315379 
L 858.502562 74.303589 
L 859.734711 75.855492 
L 860.96686 76.129452 
L 862.199008 73.677563 
L 863.431157 79.258295 
L 864.663306 74.828497 
L 865.895455 71.981982 
L 867.127603 76.196478 
L 868.359752 70.40351 
L 869.591901 75.610606 
L 870.82405 68.289377 
L 872.056198 72.285305 
L 873.288347 72.697696 
L 874.520496 61.472955 
L 876.984793 79.323673 
L 878.216942 71.303669 
L 879.449091 73.914706 
L 880.68124 82.141113 
L 881.913388 80.371444 
L 883.145537 81.913053 
L 884.377686 64.135772 
L 885.609835 80.830716 
L 886.841983 70.609793 
L 888.074132 67.985028 
L 889.306281 72.200499 
L 890.53843 84.69465 
L 891.770579 79.813766 
L 893.002727 79.323673 
L 894.234876 65.686349 
L 895.467025 65.863905 
L 896.699174 62.328029 
L 897.931322 70.788584 
L 899.163471 72.476524 
L 900.39562 75.492912 
L 901.627769 74.23092 
L 902.859917 68.49213 
L 904.092066 70.860744 
L 905.324215 77.107329 
L 906.556364 70.590435 
L 907.788512 67.100564 
L 909.020661 78.290778 
L 910.25281 65.324541 
L 911.484959 69.240169 
L 912.717107 67.450674 
L 913.949256 80.030993 
L 915.181405 81.691181 
L 916.413554 81.752909 
L 917.645702 73.103258 
L 918.877851 68.717094 
L 920.11 73.236951 
L 922.574298 63.382269 
L 923.806446 78.208285 
L 925.038595 67.819969 
L 926.270744 72.518416 
L 927.502893 68.360803 
L 928.735041 73.532249 
L 929.96719 74.990186 
L 931.199339 79.312168 
L 932.431488 49.817415 
L 933.663636 74.08347 
L 934.895785 71.39576 
L 936.127934 72.589531 
L 937.360083 66.030278 
L 938.592231 68.684771 
L 939.82438 79.973835 
L 941.056529 64.777158 
L 942.288678 62.064388 
L 943.520826 68.546636 
L 944.752975 65.855366 
L 945.985124 67.796863 
L 947.217273 63.170315 
L 948.449421 59.241987 
L 949.68157 65.679836 
L 950.913719 61.030359 
L 952.145868 69.456261 
L 953.378017 65.306966 
L 954.610165 71.78594 
L 955.842314 61.253563 
L 957.074463 63.503752 
L 958.306612 70.109043 
L 959.53876 67.468201 
L 960.770909 65.13645 
L 962.003058 71.57807 
L 963.235207 63.162763 
L 964.467355 63.02528 
L 965.699504 71.075722 
L 968.163802 57.645752 
L 969.39595 63.496925 
L 970.628099 63.1167 
L 971.860248 62.447296 
L 973.092397 65.676534 
L 974.324545 58.067137 
L 975.556694 63.31829 
L 976.788843 65.669837 
L 978.020992 71.294062 
L 979.25314 66.570254 
L 980.485289 63.503752 
L 982.949587 75.794858 
L 984.181736 66.930997 
L 985.413884 59.68612 
L 986.646033 61.487559 
L 987.878182 70.516766 
L 989.110331 70.903051 
L 990.342479 66.568536 
L 991.574628 61.333512 
L 992.806777 69.463529 
L 994.038926 76.783763 
L 995.271074 62.270919 
L 996.503223 74.193214 
L 997.735372 66.207905 
L 998.967521 66.026889 
L 1000.199669 61.487559 
L 1001.431818 66.027742 
L 1002.663967 74.567342 
L 1003.896116 66.02517 
L 1005.128264 66.748154 
L 1006.360413 62.56102 
L 1007.592562 74.92215 
L 1008.824711 60.966962 
L 1010.05686 64.761907 
L 1011.289008 65.845259 
L 1012.521157 67.478479 
L 1013.753306 59.908978 
L 1014.985455 70.013575 
L 1016.217603 71.45509 
L 1017.449752 64.393741 
L 1018.681901 71.528168 
L 1019.91405 66.934881 
L 1021.146198 68.561996 
L 1022.378347 64.938207 
L 1023.610496 69.273845 
L 1024.842645 70.740103 
L 1026.074793 74.715123 
L 1027.306942 66.750715 
L 1028.539091 64.224162 
L 1029.77124 80.805881 
L 1031.003388 62.033566 
L 1032.235537 60.039796 
L 1033.467686 70.206491 
L 1034.699835 71.109158 
L 1035.931983 63.296353 
L 1037.164132 62.766733 
L 1038.396281 64.750278 
L 1039.62843 64.213891 
L 1040.860579 60.954102 
L 1042.092727 62.409966 
L 1043.324876 62.766733 
L 1044.557025 64.388993 
L 1045.789174 68.019127 
L 1047.021322 58.981638 
L 1048.253471 68.75034 
L 1049.48562 68.952077 
L 1050.717769 66.930997 
L 1051.949917 63.1167 
L 1053.182066 73.262326 
L 1054.414215 68.205874 
L 1055.646364 68.388991 
L 1055.646364 68.388991 
" clip-path="url(#pd5b64de95a)" style="fill: none; stroke: #ff7f0e; stroke-width: 1.5; stroke-linecap: square"/>
   </g>
   <g id="patch_15">
    <path d="M 771.02 318.04 
L 771.02 26.88 
" style="fill: none; stroke: #000000; stroke-width: 0.8; stroke-linejoin: miter; stroke-linecap: square"/>
   </g>
   <g id="patch_16">
    <path d="M 1069.2 318.04 
L 1069.2 26.88 
" style="fill: none; stroke: #000000; stroke-width: 0.8; stroke-linejoin: miter; stroke-linecap: square"/>
   </g>
   <g id="patch_17">
    <path d="M 771.02 318.04 
L 1069.2 318.04 
" style="fill: none; stroke: #000000; stroke-width: 0.8; stroke-linejoin: miter; stroke-linecap: square"/>
   </g>
   <g id="patch_18">
    <path d="M 771.02 26.88 
L 1069.2 26.88 
" style="fill: none; stroke: #000000; stroke-width: 0.8; stroke-linejoin: miter; stroke-linecap: square"/>
   </g>
   <g id="text_49">
    <!-- F1-Score vs Epoch -->
    <g transform="translate(865.010313 20.88) scale(0.12 -0.12)">
     <use xlink:href="#DejaVuSans-46"/>
     <use xlink:href="#DejaVuSans-31" x="57.519531"/>
     <use xlink:href="#DejaVuSans-2d" x="121.142578"/>
     <use xlink:href="#DejaVuSans-53" x="157.226562"/>
     <use xlink:href="#DejaVuSans-63" x="220.703125"/>
     <use xlink:href="#DejaVuSans-6f" x="275.683594"/>
     <use xlink:href="#DejaVuSans-72" x="336.865234"/>
     <use xlink:href="#DejaVuSans-65" x="375.728516"/>
     <use xlink:href="#DejaVuSans-20" x="437.251953"/>
     <use xlink:href="#DejaVuSans-76" x="469.039062"/>
     <use xlink:href="#DejaVuSans-73" x="528.21875"/>
     <use xlink:href="#DejaVuSans-20" x="580.318359"/>
     <use xlink:href="#DejaVuSans-45" x="612.105469"/>
     <use xlink:href="#DejaVuSans-70" x="675.289062"/>
     <use xlink:href="#DejaVuSans-6f" x="738.765625"/>
     <use xlink:href="#DejaVuSans-63" x="799.947266"/>
     <use xlink:href="#DejaVuSans-68" x="854.927734"/>
    </g>
   </g>
   <g id="legend_3">
    <g id="patch_19">
     <path d="M 965.526563 313.04 
L 1062.2 313.04 
Q 1064.2 313.04 1064.2 311.04 
L 1064.2 282.68375 
Q 1064.2 280.68375 1062.2 280.68375 
L 965.526563 280.68375 
Q 963.526563 280.68375 963.526563 282.68375 
L 963.526563 311.04 
Q 963.526563 313.04 965.526563 313.04 
z
" style="fill: #ffffff; opacity: 0.8; stroke: #cccccc; stroke-linejoin: miter"/>
    </g>
    <g id="line2d_47">
     <path d="M 967.526563 288.782188 
L 977.526563 288.782188 
L 987.526563 288.782188 
" style="fill: none; stroke: #1f77b4; stroke-width: 1.5; stroke-linecap: square"/>
    </g>
    <g id="text_50">
     <!-- Train F1 -->
     <g transform="translate(995.526563 292.282188) scale(0.1 -0.1)">
      <use xlink:href="#DejaVuSans-54"/>
      <use xlink:href="#DejaVuSans-72" x="46.333984"/>
      <use xlink:href="#DejaVuSans-61" x="87.447266"/>
      <use xlink:href="#DejaVuSans-69" x="148.726562"/>
      <use xlink:href="#DejaVuSans-6e" x="176.509766"/>
      <use xlink:href="#DejaVuSans-20" x="239.888672"/>
      <use xlink:href="#DejaVuSans-46" x="271.675781"/>
      <use xlink:href="#DejaVuSans-31" x="329.195312"/>
     </g>
    </g>
    <g id="line2d_48">
     <path d="M 967.526563 303.460313 
L 977.526563 303.460313 
L 987.526563 303.460313 
" style="fill: none; stroke: #ff7f0e; stroke-width: 1.5; stroke-linecap: square"/>
    </g>
    <g id="text_51">
     <!-- Validation F1 -->
     <g transform="translate(995.526563 306.960313) scale(0.1 -0.1)">
      <use xlink:href="#DejaVuSans-56"/>
      <use xlink:href="#DejaVuSans-61" x="60.658203"/>
      <use xlink:href="#DejaVuSans-6c" x="121.9375"/>
      <use xlink:href="#DejaVuSans-69" x="149.720703"/>
      <use xlink:href="#DejaVuSans-64" x="177.503906"/>
      <use xlink:href="#DejaVuSans-61" x="240.980469"/>
      <use xlink:href="#DejaVuSans-74" x="302.259766"/>
      <use xlink:href="#DejaVuSans-69" x="341.46875"/>
      <use xlink:href="#DejaVuSans-6f" x="369.251953"/>
      <use xlink:href="#DejaVuSans-6e" x="430.433594"/>
      <use xlink:href="#DejaVuSans-20" x="493.8125"/>
      <use xlink:href="#DejaVuSans-46" x="525.599609"/>
      <use xlink:href="#DejaVuSans-31" x="583.119141"/>
     </g>
    </g>
   </g>
  </g>
 </g>
 <defs>
  <clipPath id="pf4533b3e17">
   <rect x="54.02" y="26.88" width="298.18" height="291.16"/>
  </clipPath>
  <clipPath id="p6263aebd24">
   <rect x="412.52" y="26.88" width="298.18" height="291.16"/>
  </clipPath>
  <clipPath id="pd5b64de95a">
   <rect x="771.02" y="26.88" width="298.18" height="291.16"/>
  </clipPath>
 </defs>
</svg>
