<?xml version="1.0" encoding="utf-8" standalone="no"?>
<!DOCTYPE svg PUBLIC "-//W3C//DTD SVG 1.1//EN"
  "http://www.w3.org/Graphics/SVG/1.1/DTD/svg11.dtd">
<svg xmlns:xlink="http://www.w3.org/1999/xlink" width="1080pt" height="360pt" viewBox="0 0 1080 360" xmlns="http://www.w3.org/2000/svg" version="1.1">
 <metadata>
  <rdf:RDF xmlns:dc="http://purl.org/dc/elements/1.1/" xmlns:cc="http://creativecommons.org/ns#" xmlns:rdf="http://www.w3.org/1999/02/22-rdf-syntax-ns#">
   <cc:Work>
    <dc:type rdf:resource="http://purl.org/dc/dcmitype/StillImage"/>
    <dc:date>2024-12-05T22:58:52.062050</dc:date>
    <dc:format>image/svg+xml</dc:format>
    <dc:creator>
     <cc:Agent>
      <dc:title>Matplotlib v3.8.2, https://matplotlib.org/</dc:title>
     </cc:Agent>
    </dc:creator>
   </cc:Work>
  </rdf:RDF>
 </metadata>
 <defs>
  <style type="text/css">*{stroke-linejoin: round; stroke-linecap: butt}</style>
 </defs>
 <g id="figure_1">
  <g id="patch_1">
   <path d="M 0 360 
L 1080 360 
L 1080 0 
L 0 0 
z
" style="fill: #ffffff"/>
  </g>
  <g id="axes_1">
   <g id="patch_2">
    <path d="M 47.72 318.04 
L 352.2 318.04 
L 352.2 26.88 
L 47.72 26.88 
z
" style="fill: #ffffff"/>
   </g>
   <g id="matplotlib.axis_1">
    <g id="xtick_1">
     <g id="line2d_1">
      <defs>
       <path id="mdf71c571b7" d="M 0 0 
L 0 3.5 
" style="stroke: #000000; stroke-width: 0.8"/>
      </defs>
      <g>
       <use xlink:href="#mdf71c571b7" x="61.56" y="318.04" style="stroke: #000000; stroke-width: 0.8"/>
      </g>
     </g>
     <g id="text_1">
      <!-- 0 -->
      <g transform="translate(58.37875 332.638438) scale(0.1 -0.1)">
       <defs>
        <path id="DejaVuSans-30" d="M 2034 4250 
Q 1547 4250 1301 3770 
Q 1056 3291 1056 2328 
Q 1056 1369 1301 889 
Q 1547 409 2034 409 
Q 2525 409 2770 889 
Q 3016 1369 3016 2328 
Q 3016 3291 2770 3770 
Q 2525 4250 2034 4250 
z
M 2034 4750 
Q 2819 4750 3233 4129 
Q 3647 3509 3647 2328 
Q 3647 1150 3233 529 
Q 2819 -91 2034 -91 
Q 1250 -91 836 529 
Q 422 1150 422 2328 
Q 422 3509 836 4129 
Q 1250 4750 2034 4750 
z
" transform="scale(0.015625)"/>
       </defs>
       <use xlink:href="#DejaVuSans-30"/>
      </g>
     </g>
    </g>
    <g id="xtick_2">
     <g id="line2d_2">
      <g>
       <use xlink:href="#mdf71c571b7" x="98.714362" y="318.04" style="stroke: #000000; stroke-width: 0.8"/>
      </g>
     </g>
     <g id="text_2">
      <!-- 20 -->
      <g transform="translate(92.351862 332.638438) scale(0.1 -0.1)">
       <defs>
        <path id="DejaVuSans-32" d="M 1228 531 
L 3431 531 
L 3431 0 
L 469 0 
L 469 531 
Q 828 903 1448 1529 
Q 2069 2156 2228 2338 
Q 2531 2678 2651 2914 
Q 2772 3150 2772 3378 
Q 2772 3750 2511 3984 
Q 2250 4219 1831 4219 
Q 1534 4219 1204 4116 
Q 875 4013 500 3803 
L 500 4441 
Q 881 4594 1212 4672 
Q 1544 4750 1819 4750 
Q 2544 4750 2975 4387 
Q 3406 4025 3406 3419 
Q 3406 3131 3298 2873 
Q 3191 2616 2906 2266 
Q 2828 2175 2409 1742 
Q 1991 1309 1228 531 
z
" transform="scale(0.015625)"/>
       </defs>
       <use xlink:href="#DejaVuSans-32"/>
       <use xlink:href="#DejaVuSans-30" x="63.623047"/>
      </g>
     </g>
    </g>
    <g id="xtick_3">
     <g id="line2d_3">
      <g>
       <use xlink:href="#mdf71c571b7" x="135.868725" y="318.04" style="stroke: #000000; stroke-width: 0.8"/>
      </g>
     </g>
     <g id="text_3">
      <!-- 40 -->
      <g transform="translate(129.506225 332.638438) scale(0.1 -0.1)">
       <defs>
        <path id="DejaVuSans-34" d="M 2419 4116 
L 825 1625 
L 2419 1625 
L 2419 4116 
z
M 2253 4666 
L 3047 4666 
L 3047 1625 
L 3713 1625 
L 3713 1100 
L 3047 1100 
L 3047 0 
L 2419 0 
L 2419 1100 
L 313 1100 
L 313 1709 
L 2253 4666 
z
" transform="scale(0.015625)"/>
       </defs>
       <use xlink:href="#DejaVuSans-34"/>
       <use xlink:href="#DejaVuSans-30" x="63.623047"/>
      </g>
     </g>
    </g>
    <g id="xtick_4">
     <g id="line2d_4">
      <g>
       <use xlink:href="#mdf71c571b7" x="173.023087" y="318.04" style="stroke: #000000; stroke-width: 0.8"/>
      </g>
     </g>
     <g id="text_4">
      <!-- 60 -->
      <g transform="translate(166.660587 332.638438) scale(0.1 -0.1)">
       <defs>
        <path id="DejaVuSans-36" d="M 2113 2584 
Q 1688 2584 1439 2293 
Q 1191 2003 1191 1497 
Q 1191 994 1439 701 
Q 1688 409 2113 409 
Q 2538 409 2786 701 
Q 3034 994 3034 1497 
Q 3034 2003 2786 2293 
Q 2538 2584 2113 2584 
z
M 3366 4563 
L 3366 3988 
Q 3128 4100 2886 4159 
Q 2644 4219 2406 4219 
Q 1781 4219 1451 3797 
Q 1122 3375 1075 2522 
Q 1259 2794 1537 2939 
Q 1816 3084 2150 3084 
Q 2853 3084 3261 2657 
Q 3669 2231 3669 1497 
Q 3669 778 3244 343 
Q 2819 -91 2113 -91 
Q 1303 -91 875 529 
Q 447 1150 447 2328 
Q 447 3434 972 4092 
Q 1497 4750 2381 4750 
Q 2619 4750 2861 4703 
Q 3103 4656 3366 4563 
z
" transform="scale(0.015625)"/>
       </defs>
       <use xlink:href="#DejaVuSans-36"/>
       <use xlink:href="#DejaVuSans-30" x="63.623047"/>
      </g>
     </g>
    </g>
    <g id="xtick_5">
     <g id="line2d_5">
      <g>
       <use xlink:href="#mdf71c571b7" x="210.17745" y="318.04" style="stroke: #000000; stroke-width: 0.8"/>
      </g>
     </g>
     <g id="text_5">
      <!-- 80 -->
      <g transform="translate(203.81495 332.638438) scale(0.1 -0.1)">
       <defs>
        <path id="DejaVuSans-38" d="M 2034 2216 
Q 1584 2216 1326 1975 
Q 1069 1734 1069 1313 
Q 1069 891 1326 650 
Q 1584 409 2034 409 
Q 2484 409 2743 651 
Q 3003 894 3003 1313 
Q 3003 1734 2745 1975 
Q 2488 2216 2034 2216 
z
M 1403 2484 
Q 997 2584 770 2862 
Q 544 3141 544 3541 
Q 544 4100 942 4425 
Q 1341 4750 2034 4750 
Q 2731 4750 3128 4425 
Q 3525 4100 3525 3541 
Q 3525 3141 3298 2862 
Q 3072 2584 2669 2484 
Q 3125 2378 3379 2068 
Q 3634 1759 3634 1313 
Q 3634 634 3220 271 
Q 2806 -91 2034 -91 
Q 1263 -91 848 271 
Q 434 634 434 1313 
Q 434 1759 690 2068 
Q 947 2378 1403 2484 
z
M 1172 3481 
Q 1172 3119 1398 2916 
Q 1625 2713 2034 2713 
Q 2441 2713 2670 2916 
Q 2900 3119 2900 3481 
Q 2900 3844 2670 4047 
Q 2441 4250 2034 4250 
Q 1625 4250 1398 4047 
Q 1172 3844 1172 3481 
z
" transform="scale(0.015625)"/>
       </defs>
       <use xlink:href="#DejaVuSans-38"/>
       <use xlink:href="#DejaVuSans-30" x="63.623047"/>
      </g>
     </g>
    </g>
    <g id="xtick_6">
     <g id="line2d_6">
      <g>
       <use xlink:href="#mdf71c571b7" x="247.331812" y="318.04" style="stroke: #000000; stroke-width: 0.8"/>
      </g>
     </g>
     <g id="text_6">
      <!-- 100 -->
      <g transform="translate(237.788062 332.638438) scale(0.1 -0.1)">
       <defs>
        <path id="DejaVuSans-31" d="M 794 531 
L 1825 531 
L 1825 4091 
L 703 3866 
L 703 4441 
L 1819 4666 
L 2450 4666 
L 2450 531 
L 3481 531 
L 3481 0 
L 794 0 
L 794 531 
z
" transform="scale(0.015625)"/>
       </defs>
       <use xlink:href="#DejaVuSans-31"/>
       <use xlink:href="#DejaVuSans-30" x="63.623047"/>
       <use xlink:href="#DejaVuSans-30" x="127.246094"/>
      </g>
     </g>
    </g>
    <g id="xtick_7">
     <g id="line2d_7">
      <g>
       <use xlink:href="#mdf71c571b7" x="284.486174" y="318.04" style="stroke: #000000; stroke-width: 0.8"/>
      </g>
     </g>
     <g id="text_7">
      <!-- 120 -->
      <g transform="translate(274.942424 332.638438) scale(0.1 -0.1)">
       <use xlink:href="#DejaVuSans-31"/>
       <use xlink:href="#DejaVuSans-32" x="63.623047"/>
       <use xlink:href="#DejaVuSans-30" x="127.246094"/>
      </g>
     </g>
    </g>
    <g id="xtick_8">
     <g id="line2d_8">
      <g>
       <use xlink:href="#mdf71c571b7" x="321.640537" y="318.04" style="stroke: #000000; stroke-width: 0.8"/>
      </g>
     </g>
     <g id="text_8">
      <!-- 140 -->
      <g transform="translate(312.096787 332.638438) scale(0.1 -0.1)">
       <use xlink:href="#DejaVuSans-31"/>
       <use xlink:href="#DejaVuSans-34" x="63.623047"/>
       <use xlink:href="#DejaVuSans-30" x="127.246094"/>
      </g>
     </g>
    </g>
    <g id="text_9">
     <!-- Epoch -->
     <g transform="translate(184.649062 346.316563) scale(0.1 -0.1)">
      <defs>
       <path id="DejaVuSans-45" d="M 628 4666 
L 3578 4666 
L 3578 4134 
L 1259 4134 
L 1259 2753 
L 3481 2753 
L 3481 2222 
L 1259 2222 
L 1259 531 
L 3634 531 
L 3634 0 
L 628 0 
L 628 4666 
z
" transform="scale(0.015625)"/>
       <path id="DejaVuSans-70" d="M 1159 525 
L 1159 -1331 
L 581 -1331 
L 581 3500 
L 1159 3500 
L 1159 2969 
Q 1341 3281 1617 3432 
Q 1894 3584 2278 3584 
Q 2916 3584 3314 3078 
Q 3713 2572 3713 1747 
Q 3713 922 3314 415 
Q 2916 -91 2278 -91 
Q 1894 -91 1617 61 
Q 1341 213 1159 525 
z
M 3116 1747 
Q 3116 2381 2855 2742 
Q 2594 3103 2138 3103 
Q 1681 3103 1420 2742 
Q 1159 2381 1159 1747 
Q 1159 1113 1420 752 
Q 1681 391 2138 391 
Q 2594 391 2855 752 
Q 3116 1113 3116 1747 
z
" transform="scale(0.015625)"/>
       <path id="DejaVuSans-6f" d="M 1959 3097 
Q 1497 3097 1228 2736 
Q 959 2375 959 1747 
Q 959 1119 1226 758 
Q 1494 397 1959 397 
Q 2419 397 2687 759 
Q 2956 1122 2956 1747 
Q 2956 2369 2687 2733 
Q 2419 3097 1959 3097 
z
M 1959 3584 
Q 2709 3584 3137 3096 
Q 3566 2609 3566 1747 
Q 3566 888 3137 398 
Q 2709 -91 1959 -91 
Q 1206 -91 779 398 
Q 353 888 353 1747 
Q 353 2609 779 3096 
Q 1206 3584 1959 3584 
z
" transform="scale(0.015625)"/>
       <path id="DejaVuSans-63" d="M 3122 3366 
L 3122 2828 
Q 2878 2963 2633 3030 
Q 2388 3097 2138 3097 
Q 1578 3097 1268 2742 
Q 959 2388 959 1747 
Q 959 1106 1268 751 
Q 1578 397 2138 397 
Q 2388 397 2633 464 
Q 2878 531 3122 666 
L 3122 134 
Q 2881 22 2623 -34 
Q 2366 -91 2075 -91 
Q 1284 -91 818 406 
Q 353 903 353 1747 
Q 353 2603 823 3093 
Q 1294 3584 2113 3584 
Q 2378 3584 2631 3529 
Q 2884 3475 3122 3366 
z
" transform="scale(0.015625)"/>
       <path id="DejaVuSans-68" d="M 3513 2113 
L 3513 0 
L 2938 0 
L 2938 2094 
Q 2938 2591 2744 2837 
Q 2550 3084 2163 3084 
Q 1697 3084 1428 2787 
Q 1159 2491 1159 1978 
L 1159 0 
L 581 0 
L 581 4863 
L 1159 4863 
L 1159 2956 
Q 1366 3272 1645 3428 
Q 1925 3584 2291 3584 
Q 2894 3584 3203 3211 
Q 3513 2838 3513 2113 
z
" transform="scale(0.015625)"/>
      </defs>
      <use xlink:href="#DejaVuSans-45"/>
      <use xlink:href="#DejaVuSans-70" x="63.183594"/>
      <use xlink:href="#DejaVuSans-6f" x="126.660156"/>
      <use xlink:href="#DejaVuSans-63" x="187.841797"/>
      <use xlink:href="#DejaVuSans-68" x="242.822266"/>
     </g>
    </g>
   </g>
   <g id="matplotlib.axis_2">
    <g id="ytick_1">
     <g id="line2d_9">
      <defs>
       <path id="mf32b76f805" d="M 0 0 
L -3.5 0 
" style="stroke: #000000; stroke-width: 0.8"/>
      </defs>
      <g>
       <use xlink:href="#mf32b76f805" x="47.72" y="315.588318" style="stroke: #000000; stroke-width: 0.8"/>
      </g>
     </g>
     <g id="text_10">
      <!-- 0.3 -->
      <g transform="translate(24.816875 319.387537) scale(0.1 -0.1)">
       <defs>
        <path id="DejaVuSans-2e" d="M 684 794 
L 1344 794 
L 1344 0 
L 684 0 
L 684 794 
z
" transform="scale(0.015625)"/>
        <path id="DejaVuSans-33" d="M 2597 2516 
Q 3050 2419 3304 2112 
Q 3559 1806 3559 1356 
Q 3559 666 3084 287 
Q 2609 -91 1734 -91 
Q 1441 -91 1130 -33 
Q 819 25 488 141 
L 488 750 
Q 750 597 1062 519 
Q 1375 441 1716 441 
Q 2309 441 2620 675 
Q 2931 909 2931 1356 
Q 2931 1769 2642 2001 
Q 2353 2234 1838 2234 
L 1294 2234 
L 1294 2753 
L 1863 2753 
Q 2328 2753 2575 2939 
Q 2822 3125 2822 3475 
Q 2822 3834 2567 4026 
Q 2313 4219 1838 4219 
Q 1578 4219 1281 4162 
Q 984 4106 628 3988 
L 628 4550 
Q 988 4650 1302 4700 
Q 1616 4750 1894 4750 
Q 2613 4750 3031 4423 
Q 3450 4097 3450 3541 
Q 3450 3153 3228 2886 
Q 3006 2619 2597 2516 
z
" transform="scale(0.015625)"/>
       </defs>
       <use xlink:href="#DejaVuSans-30"/>
       <use xlink:href="#DejaVuSans-2e" x="63.623047"/>
       <use xlink:href="#DejaVuSans-33" x="95.410156"/>
      </g>
     </g>
    </g>
    <g id="ytick_2">
     <g id="line2d_10">
      <g>
       <use xlink:href="#mf32b76f805" x="47.72" y="264.788997" style="stroke: #000000; stroke-width: 0.8"/>
      </g>
     </g>
     <g id="text_11">
      <!-- 0.4 -->
      <g transform="translate(24.816875 268.588215) scale(0.1 -0.1)">
       <use xlink:href="#DejaVuSans-30"/>
       <use xlink:href="#DejaVuSans-2e" x="63.623047"/>
       <use xlink:href="#DejaVuSans-34" x="95.410156"/>
      </g>
     </g>
    </g>
    <g id="ytick_3">
     <g id="line2d_11">
      <g>
       <use xlink:href="#mf32b76f805" x="47.72" y="213.989675" style="stroke: #000000; stroke-width: 0.8"/>
      </g>
     </g>
     <g id="text_12">
      <!-- 0.5 -->
      <g transform="translate(24.816875 217.788894) scale(0.1 -0.1)">
       <defs>
        <path id="DejaVuSans-35" d="M 691 4666 
L 3169 4666 
L 3169 4134 
L 1269 4134 
L 1269 2991 
Q 1406 3038 1543 3061 
Q 1681 3084 1819 3084 
Q 2600 3084 3056 2656 
Q 3513 2228 3513 1497 
Q 3513 744 3044 326 
Q 2575 -91 1722 -91 
Q 1428 -91 1123 -41 
Q 819 9 494 109 
L 494 744 
Q 775 591 1075 516 
Q 1375 441 1709 441 
Q 2250 441 2565 725 
Q 2881 1009 2881 1497 
Q 2881 1984 2565 2268 
Q 2250 2553 1709 2553 
Q 1456 2553 1204 2497 
Q 953 2441 691 2322 
L 691 4666 
z
" transform="scale(0.015625)"/>
       </defs>
       <use xlink:href="#DejaVuSans-30"/>
       <use xlink:href="#DejaVuSans-2e" x="63.623047"/>
       <use xlink:href="#DejaVuSans-35" x="95.410156"/>
      </g>
     </g>
    </g>
    <g id="ytick_4">
     <g id="line2d_12">
      <g>
       <use xlink:href="#mf32b76f805" x="47.72" y="163.190354" style="stroke: #000000; stroke-width: 0.8"/>
      </g>
     </g>
     <g id="text_13">
      <!-- 0.6 -->
      <g transform="translate(24.816875 166.989573) scale(0.1 -0.1)">
       <use xlink:href="#DejaVuSans-30"/>
       <use xlink:href="#DejaVuSans-2e" x="63.623047"/>
       <use xlink:href="#DejaVuSans-36" x="95.410156"/>
      </g>
     </g>
    </g>
    <g id="ytick_5">
     <g id="line2d_13">
      <g>
       <use xlink:href="#mf32b76f805" x="47.72" y="112.391033" style="stroke: #000000; stroke-width: 0.8"/>
      </g>
     </g>
     <g id="text_14">
      <!-- 0.7 -->
      <g transform="translate(24.816875 116.190251) scale(0.1 -0.1)">
       <defs>
        <path id="DejaVuSans-37" d="M 525 4666 
L 3525 4666 
L 3525 4397 
L 1831 0 
L 1172 0 
L 2766 4134 
L 525 4134 
L 525 4666 
z
" transform="scale(0.015625)"/>
       </defs>
       <use xlink:href="#DejaVuSans-30"/>
       <use xlink:href="#DejaVuSans-2e" x="63.623047"/>
       <use xlink:href="#DejaVuSans-37" x="95.410156"/>
      </g>
     </g>
    </g>
    <g id="ytick_6">
     <g id="line2d_14">
      <g>
       <use xlink:href="#mf32b76f805" x="47.72" y="61.591711" style="stroke: #000000; stroke-width: 0.8"/>
      </g>
     </g>
     <g id="text_15">
      <!-- 0.8 -->
      <g transform="translate(24.816875 65.39093) scale(0.1 -0.1)">
       <use xlink:href="#DejaVuSans-30"/>
       <use xlink:href="#DejaVuSans-2e" x="63.623047"/>
       <use xlink:href="#DejaVuSans-38" x="95.410156"/>
      </g>
     </g>
    </g>
    <g id="text_16">
     <!-- Loss -->
     <g transform="translate(18.737187 183.427188) rotate(-90) scale(0.1 -0.1)">
      <defs>
       <path id="DejaVuSans-4c" d="M 628 4666 
L 1259 4666 
L 1259 531 
L 3531 531 
L 3531 0 
L 628 0 
L 628 4666 
z
" transform="scale(0.015625)"/>
       <path id="DejaVuSans-73" d="M 2834 3397 
L 2834 2853 
Q 2591 2978 2328 3040 
Q 2066 3103 1784 3103 
Q 1356 3103 1142 2972 
Q 928 2841 928 2578 
Q 928 2378 1081 2264 
Q 1234 2150 1697 2047 
L 1894 2003 
Q 2506 1872 2764 1633 
Q 3022 1394 3022 966 
Q 3022 478 2636 193 
Q 2250 -91 1575 -91 
Q 1294 -91 989 -36 
Q 684 19 347 128 
L 347 722 
Q 666 556 975 473 
Q 1284 391 1588 391 
Q 1994 391 2212 530 
Q 2431 669 2431 922 
Q 2431 1156 2273 1281 
Q 2116 1406 1581 1522 
L 1381 1569 
Q 847 1681 609 1914 
Q 372 2147 372 2553 
Q 372 3047 722 3315 
Q 1072 3584 1716 3584 
Q 2034 3584 2315 3537 
Q 2597 3491 2834 3397 
z
" transform="scale(0.015625)"/>
      </defs>
      <use xlink:href="#DejaVuSans-4c"/>
      <use xlink:href="#DejaVuSans-6f" x="53.962891"/>
      <use xlink:href="#DejaVuSans-73" x="115.144531"/>
      <use xlink:href="#DejaVuSans-73" x="167.244141"/>
     </g>
    </g>
   </g>
   <g id="line2d_15">
    <path d="M 61.56 109.783381 
L 63.417718 130.738048 
L 65.275436 128.282203 
L 67.133154 129.280528 
L 68.990872 129.460319 
L 70.848591 131.882114 
L 72.706309 133.008665 
L 74.564027 135.032778 
L 76.421745 137.719633 
L 78.279463 138.99442 
L 80.137181 139.982407 
L 81.994899 145.139082 
L 83.852617 151.009938 
L 85.710336 157.430293 
L 87.568054 161.140128 
L 89.425772 168.894485 
L 91.28349 181.083319 
L 93.141208 188.393249 
L 94.998926 198.522602 
L 96.856644 200.864962 
L 98.714362 211.950423 
L 100.572081 210.651278 
L 102.429799 216.557606 
L 104.287517 213.890471 
L 106.145235 220.500739 
L 108.002953 226.349746 
L 109.860671 232.880684 
L 111.718389 233.815877 
L 113.576107 237.980856 
L 115.433826 235.57434 
L 117.291544 240.581494 
L 119.149262 246.011111 
L 121.00698 246.179989 
L 122.864698 247.957726 
L 124.722416 254.331953 
L 126.580134 246.508327 
L 128.437852 254.487253 
L 130.29557 248.939266 
L 132.153289 254.966031 
L 134.011007 256.861274 
L 135.868725 260.023693 
L 137.726443 261.295675 
L 139.584161 257.392623 
L 141.441879 263.811409 
L 143.299597 263.696209 
L 145.157315 264.888397 
L 147.015034 266.988877 
L 148.872752 265.132586 
L 150.73047 269.0566 
L 152.588188 266.677159 
L 154.445906 262.852438 
L 156.303624 272.200346 
L 158.161342 271.795647 
L 160.01906 276.619634 
L 161.876779 274.065634 
L 163.734497 274.81512 
L 165.592215 275.11499 
L 167.449933 278.949891 
L 169.307651 278.443205 
L 171.165369 273.190652 
L 173.023087 277.235195 
L 174.880805 279.96976 
L 176.738523 278.578058 
L 178.596242 276.262656 
L 180.45396 275.115894 
L 182.311678 276.897223 
L 184.169396 282.925133 
L 186.027114 281.199056 
L 187.884832 278.840014 
L 189.74255 281.438204 
L 191.600268 282.321221 
L 193.457987 285.345792 
L 195.315705 286.648338 
L 197.173423 285.531223 
L 199.031141 288.019845 
L 200.888859 286.983007 
L 202.746577 286.723683 
L 204.604295 289.420268 
L 206.462013 290.939891 
L 208.319732 289.482707 
L 210.17745 290.789858 
L 212.035168 289.401028 
L 213.892886 290.2679 
L 215.750604 290.47272 
L 217.608322 291.43114 
L 219.46604 290.236483 
L 221.323758 291.488211 
L 223.181477 291.634166 
L 225.039195 291.158952 
L 226.896913 295.030661 
L 228.754631 294.749385 
L 230.612349 292.242855 
L 232.470067 293.875704 
L 234.327785 293.349957 
L 236.185503 293.78152 
L 238.043221 295.667298 
L 239.90094 296.316847 
L 241.758658 296.162252 
L 243.616376 297.666548 
L 245.474094 297.017443 
L 247.331812 293.89005 
L 249.18953 296.669947 
L 251.047248 296.885832 
L 252.904966 296.032983 
L 254.762685 299.013641 
L 256.620403 299.220804 
L 258.478121 300.068724 
L 260.335839 297.633038 
L 262.193557 299.299639 
L 264.051275 300.542143 
L 265.908993 297.00056 
L 267.766711 299.502343 
L 269.62443 299.859757 
L 271.482148 298.528924 
L 273.339866 300.594835 
L 275.197584 301.020377 
L 277.055302 298.545432 
L 278.91302 300.741756 
L 280.770738 300.318416 
L 282.628456 297.284333 
L 284.486174 299.179746 
L 286.343893 299.464548 
L 288.201611 299.947092 
L 290.059329 300.655117 
L 291.917047 299.661972 
L 293.774765 300.130155 
L 295.632483 302.851486 
L 297.490201 301.49555 
L 299.347919 302.541594 
L 301.205638 302.257361 
L 303.063356 298.150109 
L 304.921074 302.600476 
L 306.778792 304.805455 
L 308.63651 302.559258 
L 310.494228 301.112558 
L 312.351946 302.962415 
L 314.209664 300.855993 
L 316.067383 302.588262 
L 317.925101 303.615625 
L 321.640537 303.826722 
L 323.498255 301.560353 
L 325.355973 300.498511 
L 327.213691 301.866445 
L 329.071409 303.377335 
L 330.929128 303.009745 
L 332.786846 302.464926 
L 334.644564 302.637809 
L 338.36 303.539441 
L 338.36 303.539441 
" clip-path="url(#p1372cac8fe)" style="fill: none; stroke: #1f77b4; stroke-width: 1.5; stroke-linecap: square"/>
   </g>
   <g id="line2d_16">
    <path d="M 61.56 119.749458 
L 63.417718 123.099378 
L 65.275436 129.94601 
L 67.133154 113.786693 
L 68.990872 122.589196 
L 70.848591 113.609653 
L 72.706309 125.659825 
L 74.564027 119.192222 
L 76.421745 132.515647 
L 78.279463 127.500925 
L 80.137181 131.664042 
L 81.994899 122.398712 
L 83.852617 115.857093 
L 85.710336 40.114545 
L 87.568054 142.143261 
L 89.425772 78.781515 
L 91.28349 174.280617 
L 93.141208 164.239804 
L 94.998926 207.650682 
L 96.856644 202.596537 
L 98.714362 159.450658 
L 100.572081 172.629411 
L 102.429799 240.574854 
L 104.287517 193.575285 
L 106.145235 231.200332 
L 108.002953 251.678194 
L 109.860671 236.175721 
L 111.718389 259.237755 
L 113.576107 240.240909 
L 115.433826 224.562002 
L 117.291544 240.067965 
L 119.149262 271.679439 
L 121.00698 260.308396 
L 122.864698 239.439537 
L 124.722416 281.739661 
L 126.580134 214.64951 
L 128.437852 284.228772 
L 130.29557 239.843213 
L 132.153289 240.217103 
L 134.011007 228.225618 
L 135.868725 266.828835 
L 137.726443 260.703035 
L 139.584161 249.808012 
L 141.441879 250.7955 
L 143.299597 269.242726 
L 145.157315 273.787037 
L 147.015034 256.705353 
L 148.872752 252.179232 
L 150.73047 288.829856 
L 152.588188 263.761545 
L 154.445906 267.287748 
L 156.303624 226.399839 
L 160.01906 286.634835 
L 161.876779 295.751443 
L 163.734497 254.772653 
L 165.592215 246.249002 
L 167.449933 291.256183 
L 169.307651 244.075835 
L 173.023087 167.013595 
L 174.880805 292.822579 
L 176.738523 230.521724 
L 178.596242 293.142648 
L 180.45396 266.061398 
L 182.311678 249.039757 
L 184.169396 240.925315 
L 186.027114 284.489532 
L 187.884832 272.470593 
L 189.74255 277.707697 
L 191.600268 259.805731 
L 193.457987 287.523865 
L 195.315705 255.67424 
L 197.173423 285.481858 
L 199.031141 253.634225 
L 200.888859 268.644039 
L 202.746577 204.733899 
L 204.604295 220.836686 
L 206.462013 271.988267 
L 208.319732 292.339383 
L 210.17745 285.567509 
L 212.035168 233.533476 
L 213.892886 276.571752 
L 215.750604 270.360353 
L 217.608322 296.157905 
L 219.46604 284.900211 
L 221.323758 285.10784 
L 223.181477 260.943857 
L 225.039195 269.966381 
L 226.896913 275.177173 
L 228.754631 294.179249 
L 230.612349 272.651485 
L 232.470067 265.745015 
L 234.327785 281.959379 
L 236.185503 289.395539 
L 238.043221 272.368107 
L 239.90094 288.495344 
L 241.758658 266.035411 
L 243.616376 263.683774 
L 245.474094 274.849617 
L 247.331812 263.092043 
L 249.18953 291.887495 
L 251.047248 290.634538 
L 252.904966 274.760249 
L 254.762685 280.610324 
L 256.620403 289.864526 
L 258.478121 294.953893 
L 260.335839 267.640298 
L 262.193557 257.503918 
L 264.051275 280.533886 
L 265.908993 287.321043 
L 267.766711 296.119913 
L 269.62443 281.022009 
L 271.482148 277.934507 
L 273.339866 263.670201 
L 275.197584 294.406597 
L 277.055302 271.238633 
L 278.91302 273.296612 
L 280.770738 265.272333 
L 282.628456 291.139852 
L 284.486174 288.961773 
L 286.343893 272.634234 
L 288.201611 291.409227 
L 290.059329 257.892091 
L 291.917047 295.355745 
L 293.774765 285.86303 
L 295.632483 292.756155 
L 297.490201 296.474704 
L 299.347919 298.847181 
L 301.205638 285.228175 
L 303.063356 284.494899 
L 304.921074 299.301877 
L 306.778792 265.826298 
L 308.63651 273.827315 
L 310.494228 228.013387 
L 312.351946 290.627362 
L 314.209664 294.86962 
L 317.925101 282.408943 
L 319.782819 282.557301 
L 321.640537 304.001851 
L 323.498255 291.102715 
L 325.355973 276.334041 
L 327.213691 283.031921 
L 330.929128 297.508413 
L 332.786846 271.401049 
L 334.644564 293.320097 
L 336.502282 292.908881 
L 338.36 297.080453 
L 338.36 297.080453 
" clip-path="url(#p1372cac8fe)" style="fill: none; stroke: #ff7f0e; stroke-width: 1.5; stroke-linecap: square"/>
   </g>
   <g id="patch_3">
    <path d="M 47.72 318.04 
L 47.72 26.88 
" style="fill: none; stroke: #000000; stroke-width: 0.8; stroke-linejoin: miter; stroke-linecap: square"/>
   </g>
   <g id="patch_4">
    <path d="M 352.2 318.04 
L 352.2 26.88 
" style="fill: none; stroke: #000000; stroke-width: 0.8; stroke-linejoin: miter; stroke-linecap: square"/>
   </g>
   <g id="patch_5">
    <path d="M 47.72 318.04 
L 352.2 318.04 
" style="fill: none; stroke: #000000; stroke-width: 0.8; stroke-linejoin: miter; stroke-linecap: square"/>
   </g>
   <g id="patch_6">
    <path d="M 47.72 26.88 
L 352.2 26.88 
" style="fill: none; stroke: #000000; stroke-width: 0.8; stroke-linejoin: miter; stroke-linecap: square"/>
   </g>
   <g id="text_17">
    <!-- Loss vs Epoch -->
    <g transform="translate(157.935625 20.88) scale(0.12 -0.12)">
     <defs>
      <path id="DejaVuSans-20" transform="scale(0.015625)"/>
      <path id="DejaVuSans-76" d="M 191 3500 
L 800 3500 
L 1894 563 
L 2988 3500 
L 3597 3500 
L 2284 0 
L 1503 0 
L 191 3500 
z
" transform="scale(0.015625)"/>
     </defs>
     <use xlink:href="#DejaVuSans-4c"/>
     <use xlink:href="#DejaVuSans-6f" x="53.962891"/>
     <use xlink:href="#DejaVuSans-73" x="115.144531"/>
     <use xlink:href="#DejaVuSans-73" x="167.244141"/>
     <use xlink:href="#DejaVuSans-20" x="219.34375"/>
     <use xlink:href="#DejaVuSans-76" x="251.130859"/>
     <use xlink:href="#DejaVuSans-73" x="310.310547"/>
     <use xlink:href="#DejaVuSans-20" x="362.410156"/>
     <use xlink:href="#DejaVuSans-45" x="394.197266"/>
     <use xlink:href="#DejaVuSans-70" x="457.380859"/>
     <use xlink:href="#DejaVuSans-6f" x="520.857422"/>
     <use xlink:href="#DejaVuSans-63" x="582.039062"/>
     <use xlink:href="#DejaVuSans-68" x="637.019531"/>
    </g>
   </g>
   <g id="legend_1">
    <g id="patch_7">
     <path d="M 238.70625 64.23625 
L 345.2 64.23625 
Q 347.2 64.23625 347.2 62.23625 
L 347.2 33.88 
Q 347.2 31.88 345.2 31.88 
L 238.70625 31.88 
Q 236.70625 31.88 236.70625 33.88 
L 236.70625 62.23625 
Q 236.70625 64.23625 238.70625 64.23625 
z
" style="fill: #ffffff; opacity: 0.8; stroke: #cccccc; stroke-linejoin: miter"/>
    </g>
    <g id="line2d_17">
     <path d="M 240.70625 39.978437 
L 250.70625 39.978437 
L 260.70625 39.978437 
" style="fill: none; stroke: #1f77b4; stroke-width: 1.5; stroke-linecap: square"/>
    </g>
    <g id="text_18">
     <!-- Train Loss -->
     <g transform="translate(268.70625 43.478437) scale(0.1 -0.1)">
      <defs>
       <path id="DejaVuSans-54" d="M -19 4666 
L 3928 4666 
L 3928 4134 
L 2272 4134 
L 2272 0 
L 1638 0 
L 1638 4134 
L -19 4134 
L -19 4666 
z
" transform="scale(0.015625)"/>
       <path id="DejaVuSans-72" d="M 2631 2963 
Q 2534 3019 2420 3045 
Q 2306 3072 2169 3072 
Q 1681 3072 1420 2755 
Q 1159 2438 1159 1844 
L 1159 0 
L 581 0 
L 581 3500 
L 1159 3500 
L 1159 2956 
Q 1341 3275 1631 3429 
Q 1922 3584 2338 3584 
Q 2397 3584 2469 3576 
Q 2541 3569 2628 3553 
L 2631 2963 
z
" transform="scale(0.015625)"/>
       <path id="DejaVuSans-61" d="M 2194 1759 
Q 1497 1759 1228 1600 
Q 959 1441 959 1056 
Q 959 750 1161 570 
Q 1363 391 1709 391 
Q 2188 391 2477 730 
Q 2766 1069 2766 1631 
L 2766 1759 
L 2194 1759 
z
M 3341 1997 
L 3341 0 
L 2766 0 
L 2766 531 
Q 2569 213 2275 61 
Q 1981 -91 1556 -91 
Q 1019 -91 701 211 
Q 384 513 384 1019 
Q 384 1609 779 1909 
Q 1175 2209 1959 2209 
L 2766 2209 
L 2766 2266 
Q 2766 2663 2505 2880 
Q 2244 3097 1772 3097 
Q 1472 3097 1187 3025 
Q 903 2953 641 2809 
L 641 3341 
Q 956 3463 1253 3523 
Q 1550 3584 1831 3584 
Q 2591 3584 2966 3190 
Q 3341 2797 3341 1997 
z
" transform="scale(0.015625)"/>
       <path id="DejaVuSans-69" d="M 603 3500 
L 1178 3500 
L 1178 0 
L 603 0 
L 603 3500 
z
M 603 4863 
L 1178 4863 
L 1178 4134 
L 603 4134 
L 603 4863 
z
" transform="scale(0.015625)"/>
       <path id="DejaVuSans-6e" d="M 3513 2113 
L 3513 0 
L 2938 0 
L 2938 2094 
Q 2938 2591 2744 2837 
Q 2550 3084 2163 3084 
Q 1697 3084 1428 2787 
Q 1159 2491 1159 1978 
L 1159 0 
L 581 0 
L 581 3500 
L 1159 3500 
L 1159 2956 
Q 1366 3272 1645 3428 
Q 1925 3584 2291 3584 
Q 2894 3584 3203 3211 
Q 3513 2838 3513 2113 
z
" transform="scale(0.015625)"/>
      </defs>
      <use xlink:href="#DejaVuSans-54"/>
      <use xlink:href="#DejaVuSans-72" x="46.333984"/>
      <use xlink:href="#DejaVuSans-61" x="87.447266"/>
      <use xlink:href="#DejaVuSans-69" x="148.726562"/>
      <use xlink:href="#DejaVuSans-6e" x="176.509766"/>
      <use xlink:href="#DejaVuSans-20" x="239.888672"/>
      <use xlink:href="#DejaVuSans-4c" x="271.675781"/>
      <use xlink:href="#DejaVuSans-6f" x="325.638672"/>
      <use xlink:href="#DejaVuSans-73" x="386.820312"/>
      <use xlink:href="#DejaVuSans-73" x="438.919922"/>
     </g>
    </g>
    <g id="line2d_18">
     <path d="M 240.70625 54.656563 
L 250.70625 54.656563 
L 260.70625 54.656563 
" style="fill: none; stroke: #ff7f0e; stroke-width: 1.5; stroke-linecap: square"/>
    </g>
    <g id="text_19">
     <!-- Validation Loss -->
     <g transform="translate(268.70625 58.156563) scale(0.1 -0.1)">
      <defs>
       <path id="DejaVuSans-56" d="M 1831 0 
L 50 4666 
L 709 4666 
L 2188 738 
L 3669 4666 
L 4325 4666 
L 2547 0 
L 1831 0 
z
" transform="scale(0.015625)"/>
       <path id="DejaVuSans-6c" d="M 603 4863 
L 1178 4863 
L 1178 0 
L 603 0 
L 603 4863 
z
" transform="scale(0.015625)"/>
       <path id="DejaVuSans-64" d="M 2906 2969 
L 2906 4863 
L 3481 4863 
L 3481 0 
L 2906 0 
L 2906 525 
Q 2725 213 2448 61 
Q 2172 -91 1784 -91 
Q 1150 -91 751 415 
Q 353 922 353 1747 
Q 353 2572 751 3078 
Q 1150 3584 1784 3584 
Q 2172 3584 2448 3432 
Q 2725 3281 2906 2969 
z
M 947 1747 
Q 947 1113 1208 752 
Q 1469 391 1925 391 
Q 2381 391 2643 752 
Q 2906 1113 2906 1747 
Q 2906 2381 2643 2742 
Q 2381 3103 1925 3103 
Q 1469 3103 1208 2742 
Q 947 2381 947 1747 
z
" transform="scale(0.015625)"/>
       <path id="DejaVuSans-74" d="M 1172 4494 
L 1172 3500 
L 2356 3500 
L 2356 3053 
L 1172 3053 
L 1172 1153 
Q 1172 725 1289 603 
Q 1406 481 1766 481 
L 2356 481 
L 2356 0 
L 1766 0 
Q 1100 0 847 248 
Q 594 497 594 1153 
L 594 3053 
L 172 3053 
L 172 3500 
L 594 3500 
L 594 4494 
L 1172 4494 
z
" transform="scale(0.015625)"/>
      </defs>
      <use xlink:href="#DejaVuSans-56"/>
      <use xlink:href="#DejaVuSans-61" x="60.658203"/>
      <use xlink:href="#DejaVuSans-6c" x="121.9375"/>
      <use xlink:href="#DejaVuSans-69" x="149.720703"/>
      <use xlink:href="#DejaVuSans-64" x="177.503906"/>
      <use xlink:href="#DejaVuSans-61" x="240.980469"/>
      <use xlink:href="#DejaVuSans-74" x="302.259766"/>
      <use xlink:href="#DejaVuSans-69" x="341.46875"/>
      <use xlink:href="#DejaVuSans-6f" x="369.251953"/>
      <use xlink:href="#DejaVuSans-6e" x="430.433594"/>
      <use xlink:href="#DejaVuSans-20" x="493.8125"/>
      <use xlink:href="#DejaVuSans-4c" x="525.599609"/>
      <use xlink:href="#DejaVuSans-6f" x="579.5625"/>
      <use xlink:href="#DejaVuSans-73" x="640.744141"/>
      <use xlink:href="#DejaVuSans-73" x="692.84375"/>
     </g>
    </g>
   </g>
  </g>
  <g id="axes_2">
   <g id="patch_8">
    <path d="M 406.22 318.04 
L 710.7 318.04 
L 710.7 26.88 
L 406.22 26.88 
z
" style="fill: #ffffff"/>
   </g>
   <g id="matplotlib.axis_3">
    <g id="xtick_9">
     <g id="line2d_19">
      <g>
       <use xlink:href="#mdf71c571b7" x="420.06" y="318.04" style="stroke: #000000; stroke-width: 0.8"/>
      </g>
     </g>
     <g id="text_20">
      <!-- 0 -->
      <g transform="translate(416.87875 332.638438) scale(0.1 -0.1)">
       <use xlink:href="#DejaVuSans-30"/>
      </g>
     </g>
    </g>
    <g id="xtick_10">
     <g id="line2d_20">
      <g>
       <use xlink:href="#mdf71c571b7" x="457.214362" y="318.04" style="stroke: #000000; stroke-width: 0.8"/>
      </g>
     </g>
     <g id="text_21">
      <!-- 20 -->
      <g transform="translate(450.851862 332.638438) scale(0.1 -0.1)">
       <use xlink:href="#DejaVuSans-32"/>
       <use xlink:href="#DejaVuSans-30" x="63.623047"/>
      </g>
     </g>
    </g>
    <g id="xtick_11">
     <g id="line2d_21">
      <g>
       <use xlink:href="#mdf71c571b7" x="494.368725" y="318.04" style="stroke: #000000; stroke-width: 0.8"/>
      </g>
     </g>
     <g id="text_22">
      <!-- 40 -->
      <g transform="translate(488.006225 332.638438) scale(0.1 -0.1)">
       <use xlink:href="#DejaVuSans-34"/>
       <use xlink:href="#DejaVuSans-30" x="63.623047"/>
      </g>
     </g>
    </g>
    <g id="xtick_12">
     <g id="line2d_22">
      <g>
       <use xlink:href="#mdf71c571b7" x="531.523087" y="318.04" style="stroke: #000000; stroke-width: 0.8"/>
      </g>
     </g>
     <g id="text_23">
      <!-- 60 -->
      <g transform="translate(525.160587 332.638438) scale(0.1 -0.1)">
       <use xlink:href="#DejaVuSans-36"/>
       <use xlink:href="#DejaVuSans-30" x="63.623047"/>
      </g>
     </g>
    </g>
    <g id="xtick_13">
     <g id="line2d_23">
      <g>
       <use xlink:href="#mdf71c571b7" x="568.67745" y="318.04" style="stroke: #000000; stroke-width: 0.8"/>
      </g>
     </g>
     <g id="text_24">
      <!-- 80 -->
      <g transform="translate(562.31495 332.638438) scale(0.1 -0.1)">
       <use xlink:href="#DejaVuSans-38"/>
       <use xlink:href="#DejaVuSans-30" x="63.623047"/>
      </g>
     </g>
    </g>
    <g id="xtick_14">
     <g id="line2d_24">
      <g>
       <use xlink:href="#mdf71c571b7" x="605.831812" y="318.04" style="stroke: #000000; stroke-width: 0.8"/>
      </g>
     </g>
     <g id="text_25">
      <!-- 100 -->
      <g transform="translate(596.288062 332.638438) scale(0.1 -0.1)">
       <use xlink:href="#DejaVuSans-31"/>
       <use xlink:href="#DejaVuSans-30" x="63.623047"/>
       <use xlink:href="#DejaVuSans-30" x="127.246094"/>
      </g>
     </g>
    </g>
    <g id="xtick_15">
     <g id="line2d_25">
      <g>
       <use xlink:href="#mdf71c571b7" x="642.986174" y="318.04" style="stroke: #000000; stroke-width: 0.8"/>
      </g>
     </g>
     <g id="text_26">
      <!-- 120 -->
      <g transform="translate(633.442424 332.638438) scale(0.1 -0.1)">
       <use xlink:href="#DejaVuSans-31"/>
       <use xlink:href="#DejaVuSans-32" x="63.623047"/>
       <use xlink:href="#DejaVuSans-30" x="127.246094"/>
      </g>
     </g>
    </g>
    <g id="xtick_16">
     <g id="line2d_26">
      <g>
       <use xlink:href="#mdf71c571b7" x="680.140537" y="318.04" style="stroke: #000000; stroke-width: 0.8"/>
      </g>
     </g>
     <g id="text_27">
      <!-- 140 -->
      <g transform="translate(670.596787 332.638438) scale(0.1 -0.1)">
       <use xlink:href="#DejaVuSans-31"/>
       <use xlink:href="#DejaVuSans-34" x="63.623047"/>
       <use xlink:href="#DejaVuSans-30" x="127.246094"/>
      </g>
     </g>
    </g>
    <g id="text_28">
     <!-- Epoch -->
     <g transform="translate(543.149062 346.316563) scale(0.1 -0.1)">
      <use xlink:href="#DejaVuSans-45"/>
      <use xlink:href="#DejaVuSans-70" x="63.183594"/>
      <use xlink:href="#DejaVuSans-6f" x="126.660156"/>
      <use xlink:href="#DejaVuSans-63" x="187.841797"/>
      <use xlink:href="#DejaVuSans-68" x="242.822266"/>
     </g>
    </g>
   </g>
   <g id="matplotlib.axis_4">
    <g id="ytick_7">
     <g id="line2d_27">
      <g>
       <use xlink:href="#mf32b76f805" x="406.22" y="296.793189" style="stroke: #000000; stroke-width: 0.8"/>
      </g>
     </g>
     <g id="text_29">
      <!-- 0.60 -->
      <g transform="translate(376.954375 300.592408) scale(0.1 -0.1)">
       <use xlink:href="#DejaVuSans-30"/>
       <use xlink:href="#DejaVuSans-2e" x="63.623047"/>
       <use xlink:href="#DejaVuSans-36" x="95.410156"/>
       <use xlink:href="#DejaVuSans-30" x="159.033203"/>
      </g>
     </g>
    </g>
    <g id="ytick_8">
     <g id="line2d_28">
      <g>
       <use xlink:href="#mf32b76f805" x="406.22" y="258.723923" style="stroke: #000000; stroke-width: 0.8"/>
      </g>
     </g>
     <g id="text_30">
      <!-- 0.65 -->
      <g transform="translate(376.954375 262.523142) scale(0.1 -0.1)">
       <use xlink:href="#DejaVuSans-30"/>
       <use xlink:href="#DejaVuSans-2e" x="63.623047"/>
       <use xlink:href="#DejaVuSans-36" x="95.410156"/>
       <use xlink:href="#DejaVuSans-35" x="159.033203"/>
      </g>
     </g>
    </g>
    <g id="ytick_9">
     <g id="line2d_29">
      <g>
       <use xlink:href="#mf32b76f805" x="406.22" y="220.654657" style="stroke: #000000; stroke-width: 0.8"/>
      </g>
     </g>
     <g id="text_31">
      <!-- 0.70 -->
      <g transform="translate(376.954375 224.453875) scale(0.1 -0.1)">
       <use xlink:href="#DejaVuSans-30"/>
       <use xlink:href="#DejaVuSans-2e" x="63.623047"/>
       <use xlink:href="#DejaVuSans-37" x="95.410156"/>
       <use xlink:href="#DejaVuSans-30" x="159.033203"/>
      </g>
     </g>
    </g>
    <g id="ytick_10">
     <g id="line2d_30">
      <g>
       <use xlink:href="#mf32b76f805" x="406.22" y="182.58539" style="stroke: #000000; stroke-width: 0.8"/>
      </g>
     </g>
     <g id="text_32">
      <!-- 0.75 -->
      <g transform="translate(376.954375 186.384609) scale(0.1 -0.1)">
       <use xlink:href="#DejaVuSans-30"/>
       <use xlink:href="#DejaVuSans-2e" x="63.623047"/>
       <use xlink:href="#DejaVuSans-37" x="95.410156"/>
       <use xlink:href="#DejaVuSans-35" x="159.033203"/>
      </g>
     </g>
    </g>
    <g id="ytick_11">
     <g id="line2d_31">
      <g>
       <use xlink:href="#mf32b76f805" x="406.22" y="144.516124" style="stroke: #000000; stroke-width: 0.8"/>
      </g>
     </g>
     <g id="text_33">
      <!-- 0.80 -->
      <g transform="translate(376.954375 148.315343) scale(0.1 -0.1)">
       <use xlink:href="#DejaVuSans-30"/>
       <use xlink:href="#DejaVuSans-2e" x="63.623047"/>
       <use xlink:href="#DejaVuSans-38" x="95.410156"/>
       <use xlink:href="#DejaVuSans-30" x="159.033203"/>
      </g>
     </g>
    </g>
    <g id="ytick_12">
     <g id="line2d_32">
      <g>
       <use xlink:href="#mf32b76f805" x="406.22" y="106.446858" style="stroke: #000000; stroke-width: 0.8"/>
      </g>
     </g>
     <g id="text_34">
      <!-- 0.85 -->
      <g transform="translate(376.954375 110.246076) scale(0.1 -0.1)">
       <use xlink:href="#DejaVuSans-30"/>
       <use xlink:href="#DejaVuSans-2e" x="63.623047"/>
       <use xlink:href="#DejaVuSans-38" x="95.410156"/>
       <use xlink:href="#DejaVuSans-35" x="159.033203"/>
      </g>
     </g>
    </g>
    <g id="ytick_13">
     <g id="line2d_33">
      <g>
       <use xlink:href="#mf32b76f805" x="406.22" y="68.377591" style="stroke: #000000; stroke-width: 0.8"/>
      </g>
     </g>
     <g id="text_35">
      <!-- 0.90 -->
      <g transform="translate(376.954375 72.17681) scale(0.1 -0.1)">
       <defs>
        <path id="DejaVuSans-39" d="M 703 97 
L 703 672 
Q 941 559 1184 500 
Q 1428 441 1663 441 
Q 2288 441 2617 861 
Q 2947 1281 2994 2138 
Q 2813 1869 2534 1725 
Q 2256 1581 1919 1581 
Q 1219 1581 811 2004 
Q 403 2428 403 3163 
Q 403 3881 828 4315 
Q 1253 4750 1959 4750 
Q 2769 4750 3195 4129 
Q 3622 3509 3622 2328 
Q 3622 1225 3098 567 
Q 2575 -91 1691 -91 
Q 1453 -91 1209 -44 
Q 966 3 703 97 
z
M 1959 2075 
Q 2384 2075 2632 2365 
Q 2881 2656 2881 3163 
Q 2881 3666 2632 3958 
Q 2384 4250 1959 4250 
Q 1534 4250 1286 3958 
Q 1038 3666 1038 3163 
Q 1038 2656 1286 2365 
Q 1534 2075 1959 2075 
z
" transform="scale(0.015625)"/>
       </defs>
       <use xlink:href="#DejaVuSans-30"/>
       <use xlink:href="#DejaVuSans-2e" x="63.623047"/>
       <use xlink:href="#DejaVuSans-39" x="95.410156"/>
       <use xlink:href="#DejaVuSans-30" x="159.033203"/>
      </g>
     </g>
    </g>
    <g id="ytick_14">
     <g id="line2d_34">
      <g>
       <use xlink:href="#mf32b76f805" x="406.22" y="30.308325" style="stroke: #000000; stroke-width: 0.8"/>
      </g>
     </g>
     <g id="text_36">
      <!-- 0.95 -->
      <g transform="translate(376.954375 34.107544) scale(0.1 -0.1)">
       <use xlink:href="#DejaVuSans-30"/>
       <use xlink:href="#DejaVuSans-2e" x="63.623047"/>
       <use xlink:href="#DejaVuSans-39" x="95.410156"/>
       <use xlink:href="#DejaVuSans-35" x="159.033203"/>
      </g>
     </g>
    </g>
    <g id="text_37">
     <!-- Accuracy -->
     <g transform="translate(370.874687 195.288125) rotate(-90) scale(0.1 -0.1)">
      <defs>
       <path id="DejaVuSans-41" d="M 2188 4044 
L 1331 1722 
L 3047 1722 
L 2188 4044 
z
M 1831 4666 
L 2547 4666 
L 4325 0 
L 3669 0 
L 3244 1197 
L 1141 1197 
L 716 0 
L 50 0 
L 1831 4666 
z
" transform="scale(0.015625)"/>
       <path id="DejaVuSans-75" d="M 544 1381 
L 544 3500 
L 1119 3500 
L 1119 1403 
Q 1119 906 1312 657 
Q 1506 409 1894 409 
Q 2359 409 2629 706 
Q 2900 1003 2900 1516 
L 2900 3500 
L 3475 3500 
L 3475 0 
L 2900 0 
L 2900 538 
Q 2691 219 2414 64 
Q 2138 -91 1772 -91 
Q 1169 -91 856 284 
Q 544 659 544 1381 
z
M 1991 3584 
L 1991 3584 
z
" transform="scale(0.015625)"/>
       <path id="DejaVuSans-79" d="M 2059 -325 
Q 1816 -950 1584 -1140 
Q 1353 -1331 966 -1331 
L 506 -1331 
L 506 -850 
L 844 -850 
Q 1081 -850 1212 -737 
Q 1344 -625 1503 -206 
L 1606 56 
L 191 3500 
L 800 3500 
L 1894 763 
L 2988 3500 
L 3597 3500 
L 2059 -325 
z
" transform="scale(0.015625)"/>
      </defs>
      <use xlink:href="#DejaVuSans-41"/>
      <use xlink:href="#DejaVuSans-63" x="66.658203"/>
      <use xlink:href="#DejaVuSans-63" x="121.638672"/>
      <use xlink:href="#DejaVuSans-75" x="176.619141"/>
      <use xlink:href="#DejaVuSans-72" x="239.998047"/>
      <use xlink:href="#DejaVuSans-61" x="281.111328"/>
      <use xlink:href="#DejaVuSans-63" x="342.390625"/>
      <use xlink:href="#DejaVuSans-79" x="397.371094"/>
     </g>
    </g>
   </g>
   <g id="line2d_35">
    <path d="M 420.06 304.805455 
L 421.917718 259.571374 
L 423.775436 259.021081 
L 425.633154 262.102722 
L 427.490872 259.571374 
L 429.348591 262.102722 
L 433.064027 258.911022 
L 434.921745 257.480261 
L 436.779463 261.552429 
L 438.637181 255.16903 
L 440.494899 251.647156 
L 442.352617 241.631824 
L 444.210336 230.736023 
L 446.068054 224.462684 
L 447.925772 205.532606 
L 449.78349 193.866396 
L 451.641208 186.272353 
L 453.498926 163.600284 
L 455.356644 166.24169 
L 457.214362 151.713956 
L 459.072081 157.547061 
L 460.929799 143.679679 
L 462.787517 147.531729 
L 464.645235 143.019327 
L 466.502953 135.315226 
L 468.360671 126.620597 
L 470.218389 124.419425 
L 472.076107 116.054973 
L 473.933826 125.520011 
L 475.791544 115.174504 
L 477.649262 107.800578 
L 479.50698 114.073918 
L 481.364698 108.46093 
L 483.222416 94.703606 
L 485.080134 107.250285 
L 486.937852 98.775774 
L 488.79557 110.552043 
L 490.653289 96.464544 
L 492.511007 96.134368 
L 494.368725 87.439739 
L 496.226443 87.879974 
L 498.084161 99.326067 
L 499.941879 84.688274 
L 501.799597 87.329681 
L 503.657315 85.568743 
L 505.515034 79.405462 
L 507.372752 87.879974 
L 509.23047 76.764056 
L 511.088188 85.568743 
L 512.945906 86.55927 
L 514.803624 78.084759 
L 516.661342 75.333294 
L 518.51906 70.380658 
L 520.376779 79.405462 
L 522.234497 74.342767 
L 524.092215 74.232708 
L 525.949933 68.069427 
L 527.807651 71.041009 
L 529.665369 78.084759 
L 531.523087 68.399603 
L 533.380805 65.428021 
L 535.238523 72.801947 
L 537.096242 74.783001 
L 540.811678 70.490716 
L 542.669396 60.915619 
L 544.527114 66.968841 
L 546.384832 71.591302 
L 548.24255 66.528607 
L 550.100268 66.198431 
L 551.957987 60.475385 
L 553.815705 58.714447 
L 555.673423 60.03515 
L 557.531141 54.202045 
L 559.388859 58.934564 
L 561.246577 61.575971 
L 563.104295 58.714447 
L 564.962013 55.082514 
L 566.819732 57.173627 
L 568.67745 57.283686 
L 570.535168 55.962982 
L 572.392886 56.95351 
L 574.250604 56.293158 
L 576.108322 54.422162 
L 577.96604 56.1831 
L 579.823758 57.393744 
L 581.681477 55.852924 
L 583.539195 57.283686 
L 585.396913 52.000873 
L 587.254631 51.780756 
L 589.112349 54.642279 
L 590.970067 54.091986 
L 592.827785 54.862397 
L 594.685503 53.541693 
L 596.543221 48.919233 
L 598.40094 48.589057 
L 600.258658 54.312104 
L 602.116376 47.048237 
L 603.974094 48.258881 
L 605.831812 52.9914 
L 607.68953 49.799701 
L 609.547248 52.000873 
L 611.404966 53.871869 
L 613.262685 47.048237 
L 615.120403 48.258881 
L 616.978121 45.837592 
L 618.835839 49.249408 
L 620.693557 47.048237 
L 622.551275 44.626948 
L 624.408993 51.45058 
L 626.266711 48.478998 
L 628.12443 46.828119 
L 629.982148 46.167768 
L 631.839866 47.59853 
L 633.697584 44.296772 
L 635.555302 51.010346 
L 637.41302 45.067182 
L 639.270738 46.387885 
L 641.128456 49.13935 
L 644.843893 47.268354 
L 646.701611 47.928705 
L 648.559329 47.158295 
L 650.417047 49.249408 
L 652.274765 46.277826 
L 654.132483 40.114545 
L 655.990201 41.435249 
L 657.847919 43.196186 
L 659.705638 44.296772 
L 661.563356 47.59853 
L 663.421074 42.976069 
L 665.278792 41.215131 
L 667.13651 45.287299 
L 668.994228 45.947651 
L 670.851946 42.425776 
L 672.709664 45.507416 
L 674.567383 46.608002 
L 676.425101 42.0956 
L 678.282819 43.086127 
L 680.140537 42.976069 
L 681.998255 44.076655 
L 683.855973 46.387885 
L 685.713691 42.976069 
L 687.571409 41.875483 
L 689.429128 43.306245 
L 691.286846 45.947651 
L 693.144564 43.416303 
L 695.002282 44.186713 
L 696.86 42.315717 
L 696.86 42.315717 
" clip-path="url(#p7ff3203169)" style="fill: none; stroke: #1f77b4; stroke-width: 1.5; stroke-linecap: square"/>
   </g>
   <g id="line2d_36">
    <path d="M 420.06 272.749442 
L 427.490872 272.749442 
L 429.348591 283.853984 
L 431.206309 273.232248 
L 433.064027 272.749442 
L 434.921745 272.749442 
L 436.779463 300.7522 
L 438.637181 271.301024 
L 440.494899 249.574746 
L 442.352617 290.130464 
L 444.210336 275.163473 
L 446.068054 241.367041 
L 447.925772 294.958526 
L 449.78349 213.364283 
L 451.641208 201.294129 
L 453.498926 153.013513 
L 455.356644 167.980504 
L 457.214362 161.221217 
L 459.072081 172.808565 
L 460.929799 120.665499 
L 462.787517 155.427543 
L 464.645235 121.148305 
L 466.502953 104.732896 
L 468.360671 124.527949 
L 470.218389 91.697129 
L 472.076107 103.284477 
L 473.933826 100.870446 
L 475.791544 90.248711 
L 477.649262 74.316107 
L 479.50698 93.628354 
L 481.364698 110.52657 
L 483.222416 69.488046 
L 485.080134 131.770041 
L 486.937852 72.384883 
L 488.79557 115.354631 
L 490.653289 104.25009 
L 492.511007 114.871825 
L 494.368725 81.5582 
L 496.226443 92.662742 
L 498.084161 95.076772 
L 499.941879 97.007997 
L 501.799597 77.69575 
L 503.657315 71.902076 
L 505.515034 89.765905 
L 507.372752 90.248711 
L 509.23047 64.659984 
L 511.088188 80.592587 
L 512.945906 84.455037 
L 514.803624 104.732896 
L 516.661342 90.731517 
L 518.51906 64.659984 
L 520.376779 57.417891 
L 522.234497 101.353253 
L 524.092215 99.904834 
L 525.949933 56.935085 
L 527.807651 102.318865 
L 529.665369 123.562336 
L 531.523087 129.35601 
L 533.380805 59.831922 
L 535.238523 108.595345 
L 537.096242 56.935085 
L 538.95396 82.041006 
L 540.811678 89.765905 
L 542.669396 103.767283 
L 544.527114 70.453658 
L 546.384832 71.902076 
L 548.24255 65.14279 
L 550.100268 79.144169 
L 551.957987 59.349116 
L 553.815705 81.075394 
L 555.673423 70.936464 
L 557.531141 87.83468 
L 559.388859 80.109781 
L 561.246577 116.80305 
L 563.104295 105.698508 
L 564.962013 72.384883 
L 566.819732 58.86631 
L 568.67745 61.280341 
L 570.535168 95.559579 
L 572.392886 66.108402 
L 574.250604 77.69575 
L 576.108322 54.038248 
L 577.96604 64.177178 
L 579.823758 62.728759 
L 581.681477 79.626975 
L 583.539195 70.936464 
L 585.396913 74.316107 
L 587.254631 55.486667 
L 589.112349 69.488046 
L 590.970067 74.316107 
L 592.827785 60.314728 
L 594.685503 55.969473 
L 596.543221 69.005239 
L 598.40094 56.935085 
L 600.258658 70.453658 
L 602.116376 70.453658 
L 603.974094 67.074015 
L 605.831812 75.764526 
L 607.68953 53.555442 
L 609.547248 58.383504 
L 611.404966 68.039627 
L 613.262685 59.831922 
L 615.120403 58.86631 
L 616.978121 51.141411 
L 618.835839 70.453658 
L 620.693557 71.902076 
L 622.551275 64.659984 
L 624.408993 55.969473 
L 626.266711 49.692993 
L 628.12443 63.211565 
L 629.982148 63.694372 
L 631.839866 75.764526 
L 633.697584 51.624217 
L 635.555302 69.005239 
L 637.41302 67.074015 
L 639.270738 79.626975 
L 641.128456 56.452279 
L 642.986174 57.417891 
L 644.843893 72.384883 
L 646.701611 56.935085 
L 648.559329 77.212944 
L 650.417047 49.692993 
L 652.274765 59.349116 
L 654.132483 53.072636 
L 655.990201 47.761768 
L 657.847919 46.31335 
L 659.705638 59.349116 
L 661.563356 57.417891 
L 663.421074 44.864931 
L 665.278792 78.178557 
L 667.13651 71.41927 
L 668.994228 101.836059 
L 670.851946 53.555442 
L 672.709664 50.658605 
L 674.567383 54.521054 
L 676.425101 61.280341 
L 678.282819 63.211565 
L 680.140537 41.968094 
L 683.855973 61.763147 
L 685.713691 61.280341 
L 687.571409 56.452279 
L 689.429128 46.796156 
L 691.286846 65.14279 
L 693.144564 51.624217 
L 695.002282 56.935085 
L 696.86 47.761768 
L 696.86 47.761768 
" clip-path="url(#p7ff3203169)" style="fill: none; stroke: #ff7f0e; stroke-width: 1.5; stroke-linecap: square"/>
   </g>
   <g id="patch_9">
    <path d="M 406.22 318.04 
L 406.22 26.88 
" style="fill: none; stroke: #000000; stroke-width: 0.8; stroke-linejoin: miter; stroke-linecap: square"/>
   </g>
   <g id="patch_10">
    <path d="M 710.7 318.04 
L 710.7 26.88 
" style="fill: none; stroke: #000000; stroke-width: 0.8; stroke-linejoin: miter; stroke-linecap: square"/>
   </g>
   <g id="patch_11">
    <path d="M 406.22 318.04 
L 710.7 318.04 
" style="fill: none; stroke: #000000; stroke-width: 0.8; stroke-linejoin: miter; stroke-linecap: square"/>
   </g>
   <g id="patch_12">
    <path d="M 406.22 26.88 
L 710.7 26.88 
" style="fill: none; stroke: #000000; stroke-width: 0.8; stroke-linejoin: miter; stroke-linecap: square"/>
   </g>
   <g id="text_38">
    <!-- Accuracy vs Epoch -->
    <g transform="translate(502.2025 20.88) scale(0.12 -0.12)">
     <use xlink:href="#DejaVuSans-41"/>
     <use xlink:href="#DejaVuSans-63" x="66.658203"/>
     <use xlink:href="#DejaVuSans-63" x="121.638672"/>
     <use xlink:href="#DejaVuSans-75" x="176.619141"/>
     <use xlink:href="#DejaVuSans-72" x="239.998047"/>
     <use xlink:href="#DejaVuSans-61" x="281.111328"/>
     <use xlink:href="#DejaVuSans-63" x="342.390625"/>
     <use xlink:href="#DejaVuSans-79" x="397.371094"/>
     <use xlink:href="#DejaVuSans-20" x="456.550781"/>
     <use xlink:href="#DejaVuSans-76" x="488.337891"/>
     <use xlink:href="#DejaVuSans-73" x="547.517578"/>
     <use xlink:href="#DejaVuSans-20" x="599.617188"/>
     <use xlink:href="#DejaVuSans-45" x="631.404297"/>
     <use xlink:href="#DejaVuSans-70" x="694.587891"/>
     <use xlink:href="#DejaVuSans-6f" x="758.064453"/>
     <use xlink:href="#DejaVuSans-63" x="819.246094"/>
     <use xlink:href="#DejaVuSans-68" x="874.226562"/>
    </g>
   </g>
   <g id="legend_2">
    <g id="patch_13">
     <path d="M 573.484375 313.04 
L 703.7 313.04 
Q 705.7 313.04 705.7 311.04 
L 705.7 282.68375 
Q 705.7 280.68375 703.7 280.68375 
L 573.484375 280.68375 
Q 571.484375 280.68375 571.484375 282.68375 
L 571.484375 311.04 
Q 571.484375 313.04 573.484375 313.04 
z
" style="fill: #ffffff; opacity: 0.8; stroke: #cccccc; stroke-linejoin: miter"/>
    </g>
    <g id="line2d_37">
     <path d="M 575.484375 288.782188 
L 585.484375 288.782188 
L 595.484375 288.782188 
" style="fill: none; stroke: #1f77b4; stroke-width: 1.5; stroke-linecap: square"/>
    </g>
    <g id="text_39">
     <!-- Train Accuracy -->
     <g transform="translate(603.484375 292.282188) scale(0.1 -0.1)">
      <use xlink:href="#DejaVuSans-54"/>
      <use xlink:href="#DejaVuSans-72" x="46.333984"/>
      <use xlink:href="#DejaVuSans-61" x="87.447266"/>
      <use xlink:href="#DejaVuSans-69" x="148.726562"/>
      <use xlink:href="#DejaVuSans-6e" x="176.509766"/>
      <use xlink:href="#DejaVuSans-20" x="239.888672"/>
      <use xlink:href="#DejaVuSans-41" x="271.675781"/>
      <use xlink:href="#DejaVuSans-63" x="338.333984"/>
      <use xlink:href="#DejaVuSans-63" x="393.314453"/>
      <use xlink:href="#DejaVuSans-75" x="448.294922"/>
      <use xlink:href="#DejaVuSans-72" x="511.673828"/>
      <use xlink:href="#DejaVuSans-61" x="552.787109"/>
      <use xlink:href="#DejaVuSans-63" x="614.066406"/>
      <use xlink:href="#DejaVuSans-79" x="669.046875"/>
     </g>
    </g>
    <g id="line2d_38">
     <path d="M 575.484375 303.460313 
L 585.484375 303.460313 
L 595.484375 303.460313 
" style="fill: none; stroke: #ff7f0e; stroke-width: 1.5; stroke-linecap: square"/>
    </g>
    <g id="text_40">
     <!-- Validation Accuracy -->
     <g transform="translate(603.484375 306.960313) scale(0.1 -0.1)">
      <use xlink:href="#DejaVuSans-56"/>
      <use xlink:href="#DejaVuSans-61" x="60.658203"/>
      <use xlink:href="#DejaVuSans-6c" x="121.9375"/>
      <use xlink:href="#DejaVuSans-69" x="149.720703"/>
      <use xlink:href="#DejaVuSans-64" x="177.503906"/>
      <use xlink:href="#DejaVuSans-61" x="240.980469"/>
      <use xlink:href="#DejaVuSans-74" x="302.259766"/>
      <use xlink:href="#DejaVuSans-69" x="341.46875"/>
      <use xlink:href="#DejaVuSans-6f" x="369.251953"/>
      <use xlink:href="#DejaVuSans-6e" x="430.433594"/>
      <use xlink:href="#DejaVuSans-20" x="493.8125"/>
      <use xlink:href="#DejaVuSans-41" x="525.599609"/>
      <use xlink:href="#DejaVuSans-63" x="592.257812"/>
      <use xlink:href="#DejaVuSans-63" x="647.238281"/>
      <use xlink:href="#DejaVuSans-75" x="702.21875"/>
      <use xlink:href="#DejaVuSans-72" x="765.597656"/>
      <use xlink:href="#DejaVuSans-61" x="806.710938"/>
      <use xlink:href="#DejaVuSans-63" x="867.990234"/>
      <use xlink:href="#DejaVuSans-79" x="922.970703"/>
     </g>
    </g>
   </g>
  </g>
  <g id="axes_3">
   <g id="patch_14">
    <path d="M 764.72 318.04 
L 1069.2 318.04 
L 1069.2 26.88 
L 764.72 26.88 
z
" style="fill: #ffffff"/>
   </g>
   <g id="matplotlib.axis_5">
    <g id="xtick_17">
     <g id="line2d_39">
      <g>
       <use xlink:href="#mdf71c571b7" x="778.56" y="318.04" style="stroke: #000000; stroke-width: 0.8"/>
      </g>
     </g>
     <g id="text_41">
      <!-- 0 -->
      <g transform="translate(775.37875 332.638438) scale(0.1 -0.1)">
       <use xlink:href="#DejaVuSans-30"/>
      </g>
     </g>
    </g>
    <g id="xtick_18">
     <g id="line2d_40">
      <g>
       <use xlink:href="#mdf71c571b7" x="815.714362" y="318.04" style="stroke: #000000; stroke-width: 0.8"/>
      </g>
     </g>
     <g id="text_42">
      <!-- 20 -->
      <g transform="translate(809.351862 332.638438) scale(0.1 -0.1)">
       <use xlink:href="#DejaVuSans-32"/>
       <use xlink:href="#DejaVuSans-30" x="63.623047"/>
      </g>
     </g>
    </g>
    <g id="xtick_19">
     <g id="line2d_41">
      <g>
       <use xlink:href="#mdf71c571b7" x="852.868725" y="318.04" style="stroke: #000000; stroke-width: 0.8"/>
      </g>
     </g>
     <g id="text_43">
      <!-- 40 -->
      <g transform="translate(846.506225 332.638438) scale(0.1 -0.1)">
       <use xlink:href="#DejaVuSans-34"/>
       <use xlink:href="#DejaVuSans-30" x="63.623047"/>
      </g>
     </g>
    </g>
    <g id="xtick_20">
     <g id="line2d_42">
      <g>
       <use xlink:href="#mdf71c571b7" x="890.023087" y="318.04" style="stroke: #000000; stroke-width: 0.8"/>
      </g>
     </g>
     <g id="text_44">
      <!-- 60 -->
      <g transform="translate(883.660587 332.638438) scale(0.1 -0.1)">
       <use xlink:href="#DejaVuSans-36"/>
       <use xlink:href="#DejaVuSans-30" x="63.623047"/>
      </g>
     </g>
    </g>
    <g id="xtick_21">
     <g id="line2d_43">
      <g>
       <use xlink:href="#mdf71c571b7" x="927.17745" y="318.04" style="stroke: #000000; stroke-width: 0.8"/>
      </g>
     </g>
     <g id="text_45">
      <!-- 80 -->
      <g transform="translate(920.81495 332.638438) scale(0.1 -0.1)">
       <use xlink:href="#DejaVuSans-38"/>
       <use xlink:href="#DejaVuSans-30" x="63.623047"/>
      </g>
     </g>
    </g>
    <g id="xtick_22">
     <g id="line2d_44">
      <g>
       <use xlink:href="#mdf71c571b7" x="964.331812" y="318.04" style="stroke: #000000; stroke-width: 0.8"/>
      </g>
     </g>
     <g id="text_46">
      <!-- 100 -->
      <g transform="translate(954.788062 332.638438) scale(0.1 -0.1)">
       <use xlink:href="#DejaVuSans-31"/>
       <use xlink:href="#DejaVuSans-30" x="63.623047"/>
       <use xlink:href="#DejaVuSans-30" x="127.246094"/>
      </g>
     </g>
    </g>
    <g id="xtick_23">
     <g id="line2d_45">
      <g>
       <use xlink:href="#mdf71c571b7" x="1001.486174" y="318.04" style="stroke: #000000; stroke-width: 0.8"/>
      </g>
     </g>
     <g id="text_47">
      <!-- 120 -->
      <g transform="translate(991.942424 332.638438) scale(0.1 -0.1)">
       <use xlink:href="#DejaVuSans-31"/>
       <use xlink:href="#DejaVuSans-32" x="63.623047"/>
       <use xlink:href="#DejaVuSans-30" x="127.246094"/>
      </g>
     </g>
    </g>
    <g id="xtick_24">
     <g id="line2d_46">
      <g>
       <use xlink:href="#mdf71c571b7" x="1038.640537" y="318.04" style="stroke: #000000; stroke-width: 0.8"/>
      </g>
     </g>
     <g id="text_48">
      <!-- 140 -->
      <g transform="translate(1029.096787 332.638438) scale(0.1 -0.1)">
       <use xlink:href="#DejaVuSans-31"/>
       <use xlink:href="#DejaVuSans-34" x="63.623047"/>
       <use xlink:href="#DejaVuSans-30" x="127.246094"/>
      </g>
     </g>
    </g>
    <g id="text_49">
     <!-- Epoch -->
     <g transform="translate(901.649062 346.316563) scale(0.1 -0.1)">
      <use xlink:href="#DejaVuSans-45"/>
      <use xlink:href="#DejaVuSans-70" x="63.183594"/>
      <use xlink:href="#DejaVuSans-6f" x="126.660156"/>
      <use xlink:href="#DejaVuSans-63" x="187.841797"/>
      <use xlink:href="#DejaVuSans-68" x="242.822266"/>
     </g>
    </g>
   </g>
   <g id="matplotlib.axis_6">
    <g id="ytick_15">
     <g id="line2d_47">
      <g>
       <use xlink:href="#mf32b76f805" x="764.72" y="301.01464" style="stroke: #000000; stroke-width: 0.8"/>
      </g>
     </g>
     <g id="text_50">
      <!-- 0.70 -->
      <g transform="translate(735.454375 304.813859) scale(0.1 -0.1)">
       <use xlink:href="#DejaVuSans-30"/>
       <use xlink:href="#DejaVuSans-2e" x="63.623047"/>
       <use xlink:href="#DejaVuSans-37" x="95.410156"/>
       <use xlink:href="#DejaVuSans-30" x="159.033203"/>
      </g>
     </g>
    </g>
    <g id="ytick_16">
     <g id="line2d_48">
      <g>
       <use xlink:href="#mf32b76f805" x="764.72" y="249.486011" style="stroke: #000000; stroke-width: 0.8"/>
      </g>
     </g>
     <g id="text_51">
      <!-- 0.75 -->
      <g transform="translate(735.454375 253.28523) scale(0.1 -0.1)">
       <use xlink:href="#DejaVuSans-30"/>
       <use xlink:href="#DejaVuSans-2e" x="63.623047"/>
       <use xlink:href="#DejaVuSans-37" x="95.410156"/>
       <use xlink:href="#DejaVuSans-35" x="159.033203"/>
      </g>
     </g>
    </g>
    <g id="ytick_17">
     <g id="line2d_49">
      <g>
       <use xlink:href="#mf32b76f805" x="764.72" y="197.957383" style="stroke: #000000; stroke-width: 0.8"/>
      </g>
     </g>
     <g id="text_52">
      <!-- 0.80 -->
      <g transform="translate(735.454375 201.756601) scale(0.1 -0.1)">
       <use xlink:href="#DejaVuSans-30"/>
       <use xlink:href="#DejaVuSans-2e" x="63.623047"/>
       <use xlink:href="#DejaVuSans-38" x="95.410156"/>
       <use xlink:href="#DejaVuSans-30" x="159.033203"/>
      </g>
     </g>
    </g>
    <g id="ytick_18">
     <g id="line2d_50">
      <g>
       <use xlink:href="#mf32b76f805" x="764.72" y="146.428754" style="stroke: #000000; stroke-width: 0.8"/>
      </g>
     </g>
     <g id="text_53">
      <!-- 0.85 -->
      <g transform="translate(735.454375 150.227973) scale(0.1 -0.1)">
       <use xlink:href="#DejaVuSans-30"/>
       <use xlink:href="#DejaVuSans-2e" x="63.623047"/>
       <use xlink:href="#DejaVuSans-38" x="95.410156"/>
       <use xlink:href="#DejaVuSans-35" x="159.033203"/>
      </g>
     </g>
    </g>
    <g id="ytick_19">
     <g id="line2d_51">
      <g>
       <use xlink:href="#mf32b76f805" x="764.72" y="94.900125" style="stroke: #000000; stroke-width: 0.8"/>
      </g>
     </g>
     <g id="text_54">
      <!-- 0.90 -->
      <g transform="translate(735.454375 98.699344) scale(0.1 -0.1)">
       <use xlink:href="#DejaVuSans-30"/>
       <use xlink:href="#DejaVuSans-2e" x="63.623047"/>
       <use xlink:href="#DejaVuSans-39" x="95.410156"/>
       <use xlink:href="#DejaVuSans-30" x="159.033203"/>
      </g>
     </g>
    </g>
    <g id="ytick_20">
     <g id="line2d_52">
      <g>
       <use xlink:href="#mf32b76f805" x="764.72" y="43.371497" style="stroke: #000000; stroke-width: 0.8"/>
      </g>
     </g>
     <g id="text_55">
      <!-- 0.95 -->
      <g transform="translate(735.454375 47.170715) scale(0.1 -0.1)">
       <use xlink:href="#DejaVuSans-30"/>
       <use xlink:href="#DejaVuSans-2e" x="63.623047"/>
       <use xlink:href="#DejaVuSans-39" x="95.410156"/>
       <use xlink:href="#DejaVuSans-35" x="159.033203"/>
      </g>
     </g>
    </g>
    <g id="text_56">
     <!-- F1-Score -->
     <g transform="translate(729.374688 194.323281) rotate(-90) scale(0.1 -0.1)">
      <defs>
       <path id="DejaVuSans-46" d="M 628 4666 
L 3309 4666 
L 3309 4134 
L 1259 4134 
L 1259 2759 
L 3109 2759 
L 3109 2228 
L 1259 2228 
L 1259 0 
L 628 0 
L 628 4666 
z
" transform="scale(0.015625)"/>
       <path id="DejaVuSans-2d" d="M 313 2009 
L 1997 2009 
L 1997 1497 
L 313 1497 
L 313 2009 
z
" transform="scale(0.015625)"/>
       <path id="DejaVuSans-53" d="M 3425 4513 
L 3425 3897 
Q 3066 4069 2747 4153 
Q 2428 4238 2131 4238 
Q 1616 4238 1336 4038 
Q 1056 3838 1056 3469 
Q 1056 3159 1242 3001 
Q 1428 2844 1947 2747 
L 2328 2669 
Q 3034 2534 3370 2195 
Q 3706 1856 3706 1288 
Q 3706 609 3251 259 
Q 2797 -91 1919 -91 
Q 1588 -91 1214 -16 
Q 841 59 441 206 
L 441 856 
Q 825 641 1194 531 
Q 1563 422 1919 422 
Q 2459 422 2753 634 
Q 3047 847 3047 1241 
Q 3047 1584 2836 1778 
Q 2625 1972 2144 2069 
L 1759 2144 
Q 1053 2284 737 2584 
Q 422 2884 422 3419 
Q 422 4038 858 4394 
Q 1294 4750 2059 4750 
Q 2388 4750 2728 4690 
Q 3069 4631 3425 4513 
z
" transform="scale(0.015625)"/>
       <path id="DejaVuSans-65" d="M 3597 1894 
L 3597 1613 
L 953 1613 
Q 991 1019 1311 708 
Q 1631 397 2203 397 
Q 2534 397 2845 478 
Q 3156 559 3463 722 
L 3463 178 
Q 3153 47 2828 -22 
Q 2503 -91 2169 -91 
Q 1331 -91 842 396 
Q 353 884 353 1716 
Q 353 2575 817 3079 
Q 1281 3584 2069 3584 
Q 2775 3584 3186 3129 
Q 3597 2675 3597 1894 
z
M 3022 2063 
Q 3016 2534 2758 2815 
Q 2500 3097 2075 3097 
Q 1594 3097 1305 2825 
Q 1016 2553 972 2059 
L 3022 2063 
z
" transform="scale(0.015625)"/>
      </defs>
      <use xlink:href="#DejaVuSans-46"/>
      <use xlink:href="#DejaVuSans-31" x="57.519531"/>
      <use xlink:href="#DejaVuSans-2d" x="121.142578"/>
      <use xlink:href="#DejaVuSans-53" x="157.226562"/>
      <use xlink:href="#DejaVuSans-63" x="220.703125"/>
      <use xlink:href="#DejaVuSans-6f" x="275.683594"/>
      <use xlink:href="#DejaVuSans-72" x="336.865234"/>
      <use xlink:href="#DejaVuSans-65" x="375.728516"/>
     </g>
    </g>
   </g>
   <g id="line2d_53">
    <path d="M 778.56 304.805455 
L 780.417718 216.774199 
L 782.275436 213.149381 
L 784.133154 216.501825 
L 785.990872 214.019204 
L 787.848591 217.303606 
L 789.706309 215.425647 
L 791.564027 212.452228 
L 793.421745 212.65367 
L 795.279463 223.520506 
L 797.137181 210.632336 
L 798.994899 213.816692 
L 800.852617 216.043852 
L 802.710336 205.653377 
L 804.568054 207.268678 
L 806.425772 182.383762 
L 808.28349 178.037045 
L 810.141208 174.979593 
L 811.998926 154.630886 
L 813.856644 157.308008 
L 815.714362 145.36396 
L 817.572081 149.279809 
L 819.429799 138.216512 
L 821.287517 137.53347 
L 823.145235 136.29595 
L 825.002953 129.591618 
L 826.860671 121.768435 
L 828.718389 119.798793 
L 830.576107 114.2322 
L 832.433826 123.504793 
L 834.291544 112.243408 
L 836.149262 106.642486 
L 838.00698 110.742695 
L 839.864698 105.371413 
L 841.722416 93.902549 
L 843.580134 104.130256 
L 845.437852 95.997624 
L 847.29557 105.738778 
L 849.153289 94.391174 
L 851.011007 94.292374 
L 852.868725 87.337809 
L 854.726443 86.903643 
L 856.584161 97.361874 
L 858.441879 83.760575 
L 860.299597 86.830568 
L 862.157315 84.754365 
L 864.015034 78.508134 
L 865.872752 86.063548 
L 867.73047 76.438821 
L 869.588188 84.695135 
L 871.445906 85.531284 
L 873.303624 77.32209 
L 875.161342 75.158244 
L 877.01906 69.866597 
L 878.876779 77.86874 
L 880.734497 73.129307 
L 882.592215 73.356465 
L 884.449933 67.842494 
L 886.307651 69.499147 
L 888.165369 76.4583 
L 890.023087 67.839908 
L 891.880805 64.804729 
L 893.738523 71.301381 
L 895.596242 73.067062 
L 897.45396 71.234643 
L 899.311678 68.997454 
L 901.169396 60.606478 
L 903.027114 65.758446 
L 904.884832 70.148572 
L 906.74255 65.400707 
L 908.600268 65.299038 
L 910.457987 60.209548 
L 912.315705 58.545165 
L 914.173423 59.797557 
L 916.031141 54.278288 
L 917.888859 58.154928 
L 919.746577 60.795791 
L 921.604295 58.459503 
L 923.462013 54.961707 
L 925.319732 57.110989 
L 927.17745 56.976906 
L 929.035168 55.709027 
L 930.892886 56.847875 
L 932.750604 55.964446 
L 934.608322 53.688168 
L 936.46604 55.466571 
L 938.323758 56.554256 
L 940.181477 55.091004 
L 942.039195 56.99084 
L 943.896913 51.661244 
L 945.754631 51.187175 
L 947.612349 54.118755 
L 949.470067 53.774197 
L 951.327785 54.552289 
L 953.185503 53.007378 
L 955.043221 48.504005 
L 956.90094 48.143888 
L 958.758658 53.756261 
L 960.616376 46.803795 
L 962.474094 48.156495 
L 964.331812 52.464784 
L 966.18953 49.433364 
L 968.047248 51.393885 
L 969.904966 53.5538 
L 971.762685 46.980936 
L 973.620403 48.156495 
L 975.478121 45.526561 
L 977.335839 48.840155 
L 981.051275 44.647232 
L 982.908993 51.154811 
L 984.766711 48.051917 
L 986.62443 46.571347 
L 988.482148 46.002087 
L 990.339866 47.540515 
L 992.197584 44.32008 
L 994.055302 50.928734 
L 995.91302 45.056598 
L 997.770738 46.164885 
L 999.628456 48.724049 
L 1003.343893 46.977288 
L 1005.201611 47.770552 
L 1007.059329 47.157025 
L 1008.917047 48.876692 
L 1010.774765 46.165051 
L 1012.632483 40.114545 
L 1014.490201 41.456863 
L 1016.347919 42.990376 
L 1018.205638 44.027947 
L 1020.063356 47.409167 
L 1021.921074 42.867887 
L 1023.778792 41.128714 
L 1025.63651 45.060779 
L 1027.494228 45.700162 
L 1029.351946 42.352444 
L 1031.209664 45.327441 
L 1033.067383 46.315675 
L 1034.925101 41.82139 
L 1036.782819 42.929191 
L 1038.640537 42.802211 
L 1040.498255 43.785049 
L 1042.355973 46.164885 
L 1044.213691 43.010768 
L 1046.071409 41.803981 
L 1047.929128 43.238577 
L 1049.786846 45.642549 
L 1051.644564 43.23335 
L 1053.502282 44.057365 
L 1055.36 42.117396 
L 1055.36 42.117396 
" clip-path="url(#p5f3dd55799)" style="fill: none; stroke: #1f77b4; stroke-width: 1.5; stroke-linecap: square"/>
   </g>
   <g id="line2d_54">
    <path d="M 778.56 224.552804 
L 785.990872 224.552804 
L 787.848591 235.947117 
L 789.706309 225.043971 
L 791.564027 224.552804 
L 793.421745 224.552804 
L 795.279463 274.112853 
L 797.137181 224.345189 
L 798.994899 213.601117 
L 800.852617 259.349506 
L 802.710336 233.409079 
L 804.568054 211.584789 
L 806.425772 257.646654 
L 808.28349 205.225435 
L 810.141208 183.938401 
L 811.998926 151.833855 
L 813.856644 160.061889 
L 815.714362 152.011785 
L 817.572081 166.563694 
L 819.429799 135.217504 
L 821.287517 151.628891 
L 823.145235 120.845623 
L 825.002953 109.839629 
L 826.860671 119.38437 
L 828.718389 101.274801 
L 830.576107 101.579762 
L 832.433826 101.58202 
L 834.291544 92.277929 
L 836.149262 76.643128 
L 838.00698 98.453824 
L 839.864698 107.50493 
L 841.722416 72.830889 
L 843.580134 125.341511 
L 845.437852 75.539075 
L 847.29557 114.702151 
L 849.153289 102.227373 
L 851.011007 111.370463 
L 852.868725 85.808332 
L 854.726443 93.724567 
L 856.584161 94.370639 
L 858.441879 95.425197 
L 860.299597 84.673069 
L 862.157315 75.157162 
L 864.015034 88.48895 
L 865.872752 89.102855 
L 867.73047 68.219294 
L 869.588188 80.509902 
L 871.445906 87.535314 
L 873.303624 102.447847 
L 875.161342 91.011172 
L 877.01906 67.694627 
L 878.876779 62.645564 
L 880.734497 101.292775 
L 882.592215 98.289225 
L 884.449933 59.338823 
L 886.307651 101.642189 
L 888.165369 120.90168 
L 890.023087 122.621514 
L 891.880805 64.785315 
L 893.738523 104.175745 
L 895.596242 63.4698 
L 897.45396 83.035303 
L 899.311678 88.399296 
L 901.169396 100.29948 
L 903.027114 72.263271 
L 904.884832 71.563672 
L 906.74255 67.129011 
L 908.600268 79.592661 
L 910.457987 61.213128 
L 912.315705 80.952527 
L 914.173423 78.032365 
L 916.031141 89.38272 
L 917.888859 83.516479 
L 919.746577 112.372208 
L 921.604295 103.192089 
L 923.462013 74.969713 
L 925.319732 61.285746 
L 927.17745 64.332724 
L 929.035168 93.851439 
L 930.892886 68.79631 
L 932.750604 77.764368 
L 934.608322 57.017418 
L 936.46604 65.34948 
L 938.323758 65.383237 
L 940.181477 79.623402 
L 942.039195 72.025841 
L 943.896913 74.249894 
L 945.754631 57.411108 
L 947.612349 70.66295 
L 949.470067 76.072357 
L 951.327785 61.872137 
L 953.185503 59.054123 
L 955.043221 70.964567 
L 956.90094 59.272909 
L 958.758658 71.419968 
L 960.616376 70.743037 
L 962.474094 68.309478 
L 964.331812 76.140294 
L 966.18953 55.656967 
L 968.047248 60.883671 
L 969.904966 69.89395 
L 971.762685 62.223434 
L 973.620403 60.614152 
L 975.478121 54.519764 
L 977.335839 71.193038 
L 979.193557 72.39449 
L 981.051275 65.949237 
L 982.908993 57.751579 
L 984.766711 51.871324 
L 986.62443 64.852106 
L 988.482148 65.101629 
L 990.339866 75.981167 
L 992.197584 54.071845 
L 994.055302 70.433294 
L 995.91302 68.603439 
L 997.770738 81.050728 
L 999.628456 58.283077 
L 1001.486174 60.277348 
L 1003.343893 72.691189 
L 1005.201611 59.870811 
L 1007.059329 77.238712 
L 1008.917047 52.40491 
L 1010.774765 60.945419 
L 1012.632483 55.185377 
L 1014.490201 49.853561 
L 1016.347919 48.702044 
L 1018.205638 60.945419 
L 1020.063356 59.086608 
L 1021.921074 47.260929 
L 1023.778792 78.617664 
L 1025.63651 72.172669 
L 1027.494228 99.007309 
L 1029.351946 56.348889 
L 1031.209664 53.120156 
L 1033.067383 56.661913 
L 1034.925101 62.933981 
L 1036.782819 64.781803 
L 1038.640537 44.52226 
L 1042.355973 63.813019 
L 1044.213691 63.140342 
L 1046.071409 58.933496 
L 1047.929128 49.925013 
L 1049.786846 66.622521 
L 1051.644564 53.767844 
L 1053.502282 59.670336 
L 1055.36 49.796827 
L 1055.36 49.796827 
" clip-path="url(#p5f3dd55799)" style="fill: none; stroke: #ff7f0e; stroke-width: 1.5; stroke-linecap: square"/>
   </g>
   <g id="patch_15">
    <path d="M 764.72 318.04 
L 764.72 26.88 
" style="fill: none; stroke: #000000; stroke-width: 0.8; stroke-linejoin: miter; stroke-linecap: square"/>
   </g>
   <g id="patch_16">
    <path d="M 1069.2 318.04 
L 1069.2 26.88 
" style="fill: none; stroke: #000000; stroke-width: 0.8; stroke-linejoin: miter; stroke-linecap: square"/>
   </g>
   <g id="patch_17">
    <path d="M 764.72 318.04 
L 1069.2 318.04 
" style="fill: none; stroke: #000000; stroke-width: 0.8; stroke-linejoin: miter; stroke-linecap: square"/>
   </g>
   <g id="patch_18">
    <path d="M 764.72 26.88 
L 1069.2 26.88 
" style="fill: none; stroke: #000000; stroke-width: 0.8; stroke-linejoin: miter; stroke-linecap: square"/>
   </g>
   <g id="text_57">
    <!-- F1-Score vs Epoch -->
    <g transform="translate(861.860312 20.88) scale(0.12 -0.12)">
     <use xlink:href="#DejaVuSans-46"/>
     <use xlink:href="#DejaVuSans-31" x="57.519531"/>
     <use xlink:href="#DejaVuSans-2d" x="121.142578"/>
     <use xlink:href="#DejaVuSans-53" x="157.226562"/>
     <use xlink:href="#DejaVuSans-63" x="220.703125"/>
     <use xlink:href="#DejaVuSans-6f" x="275.683594"/>
     <use xlink:href="#DejaVuSans-72" x="336.865234"/>
     <use xlink:href="#DejaVuSans-65" x="375.728516"/>
     <use xlink:href="#DejaVuSans-20" x="437.251953"/>
     <use xlink:href="#DejaVuSans-76" x="469.039062"/>
     <use xlink:href="#DejaVuSans-73" x="528.21875"/>
     <use xlink:href="#DejaVuSans-20" x="580.318359"/>
     <use xlink:href="#DejaVuSans-45" x="612.105469"/>
     <use xlink:href="#DejaVuSans-70" x="675.289062"/>
     <use xlink:href="#DejaVuSans-6f" x="738.765625"/>
     <use xlink:href="#DejaVuSans-63" x="799.947266"/>
     <use xlink:href="#DejaVuSans-68" x="854.927734"/>
    </g>
   </g>
   <g id="legend_3">
    <g id="patch_19">
     <path d="M 771.72 64.23625 
L 868.393438 64.23625 
Q 870.393438 64.23625 870.393438 62.23625 
L 870.393438 33.88 
Q 870.393438 31.88 868.393438 31.88 
L 771.72 31.88 
Q 769.72 31.88 769.72 33.88 
L 769.72 62.23625 
Q 769.72 64.23625 771.72 64.23625 
z
" style="fill: #ffffff; opacity: 0.8; stroke: #cccccc; stroke-linejoin: miter"/>
    </g>
    <g id="line2d_55">
     <path d="M 773.72 39.978437 
L 783.72 39.978437 
L 793.72 39.978437 
" style="fill: none; stroke: #1f77b4; stroke-width: 1.5; stroke-linecap: square"/>
    </g>
    <g id="text_58">
     <!-- Train F1 -->
     <g transform="translate(801.72 43.478437) scale(0.1 -0.1)">
      <use xlink:href="#DejaVuSans-54"/>
      <use xlink:href="#DejaVuSans-72" x="46.333984"/>
      <use xlink:href="#DejaVuSans-61" x="87.447266"/>
      <use xlink:href="#DejaVuSans-69" x="148.726562"/>
      <use xlink:href="#DejaVuSans-6e" x="176.509766"/>
      <use xlink:href="#DejaVuSans-20" x="239.888672"/>
      <use xlink:href="#DejaVuSans-46" x="271.675781"/>
      <use xlink:href="#DejaVuSans-31" x="329.195312"/>
     </g>
    </g>
    <g id="line2d_56">
     <path d="M 773.72 54.656563 
L 783.72 54.656563 
L 793.72 54.656563 
" style="fill: none; stroke: #ff7f0e; stroke-width: 1.5; stroke-linecap: square"/>
    </g>
    <g id="text_59">
     <!-- Validation F1 -->
     <g transform="translate(801.72 58.156563) scale(0.1 -0.1)">
      <use xlink:href="#DejaVuSans-56"/>
      <use xlink:href="#DejaVuSans-61" x="60.658203"/>
      <use xlink:href="#DejaVuSans-6c" x="121.9375"/>
      <use xlink:href="#DejaVuSans-69" x="149.720703"/>
      <use xlink:href="#DejaVuSans-64" x="177.503906"/>
      <use xlink:href="#DejaVuSans-61" x="240.980469"/>
      <use xlink:href="#DejaVuSans-74" x="302.259766"/>
      <use xlink:href="#DejaVuSans-69" x="341.46875"/>
      <use xlink:href="#DejaVuSans-6f" x="369.251953"/>
      <use xlink:href="#DejaVuSans-6e" x="430.433594"/>
      <use xlink:href="#DejaVuSans-20" x="493.8125"/>
      <use xlink:href="#DejaVuSans-46" x="525.599609"/>
      <use xlink:href="#DejaVuSans-31" x="583.119141"/>
     </g>
    </g>
   </g>
  </g>
 </g>
 <defs>
  <clipPath id="p1372cac8fe">
   <rect x="47.72" y="26.88" width="304.48" height="291.16"/>
  </clipPath>
  <clipPath id="p7ff3203169">
   <rect x="406.22" y="26.88" width="304.48" height="291.16"/>
  </clipPath>
  <clipPath id="p5f3dd55799">
   <rect x="764.72" y="26.88" width="304.48" height="291.16"/>
  </clipPath>
 </defs>
</svg>
