<?xml version="1.0" encoding="utf-8" standalone="no"?>
<!DOCTYPE svg PUBLIC "-//W3C//DTD SVG 1.1//EN"
  "http://www.w3.org/Graphics/SVG/1.1/DTD/svg11.dtd">
<svg xmlns:xlink="http://www.w3.org/1999/xlink" width="1080pt" height="360pt" viewBox="0 0 1080 360" xmlns="http://www.w3.org/2000/svg" version="1.1">
 <metadata>
  <rdf:RDF xmlns:dc="http://purl.org/dc/elements/1.1/" xmlns:cc="http://creativecommons.org/ns#" xmlns:rdf="http://www.w3.org/1999/02/22-rdf-syntax-ns#">
   <cc:Work>
    <dc:type rdf:resource="http://purl.org/dc/dcmitype/StillImage"/>
    <dc:date>2024-10-22T11:52:19.085140</dc:date>
    <dc:format>image/svg+xml</dc:format>
    <dc:creator>
     <cc:Agent>
      <dc:title>Matplotlib v3.8.2, https://matplotlib.org/</dc:title>
     </cc:Agent>
    </dc:creator>
   </cc:Work>
  </rdf:RDF>
 </metadata>
 <defs>
  <style type="text/css">*{stroke-linejoin: round; stroke-linecap: butt}</style>
 </defs>
 <g id="figure_1">
  <g id="patch_1">
   <path d="M 0 360 
L 1080 360 
L 1080 0 
L 0 0 
z
" style="fill: #ffffff"/>
  </g>
  <g id="axes_1">
   <g id="patch_2">
    <path d="M 54.02 318.04 
L 349.74746 318.04 
L 349.74746 26.88 
L 54.02 26.88 
z
" style="fill: #ffffff"/>
   </g>
   <g id="matplotlib.axis_1">
    <g id="xtick_1">
     <g id="line2d_1">
      <defs>
       <path id="m6ae4217abb" d="M 0 0 
L 0 3.5 
" style="stroke: #000000; stroke-width: 0.8"/>
      </defs>
      <g>
       <use xlink:href="#m6ae4217abb" x="66.341977" y="318.04" style="stroke: #000000; stroke-width: 0.8"/>
      </g>
     </g>
     <g id="text_1">
      <!-- 0 -->
      <g transform="translate(63.160727 332.638438) scale(0.1 -0.1)">
       <defs>
        <path id="DejaVuSans-30" d="M 2034 4250 
Q 1547 4250 1301 3770 
Q 1056 3291 1056 2328 
Q 1056 1369 1301 889 
Q 1547 409 2034 409 
Q 2525 409 2770 889 
Q 3016 1369 3016 2328 
Q 3016 3291 2770 3770 
Q 2525 4250 2034 4250 
z
M 2034 4750 
Q 2819 4750 3233 4129 
Q 3647 3509 3647 2328 
Q 3647 1150 3233 529 
Q 2819 -91 2034 -91 
Q 1250 -91 836 529 
Q 422 1150 422 2328 
Q 422 3509 836 4129 
Q 1250 4750 2034 4750 
z
" transform="scale(0.015625)"/>
       </defs>
       <use xlink:href="#DejaVuSans-30"/>
      </g>
     </g>
    </g>
    <g id="xtick_2">
     <g id="line2d_2">
      <g>
       <use xlink:href="#m6ae4217abb" x="122.350966" y="318.04" style="stroke: #000000; stroke-width: 0.8"/>
      </g>
     </g>
     <g id="text_2">
      <!-- 50 -->
      <g transform="translate(115.988466 332.638438) scale(0.1 -0.1)">
       <defs>
        <path id="DejaVuSans-35" d="M 691 4666 
L 3169 4666 
L 3169 4134 
L 1269 4134 
L 1269 2991 
Q 1406 3038 1543 3061 
Q 1681 3084 1819 3084 
Q 2600 3084 3056 2656 
Q 3513 2228 3513 1497 
Q 3513 744 3044 326 
Q 2575 -91 1722 -91 
Q 1428 -91 1123 -41 
Q 819 9 494 109 
L 494 744 
Q 775 591 1075 516 
Q 1375 441 1709 441 
Q 2250 441 2565 725 
Q 2881 1009 2881 1497 
Q 2881 1984 2565 2268 
Q 2250 2553 1709 2553 
Q 1456 2553 1204 2497 
Q 953 2441 691 2322 
L 691 4666 
z
" transform="scale(0.015625)"/>
       </defs>
       <use xlink:href="#DejaVuSans-35"/>
       <use xlink:href="#DejaVuSans-30" x="63.623047"/>
      </g>
     </g>
    </g>
    <g id="xtick_3">
     <g id="line2d_3">
      <g>
       <use xlink:href="#m6ae4217abb" x="178.359955" y="318.04" style="stroke: #000000; stroke-width: 0.8"/>
      </g>
     </g>
     <g id="text_3">
      <!-- 100 -->
      <g transform="translate(168.816205 332.638438) scale(0.1 -0.1)">
       <defs>
        <path id="DejaVuSans-31" d="M 794 531 
L 1825 531 
L 1825 4091 
L 703 3866 
L 703 4441 
L 1819 4666 
L 2450 4666 
L 2450 531 
L 3481 531 
L 3481 0 
L 794 0 
L 794 531 
z
" transform="scale(0.015625)"/>
       </defs>
       <use xlink:href="#DejaVuSans-31"/>
       <use xlink:href="#DejaVuSans-30" x="63.623047"/>
       <use xlink:href="#DejaVuSans-30" x="127.246094"/>
      </g>
     </g>
    </g>
    <g id="xtick_4">
     <g id="line2d_4">
      <g>
       <use xlink:href="#m6ae4217abb" x="234.368943" y="318.04" style="stroke: #000000; stroke-width: 0.8"/>
      </g>
     </g>
     <g id="text_4">
      <!-- 150 -->
      <g transform="translate(224.825193 332.638438) scale(0.1 -0.1)">
       <use xlink:href="#DejaVuSans-31"/>
       <use xlink:href="#DejaVuSans-35" x="63.623047"/>
       <use xlink:href="#DejaVuSans-30" x="127.246094"/>
      </g>
     </g>
    </g>
    <g id="xtick_5">
     <g id="line2d_5">
      <g>
       <use xlink:href="#m6ae4217abb" x="290.377932" y="318.04" style="stroke: #000000; stroke-width: 0.8"/>
      </g>
     </g>
     <g id="text_5">
      <!-- 200 -->
      <g transform="translate(280.834182 332.638438) scale(0.1 -0.1)">
       <defs>
        <path id="DejaVuSans-32" d="M 1228 531 
L 3431 531 
L 3431 0 
L 469 0 
L 469 531 
Q 828 903 1448 1529 
Q 2069 2156 2228 2338 
Q 2531 2678 2651 2914 
Q 2772 3150 2772 3378 
Q 2772 3750 2511 3984 
Q 2250 4219 1831 4219 
Q 1534 4219 1204 4116 
Q 875 4013 500 3803 
L 500 4441 
Q 881 4594 1212 4672 
Q 1544 4750 1819 4750 
Q 2544 4750 2975 4387 
Q 3406 4025 3406 3419 
Q 3406 3131 3298 2873 
Q 3191 2616 2906 2266 
Q 2828 2175 2409 1742 
Q 1991 1309 1228 531 
z
" transform="scale(0.015625)"/>
       </defs>
       <use xlink:href="#DejaVuSans-32"/>
       <use xlink:href="#DejaVuSans-30" x="63.623047"/>
       <use xlink:href="#DejaVuSans-30" x="127.246094"/>
      </g>
     </g>
    </g>
    <g id="xtick_6">
     <g id="line2d_6">
      <g>
       <use xlink:href="#m6ae4217abb" x="346.386921" y="318.04" style="stroke: #000000; stroke-width: 0.8"/>
      </g>
     </g>
     <g id="text_6">
      <!-- 250 -->
      <g transform="translate(336.843171 332.638438) scale(0.1 -0.1)">
       <use xlink:href="#DejaVuSans-32"/>
       <use xlink:href="#DejaVuSans-35" x="63.623047"/>
       <use xlink:href="#DejaVuSans-30" x="127.246094"/>
      </g>
     </g>
    </g>
    <g id="text_7">
     <!-- Epochs -->
     <g transform="translate(183.968105 346.316563) scale(0.1 -0.1)">
      <defs>
       <path id="DejaVuSans-45" d="M 628 4666 
L 3578 4666 
L 3578 4134 
L 1259 4134 
L 1259 2753 
L 3481 2753 
L 3481 2222 
L 1259 2222 
L 1259 531 
L 3634 531 
L 3634 0 
L 628 0 
L 628 4666 
z
" transform="scale(0.015625)"/>
       <path id="DejaVuSans-70" d="M 1159 525 
L 1159 -1331 
L 581 -1331 
L 581 3500 
L 1159 3500 
L 1159 2969 
Q 1341 3281 1617 3432 
Q 1894 3584 2278 3584 
Q 2916 3584 3314 3078 
Q 3713 2572 3713 1747 
Q 3713 922 3314 415 
Q 2916 -91 2278 -91 
Q 1894 -91 1617 61 
Q 1341 213 1159 525 
z
M 3116 1747 
Q 3116 2381 2855 2742 
Q 2594 3103 2138 3103 
Q 1681 3103 1420 2742 
Q 1159 2381 1159 1747 
Q 1159 1113 1420 752 
Q 1681 391 2138 391 
Q 2594 391 2855 752 
Q 3116 1113 3116 1747 
z
" transform="scale(0.015625)"/>
       <path id="DejaVuSans-6f" d="M 1959 3097 
Q 1497 3097 1228 2736 
Q 959 2375 959 1747 
Q 959 1119 1226 758 
Q 1494 397 1959 397 
Q 2419 397 2687 759 
Q 2956 1122 2956 1747 
Q 2956 2369 2687 2733 
Q 2419 3097 1959 3097 
z
M 1959 3584 
Q 2709 3584 3137 3096 
Q 3566 2609 3566 1747 
Q 3566 888 3137 398 
Q 2709 -91 1959 -91 
Q 1206 -91 779 398 
Q 353 888 353 1747 
Q 353 2609 779 3096 
Q 1206 3584 1959 3584 
z
" transform="scale(0.015625)"/>
       <path id="DejaVuSans-63" d="M 3122 3366 
L 3122 2828 
Q 2878 2963 2633 3030 
Q 2388 3097 2138 3097 
Q 1578 3097 1268 2742 
Q 959 2388 959 1747 
Q 959 1106 1268 751 
Q 1578 397 2138 397 
Q 2388 397 2633 464 
Q 2878 531 3122 666 
L 3122 134 
Q 2881 22 2623 -34 
Q 2366 -91 2075 -91 
Q 1284 -91 818 406 
Q 353 903 353 1747 
Q 353 2603 823 3093 
Q 1294 3584 2113 3584 
Q 2378 3584 2631 3529 
Q 2884 3475 3122 3366 
z
" transform="scale(0.015625)"/>
       <path id="DejaVuSans-68" d="M 3513 2113 
L 3513 0 
L 2938 0 
L 2938 2094 
Q 2938 2591 2744 2837 
Q 2550 3084 2163 3084 
Q 1697 3084 1428 2787 
Q 1159 2491 1159 1978 
L 1159 0 
L 581 0 
L 581 4863 
L 1159 4863 
L 1159 2956 
Q 1366 3272 1645 3428 
Q 1925 3584 2291 3584 
Q 2894 3584 3203 3211 
Q 3513 2838 3513 2113 
z
" transform="scale(0.015625)"/>
       <path id="DejaVuSans-73" d="M 2834 3397 
L 2834 2853 
Q 2591 2978 2328 3040 
Q 2066 3103 1784 3103 
Q 1356 3103 1142 2972 
Q 928 2841 928 2578 
Q 928 2378 1081 2264 
Q 1234 2150 1697 2047 
L 1894 2003 
Q 2506 1872 2764 1633 
Q 3022 1394 3022 966 
Q 3022 478 2636 193 
Q 2250 -91 1575 -91 
Q 1294 -91 989 -36 
Q 684 19 347 128 
L 347 722 
Q 666 556 975 473 
Q 1284 391 1588 391 
Q 1994 391 2212 530 
Q 2431 669 2431 922 
Q 2431 1156 2273 1281 
Q 2116 1406 1581 1522 
L 1381 1569 
Q 847 1681 609 1914 
Q 372 2147 372 2553 
Q 372 3047 722 3315 
Q 1072 3584 1716 3584 
Q 2034 3584 2315 3537 
Q 2597 3491 2834 3397 
z
" transform="scale(0.015625)"/>
      </defs>
      <use xlink:href="#DejaVuSans-45"/>
      <use xlink:href="#DejaVuSans-70" x="63.183594"/>
      <use xlink:href="#DejaVuSans-6f" x="126.660156"/>
      <use xlink:href="#DejaVuSans-63" x="187.841797"/>
      <use xlink:href="#DejaVuSans-68" x="242.822266"/>
      <use xlink:href="#DejaVuSans-73" x="306.201172"/>
     </g>
    </g>
   </g>
   <g id="matplotlib.axis_2">
    <g id="ytick_1">
     <g id="line2d_7">
      <defs>
       <path id="m8f5f7ea05f" d="M 0 0 
L -3.5 0 
" style="stroke: #000000; stroke-width: 0.8"/>
      </defs>
      <g>
       <use xlink:href="#m8f5f7ea05f" x="54.02" y="317.920058" style="stroke: #000000; stroke-width: 0.8"/>
      </g>
     </g>
     <g id="text_8">
      <!-- 0.30 -->
      <g transform="translate(24.754375 321.719277) scale(0.1 -0.1)">
       <defs>
        <path id="DejaVuSans-2e" d="M 684 794 
L 1344 794 
L 1344 0 
L 684 0 
L 684 794 
z
" transform="scale(0.015625)"/>
        <path id="DejaVuSans-33" d="M 2597 2516 
Q 3050 2419 3304 2112 
Q 3559 1806 3559 1356 
Q 3559 666 3084 287 
Q 2609 -91 1734 -91 
Q 1441 -91 1130 -33 
Q 819 25 488 141 
L 488 750 
Q 750 597 1062 519 
Q 1375 441 1716 441 
Q 2309 441 2620 675 
Q 2931 909 2931 1356 
Q 2931 1769 2642 2001 
Q 2353 2234 1838 2234 
L 1294 2234 
L 1294 2753 
L 1863 2753 
Q 2328 2753 2575 2939 
Q 2822 3125 2822 3475 
Q 2822 3834 2567 4026 
Q 2313 4219 1838 4219 
Q 1578 4219 1281 4162 
Q 984 4106 628 3988 
L 628 4550 
Q 988 4650 1302 4700 
Q 1616 4750 1894 4750 
Q 2613 4750 3031 4423 
Q 3450 4097 3450 3541 
Q 3450 3153 3228 2886 
Q 3006 2619 2597 2516 
z
" transform="scale(0.015625)"/>
       </defs>
       <use xlink:href="#DejaVuSans-30"/>
       <use xlink:href="#DejaVuSans-2e" x="63.623047"/>
       <use xlink:href="#DejaVuSans-33" x="95.410156"/>
       <use xlink:href="#DejaVuSans-30" x="159.033203"/>
      </g>
     </g>
    </g>
    <g id="ytick_2">
     <g id="line2d_8">
      <g>
       <use xlink:href="#m8f5f7ea05f" x="54.02" y="272.617155" style="stroke: #000000; stroke-width: 0.8"/>
      </g>
     </g>
     <g id="text_9">
      <!-- 0.35 -->
      <g transform="translate(24.754375 276.416374) scale(0.1 -0.1)">
       <use xlink:href="#DejaVuSans-30"/>
       <use xlink:href="#DejaVuSans-2e" x="63.623047"/>
       <use xlink:href="#DejaVuSans-33" x="95.410156"/>
       <use xlink:href="#DejaVuSans-35" x="159.033203"/>
      </g>
     </g>
    </g>
    <g id="ytick_3">
     <g id="line2d_9">
      <g>
       <use xlink:href="#m8f5f7ea05f" x="54.02" y="227.314253" style="stroke: #000000; stroke-width: 0.8"/>
      </g>
     </g>
     <g id="text_10">
      <!-- 0.40 -->
      <g transform="translate(24.754375 231.113471) scale(0.1 -0.1)">
       <defs>
        <path id="DejaVuSans-34" d="M 2419 4116 
L 825 1625 
L 2419 1625 
L 2419 4116 
z
M 2253 4666 
L 3047 4666 
L 3047 1625 
L 3713 1625 
L 3713 1100 
L 3047 1100 
L 3047 0 
L 2419 0 
L 2419 1100 
L 313 1100 
L 313 1709 
L 2253 4666 
z
" transform="scale(0.015625)"/>
       </defs>
       <use xlink:href="#DejaVuSans-30"/>
       <use xlink:href="#DejaVuSans-2e" x="63.623047"/>
       <use xlink:href="#DejaVuSans-34" x="95.410156"/>
       <use xlink:href="#DejaVuSans-30" x="159.033203"/>
      </g>
     </g>
    </g>
    <g id="ytick_4">
     <g id="line2d_10">
      <g>
       <use xlink:href="#m8f5f7ea05f" x="54.02" y="182.01135" style="stroke: #000000; stroke-width: 0.8"/>
      </g>
     </g>
     <g id="text_11">
      <!-- 0.45 -->
      <g transform="translate(24.754375 185.810569) scale(0.1 -0.1)">
       <use xlink:href="#DejaVuSans-30"/>
       <use xlink:href="#DejaVuSans-2e" x="63.623047"/>
       <use xlink:href="#DejaVuSans-34" x="95.410156"/>
       <use xlink:href="#DejaVuSans-35" x="159.033203"/>
      </g>
     </g>
    </g>
    <g id="ytick_5">
     <g id="line2d_11">
      <g>
       <use xlink:href="#m8f5f7ea05f" x="54.02" y="136.708447" style="stroke: #000000; stroke-width: 0.8"/>
      </g>
     </g>
     <g id="text_12">
      <!-- 0.50 -->
      <g transform="translate(24.754375 140.507666) scale(0.1 -0.1)">
       <use xlink:href="#DejaVuSans-30"/>
       <use xlink:href="#DejaVuSans-2e" x="63.623047"/>
       <use xlink:href="#DejaVuSans-35" x="95.410156"/>
       <use xlink:href="#DejaVuSans-30" x="159.033203"/>
      </g>
     </g>
    </g>
    <g id="ytick_6">
     <g id="line2d_12">
      <g>
       <use xlink:href="#m8f5f7ea05f" x="54.02" y="91.405544" style="stroke: #000000; stroke-width: 0.8"/>
      </g>
     </g>
     <g id="text_13">
      <!-- 0.55 -->
      <g transform="translate(24.754375 95.204763) scale(0.1 -0.1)">
       <use xlink:href="#DejaVuSans-30"/>
       <use xlink:href="#DejaVuSans-2e" x="63.623047"/>
       <use xlink:href="#DejaVuSans-35" x="95.410156"/>
       <use xlink:href="#DejaVuSans-35" x="159.033203"/>
      </g>
     </g>
    </g>
    <g id="ytick_7">
     <g id="line2d_13">
      <g>
       <use xlink:href="#m8f5f7ea05f" x="54.02" y="46.102641" style="stroke: #000000; stroke-width: 0.8"/>
      </g>
     </g>
     <g id="text_14">
      <!-- 0.60 -->
      <g transform="translate(24.754375 49.90186) scale(0.1 -0.1)">
       <defs>
        <path id="DejaVuSans-36" d="M 2113 2584 
Q 1688 2584 1439 2293 
Q 1191 2003 1191 1497 
Q 1191 994 1439 701 
Q 1688 409 2113 409 
Q 2538 409 2786 701 
Q 3034 994 3034 1497 
Q 3034 2003 2786 2293 
Q 2538 2584 2113 2584 
z
M 3366 4563 
L 3366 3988 
Q 3128 4100 2886 4159 
Q 2644 4219 2406 4219 
Q 1781 4219 1451 3797 
Q 1122 3375 1075 2522 
Q 1259 2794 1537 2939 
Q 1816 3084 2150 3084 
Q 2853 3084 3261 2657 
Q 3669 2231 3669 1497 
Q 3669 778 3244 343 
Q 2819 -91 2113 -91 
Q 1303 -91 875 529 
Q 447 1150 447 2328 
Q 447 3434 972 4092 
Q 1497 4750 2381 4750 
Q 2619 4750 2861 4703 
Q 3103 4656 3366 4563 
z
" transform="scale(0.015625)"/>
       </defs>
       <use xlink:href="#DejaVuSans-30"/>
       <use xlink:href="#DejaVuSans-2e" x="63.623047"/>
       <use xlink:href="#DejaVuSans-36" x="95.410156"/>
       <use xlink:href="#DejaVuSans-30" x="159.033203"/>
      </g>
     </g>
    </g>
    <g id="text_15">
     <!-- Loss -->
     <g transform="translate(18.674688 183.427188) rotate(-90) scale(0.1 -0.1)">
      <defs>
       <path id="DejaVuSans-4c" d="M 628 4666 
L 1259 4666 
L 1259 531 
L 3531 531 
L 3531 0 
L 628 0 
L 628 4666 
z
" transform="scale(0.015625)"/>
      </defs>
      <use xlink:href="#DejaVuSans-4c"/>
      <use xlink:href="#DejaVuSans-6f" x="53.962891"/>
      <use xlink:href="#DejaVuSans-73" x="115.144531"/>
      <use xlink:href="#DejaVuSans-73" x="167.244141"/>
     </g>
    </g>
   </g>
   <g id="line2d_14">
    <path d="M 67.462157 153.023591 
L 68.582337 257.850639 
L 69.702517 267.209005 
L 70.822697 273.086522 
L 71.942876 274.91223 
L 73.063056 281.203058 
L 74.183236 280.928262 
L 76.423595 287.347526 
L 77.543775 287.805418 
L 78.663955 289.447096 
L 79.784135 287.178296 
L 80.904315 290.263309 
L 82.024494 291.026151 
L 83.144674 293.148603 
L 84.264854 293.860365 
L 85.385034 292.805481 
L 86.505213 293.882909 
L 87.625393 295.329226 
L 88.745573 295.112689 
L 89.865753 294.247281 
L 90.985932 295.179587 
L 92.106112 295.712949 
L 93.226292 296.751571 
L 94.346472 295.856169 
L 95.466652 294.299657 
L 96.586831 296.536143 
L 97.707011 296.550175 
L 98.827191 297.42899 
L 99.947371 297.527948 
L 101.06755 296.717367 
L 102.18773 296.862222 
L 103.30791 297.996999 
L 104.42809 300.025575 
L 105.54827 296.927162 
L 106.668449 298.555855 
L 107.788629 298.439718 
L 108.908809 299.733423 
L 110.028989 298.012594 
L 111.149168 297.538955 
L 112.269348 299.661397 
L 113.389528 300.40262 
L 114.509708 300.288956 
L 115.629887 298.425424 
L 116.750067 299.291777 
L 117.870247 299.140014 
L 118.990427 299.720359 
L 120.110607 300.077253 
L 121.230786 299.819169 
L 122.350966 299.886354 
L 123.471146 299.76643 
L 124.591326 300.400146 
L 125.711505 301.706995 
L 126.831685 300.941439 
L 127.951865 300.365401 
L 129.072045 300.987977 
L 130.192225 302.205059 
L 131.312404 301.502413 
L 132.432584 301.189761 
L 133.552764 301.646189 
L 134.672944 301.332754 
L 135.793123 301.734906 
L 136.913303 299.927236 
L 138.033483 301.773802 
L 139.153663 300.72256 
L 141.394022 302.147043 
L 142.514202 301.710221 
L 144.754562 301.831574 
L 145.874741 301.637462 
L 146.994921 301.846796 
L 148.115101 301.677302 
L 149.235281 302.172447 
L 150.35546 302.17189 
L 151.47564 301.076217 
L 152.59582 302.09751 
L 154.83618 303.714035 
L 155.956359 302.677755 
L 157.076539 301.210753 
L 158.196719 302.175753 
L 159.316899 302.682653 
L 160.437078 302.952717 
L 161.557258 302.937209 
L 162.677438 302.623584 
L 163.797618 302.486512 
L 164.917797 303.619248 
L 166.037977 303.242389 
L 167.158157 303.281055 
L 168.278337 301.590512 
L 169.398517 303.429192 
L 171.638876 302.269368 
L 172.759056 303.358704 
L 173.879236 303.22832 
L 174.999415 303.25391 
L 176.119595 302.53638 
L 177.239775 303.528461 
L 178.359955 303.205745 
L 179.480135 304.145121 
L 180.600314 303.504173 
L 181.720494 303.284894 
L 182.840674 304.321054 
L 183.960854 303.623981 
L 185.081033 303.704137 
L 186.201213 303.364892 
L 187.321393 303.604986 
L 188.441573 303.577663 
L 189.561752 303.096265 
L 190.681932 302.777279 
L 191.802112 302.966595 
L 192.922292 303.654505 
L 194.042472 303.846722 
L 197.403011 303.77363 
L 198.523191 302.929709 
L 199.64337 304.181786 
L 201.88373 303.808554 
L 203.00391 304.110338 
L 204.124089 304.18974 
L 205.244269 303.311456 
L 206.364449 303.285442 
L 207.484629 303.462595 
L 208.604809 303.847775 
L 210.845168 304.406777 
L 214.205707 303.603274 
L 215.325887 303.988166 
L 216.446067 304.122246 
L 217.566247 303.928524 
L 218.686427 304.024614 
L 219.806606 303.93141 
L 220.926786 304.309877 
L 223.167146 304.118015 
L 224.287325 303.753259 
L 225.407505 304.100032 
L 226.527685 304.048409 
L 228.768044 304.347819 
L 229.888224 303.752433 
L 231.008404 304.344679 
L 232.128584 304.315656 
L 233.248764 304.116266 
L 234.368943 304.140157 
L 235.489123 304.307228 
L 236.609303 304.146859 
L 237.729483 304.302791 
L 238.849662 303.877833 
L 239.969842 304.550686 
L 241.090022 304.076255 
L 242.210202 304.383366 
L 243.330382 304.125809 
L 245.570741 304.805455 
L 246.690921 304.234287 
L 248.93128 304.659779 
L 250.05146 304.330981 
L 251.17164 304.359831 
L 252.29182 303.815705 
L 253.411999 304.44372 
L 254.532179 303.84647 
L 255.652359 303.915962 
L 256.772539 304.483362 
L 259.012898 304.237165 
L 261.253258 304.051064 
L 263.493617 304.596414 
L 265.733977 304.179352 
L 266.854157 304.428264 
L 267.974337 304.274961 
L 269.094516 303.835485 
L 270.214696 304.010366 
L 271.334876 304.585816 
L 272.455056 304.096677 
L 276.935775 304.233799 
L 278.055954 304.10288 
L 279.176134 304.19041 
L 280.296314 304.5024 
L 282.536674 304.368605 
L 285.897213 304.403964 
L 287.017393 304.0832 
L 288.137572 304.636198 
L 289.257752 304.331395 
L 290.377932 304.15203 
L 291.498112 304.447732 
L 292.618292 304.121016 
L 293.738471 304.665889 
L 294.858651 304.116894 
L 295.978831 304.331006 
L 297.099011 303.883231 
L 298.21919 304.455416 
L 299.33937 304.731902 
L 300.45955 304.338978 
L 302.699909 304.630406 
L 303.820089 304.214515 
L 306.060449 304.44358 
L 307.180629 304.409227 
L 308.300808 304.567626 
L 310.541168 304.344089 
L 311.661348 303.973077 
L 312.781527 304.536721 
L 313.901707 304.377313 
L 315.021887 304.409281 
L 316.142067 304.116728 
L 317.262246 304.636616 
L 318.382426 304.247382 
L 320.622786 304.279957 
L 321.742966 304.247499 
L 322.863145 304.53989 
L 323.983325 304.409864 
L 325.103505 304.539721 
L 326.223685 304.213059 
L 328.464044 304.636928 
L 331.824584 304.376605 
L 334.064943 304.37737 
L 335.185123 304.637129 
L 336.305303 304.279966 
L 336.305303 304.279966 
" clip-path="url(#p9b0f795d82)" style="fill: none; stroke: #1f77b4; stroke-width: 1.5; stroke-linecap: square"/>
   </g>
   <g id="line2d_15">
    <path d="M 67.462157 185.075447 
L 69.702517 221.563942 
L 70.822697 218.365871 
L 71.942876 246.541744 
L 73.063056 40.970549 
L 74.183236 198.898569 
L 75.303416 229.333995 
L 76.423595 245.651963 
L 77.543775 251.196223 
L 78.663955 242.276109 
L 79.784135 241.273494 
L 80.904315 245.998387 
L 82.024494 40.114545 
L 83.144674 240.271916 
L 84.264854 251.933967 
L 85.385034 235.316087 
L 86.505213 241.928338 
L 87.625393 102.109754 
L 88.745573 241.819879 
L 89.865753 235.601099 
L 90.985932 253.053793 
L 92.106112 242.016142 
L 93.226292 219.110309 
L 94.346472 229.726361 
L 95.466652 245.389071 
L 96.586831 251.137025 
L 97.707011 255.567103 
L 98.827191 247.773326 
L 99.947371 249.249692 
L 101.06755 241.137758 
L 102.18773 246.496113 
L 103.30791 247.750973 
L 104.42809 249.582914 
L 105.54827 253.353613 
L 106.668449 251.622306 
L 107.788629 253.916717 
L 108.908809 249.368053 
L 110.028989 250.332748 
L 112.269348 244.898039 
L 114.509708 258.152553 
L 115.629887 246.400651 
L 116.750067 232.443542 
L 117.870247 235.766983 
L 118.990427 233.661766 
L 120.110607 257.225676 
L 121.230786 254.759419 
L 122.350966 115.310512 
L 123.471146 240.940152 
L 124.591326 243.237553 
L 125.711505 258.859417 
L 126.831685 258.717658 
L 127.951865 245.835167 
L 129.072045 250.499941 
L 130.192225 245.218786 
L 131.312404 245.305282 
L 132.432584 248.847878 
L 133.552764 255.786078 
L 134.672944 251.845019 
L 135.793123 258.59339 
L 136.913303 243.305532 
L 138.033483 171.176815 
L 139.153663 245.462976 
L 140.273842 247.288847 
L 141.394022 249.486564 
L 142.514202 161.258192 
L 143.634382 250.542264 
L 144.754562 146.42942 
L 145.874741 253.799481 
L 146.994921 247.861966 
L 148.115101 248.544611 
L 149.235281 240.012586 
L 150.35546 239.911825 
L 151.47564 146.081221 
L 152.59582 244.34616 
L 153.716 246.244259 
L 154.83618 255.564502 
L 155.956359 252.931253 
L 157.076539 246.432143 
L 158.196719 251.075023 
L 159.316899 186.093776 
L 160.437078 251.097372 
L 161.557258 247.213626 
L 162.677438 237.38521 
L 163.797618 247.295766 
L 164.917797 252.690499 
L 166.037977 252.793387 
L 167.158157 253.806356 
L 168.278337 252.035383 
L 169.398517 248.385852 
L 170.518696 254.161899 
L 171.638876 110.405848 
L 172.759056 246.074374 
L 173.879236 249.571647 
L 174.999415 253.437138 
L 177.239775 247.863641 
L 178.359955 241.255502 
L 179.480135 255.778382 
L 180.600314 248.097584 
L 181.720494 247.034515 
L 182.840674 256.540973 
L 183.960854 258.526603 
L 185.081033 165.509586 
L 186.201213 242.293512 
L 187.321393 255.716857 
L 188.441573 241.8717 
L 189.561752 244.600647 
L 190.681932 251.055091 
L 191.802112 114.49037 
L 192.922292 241.082315 
L 194.042472 249.984823 
L 195.162651 252.764578 
L 196.282831 255.059795 
L 197.403011 252.235008 
L 198.523191 237.426273 
L 199.64337 249.028833 
L 200.76355 247.643991 
L 201.88373 252.638587 
L 203.00391 247.928337 
L 204.124089 250.209059 
L 205.244269 248.173709 
L 206.364449 254.249928 
L 207.484629 251.763718 
L 208.604809 243.242224 
L 209.724988 243.993568 
L 210.845168 253.592352 
L 213.085528 250.137545 
L 214.205707 258.360382 
L 215.325887 248.877608 
L 216.446067 249.995283 
L 217.566247 254.148413 
L 218.686427 242.788426 
L 219.806606 255.537186 
L 220.926786 255.045956 
L 222.046966 256.435405 
L 223.167146 255.662612 
L 224.287325 260.458436 
L 225.407505 257.356884 
L 226.527685 189.463598 
L 227.647865 256.625952 
L 228.768044 256.099001 
L 229.888224 258.373503 
L 231.008404 258.392691 
L 232.128584 257.433127 
L 233.248764 252.280678 
L 234.368943 254.096396 
L 235.489123 76.935253 
L 236.609303 249.90633 
L 237.729483 252.163378 
L 238.849662 251.693137 
L 239.969842 255.350737 
L 241.090022 255.85652 
L 242.210202 114.326759 
L 243.330382 254.998723 
L 244.450561 256.029593 
L 245.570741 249.898866 
L 246.690921 254.331401 
L 247.811101 255.66131 
L 248.93128 253.703774 
L 250.05146 249.405779 
L 251.17164 254.114216 
L 252.29182 249.379671 
L 253.411999 251.562145 
L 254.532179 249.386136 
L 255.652359 247.71874 
L 256.772539 252.968274 
L 261.253258 254.570937 
L 262.373438 254.776822 
L 263.493617 249.230361 
L 264.613797 255.498793 
L 265.733977 256.038343 
L 266.854157 252.905328 
L 267.974337 253.407123 
L 269.094516 245.188579 
L 270.214696 251.676432 
L 271.334876 249.825963 
L 272.455056 225.59726 
L 273.575235 255.356895 
L 274.695415 245.448162 
L 275.815595 256.549411 
L 276.935775 181.622701 
L 278.055954 255.149924 
L 279.176134 245.493555 
L 280.296314 253.122831 
L 281.416494 252.582996 
L 282.536674 253.568507 
L 283.656853 253.796525 
L 284.777033 253.628279 
L 285.897213 255.378672 
L 287.017393 233.701343 
L 288.137572 255.666618 
L 289.257752 248.18972 
L 290.377932 236.424807 
L 291.498112 252.506026 
L 292.618292 253.548668 
L 293.738471 254.840248 
L 294.858651 254.747327 
L 295.978831 255.175812 
L 297.099011 183.452746 
L 298.21919 224.737417 
L 299.33937 256.029856 
L 300.45955 255.120984 
L 301.57973 256.060912 
L 302.699909 255.814271 
L 304.940269 255.74849 
L 306.060449 251.675291 
L 307.180629 253.968399 
L 308.300808 251.745831 
L 309.420988 253.421509 
L 311.661348 253.49191 
L 312.781527 254.025288 
L 313.901707 254.081545 
L 315.021887 253.684466 
L 317.262246 254.05086 
L 318.382426 253.891102 
L 319.502606 254.403193 
L 320.622786 254.296742 
L 321.742966 253.875354 
L 322.863145 255.018416 
L 323.983325 254.144863 
L 325.103505 254.032445 
L 326.223685 253.718976 
L 327.343864 253.986348 
L 328.464044 207.923329 
L 329.584224 254.223288 
L 330.704404 254.141581 
L 331.824584 253.909254 
L 332.944763 254.098986 
L 334.064943 253.530235 
L 335.185123 253.623626 
L 336.305303 253.994939 
L 336.305303 253.994939 
" clip-path="url(#p9b0f795d82)" style="fill: none; stroke: #ff7f0e; stroke-width: 1.5; stroke-linecap: square"/>
   </g>
   <g id="patch_3">
    <path d="M 54.02 318.04 
L 54.02 26.88 
" style="fill: none; stroke: #000000; stroke-width: 0.8; stroke-linejoin: miter; stroke-linecap: square"/>
   </g>
   <g id="patch_4">
    <path d="M 349.74746 318.04 
L 349.74746 26.88 
" style="fill: none; stroke: #000000; stroke-width: 0.8; stroke-linejoin: miter; stroke-linecap: square"/>
   </g>
   <g id="patch_5">
    <path d="M 54.02 318.04 
L 349.74746 318.04 
" style="fill: none; stroke: #000000; stroke-width: 0.8; stroke-linejoin: miter; stroke-linecap: square"/>
   </g>
   <g id="patch_6">
    <path d="M 54.02 26.88 
L 349.74746 26.88 
" style="fill: none; stroke: #000000; stroke-width: 0.8; stroke-linejoin: miter; stroke-linecap: square"/>
   </g>
   <g id="text_16">
    <!-- Loss -->
    <g transform="translate(188.723105 20.88) scale(0.12 -0.12)">
     <use xlink:href="#DejaVuSans-4c"/>
     <use xlink:href="#DejaVuSans-6f" x="53.962891"/>
     <use xlink:href="#DejaVuSans-73" x="115.144531"/>
     <use xlink:href="#DejaVuSans-73" x="167.244141"/>
    </g>
   </g>
   <g id="legend_1">
    <g id="patch_7">
     <path d="M 261.64746 64.23625 
L 342.74746 64.23625 
Q 344.74746 64.23625 344.74746 62.23625 
L 344.74746 33.88 
Q 344.74746 31.88 342.74746 31.88 
L 261.64746 31.88 
Q 259.64746 31.88 259.64746 33.88 
L 259.64746 62.23625 
Q 259.64746 64.23625 261.64746 64.23625 
z
" style="fill: #ffffff; opacity: 0.8; stroke: #cccccc; stroke-linejoin: miter"/>
    </g>
    <g id="line2d_16">
     <path d="M 263.64746 39.978437 
L 273.64746 39.978437 
L 283.64746 39.978437 
" style="fill: none; stroke: #1f77b4; stroke-width: 1.5; stroke-linecap: square"/>
    </g>
    <g id="text_17">
     <!-- Train Loss -->
     <g transform="translate(291.64746 43.478437) scale(0.1 -0.1)">
      <defs>
       <path id="DejaVuSans-54" d="M -19 4666 
L 3928 4666 
L 3928 4134 
L 2272 4134 
L 2272 0 
L 1638 0 
L 1638 4134 
L -19 4134 
L -19 4666 
z
" transform="scale(0.015625)"/>
       <path id="DejaVuSans-72" d="M 2631 2963 
Q 2534 3019 2420 3045 
Q 2306 3072 2169 3072 
Q 1681 3072 1420 2755 
Q 1159 2438 1159 1844 
L 1159 0 
L 581 0 
L 581 3500 
L 1159 3500 
L 1159 2956 
Q 1341 3275 1631 3429 
Q 1922 3584 2338 3584 
Q 2397 3584 2469 3576 
Q 2541 3569 2628 3553 
L 2631 2963 
z
" transform="scale(0.015625)"/>
       <path id="DejaVuSans-61" d="M 2194 1759 
Q 1497 1759 1228 1600 
Q 959 1441 959 1056 
Q 959 750 1161 570 
Q 1363 391 1709 391 
Q 2188 391 2477 730 
Q 2766 1069 2766 1631 
L 2766 1759 
L 2194 1759 
z
M 3341 1997 
L 3341 0 
L 2766 0 
L 2766 531 
Q 2569 213 2275 61 
Q 1981 -91 1556 -91 
Q 1019 -91 701 211 
Q 384 513 384 1019 
Q 384 1609 779 1909 
Q 1175 2209 1959 2209 
L 2766 2209 
L 2766 2266 
Q 2766 2663 2505 2880 
Q 2244 3097 1772 3097 
Q 1472 3097 1187 3025 
Q 903 2953 641 2809 
L 641 3341 
Q 956 3463 1253 3523 
Q 1550 3584 1831 3584 
Q 2591 3584 2966 3190 
Q 3341 2797 3341 1997 
z
" transform="scale(0.015625)"/>
       <path id="DejaVuSans-69" d="M 603 3500 
L 1178 3500 
L 1178 0 
L 603 0 
L 603 3500 
z
M 603 4863 
L 1178 4863 
L 1178 4134 
L 603 4134 
L 603 4863 
z
" transform="scale(0.015625)"/>
       <path id="DejaVuSans-6e" d="M 3513 2113 
L 3513 0 
L 2938 0 
L 2938 2094 
Q 2938 2591 2744 2837 
Q 2550 3084 2163 3084 
Q 1697 3084 1428 2787 
Q 1159 2491 1159 1978 
L 1159 0 
L 581 0 
L 581 3500 
L 1159 3500 
L 1159 2956 
Q 1366 3272 1645 3428 
Q 1925 3584 2291 3584 
Q 2894 3584 3203 3211 
Q 3513 2838 3513 2113 
z
" transform="scale(0.015625)"/>
       <path id="DejaVuSans-20" transform="scale(0.015625)"/>
      </defs>
      <use xlink:href="#DejaVuSans-54"/>
      <use xlink:href="#DejaVuSans-72" x="46.333984"/>
      <use xlink:href="#DejaVuSans-61" x="87.447266"/>
      <use xlink:href="#DejaVuSans-69" x="148.726562"/>
      <use xlink:href="#DejaVuSans-6e" x="176.509766"/>
      <use xlink:href="#DejaVuSans-20" x="239.888672"/>
      <use xlink:href="#DejaVuSans-4c" x="271.675781"/>
      <use xlink:href="#DejaVuSans-6f" x="325.638672"/>
      <use xlink:href="#DejaVuSans-73" x="386.820312"/>
      <use xlink:href="#DejaVuSans-73" x="438.919922"/>
     </g>
    </g>
    <g id="line2d_17">
     <path d="M 263.64746 54.656563 
L 273.64746 54.656563 
L 283.64746 54.656563 
" style="fill: none; stroke: #ff7f0e; stroke-width: 1.5; stroke-linecap: square"/>
    </g>
    <g id="text_18">
     <!-- Val Loss -->
     <g transform="translate(291.64746 58.156563) scale(0.1 -0.1)">
      <defs>
       <path id="DejaVuSans-56" d="M 1831 0 
L 50 4666 
L 709 4666 
L 2188 738 
L 3669 4666 
L 4325 4666 
L 2547 0 
L 1831 0 
z
" transform="scale(0.015625)"/>
       <path id="DejaVuSans-6c" d="M 603 4863 
L 1178 4863 
L 1178 0 
L 603 0 
L 603 4863 
z
" transform="scale(0.015625)"/>
      </defs>
      <use xlink:href="#DejaVuSans-56"/>
      <use xlink:href="#DejaVuSans-61" x="60.658203"/>
      <use xlink:href="#DejaVuSans-6c" x="121.9375"/>
      <use xlink:href="#DejaVuSans-20" x="149.720703"/>
      <use xlink:href="#DejaVuSans-4c" x="181.507812"/>
      <use xlink:href="#DejaVuSans-6f" x="235.470703"/>
      <use xlink:href="#DejaVuSans-73" x="296.652344"/>
      <use xlink:href="#DejaVuSans-73" x="348.751953"/>
     </g>
    </g>
   </g>
  </g>
  <g id="axes_2">
   <g id="patch_8">
    <path d="M 410.42 318.04 
L 706.14746 318.04 
L 706.14746 26.88 
L 410.42 26.88 
z
" style="fill: #ffffff"/>
   </g>
   <g id="matplotlib.axis_3">
    <g id="xtick_7">
     <g id="line2d_18">
      <g>
       <use xlink:href="#m6ae4217abb" x="422.741977" y="318.04" style="stroke: #000000; stroke-width: 0.8"/>
      </g>
     </g>
     <g id="text_19">
      <!-- 0 -->
      <g transform="translate(419.560727 332.638438) scale(0.1 -0.1)">
       <use xlink:href="#DejaVuSans-30"/>
      </g>
     </g>
    </g>
    <g id="xtick_8">
     <g id="line2d_19">
      <g>
       <use xlink:href="#m6ae4217abb" x="478.750966" y="318.04" style="stroke: #000000; stroke-width: 0.8"/>
      </g>
     </g>
     <g id="text_20">
      <!-- 50 -->
      <g transform="translate(472.388466 332.638438) scale(0.1 -0.1)">
       <use xlink:href="#DejaVuSans-35"/>
       <use xlink:href="#DejaVuSans-30" x="63.623047"/>
      </g>
     </g>
    </g>
    <g id="xtick_9">
     <g id="line2d_20">
      <g>
       <use xlink:href="#m6ae4217abb" x="534.759955" y="318.04" style="stroke: #000000; stroke-width: 0.8"/>
      </g>
     </g>
     <g id="text_21">
      <!-- 100 -->
      <g transform="translate(525.216205 332.638438) scale(0.1 -0.1)">
       <use xlink:href="#DejaVuSans-31"/>
       <use xlink:href="#DejaVuSans-30" x="63.623047"/>
       <use xlink:href="#DejaVuSans-30" x="127.246094"/>
      </g>
     </g>
    </g>
    <g id="xtick_10">
     <g id="line2d_21">
      <g>
       <use xlink:href="#m6ae4217abb" x="590.768943" y="318.04" style="stroke: #000000; stroke-width: 0.8"/>
      </g>
     </g>
     <g id="text_22">
      <!-- 150 -->
      <g transform="translate(581.225193 332.638438) scale(0.1 -0.1)">
       <use xlink:href="#DejaVuSans-31"/>
       <use xlink:href="#DejaVuSans-35" x="63.623047"/>
       <use xlink:href="#DejaVuSans-30" x="127.246094"/>
      </g>
     </g>
    </g>
    <g id="xtick_11">
     <g id="line2d_22">
      <g>
       <use xlink:href="#m6ae4217abb" x="646.777932" y="318.04" style="stroke: #000000; stroke-width: 0.8"/>
      </g>
     </g>
     <g id="text_23">
      <!-- 200 -->
      <g transform="translate(637.234182 332.638438) scale(0.1 -0.1)">
       <use xlink:href="#DejaVuSans-32"/>
       <use xlink:href="#DejaVuSans-30" x="63.623047"/>
       <use xlink:href="#DejaVuSans-30" x="127.246094"/>
      </g>
     </g>
    </g>
    <g id="xtick_12">
     <g id="line2d_23">
      <g>
       <use xlink:href="#m6ae4217abb" x="702.786921" y="318.04" style="stroke: #000000; stroke-width: 0.8"/>
      </g>
     </g>
     <g id="text_24">
      <!-- 250 -->
      <g transform="translate(693.243171 332.638438) scale(0.1 -0.1)">
       <use xlink:href="#DejaVuSans-32"/>
       <use xlink:href="#DejaVuSans-35" x="63.623047"/>
       <use xlink:href="#DejaVuSans-30" x="127.246094"/>
      </g>
     </g>
    </g>
    <g id="text_25">
     <!-- Epochs -->
     <g transform="translate(540.368105 346.316563) scale(0.1 -0.1)">
      <use xlink:href="#DejaVuSans-45"/>
      <use xlink:href="#DejaVuSans-70" x="63.183594"/>
      <use xlink:href="#DejaVuSans-6f" x="126.660156"/>
      <use xlink:href="#DejaVuSans-63" x="187.841797"/>
      <use xlink:href="#DejaVuSans-68" x="242.822266"/>
      <use xlink:href="#DejaVuSans-73" x="306.201172"/>
     </g>
    </g>
   </g>
   <g id="matplotlib.axis_4">
    <g id="ytick_8">
     <g id="line2d_24">
      <g>
       <use xlink:href="#m8f5f7ea05f" x="410.42" y="302.956514" style="stroke: #000000; stroke-width: 0.8"/>
      </g>
     </g>
     <g id="text_26">
      <!-- 0.70 -->
      <g transform="translate(381.154375 306.755733) scale(0.1 -0.1)">
       <defs>
        <path id="DejaVuSans-37" d="M 525 4666 
L 3525 4666 
L 3525 4397 
L 1831 0 
L 1172 0 
L 2766 4134 
L 525 4134 
L 525 4666 
z
" transform="scale(0.015625)"/>
       </defs>
       <use xlink:href="#DejaVuSans-30"/>
       <use xlink:href="#DejaVuSans-2e" x="63.623047"/>
       <use xlink:href="#DejaVuSans-37" x="95.410156"/>
       <use xlink:href="#DejaVuSans-30" x="159.033203"/>
      </g>
     </g>
    </g>
    <g id="ytick_9">
     <g id="line2d_25">
      <g>
       <use xlink:href="#m8f5f7ea05f" x="410.42" y="258.976145" style="stroke: #000000; stroke-width: 0.8"/>
      </g>
     </g>
     <g id="text_27">
      <!-- 0.75 -->
      <g transform="translate(381.154375 262.775364) scale(0.1 -0.1)">
       <use xlink:href="#DejaVuSans-30"/>
       <use xlink:href="#DejaVuSans-2e" x="63.623047"/>
       <use xlink:href="#DejaVuSans-37" x="95.410156"/>
       <use xlink:href="#DejaVuSans-35" x="159.033203"/>
      </g>
     </g>
    </g>
    <g id="ytick_10">
     <g id="line2d_26">
      <g>
       <use xlink:href="#m8f5f7ea05f" x="410.42" y="214.995776" style="stroke: #000000; stroke-width: 0.8"/>
      </g>
     </g>
     <g id="text_28">
      <!-- 0.80 -->
      <g transform="translate(381.154375 218.794994) scale(0.1 -0.1)">
       <defs>
        <path id="DejaVuSans-38" d="M 2034 2216 
Q 1584 2216 1326 1975 
Q 1069 1734 1069 1313 
Q 1069 891 1326 650 
Q 1584 409 2034 409 
Q 2484 409 2743 651 
Q 3003 894 3003 1313 
Q 3003 1734 2745 1975 
Q 2488 2216 2034 2216 
z
M 1403 2484 
Q 997 2584 770 2862 
Q 544 3141 544 3541 
Q 544 4100 942 4425 
Q 1341 4750 2034 4750 
Q 2731 4750 3128 4425 
Q 3525 4100 3525 3541 
Q 3525 3141 3298 2862 
Q 3072 2584 2669 2484 
Q 3125 2378 3379 2068 
Q 3634 1759 3634 1313 
Q 3634 634 3220 271 
Q 2806 -91 2034 -91 
Q 1263 -91 848 271 
Q 434 634 434 1313 
Q 434 1759 690 2068 
Q 947 2378 1403 2484 
z
M 1172 3481 
Q 1172 3119 1398 2916 
Q 1625 2713 2034 2713 
Q 2441 2713 2670 2916 
Q 2900 3119 2900 3481 
Q 2900 3844 2670 4047 
Q 2441 4250 2034 4250 
Q 1625 4250 1398 4047 
Q 1172 3844 1172 3481 
z
" transform="scale(0.015625)"/>
       </defs>
       <use xlink:href="#DejaVuSans-30"/>
       <use xlink:href="#DejaVuSans-2e" x="63.623047"/>
       <use xlink:href="#DejaVuSans-38" x="95.410156"/>
       <use xlink:href="#DejaVuSans-30" x="159.033203"/>
      </g>
     </g>
    </g>
    <g id="ytick_11">
     <g id="line2d_27">
      <g>
       <use xlink:href="#m8f5f7ea05f" x="410.42" y="171.015407" style="stroke: #000000; stroke-width: 0.8"/>
      </g>
     </g>
     <g id="text_29">
      <!-- 0.85 -->
      <g transform="translate(381.154375 174.814625) scale(0.1 -0.1)">
       <use xlink:href="#DejaVuSans-30"/>
       <use xlink:href="#DejaVuSans-2e" x="63.623047"/>
       <use xlink:href="#DejaVuSans-38" x="95.410156"/>
       <use xlink:href="#DejaVuSans-35" x="159.033203"/>
      </g>
     </g>
    </g>
    <g id="ytick_12">
     <g id="line2d_28">
      <g>
       <use xlink:href="#m8f5f7ea05f" x="410.42" y="127.035037" style="stroke: #000000; stroke-width: 0.8"/>
      </g>
     </g>
     <g id="text_30">
      <!-- 0.90 -->
      <g transform="translate(381.154375 130.834256) scale(0.1 -0.1)">
       <defs>
        <path id="DejaVuSans-39" d="M 703 97 
L 703 672 
Q 941 559 1184 500 
Q 1428 441 1663 441 
Q 2288 441 2617 861 
Q 2947 1281 2994 2138 
Q 2813 1869 2534 1725 
Q 2256 1581 1919 1581 
Q 1219 1581 811 2004 
Q 403 2428 403 3163 
Q 403 3881 828 4315 
Q 1253 4750 1959 4750 
Q 2769 4750 3195 4129 
Q 3622 3509 3622 2328 
Q 3622 1225 3098 567 
Q 2575 -91 1691 -91 
Q 1453 -91 1209 -44 
Q 966 3 703 97 
z
M 1959 2075 
Q 2384 2075 2632 2365 
Q 2881 2656 2881 3163 
Q 2881 3666 2632 3958 
Q 2384 4250 1959 4250 
Q 1534 4250 1286 3958 
Q 1038 3666 1038 3163 
Q 1038 2656 1286 2365 
Q 1534 2075 1959 2075 
z
" transform="scale(0.015625)"/>
       </defs>
       <use xlink:href="#DejaVuSans-30"/>
       <use xlink:href="#DejaVuSans-2e" x="63.623047"/>
       <use xlink:href="#DejaVuSans-39" x="95.410156"/>
       <use xlink:href="#DejaVuSans-30" x="159.033203"/>
      </g>
     </g>
    </g>
    <g id="ytick_13">
     <g id="line2d_29">
      <g>
       <use xlink:href="#m8f5f7ea05f" x="410.42" y="83.054668" style="stroke: #000000; stroke-width: 0.8"/>
      </g>
     </g>
     <g id="text_31">
      <!-- 0.95 -->
      <g transform="translate(381.154375 86.853887) scale(0.1 -0.1)">
       <use xlink:href="#DejaVuSans-30"/>
       <use xlink:href="#DejaVuSans-2e" x="63.623047"/>
       <use xlink:href="#DejaVuSans-39" x="95.410156"/>
       <use xlink:href="#DejaVuSans-35" x="159.033203"/>
      </g>
     </g>
    </g>
    <g id="ytick_14">
     <g id="line2d_30">
      <g>
       <use xlink:href="#m8f5f7ea05f" x="410.42" y="39.074299" style="stroke: #000000; stroke-width: 0.8"/>
      </g>
     </g>
     <g id="text_32">
      <!-- 1.00 -->
      <g transform="translate(381.154375 42.873518) scale(0.1 -0.1)">
       <use xlink:href="#DejaVuSans-31"/>
       <use xlink:href="#DejaVuSans-2e" x="63.623047"/>
       <use xlink:href="#DejaVuSans-30" x="95.410156"/>
       <use xlink:href="#DejaVuSans-30" x="159.033203"/>
      </g>
     </g>
    </g>
    <g id="text_33">
     <!-- Accuracy -->
     <g transform="translate(375.074687 195.288125) rotate(-90) scale(0.1 -0.1)">
      <defs>
       <path id="DejaVuSans-41" d="M 2188 4044 
L 1331 1722 
L 3047 1722 
L 2188 4044 
z
M 1831 4666 
L 2547 4666 
L 4325 0 
L 3669 0 
L 3244 1197 
L 1141 1197 
L 716 0 
L 50 0 
L 1831 4666 
z
" transform="scale(0.015625)"/>
       <path id="DejaVuSans-75" d="M 544 1381 
L 544 3500 
L 1119 3500 
L 1119 1403 
Q 1119 906 1312 657 
Q 1506 409 1894 409 
Q 2359 409 2629 706 
Q 2900 1003 2900 1516 
L 2900 3500 
L 3475 3500 
L 3475 0 
L 2900 0 
L 2900 538 
Q 2691 219 2414 64 
Q 2138 -91 1772 -91 
Q 1169 -91 856 284 
Q 544 659 544 1381 
z
M 1991 3584 
L 1991 3584 
z
" transform="scale(0.015625)"/>
       <path id="DejaVuSans-79" d="M 2059 -325 
Q 1816 -950 1584 -1140 
Q 1353 -1331 966 -1331 
L 506 -1331 
L 506 -850 
L 844 -850 
Q 1081 -850 1212 -737 
Q 1344 -625 1503 -206 
L 1606 56 
L 191 3500 
L 800 3500 
L 1894 763 
L 2988 3500 
L 3597 3500 
L 2059 -325 
z
" transform="scale(0.015625)"/>
      </defs>
      <use xlink:href="#DejaVuSans-41"/>
      <use xlink:href="#DejaVuSans-63" x="66.658203"/>
      <use xlink:href="#DejaVuSans-63" x="121.638672"/>
      <use xlink:href="#DejaVuSans-75" x="176.619141"/>
      <use xlink:href="#DejaVuSans-72" x="239.998047"/>
      <use xlink:href="#DejaVuSans-61" x="281.111328"/>
      <use xlink:href="#DejaVuSans-63" x="342.390625"/>
      <use xlink:href="#DejaVuSans-79" x="397.371094"/>
     </g>
    </g>
   </g>
   <g id="line2d_31">
    <path d="M 423.862157 194.992955 
L 424.982337 86.298512 
L 426.102517 77.385904 
L 427.222697 71.617263 
L 428.342876 69.978087 
L 429.463056 63.642039 
L 430.583236 64.059575 
L 432.823595 57.266726 
L 433.943775 56.951499 
L 435.063955 55.312323 
L 436.184135 57.806482 
L 437.304315 54.725007 
L 438.424494 53.771585 
L 439.544674 51.91175 
L 440.664854 50.839981 
L 441.785034 52.447635 
L 442.905213 51.375866 
L 444.025393 49.382198 
L 445.145573 49.602856 
L 446.265753 50.903026 
L 447.385932 49.543682 
L 448.506112 49.196933 
L 449.626292 48.002945 
L 450.746472 48.818662 
L 451.866652 50.643103 
L 452.986831 48.255126 
L 454.107011 48.255126 
L 455.227191 47.175614 
L 456.347371 47.301704 
L 457.46755 48.247383 
L 458.58773 47.999073 
L 459.70791 46.954956 
L 460.82809 44.716849 
L 461.94827 48.121293 
L 463.068449 46.076193 
L 464.188629 46.356026 
L 465.308809 45.130514 
L 466.428989 46.958827 
L 467.549168 47.301704 
L 468.669348 45.158166 
L 469.789528 44.590758 
L 470.909708 44.622281 
L 472.029887 46.51751 
L 473.150067 45.887057 
L 474.270247 45.883186 
L 475.390427 45.351173 
L 476.510607 44.96903 
L 477.630786 45.169779 
L 479.871146 45.225082 
L 480.991326 44.622281 
L 482.111505 43.203763 
L 483.231685 44.117919 
L 484.351865 44.496191 
L 485.472045 43.77117 
L 486.592225 42.581053 
L 487.712404 43.365247 
L 488.832584 43.64508 
L 489.952764 43.298331 
L 491.072944 43.64508 
L 492.193123 43.298331 
L 493.313303 44.909856 
L 494.433483 43.140718 
L 495.553663 44.023351 
L 496.673842 43.487467 
L 497.794022 42.699401 
L 498.914202 43.235286 
L 500.034382 43.014627 
L 501.154562 42.986976 
L 502.274741 43.207634 
L 503.394921 43.04615 
L 504.515101 43.235286 
L 505.635281 42.766317 
L 506.75546 42.825491 
L 507.87564 43.964177 
L 508.99582 42.699401 
L 510.116 42.037426 
L 511.23618 41.154792 
L 512.356359 42.195039 
L 513.476539 43.834215 
L 514.596719 42.762446 
L 516.837078 41.911335 
L 517.957258 42.037426 
L 519.077438 42.30122 
L 520.197618 42.352652 
L 521.317797 41.24936 
L 522.437977 41.564586 
L 523.558157 41.501541 
L 524.678337 43.270679 
L 525.798517 41.501541 
L 526.918696 41.97438 
L 528.038876 42.57331 
L 529.159056 41.501541 
L 530.279236 41.659154 
L 531.399415 41.690677 
L 532.519595 42.352652 
L 533.639775 41.406973 
L 534.759955 41.694548 
L 535.880135 40.843437 
L 537.000314 41.312405 
L 538.120494 41.627632 
L 539.240674 40.492817 
L 540.360854 41.312405 
L 541.481033 41.186315 
L 542.601213 41.501541 
L 543.721393 41.312405 
L 544.841573 41.280883 
L 547.081932 42.068948 
L 548.202112 41.911335 
L 549.322292 41.217837 
L 550.442472 40.997179 
L 551.562651 41.091747 
L 552.682831 41.028702 
L 553.803011 41.12327 
L 554.923191 42.068948 
L 556.04337 40.713475 
L 558.28373 41.060224 
L 559.40391 40.744998 
L 560.524089 40.681953 
L 561.644269 41.564586 
L 562.764449 41.627632 
L 566.124988 40.871089 
L 567.245168 40.496688 
L 569.485528 40.902611 
L 570.605707 41.24936 
L 571.725887 40.934134 
L 572.846067 40.776521 
L 573.966247 40.934134 
L 575.086427 40.871089 
L 576.206606 41.028702 
L 577.326786 40.587385 
L 579.567146 40.744998 
L 580.687325 41.12327 
L 581.807505 40.744998 
L 582.927685 40.839566 
L 585.168044 40.555862 
L 586.288224 41.091747 
L 587.408404 40.555862 
L 588.528584 40.587385 
L 589.648764 40.839566 
L 590.768943 40.780392 
L 591.889123 40.555862 
L 593.009303 40.744998 
L 594.129483 40.618907 
L 595.249662 41.028702 
L 596.369842 40.366726 
L 597.490022 40.808043 
L 598.610202 40.555862 
L 599.730382 40.871089 
L 601.970741 40.114545 
L 603.090921 40.681953 
L 605.33128 40.272159 
L 606.45146 40.587385 
L 607.57164 40.555862 
L 608.69182 41.091747 
L 609.811999 40.461294 
L 610.932179 41.060224 
L 612.052359 41.028702 
L 613.172539 40.429772 
L 617.653258 40.871089 
L 619.893617 40.335204 
L 622.133977 40.744998 
L 623.254157 40.492817 
L 624.374337 40.65043 
L 625.494516 41.12327 
L 626.614696 40.902611 
L 627.734876 40.335204 
L 628.855056 40.808043 
L 633.335775 40.681953 
L 634.455954 40.776521 
L 635.576134 40.744998 
L 636.696314 40.429772 
L 640.056853 40.555862 
L 642.297213 40.52434 
L 643.417393 40.839566 
L 644.537572 40.303681 
L 645.657752 40.587385 
L 646.777932 40.744998 
L 647.898112 40.492817 
L 649.018292 40.808043 
L 650.138471 40.272159 
L 651.258651 40.808043 
L 652.378831 40.587385 
L 653.499011 41.028702 
L 654.61919 40.461294 
L 655.73937 40.209113 
L 656.85955 40.587385 
L 659.099909 40.303681 
L 660.220089 40.713475 
L 662.460449 40.492817 
L 663.580629 40.52434 
L 664.700808 40.366726 
L 666.941168 40.587385 
L 668.061348 40.965656 
L 669.181527 40.398249 
L 670.301707 40.555862 
L 671.421887 40.52434 
L 672.542067 40.808043 
L 673.662246 40.303681 
L 674.782426 40.681953 
L 677.022786 40.65043 
L 678.142966 40.681953 
L 679.263145 40.398249 
L 680.383325 40.52434 
L 681.503505 40.398249 
L 682.623685 40.713475 
L 684.864044 40.303681 
L 688.224584 40.555862 
L 690.464943 40.555862 
L 691.585123 40.303681 
L 692.705303 40.65043 
L 692.705303 40.65043 
" clip-path="url(#pe1a427de44)" style="fill: none; stroke: #1f77b4; stroke-width: 1.5; stroke-linecap: square"/>
   </g>
   <g id="line2d_32">
    <path d="M 423.862157 164.925805 
L 424.982337 141.64538 
L 426.102517 126.677227 
L 427.222697 127.200297 
L 428.342876 98.601989 
L 429.463056 303.937461 
L 430.583236 146.375756 
L 431.703416 116.045251 
L 432.823595 101.190809 
L 433.943775 93.871613 
L 435.063955 102.797924 
L 436.184135 104.378506 
L 437.304315 100.068861 
L 438.424494 304.805455 
L 439.544674 104.901577 
L 440.664854 93.439511 
L 441.785034 109.70776 
L 442.905213 102.976071 
L 444.025393 241.961194 
L 445.145573 103.639385 
L 446.265753 109.567517 
L 447.385932 92.571518 
L 448.506112 103.294462 
L 449.626292 126.525612 
L 450.746472 116.579693 
L 451.866652 100.413784 
L 452.986831 94.038389 
L 454.107011 89.5885 
L 455.227191 98.768765 
L 456.347371 95.402921 
L 457.46755 104.340603 
L 458.58773 98.768765 
L 459.70791 97.010036 
L 460.82809 94.777511 
L 461.94827 92.150787 
L 463.068449 92.215223 
L 464.188629 89.831083 
L 465.308809 95.925991 
L 466.428989 94.421216 
L 467.549168 97.824964 
L 468.669348 100.068861 
L 470.909708 87.446944 
L 472.029887 98.310131 
L 473.150067 113.354092 
L 474.270247 109.8101 
L 475.390427 111.709073 
L 476.510607 87.82977 
L 477.630786 90.31625 
L 478.750966 228.842739 
L 479.871146 103.779629 
L 480.991326 101.713879 
L 482.111505 85.623778 
L 483.231685 86.605482 
L 484.351865 99.356272 
L 485.472045 94.178633 
L 486.592225 99.265303 
L 487.712404 98.871105 
L 488.832584 96.346722 
L 489.952764 89.79318 
L 491.072944 92.27966 
L 492.193123 86.427335 
L 493.313303 100.732175 
L 494.433483 171.646123 
L 495.553663 100.030957 
L 496.673842 98.385938 
L 497.794022 95.122434 
L 498.914202 183.657792 
L 500.034382 93.860242 
L 501.154562 196.954394 
L 502.274741 92.07498 
L 503.394921 96.983503 
L 504.515101 96.206478 
L 505.635281 105.117628 
L 506.75546 105.284404 
L 507.87564 196.878587 
L 508.99582 99.890714 
L 510.116 98.488278 
L 511.23618 89.129866 
L 512.356359 92.878537 
L 513.476539 98.704329 
L 514.596719 93.682095 
L 515.716899 159.520744 
L 516.837078 93.860242 
L 517.957258 96.627209 
L 519.077438 108.127178 
L 520.197618 97.188183 
L 521.317797 91.999173 
L 522.437977 91.233519 
L 523.558157 90.21391 
L 524.678337 92.17732 
L 525.798517 96.805356 
L 526.918696 91.093275 
L 528.038876 231.966 
L 529.159056 97.711253 
L 530.279236 95.365017 
L 531.399415 90.774885 
L 533.639775 97.36633 
L 534.759955 104.162456 
L 535.880135 88.989622 
L 537.000314 95.581068 
L 538.120494 97.608914 
L 539.240674 87.625091 
L 540.360854 85.764021 
L 541.481033 178.123858 
L 542.601213 102.900264 
L 543.721393 88.466552 
L 544.841573 102.976071 
L 545.961752 100.554028 
L 547.081932 93.477415 
L 548.202112 228.971612 
L 549.322292 102.274854 
L 550.442472 94.841947 
L 551.562651 91.017468 
L 552.682831 89.410353 
L 553.803011 92.635954 
L 554.923191 107.00523 
L 556.04337 95.581068 
L 557.16355 96.244382 
L 558.28373 93.401608 
L 559.40391 96.486965 
L 560.524089 94.917754 
L 561.644269 96.778823 
L 562.764449 90.710448 
L 563.884629 93.503948 
L 565.004809 101.573636 
L 566.124988 101.152905 
L 567.245168 91.335859 
L 568.365348 92.980877 
L 569.485528 93.962582 
L 570.605707 86.465239 
L 571.725887 96.001799 
L 572.846067 95.122434 
L 573.966247 90.111571 
L 575.086427 102.03227 
L 576.206606 89.232206 
L 577.326786 89.652936 
L 578.446966 87.970014 
L 579.567146 88.951719 
L 580.687325 84.604169 
L 581.807505 85.866361 
L 582.927685 154.854804 
L 584.047865 88.390745 
L 585.168044 88.747039 
L 586.288224 87.026213 
L 587.408404 86.287092 
L 588.528584 87.128553 
L 589.648764 92.317563 
L 590.768943 91.335859 
L 591.889123 265.370492 
L 593.009303 95.122434 
L 594.129483 91.756589 
L 595.249662 92.776198 
L 596.369842 89.129866 
L 597.490022 88.148161 
L 598.610202 228.971612 
L 599.730382 89.372449 
L 600.850561 88.250501 
L 601.970741 94.841947 
L 603.090921 90.634641 
L 604.211101 88.951719 
L 605.33128 90.736981 
L 606.45146 95.721312 
L 607.57164 90.672545 
L 608.69182 95.925991 
L 609.811999 92.635954 
L 610.932179 94.739607 
L 612.052359 97.226087 
L 613.172539 90.774885 
L 614.292719 90.774885 
L 615.412898 90.915128 
L 616.533078 90.494397 
L 617.653258 90.354154 
L 618.773438 89.512693 
L 619.893617 94.739607 
L 621.013797 88.671232 
L 622.133977 87.689527 
L 623.254157 92.037076 
L 624.374337 91.476102 
L 625.494516 99.291836 
L 626.614696 92.878537 
L 627.734876 95.198241 
L 628.855056 119.627147 
L 629.975235 88.530988 
L 631.095415 99.469983 
L 632.215595 88.072354 
L 633.335775 162.568198 
L 634.455954 89.79318 
L 635.576134 99.890714 
L 636.696314 91.756589 
L 637.816494 91.896833 
L 638.936674 91.233519 
L 640.056853 89.550596 
L 641.177033 90.532301 
L 642.297213 88.849379 
L 643.417393 111.56883 
L 644.537572 88.568892 
L 645.657752 96.703016 
L 646.777932 108.138549 
L 647.898112 91.934736 
L 649.018292 91.373762 
L 650.138471 89.69084 
L 651.258651 89.69084 
L 652.378831 89.270109 
L 653.499011 160.707128 
L 654.61919 119.805294 
L 655.73937 88.148161 
L 656.85955 88.989622 
L 657.97973 88.250501 
L 659.099909 88.352841 
L 661.340269 88.951719 
L 662.460449 92.635954 
L 663.580629 90.672545 
L 664.700808 92.776198 
L 665.820988 90.672545 
L 666.941168 91.093275 
L 668.061348 91.093275 
L 669.181527 89.971327 
L 670.301707 90.251814 
L 671.421887 90.392058 
L 672.542067 90.392058 
L 673.662246 90.672545 
L 674.782426 90.672545 
L 675.902606 90.953032 
L 677.022786 90.812788 
L 678.142966 90.812788 
L 679.263145 88.709135 
L 680.383325 90.251814 
L 681.503505 90.532301 
L 682.623685 90.953032 
L 683.743864 90.392058 
L 684.864044 135.539101 
L 685.984224 90.953032 
L 687.104404 90.532301 
L 688.224584 90.953032 
L 689.344763 90.672545 
L 690.464943 91.233519 
L 691.585123 91.093275 
L 692.705303 91.093275 
L 692.705303 91.093275 
" clip-path="url(#pe1a427de44)" style="fill: none; stroke: #ff7f0e; stroke-width: 1.5; stroke-linecap: square"/>
   </g>
   <g id="patch_9">
    <path d="M 410.42 318.04 
L 410.42 26.88 
" style="fill: none; stroke: #000000; stroke-width: 0.8; stroke-linejoin: miter; stroke-linecap: square"/>
   </g>
   <g id="patch_10">
    <path d="M 706.14746 318.04 
L 706.14746 26.88 
" style="fill: none; stroke: #000000; stroke-width: 0.8; stroke-linejoin: miter; stroke-linecap: square"/>
   </g>
   <g id="patch_11">
    <path d="M 410.42 318.04 
L 706.14746 318.04 
" style="fill: none; stroke: #000000; stroke-width: 0.8; stroke-linejoin: miter; stroke-linecap: square"/>
   </g>
   <g id="patch_12">
    <path d="M 410.42 26.88 
L 706.14746 26.88 
" style="fill: none; stroke: #000000; stroke-width: 0.8; stroke-linejoin: miter; stroke-linecap: square"/>
   </g>
   <g id="text_34">
    <!-- Accuracy -->
    <g transform="translate(530.88998 20.88) scale(0.12 -0.12)">
     <use xlink:href="#DejaVuSans-41"/>
     <use xlink:href="#DejaVuSans-63" x="66.658203"/>
     <use xlink:href="#DejaVuSans-63" x="121.638672"/>
     <use xlink:href="#DejaVuSans-75" x="176.619141"/>
     <use xlink:href="#DejaVuSans-72" x="239.998047"/>
     <use xlink:href="#DejaVuSans-61" x="281.111328"/>
     <use xlink:href="#DejaVuSans-63" x="342.390625"/>
     <use xlink:href="#DejaVuSans-79" x="397.371094"/>
    </g>
   </g>
   <g id="legend_2">
    <g id="patch_13">
     <path d="M 594.325585 313.04 
L 699.14746 313.04 
Q 701.14746 313.04 701.14746 311.04 
L 701.14746 282.68375 
Q 701.14746 280.68375 699.14746 280.68375 
L 594.325585 280.68375 
Q 592.325585 280.68375 592.325585 282.68375 
L 592.325585 311.04 
Q 592.325585 313.04 594.325585 313.04 
z
" style="fill: #ffffff; opacity: 0.8; stroke: #cccccc; stroke-linejoin: miter"/>
    </g>
    <g id="line2d_33">
     <path d="M 596.325585 288.782188 
L 606.325585 288.782188 
L 616.325585 288.782188 
" style="fill: none; stroke: #1f77b4; stroke-width: 1.5; stroke-linecap: square"/>
    </g>
    <g id="text_35">
     <!-- Train Accuracy -->
     <g transform="translate(624.325585 292.282188) scale(0.1 -0.1)">
      <use xlink:href="#DejaVuSans-54"/>
      <use xlink:href="#DejaVuSans-72" x="46.333984"/>
      <use xlink:href="#DejaVuSans-61" x="87.447266"/>
      <use xlink:href="#DejaVuSans-69" x="148.726562"/>
      <use xlink:href="#DejaVuSans-6e" x="176.509766"/>
      <use xlink:href="#DejaVuSans-20" x="239.888672"/>
      <use xlink:href="#DejaVuSans-41" x="271.675781"/>
      <use xlink:href="#DejaVuSans-63" x="338.333984"/>
      <use xlink:href="#DejaVuSans-63" x="393.314453"/>
      <use xlink:href="#DejaVuSans-75" x="448.294922"/>
      <use xlink:href="#DejaVuSans-72" x="511.673828"/>
      <use xlink:href="#DejaVuSans-61" x="552.787109"/>
      <use xlink:href="#DejaVuSans-63" x="614.066406"/>
      <use xlink:href="#DejaVuSans-79" x="669.046875"/>
     </g>
    </g>
    <g id="line2d_34">
     <path d="M 596.325585 303.460313 
L 606.325585 303.460313 
L 616.325585 303.460313 
" style="fill: none; stroke: #ff7f0e; stroke-width: 1.5; stroke-linecap: square"/>
    </g>
    <g id="text_36">
     <!-- Val Accuracy -->
     <g transform="translate(624.325585 306.960313) scale(0.1 -0.1)">
      <use xlink:href="#DejaVuSans-56"/>
      <use xlink:href="#DejaVuSans-61" x="60.658203"/>
      <use xlink:href="#DejaVuSans-6c" x="121.9375"/>
      <use xlink:href="#DejaVuSans-20" x="149.720703"/>
      <use xlink:href="#DejaVuSans-41" x="181.507812"/>
      <use xlink:href="#DejaVuSans-63" x="248.166016"/>
      <use xlink:href="#DejaVuSans-63" x="303.146484"/>
      <use xlink:href="#DejaVuSans-75" x="358.126953"/>
      <use xlink:href="#DejaVuSans-72" x="421.505859"/>
      <use xlink:href="#DejaVuSans-61" x="462.619141"/>
      <use xlink:href="#DejaVuSans-63" x="523.898438"/>
      <use xlink:href="#DejaVuSans-79" x="578.878906"/>
     </g>
    </g>
   </g>
  </g>
  <g id="axes_3">
   <g id="patch_14">
    <path d="M 766.82 318.04 
L 1062.54746 318.04 
L 1062.54746 26.88 
L 766.82 26.88 
z
" style="fill: #ffffff"/>
   </g>
   <g id="matplotlib.axis_5">
    <g id="xtick_13">
     <g id="line2d_35">
      <g>
       <use xlink:href="#m6ae4217abb" x="779.141977" y="318.04" style="stroke: #000000; stroke-width: 0.8"/>
      </g>
     </g>
     <g id="text_37">
      <!-- 0 -->
      <g transform="translate(775.960727 332.638438) scale(0.1 -0.1)">
       <use xlink:href="#DejaVuSans-30"/>
      </g>
     </g>
    </g>
    <g id="xtick_14">
     <g id="line2d_36">
      <g>
       <use xlink:href="#m6ae4217abb" x="835.150966" y="318.04" style="stroke: #000000; stroke-width: 0.8"/>
      </g>
     </g>
     <g id="text_38">
      <!-- 50 -->
      <g transform="translate(828.788466 332.638438) scale(0.1 -0.1)">
       <use xlink:href="#DejaVuSans-35"/>
       <use xlink:href="#DejaVuSans-30" x="63.623047"/>
      </g>
     </g>
    </g>
    <g id="xtick_15">
     <g id="line2d_37">
      <g>
       <use xlink:href="#m6ae4217abb" x="891.159955" y="318.04" style="stroke: #000000; stroke-width: 0.8"/>
      </g>
     </g>
     <g id="text_39">
      <!-- 100 -->
      <g transform="translate(881.616205 332.638438) scale(0.1 -0.1)">
       <use xlink:href="#DejaVuSans-31"/>
       <use xlink:href="#DejaVuSans-30" x="63.623047"/>
       <use xlink:href="#DejaVuSans-30" x="127.246094"/>
      </g>
     </g>
    </g>
    <g id="xtick_16">
     <g id="line2d_38">
      <g>
       <use xlink:href="#m6ae4217abb" x="947.168943" y="318.04" style="stroke: #000000; stroke-width: 0.8"/>
      </g>
     </g>
     <g id="text_40">
      <!-- 150 -->
      <g transform="translate(937.625193 332.638438) scale(0.1 -0.1)">
       <use xlink:href="#DejaVuSans-31"/>
       <use xlink:href="#DejaVuSans-35" x="63.623047"/>
       <use xlink:href="#DejaVuSans-30" x="127.246094"/>
      </g>
     </g>
    </g>
    <g id="xtick_17">
     <g id="line2d_39">
      <g>
       <use xlink:href="#m6ae4217abb" x="1003.177932" y="318.04" style="stroke: #000000; stroke-width: 0.8"/>
      </g>
     </g>
     <g id="text_41">
      <!-- 200 -->
      <g transform="translate(993.634182 332.638438) scale(0.1 -0.1)">
       <use xlink:href="#DejaVuSans-32"/>
       <use xlink:href="#DejaVuSans-30" x="63.623047"/>
       <use xlink:href="#DejaVuSans-30" x="127.246094"/>
      </g>
     </g>
    </g>
    <g id="xtick_18">
     <g id="line2d_40">
      <g>
       <use xlink:href="#m6ae4217abb" x="1059.186921" y="318.04" style="stroke: #000000; stroke-width: 0.8"/>
      </g>
     </g>
     <g id="text_42">
      <!-- 250 -->
      <g transform="translate(1049.643171 332.638438) scale(0.1 -0.1)">
       <use xlink:href="#DejaVuSans-32"/>
       <use xlink:href="#DejaVuSans-35" x="63.623047"/>
       <use xlink:href="#DejaVuSans-30" x="127.246094"/>
      </g>
     </g>
    </g>
    <g id="text_43">
     <!-- Epochs -->
     <g transform="translate(896.768105 346.316563) scale(0.1 -0.1)">
      <use xlink:href="#DejaVuSans-45"/>
      <use xlink:href="#DejaVuSans-70" x="63.183594"/>
      <use xlink:href="#DejaVuSans-6f" x="126.660156"/>
      <use xlink:href="#DejaVuSans-63" x="187.841797"/>
      <use xlink:href="#DejaVuSans-68" x="242.822266"/>
      <use xlink:href="#DejaVuSans-73" x="306.201172"/>
     </g>
    </g>
   </g>
   <g id="matplotlib.axis_6">
    <g id="ytick_15">
     <g id="line2d_41">
      <g>
       <use xlink:href="#m8f5f7ea05f" x="766.82" y="300.29498" style="stroke: #000000; stroke-width: 0.8"/>
      </g>
     </g>
     <g id="text_44">
      <!-- 0.4 -->
      <g transform="translate(743.916875 304.094199) scale(0.1 -0.1)">
       <use xlink:href="#DejaVuSans-30"/>
       <use xlink:href="#DejaVuSans-2e" x="63.623047"/>
       <use xlink:href="#DejaVuSans-34" x="95.410156"/>
      </g>
     </g>
    </g>
    <g id="ytick_16">
     <g id="line2d_42">
      <g>
       <use xlink:href="#m8f5f7ea05f" x="766.82" y="256.594713" style="stroke: #000000; stroke-width: 0.8"/>
      </g>
     </g>
     <g id="text_45">
      <!-- 0.5 -->
      <g transform="translate(743.916875 260.393932) scale(0.1 -0.1)">
       <use xlink:href="#DejaVuSans-30"/>
       <use xlink:href="#DejaVuSans-2e" x="63.623047"/>
       <use xlink:href="#DejaVuSans-35" x="95.410156"/>
      </g>
     </g>
    </g>
    <g id="ytick_17">
     <g id="line2d_43">
      <g>
       <use xlink:href="#m8f5f7ea05f" x="766.82" y="212.894446" style="stroke: #000000; stroke-width: 0.8"/>
      </g>
     </g>
     <g id="text_46">
      <!-- 0.6 -->
      <g transform="translate(743.916875 216.693665) scale(0.1 -0.1)">
       <use xlink:href="#DejaVuSans-30"/>
       <use xlink:href="#DejaVuSans-2e" x="63.623047"/>
       <use xlink:href="#DejaVuSans-36" x="95.410156"/>
      </g>
     </g>
    </g>
    <g id="ytick_18">
     <g id="line2d_44">
      <g>
       <use xlink:href="#m8f5f7ea05f" x="766.82" y="169.19418" style="stroke: #000000; stroke-width: 0.8"/>
      </g>
     </g>
     <g id="text_47">
      <!-- 0.7 -->
      <g transform="translate(743.916875 172.993398) scale(0.1 -0.1)">
       <use xlink:href="#DejaVuSans-30"/>
       <use xlink:href="#DejaVuSans-2e" x="63.623047"/>
       <use xlink:href="#DejaVuSans-37" x="95.410156"/>
      </g>
     </g>
    </g>
    <g id="ytick_19">
     <g id="line2d_45">
      <g>
       <use xlink:href="#m8f5f7ea05f" x="766.82" y="125.493913" style="stroke: #000000; stroke-width: 0.8"/>
      </g>
     </g>
     <g id="text_48">
      <!-- 0.8 -->
      <g transform="translate(743.916875 129.293132) scale(0.1 -0.1)">
       <use xlink:href="#DejaVuSans-30"/>
       <use xlink:href="#DejaVuSans-2e" x="63.623047"/>
       <use xlink:href="#DejaVuSans-38" x="95.410156"/>
      </g>
     </g>
    </g>
    <g id="ytick_20">
     <g id="line2d_46">
      <g>
       <use xlink:href="#m8f5f7ea05f" x="766.82" y="81.793646" style="stroke: #000000; stroke-width: 0.8"/>
      </g>
     </g>
     <g id="text_49">
      <!-- 0.9 -->
      <g transform="translate(743.916875 85.592865) scale(0.1 -0.1)">
       <use xlink:href="#DejaVuSans-30"/>
       <use xlink:href="#DejaVuSans-2e" x="63.623047"/>
       <use xlink:href="#DejaVuSans-39" x="95.410156"/>
      </g>
     </g>
    </g>
    <g id="ytick_21">
     <g id="line2d_47">
      <g>
       <use xlink:href="#m8f5f7ea05f" x="766.82" y="38.093379" style="stroke: #000000; stroke-width: 0.8"/>
      </g>
     </g>
     <g id="text_50">
      <!-- 1.0 -->
      <g transform="translate(743.916875 41.892598) scale(0.1 -0.1)">
       <use xlink:href="#DejaVuSans-31"/>
       <use xlink:href="#DejaVuSans-2e" x="63.623047"/>
       <use xlink:href="#DejaVuSans-30" x="95.410156"/>
      </g>
     </g>
    </g>
    <g id="text_51">
     <!-- F1 Score -->
     <g transform="translate(737.837187 194.108438) rotate(-90) scale(0.1 -0.1)">
      <defs>
       <path id="DejaVuSans-46" d="M 628 4666 
L 3309 4666 
L 3309 4134 
L 1259 4134 
L 1259 2759 
L 3109 2759 
L 3109 2228 
L 1259 2228 
L 1259 0 
L 628 0 
L 628 4666 
z
" transform="scale(0.015625)"/>
       <path id="DejaVuSans-53" d="M 3425 4513 
L 3425 3897 
Q 3066 4069 2747 4153 
Q 2428 4238 2131 4238 
Q 1616 4238 1336 4038 
Q 1056 3838 1056 3469 
Q 1056 3159 1242 3001 
Q 1428 2844 1947 2747 
L 2328 2669 
Q 3034 2534 3370 2195 
Q 3706 1856 3706 1288 
Q 3706 609 3251 259 
Q 2797 -91 1919 -91 
Q 1588 -91 1214 -16 
Q 841 59 441 206 
L 441 856 
Q 825 641 1194 531 
Q 1563 422 1919 422 
Q 2459 422 2753 634 
Q 3047 847 3047 1241 
Q 3047 1584 2836 1778 
Q 2625 1972 2144 2069 
L 1759 2144 
Q 1053 2284 737 2584 
Q 422 2884 422 3419 
Q 422 4038 858 4394 
Q 1294 4750 2059 4750 
Q 2388 4750 2728 4690 
Q 3069 4631 3425 4513 
z
" transform="scale(0.015625)"/>
       <path id="DejaVuSans-65" d="M 3597 1894 
L 3597 1613 
L 953 1613 
Q 991 1019 1311 708 
Q 1631 397 2203 397 
Q 2534 397 2845 478 
Q 3156 559 3463 722 
L 3463 178 
Q 3153 47 2828 -22 
Q 2503 -91 2169 -91 
Q 1331 -91 842 396 
Q 353 884 353 1716 
Q 353 2575 817 3079 
Q 1281 3584 2069 3584 
Q 2775 3584 3186 3129 
Q 3597 2675 3597 1894 
z
M 3022 2063 
Q 3016 2534 2758 2815 
Q 2500 3097 2075 3097 
Q 1594 3097 1305 2825 
Q 1016 2553 972 2059 
L 3022 2063 
z
" transform="scale(0.015625)"/>
      </defs>
      <use xlink:href="#DejaVuSans-46"/>
      <use xlink:href="#DejaVuSans-31" x="57.519531"/>
      <use xlink:href="#DejaVuSans-20" x="121.142578"/>
      <use xlink:href="#DejaVuSans-53" x="152.929688"/>
      <use xlink:href="#DejaVuSans-63" x="216.40625"/>
      <use xlink:href="#DejaVuSans-6f" x="271.386719"/>
      <use xlink:href="#DejaVuSans-72" x="332.568359"/>
      <use xlink:href="#DejaVuSans-65" x="371.431641"/>
     </g>
    </g>
   </g>
   <g id="line2d_48">
    <path d="M 780.262157 192.030256 
L 781.382337 69.85045 
L 782.502517 64.174804 
L 783.622697 61.229464 
L 784.742876 59.666621 
L 785.863056 55.732374 
L 786.983236 55.955302 
L 788.103416 53.50562 
L 789.223595 51.592175 
L 790.343775 50.99939 
L 791.463955 49.357324 
L 792.584135 51.516516 
L 793.704315 49.918567 
L 794.824494 49.248296 
L 795.944674 47.817041 
L 797.064854 47.215972 
L 798.185034 48.367983 
L 799.305213 47.539327 
L 800.425393 46.128808 
L 801.545573 46.471382 
L 802.665753 47.140092 
L 803.785932 46.150065 
L 804.906112 46.120304 
L 806.026292 45.135615 
L 807.146472 45.804373 
L 808.266652 46.932166 
L 809.386831 45.511457 
L 810.507011 45.288184 
L 811.627191 44.711526 
L 812.747371 44.494242 
L 813.86755 44.818762 
L 814.98773 44.474921 
L 817.22809 43.193948 
L 818.34827 45.143637 
L 819.468449 43.797728 
L 820.588629 43.539582 
L 821.708809 42.481833 
L 822.828989 43.555313 
L 823.949168 43.654029 
L 825.069348 43.339897 
L 826.189528 42.677635 
L 827.309708 42.546049 
L 828.429887 43.506266 
L 829.550067 43.728975 
L 831.790427 43.55578 
L 832.910607 43.164727 
L 834.030786 43.461929 
L 836.271146 43.176307 
L 837.391326 42.745812 
L 838.511505 42.021991 
L 839.631685 42.611897 
L 840.751865 42.747785 
L 841.872045 42.404404 
L 842.992225 41.607348 
L 844.112404 42.160994 
L 845.232584 42.24829 
L 846.352764 42.112868 
L 847.472944 42.261541 
L 848.593123 42.063609 
L 849.713303 43.186963 
L 850.833483 41.833449 
L 851.953663 42.412783 
L 853.073842 42.151821 
L 854.194022 41.453313 
L 855.314202 42.076344 
L 856.434382 41.755472 
L 857.554562 41.886367 
L 858.674741 41.901789 
L 859.794921 41.611707 
L 860.915101 41.940004 
L 863.15546 41.574631 
L 864.27564 42.577364 
L 865.39582 41.400523 
L 867.63618 40.47276 
L 868.756359 41.369082 
L 869.876539 42.447964 
L 870.996719 41.671067 
L 872.116899 41.27969 
L 873.237078 41.150486 
L 875.477438 41.138232 
L 876.597618 41.352949 
L 877.717797 40.530548 
L 878.837977 41.055881 
L 879.958157 40.842642 
L 881.078337 41.819988 
L 882.198517 40.978372 
L 883.318696 40.927821 
L 884.438876 41.382721 
L 885.559056 40.956664 
L 886.679236 41.040863 
L 887.799415 40.91858 
L 888.919595 40.987181 
L 890.039775 40.646985 
L 891.159955 40.85612 
L 892.280135 40.568126 
L 894.520494 40.703038 
L 895.640674 40.407648 
L 896.760854 40.645794 
L 900.121393 40.51209 
L 902.361752 40.852238 
L 903.481932 40.997242 
L 904.602112 40.892179 
L 905.722292 40.472545 
L 906.842472 40.33975 
L 909.082831 40.710087 
L 910.203011 40.423241 
L 911.323191 41.212595 
L 912.44337 40.483502 
L 913.56355 40.355877 
L 914.68373 40.527946 
L 915.80391 40.170486 
L 916.924089 40.144938 
L 919.164449 40.849003 
L 921.404809 40.335175 
L 927.005707 40.186021 
L 928.125887 40.396781 
L 929.246067 40.458491 
L 931.486427 40.299195 
L 933.726786 40.337988 
L 934.846966 40.140181 
L 935.967146 40.223978 
L 937.087325 40.496297 
L 939.327685 40.186439 
L 941.568044 40.343817 
L 944.928584 40.140482 
L 947.168943 40.347526 
L 949.409303 40.24178 
L 950.529483 40.299204 
L 952.769842 40.140751 
L 955.010202 40.190593 
L 956.130382 40.562123 
L 957.250561 40.165203 
L 963.97164 40.146041 
L 965.09182 40.416305 
L 966.211999 40.157483 
L 967.332179 40.339815 
L 968.452359 40.324991 
L 969.572539 40.140634 
L 980.774337 40.137689 
L 981.894516 40.360792 
L 984.134876 40.146937 
L 989.735775 40.11908 
L 990.855954 40.215779 
L 994.216494 40.120502 
L 1035.663145 40.115718 
L 1049.105303 40.115718 
L 1049.105303 40.115718 
" clip-path="url(#p45881ec47d)" style="fill: none; stroke: #1f77b4; stroke-width: 1.5; stroke-linecap: square"/>
   </g>
   <g id="line2d_49">
    <path d="M 780.262157 138.011105 
L 781.382337 116.3572 
L 782.502517 103.115641 
L 783.622697 96.608202 
L 784.742876 80.559155 
L 785.863056 304.805455 
L 786.983236 121.995968 
L 788.103416 90.444337 
L 789.223595 81.930428 
L 790.343775 78.310772 
L 791.463955 82.302533 
L 792.584135 87.062184 
L 793.704315 82.809138 
L 794.824494 290.230233 
L 795.944674 83.575475 
L 797.064854 77.418627 
L 798.185034 91.730746 
L 799.305213 82.186424 
L 800.425393 197.805429 
L 801.545573 83.638558 
L 802.665753 91.798477 
L 803.785932 76.885985 
L 804.906112 86.694084 
L 806.026292 104.548225 
L 807.146472 91.182629 
L 808.266652 81.102952 
L 809.386831 77.697376 
L 810.507011 75.28071 
L 811.627191 83.438246 
L 812.747371 77.936832 
L 813.86755 86.814689 
L 814.98773 80.102433 
L 816.10791 79.614164 
L 818.34827 75.88182 
L 819.468449 76.123706 
L 820.588629 74.492656 
L 821.708809 77.466649 
L 822.828989 78.042819 
L 823.949168 80.370614 
L 825.069348 81.348044 
L 826.189528 76.389158 
L 827.309708 73.483395 
L 828.429887 81.832741 
L 829.550067 93.153185 
L 830.670247 92.544591 
L 831.790427 93.696253 
L 832.910607 73.498342 
L 834.030786 74.745963 
L 835.150966 173.52108 
L 836.271146 84.141332 
L 837.391326 84.129369 
L 838.511505 71.938832 
L 839.631685 72.387205 
L 840.751865 81.288922 
L 841.872045 77.263872 
L 842.992225 82.567589 
L 844.112404 80.364902 
L 845.232584 78.505622 
L 846.352764 74.786597 
L 847.472944 75.908981 
L 848.593123 72.579922 
L 849.713303 80.407505 
L 850.833483 144.561782 
L 851.953663 82.684771 
L 853.073842 82.129326 
L 854.194022 78.086763 
L 855.314202 145.288766 
L 856.434382 77.659305 
L 857.554562 171.892337 
L 858.674741 77.944657 
L 859.794921 80.22506 
L 860.915101 78.901622 
L 862.035281 85.814488 
L 863.15546 86.24942 
L 864.27564 153.00494 
L 865.39582 83.058801 
L 866.516 80.748178 
L 867.63618 74.76443 
L 869.876539 80.449378 
L 870.996719 76.830216 
L 872.116899 129.171222 
L 873.237078 78.123163 
L 874.357258 79.406671 
L 875.477438 89.176825 
L 876.597618 79.785883 
L 877.717797 76.196655 
L 878.837977 75.964729 
L 879.958157 74.069074 
L 881.078337 76.143468 
L 882.198517 79.069122 
L 883.318696 75.032031 
L 884.438876 229.935355 
L 885.559056 79.655518 
L 886.679236 78.285618 
L 887.799415 74.526378 
L 890.039775 80.643616 
L 891.159955 84.487513 
L 892.280135 74.194939 
L 893.400314 78.88163 
L 894.520494 79.540126 
L 895.640674 72.861667 
L 896.760854 71.796776 
L 897.881033 161.390646 
L 899.001213 84.780065 
L 900.121393 73.983319 
L 901.241573 85.18567 
L 902.361752 82.550422 
L 903.481932 77.152907 
L 904.602112 164.760232 
L 905.722292 82.374137 
L 906.842472 78.300533 
L 907.962651 75.056916 
L 909.082831 74.433979 
L 910.203011 77.226771 
L 911.323191 86.008227 
L 912.44337 78.585413 
L 913.56355 79.015312 
L 914.68373 77.341984 
L 915.80391 79.834832 
L 916.924089 79.585785 
L 918.044269 81.475003 
L 919.164449 75.273569 
L 920.284629 77.559417 
L 921.404809 82.804328 
L 922.524988 82.617917 
L 923.645168 74.803277 
L 924.765348 77.659213 
L 925.885528 76.78402 
L 927.005707 72.035455 
L 928.125887 80.006835 
L 929.246067 79.243335 
L 930.366247 75.036834 
L 931.486427 82.530499 
L 932.606606 74.324183 
L 933.726786 74.476228 
L 934.846966 73.116924 
L 935.967146 74.0577 
L 937.087325 71.152275 
L 938.207505 71.237814 
L 939.327685 117.405422 
L 940.447865 74.278269 
L 941.568044 74.938897 
L 942.688224 72.797426 
L 943.808404 71.711387 
L 944.928584 72.46381 
L 946.048764 76.059292 
L 947.168943 75.764716 
L 948.289123 213.25993 
L 949.409303 78.924027 
L 950.529483 75.527897 
L 951.649662 76.678916 
L 952.769842 73.904264 
L 953.890022 73.322833 
L 955.010202 191.559394 
L 956.130382 74.916092 
L 957.250561 74.229161 
L 958.370741 79.697926 
L 959.490921 75.584736 
L 960.611101 74.129212 
L 961.73128 74.267173 
L 962.85146 78.99058 
L 963.97164 75.494574 
L 965.09182 78.846167 
L 966.211999 76.714233 
L 967.332179 78.143956 
L 968.452359 79.365673 
L 969.572539 74.714285 
L 970.692719 75.317054 
L 971.812898 75.165709 
L 972.933078 74.846154 
L 974.053258 74.846278 
L 975.173438 74.324562 
L 976.293617 77.061945 
L 977.413797 73.729086 
L 978.533977 72.418302 
L 979.654157 76.230702 
L 980.774337 75.724451 
L 981.894516 79.850622 
L 983.014696 76.753043 
L 984.134876 78.564293 
L 985.255056 95.227835 
L 986.375235 73.451174 
L 987.495415 82.646536 
L 988.615595 73.732464 
L 989.735775 131.310953 
L 990.855954 75.006317 
L 991.976134 81.114077 
L 993.096314 75.850417 
L 994.216494 75.82928 
L 995.336674 75.539178 
L 996.456853 74.001182 
L 997.577033 74.880525 
L 998.697213 73.977502 
L 999.817393 91.203685 
L 1000.937572 73.76911 
L 1002.057752 79.083055 
L 1003.177932 87.314476 
L 1004.298112 76.17197 
L 1006.538471 74.153461 
L 1007.658651 73.989893 
L 1008.778831 74.305284 
L 1009.899011 131.366713 
L 1011.01919 98.061713 
L 1012.13937 73.715961 
L 1014.37973 73.63045 
L 1015.499909 73.2066 
L 1016.620089 73.706677 
L 1017.740269 73.997342 
L 1018.860449 75.858524 
L 1019.980629 74.947684 
L 1021.100808 76.495604 
L 1022.220988 74.952903 
L 1023.341168 75.164864 
L 1024.461348 75.25709 
L 1025.581527 74.421023 
L 1026.701707 74.639365 
L 1027.821887 74.562728 
L 1028.942067 74.689565 
L 1030.062246 75.137072 
L 1031.182426 74.868657 
L 1032.302606 75.309805 
L 1034.542966 74.991204 
L 1035.663145 73.472151 
L 1036.783325 74.573882 
L 1037.903505 74.893128 
L 1039.023685 75.440541 
L 1040.143864 74.591753 
L 1041.264044 108.640107 
L 1042.384224 75.336708 
L 1043.504404 74.850324 
L 1044.624584 75.203122 
L 1045.744763 75.125096 
L 1046.864943 75.25949 
L 1047.985123 75.221349 
L 1049.105303 75.460976 
L 1049.105303 75.460976 
" clip-path="url(#p45881ec47d)" style="fill: none; stroke: #ff7f0e; stroke-width: 1.5; stroke-linecap: square"/>
   </g>
   <g id="patch_15">
    <path d="M 766.82 318.04 
L 766.82 26.88 
" style="fill: none; stroke: #000000; stroke-width: 0.8; stroke-linejoin: miter; stroke-linecap: square"/>
   </g>
   <g id="patch_16">
    <path d="M 1062.54746 318.04 
L 1062.54746 26.88 
" style="fill: none; stroke: #000000; stroke-width: 0.8; stroke-linejoin: miter; stroke-linecap: square"/>
   </g>
   <g id="patch_17">
    <path d="M 766.82 318.04 
L 1062.54746 318.04 
" style="fill: none; stroke: #000000; stroke-width: 0.8; stroke-linejoin: miter; stroke-linecap: square"/>
   </g>
   <g id="patch_18">
    <path d="M 766.82 26.88 
L 1062.54746 26.88 
" style="fill: none; stroke: #000000; stroke-width: 0.8; stroke-linejoin: miter; stroke-linecap: square"/>
   </g>
   <g id="text_52">
    <!-- F1 Score -->
    <g transform="translate(888.705605 20.88) scale(0.12 -0.12)">
     <use xlink:href="#DejaVuSans-46"/>
     <use xlink:href="#DejaVuSans-31" x="57.519531"/>
     <use xlink:href="#DejaVuSans-20" x="121.142578"/>
     <use xlink:href="#DejaVuSans-53" x="152.929688"/>
     <use xlink:href="#DejaVuSans-63" x="216.40625"/>
     <use xlink:href="#DejaVuSans-6f" x="271.386719"/>
     <use xlink:href="#DejaVuSans-72" x="332.568359"/>
     <use xlink:href="#DejaVuSans-65" x="371.431641"/>
    </g>
   </g>
   <g id="legend_3">
    <g id="patch_19">
     <path d="M 984.267772 313.04 
L 1055.54746 313.04 
Q 1057.54746 313.04 1057.54746 311.04 
L 1057.54746 282.68375 
Q 1057.54746 280.68375 1055.54746 280.68375 
L 984.267772 280.68375 
Q 982.267772 280.68375 982.267772 282.68375 
L 982.267772 311.04 
Q 982.267772 313.04 984.267772 313.04 
z
" style="fill: #ffffff; opacity: 0.8; stroke: #cccccc; stroke-linejoin: miter"/>
    </g>
    <g id="line2d_50">
     <path d="M 986.267772 288.782188 
L 996.267772 288.782188 
L 1006.267772 288.782188 
" style="fill: none; stroke: #1f77b4; stroke-width: 1.5; stroke-linecap: square"/>
    </g>
    <g id="text_53">
     <!-- Train F1 -->
     <g transform="translate(1014.267772 292.282188) scale(0.1 -0.1)">
      <use xlink:href="#DejaVuSans-54"/>
      <use xlink:href="#DejaVuSans-72" x="46.333984"/>
      <use xlink:href="#DejaVuSans-61" x="87.447266"/>
      <use xlink:href="#DejaVuSans-69" x="148.726562"/>
      <use xlink:href="#DejaVuSans-6e" x="176.509766"/>
      <use xlink:href="#DejaVuSans-20" x="239.888672"/>
      <use xlink:href="#DejaVuSans-46" x="271.675781"/>
      <use xlink:href="#DejaVuSans-31" x="329.195312"/>
     </g>
    </g>
    <g id="line2d_51">
     <path d="M 986.267772 303.460313 
L 996.267772 303.460313 
L 1006.267772 303.460313 
" style="fill: none; stroke: #ff7f0e; stroke-width: 1.5; stroke-linecap: square"/>
    </g>
    <g id="text_54">
     <!-- Val F1 -->
     <g transform="translate(1014.267772 306.960313) scale(0.1 -0.1)">
      <use xlink:href="#DejaVuSans-56"/>
      <use xlink:href="#DejaVuSans-61" x="60.658203"/>
      <use xlink:href="#DejaVuSans-6c" x="121.9375"/>
      <use xlink:href="#DejaVuSans-20" x="149.720703"/>
      <use xlink:href="#DejaVuSans-46" x="181.507812"/>
      <use xlink:href="#DejaVuSans-31" x="239.027344"/>
     </g>
    </g>
   </g>
  </g>
 </g>
 <defs>
  <clipPath id="p9b0f795d82">
   <rect x="54.02" y="26.88" width="295.72746" height="291.16"/>
  </clipPath>
  <clipPath id="pe1a427de44">
   <rect x="410.42" y="26.88" width="295.72746" height="291.16"/>
  </clipPath>
  <clipPath id="p45881ec47d">
   <rect x="766.82" y="26.88" width="295.72746" height="291.16"/>
  </clipPath>
 </defs>
</svg>
