<?xml version="1.0" encoding="utf-8" standalone="no"?>
<!DOCTYPE svg PUBLIC "-//W3C//DTD SVG 1.1//EN"
  "http://www.w3.org/Graphics/SVG/1.1/DTD/svg11.dtd">
<svg xmlns:xlink="http://www.w3.org/1999/xlink" width="1080pt" height="360pt" viewBox="0 0 1080 360" xmlns="http://www.w3.org/2000/svg" version="1.1">
 <metadata>
  <rdf:RDF xmlns:dc="http://purl.org/dc/elements/1.1/" xmlns:cc="http://creativecommons.org/ns#" xmlns:rdf="http://www.w3.org/1999/02/22-rdf-syntax-ns#">
   <cc:Work>
    <dc:type rdf:resource="http://purl.org/dc/dcmitype/StillImage"/>
    <dc:date>2024-10-22T10:01:38.131530</dc:date>
    <dc:format>image/svg+xml</dc:format>
    <dc:creator>
     <cc:Agent>
      <dc:title>Matplotlib v3.8.2, https://matplotlib.org/</dc:title>
     </cc:Agent>
    </dc:creator>
   </cc:Work>
  </rdf:RDF>
 </metadata>
 <defs>
  <style type="text/css">*{stroke-linejoin: round; stroke-linecap: butt}</style>
 </defs>
 <g id="figure_1">
  <g id="patch_1">
   <path d="M 0 360 
L 1080 360 
L 1080 0 
L 0 0 
z
" style="fill: #ffffff"/>
  </g>
  <g id="axes_1">
   <g id="patch_2">
    <path d="M 54.02 318.04 
L 356.4 318.04 
L 356.4 26.88 
L 54.02 26.88 
z
" style="fill: #ffffff"/>
   </g>
   <g id="matplotlib.axis_1">
    <g id="xtick_1">
     <g id="line2d_1">
      <defs>
       <path id="md6d8e4a84a" d="M 0 0 
L 0 3.5 
" style="stroke: #000000; stroke-width: 0.8"/>
      </defs>
      <g>
       <use xlink:href="#md6d8e4a84a" x="66.294541" y="318.04" style="stroke: #000000; stroke-width: 0.8"/>
      </g>
     </g>
     <g id="text_1">
      <!-- 0 -->
      <g transform="translate(63.113291 332.638438) scale(0.1 -0.1)">
       <defs>
        <path id="DejaVuSans-30" d="M 2034 4250 
Q 1547 4250 1301 3770 
Q 1056 3291 1056 2328 
Q 1056 1369 1301 889 
Q 1547 409 2034 409 
Q 2525 409 2770 889 
Q 3016 1369 3016 2328 
Q 3016 3291 2770 3770 
Q 2525 4250 2034 4250 
z
M 2034 4750 
Q 2819 4750 3233 4129 
Q 3647 3509 3647 2328 
Q 3647 1150 3233 529 
Q 2819 -91 2034 -91 
Q 1250 -91 836 529 
Q 422 1150 422 2328 
Q 422 3509 836 4129 
Q 1250 4750 2034 4750 
z
" transform="scale(0.015625)"/>
       </defs>
       <use xlink:href="#DejaVuSans-30"/>
      </g>
     </g>
    </g>
    <g id="xtick_2">
     <g id="line2d_2">
      <g>
       <use xlink:href="#md6d8e4a84a" x="103.044662" y="318.04" style="stroke: #000000; stroke-width: 0.8"/>
      </g>
     </g>
     <g id="text_2">
      <!-- 25 -->
      <g transform="translate(96.682162 332.638438) scale(0.1 -0.1)">
       <defs>
        <path id="DejaVuSans-32" d="M 1228 531 
L 3431 531 
L 3431 0 
L 469 0 
L 469 531 
Q 828 903 1448 1529 
Q 2069 2156 2228 2338 
Q 2531 2678 2651 2914 
Q 2772 3150 2772 3378 
Q 2772 3750 2511 3984 
Q 2250 4219 1831 4219 
Q 1534 4219 1204 4116 
Q 875 4013 500 3803 
L 500 4441 
Q 881 4594 1212 4672 
Q 1544 4750 1819 4750 
Q 2544 4750 2975 4387 
Q 3406 4025 3406 3419 
Q 3406 3131 3298 2873 
Q 3191 2616 2906 2266 
Q 2828 2175 2409 1742 
Q 1991 1309 1228 531 
z
" transform="scale(0.015625)"/>
        <path id="DejaVuSans-35" d="M 691 4666 
L 3169 4666 
L 3169 4134 
L 1269 4134 
L 1269 2991 
Q 1406 3038 1543 3061 
Q 1681 3084 1819 3084 
Q 2600 3084 3056 2656 
Q 3513 2228 3513 1497 
Q 3513 744 3044 326 
Q 2575 -91 1722 -91 
Q 1428 -91 1123 -41 
Q 819 9 494 109 
L 494 744 
Q 775 591 1075 516 
Q 1375 441 1709 441 
Q 2250 441 2565 725 
Q 2881 1009 2881 1497 
Q 2881 1984 2565 2268 
Q 2250 2553 1709 2553 
Q 1456 2553 1204 2497 
Q 953 2441 691 2322 
L 691 4666 
z
" transform="scale(0.015625)"/>
       </defs>
       <use xlink:href="#DejaVuSans-32"/>
       <use xlink:href="#DejaVuSans-35" x="63.623047"/>
      </g>
     </g>
    </g>
    <g id="xtick_3">
     <g id="line2d_3">
      <g>
       <use xlink:href="#md6d8e4a84a" x="139.794784" y="318.04" style="stroke: #000000; stroke-width: 0.8"/>
      </g>
     </g>
     <g id="text_3">
      <!-- 50 -->
      <g transform="translate(133.432284 332.638438) scale(0.1 -0.1)">
       <use xlink:href="#DejaVuSans-35"/>
       <use xlink:href="#DejaVuSans-30" x="63.623047"/>
      </g>
     </g>
    </g>
    <g id="xtick_4">
     <g id="line2d_4">
      <g>
       <use xlink:href="#md6d8e4a84a" x="176.544905" y="318.04" style="stroke: #000000; stroke-width: 0.8"/>
      </g>
     </g>
     <g id="text_4">
      <!-- 75 -->
      <g transform="translate(170.182405 332.638438) scale(0.1 -0.1)">
       <defs>
        <path id="DejaVuSans-37" d="M 525 4666 
L 3525 4666 
L 3525 4397 
L 1831 0 
L 1172 0 
L 2766 4134 
L 525 4134 
L 525 4666 
z
" transform="scale(0.015625)"/>
       </defs>
       <use xlink:href="#DejaVuSans-37"/>
       <use xlink:href="#DejaVuSans-35" x="63.623047"/>
      </g>
     </g>
    </g>
    <g id="xtick_5">
     <g id="line2d_5">
      <g>
       <use xlink:href="#md6d8e4a84a" x="213.295027" y="318.04" style="stroke: #000000; stroke-width: 0.8"/>
      </g>
     </g>
     <g id="text_5">
      <!-- 100 -->
      <g transform="translate(203.751277 332.638438) scale(0.1 -0.1)">
       <defs>
        <path id="DejaVuSans-31" d="M 794 531 
L 1825 531 
L 1825 4091 
L 703 3866 
L 703 4441 
L 1819 4666 
L 2450 4666 
L 2450 531 
L 3481 531 
L 3481 0 
L 794 0 
L 794 531 
z
" transform="scale(0.015625)"/>
       </defs>
       <use xlink:href="#DejaVuSans-31"/>
       <use xlink:href="#DejaVuSans-30" x="63.623047"/>
       <use xlink:href="#DejaVuSans-30" x="127.246094"/>
      </g>
     </g>
    </g>
    <g id="xtick_6">
     <g id="line2d_6">
      <g>
       <use xlink:href="#md6d8e4a84a" x="250.045148" y="318.04" style="stroke: #000000; stroke-width: 0.8"/>
      </g>
     </g>
     <g id="text_6">
      <!-- 125 -->
      <g transform="translate(240.501398 332.638438) scale(0.1 -0.1)">
       <use xlink:href="#DejaVuSans-31"/>
       <use xlink:href="#DejaVuSans-32" x="63.623047"/>
       <use xlink:href="#DejaVuSans-35" x="127.246094"/>
      </g>
     </g>
    </g>
    <g id="xtick_7">
     <g id="line2d_7">
      <g>
       <use xlink:href="#md6d8e4a84a" x="286.79527" y="318.04" style="stroke: #000000; stroke-width: 0.8"/>
      </g>
     </g>
     <g id="text_7">
      <!-- 150 -->
      <g transform="translate(277.25152 332.638438) scale(0.1 -0.1)">
       <use xlink:href="#DejaVuSans-31"/>
       <use xlink:href="#DejaVuSans-35" x="63.623047"/>
       <use xlink:href="#DejaVuSans-30" x="127.246094"/>
      </g>
     </g>
    </g>
    <g id="xtick_8">
     <g id="line2d_8">
      <g>
       <use xlink:href="#md6d8e4a84a" x="323.545391" y="318.04" style="stroke: #000000; stroke-width: 0.8"/>
      </g>
     </g>
     <g id="text_8">
      <!-- 175 -->
      <g transform="translate(314.001641 332.638438) scale(0.1 -0.1)">
       <use xlink:href="#DejaVuSans-31"/>
       <use xlink:href="#DejaVuSans-37" x="63.623047"/>
       <use xlink:href="#DejaVuSans-35" x="127.246094"/>
      </g>
     </g>
    </g>
    <g id="text_9">
     <!-- Epochs -->
     <g transform="translate(187.294375 346.316563) scale(0.1 -0.1)">
      <defs>
       <path id="DejaVuSans-45" d="M 628 4666 
L 3578 4666 
L 3578 4134 
L 1259 4134 
L 1259 2753 
L 3481 2753 
L 3481 2222 
L 1259 2222 
L 1259 531 
L 3634 531 
L 3634 0 
L 628 0 
L 628 4666 
z
" transform="scale(0.015625)"/>
       <path id="DejaVuSans-70" d="M 1159 525 
L 1159 -1331 
L 581 -1331 
L 581 3500 
L 1159 3500 
L 1159 2969 
Q 1341 3281 1617 3432 
Q 1894 3584 2278 3584 
Q 2916 3584 3314 3078 
Q 3713 2572 3713 1747 
Q 3713 922 3314 415 
Q 2916 -91 2278 -91 
Q 1894 -91 1617 61 
Q 1341 213 1159 525 
z
M 3116 1747 
Q 3116 2381 2855 2742 
Q 2594 3103 2138 3103 
Q 1681 3103 1420 2742 
Q 1159 2381 1159 1747 
Q 1159 1113 1420 752 
Q 1681 391 2138 391 
Q 2594 391 2855 752 
Q 3116 1113 3116 1747 
z
" transform="scale(0.015625)"/>
       <path id="DejaVuSans-6f" d="M 1959 3097 
Q 1497 3097 1228 2736 
Q 959 2375 959 1747 
Q 959 1119 1226 758 
Q 1494 397 1959 397 
Q 2419 397 2687 759 
Q 2956 1122 2956 1747 
Q 2956 2369 2687 2733 
Q 2419 3097 1959 3097 
z
M 1959 3584 
Q 2709 3584 3137 3096 
Q 3566 2609 3566 1747 
Q 3566 888 3137 398 
Q 2709 -91 1959 -91 
Q 1206 -91 779 398 
Q 353 888 353 1747 
Q 353 2609 779 3096 
Q 1206 3584 1959 3584 
z
" transform="scale(0.015625)"/>
       <path id="DejaVuSans-63" d="M 3122 3366 
L 3122 2828 
Q 2878 2963 2633 3030 
Q 2388 3097 2138 3097 
Q 1578 3097 1268 2742 
Q 959 2388 959 1747 
Q 959 1106 1268 751 
Q 1578 397 2138 397 
Q 2388 397 2633 464 
Q 2878 531 3122 666 
L 3122 134 
Q 2881 22 2623 -34 
Q 2366 -91 2075 -91 
Q 1284 -91 818 406 
Q 353 903 353 1747 
Q 353 2603 823 3093 
Q 1294 3584 2113 3584 
Q 2378 3584 2631 3529 
Q 2884 3475 3122 3366 
z
" transform="scale(0.015625)"/>
       <path id="DejaVuSans-68" d="M 3513 2113 
L 3513 0 
L 2938 0 
L 2938 2094 
Q 2938 2591 2744 2837 
Q 2550 3084 2163 3084 
Q 1697 3084 1428 2787 
Q 1159 2491 1159 1978 
L 1159 0 
L 581 0 
L 581 4863 
L 1159 4863 
L 1159 2956 
Q 1366 3272 1645 3428 
Q 1925 3584 2291 3584 
Q 2894 3584 3203 3211 
Q 3513 2838 3513 2113 
z
" transform="scale(0.015625)"/>
       <path id="DejaVuSans-73" d="M 2834 3397 
L 2834 2853 
Q 2591 2978 2328 3040 
Q 2066 3103 1784 3103 
Q 1356 3103 1142 2972 
Q 928 2841 928 2578 
Q 928 2378 1081 2264 
Q 1234 2150 1697 2047 
L 1894 2003 
Q 2506 1872 2764 1633 
Q 3022 1394 3022 966 
Q 3022 478 2636 193 
Q 2250 -91 1575 -91 
Q 1294 -91 989 -36 
Q 684 19 347 128 
L 347 722 
Q 666 556 975 473 
Q 1284 391 1588 391 
Q 1994 391 2212 530 
Q 2431 669 2431 922 
Q 2431 1156 2273 1281 
Q 2116 1406 1581 1522 
L 1381 1569 
Q 847 1681 609 1914 
Q 372 2147 372 2553 
Q 372 3047 722 3315 
Q 1072 3584 1716 3584 
Q 2034 3584 2315 3537 
Q 2597 3491 2834 3397 
z
" transform="scale(0.015625)"/>
      </defs>
      <use xlink:href="#DejaVuSans-45"/>
      <use xlink:href="#DejaVuSans-70" x="63.183594"/>
      <use xlink:href="#DejaVuSans-6f" x="126.660156"/>
      <use xlink:href="#DejaVuSans-63" x="187.841797"/>
      <use xlink:href="#DejaVuSans-68" x="242.822266"/>
      <use xlink:href="#DejaVuSans-73" x="306.201172"/>
     </g>
    </g>
   </g>
   <g id="matplotlib.axis_2">
    <g id="ytick_1">
     <g id="line2d_9">
      <defs>
       <path id="md89e518acf" d="M 0 0 
L -3.5 0 
" style="stroke: #000000; stroke-width: 0.8"/>
      </defs>
      <g>
       <use xlink:href="#md89e518acf" x="54.02" y="316.719233" style="stroke: #000000; stroke-width: 0.8"/>
      </g>
     </g>
     <g id="text_10">
      <!-- 0.30 -->
      <g transform="translate(24.754375 320.518452) scale(0.1 -0.1)">
       <defs>
        <path id="DejaVuSans-2e" d="M 684 794 
L 1344 794 
L 1344 0 
L 684 0 
L 684 794 
z
" transform="scale(0.015625)"/>
        <path id="DejaVuSans-33" d="M 2597 2516 
Q 3050 2419 3304 2112 
Q 3559 1806 3559 1356 
Q 3559 666 3084 287 
Q 2609 -91 1734 -91 
Q 1441 -91 1130 -33 
Q 819 25 488 141 
L 488 750 
Q 750 597 1062 519 
Q 1375 441 1716 441 
Q 2309 441 2620 675 
Q 2931 909 2931 1356 
Q 2931 1769 2642 2001 
Q 2353 2234 1838 2234 
L 1294 2234 
L 1294 2753 
L 1863 2753 
Q 2328 2753 2575 2939 
Q 2822 3125 2822 3475 
Q 2822 3834 2567 4026 
Q 2313 4219 1838 4219 
Q 1578 4219 1281 4162 
Q 984 4106 628 3988 
L 628 4550 
Q 988 4650 1302 4700 
Q 1616 4750 1894 4750 
Q 2613 4750 3031 4423 
Q 3450 4097 3450 3541 
Q 3450 3153 3228 2886 
Q 3006 2619 2597 2516 
z
" transform="scale(0.015625)"/>
       </defs>
       <use xlink:href="#DejaVuSans-30"/>
       <use xlink:href="#DejaVuSans-2e" x="63.623047"/>
       <use xlink:href="#DejaVuSans-33" x="95.410156"/>
       <use xlink:href="#DejaVuSans-30" x="159.033203"/>
      </g>
     </g>
    </g>
    <g id="ytick_2">
     <g id="line2d_10">
      <g>
       <use xlink:href="#md89e518acf" x="54.02" y="280.789686" style="stroke: #000000; stroke-width: 0.8"/>
      </g>
     </g>
     <g id="text_11">
      <!-- 0.35 -->
      <g transform="translate(24.754375 284.588905) scale(0.1 -0.1)">
       <use xlink:href="#DejaVuSans-30"/>
       <use xlink:href="#DejaVuSans-2e" x="63.623047"/>
       <use xlink:href="#DejaVuSans-33" x="95.410156"/>
       <use xlink:href="#DejaVuSans-35" x="159.033203"/>
      </g>
     </g>
    </g>
    <g id="ytick_3">
     <g id="line2d_11">
      <g>
       <use xlink:href="#md89e518acf" x="54.02" y="244.860139" style="stroke: #000000; stroke-width: 0.8"/>
      </g>
     </g>
     <g id="text_12">
      <!-- 0.40 -->
      <g transform="translate(24.754375 248.659358) scale(0.1 -0.1)">
       <defs>
        <path id="DejaVuSans-34" d="M 2419 4116 
L 825 1625 
L 2419 1625 
L 2419 4116 
z
M 2253 4666 
L 3047 4666 
L 3047 1625 
L 3713 1625 
L 3713 1100 
L 3047 1100 
L 3047 0 
L 2419 0 
L 2419 1100 
L 313 1100 
L 313 1709 
L 2253 4666 
z
" transform="scale(0.015625)"/>
       </defs>
       <use xlink:href="#DejaVuSans-30"/>
       <use xlink:href="#DejaVuSans-2e" x="63.623047"/>
       <use xlink:href="#DejaVuSans-34" x="95.410156"/>
       <use xlink:href="#DejaVuSans-30" x="159.033203"/>
      </g>
     </g>
    </g>
    <g id="ytick_4">
     <g id="line2d_12">
      <g>
       <use xlink:href="#md89e518acf" x="54.02" y="208.930592" style="stroke: #000000; stroke-width: 0.8"/>
      </g>
     </g>
     <g id="text_13">
      <!-- 0.45 -->
      <g transform="translate(24.754375 212.729811) scale(0.1 -0.1)">
       <use xlink:href="#DejaVuSans-30"/>
       <use xlink:href="#DejaVuSans-2e" x="63.623047"/>
       <use xlink:href="#DejaVuSans-34" x="95.410156"/>
       <use xlink:href="#DejaVuSans-35" x="159.033203"/>
      </g>
     </g>
    </g>
    <g id="ytick_5">
     <g id="line2d_13">
      <g>
       <use xlink:href="#md89e518acf" x="54.02" y="173.001045" style="stroke: #000000; stroke-width: 0.8"/>
      </g>
     </g>
     <g id="text_14">
      <!-- 0.50 -->
      <g transform="translate(24.754375 176.800264) scale(0.1 -0.1)">
       <use xlink:href="#DejaVuSans-30"/>
       <use xlink:href="#DejaVuSans-2e" x="63.623047"/>
       <use xlink:href="#DejaVuSans-35" x="95.410156"/>
       <use xlink:href="#DejaVuSans-30" x="159.033203"/>
      </g>
     </g>
    </g>
    <g id="ytick_6">
     <g id="line2d_14">
      <g>
       <use xlink:href="#md89e518acf" x="54.02" y="137.071499" style="stroke: #000000; stroke-width: 0.8"/>
      </g>
     </g>
     <g id="text_15">
      <!-- 0.55 -->
      <g transform="translate(24.754375 140.870717) scale(0.1 -0.1)">
       <use xlink:href="#DejaVuSans-30"/>
       <use xlink:href="#DejaVuSans-2e" x="63.623047"/>
       <use xlink:href="#DejaVuSans-35" x="95.410156"/>
       <use xlink:href="#DejaVuSans-35" x="159.033203"/>
      </g>
     </g>
    </g>
    <g id="ytick_7">
     <g id="line2d_15">
      <g>
       <use xlink:href="#md89e518acf" x="54.02" y="101.141952" style="stroke: #000000; stroke-width: 0.8"/>
      </g>
     </g>
     <g id="text_16">
      <!-- 0.60 -->
      <g transform="translate(24.754375 104.94117) scale(0.1 -0.1)">
       <defs>
        <path id="DejaVuSans-36" d="M 2113 2584 
Q 1688 2584 1439 2293 
Q 1191 2003 1191 1497 
Q 1191 994 1439 701 
Q 1688 409 2113 409 
Q 2538 409 2786 701 
Q 3034 994 3034 1497 
Q 3034 2003 2786 2293 
Q 2538 2584 2113 2584 
z
M 3366 4563 
L 3366 3988 
Q 3128 4100 2886 4159 
Q 2644 4219 2406 4219 
Q 1781 4219 1451 3797 
Q 1122 3375 1075 2522 
Q 1259 2794 1537 2939 
Q 1816 3084 2150 3084 
Q 2853 3084 3261 2657 
Q 3669 2231 3669 1497 
Q 3669 778 3244 343 
Q 2819 -91 2113 -91 
Q 1303 -91 875 529 
Q 447 1150 447 2328 
Q 447 3434 972 4092 
Q 1497 4750 2381 4750 
Q 2619 4750 2861 4703 
Q 3103 4656 3366 4563 
z
" transform="scale(0.015625)"/>
       </defs>
       <use xlink:href="#DejaVuSans-30"/>
       <use xlink:href="#DejaVuSans-2e" x="63.623047"/>
       <use xlink:href="#DejaVuSans-36" x="95.410156"/>
       <use xlink:href="#DejaVuSans-30" x="159.033203"/>
      </g>
     </g>
    </g>
    <g id="ytick_8">
     <g id="line2d_16">
      <g>
       <use xlink:href="#md89e518acf" x="54.02" y="65.212405" style="stroke: #000000; stroke-width: 0.8"/>
      </g>
     </g>
     <g id="text_17">
      <!-- 0.65 -->
      <g transform="translate(24.754375 69.011623) scale(0.1 -0.1)">
       <use xlink:href="#DejaVuSans-30"/>
       <use xlink:href="#DejaVuSans-2e" x="63.623047"/>
       <use xlink:href="#DejaVuSans-36" x="95.410156"/>
       <use xlink:href="#DejaVuSans-35" x="159.033203"/>
      </g>
     </g>
    </g>
    <g id="ytick_9">
     <g id="line2d_17">
      <g>
       <use xlink:href="#md89e518acf" x="54.02" y="29.282858" style="stroke: #000000; stroke-width: 0.8"/>
      </g>
     </g>
     <g id="text_18">
      <!-- 0.70 -->
      <g transform="translate(24.754375 33.082077) scale(0.1 -0.1)">
       <use xlink:href="#DejaVuSans-30"/>
       <use xlink:href="#DejaVuSans-2e" x="63.623047"/>
       <use xlink:href="#DejaVuSans-37" x="95.410156"/>
       <use xlink:href="#DejaVuSans-30" x="159.033203"/>
      </g>
     </g>
    </g>
    <g id="text_19">
     <!-- Loss -->
     <g transform="translate(18.674688 183.427188) rotate(-90) scale(0.1 -0.1)">
      <defs>
       <path id="DejaVuSans-4c" d="M 628 4666 
L 1259 4666 
L 1259 531 
L 3531 531 
L 3531 0 
L 628 0 
L 628 4666 
z
" transform="scale(0.015625)"/>
      </defs>
      <use xlink:href="#DejaVuSans-4c"/>
      <use xlink:href="#DejaVuSans-6f" x="53.962891"/>
      <use xlink:href="#DejaVuSans-73" x="115.144531"/>
      <use xlink:href="#DejaVuSans-73" x="167.244141"/>
     </g>
    </g>
   </g>
   <g id="line2d_18">
    <path d="M 67.764545 67.044073 
L 69.23455 148.970709 
L 70.704555 205.969598 
L 72.17456 232.838365 
L 73.644565 235.413801 
L 75.11457 241.145851 
L 76.584575 242.072352 
L 78.054579 246.160664 
L 79.524584 248.486334 
L 80.994589 248.670836 
L 82.464594 252.006382 
L 83.934599 254.432468 
L 85.404604 254.540168 
L 86.874609 257.590135 
L 89.814618 259.190292 
L 91.284623 261.989949 
L 92.754628 259.375331 
L 94.224633 259.02156 
L 95.694638 262.383831 
L 97.164643 264.393356 
L 98.634648 266.946838 
L 100.104652 269.09238 
L 101.574657 268.048729 
L 103.044662 270.433151 
L 104.514667 271.191264 
L 105.984672 271.772873 
L 107.454677 273.200573 
L 108.924682 271.875488 
L 110.394686 271.553303 
L 111.864691 276.8157 
L 113.334696 276.56679 
L 114.804701 279.638582 
L 116.274706 279.029217 
L 117.744711 280.123412 
L 119.214716 278.173064 
L 123.62473 281.115631 
L 125.094735 279.852543 
L 126.56474 281.446594 
L 128.034745 279.243258 
L 130.974754 285.970604 
L 132.444759 284.994962 
L 133.914764 281.690719 
L 135.384769 285.780119 
L 136.854774 285.810331 
L 139.794784 288.137521 
L 141.264789 289.738326 
L 144.204798 290.326269 
L 145.674803 287.931735 
L 147.144808 290.054385 
L 148.614813 291.224895 
L 150.084818 289.422289 
L 151.554823 290.499694 
L 153.024827 294.187194 
L 154.494832 295.616648 
L 155.964837 294.26321 
L 157.434842 293.54752 
L 158.904847 295.125108 
L 160.374852 295.926666 
L 161.844857 297.328691 
L 164.784866 294.748566 
L 166.254871 296.363212 
L 167.724876 296.121965 
L 169.194881 296.693204 
L 170.664886 297.770194 
L 172.134891 297.438521 
L 173.604895 295.719376 
L 175.0749 297.343128 
L 176.544905 299.228439 
L 178.01491 299.612199 
L 179.484915 298.660988 
L 180.95492 300.1344 
L 182.424925 300.556654 
L 183.89493 299.761282 
L 185.364934 299.107718 
L 186.834939 296.247862 
L 188.304944 297.757299 
L 189.774949 299.716087 
L 191.244954 301.233505 
L 192.714959 300.914304 
L 194.184964 301.414137 
L 195.654968 301.473264 
L 197.124973 300.491011 
L 198.594978 298.280996 
L 201.534988 301.00053 
L 203.004993 300.831182 
L 204.474998 300.970273 
L 205.945002 302.410283 
L 207.415007 302.647785 
L 210.355017 302.778062 
L 211.825022 303.177226 
L 213.295027 302.786623 
L 214.765032 303.322877 
L 216.235036 302.837308 
L 217.705041 303.037227 
L 219.175046 303.368296 
L 220.645051 302.864058 
L 222.115056 303.074766 
L 223.585061 303.158002 
L 225.055066 303.801514 
L 226.52507 303.490837 
L 227.995075 303.873628 
L 229.46508 303.814375 
L 230.935085 303.462001 
L 232.40509 303.248249 
L 233.875095 303.434232 
L 235.3451 303.901078 
L 238.285109 304.169163 
L 241.225119 303.912863 
L 242.695124 304.049985 
L 244.165129 303.923398 
L 247.105139 304.266497 
L 248.575143 304.267607 
L 250.045148 303.29411 
L 251.515153 303.133373 
L 254.455163 303.37843 
L 255.925168 303.531616 
L 257.395173 303.240399 
L 258.865177 302.80993 
L 260.335182 303.715023 
L 261.805187 303.589751 
L 263.275192 303.612187 
L 264.745197 303.471477 
L 266.215202 303.110027 
L 267.685207 302.923658 
L 269.155211 303.665098 
L 270.625216 303.553622 
L 272.095221 303.557734 
L 275.035231 304.297506 
L 277.975241 304.471806 
L 280.91525 304.561087 
L 282.385255 304.346711 
L 285.325265 304.537436 
L 288.265275 304.450291 
L 292.675289 304.475388 
L 297.085304 304.342505 
L 298.555309 304.217403 
L 301.495318 304.200557 
L 302.965323 304.461666 
L 304.435328 304.388856 
L 305.905333 304.590092 
L 307.375338 304.210961 
L 308.845343 304.429151 
L 310.315348 303.510999 
L 311.785352 304.484169 
L 313.255357 304.321264 
L 314.725362 304.619214 
L 317.665372 304.760311 
L 325.015396 304.742397 
L 327.955406 304.773559 
L 342.655455 304.800534 
L 342.655455 304.800534 
" clip-path="url(#p4a67b01f32)" style="fill: none; stroke: #1f77b4; stroke-width: 1.5; stroke-linecap: square"/>
   </g>
   <g id="line2d_19">
    <path d="M 67.764545 40.114545 
L 69.23455 76.575234 
L 70.704555 139.14528 
L 72.17456 171.349414 
L 73.644565 222.548757 
L 75.11457 211.122415 
L 76.584575 227.963426 
L 78.054579 230.697514 
L 79.524584 221.77666 
L 80.994589 217.794612 
L 82.464594 237.113689 
L 83.934599 238.594719 
L 85.404604 238.268399 
L 86.874609 230.122148 
L 88.344614 235.392756 
L 89.814618 214.867044 
L 91.284623 243.197472 
L 92.754628 225.142465 
L 94.224633 244.160799 
L 95.694638 249.451666 
L 97.164643 248.224871 
L 98.634648 237.052504 
L 100.104652 248.370346 
L 101.574657 242.53316 
L 103.044662 243.369865 
L 104.514667 231.569455 
L 105.984672 239.510365 
L 107.454677 250.551782 
L 108.924682 246.635373 
L 110.394686 247.36654 
L 111.864691 243.423533 
L 113.334696 245.737711 
L 114.804701 247.634781 
L 116.274706 235.403854 
L 117.744711 236.88561 
L 119.214716 240.986377 
L 120.68472 246.205696 
L 122.154725 231.537962 
L 123.62473 232.868038 
L 125.094735 229.923886 
L 126.56474 227.627626 
L 129.50475 245.969976 
L 130.974754 230.113268 
L 132.444759 240.516431 
L 133.914764 237.611642 
L 135.384769 239.984344 
L 136.854774 234.354952 
L 138.324779 227.156241 
L 139.794784 241.060577 
L 141.264789 237.898038 
L 142.734793 227.511225 
L 144.204798 236.563872 
L 145.674803 239.285493 
L 147.144808 242.538354 
L 148.614813 237.4547 
L 150.084818 235.904914 
L 151.554823 241.248209 
L 153.024827 244.089373 
L 154.494832 232.963273 
L 155.964837 235.167694 
L 157.434842 243.380692 
L 158.904847 244.537627 
L 160.374852 241.654917 
L 161.844857 237.649914 
L 163.314861 244.626637 
L 164.784866 225.687196 
L 166.254871 229.747861 
L 167.724876 238.642433 
L 169.194881 244.168147 
L 172.134891 239.372995 
L 173.604895 237.995246 
L 175.0749 240.06768 
L 176.544905 244.315315 
L 178.01491 237.992048 
L 179.484915 234.442861 
L 180.95492 238.244718 
L 182.424925 240.203041 
L 183.89493 239.904994 
L 185.364934 233.655461 
L 186.834939 226.420802 
L 188.304944 239.125992 
L 189.774949 240.645594 
L 191.244954 242.575201 
L 192.714959 230.137289 
L 194.184964 241.003314 
L 195.654968 249.590992 
L 197.124973 242.641563 
L 198.594978 228.166789 
L 200.064983 231.522695 
L 201.534988 239.983771 
L 203.004993 242.416723 
L 204.474998 236.813082 
L 205.945002 240.779444 
L 207.415007 230.812432 
L 208.885012 239.215933 
L 210.355017 225.429492 
L 211.825022 240.974548 
L 213.295027 237.126864 
L 214.765032 240.018029 
L 216.235036 242.462957 
L 217.705041 243.381242 
L 219.175046 235.941085 
L 220.645051 237.892634 
L 222.115056 240.056841 
L 223.585061 238.751472 
L 225.055066 241.564962 
L 226.52507 238.731934 
L 227.995075 243.73857 
L 229.46508 234.215581 
L 230.935085 242.412244 
L 232.40509 237.794182 
L 233.875095 237.887409 
L 235.3451 237.142757 
L 236.815105 239.797759 
L 238.285109 241.929675 
L 239.755114 240.990712 
L 241.225119 236.581866 
L 242.695124 243.584774 
L 244.165129 242.524258 
L 245.635134 237.701126 
L 247.105139 238.200851 
L 248.575143 240.000518 
L 250.045148 240.254163 
L 251.515153 239.350707 
L 252.985158 244.252841 
L 254.455163 236.283831 
L 255.925168 235.430402 
L 257.395173 240.967217 
L 258.865177 243.947929 
L 260.335182 235.202604 
L 261.805187 237.267458 
L 263.275192 238.077047 
L 264.745197 238.556858 
L 266.215202 238.759753 
L 267.685207 240.706191 
L 269.155211 239.930429 
L 270.625216 240.933718 
L 272.095221 241.258115 
L 273.565226 239.417709 
L 275.035231 242.981337 
L 276.505236 245.739244 
L 277.975241 243.13268 
L 279.445246 244.263953 
L 280.91525 243.964527 
L 282.385255 241.074783 
L 283.85526 241.907665 
L 285.325265 244.65424 
L 286.79527 242.102812 
L 288.265275 241.322669 
L 289.73528 242.69541 
L 291.205284 241.79958 
L 292.675289 241.849507 
L 294.145294 238.75399 
L 295.615299 236.459233 
L 297.085304 242.299429 
L 298.555309 240.51111 
L 300.025314 239.782073 
L 301.495318 244.577462 
L 302.965323 242.04261 
L 304.435328 243.769594 
L 305.905333 240.916359 
L 307.375338 243.319577 
L 308.845343 237.765473 
L 310.315348 239.628499 
L 311.785352 242.012935 
L 313.255357 241.316171 
L 314.725362 239.94768 
L 316.195367 241.54619 
L 317.665372 242.012525 
L 319.135377 242.958063 
L 320.605382 242.479114 
L 322.075386 241.393986 
L 323.545391 241.469117 
L 325.015396 242.192489 
L 326.485401 240.065521 
L 327.955406 240.310626 
L 329.425411 240.846161 
L 330.895416 241.242596 
L 332.365421 240.188921 
L 333.835425 240.812272 
L 335.30543 240.575798 
L 336.775435 240.607643 
L 338.24544 241.241775 
L 339.715445 240.965746 
L 341.18545 240.189578 
L 342.655455 239.792769 
L 342.655455 239.792769 
" clip-path="url(#p4a67b01f32)" style="fill: none; stroke: #ff7f0e; stroke-width: 1.5; stroke-linecap: square"/>
   </g>
   <g id="patch_3">
    <path d="M 54.02 318.04 
L 54.02 26.88 
" style="fill: none; stroke: #000000; stroke-width: 0.8; stroke-linejoin: miter; stroke-linecap: square"/>
   </g>
   <g id="patch_4">
    <path d="M 356.4 318.04 
L 356.4 26.88 
" style="fill: none; stroke: #000000; stroke-width: 0.8; stroke-linejoin: miter; stroke-linecap: square"/>
   </g>
   <g id="patch_5">
    <path d="M 54.02 318.04 
L 356.4 318.04 
" style="fill: none; stroke: #000000; stroke-width: 0.8; stroke-linejoin: miter; stroke-linecap: square"/>
   </g>
   <g id="patch_6">
    <path d="M 54.02 26.88 
L 356.4 26.88 
" style="fill: none; stroke: #000000; stroke-width: 0.8; stroke-linejoin: miter; stroke-linecap: square"/>
   </g>
   <g id="text_20">
    <!-- Loss -->
    <g transform="translate(192.049375 20.88) scale(0.12 -0.12)">
     <use xlink:href="#DejaVuSans-4c"/>
     <use xlink:href="#DejaVuSans-6f" x="53.962891"/>
     <use xlink:href="#DejaVuSans-73" x="115.144531"/>
     <use xlink:href="#DejaVuSans-73" x="167.244141"/>
    </g>
   </g>
   <g id="legend_1">
    <g id="patch_7">
     <path d="M 268.3 64.23625 
L 349.4 64.23625 
Q 351.4 64.23625 351.4 62.23625 
L 351.4 33.88 
Q 351.4 31.88 349.4 31.88 
L 268.3 31.88 
Q 266.3 31.88 266.3 33.88 
L 266.3 62.23625 
Q 266.3 64.23625 268.3 64.23625 
z
" style="fill: #ffffff; opacity: 0.8; stroke: #cccccc; stroke-linejoin: miter"/>
    </g>
    <g id="line2d_20">
     <path d="M 270.3 39.978437 
L 280.3 39.978437 
L 290.3 39.978437 
" style="fill: none; stroke: #1f77b4; stroke-width: 1.5; stroke-linecap: square"/>
    </g>
    <g id="text_21">
     <!-- Train Loss -->
     <g transform="translate(298.3 43.478437) scale(0.1 -0.1)">
      <defs>
       <path id="DejaVuSans-54" d="M -19 4666 
L 3928 4666 
L 3928 4134 
L 2272 4134 
L 2272 0 
L 1638 0 
L 1638 4134 
L -19 4134 
L -19 4666 
z
" transform="scale(0.015625)"/>
       <path id="DejaVuSans-72" d="M 2631 2963 
Q 2534 3019 2420 3045 
Q 2306 3072 2169 3072 
Q 1681 3072 1420 2755 
Q 1159 2438 1159 1844 
L 1159 0 
L 581 0 
L 581 3500 
L 1159 3500 
L 1159 2956 
Q 1341 3275 1631 3429 
Q 1922 3584 2338 3584 
Q 2397 3584 2469 3576 
Q 2541 3569 2628 3553 
L 2631 2963 
z
" transform="scale(0.015625)"/>
       <path id="DejaVuSans-61" d="M 2194 1759 
Q 1497 1759 1228 1600 
Q 959 1441 959 1056 
Q 959 750 1161 570 
Q 1363 391 1709 391 
Q 2188 391 2477 730 
Q 2766 1069 2766 1631 
L 2766 1759 
L 2194 1759 
z
M 3341 1997 
L 3341 0 
L 2766 0 
L 2766 531 
Q 2569 213 2275 61 
Q 1981 -91 1556 -91 
Q 1019 -91 701 211 
Q 384 513 384 1019 
Q 384 1609 779 1909 
Q 1175 2209 1959 2209 
L 2766 2209 
L 2766 2266 
Q 2766 2663 2505 2880 
Q 2244 3097 1772 3097 
Q 1472 3097 1187 3025 
Q 903 2953 641 2809 
L 641 3341 
Q 956 3463 1253 3523 
Q 1550 3584 1831 3584 
Q 2591 3584 2966 3190 
Q 3341 2797 3341 1997 
z
" transform="scale(0.015625)"/>
       <path id="DejaVuSans-69" d="M 603 3500 
L 1178 3500 
L 1178 0 
L 603 0 
L 603 3500 
z
M 603 4863 
L 1178 4863 
L 1178 4134 
L 603 4134 
L 603 4863 
z
" transform="scale(0.015625)"/>
       <path id="DejaVuSans-6e" d="M 3513 2113 
L 3513 0 
L 2938 0 
L 2938 2094 
Q 2938 2591 2744 2837 
Q 2550 3084 2163 3084 
Q 1697 3084 1428 2787 
Q 1159 2491 1159 1978 
L 1159 0 
L 581 0 
L 581 3500 
L 1159 3500 
L 1159 2956 
Q 1366 3272 1645 3428 
Q 1925 3584 2291 3584 
Q 2894 3584 3203 3211 
Q 3513 2838 3513 2113 
z
" transform="scale(0.015625)"/>
       <path id="DejaVuSans-20" transform="scale(0.015625)"/>
      </defs>
      <use xlink:href="#DejaVuSans-54"/>
      <use xlink:href="#DejaVuSans-72" x="46.333984"/>
      <use xlink:href="#DejaVuSans-61" x="87.447266"/>
      <use xlink:href="#DejaVuSans-69" x="148.726562"/>
      <use xlink:href="#DejaVuSans-6e" x="176.509766"/>
      <use xlink:href="#DejaVuSans-20" x="239.888672"/>
      <use xlink:href="#DejaVuSans-4c" x="271.675781"/>
      <use xlink:href="#DejaVuSans-6f" x="325.638672"/>
      <use xlink:href="#DejaVuSans-73" x="386.820312"/>
      <use xlink:href="#DejaVuSans-73" x="438.919922"/>
     </g>
    </g>
    <g id="line2d_21">
     <path d="M 270.3 54.656563 
L 280.3 54.656563 
L 290.3 54.656563 
" style="fill: none; stroke: #ff7f0e; stroke-width: 1.5; stroke-linecap: square"/>
    </g>
    <g id="text_22">
     <!-- Val Loss -->
     <g transform="translate(298.3 58.156563) scale(0.1 -0.1)">
      <defs>
       <path id="DejaVuSans-56" d="M 1831 0 
L 50 4666 
L 709 4666 
L 2188 738 
L 3669 4666 
L 4325 4666 
L 2547 0 
L 1831 0 
z
" transform="scale(0.015625)"/>
       <path id="DejaVuSans-6c" d="M 603 4863 
L 1178 4863 
L 1178 0 
L 603 0 
L 603 4863 
z
" transform="scale(0.015625)"/>
      </defs>
      <use xlink:href="#DejaVuSans-56"/>
      <use xlink:href="#DejaVuSans-61" x="60.658203"/>
      <use xlink:href="#DejaVuSans-6c" x="121.9375"/>
      <use xlink:href="#DejaVuSans-20" x="149.720703"/>
      <use xlink:href="#DejaVuSans-4c" x="181.507812"/>
      <use xlink:href="#DejaVuSans-6f" x="235.470703"/>
      <use xlink:href="#DejaVuSans-73" x="296.652344"/>
      <use xlink:href="#DejaVuSans-73" x="348.751953"/>
     </g>
    </g>
   </g>
  </g>
  <g id="axes_2">
   <g id="patch_8">
    <path d="M 410.42 318.04 
L 712.8 318.04 
L 712.8 26.88 
L 410.42 26.88 
z
" style="fill: #ffffff"/>
   </g>
   <g id="matplotlib.axis_3">
    <g id="xtick_9">
     <g id="line2d_22">
      <g>
       <use xlink:href="#md6d8e4a84a" x="422.694541" y="318.04" style="stroke: #000000; stroke-width: 0.8"/>
      </g>
     </g>
     <g id="text_23">
      <!-- 0 -->
      <g transform="translate(419.513291 332.638438) scale(0.1 -0.1)">
       <use xlink:href="#DejaVuSans-30"/>
      </g>
     </g>
    </g>
    <g id="xtick_10">
     <g id="line2d_23">
      <g>
       <use xlink:href="#md6d8e4a84a" x="459.444662" y="318.04" style="stroke: #000000; stroke-width: 0.8"/>
      </g>
     </g>
     <g id="text_24">
      <!-- 25 -->
      <g transform="translate(453.082162 332.638438) scale(0.1 -0.1)">
       <use xlink:href="#DejaVuSans-32"/>
       <use xlink:href="#DejaVuSans-35" x="63.623047"/>
      </g>
     </g>
    </g>
    <g id="xtick_11">
     <g id="line2d_24">
      <g>
       <use xlink:href="#md6d8e4a84a" x="496.194784" y="318.04" style="stroke: #000000; stroke-width: 0.8"/>
      </g>
     </g>
     <g id="text_25">
      <!-- 50 -->
      <g transform="translate(489.832284 332.638438) scale(0.1 -0.1)">
       <use xlink:href="#DejaVuSans-35"/>
       <use xlink:href="#DejaVuSans-30" x="63.623047"/>
      </g>
     </g>
    </g>
    <g id="xtick_12">
     <g id="line2d_25">
      <g>
       <use xlink:href="#md6d8e4a84a" x="532.944905" y="318.04" style="stroke: #000000; stroke-width: 0.8"/>
      </g>
     </g>
     <g id="text_26">
      <!-- 75 -->
      <g transform="translate(526.582405 332.638438) scale(0.1 -0.1)">
       <use xlink:href="#DejaVuSans-37"/>
       <use xlink:href="#DejaVuSans-35" x="63.623047"/>
      </g>
     </g>
    </g>
    <g id="xtick_13">
     <g id="line2d_26">
      <g>
       <use xlink:href="#md6d8e4a84a" x="569.695027" y="318.04" style="stroke: #000000; stroke-width: 0.8"/>
      </g>
     </g>
     <g id="text_27">
      <!-- 100 -->
      <g transform="translate(560.151277 332.638438) scale(0.1 -0.1)">
       <use xlink:href="#DejaVuSans-31"/>
       <use xlink:href="#DejaVuSans-30" x="63.623047"/>
       <use xlink:href="#DejaVuSans-30" x="127.246094"/>
      </g>
     </g>
    </g>
    <g id="xtick_14">
     <g id="line2d_27">
      <g>
       <use xlink:href="#md6d8e4a84a" x="606.445148" y="318.04" style="stroke: #000000; stroke-width: 0.8"/>
      </g>
     </g>
     <g id="text_28">
      <!-- 125 -->
      <g transform="translate(596.901398 332.638438) scale(0.1 -0.1)">
       <use xlink:href="#DejaVuSans-31"/>
       <use xlink:href="#DejaVuSans-32" x="63.623047"/>
       <use xlink:href="#DejaVuSans-35" x="127.246094"/>
      </g>
     </g>
    </g>
    <g id="xtick_15">
     <g id="line2d_28">
      <g>
       <use xlink:href="#md6d8e4a84a" x="643.19527" y="318.04" style="stroke: #000000; stroke-width: 0.8"/>
      </g>
     </g>
     <g id="text_29">
      <!-- 150 -->
      <g transform="translate(633.65152 332.638438) scale(0.1 -0.1)">
       <use xlink:href="#DejaVuSans-31"/>
       <use xlink:href="#DejaVuSans-35" x="63.623047"/>
       <use xlink:href="#DejaVuSans-30" x="127.246094"/>
      </g>
     </g>
    </g>
    <g id="xtick_16">
     <g id="line2d_29">
      <g>
       <use xlink:href="#md6d8e4a84a" x="679.945391" y="318.04" style="stroke: #000000; stroke-width: 0.8"/>
      </g>
     </g>
     <g id="text_30">
      <!-- 175 -->
      <g transform="translate(670.401641 332.638438) scale(0.1 -0.1)">
       <use xlink:href="#DejaVuSans-31"/>
       <use xlink:href="#DejaVuSans-37" x="63.623047"/>
       <use xlink:href="#DejaVuSans-35" x="127.246094"/>
      </g>
     </g>
    </g>
    <g id="text_31">
     <!-- Epochs -->
     <g transform="translate(543.694375 346.316563) scale(0.1 -0.1)">
      <use xlink:href="#DejaVuSans-45"/>
      <use xlink:href="#DejaVuSans-70" x="63.183594"/>
      <use xlink:href="#DejaVuSans-6f" x="126.660156"/>
      <use xlink:href="#DejaVuSans-63" x="187.841797"/>
      <use xlink:href="#DejaVuSans-68" x="242.822266"/>
      <use xlink:href="#DejaVuSans-73" x="306.201172"/>
     </g>
    </g>
   </g>
   <g id="matplotlib.axis_4">
    <g id="ytick_10">
     <g id="line2d_30">
      <g>
       <use xlink:href="#md89e518acf" x="410.42" y="310.921123" style="stroke: #000000; stroke-width: 0.8"/>
      </g>
     </g>
     <g id="text_32">
      <!-- 0.60 -->
      <g transform="translate(381.154375 314.720342) scale(0.1 -0.1)">
       <use xlink:href="#DejaVuSans-30"/>
       <use xlink:href="#DejaVuSans-2e" x="63.623047"/>
       <use xlink:href="#DejaVuSans-36" x="95.410156"/>
       <use xlink:href="#DejaVuSans-30" x="159.033203"/>
      </g>
     </g>
    </g>
    <g id="ytick_11">
     <g id="line2d_31">
      <g>
       <use xlink:href="#md89e518acf" x="410.42" y="276.790884" style="stroke: #000000; stroke-width: 0.8"/>
      </g>
     </g>
     <g id="text_33">
      <!-- 0.65 -->
      <g transform="translate(381.154375 280.590103) scale(0.1 -0.1)">
       <use xlink:href="#DejaVuSans-30"/>
       <use xlink:href="#DejaVuSans-2e" x="63.623047"/>
       <use xlink:href="#DejaVuSans-36" x="95.410156"/>
       <use xlink:href="#DejaVuSans-35" x="159.033203"/>
      </g>
     </g>
    </g>
    <g id="ytick_12">
     <g id="line2d_32">
      <g>
       <use xlink:href="#md89e518acf" x="410.42" y="242.660645" style="stroke: #000000; stroke-width: 0.8"/>
      </g>
     </g>
     <g id="text_34">
      <!-- 0.70 -->
      <g transform="translate(381.154375 246.459864) scale(0.1 -0.1)">
       <use xlink:href="#DejaVuSans-30"/>
       <use xlink:href="#DejaVuSans-2e" x="63.623047"/>
       <use xlink:href="#DejaVuSans-37" x="95.410156"/>
       <use xlink:href="#DejaVuSans-30" x="159.033203"/>
      </g>
     </g>
    </g>
    <g id="ytick_13">
     <g id="line2d_33">
      <g>
       <use xlink:href="#md89e518acf" x="410.42" y="208.530406" style="stroke: #000000; stroke-width: 0.8"/>
      </g>
     </g>
     <g id="text_35">
      <!-- 0.75 -->
      <g transform="translate(381.154375 212.329625) scale(0.1 -0.1)">
       <use xlink:href="#DejaVuSans-30"/>
       <use xlink:href="#DejaVuSans-2e" x="63.623047"/>
       <use xlink:href="#DejaVuSans-37" x="95.410156"/>
       <use xlink:href="#DejaVuSans-35" x="159.033203"/>
      </g>
     </g>
    </g>
    <g id="ytick_14">
     <g id="line2d_34">
      <g>
       <use xlink:href="#md89e518acf" x="410.42" y="174.400167" style="stroke: #000000; stroke-width: 0.8"/>
      </g>
     </g>
     <g id="text_36">
      <!-- 0.80 -->
      <g transform="translate(381.154375 178.199386) scale(0.1 -0.1)">
       <defs>
        <path id="DejaVuSans-38" d="M 2034 2216 
Q 1584 2216 1326 1975 
Q 1069 1734 1069 1313 
Q 1069 891 1326 650 
Q 1584 409 2034 409 
Q 2484 409 2743 651 
Q 3003 894 3003 1313 
Q 3003 1734 2745 1975 
Q 2488 2216 2034 2216 
z
M 1403 2484 
Q 997 2584 770 2862 
Q 544 3141 544 3541 
Q 544 4100 942 4425 
Q 1341 4750 2034 4750 
Q 2731 4750 3128 4425 
Q 3525 4100 3525 3541 
Q 3525 3141 3298 2862 
Q 3072 2584 2669 2484 
Q 3125 2378 3379 2068 
Q 3634 1759 3634 1313 
Q 3634 634 3220 271 
Q 2806 -91 2034 -91 
Q 1263 -91 848 271 
Q 434 634 434 1313 
Q 434 1759 690 2068 
Q 947 2378 1403 2484 
z
M 1172 3481 
Q 1172 3119 1398 2916 
Q 1625 2713 2034 2713 
Q 2441 2713 2670 2916 
Q 2900 3119 2900 3481 
Q 2900 3844 2670 4047 
Q 2441 4250 2034 4250 
Q 1625 4250 1398 4047 
Q 1172 3844 1172 3481 
z
" transform="scale(0.015625)"/>
       </defs>
       <use xlink:href="#DejaVuSans-30"/>
       <use xlink:href="#DejaVuSans-2e" x="63.623047"/>
       <use xlink:href="#DejaVuSans-38" x="95.410156"/>
       <use xlink:href="#DejaVuSans-30" x="159.033203"/>
      </g>
     </g>
    </g>
    <g id="ytick_15">
     <g id="line2d_35">
      <g>
       <use xlink:href="#md89e518acf" x="410.42" y="140.269928" style="stroke: #000000; stroke-width: 0.8"/>
      </g>
     </g>
     <g id="text_37">
      <!-- 0.85 -->
      <g transform="translate(381.154375 144.069147) scale(0.1 -0.1)">
       <use xlink:href="#DejaVuSans-30"/>
       <use xlink:href="#DejaVuSans-2e" x="63.623047"/>
       <use xlink:href="#DejaVuSans-38" x="95.410156"/>
       <use xlink:href="#DejaVuSans-35" x="159.033203"/>
      </g>
     </g>
    </g>
    <g id="ytick_16">
     <g id="line2d_36">
      <g>
       <use xlink:href="#md89e518acf" x="410.42" y="106.139689" style="stroke: #000000; stroke-width: 0.8"/>
      </g>
     </g>
     <g id="text_38">
      <!-- 0.90 -->
      <g transform="translate(381.154375 109.938908) scale(0.1 -0.1)">
       <defs>
        <path id="DejaVuSans-39" d="M 703 97 
L 703 672 
Q 941 559 1184 500 
Q 1428 441 1663 441 
Q 2288 441 2617 861 
Q 2947 1281 2994 2138 
Q 2813 1869 2534 1725 
Q 2256 1581 1919 1581 
Q 1219 1581 811 2004 
Q 403 2428 403 3163 
Q 403 3881 828 4315 
Q 1253 4750 1959 4750 
Q 2769 4750 3195 4129 
Q 3622 3509 3622 2328 
Q 3622 1225 3098 567 
Q 2575 -91 1691 -91 
Q 1453 -91 1209 -44 
Q 966 3 703 97 
z
M 1959 2075 
Q 2384 2075 2632 2365 
Q 2881 2656 2881 3163 
Q 2881 3666 2632 3958 
Q 2384 4250 1959 4250 
Q 1534 4250 1286 3958 
Q 1038 3666 1038 3163 
Q 1038 2656 1286 2365 
Q 1534 2075 1959 2075 
z
" transform="scale(0.015625)"/>
       </defs>
       <use xlink:href="#DejaVuSans-30"/>
       <use xlink:href="#DejaVuSans-2e" x="63.623047"/>
       <use xlink:href="#DejaVuSans-39" x="95.410156"/>
       <use xlink:href="#DejaVuSans-30" x="159.033203"/>
      </g>
     </g>
    </g>
    <g id="ytick_17">
     <g id="line2d_37">
      <g>
       <use xlink:href="#md89e518acf" x="410.42" y="72.00945" style="stroke: #000000; stroke-width: 0.8"/>
      </g>
     </g>
     <g id="text_39">
      <!-- 0.95 -->
      <g transform="translate(381.154375 75.808668) scale(0.1 -0.1)">
       <use xlink:href="#DejaVuSans-30"/>
       <use xlink:href="#DejaVuSans-2e" x="63.623047"/>
       <use xlink:href="#DejaVuSans-39" x="95.410156"/>
       <use xlink:href="#DejaVuSans-35" x="159.033203"/>
      </g>
     </g>
    </g>
    <g id="ytick_18">
     <g id="line2d_38">
      <g>
       <use xlink:href="#md89e518acf" x="410.42" y="37.879211" style="stroke: #000000; stroke-width: 0.8"/>
      </g>
     </g>
     <g id="text_40">
      <!-- 1.00 -->
      <g transform="translate(381.154375 41.678429) scale(0.1 -0.1)">
       <use xlink:href="#DejaVuSans-31"/>
       <use xlink:href="#DejaVuSans-2e" x="63.623047"/>
       <use xlink:href="#DejaVuSans-30" x="95.410156"/>
       <use xlink:href="#DejaVuSans-30" x="159.033203"/>
      </g>
     </g>
    </g>
    <g id="text_41">
     <!-- Accuracy -->
     <g transform="translate(375.074687 195.288125) rotate(-90) scale(0.1 -0.1)">
      <defs>
       <path id="DejaVuSans-41" d="M 2188 4044 
L 1331 1722 
L 3047 1722 
L 2188 4044 
z
M 1831 4666 
L 2547 4666 
L 4325 0 
L 3669 0 
L 3244 1197 
L 1141 1197 
L 716 0 
L 50 0 
L 1831 4666 
z
" transform="scale(0.015625)"/>
       <path id="DejaVuSans-75" d="M 544 1381 
L 544 3500 
L 1119 3500 
L 1119 1403 
Q 1119 906 1312 657 
Q 1506 409 1894 409 
Q 2359 409 2629 706 
Q 2900 1003 2900 1516 
L 2900 3500 
L 3475 3500 
L 3475 0 
L 2900 0 
L 2900 538 
Q 2691 219 2414 64 
Q 2138 -91 1772 -91 
Q 1169 -91 856 284 
Q 544 659 544 1381 
z
M 1991 3584 
L 1991 3584 
z
" transform="scale(0.015625)"/>
       <path id="DejaVuSans-79" d="M 2059 -325 
Q 1816 -950 1584 -1140 
Q 1353 -1331 966 -1331 
L 506 -1331 
L 506 -850 
L 844 -850 
Q 1081 -850 1212 -737 
Q 1344 -625 1503 -206 
L 1606 56 
L 191 3500 
L 800 3500 
L 1894 763 
L 2988 3500 
L 3597 3500 
L 2059 -325 
z
" transform="scale(0.015625)"/>
      </defs>
      <use xlink:href="#DejaVuSans-41"/>
      <use xlink:href="#DejaVuSans-63" x="66.658203"/>
      <use xlink:href="#DejaVuSans-63" x="121.638672"/>
      <use xlink:href="#DejaVuSans-75" x="176.619141"/>
      <use xlink:href="#DejaVuSans-72" x="239.998047"/>
      <use xlink:href="#DejaVuSans-61" x="281.111328"/>
      <use xlink:href="#DejaVuSans-63" x="342.390625"/>
      <use xlink:href="#DejaVuSans-79" x="397.371094"/>
     </g>
    </g>
   </g>
   <g id="line2d_39">
    <path d="M 424.164545 300.384967 
L 425.63455 192.192166 
L 427.104555 134.250501 
L 428.57456 109.030655 
L 430.044565 107.499889 
L 431.51457 101.685572 
L 432.984575 101.498454 
L 434.454579 98.695289 
L 435.924584 95.297667 
L 437.394589 96.005115 
L 438.864594 91.861181 
L 440.334599 88.968776 
L 441.804604 89.307746 
L 443.274609 86.911922 
L 444.744614 85.862625 
L 446.214618 85.184683 
L 447.684623 82.013041 
L 449.154628 85.140063 
L 450.624633 85.865503 
L 452.094638 82.44701 
L 453.564643 79.982816 
L 455.034648 76.814052 
L 456.504652 75.830246 
L 457.974657 75.818011 
L 459.444662 72.708981 
L 460.914667 73.104087 
L 462.384672 72.625498 
L 463.854677 70.542016 
L 465.324682 71.573322 
L 466.794686 72.964469 
L 468.264691 67.284012 
L 469.734696 67.489122 
L 471.204701 64.893945 
L 472.674706 65.119926 
L 474.144711 64.775198 
L 475.614716 65.925251 
L 477.08472 65.940364 
L 478.554725 64.136119 
L 480.02473 62.839971 
L 481.494735 64.599595 
L 482.96474 63.1372 
L 484.434745 64.575846 
L 485.90475 61.769802 
L 487.374754 58.033209 
L 488.844759 59.305608 
L 490.314764 61.903663 
L 491.784769 58.648538 
L 494.724779 57.620111 
L 496.194784 56.570813 
L 497.664789 54.085748 
L 500.604798 54.017379 
L 502.074803 56.799672 
L 503.544808 53.96988 
L 505.014813 53.063079 
L 506.484818 55.343034 
L 507.954823 54.335478 
L 509.424827 49.733826 
L 510.894832 48.36355 
L 512.364837 49.983556 
L 513.834842 50.756496 
L 515.304847 49.002629 
L 516.774852 48.13757 
L 518.244857 47.019902 
L 519.714861 48.479419 
L 521.184866 49.528717 
L 522.654871 48.43192 
L 524.124876 47.792842 
L 525.594881 47.450992 
L 527.064886 46.380824 
L 528.534891 47.022781 
L 530.004895 48.937137 
L 531.4749 47.132893 
L 532.944905 44.968806 
L 534.41491 44.968806 
L 535.884915 45.857615 
L 537.35492 44.377227 
L 538.824925 43.714399 
L 541.764934 45.610763 
L 543.234939 48.203061 
L 544.704944 47.13865 
L 546.174949 44.876687 
L 547.644954 43.28043 
L 549.114959 44.079998 
L 550.584964 43.09907 
L 552.054968 43.143691 
L 553.524973 44.332607 
L 554.994978 46.544192 
L 556.464983 45.150166 
L 557.934988 43.3488 
L 559.404993 43.898638 
L 560.874998 43.259559 
L 562.345002 42.118142 
L 563.815007 41.868413 
L 566.755017 42.028902 
L 568.225022 41.502814 
L 569.695027 41.731673 
L 571.165032 41.321454 
L 572.635036 41.847542 
L 574.105041 41.707923 
L 575.575046 41.297704 
L 577.045051 41.663303 
L 578.515056 41.639553 
L 579.985061 41.434444 
L 581.455066 40.819115 
L 582.92507 41.160964 
L 584.395075 40.819115 
L 585.86508 40.979604 
L 588.80509 41.526563 
L 590.275095 41.366074 
L 591.7451 40.774495 
L 594.685109 40.637755 
L 597.625119 40.774495 
L 599.095124 40.706125 
L 600.565129 40.911234 
L 602.035134 40.661504 
L 603.505139 40.545635 
L 604.975143 40.569385 
L 606.445148 41.642432 
L 612.325168 41.276833 
L 613.795173 41.642432 
L 615.265177 41.802921 
L 616.735182 40.955855 
L 621.145197 41.253084 
L 622.615202 41.731673 
L 624.085207 41.800043 
L 625.555211 41.092594 
L 627.025216 41.348082 
L 629.965226 40.866614 
L 631.435231 40.477266 
L 637.31525 40.340526 
L 638.785255 40.616884 
L 640.25526 40.408896 
L 641.725265 40.340526 
L 643.19527 40.456395 
L 644.665275 40.340526 
L 649.075289 40.388025 
L 652.015299 40.408896 
L 653.485304 40.477266 
L 654.955309 40.706125 
L 656.425314 40.548514 
L 657.895318 40.661504 
L 660.835328 40.364275 
L 662.305333 40.364275 
L 663.775338 40.569385 
L 665.245343 40.388025 
L 666.715348 41.366074 
L 668.185352 40.319655 
L 669.655357 40.545635 
L 671.125362 40.272156 
L 672.595367 40.135416 
L 678.475386 40.182915 
L 679.945391 40.135416 
L 681.415396 40.203786 
L 684.355406 40.159166 
L 699.055455 40.114545 
L 699.055455 40.114545 
" clip-path="url(#p45bca630a4)" style="fill: none; stroke: #1f77b4; stroke-width: 1.5; stroke-linecap: square"/>
   </g>
   <g id="line2d_40">
    <path d="M 424.164545 304.805455 
L 425.63455 274.577626 
L 427.104555 210.403997 
L 428.57456 172.940518 
L 430.044565 121.685906 
L 431.51457 133.123575 
L 432.984575 115.401656 
L 434.454579 113.094092 
L 435.924584 121.982175 
L 437.394589 125.950517 
L 438.864594 106.334142 
L 440.334599 105.562172 
L 441.804604 106.74725 
L 443.274609 115.167978 
L 444.744614 110.365075 
L 446.214618 132.351606 
L 447.684623 102.724662 
L 449.154628 119.190566 
L 450.624633 99.574191 
L 452.094638 93.056264 
L 453.564643 98.038597 
L 455.034648 106.334142 
L 456.504652 96.494658 
L 457.974657 103.730309 
L 459.444662 101.8901 
L 460.914667 112.914661 
L 462.384672 107.940673 
L 463.854677 93.235694 
L 465.324682 96.611497 
L 466.794686 96.790928 
L 468.264691 101.180723 
L 471.204701 97.087197 
L 472.674706 108.291189 
L 474.144711 106.74725 
L 475.614716 104.026578 
L 477.08472 96.08155 
L 478.554725 111.846422 
L 480.02473 109.296836 
L 481.494735 114.512847 
L 482.96474 116.353056 
L 484.434745 107.69865 
L 485.90475 98.334867 
L 487.374754 113.9829 
L 488.844759 103.847148 
L 490.314764 108.650051 
L 491.784769 104.735956 
L 494.724779 118.606373 
L 496.194784 104.080825 
L 497.664789 106.809842 
L 499.134793 116.883003 
L 500.604798 107.402381 
L 502.074803 103.550878 
L 503.544808 103.730309 
L 505.014813 108.291189 
L 506.484818 107.043519 
L 507.954823 104.502279 
L 509.424827 101.476992 
L 510.894832 111.020206 
L 512.364837 108.408028 
L 513.834842 101.476992 
L 515.304847 98.038597 
L 516.774852 103.667717 
L 518.244857 105.741603 
L 519.714861 100.884453 
L 521.184866 118.481189 
L 524.124876 107.168703 
L 525.594881 101.773261 
L 527.064886 102.778908 
L 528.534891 105.149064 
L 530.004895 106.693003 
L 531.4749 104.556525 
L 532.944905 98.451706 
L 534.41491 106.630411 
L 535.884915 110.068806 
L 537.35492 106.872434 
L 538.824925 103.371447 
L 540.29493 104.673364 
L 541.764934 109.951967 
L 543.234939 117.951242 
L 544.704944 104.977979 
L 546.174949 101.8901 
L 547.644954 101.539584 
L 549.114959 113.210931 
L 550.584964 102.248962 
L 552.054968 92.876833 
L 553.524973 101.11813 
L 554.994978 116.469895 
L 556.464983 113.740878 
L 557.934988 104.735956 
L 559.404993 100.705022 
L 560.874998 105.562172 
L 562.345002 103.667717 
L 563.815007 110.544506 
L 565.285012 104.080825 
L 566.755017 118.013834 
L 568.225022 101.4144 
L 569.695027 105.086472 
L 571.165032 105.507925 
L 572.635036 101.476992 
L 574.105041 100.884453 
L 575.575046 107.932327 
L 577.045051 106.037872 
L 578.515056 102.66207 
L 579.985061 104.556525 
L 581.455066 102.841501 
L 582.92507 103.963986 
L 584.395075 99.457352 
L 585.86508 110.544506 
L 587.335085 99.870461 
L 588.80509 105.391087 
L 590.275095 108.353781 
L 591.7451 107.22295 
L 594.685109 101.234969 
L 596.155114 102.778908 
L 597.625119 106.100464 
L 599.095124 100.525592 
L 600.565129 98.747975 
L 602.035134 105.741603 
L 603.505139 105.149064 
L 604.975143 103.075178 
L 606.445148 103.371447 
L 607.915153 103.075178 
L 609.385158 97.859167 
L 610.855163 107.043519 
L 612.325168 109.476267 
L 613.795173 101.297561 
L 615.265177 100.705022 
L 616.735182 108.704297 
L 618.205187 105.445333 
L 619.675192 106.037872 
L 621.145197 103.963986 
L 622.615202 105.445333 
L 624.085207 102.303208 
L 625.555211 103.784555 
L 627.025216 102.18637 
L 628.495221 101.8901 
L 629.965226 105.921034 
L 631.435231 101.001292 
L 632.905236 97.859167 
L 634.375241 100.705022 
L 635.845246 99.340514 
L 637.31525 99.816214 
L 638.785255 101.297561 
L 640.25526 100.229322 
L 641.725265 100.588184 
L 643.19527 100.112483 
L 644.665275 101.11813 
L 646.13528 100.821861 
L 647.605284 101.8901 
L 649.075289 101.001292 
L 650.545294 103.075178 
L 652.015299 107.69865 
L 653.485304 99.933053 
L 654.955309 102.958339 
L 656.425314 103.254609 
L 657.895318 97.266628 
L 659.365323 102.482639 
L 660.835328 99.816214 
L 662.305333 101.8901 
L 663.775338 99.933053 
L 665.245343 105.741603 
L 668.185352 100.705022 
L 669.655357 101.180723 
L 671.125362 104.322848 
L 672.595367 101.180723 
L 674.065372 103.434039 
L 675.535377 101.952692 
L 677.005382 103.13777 
L 678.475386 103.434039 
L 679.945391 102.841501 
L 681.415396 101.656423 
L 682.885401 104.619117 
L 684.355406 103.730309 
L 685.825411 104.026578 
L 687.295416 102.841501 
L 688.765421 103.730309 
L 690.235425 102.841501 
L 691.70543 103.434039 
L 693.175435 103.434039 
L 694.64544 102.248962 
L 696.115445 102.248962 
L 697.58545 102.841501 
L 699.055455 103.730309 
L 699.055455 103.730309 
" clip-path="url(#p45bca630a4)" style="fill: none; stroke: #ff7f0e; stroke-width: 1.5; stroke-linecap: square"/>
   </g>
   <g id="patch_9">
    <path d="M 410.42 318.04 
L 410.42 26.88 
" style="fill: none; stroke: #000000; stroke-width: 0.8; stroke-linejoin: miter; stroke-linecap: square"/>
   </g>
   <g id="patch_10">
    <path d="M 712.8 318.04 
L 712.8 26.88 
" style="fill: none; stroke: #000000; stroke-width: 0.8; stroke-linejoin: miter; stroke-linecap: square"/>
   </g>
   <g id="patch_11">
    <path d="M 410.42 318.04 
L 712.8 318.04 
" style="fill: none; stroke: #000000; stroke-width: 0.8; stroke-linejoin: miter; stroke-linecap: square"/>
   </g>
   <g id="patch_12">
    <path d="M 410.42 26.88 
L 712.8 26.88 
" style="fill: none; stroke: #000000; stroke-width: 0.8; stroke-linejoin: miter; stroke-linecap: square"/>
   </g>
   <g id="text_42">
    <!-- Accuracy -->
    <g transform="translate(534.21625 20.88) scale(0.12 -0.12)">
     <use xlink:href="#DejaVuSans-41"/>
     <use xlink:href="#DejaVuSans-63" x="66.658203"/>
     <use xlink:href="#DejaVuSans-63" x="121.638672"/>
     <use xlink:href="#DejaVuSans-75" x="176.619141"/>
     <use xlink:href="#DejaVuSans-72" x="239.998047"/>
     <use xlink:href="#DejaVuSans-61" x="281.111328"/>
     <use xlink:href="#DejaVuSans-63" x="342.390625"/>
     <use xlink:href="#DejaVuSans-79" x="397.371094"/>
    </g>
   </g>
   <g id="legend_2">
    <g id="patch_13">
     <path d="M 600.978125 313.04 
L 705.8 313.04 
Q 707.8 313.04 707.8 311.04 
L 707.8 282.68375 
Q 707.8 280.68375 705.8 280.68375 
L 600.978125 280.68375 
Q 598.978125 280.68375 598.978125 282.68375 
L 598.978125 311.04 
Q 598.978125 313.04 600.978125 313.04 
z
" style="fill: #ffffff; opacity: 0.8; stroke: #cccccc; stroke-linejoin: miter"/>
    </g>
    <g id="line2d_41">
     <path d="M 602.978125 288.782188 
L 612.978125 288.782188 
L 622.978125 288.782188 
" style="fill: none; stroke: #1f77b4; stroke-width: 1.5; stroke-linecap: square"/>
    </g>
    <g id="text_43">
     <!-- Train Accuracy -->
     <g transform="translate(630.978125 292.282188) scale(0.1 -0.1)">
      <use xlink:href="#DejaVuSans-54"/>
      <use xlink:href="#DejaVuSans-72" x="46.333984"/>
      <use xlink:href="#DejaVuSans-61" x="87.447266"/>
      <use xlink:href="#DejaVuSans-69" x="148.726562"/>
      <use xlink:href="#DejaVuSans-6e" x="176.509766"/>
      <use xlink:href="#DejaVuSans-20" x="239.888672"/>
      <use xlink:href="#DejaVuSans-41" x="271.675781"/>
      <use xlink:href="#DejaVuSans-63" x="338.333984"/>
      <use xlink:href="#DejaVuSans-63" x="393.314453"/>
      <use xlink:href="#DejaVuSans-75" x="448.294922"/>
      <use xlink:href="#DejaVuSans-72" x="511.673828"/>
      <use xlink:href="#DejaVuSans-61" x="552.787109"/>
      <use xlink:href="#DejaVuSans-63" x="614.066406"/>
      <use xlink:href="#DejaVuSans-79" x="669.046875"/>
     </g>
    </g>
    <g id="line2d_42">
     <path d="M 602.978125 303.460313 
L 612.978125 303.460313 
L 622.978125 303.460313 
" style="fill: none; stroke: #ff7f0e; stroke-width: 1.5; stroke-linecap: square"/>
    </g>
    <g id="text_44">
     <!-- Val Accuracy -->
     <g transform="translate(630.978125 306.960313) scale(0.1 -0.1)">
      <use xlink:href="#DejaVuSans-56"/>
      <use xlink:href="#DejaVuSans-61" x="60.658203"/>
      <use xlink:href="#DejaVuSans-6c" x="121.9375"/>
      <use xlink:href="#DejaVuSans-20" x="149.720703"/>
      <use xlink:href="#DejaVuSans-41" x="181.507812"/>
      <use xlink:href="#DejaVuSans-63" x="248.166016"/>
      <use xlink:href="#DejaVuSans-63" x="303.146484"/>
      <use xlink:href="#DejaVuSans-75" x="358.126953"/>
      <use xlink:href="#DejaVuSans-72" x="421.505859"/>
      <use xlink:href="#DejaVuSans-61" x="462.619141"/>
      <use xlink:href="#DejaVuSans-63" x="523.898438"/>
      <use xlink:href="#DejaVuSans-79" x="578.878906"/>
     </g>
    </g>
   </g>
  </g>
  <g id="axes_3">
   <g id="patch_14">
    <path d="M 766.82 318.04 
L 1069.2 318.04 
L 1069.2 26.88 
L 766.82 26.88 
z
" style="fill: #ffffff"/>
   </g>
   <g id="matplotlib.axis_5">
    <g id="xtick_17">
     <g id="line2d_43">
      <g>
       <use xlink:href="#md6d8e4a84a" x="779.094541" y="318.04" style="stroke: #000000; stroke-width: 0.8"/>
      </g>
     </g>
     <g id="text_45">
      <!-- 0 -->
      <g transform="translate(775.913291 332.638438) scale(0.1 -0.1)">
       <use xlink:href="#DejaVuSans-30"/>
      </g>
     </g>
    </g>
    <g id="xtick_18">
     <g id="line2d_44">
      <g>
       <use xlink:href="#md6d8e4a84a" x="815.844662" y="318.04" style="stroke: #000000; stroke-width: 0.8"/>
      </g>
     </g>
     <g id="text_46">
      <!-- 25 -->
      <g transform="translate(809.482162 332.638438) scale(0.1 -0.1)">
       <use xlink:href="#DejaVuSans-32"/>
       <use xlink:href="#DejaVuSans-35" x="63.623047"/>
      </g>
     </g>
    </g>
    <g id="xtick_19">
     <g id="line2d_45">
      <g>
       <use xlink:href="#md6d8e4a84a" x="852.594784" y="318.04" style="stroke: #000000; stroke-width: 0.8"/>
      </g>
     </g>
     <g id="text_47">
      <!-- 50 -->
      <g transform="translate(846.232284 332.638438) scale(0.1 -0.1)">
       <use xlink:href="#DejaVuSans-35"/>
       <use xlink:href="#DejaVuSans-30" x="63.623047"/>
      </g>
     </g>
    </g>
    <g id="xtick_20">
     <g id="line2d_46">
      <g>
       <use xlink:href="#md6d8e4a84a" x="889.344905" y="318.04" style="stroke: #000000; stroke-width: 0.8"/>
      </g>
     </g>
     <g id="text_48">
      <!-- 75 -->
      <g transform="translate(882.982405 332.638438) scale(0.1 -0.1)">
       <use xlink:href="#DejaVuSans-37"/>
       <use xlink:href="#DejaVuSans-35" x="63.623047"/>
      </g>
     </g>
    </g>
    <g id="xtick_21">
     <g id="line2d_47">
      <g>
       <use xlink:href="#md6d8e4a84a" x="926.095027" y="318.04" style="stroke: #000000; stroke-width: 0.8"/>
      </g>
     </g>
     <g id="text_49">
      <!-- 100 -->
      <g transform="translate(916.551277 332.638438) scale(0.1 -0.1)">
       <use xlink:href="#DejaVuSans-31"/>
       <use xlink:href="#DejaVuSans-30" x="63.623047"/>
       <use xlink:href="#DejaVuSans-30" x="127.246094"/>
      </g>
     </g>
    </g>
    <g id="xtick_22">
     <g id="line2d_48">
      <g>
       <use xlink:href="#md6d8e4a84a" x="962.845148" y="318.04" style="stroke: #000000; stroke-width: 0.8"/>
      </g>
     </g>
     <g id="text_50">
      <!-- 125 -->
      <g transform="translate(953.301398 332.638438) scale(0.1 -0.1)">
       <use xlink:href="#DejaVuSans-31"/>
       <use xlink:href="#DejaVuSans-32" x="63.623047"/>
       <use xlink:href="#DejaVuSans-35" x="127.246094"/>
      </g>
     </g>
    </g>
    <g id="xtick_23">
     <g id="line2d_49">
      <g>
       <use xlink:href="#md6d8e4a84a" x="999.59527" y="318.04" style="stroke: #000000; stroke-width: 0.8"/>
      </g>
     </g>
     <g id="text_51">
      <!-- 150 -->
      <g transform="translate(990.05152 332.638438) scale(0.1 -0.1)">
       <use xlink:href="#DejaVuSans-31"/>
       <use xlink:href="#DejaVuSans-35" x="63.623047"/>
       <use xlink:href="#DejaVuSans-30" x="127.246094"/>
      </g>
     </g>
    </g>
    <g id="xtick_24">
     <g id="line2d_50">
      <g>
       <use xlink:href="#md6d8e4a84a" x="1036.345391" y="318.04" style="stroke: #000000; stroke-width: 0.8"/>
      </g>
     </g>
     <g id="text_52">
      <!-- 175 -->
      <g transform="translate(1026.801641 332.638438) scale(0.1 -0.1)">
       <use xlink:href="#DejaVuSans-31"/>
       <use xlink:href="#DejaVuSans-37" x="63.623047"/>
       <use xlink:href="#DejaVuSans-35" x="127.246094"/>
      </g>
     </g>
    </g>
    <g id="text_53">
     <!-- Epochs -->
     <g transform="translate(900.094375 346.316563) scale(0.1 -0.1)">
      <use xlink:href="#DejaVuSans-45"/>
      <use xlink:href="#DejaVuSans-70" x="63.183594"/>
      <use xlink:href="#DejaVuSans-6f" x="126.660156"/>
      <use xlink:href="#DejaVuSans-63" x="187.841797"/>
      <use xlink:href="#DejaVuSans-68" x="242.822266"/>
      <use xlink:href="#DejaVuSans-73" x="306.201172"/>
     </g>
    </g>
   </g>
   <g id="matplotlib.axis_6">
    <g id="ytick_19">
     <g id="line2d_51">
      <g>
       <use xlink:href="#md89e518acf" x="766.82" y="316.576906" style="stroke: #000000; stroke-width: 0.8"/>
      </g>
     </g>
     <g id="text_54">
      <!-- 0.0 -->
      <g transform="translate(743.916875 320.376125) scale(0.1 -0.1)">
       <use xlink:href="#DejaVuSans-30"/>
       <use xlink:href="#DejaVuSans-2e" x="63.623047"/>
       <use xlink:href="#DejaVuSans-30" x="95.410156"/>
      </g>
     </g>
    </g>
    <g id="ytick_20">
     <g id="line2d_52">
      <g>
       <use xlink:href="#md89e518acf" x="766.82" y="261.049148" style="stroke: #000000; stroke-width: 0.8"/>
      </g>
     </g>
     <g id="text_55">
      <!-- 0.2 -->
      <g transform="translate(743.916875 264.848367) scale(0.1 -0.1)">
       <use xlink:href="#DejaVuSans-30"/>
       <use xlink:href="#DejaVuSans-2e" x="63.623047"/>
       <use xlink:href="#DejaVuSans-32" x="95.410156"/>
      </g>
     </g>
    </g>
    <g id="ytick_21">
     <g id="line2d_53">
      <g>
       <use xlink:href="#md89e518acf" x="766.82" y="205.521389" style="stroke: #000000; stroke-width: 0.8"/>
      </g>
     </g>
     <g id="text_56">
      <!-- 0.4 -->
      <g transform="translate(743.916875 209.320608) scale(0.1 -0.1)">
       <use xlink:href="#DejaVuSans-30"/>
       <use xlink:href="#DejaVuSans-2e" x="63.623047"/>
       <use xlink:href="#DejaVuSans-34" x="95.410156"/>
      </g>
     </g>
    </g>
    <g id="ytick_22">
     <g id="line2d_54">
      <g>
       <use xlink:href="#md89e518acf" x="766.82" y="149.993631" style="stroke: #000000; stroke-width: 0.8"/>
      </g>
     </g>
     <g id="text_57">
      <!-- 0.6 -->
      <g transform="translate(743.916875 153.79285) scale(0.1 -0.1)">
       <use xlink:href="#DejaVuSans-30"/>
       <use xlink:href="#DejaVuSans-2e" x="63.623047"/>
       <use xlink:href="#DejaVuSans-36" x="95.410156"/>
      </g>
     </g>
    </g>
    <g id="ytick_23">
     <g id="line2d_55">
      <g>
       <use xlink:href="#md89e518acf" x="766.82" y="94.465872" style="stroke: #000000; stroke-width: 0.8"/>
      </g>
     </g>
     <g id="text_58">
      <!-- 0.8 -->
      <g transform="translate(743.916875 98.265091) scale(0.1 -0.1)">
       <use xlink:href="#DejaVuSans-30"/>
       <use xlink:href="#DejaVuSans-2e" x="63.623047"/>
       <use xlink:href="#DejaVuSans-38" x="95.410156"/>
      </g>
     </g>
    </g>
    <g id="ytick_24">
     <g id="line2d_56">
      <g>
       <use xlink:href="#md89e518acf" x="766.82" y="38.938114" style="stroke: #000000; stroke-width: 0.8"/>
      </g>
     </g>
     <g id="text_59">
      <!-- 1.0 -->
      <g transform="translate(743.916875 42.737333) scale(0.1 -0.1)">
       <use xlink:href="#DejaVuSans-31"/>
       <use xlink:href="#DejaVuSans-2e" x="63.623047"/>
       <use xlink:href="#DejaVuSans-30" x="95.410156"/>
      </g>
     </g>
    </g>
    <g id="text_60">
     <!-- F1 Score -->
     <g transform="translate(737.837187 194.108438) rotate(-90) scale(0.1 -0.1)">
      <defs>
       <path id="DejaVuSans-46" d="M 628 4666 
L 3309 4666 
L 3309 4134 
L 1259 4134 
L 1259 2759 
L 3109 2759 
L 3109 2228 
L 1259 2228 
L 1259 0 
L 628 0 
L 628 4666 
z
" transform="scale(0.015625)"/>
       <path id="DejaVuSans-53" d="M 3425 4513 
L 3425 3897 
Q 3066 4069 2747 4153 
Q 2428 4238 2131 4238 
Q 1616 4238 1336 4038 
Q 1056 3838 1056 3469 
Q 1056 3159 1242 3001 
Q 1428 2844 1947 2747 
L 2328 2669 
Q 3034 2534 3370 2195 
Q 3706 1856 3706 1288 
Q 3706 609 3251 259 
Q 2797 -91 1919 -91 
Q 1588 -91 1214 -16 
Q 841 59 441 206 
L 441 856 
Q 825 641 1194 531 
Q 1563 422 1919 422 
Q 2459 422 2753 634 
Q 3047 847 3047 1241 
Q 3047 1584 2836 1778 
Q 2625 1972 2144 2069 
L 1759 2144 
Q 1053 2284 737 2584 
Q 422 2884 422 3419 
Q 422 4038 858 4394 
Q 1294 4750 2059 4750 
Q 2388 4750 2728 4690 
Q 3069 4631 3425 4513 
z
" transform="scale(0.015625)"/>
       <path id="DejaVuSans-65" d="M 3597 1894 
L 3597 1613 
L 953 1613 
Q 991 1019 1311 708 
Q 1631 397 2203 397 
Q 2534 397 2845 478 
Q 3156 559 3463 722 
L 3463 178 
Q 3153 47 2828 -22 
Q 2503 -91 2169 -91 
Q 1331 -91 842 396 
Q 353 884 353 1716 
Q 353 2575 817 3079 
Q 1281 3584 2069 3584 
Q 2775 3584 3186 3129 
Q 3597 2675 3597 1894 
z
M 3022 2063 
Q 3016 2534 2758 2815 
Q 2500 3097 2075 3097 
Q 1594 3097 1305 2825 
Q 1016 2553 972 2059 
L 3022 2063 
z
" transform="scale(0.015625)"/>
      </defs>
      <use xlink:href="#DejaVuSans-46"/>
      <use xlink:href="#DejaVuSans-31" x="57.519531"/>
      <use xlink:href="#DejaVuSans-20" x="121.142578"/>
      <use xlink:href="#DejaVuSans-53" x="152.929688"/>
      <use xlink:href="#DejaVuSans-63" x="216.40625"/>
      <use xlink:href="#DejaVuSans-6f" x="271.386719"/>
      <use xlink:href="#DejaVuSans-72" x="332.568359"/>
      <use xlink:href="#DejaVuSans-65" x="371.431641"/>
     </g>
    </g>
   </g>
   <g id="line2d_57">
    <path d="M 780.564545 269.207639 
L 782.03455 134.886232 
L 783.504555 92.377616 
L 784.97456 77.333508 
L 786.444565 76.665682 
L 787.91457 73.21331 
L 789.384575 73.1402 
L 792.324584 69.757265 
L 793.794589 70.000981 
L 795.264594 67.695378 
L 796.734599 66.286353 
L 798.204604 66.22706 
L 799.674609 65.025578 
L 802.614618 64.055796 
L 804.084623 62.53272 
L 805.554628 64.147634 
L 807.024633 64.428534 
L 808.494638 62.689189 
L 809.964643 61.436648 
L 811.434648 59.673434 
L 812.904652 59.212825 
L 814.374657 59.112582 
L 815.844662 57.557576 
L 817.314667 57.625317 
L 818.784672 57.435635 
L 820.254677 56.493995 
L 821.724682 56.969832 
L 823.194686 57.606002 
L 824.664691 54.602521 
L 826.134696 54.73556 
L 827.604701 53.282009 
L 829.074706 53.487763 
L 830.544711 53.257749 
L 832.014716 53.984031 
L 833.48472 53.880468 
L 834.954725 52.926402 
L 836.42473 52.222028 
L 837.894735 53.113869 
L 839.36474 52.374713 
L 840.834745 53.205253 
L 842.30475 51.65831 
L 843.774754 49.704602 
L 845.244759 50.356127 
L 846.714764 51.779878 
L 848.184769 50.017346 
L 852.594784 48.931228 
L 854.064789 47.544839 
L 857.004798 47.501042 
L 858.474803 48.982863 
L 859.944808 47.460701 
L 861.414813 47.029292 
L 862.884818 48.195429 
L 864.354823 47.696547 
L 865.824827 45.205267 
L 867.294832 44.513128 
L 868.764837 45.318966 
L 870.234842 45.7718 
L 871.704847 44.836172 
L 874.644857 43.786391 
L 876.114861 44.568906 
L 877.584866 45.03668 
L 879.054871 44.484496 
L 881.994881 44.024247 
L 883.464886 43.435448 
L 884.934891 43.771593 
L 886.404895 44.828095 
L 889.344905 42.686134 
L 890.81491 42.663293 
L 892.284915 43.216358 
L 893.75492 42.354346 
L 895.224925 42.050999 
L 896.69493 42.54326 
L 898.164934 43.174146 
L 899.634939 44.42488 
L 901.104944 43.778284 
L 902.574949 42.63406 
L 904.044954 41.80086 
L 905.514959 42.209322 
L 906.984964 41.702003 
L 908.454968 41.749404 
L 909.924973 42.418228 
L 911.394978 43.565784 
L 912.864983 42.822942 
L 914.334988 41.853387 
L 915.804993 42.154342 
L 917.274998 41.782612 
L 918.745002 41.180163 
L 920.215007 41.060211 
L 923.155017 41.137934 
L 924.625022 40.852556 
L 926.095027 40.97829 
L 927.565032 40.733195 
L 929.035036 41.055302 
L 930.505041 40.976102 
L 931.975046 40.742473 
L 933.445051 40.956319 
L 936.385061 40.845543 
L 937.855066 40.494214 
L 939.32507 40.691896 
L 940.795075 40.468774 
L 945.20509 40.886302 
L 946.675095 40.774672 
L 948.1451 40.473378 
L 951.085109 40.384574 
L 954.025119 40.452205 
L 958.435134 40.396661 
L 961.375143 40.328169 
L 962.845148 40.965431 
L 964.315153 40.870306 
L 967.255163 40.809681 
L 968.725168 40.753806 
L 970.195173 40.961983 
L 971.665177 41.015196 
L 973.135182 40.537745 
L 980.485207 41.013793 
L 981.955211 40.637821 
L 983.425216 40.748571 
L 986.365226 40.512122 
L 987.835231 40.284629 
L 990.775241 40.310166 
L 993.71525 40.261262 
L 995.185255 40.396695 
L 998.125265 40.214405 
L 999.59527 40.290318 
L 1001.065275 40.220993 
L 1002.53528 40.277109 
L 1005.475289 40.253873 
L 1009.885304 40.340328 
L 1011.355309 40.446458 
L 1012.825314 40.33872 
L 1014.295318 40.399147 
L 1015.765323 40.288077 
L 1021.645343 40.267579 
L 1023.115348 40.891208 
L 1024.585352 40.225305 
L 1026.055357 40.329329 
L 1028.995367 40.156282 
L 1036.345391 40.128112 
L 1037.815396 40.191976 
L 1040.755406 40.13587 
L 1045.165421 40.127853 
L 1055.455455 40.134504 
L 1055.455455 40.134504 
" clip-path="url(#p6f9e4836e8)" style="fill: none; stroke: #1f77b4; stroke-width: 1.5; stroke-linecap: square"/>
   </g>
   <g id="line2d_58">
    <path d="M 780.564545 304.805455 
L 782.03455 135.346168 
L 783.504555 113.946029 
L 784.97456 100.935938 
L 786.444565 86.818436 
L 787.91457 101.23417 
L 789.384575 85.120993 
L 790.854579 80.234872 
L 792.324584 83.723021 
L 793.794589 83.862363 
L 795.264594 78.402718 
L 796.734599 76.445719 
L 798.204604 78.470507 
L 799.674609 80.942662 
L 801.144614 82.411501 
L 802.614618 87.001625 
L 804.084623 75.897107 
L 805.554628 88.790956 
L 807.024633 72.734194 
L 808.494638 68.743893 
L 811.434648 77.707161 
L 812.904652 71.6005 
L 814.374657 73.413638 
L 815.844662 73.460552 
L 817.314667 82.737121 
L 818.784672 75.310225 
L 820.254677 70.260516 
L 821.724682 70.876856 
L 823.194686 72.64478 
L 824.664691 73.454948 
L 826.134696 71.795203 
L 827.604701 71.079631 
L 829.074706 79.017554 
L 830.544711 75.843869 
L 832.014716 73.312769 
L 833.48472 70.481086 
L 834.954725 77.510466 
L 836.42473 77.950938 
L 837.894735 77.825388 
L 839.36474 79.69369 
L 840.834745 75.854292 
L 842.30475 71.068987 
L 843.774754 80.232387 
L 845.244759 75.885719 
L 846.714764 76.890919 
L 848.184769 74.053701 
L 849.654774 78.620401 
L 851.124779 84.977099 
L 852.594784 74.076783 
L 854.064789 76.268417 
L 855.534793 79.03822 
L 857.004798 75.206948 
L 858.474803 73.938543 
L 859.944808 74.020331 
L 861.414813 75.951051 
L 862.884818 76.585005 
L 864.354823 74.17787 
L 865.824827 72.912842 
L 867.294832 77.958319 
L 868.764837 75.342131 
L 870.234842 73.13109 
L 871.704847 71.379741 
L 873.174852 75.88618 
L 874.644857 74.907621 
L 876.114861 73.09644 
L 877.584866 85.333782 
L 879.054871 76.976513 
L 880.524876 77.1243 
L 881.994881 73.08474 
L 883.464886 72.8014 
L 884.934891 73.996968 
L 886.404895 75.631603 
L 887.8749 74.217916 
L 889.344905 71.473301 
L 890.81491 75.951057 
L 892.284915 77.642774 
L 893.75492 75.413817 
L 895.224925 73.620468 
L 896.69493 75.513974 
L 898.164934 75.689568 
L 899.634939 80.37095 
L 901.104944 75.836552 
L 902.574949 73.390083 
L 904.044954 73.609165 
L 905.514959 77.990491 
L 906.984964 74.790388 
L 908.454968 68.762579 
L 909.924973 73.273767 
L 911.394978 79.128507 
L 912.864983 78.386537 
L 914.334988 74.794642 
L 915.804993 73.69243 
L 917.274998 74.658974 
L 918.745002 73.889772 
L 920.215007 77.151135 
L 921.685012 74.669796 
L 923.155017 80.863216 
L 924.625022 73.476261 
L 926.095027 74.36879 
L 927.565032 75.634286 
L 929.035036 72.94806 
L 930.505041 73.425069 
L 931.975046 75.707238 
L 933.445051 75.153057 
L 934.915056 73.004662 
L 936.385061 74.264801 
L 939.32507 73.761751 
L 940.795075 72.73053 
L 942.26508 77.177045 
L 943.735085 73.516872 
L 945.20509 74.611885 
L 946.675095 76.434923 
L 948.1451 75.958962 
L 949.615105 74.200509 
L 951.085109 73.37407 
L 952.555114 73.345874 
L 954.025119 74.486517 
L 955.495124 72.876663 
L 956.965129 71.766176 
L 958.435134 75.315155 
L 959.905139 74.313225 
L 961.375143 73.705456 
L 962.845148 74.213638 
L 964.315153 73.579858 
L 965.785158 71.41332 
L 967.255163 75.812891 
L 968.725168 77.442724 
L 970.195173 73.003666 
L 971.665177 73.551863 
L 973.135182 76.149997 
L 974.605187 74.557238 
L 976.075192 75.750256 
L 977.545197 74.324947 
L 979.015202 74.952083 
L 980.485207 73.580469 
L 981.955211 74.51735 
L 983.425216 74.420693 
L 984.895221 73.625688 
L 986.365226 75.363366 
L 989.305236 71.430351 
L 990.775241 72.665158 
L 992.245246 72.13152 
L 995.185255 72.938226 
L 996.65526 72.422587 
L 998.125265 72.907483 
L 999.59527 72.446773 
L 1001.065275 72.801753 
L 1002.53528 72.915086 
L 1004.005284 73.327274 
L 1005.475289 72.770401 
L 1006.945294 73.927485 
L 1008.415299 76.636886 
L 1009.885304 72.319041 
L 1011.355309 74.44761 
L 1012.825314 74.231473 
L 1014.295318 70.809136 
L 1015.765323 73.847146 
L 1017.235328 73.211239 
L 1018.705333 73.18036 
L 1020.175338 72.779994 
L 1021.645343 75.444726 
L 1023.115348 73.432627 
L 1024.585352 73.096897 
L 1026.055357 72.953454 
L 1027.525362 74.763447 
L 1028.995367 73.344652 
L 1030.465372 74.3269 
L 1031.935377 73.640317 
L 1033.405382 74.202512 
L 1034.875386 74.370775 
L 1036.345391 73.947771 
L 1037.815396 73.402116 
L 1039.285401 74.625776 
L 1040.755406 74.331816 
L 1042.225411 74.491302 
L 1043.695416 73.897786 
L 1045.165421 74.215668 
L 1046.635425 73.856489 
L 1048.10543 74.123602 
L 1049.575435 74.123602 
L 1051.04544 73.623279 
L 1052.515445 73.620455 
L 1055.455455 74.232187 
L 1055.455455 74.232187 
" clip-path="url(#p6f9e4836e8)" style="fill: none; stroke: #ff7f0e; stroke-width: 1.5; stroke-linecap: square"/>
   </g>
   <g id="patch_15">
    <path d="M 766.82 318.04 
L 766.82 26.88 
" style="fill: none; stroke: #000000; stroke-width: 0.8; stroke-linejoin: miter; stroke-linecap: square"/>
   </g>
   <g id="patch_16">
    <path d="M 1069.2 318.04 
L 1069.2 26.88 
" style="fill: none; stroke: #000000; stroke-width: 0.8; stroke-linejoin: miter; stroke-linecap: square"/>
   </g>
   <g id="patch_17">
    <path d="M 766.82 318.04 
L 1069.2 318.04 
" style="fill: none; stroke: #000000; stroke-width: 0.8; stroke-linejoin: miter; stroke-linecap: square"/>
   </g>
   <g id="patch_18">
    <path d="M 766.82 26.88 
L 1069.2 26.88 
" style="fill: none; stroke: #000000; stroke-width: 0.8; stroke-linejoin: miter; stroke-linecap: square"/>
   </g>
   <g id="text_61">
    <!-- F1 Score -->
    <g transform="translate(892.031875 20.88) scale(0.12 -0.12)">
     <use xlink:href="#DejaVuSans-46"/>
     <use xlink:href="#DejaVuSans-31" x="57.519531"/>
     <use xlink:href="#DejaVuSans-20" x="121.142578"/>
     <use xlink:href="#DejaVuSans-53" x="152.929688"/>
     <use xlink:href="#DejaVuSans-63" x="216.40625"/>
     <use xlink:href="#DejaVuSans-6f" x="271.386719"/>
     <use xlink:href="#DejaVuSans-72" x="332.568359"/>
     <use xlink:href="#DejaVuSans-65" x="371.431641"/>
    </g>
   </g>
   <g id="legend_3">
    <g id="patch_19">
     <path d="M 990.920313 313.04 
L 1062.2 313.04 
Q 1064.2 313.04 1064.2 311.04 
L 1064.2 282.68375 
Q 1064.2 280.68375 1062.2 280.68375 
L 990.920313 280.68375 
Q 988.920313 280.68375 988.920313 282.68375 
L 988.920313 311.04 
Q 988.920313 313.04 990.920313 313.04 
z
" style="fill: #ffffff; opacity: 0.8; stroke: #cccccc; stroke-linejoin: miter"/>
    </g>
    <g id="line2d_59">
     <path d="M 992.920313 288.782188 
L 1002.920313 288.782188 
L 1012.920313 288.782188 
" style="fill: none; stroke: #1f77b4; stroke-width: 1.5; stroke-linecap: square"/>
    </g>
    <g id="text_62">
     <!-- Train F1 -->
     <g transform="translate(1020.920313 292.282188) scale(0.1 -0.1)">
      <use xlink:href="#DejaVuSans-54"/>
      <use xlink:href="#DejaVuSans-72" x="46.333984"/>
      <use xlink:href="#DejaVuSans-61" x="87.447266"/>
      <use xlink:href="#DejaVuSans-69" x="148.726562"/>
      <use xlink:href="#DejaVuSans-6e" x="176.509766"/>
      <use xlink:href="#DejaVuSans-20" x="239.888672"/>
      <use xlink:href="#DejaVuSans-46" x="271.675781"/>
      <use xlink:href="#DejaVuSans-31" x="329.195312"/>
     </g>
    </g>
    <g id="line2d_60">
     <path d="M 992.920313 303.460313 
L 1002.920313 303.460313 
L 1012.920313 303.460313 
" style="fill: none; stroke: #ff7f0e; stroke-width: 1.5; stroke-linecap: square"/>
    </g>
    <g id="text_63">
     <!-- Val F1 -->
     <g transform="translate(1020.920313 306.960313) scale(0.1 -0.1)">
      <use xlink:href="#DejaVuSans-56"/>
      <use xlink:href="#DejaVuSans-61" x="60.658203"/>
      <use xlink:href="#DejaVuSans-6c" x="121.9375"/>
      <use xlink:href="#DejaVuSans-20" x="149.720703"/>
      <use xlink:href="#DejaVuSans-46" x="181.507812"/>
      <use xlink:href="#DejaVuSans-31" x="239.027344"/>
     </g>
    </g>
   </g>
  </g>
 </g>
 <defs>
  <clipPath id="p4a67b01f32">
   <rect x="54.02" y="26.88" width="302.38" height="291.16"/>
  </clipPath>
  <clipPath id="p45bca630a4">
   <rect x="410.42" y="26.88" width="302.38" height="291.16"/>
  </clipPath>
  <clipPath id="p6f9e4836e8">
   <rect x="766.82" y="26.88" width="302.38" height="291.16"/>
  </clipPath>
 </defs>
</svg>
