<?xml version="1.0" encoding="utf-8" standalone="no"?>
<!DOCTYPE svg PUBLIC "-//W3C//DTD SVG 1.1//EN"
  "http://www.w3.org/Graphics/SVG/1.1/DTD/svg11.dtd">
<svg xmlns:xlink="http://www.w3.org/1999/xlink" width="1080pt" height="360pt" viewBox="0 0 1080 360" xmlns="http://www.w3.org/2000/svg" version="1.1">
 <metadata>
  <rdf:RDF xmlns:dc="http://purl.org/dc/elements/1.1/" xmlns:cc="http://creativecommons.org/ns#" xmlns:rdf="http://www.w3.org/1999/02/22-rdf-syntax-ns#">
   <cc:Work>
    <dc:type rdf:resource="http://purl.org/dc/dcmitype/StillImage"/>
    <dc:date>2024-10-22T02:25:15.820396</dc:date>
    <dc:format>image/svg+xml</dc:format>
    <dc:creator>
     <cc:Agent>
      <dc:title>Matplotlib v3.8.2, https://matplotlib.org/</dc:title>
     </cc:Agent>
    </dc:creator>
   </cc:Work>
  </rdf:RDF>
 </metadata>
 <defs>
  <style type="text/css">*{stroke-linejoin: round; stroke-linecap: butt}</style>
 </defs>
 <g id="figure_1">
  <g id="patch_1">
   <path d="M 0 360 
L 1080 360 
L 1080 0 
L 0 0 
z
" style="fill: #ffffff"/>
  </g>
  <g id="axes_1">
   <g id="patch_2">
    <path d="M 47.72 318.04 
L 352.14 318.04 
L 352.14 26.88 
L 47.72 26.88 
z
" style="fill: #ffffff"/>
   </g>
   <g id="matplotlib.axis_1">
    <g id="xtick_1">
     <g id="line2d_1">
      <defs>
       <path id="m1fb3652dce" d="M 0 0 
L 0 3.5 
" style="stroke: #000000; stroke-width: 0.8"/>
      </defs>
      <g>
       <use xlink:href="#m1fb3652dce" x="61.557273" y="318.04" style="stroke: #000000; stroke-width: 0.8"/>
      </g>
     </g>
     <g id="text_1">
      <!-- 0 -->
      <g transform="translate(58.376023 332.638438) scale(0.1 -0.1)">
       <defs>
        <path id="DejaVuSans-30" d="M 2034 4250 
Q 1547 4250 1301 3770 
Q 1056 3291 1056 2328 
Q 1056 1369 1301 889 
Q 1547 409 2034 409 
Q 2525 409 2770 889 
Q 3016 1369 3016 2328 
Q 3016 3291 2770 3770 
Q 2525 4250 2034 4250 
z
M 2034 4750 
Q 2819 4750 3233 4129 
Q 3647 3509 3647 2328 
Q 3647 1150 3233 529 
Q 2819 -91 2034 -91 
Q 1250 -91 836 529 
Q 422 1150 422 2328 
Q 422 3509 836 4129 
Q 1250 4750 2034 4750 
z
" transform="scale(0.015625)"/>
       </defs>
       <use xlink:href="#DejaVuSans-30"/>
      </g>
     </g>
    </g>
    <g id="xtick_2">
     <g id="line2d_2">
      <g>
       <use xlink:href="#m1fb3652dce" x="117.128649" y="318.04" style="stroke: #000000; stroke-width: 0.8"/>
      </g>
     </g>
     <g id="text_2">
      <!-- 50 -->
      <g transform="translate(110.766149 332.638438) scale(0.1 -0.1)">
       <defs>
        <path id="DejaVuSans-35" d="M 691 4666 
L 3169 4666 
L 3169 4134 
L 1269 4134 
L 1269 2991 
Q 1406 3038 1543 3061 
Q 1681 3084 1819 3084 
Q 2600 3084 3056 2656 
Q 3513 2228 3513 1497 
Q 3513 744 3044 326 
Q 2575 -91 1722 -91 
Q 1428 -91 1123 -41 
Q 819 9 494 109 
L 494 744 
Q 775 591 1075 516 
Q 1375 441 1709 441 
Q 2250 441 2565 725 
Q 2881 1009 2881 1497 
Q 2881 1984 2565 2268 
Q 2250 2553 1709 2553 
Q 1456 2553 1204 2497 
Q 953 2441 691 2322 
L 691 4666 
z
" transform="scale(0.015625)"/>
       </defs>
       <use xlink:href="#DejaVuSans-35"/>
       <use xlink:href="#DejaVuSans-30" x="63.623047"/>
      </g>
     </g>
    </g>
    <g id="xtick_3">
     <g id="line2d_3">
      <g>
       <use xlink:href="#m1fb3652dce" x="172.700026" y="318.04" style="stroke: #000000; stroke-width: 0.8"/>
      </g>
     </g>
     <g id="text_3">
      <!-- 100 -->
      <g transform="translate(163.156276 332.638438) scale(0.1 -0.1)">
       <defs>
        <path id="DejaVuSans-31" d="M 794 531 
L 1825 531 
L 1825 4091 
L 703 3866 
L 703 4441 
L 1819 4666 
L 2450 4666 
L 2450 531 
L 3481 531 
L 3481 0 
L 794 0 
L 794 531 
z
" transform="scale(0.015625)"/>
       </defs>
       <use xlink:href="#DejaVuSans-31"/>
       <use xlink:href="#DejaVuSans-30" x="63.623047"/>
       <use xlink:href="#DejaVuSans-30" x="127.246094"/>
      </g>
     </g>
    </g>
    <g id="xtick_4">
     <g id="line2d_4">
      <g>
       <use xlink:href="#m1fb3652dce" x="228.271402" y="318.04" style="stroke: #000000; stroke-width: 0.8"/>
      </g>
     </g>
     <g id="text_4">
      <!-- 150 -->
      <g transform="translate(218.727652 332.638438) scale(0.1 -0.1)">
       <use xlink:href="#DejaVuSans-31"/>
       <use xlink:href="#DejaVuSans-35" x="63.623047"/>
       <use xlink:href="#DejaVuSans-30" x="127.246094"/>
      </g>
     </g>
    </g>
    <g id="xtick_5">
     <g id="line2d_5">
      <g>
       <use xlink:href="#m1fb3652dce" x="283.842778" y="318.04" style="stroke: #000000; stroke-width: 0.8"/>
      </g>
     </g>
     <g id="text_5">
      <!-- 200 -->
      <g transform="translate(274.299028 332.638438) scale(0.1 -0.1)">
       <defs>
        <path id="DejaVuSans-32" d="M 1228 531 
L 3431 531 
L 3431 0 
L 469 0 
L 469 531 
Q 828 903 1448 1529 
Q 2069 2156 2228 2338 
Q 2531 2678 2651 2914 
Q 2772 3150 2772 3378 
Q 2772 3750 2511 3984 
Q 2250 4219 1831 4219 
Q 1534 4219 1204 4116 
Q 875 4013 500 3803 
L 500 4441 
Q 881 4594 1212 4672 
Q 1544 4750 1819 4750 
Q 2544 4750 2975 4387 
Q 3406 4025 3406 3419 
Q 3406 3131 3298 2873 
Q 3191 2616 2906 2266 
Q 2828 2175 2409 1742 
Q 1991 1309 1228 531 
z
" transform="scale(0.015625)"/>
       </defs>
       <use xlink:href="#DejaVuSans-32"/>
       <use xlink:href="#DejaVuSans-30" x="63.623047"/>
       <use xlink:href="#DejaVuSans-30" x="127.246094"/>
      </g>
     </g>
    </g>
    <g id="xtick_6">
     <g id="line2d_6">
      <g>
       <use xlink:href="#m1fb3652dce" x="339.414155" y="318.04" style="stroke: #000000; stroke-width: 0.8"/>
      </g>
     </g>
     <g id="text_6">
      <!-- 250 -->
      <g transform="translate(329.870405 332.638438) scale(0.1 -0.1)">
       <use xlink:href="#DejaVuSans-32"/>
       <use xlink:href="#DejaVuSans-35" x="63.623047"/>
       <use xlink:href="#DejaVuSans-30" x="127.246094"/>
      </g>
     </g>
    </g>
    <g id="text_7">
     <!-- Epoch -->
     <g transform="translate(184.619062 346.316563) scale(0.1 -0.1)">
      <defs>
       <path id="DejaVuSans-45" d="M 628 4666 
L 3578 4666 
L 3578 4134 
L 1259 4134 
L 1259 2753 
L 3481 2753 
L 3481 2222 
L 1259 2222 
L 1259 531 
L 3634 531 
L 3634 0 
L 628 0 
L 628 4666 
z
" transform="scale(0.015625)"/>
       <path id="DejaVuSans-70" d="M 1159 525 
L 1159 -1331 
L 581 -1331 
L 581 3500 
L 1159 3500 
L 1159 2969 
Q 1341 3281 1617 3432 
Q 1894 3584 2278 3584 
Q 2916 3584 3314 3078 
Q 3713 2572 3713 1747 
Q 3713 922 3314 415 
Q 2916 -91 2278 -91 
Q 1894 -91 1617 61 
Q 1341 213 1159 525 
z
M 3116 1747 
Q 3116 2381 2855 2742 
Q 2594 3103 2138 3103 
Q 1681 3103 1420 2742 
Q 1159 2381 1159 1747 
Q 1159 1113 1420 752 
Q 1681 391 2138 391 
Q 2594 391 2855 752 
Q 3116 1113 3116 1747 
z
" transform="scale(0.015625)"/>
       <path id="DejaVuSans-6f" d="M 1959 3097 
Q 1497 3097 1228 2736 
Q 959 2375 959 1747 
Q 959 1119 1226 758 
Q 1494 397 1959 397 
Q 2419 397 2687 759 
Q 2956 1122 2956 1747 
Q 2956 2369 2687 2733 
Q 2419 3097 1959 3097 
z
M 1959 3584 
Q 2709 3584 3137 3096 
Q 3566 2609 3566 1747 
Q 3566 888 3137 398 
Q 2709 -91 1959 -91 
Q 1206 -91 779 398 
Q 353 888 353 1747 
Q 353 2609 779 3096 
Q 1206 3584 1959 3584 
z
" transform="scale(0.015625)"/>
       <path id="DejaVuSans-63" d="M 3122 3366 
L 3122 2828 
Q 2878 2963 2633 3030 
Q 2388 3097 2138 3097 
Q 1578 3097 1268 2742 
Q 959 2388 959 1747 
Q 959 1106 1268 751 
Q 1578 397 2138 397 
Q 2388 397 2633 464 
Q 2878 531 3122 666 
L 3122 134 
Q 2881 22 2623 -34 
Q 2366 -91 2075 -91 
Q 1284 -91 818 406 
Q 353 903 353 1747 
Q 353 2603 823 3093 
Q 1294 3584 2113 3584 
Q 2378 3584 2631 3529 
Q 2884 3475 3122 3366 
z
" transform="scale(0.015625)"/>
       <path id="DejaVuSans-68" d="M 3513 2113 
L 3513 0 
L 2938 0 
L 2938 2094 
Q 2938 2591 2744 2837 
Q 2550 3084 2163 3084 
Q 1697 3084 1428 2787 
Q 1159 2491 1159 1978 
L 1159 0 
L 581 0 
L 581 4863 
L 1159 4863 
L 1159 2956 
Q 1366 3272 1645 3428 
Q 1925 3584 2291 3584 
Q 2894 3584 3203 3211 
Q 3513 2838 3513 2113 
z
" transform="scale(0.015625)"/>
      </defs>
      <use xlink:href="#DejaVuSans-45"/>
      <use xlink:href="#DejaVuSans-70" x="63.183594"/>
      <use xlink:href="#DejaVuSans-6f" x="126.660156"/>
      <use xlink:href="#DejaVuSans-63" x="187.841797"/>
      <use xlink:href="#DejaVuSans-68" x="242.822266"/>
     </g>
    </g>
   </g>
   <g id="matplotlib.axis_2">
    <g id="ytick_1">
     <g id="line2d_7">
      <defs>
       <path id="m6565cf24aa" d="M 0 0 
L -3.5 0 
" style="stroke: #000000; stroke-width: 0.8"/>
      </defs>
      <g>
       <use xlink:href="#m6565cf24aa" x="47.72" y="302.846201" style="stroke: #000000; stroke-width: 0.8"/>
      </g>
     </g>
     <g id="text_8">
      <!-- 0.3 -->
      <g transform="translate(24.816875 306.64542) scale(0.1 -0.1)">
       <defs>
        <path id="DejaVuSans-2e" d="M 684 794 
L 1344 794 
L 1344 0 
L 684 0 
L 684 794 
z
" transform="scale(0.015625)"/>
        <path id="DejaVuSans-33" d="M 2597 2516 
Q 3050 2419 3304 2112 
Q 3559 1806 3559 1356 
Q 3559 666 3084 287 
Q 2609 -91 1734 -91 
Q 1441 -91 1130 -33 
Q 819 25 488 141 
L 488 750 
Q 750 597 1062 519 
Q 1375 441 1716 441 
Q 2309 441 2620 675 
Q 2931 909 2931 1356 
Q 2931 1769 2642 2001 
Q 2353 2234 1838 2234 
L 1294 2234 
L 1294 2753 
L 1863 2753 
Q 2328 2753 2575 2939 
Q 2822 3125 2822 3475 
Q 2822 3834 2567 4026 
Q 2313 4219 1838 4219 
Q 1578 4219 1281 4162 
Q 984 4106 628 3988 
L 628 4550 
Q 988 4650 1302 4700 
Q 1616 4750 1894 4750 
Q 2613 4750 3031 4423 
Q 3450 4097 3450 3541 
Q 3450 3153 3228 2886 
Q 3006 2619 2597 2516 
z
" transform="scale(0.015625)"/>
       </defs>
       <use xlink:href="#DejaVuSans-30"/>
       <use xlink:href="#DejaVuSans-2e" x="63.623047"/>
       <use xlink:href="#DejaVuSans-33" x="95.410156"/>
      </g>
     </g>
    </g>
    <g id="ytick_2">
     <g id="line2d_8">
      <g>
       <use xlink:href="#m6565cf24aa" x="47.72" y="264.856522" style="stroke: #000000; stroke-width: 0.8"/>
      </g>
     </g>
     <g id="text_9">
      <!-- 0.4 -->
      <g transform="translate(24.816875 268.65574) scale(0.1 -0.1)">
       <defs>
        <path id="DejaVuSans-34" d="M 2419 4116 
L 825 1625 
L 2419 1625 
L 2419 4116 
z
M 2253 4666 
L 3047 4666 
L 3047 1625 
L 3713 1625 
L 3713 1100 
L 3047 1100 
L 3047 0 
L 2419 0 
L 2419 1100 
L 313 1100 
L 313 1709 
L 2253 4666 
z
" transform="scale(0.015625)"/>
       </defs>
       <use xlink:href="#DejaVuSans-30"/>
       <use xlink:href="#DejaVuSans-2e" x="63.623047"/>
       <use xlink:href="#DejaVuSans-34" x="95.410156"/>
      </g>
     </g>
    </g>
    <g id="ytick_3">
     <g id="line2d_9">
      <g>
       <use xlink:href="#m6565cf24aa" x="47.72" y="226.866842" style="stroke: #000000; stroke-width: 0.8"/>
      </g>
     </g>
     <g id="text_10">
      <!-- 0.5 -->
      <g transform="translate(24.816875 230.66606) scale(0.1 -0.1)">
       <use xlink:href="#DejaVuSans-30"/>
       <use xlink:href="#DejaVuSans-2e" x="63.623047"/>
       <use xlink:href="#DejaVuSans-35" x="95.410156"/>
      </g>
     </g>
    </g>
    <g id="ytick_4">
     <g id="line2d_10">
      <g>
       <use xlink:href="#m6565cf24aa" x="47.72" y="188.877162" style="stroke: #000000; stroke-width: 0.8"/>
      </g>
     </g>
     <g id="text_11">
      <!-- 0.6 -->
      <g transform="translate(24.816875 192.676381) scale(0.1 -0.1)">
       <defs>
        <path id="DejaVuSans-36" d="M 2113 2584 
Q 1688 2584 1439 2293 
Q 1191 2003 1191 1497 
Q 1191 994 1439 701 
Q 1688 409 2113 409 
Q 2538 409 2786 701 
Q 3034 994 3034 1497 
Q 3034 2003 2786 2293 
Q 2538 2584 2113 2584 
z
M 3366 4563 
L 3366 3988 
Q 3128 4100 2886 4159 
Q 2644 4219 2406 4219 
Q 1781 4219 1451 3797 
Q 1122 3375 1075 2522 
Q 1259 2794 1537 2939 
Q 1816 3084 2150 3084 
Q 2853 3084 3261 2657 
Q 3669 2231 3669 1497 
Q 3669 778 3244 343 
Q 2819 -91 2113 -91 
Q 1303 -91 875 529 
Q 447 1150 447 2328 
Q 447 3434 972 4092 
Q 1497 4750 2381 4750 
Q 2619 4750 2861 4703 
Q 3103 4656 3366 4563 
z
" transform="scale(0.015625)"/>
       </defs>
       <use xlink:href="#DejaVuSans-30"/>
       <use xlink:href="#DejaVuSans-2e" x="63.623047"/>
       <use xlink:href="#DejaVuSans-36" x="95.410156"/>
      </g>
     </g>
    </g>
    <g id="ytick_5">
     <g id="line2d_11">
      <g>
       <use xlink:href="#m6565cf24aa" x="47.72" y="150.887482" style="stroke: #000000; stroke-width: 0.8"/>
      </g>
     </g>
     <g id="text_12">
      <!-- 0.7 -->
      <g transform="translate(24.816875 154.686701) scale(0.1 -0.1)">
       <defs>
        <path id="DejaVuSans-37" d="M 525 4666 
L 3525 4666 
L 3525 4397 
L 1831 0 
L 1172 0 
L 2766 4134 
L 525 4134 
L 525 4666 
z
" transform="scale(0.015625)"/>
       </defs>
       <use xlink:href="#DejaVuSans-30"/>
       <use xlink:href="#DejaVuSans-2e" x="63.623047"/>
       <use xlink:href="#DejaVuSans-37" x="95.410156"/>
      </g>
     </g>
    </g>
    <g id="ytick_6">
     <g id="line2d_12">
      <g>
       <use xlink:href="#m6565cf24aa" x="47.72" y="112.897802" style="stroke: #000000; stroke-width: 0.8"/>
      </g>
     </g>
     <g id="text_13">
      <!-- 0.8 -->
      <g transform="translate(24.816875 116.697021) scale(0.1 -0.1)">
       <defs>
        <path id="DejaVuSans-38" d="M 2034 2216 
Q 1584 2216 1326 1975 
Q 1069 1734 1069 1313 
Q 1069 891 1326 650 
Q 1584 409 2034 409 
Q 2484 409 2743 651 
Q 3003 894 3003 1313 
Q 3003 1734 2745 1975 
Q 2488 2216 2034 2216 
z
M 1403 2484 
Q 997 2584 770 2862 
Q 544 3141 544 3541 
Q 544 4100 942 4425 
Q 1341 4750 2034 4750 
Q 2731 4750 3128 4425 
Q 3525 4100 3525 3541 
Q 3525 3141 3298 2862 
Q 3072 2584 2669 2484 
Q 3125 2378 3379 2068 
Q 3634 1759 3634 1313 
Q 3634 634 3220 271 
Q 2806 -91 2034 -91 
Q 1263 -91 848 271 
Q 434 634 434 1313 
Q 434 1759 690 2068 
Q 947 2378 1403 2484 
z
M 1172 3481 
Q 1172 3119 1398 2916 
Q 1625 2713 2034 2713 
Q 2441 2713 2670 2916 
Q 2900 3119 2900 3481 
Q 2900 3844 2670 4047 
Q 2441 4250 2034 4250 
Q 1625 4250 1398 4047 
Q 1172 3844 1172 3481 
z
" transform="scale(0.015625)"/>
       </defs>
       <use xlink:href="#DejaVuSans-30"/>
       <use xlink:href="#DejaVuSans-2e" x="63.623047"/>
       <use xlink:href="#DejaVuSans-38" x="95.410156"/>
      </g>
     </g>
    </g>
    <g id="ytick_7">
     <g id="line2d_13">
      <g>
       <use xlink:href="#m6565cf24aa" x="47.72" y="74.908122" style="stroke: #000000; stroke-width: 0.8"/>
      </g>
     </g>
     <g id="text_14">
      <!-- 0.9 -->
      <g transform="translate(24.816875 78.707341) scale(0.1 -0.1)">
       <defs>
        <path id="DejaVuSans-39" d="M 703 97 
L 703 672 
Q 941 559 1184 500 
Q 1428 441 1663 441 
Q 2288 441 2617 861 
Q 2947 1281 2994 2138 
Q 2813 1869 2534 1725 
Q 2256 1581 1919 1581 
Q 1219 1581 811 2004 
Q 403 2428 403 3163 
Q 403 3881 828 4315 
Q 1253 4750 1959 4750 
Q 2769 4750 3195 4129 
Q 3622 3509 3622 2328 
Q 3622 1225 3098 567 
Q 2575 -91 1691 -91 
Q 1453 -91 1209 -44 
Q 966 3 703 97 
z
M 1959 2075 
Q 2384 2075 2632 2365 
Q 2881 2656 2881 3163 
Q 2881 3666 2632 3958 
Q 2384 4250 1959 4250 
Q 1534 4250 1286 3958 
Q 1038 3666 1038 3163 
Q 1038 2656 1286 2365 
Q 1534 2075 1959 2075 
z
" transform="scale(0.015625)"/>
       </defs>
       <use xlink:href="#DejaVuSans-30"/>
       <use xlink:href="#DejaVuSans-2e" x="63.623047"/>
       <use xlink:href="#DejaVuSans-39" x="95.410156"/>
      </g>
     </g>
    </g>
    <g id="ytick_8">
     <g id="line2d_14">
      <g>
       <use xlink:href="#m6565cf24aa" x="47.72" y="36.918442" style="stroke: #000000; stroke-width: 0.8"/>
      </g>
     </g>
     <g id="text_15">
      <!-- 1.0 -->
      <g transform="translate(24.816875 40.717661) scale(0.1 -0.1)">
       <use xlink:href="#DejaVuSans-31"/>
       <use xlink:href="#DejaVuSans-2e" x="63.623047"/>
       <use xlink:href="#DejaVuSans-30" x="95.410156"/>
      </g>
     </g>
    </g>
    <g id="text_16">
     <!-- Loss -->
     <g transform="translate(18.737187 183.427188) rotate(-90) scale(0.1 -0.1)">
      <defs>
       <path id="DejaVuSans-4c" d="M 628 4666 
L 1259 4666 
L 1259 531 
L 3531 531 
L 3531 0 
L 628 0 
L 628 4666 
z
" transform="scale(0.015625)"/>
       <path id="DejaVuSans-73" d="M 2834 3397 
L 2834 2853 
Q 2591 2978 2328 3040 
Q 2066 3103 1784 3103 
Q 1356 3103 1142 2972 
Q 928 2841 928 2578 
Q 928 2378 1081 2264 
Q 1234 2150 1697 2047 
L 1894 2003 
Q 2506 1872 2764 1633 
Q 3022 1394 3022 966 
Q 3022 478 2636 193 
Q 2250 -91 1575 -91 
Q 1294 -91 989 -36 
Q 684 19 347 128 
L 347 722 
Q 666 556 975 473 
Q 1284 391 1588 391 
Q 1994 391 2212 530 
Q 2431 669 2431 922 
Q 2431 1156 2273 1281 
Q 2116 1406 1581 1522 
L 1381 1569 
Q 847 1681 609 1914 
Q 372 2147 372 2553 
Q 372 3047 722 3315 
Q 1072 3584 1716 3584 
Q 2034 3584 2315 3537 
Q 2597 3491 2834 3397 
z
" transform="scale(0.015625)"/>
      </defs>
      <use xlink:href="#DejaVuSans-4c"/>
      <use xlink:href="#DejaVuSans-6f" x="53.962891"/>
      <use xlink:href="#DejaVuSans-73" x="115.144531"/>
      <use xlink:href="#DejaVuSans-73" x="167.244141"/>
     </g>
    </g>
   </g>
   <g id="line2d_15">
    <path d="M 61.557273 206.374506 
L 62.6687 207.278436 
L 63.780128 213.243316 
L 64.891555 224.589684 
L 66.002983 228.126583 
L 67.11441 230.047311 
L 68.225838 232.639928 
L 70.448693 236.692983 
L 71.56012 236.509339 
L 74.894403 254.064764 
L 76.005831 256.881145 
L 77.117258 256.191737 
L 78.228686 257.712534 
L 79.340113 260.415571 
L 80.451541 257.927785 
L 81.562968 262.708909 
L 82.674396 262.87954 
L 83.785823 264.670065 
L 84.897251 265.94433 
L 86.008678 264.882921 
L 87.120106 267.697501 
L 88.231533 269.476395 
L 89.342961 267.891042 
L 90.454388 270.537225 
L 91.565816 270.631374 
L 92.677244 269.562885 
L 93.788671 271.869198 
L 94.900099 272.833267 
L 96.011526 270.963912 
L 97.122954 273.105722 
L 98.234381 271.63524 
L 99.345809 274.497262 
L 100.457236 272.761908 
L 101.568664 273.803861 
L 102.680091 274.297607 
L 103.791519 277.284659 
L 106.014374 273.985191 
L 107.125801 277.946713 
L 108.237229 278.674452 
L 109.348656 276.959669 
L 110.460084 278.584538 
L 111.571512 277.557219 
L 112.682939 279.500594 
L 113.794367 280.084018 
L 114.905794 276.891637 
L 117.128649 280.036875 
L 118.240077 278.094224 
L 119.351504 281.554409 
L 120.462932 282.484345 
L 121.574359 279.355672 
L 122.685787 281.980747 
L 123.797214 282.330589 
L 124.908642 284.352101 
L 126.020069 283.421963 
L 127.131497 283.115356 
L 128.242924 284.170489 
L 129.354352 284.351462 
L 130.465779 282.190628 
L 131.577207 284.050598 
L 132.688635 283.76434 
L 133.800062 284.664217 
L 134.91149 285.071636 
L 136.022917 285.34374 
L 137.134345 284.610852 
L 138.245772 286.392072 
L 139.3572 287.536018 
L 140.468627 287.526912 
L 141.580055 287.748252 
L 142.691482 287.139534 
L 143.80291 285.861495 
L 144.914337 289.026067 
L 146.025765 288.543464 
L 147.137192 288.531588 
L 149.360047 289.271523 
L 150.471475 290.504215 
L 151.582903 289.648874 
L 152.69433 289.050476 
L 153.805758 290.587422 
L 154.917185 289.597665 
L 156.028613 291.454173 
L 157.14004 290.263466 
L 159.362895 290.637728 
L 160.474323 292.034796 
L 161.58575 292.972104 
L 162.697178 288.145996 
L 163.808605 292.790681 
L 164.920033 292.181197 
L 166.03146 293.416673 
L 167.142888 292.471823 
L 168.254315 292.14515 
L 169.365743 294.135717 
L 170.477171 292.648108 
L 171.588598 292.333127 
L 172.700026 294.008079 
L 173.811453 294.93536 
L 174.922881 294.29109 
L 176.034308 294.535703 
L 177.145736 295.061008 
L 178.257163 295.381353 
L 180.480018 293.863777 
L 181.591446 294.273537 
L 182.702873 294.952926 
L 184.925728 296.574165 
L 186.037156 295.342689 
L 187.148583 296.026207 
L 188.260011 293.955104 
L 189.371438 295.586072 
L 190.482866 296.37436 
L 191.594294 296.569241 
L 192.705721 296.059624 
L 193.817149 296.255112 
L 194.928576 296.748159 
L 196.040004 295.396121 
L 197.151431 296.609992 
L 198.262859 297.120438 
L 199.374286 295.533359 
L 200.485714 296.901979 
L 202.708569 298.069091 
L 203.819996 298.163396 
L 204.931424 296.409284 
L 206.042851 297.430804 
L 207.154279 297.630218 
L 208.265706 296.519646 
L 209.377134 297.721948 
L 210.488562 298.2884 
L 211.599989 298.422002 
L 212.711417 298.051879 
L 213.822844 297.493097 
L 214.934272 297.673663 
L 216.045699 298.842728 
L 217.157127 298.320673 
L 218.268554 298.558224 
L 219.379982 298.175081 
L 220.491409 298.201302 
L 221.602837 298.438616 
L 222.714264 298.847677 
L 223.825692 297.489829 
L 224.937119 299.368016 
L 226.048547 299.501012 
L 227.159974 298.270122 
L 228.271402 300.602911 
L 229.382829 299.408669 
L 230.494257 299.485711 
L 231.605685 299.950245 
L 232.717112 299.88568 
L 233.82854 298.98422 
L 234.939967 299.984899 
L 236.051395 300.153662 
L 237.162822 300.772379 
L 240.497105 299.262932 
L 241.608532 300.523733 
L 242.71996 300.504441 
L 243.831387 298.818773 
L 244.942815 300.91266 
L 246.054242 300.552536 
L 247.16567 300.402648 
L 248.277097 300.862436 
L 249.388525 300.929901 
L 250.499953 300.193221 
L 251.61138 300.209709 
L 252.722808 301.462805 
L 253.834235 300.029524 
L 254.945663 301.665897 
L 256.05709 299.380078 
L 257.168518 301.915743 
L 258.279945 301.419098 
L 259.391373 301.820621 
L 260.5028 301.884103 
L 261.614228 301.29884 
L 262.725655 302.023971 
L 263.837083 299.981212 
L 264.94851 302.517171 
L 266.059938 301.44377 
L 267.171365 301.515514 
L 268.282793 301.374455 
L 269.394221 300.9273 
L 270.505648 301.678559 
L 271.617076 300.600599 
L 272.728503 301.277799 
L 273.839931 301.604439 
L 274.951358 302.500449 
L 276.062786 302.714794 
L 277.174213 302.767082 
L 278.285641 301.339611 
L 279.397068 300.763589 
L 280.508496 302.1068 
L 281.619923 302.111725 
L 282.731351 301.297933 
L 283.842778 302.573759 
L 284.954206 302.43263 
L 286.065633 301.937121 
L 287.177061 302.286334 
L 288.288488 303.069809 
L 289.399916 302.913601 
L 290.511344 303.165625 
L 291.622771 303.301975 
L 292.734199 302.799827 
L 293.845626 302.665909 
L 297.179909 302.640222 
L 298.291336 303.729365 
L 299.402764 303.34855 
L 300.514191 303.168908 
L 301.625619 302.800898 
L 302.737046 303.117876 
L 303.848474 302.810424 
L 304.959901 302.878412 
L 306.071329 303.756473 
L 307.182756 302.911384 
L 308.294184 302.446626 
L 309.405612 302.96954 
L 310.517039 302.865374 
L 311.628467 303.701119 
L 312.739894 303.489778 
L 313.851322 303.595707 
L 314.962749 303.864853 
L 316.074177 302.913448 
L 317.185604 304.262237 
L 318.297032 303.320459 
L 319.408459 303.943361 
L 320.519887 304.127765 
L 321.631314 303.458079 
L 322.742742 303.48425 
L 324.965597 304.123014 
L 326.077024 303.14869 
L 327.188452 304.805455 
L 328.29988 303.56173 
L 329.411307 304.566261 
L 330.522735 303.108014 
L 332.74559 304.526889 
L 333.857017 304.403201 
L 334.968445 303.109991 
L 336.079872 303.286991 
L 337.1913 304.411269 
L 338.302727 303.282621 
L 338.302727 303.282621 
" clip-path="url(#pc70195aed9)" style="fill: none; stroke: #1f77b4; stroke-width: 1.5; stroke-linecap: square"/>
   </g>
   <g id="line2d_16">
    <path d="M 61.557273 49.298551 
L 62.6687 60.776309 
L 63.780128 82.166225 
L 64.891555 78.515125 
L 66.002983 67.444495 
L 67.11441 100.389725 
L 68.225838 60.261604 
L 69.337265 81.372519 
L 70.448693 79.773133 
L 71.56012 96.598038 
L 72.671548 85.254587 
L 73.782976 89.675012 
L 74.894403 120.135308 
L 76.005831 40.114545 
L 77.117258 91.365959 
L 78.228686 117.916279 
L 79.340113 74.785686 
L 80.451541 97.135085 
L 81.562968 64.24126 
L 82.674396 81.331933 
L 83.785823 102.003123 
L 84.897251 90.071342 
L 86.008678 105.269902 
L 87.120106 155.023368 
L 88.231533 73.070753 
L 89.342961 128.16628 
L 90.454388 134.088877 
L 91.565816 76.893964 
L 92.677244 118.762988 
L 93.788671 138.438722 
L 94.900099 65.317918 
L 96.011526 117.75103 
L 97.122954 84.84651 
L 98.234381 117.427577 
L 99.345809 91.671701 
L 100.457236 115.476334 
L 101.568664 123.816533 
L 102.680091 136.246618 
L 103.791519 83.055763 
L 104.902946 117.593365 
L 106.014374 120.315468 
L 107.125801 151.143747 
L 108.237229 114.448439 
L 109.348656 109.329737 
L 110.460084 103.313448 
L 112.682939 135.384818 
L 113.794367 63.594476 
L 116.017222 120.274254 
L 117.128649 81.026039 
L 118.240077 131.088651 
L 119.351504 121.516477 
L 120.462932 77.824628 
L 121.574359 139.173607 
L 122.685787 109.471282 
L 123.797214 123.903103 
L 124.908642 129.609899 
L 126.020069 113.984045 
L 127.131497 94.272963 
L 128.242924 145.660265 
L 129.354352 85.437584 
L 130.465779 127.099188 
L 131.577207 96.76455 
L 132.688635 123.21459 
L 133.800062 137.608998 
L 134.91149 93.561472 
L 136.022917 107.793147 
L 137.134345 119.129973 
L 138.245772 105.081297 
L 139.3572 104.992692 
L 140.468627 124.603815 
L 141.580055 106.21898 
L 142.691482 58.86388 
L 143.80291 101.47482 
L 144.914337 115.572325 
L 146.025765 132.223118 
L 147.137192 127.218669 
L 148.24862 129.229982 
L 149.360047 107.975221 
L 150.471475 111.865272 
L 151.582903 137.906464 
L 152.69433 136.953359 
L 153.805758 103.038403 
L 156.028613 122.306671 
L 157.14004 91.460075 
L 158.251468 132.587928 
L 159.362895 132.816171 
L 160.474323 130.601243 
L 161.58575 43.234056 
L 162.697178 131.10052 
L 163.808605 121.630585 
L 164.920033 151.193524 
L 166.03146 139.905806 
L 167.142888 127.447074 
L 168.254315 153.226651 
L 169.365743 130.868112 
L 170.477171 116.23677 
L 171.588598 120.319315 
L 172.700026 129.75346 
L 173.811453 130.444365 
L 174.922881 136.765046 
L 176.034308 114.858088 
L 177.145736 136.355213 
L 178.257163 115.728613 
L 179.368591 114.540568 
L 180.480018 109.168591 
L 181.591446 133.366731 
L 182.702873 125.175554 
L 183.814301 141.45416 
L 184.925728 124.71719 
L 186.037156 131.242108 
L 187.148583 104.503557 
L 188.260011 126.724199 
L 189.371438 118.510003 
L 190.482866 138.329043 
L 191.594294 124.830279 
L 192.705721 153.416717 
L 193.817149 138.650833 
L 194.928576 103.189336 
L 196.040004 135.246873 
L 197.151431 126.519981 
L 198.262859 137.135515 
L 199.374286 130.437634 
L 200.485714 146.465197 
L 201.597141 133.011597 
L 202.708569 130.371973 
L 203.819996 113.589147 
L 204.931424 103.082035 
L 207.154279 125.805937 
L 208.265706 151.35482 
L 209.377134 130.230757 
L 210.488562 120.486087 
L 211.599989 154.603707 
L 212.711417 110.219589 
L 213.822844 141.735918 
L 214.934272 131.662545 
L 216.045699 131.717797 
L 217.157127 152.028831 
L 218.268554 112.11111 
L 219.379982 131.679413 
L 220.491409 114.486324 
L 221.602837 110.827018 
L 222.714264 117.133387 
L 223.825692 149.22882 
L 224.937119 141.683455 
L 226.048547 127.710337 
L 227.159974 153.376234 
L 228.271402 148.338777 
L 229.382829 159.722045 
L 230.494257 156.927333 
L 231.605685 130.912604 
L 232.717112 156.838986 
L 233.82854 108.509206 
L 234.939967 147.352159 
L 236.051395 157.356804 
L 237.162822 124.673361 
L 238.27425 132.557475 
L 239.385677 112.796038 
L 240.497105 149.211318 
L 241.608532 150.89814 
L 242.71996 129.612686 
L 243.831387 152.030928 
L 244.942815 120.31202 
L 246.054242 118.656323 
L 247.16567 124.507271 
L 248.277097 155.410001 
L 249.388525 130.455186 
L 250.499953 140.744368 
L 251.61138 137.925252 
L 252.722808 123.006792 
L 253.834235 161.988218 
L 254.945663 102.082986 
L 256.05709 149.965543 
L 257.168518 137.969036 
L 258.279945 130.062519 
L 259.391373 147.831603 
L 260.5028 133.897903 
L 261.614228 155.325118 
L 262.725655 127.039729 
L 263.837083 167.666973 
L 264.94851 135.106321 
L 266.059938 151.774636 
L 267.171365 152.771197 
L 268.282793 147.107376 
L 269.394221 147.108955 
L 270.505648 143.028094 
L 271.617076 135.756344 
L 272.728503 131.775354 
L 273.839931 157.627159 
L 274.951358 153.980915 
L 276.062786 143.368545 
L 277.174213 128.734227 
L 278.285641 146.825063 
L 279.397068 135.166649 
L 280.508496 131.527655 
L 281.619923 129.168141 
L 282.731351 151.656067 
L 283.842778 158.208142 
L 284.954206 122.502757 
L 286.065633 146.281448 
L 287.177061 149.438824 
L 288.288488 141.616699 
L 289.399916 159.463991 
L 290.511344 149.922882 
L 291.622771 154.532512 
L 292.734199 133.206829 
L 293.845626 141.470842 
L 294.957054 134.018893 
L 296.068481 148.988355 
L 297.179909 145.625586 
L 298.291336 165.25239 
L 299.402764 128.289146 
L 300.514191 143.419198 
L 301.625619 151.288257 
L 302.737046 150.974497 
L 303.848474 143.740837 
L 304.959901 149.379686 
L 306.071329 144.674783 
L 307.182756 133.797496 
L 308.294184 133.04371 
L 309.405612 138.177684 
L 310.517039 166.13052 
L 311.628467 150.543175 
L 312.739894 148.250249 
L 313.851322 141.238133 
L 314.962749 146.324763 
L 316.074177 161.273947 
L 317.185604 147.000045 
L 318.297032 151.983358 
L 319.408459 157.660323 
L 320.519887 150.862662 
L 321.631314 167.345259 
L 322.742742 158.577043 
L 323.854169 151.344538 
L 324.965597 131.830594 
L 326.077024 159.222399 
L 327.188452 127.837204 
L 328.29988 162.325934 
L 329.411307 127.684343 
L 330.522735 149.668306 
L 331.634162 155.189023 
L 332.74559 150.036032 
L 333.857017 145.413286 
L 334.968445 146.772054 
L 336.079872 163.67269 
L 337.1913 133.669702 
L 338.302727 160.967459 
L 338.302727 160.967459 
" clip-path="url(#pc70195aed9)" style="fill: none; stroke: #ff7f0e; stroke-width: 1.5; stroke-linecap: square"/>
   </g>
   <g id="patch_3">
    <path d="M 47.72 318.04 
L 47.72 26.88 
" style="fill: none; stroke: #000000; stroke-width: 0.8; stroke-linejoin: miter; stroke-linecap: square"/>
   </g>
   <g id="patch_4">
    <path d="M 352.14 318.04 
L 352.14 26.88 
" style="fill: none; stroke: #000000; stroke-width: 0.8; stroke-linejoin: miter; stroke-linecap: square"/>
   </g>
   <g id="patch_5">
    <path d="M 47.72 318.04 
L 352.14 318.04 
" style="fill: none; stroke: #000000; stroke-width: 0.8; stroke-linejoin: miter; stroke-linecap: square"/>
   </g>
   <g id="patch_6">
    <path d="M 47.72 26.88 
L 352.14 26.88 
" style="fill: none; stroke: #000000; stroke-width: 0.8; stroke-linejoin: miter; stroke-linecap: square"/>
   </g>
   <g id="text_17">
    <!-- Loss vs Epoch -->
    <g transform="translate(157.905625 20.88) scale(0.12 -0.12)">
     <defs>
      <path id="DejaVuSans-20" transform="scale(0.015625)"/>
      <path id="DejaVuSans-76" d="M 191 3500 
L 800 3500 
L 1894 563 
L 2988 3500 
L 3597 3500 
L 2284 0 
L 1503 0 
L 191 3500 
z
" transform="scale(0.015625)"/>
     </defs>
     <use xlink:href="#DejaVuSans-4c"/>
     <use xlink:href="#DejaVuSans-6f" x="53.962891"/>
     <use xlink:href="#DejaVuSans-73" x="115.144531"/>
     <use xlink:href="#DejaVuSans-73" x="167.244141"/>
     <use xlink:href="#DejaVuSans-20" x="219.34375"/>
     <use xlink:href="#DejaVuSans-76" x="251.130859"/>
     <use xlink:href="#DejaVuSans-73" x="310.310547"/>
     <use xlink:href="#DejaVuSans-20" x="362.410156"/>
     <use xlink:href="#DejaVuSans-45" x="394.197266"/>
     <use xlink:href="#DejaVuSans-70" x="457.380859"/>
     <use xlink:href="#DejaVuSans-6f" x="520.857422"/>
     <use xlink:href="#DejaVuSans-63" x="582.039062"/>
     <use xlink:href="#DejaVuSans-68" x="637.019531"/>
    </g>
   </g>
   <g id="legend_1">
    <g id="patch_7">
     <path d="M 238.64625 64.23625 
L 345.14 64.23625 
Q 347.14 64.23625 347.14 62.23625 
L 347.14 33.88 
Q 347.14 31.88 345.14 31.88 
L 238.64625 31.88 
Q 236.64625 31.88 236.64625 33.88 
L 236.64625 62.23625 
Q 236.64625 64.23625 238.64625 64.23625 
z
" style="fill: #ffffff; opacity: 0.8; stroke: #cccccc; stroke-linejoin: miter"/>
    </g>
    <g id="line2d_17">
     <path d="M 240.64625 39.978437 
L 250.64625 39.978437 
L 260.64625 39.978437 
" style="fill: none; stroke: #1f77b4; stroke-width: 1.5; stroke-linecap: square"/>
    </g>
    <g id="text_18">
     <!-- Train Loss -->
     <g transform="translate(268.64625 43.478437) scale(0.1 -0.1)">
      <defs>
       <path id="DejaVuSans-54" d="M -19 4666 
L 3928 4666 
L 3928 4134 
L 2272 4134 
L 2272 0 
L 1638 0 
L 1638 4134 
L -19 4134 
L -19 4666 
z
" transform="scale(0.015625)"/>
       <path id="DejaVuSans-72" d="M 2631 2963 
Q 2534 3019 2420 3045 
Q 2306 3072 2169 3072 
Q 1681 3072 1420 2755 
Q 1159 2438 1159 1844 
L 1159 0 
L 581 0 
L 581 3500 
L 1159 3500 
L 1159 2956 
Q 1341 3275 1631 3429 
Q 1922 3584 2338 3584 
Q 2397 3584 2469 3576 
Q 2541 3569 2628 3553 
L 2631 2963 
z
" transform="scale(0.015625)"/>
       <path id="DejaVuSans-61" d="M 2194 1759 
Q 1497 1759 1228 1600 
Q 959 1441 959 1056 
Q 959 750 1161 570 
Q 1363 391 1709 391 
Q 2188 391 2477 730 
Q 2766 1069 2766 1631 
L 2766 1759 
L 2194 1759 
z
M 3341 1997 
L 3341 0 
L 2766 0 
L 2766 531 
Q 2569 213 2275 61 
Q 1981 -91 1556 -91 
Q 1019 -91 701 211 
Q 384 513 384 1019 
Q 384 1609 779 1909 
Q 1175 2209 1959 2209 
L 2766 2209 
L 2766 2266 
Q 2766 2663 2505 2880 
Q 2244 3097 1772 3097 
Q 1472 3097 1187 3025 
Q 903 2953 641 2809 
L 641 3341 
Q 956 3463 1253 3523 
Q 1550 3584 1831 3584 
Q 2591 3584 2966 3190 
Q 3341 2797 3341 1997 
z
" transform="scale(0.015625)"/>
       <path id="DejaVuSans-69" d="M 603 3500 
L 1178 3500 
L 1178 0 
L 603 0 
L 603 3500 
z
M 603 4863 
L 1178 4863 
L 1178 4134 
L 603 4134 
L 603 4863 
z
" transform="scale(0.015625)"/>
       <path id="DejaVuSans-6e" d="M 3513 2113 
L 3513 0 
L 2938 0 
L 2938 2094 
Q 2938 2591 2744 2837 
Q 2550 3084 2163 3084 
Q 1697 3084 1428 2787 
Q 1159 2491 1159 1978 
L 1159 0 
L 581 0 
L 581 3500 
L 1159 3500 
L 1159 2956 
Q 1366 3272 1645 3428 
Q 1925 3584 2291 3584 
Q 2894 3584 3203 3211 
Q 3513 2838 3513 2113 
z
" transform="scale(0.015625)"/>
      </defs>
      <use xlink:href="#DejaVuSans-54"/>
      <use xlink:href="#DejaVuSans-72" x="46.333984"/>
      <use xlink:href="#DejaVuSans-61" x="87.447266"/>
      <use xlink:href="#DejaVuSans-69" x="148.726562"/>
      <use xlink:href="#DejaVuSans-6e" x="176.509766"/>
      <use xlink:href="#DejaVuSans-20" x="239.888672"/>
      <use xlink:href="#DejaVuSans-4c" x="271.675781"/>
      <use xlink:href="#DejaVuSans-6f" x="325.638672"/>
      <use xlink:href="#DejaVuSans-73" x="386.820312"/>
      <use xlink:href="#DejaVuSans-73" x="438.919922"/>
     </g>
    </g>
    <g id="line2d_18">
     <path d="M 240.64625 54.656563 
L 250.64625 54.656563 
L 260.64625 54.656563 
" style="fill: none; stroke: #ff7f0e; stroke-width: 1.5; stroke-linecap: square"/>
    </g>
    <g id="text_19">
     <!-- Validation Loss -->
     <g transform="translate(268.64625 58.156563) scale(0.1 -0.1)">
      <defs>
       <path id="DejaVuSans-56" d="M 1831 0 
L 50 4666 
L 709 4666 
L 2188 738 
L 3669 4666 
L 4325 4666 
L 2547 0 
L 1831 0 
z
" transform="scale(0.015625)"/>
       <path id="DejaVuSans-6c" d="M 603 4863 
L 1178 4863 
L 1178 0 
L 603 0 
L 603 4863 
z
" transform="scale(0.015625)"/>
       <path id="DejaVuSans-64" d="M 2906 2969 
L 2906 4863 
L 3481 4863 
L 3481 0 
L 2906 0 
L 2906 525 
Q 2725 213 2448 61 
Q 2172 -91 1784 -91 
Q 1150 -91 751 415 
Q 353 922 353 1747 
Q 353 2572 751 3078 
Q 1150 3584 1784 3584 
Q 2172 3584 2448 3432 
Q 2725 3281 2906 2969 
z
M 947 1747 
Q 947 1113 1208 752 
Q 1469 391 1925 391 
Q 2381 391 2643 752 
Q 2906 1113 2906 1747 
Q 2906 2381 2643 2742 
Q 2381 3103 1925 3103 
Q 1469 3103 1208 2742 
Q 947 2381 947 1747 
z
" transform="scale(0.015625)"/>
       <path id="DejaVuSans-74" d="M 1172 4494 
L 1172 3500 
L 2356 3500 
L 2356 3053 
L 1172 3053 
L 1172 1153 
Q 1172 725 1289 603 
Q 1406 481 1766 481 
L 2356 481 
L 2356 0 
L 1766 0 
Q 1100 0 847 248 
Q 594 497 594 1153 
L 594 3053 
L 172 3053 
L 172 3500 
L 594 3500 
L 594 4494 
L 1172 4494 
z
" transform="scale(0.015625)"/>
      </defs>
      <use xlink:href="#DejaVuSans-56"/>
      <use xlink:href="#DejaVuSans-61" x="60.658203"/>
      <use xlink:href="#DejaVuSans-6c" x="121.9375"/>
      <use xlink:href="#DejaVuSans-69" x="149.720703"/>
      <use xlink:href="#DejaVuSans-64" x="177.503906"/>
      <use xlink:href="#DejaVuSans-61" x="240.980469"/>
      <use xlink:href="#DejaVuSans-74" x="302.259766"/>
      <use xlink:href="#DejaVuSans-69" x="341.46875"/>
      <use xlink:href="#DejaVuSans-6f" x="369.251953"/>
      <use xlink:href="#DejaVuSans-6e" x="430.433594"/>
      <use xlink:href="#DejaVuSans-20" x="493.8125"/>
      <use xlink:href="#DejaVuSans-4c" x="525.599609"/>
      <use xlink:href="#DejaVuSans-6f" x="579.5625"/>
      <use xlink:href="#DejaVuSans-73" x="640.744141"/>
      <use xlink:href="#DejaVuSans-73" x="692.84375"/>
     </g>
    </g>
   </g>
  </g>
  <g id="axes_2">
   <g id="patch_8">
    <path d="M 406.25 318.04 
L 710.67 318.04 
L 710.67 26.88 
L 406.25 26.88 
z
" style="fill: #ffffff"/>
   </g>
   <g id="matplotlib.axis_3">
    <g id="xtick_7">
     <g id="line2d_19">
      <g>
       <use xlink:href="#m1fb3652dce" x="420.087273" y="318.04" style="stroke: #000000; stroke-width: 0.8"/>
      </g>
     </g>
     <g id="text_20">
      <!-- 0 -->
      <g transform="translate(416.906023 332.638438) scale(0.1 -0.1)">
       <use xlink:href="#DejaVuSans-30"/>
      </g>
     </g>
    </g>
    <g id="xtick_8">
     <g id="line2d_20">
      <g>
       <use xlink:href="#m1fb3652dce" x="475.658649" y="318.04" style="stroke: #000000; stroke-width: 0.8"/>
      </g>
     </g>
     <g id="text_21">
      <!-- 50 -->
      <g transform="translate(469.296149 332.638438) scale(0.1 -0.1)">
       <use xlink:href="#DejaVuSans-35"/>
       <use xlink:href="#DejaVuSans-30" x="63.623047"/>
      </g>
     </g>
    </g>
    <g id="xtick_9">
     <g id="line2d_21">
      <g>
       <use xlink:href="#m1fb3652dce" x="531.230026" y="318.04" style="stroke: #000000; stroke-width: 0.8"/>
      </g>
     </g>
     <g id="text_22">
      <!-- 100 -->
      <g transform="translate(521.686276 332.638438) scale(0.1 -0.1)">
       <use xlink:href="#DejaVuSans-31"/>
       <use xlink:href="#DejaVuSans-30" x="63.623047"/>
       <use xlink:href="#DejaVuSans-30" x="127.246094"/>
      </g>
     </g>
    </g>
    <g id="xtick_10">
     <g id="line2d_22">
      <g>
       <use xlink:href="#m1fb3652dce" x="586.801402" y="318.04" style="stroke: #000000; stroke-width: 0.8"/>
      </g>
     </g>
     <g id="text_23">
      <!-- 150 -->
      <g transform="translate(577.257652 332.638438) scale(0.1 -0.1)">
       <use xlink:href="#DejaVuSans-31"/>
       <use xlink:href="#DejaVuSans-35" x="63.623047"/>
       <use xlink:href="#DejaVuSans-30" x="127.246094"/>
      </g>
     </g>
    </g>
    <g id="xtick_11">
     <g id="line2d_23">
      <g>
       <use xlink:href="#m1fb3652dce" x="642.372778" y="318.04" style="stroke: #000000; stroke-width: 0.8"/>
      </g>
     </g>
     <g id="text_24">
      <!-- 200 -->
      <g transform="translate(632.829028 332.638438) scale(0.1 -0.1)">
       <use xlink:href="#DejaVuSans-32"/>
       <use xlink:href="#DejaVuSans-30" x="63.623047"/>
       <use xlink:href="#DejaVuSans-30" x="127.246094"/>
      </g>
     </g>
    </g>
    <g id="xtick_12">
     <g id="line2d_24">
      <g>
       <use xlink:href="#m1fb3652dce" x="697.944155" y="318.04" style="stroke: #000000; stroke-width: 0.8"/>
      </g>
     </g>
     <g id="text_25">
      <!-- 250 -->
      <g transform="translate(688.400405 332.638438) scale(0.1 -0.1)">
       <use xlink:href="#DejaVuSans-32"/>
       <use xlink:href="#DejaVuSans-35" x="63.623047"/>
       <use xlink:href="#DejaVuSans-30" x="127.246094"/>
      </g>
     </g>
    </g>
    <g id="text_26">
     <!-- Epoch -->
     <g transform="translate(543.149063 346.316563) scale(0.1 -0.1)">
      <use xlink:href="#DejaVuSans-45"/>
      <use xlink:href="#DejaVuSans-70" x="63.183594"/>
      <use xlink:href="#DejaVuSans-6f" x="126.660156"/>
      <use xlink:href="#DejaVuSans-63" x="187.841797"/>
      <use xlink:href="#DejaVuSans-68" x="242.822266"/>
     </g>
    </g>
   </g>
   <g id="matplotlib.axis_4">
    <g id="ytick_9">
     <g id="line2d_25">
      <g>
       <use xlink:href="#m6565cf24aa" x="406.25" y="302.434822" style="stroke: #000000; stroke-width: 0.8"/>
      </g>
     </g>
     <g id="text_27">
      <!-- 0.70 -->
      <g transform="translate(376.984375 306.234041) scale(0.1 -0.1)">
       <use xlink:href="#DejaVuSans-30"/>
       <use xlink:href="#DejaVuSans-2e" x="63.623047"/>
       <use xlink:href="#DejaVuSans-37" x="95.410156"/>
       <use xlink:href="#DejaVuSans-30" x="159.033203"/>
      </g>
     </g>
    </g>
    <g id="ytick_10">
     <g id="line2d_26">
      <g>
       <use xlink:href="#m6565cf24aa" x="406.25" y="268.132544" style="stroke: #000000; stroke-width: 0.8"/>
      </g>
     </g>
     <g id="text_28">
      <!-- 0.72 -->
      <g transform="translate(376.984375 271.931763) scale(0.1 -0.1)">
       <use xlink:href="#DejaVuSans-30"/>
       <use xlink:href="#DejaVuSans-2e" x="63.623047"/>
       <use xlink:href="#DejaVuSans-37" x="95.410156"/>
       <use xlink:href="#DejaVuSans-32" x="159.033203"/>
      </g>
     </g>
    </g>
    <g id="ytick_11">
     <g id="line2d_27">
      <g>
       <use xlink:href="#m6565cf24aa" x="406.25" y="233.830266" style="stroke: #000000; stroke-width: 0.8"/>
      </g>
     </g>
     <g id="text_29">
      <!-- 0.74 -->
      <g transform="translate(376.984375 237.629484) scale(0.1 -0.1)">
       <use xlink:href="#DejaVuSans-30"/>
       <use xlink:href="#DejaVuSans-2e" x="63.623047"/>
       <use xlink:href="#DejaVuSans-37" x="95.410156"/>
       <use xlink:href="#DejaVuSans-34" x="159.033203"/>
      </g>
     </g>
    </g>
    <g id="ytick_12">
     <g id="line2d_28">
      <g>
       <use xlink:href="#m6565cf24aa" x="406.25" y="199.527988" style="stroke: #000000; stroke-width: 0.8"/>
      </g>
     </g>
     <g id="text_30">
      <!-- 0.76 -->
      <g transform="translate(376.984375 203.327206) scale(0.1 -0.1)">
       <use xlink:href="#DejaVuSans-30"/>
       <use xlink:href="#DejaVuSans-2e" x="63.623047"/>
       <use xlink:href="#DejaVuSans-37" x="95.410156"/>
       <use xlink:href="#DejaVuSans-36" x="159.033203"/>
      </g>
     </g>
    </g>
    <g id="ytick_13">
     <g id="line2d_29">
      <g>
       <use xlink:href="#m6565cf24aa" x="406.25" y="165.225709" style="stroke: #000000; stroke-width: 0.8"/>
      </g>
     </g>
     <g id="text_31">
      <!-- 0.78 -->
      <g transform="translate(376.984375 169.024928) scale(0.1 -0.1)">
       <use xlink:href="#DejaVuSans-30"/>
       <use xlink:href="#DejaVuSans-2e" x="63.623047"/>
       <use xlink:href="#DejaVuSans-37" x="95.410156"/>
       <use xlink:href="#DejaVuSans-38" x="159.033203"/>
      </g>
     </g>
    </g>
    <g id="ytick_14">
     <g id="line2d_30">
      <g>
       <use xlink:href="#m6565cf24aa" x="406.25" y="130.923431" style="stroke: #000000; stroke-width: 0.8"/>
      </g>
     </g>
     <g id="text_32">
      <!-- 0.80 -->
      <g transform="translate(376.984375 134.72265) scale(0.1 -0.1)">
       <use xlink:href="#DejaVuSans-30"/>
       <use xlink:href="#DejaVuSans-2e" x="63.623047"/>
       <use xlink:href="#DejaVuSans-38" x="95.410156"/>
       <use xlink:href="#DejaVuSans-30" x="159.033203"/>
      </g>
     </g>
    </g>
    <g id="ytick_15">
     <g id="line2d_31">
      <g>
       <use xlink:href="#m6565cf24aa" x="406.25" y="96.621153" style="stroke: #000000; stroke-width: 0.8"/>
      </g>
     </g>
     <g id="text_33">
      <!-- 0.82 -->
      <g transform="translate(376.984375 100.420372) scale(0.1 -0.1)">
       <use xlink:href="#DejaVuSans-30"/>
       <use xlink:href="#DejaVuSans-2e" x="63.623047"/>
       <use xlink:href="#DejaVuSans-38" x="95.410156"/>
       <use xlink:href="#DejaVuSans-32" x="159.033203"/>
      </g>
     </g>
    </g>
    <g id="ytick_16">
     <g id="line2d_32">
      <g>
       <use xlink:href="#m6565cf24aa" x="406.25" y="62.318875" style="stroke: #000000; stroke-width: 0.8"/>
      </g>
     </g>
     <g id="text_34">
      <!-- 0.84 -->
      <g transform="translate(376.984375 66.118093) scale(0.1 -0.1)">
       <use xlink:href="#DejaVuSans-30"/>
       <use xlink:href="#DejaVuSans-2e" x="63.623047"/>
       <use xlink:href="#DejaVuSans-38" x="95.410156"/>
       <use xlink:href="#DejaVuSans-34" x="159.033203"/>
      </g>
     </g>
    </g>
    <g id="ytick_17">
     <g id="line2d_33">
      <g>
       <use xlink:href="#m6565cf24aa" x="406.25" y="28.016596" style="stroke: #000000; stroke-width: 0.8"/>
      </g>
     </g>
     <g id="text_35">
      <!-- 0.86 -->
      <g transform="translate(376.984375 31.815815) scale(0.1 -0.1)">
       <use xlink:href="#DejaVuSans-30"/>
       <use xlink:href="#DejaVuSans-2e" x="63.623047"/>
       <use xlink:href="#DejaVuSans-38" x="95.410156"/>
       <use xlink:href="#DejaVuSans-36" x="159.033203"/>
      </g>
     </g>
    </g>
    <g id="text_36">
     <!-- Accuracy -->
     <g transform="translate(370.904688 195.288125) rotate(-90) scale(0.1 -0.1)">
      <defs>
       <path id="DejaVuSans-41" d="M 2188 4044 
L 1331 1722 
L 3047 1722 
L 2188 4044 
z
M 1831 4666 
L 2547 4666 
L 4325 0 
L 3669 0 
L 3244 1197 
L 1141 1197 
L 716 0 
L 50 0 
L 1831 4666 
z
" transform="scale(0.015625)"/>
       <path id="DejaVuSans-75" d="M 544 1381 
L 544 3500 
L 1119 3500 
L 1119 1403 
Q 1119 906 1312 657 
Q 1506 409 1894 409 
Q 2359 409 2629 706 
Q 2900 1003 2900 1516 
L 2900 3500 
L 3475 3500 
L 3475 0 
L 2900 0 
L 2900 538 
Q 2691 219 2414 64 
Q 2138 -91 1772 -91 
Q 1169 -91 856 284 
Q 544 659 544 1381 
z
M 1991 3584 
L 1991 3584 
z
" transform="scale(0.015625)"/>
       <path id="DejaVuSans-79" d="M 2059 -325 
Q 1816 -950 1584 -1140 
Q 1353 -1331 966 -1331 
L 506 -1331 
L 506 -850 
L 844 -850 
Q 1081 -850 1212 -737 
Q 1344 -625 1503 -206 
L 1606 56 
L 191 3500 
L 800 3500 
L 1894 763 
L 2988 3500 
L 3597 3500 
L 2059 -325 
z
" transform="scale(0.015625)"/>
      </defs>
      <use xlink:href="#DejaVuSans-41"/>
      <use xlink:href="#DejaVuSans-63" x="66.658203"/>
      <use xlink:href="#DejaVuSans-63" x="121.638672"/>
      <use xlink:href="#DejaVuSans-75" x="176.619141"/>
      <use xlink:href="#DejaVuSans-72" x="239.998047"/>
      <use xlink:href="#DejaVuSans-61" x="281.111328"/>
      <use xlink:href="#DejaVuSans-63" x="342.390625"/>
      <use xlink:href="#DejaVuSans-79" x="397.371094"/>
     </g>
    </g>
   </g>
   <g id="line2d_34">
    <path d="M 420.087273 304.805455 
L 421.1987 292.625514 
L 422.310128 274.504138 
L 423.421555 236.776029 
L 424.532983 230.181037 
L 425.64441 216.872223 
L 426.755838 219.902355 
L 427.867265 208.613629 
L 428.978693 203.088095 
L 430.09012 201.186836 
L 431.201548 190.016939 
L 432.312976 169.756647 
L 433.424403 152.823559 
L 434.535831 149.55577 
L 435.647258 147.357439 
L 436.758686 148.783383 
L 437.870113 137.910558 
L 438.981541 143.970821 
L 440.092968 134.702183 
L 441.204396 134.345697 
L 442.315823 129.295478 
L 443.427251 125.790032 
L 444.538678 128.523092 
L 445.650106 128.760749 
L 446.761533 116.818465 
L 447.872961 122.7599 
L 448.984388 115.867836 
L 450.095816 115.749007 
L 451.207244 125.017645 
L 452.318671 112.956533 
L 453.430099 112.243561 
L 454.541526 113.550676 
L 455.652954 113.669505 
L 456.764381 115.51135 
L 457.875809 107.430999 
L 458.987236 109.094601 
L 460.098664 108.975772 
L 461.210091 106.599198 
L 462.321519 100.004206 
L 463.432946 105.52974 
L 464.544374 107.193341 
L 465.655801 97.152317 
L 466.767229 99.469477 
L 467.878656 103.687895 
L 468.990084 101.311321 
L 470.101512 100.47952 
L 471.212939 98.756504 
L 472.324367 96.082859 
L 473.435794 102.143122 
L 474.547222 98.815919 
L 475.658649 96.498759 
L 476.770077 100.657763 
L 477.881504 90.794982 
L 478.992932 88.71548 
L 480.104359 95.013401 
L 481.215787 89.844353 
L 482.327214 87.943094 
L 483.438642 86.457735 
L 484.550069 86.814221 
L 485.661497 86.517149 
L 486.772924 83.071117 
L 487.884352 85.091205 
L 488.995779 86.754807 
L 490.107207 84.556476 
L 491.218635 88.061922 
L 492.330062 82.952289 
L 493.44149 84.853548 
L 494.552917 81.645173 
L 495.664345 84.734719 
L 496.775772 80.575715 
L 497.8872 77.842655 
L 498.998627 79.268599 
L 500.110055 75.822567 
L 502.33291 80.159814 
L 503.444337 72.911264 
L 504.555765 75.406667 
L 505.667192 75.109595 
L 506.77862 73.743065 
L 507.890047 74.515451 
L 509.001475 72.376535 
L 510.112903 72.020049 
L 511.22433 75.58491 
L 512.335758 72.435949 
L 513.447185 73.26775 
L 514.558613 68.33636 
L 515.67004 72.733021 
L 516.781468 72.138878 
L 517.892895 70.950591 
L 519.004323 68.395774 
L 520.11575 67.148073 
L 521.227178 77.961484 
L 522.338605 65.187399 
L 523.450033 67.326316 
L 524.56146 63.048483 
L 525.672888 70.059376 
L 526.784315 65.543885 
L 527.895743 63.702041 
L 529.007171 66.910415 
L 530.118598 66.553929 
L 532.341453 62.691997 
L 533.452881 63.048483 
L 534.564308 63.939698 
L 535.675736 61.91961 
L 536.787163 62.632582 
L 537.898591 61.979025 
L 539.010018 62.989068 
L 540.121446 64.177355 
L 541.232873 62.691997 
L 542.344301 61.681953 
L 543.455728 58.532993 
L 544.567156 59.483622 
L 545.678583 61.563124 
L 546.790011 64.890328 
L 547.901438 60.909566 
L 549.012866 59.364793 
L 550.124294 60.968981 
L 551.235721 60.909566 
L 552.347149 60.196594 
L 553.458576 59.18655 
L 554.570004 61.325467 
L 555.681431 58.532993 
L 556.792859 58.35475 
L 557.904286 59.424208 
L 559.015714 59.424208 
L 560.127141 57.760606 
L 561.238569 54.67106 
L 562.349996 55.443447 
L 563.461424 58.414164 
L 564.572851 57.166463 
L 565.684279 57.047634 
L 566.795706 58.651821 
L 567.907134 57.760606 
L 569.018562 55.859347 
L 570.129989 52.769801 
L 571.241417 53.542188 
L 572.352844 55.324618 
L 573.464272 58.414164 
L 574.575699 54.611646 
L 575.687127 54.314574 
L 576.798554 53.720431 
L 577.909982 53.779845 
L 579.021409 56.097004 
L 580.132837 54.730474 
L 581.244264 56.869391 
L 582.355692 55.681104 
L 583.467119 52.353901 
L 584.578547 54.373988 
L 585.689974 54.552231 
L 586.801402 50.809128 
L 587.912829 50.333813 
L 589.024257 53.601602 
L 590.135685 50.987371 
L 592.35854 53.30453 
L 593.469967 50.333813 
L 594.581395 51.106199 
L 595.692822 49.145526 
L 596.80425 52.829215 
L 597.915677 50.274399 
L 599.027105 51.5221 
L 600.138532 50.036741 
L 601.24996 48.313725 
L 602.361387 52.769801 
L 603.472815 49.086112 
L 604.584242 52.294486 
L 605.69567 50.452642 
L 606.807097 50.868542 
L 607.918525 51.640928 
L 609.029953 52.116243 
L 610.14138 51.106199 
L 611.252808 48.907869 
L 612.364235 50.393227 
L 613.475663 49.680255 
L 614.58709 51.700343 
L 615.698518 49.20494 
L 616.809945 47.778996 
L 619.0328 45.996566 
L 620.144228 50.987371 
L 621.255655 48.551383 
L 622.367083 51.284442 
L 623.47851 45.758908 
L 624.589938 49.383183 
L 625.701365 49.442598 
L 626.812793 48.135482 
L 627.924221 50.15557 
L 629.035648 48.907869 
L 630.147076 51.878586 
L 631.258503 52.413315 
L 632.369931 50.15557 
L 633.481358 46.174809 
L 634.592786 46.412466 
L 635.704213 46.947195 
L 636.815641 47.778996 
L 637.927068 48.78904 
L 639.038496 48.729626 
L 640.149923 49.20494 
L 641.261351 50.15557 
L 642.372778 47.42251 
L 643.484206 46.05598 
L 644.595633 46.05598 
L 645.707061 48.491968 
L 646.818488 46.887781 
L 647.929916 43.857649 
L 649.041344 44.808279 
L 650.152771 43.976478 
L 651.264199 47.244267 
L 652.375626 45.818323 
L 653.487054 44.867693 
L 654.598481 46.650123 
L 655.709909 45.937151 
L 656.821336 44.927107 
L 657.932764 44.927107 
L 659.044191 45.164765 
L 660.155619 47.778996 
L 661.267046 44.867693 
L 662.378474 46.353052 
L 663.489901 44.154721 
L 664.601329 45.521251 
L 665.712756 45.224179 
L 666.824184 46.412466 
L 667.935612 46.115394 
L 669.047039 43.976478 
L 670.158467 43.976478 
L 671.269894 45.521251 
L 672.381322 44.570621 
L 673.492749 42.312876 
L 674.604177 47.125438 
L 675.715604 45.045936 
L 676.827032 43.917064 
L 677.938459 43.917064 
L 679.049887 40.946346 
L 680.161314 42.609948 
L 681.272742 42.966434 
L 682.384169 45.64008 
L 683.495597 41.778147 
L 684.607024 46.05598 
L 685.718452 42.788191 
L 686.82988 43.976478 
L 687.941307 43.382334 
L 689.052735 46.115394 
L 690.164162 41.481075 
L 691.27559 40.114545 
L 692.387017 42.491119 
L 693.498445 44.27355 
L 694.609872 44.808279 
L 695.7213 43.263506 
L 696.832727 44.214135 
L 696.832727 44.214135 
" clip-path="url(#p57ee4bdc35)" style="fill: none; stroke: #1f77b4; stroke-width: 1.5; stroke-linecap: square"/>
   </g>
   <g id="line2d_35">
    <path d="M 420.087273 271.480404 
L 421.1987 271.812533 
L 422.310128 270.484017 
L 423.421555 271.812533 
L 424.532983 270.816146 
L 425.64441 271.812533 
L 426.755838 270.151888 
L 427.867265 271.148275 
L 428.978693 274.137435 
L 430.09012 270.484017 
L 431.201548 272.476791 
L 432.312976 265.502083 
L 433.424403 240.592411 
L 434.535831 256.534601 
L 435.647258 266.830598 
L 436.758686 247.23499 
L 437.870113 255.538214 
L 438.981541 252.549053 
L 440.092968 256.534601 
L 441.204396 251.884796 
L 442.315823 261.184406 
L 443.427251 254.541827 
L 444.538678 251.220538 
L 445.650106 208.708032 
L 446.761533 261.516535 
L 447.872961 225.646608 
L 448.984388 240.592411 
L 450.095816 230.296414 
L 451.207244 228.967898 
L 452.318671 226.310866 
L 453.430099 247.567119 
L 454.541526 217.011256 
L 455.652954 253.54544 
L 456.764381 226.310866 
L 457.875809 249.892022 
L 458.987236 233.617703 
L 460.098664 233.949832 
L 461.210091 224.650221 
L 462.321519 248.563506 
L 464.544374 220.000416 
L 465.655801 211.365063 
L 466.767229 238.267509 
L 467.878656 227.639382 
L 468.990084 229.964285 
L 470.101512 224.650221 
L 471.212939 221.661061 
L 472.324367 252.881182 
L 473.435794 228.967898 
L 474.547222 229.964285 
L 475.658649 249.559893 
L 476.770077 220.996803 
L 477.881504 214.686353 
L 478.992932 254.873956 
L 480.104359 207.379516 
L 481.215787 224.318093 
L 482.327214 220.664674 
L 483.438642 223.321706 
L 484.550069 227.639382 
L 485.661497 226.975124 
L 486.772924 217.343385 
L 487.884352 240.92454 
L 488.995779 226.642995 
L 490.107207 231.292801 
L 491.218635 230.960672 
L 492.330062 212.029321 
L 493.44149 231.957058 
L 494.552917 226.642995 
L 495.664345 231.957058 
L 496.775772 222.989577 
L 497.8872 223.653835 
L 498.998627 219.004029 
L 500.110055 230.960672 
L 501.221482 241.588798 
L 502.33291 214.686353 
L 503.444337 219.336158 
L 504.555765 222.657448 
L 505.667192 217.675513 
L 506.77862 229.300027 
L 507.890047 224.318093 
L 509.001475 221.99319 
L 510.112903 226.310866 
L 511.22433 205.718871 
L 512.335758 241.920927 
L 513.447185 218.007642 
L 514.558613 223.653835 
L 515.67004 241.920927 
L 516.781468 221.328932 
L 517.892895 217.675513 
L 519.004323 220.332545 
L 520.11575 256.202472 
L 521.227178 223.653835 
L 522.338605 222.657448 
L 523.450033 224.650221 
L 524.56146 208.043774 
L 525.672888 225.314479 
L 526.784315 207.047387 
L 527.895743 231.292801 
L 529.007171 218.007642 
L 530.118598 228.30364 
L 531.230026 218.007642 
L 532.341453 221.328932 
L 533.452881 221.99319 
L 534.564308 223.653835 
L 535.675736 226.310866 
L 536.787163 220.332545 
L 537.898591 217.343385 
L 539.010018 225.314479 
L 540.121446 234.281961 
L 541.232873 225.646608 
L 542.344301 210.036548 
L 543.455728 213.689966 
L 544.567156 221.328932 
L 545.678583 231.624929 
L 546.790011 222.325319 
L 547.901438 221.99319 
L 549.012866 211.365063 
L 550.124294 224.98235 
L 551.235721 211.032934 
L 552.347149 219.336158 
L 553.458576 232.953445 
L 554.570004 214.686353 
L 555.681431 215.68274 
L 556.792859 209.704419 
L 557.904286 215.350611 
L 559.015714 212.693579 
L 560.127141 221.99319 
L 561.238569 224.650221 
L 562.349996 220.996803 
L 563.461424 222.989577 
L 564.572851 222.657448 
L 565.684279 225.314479 
L 566.795706 211.032934 
L 567.907134 226.310866 
L 569.018562 224.650221 
L 570.129989 208.708032 
L 571.241417 232.621316 
L 572.352844 218.339771 
L 573.464272 216.346998 
L 574.575699 212.36145 
L 575.687127 209.37229 
L 576.798554 223.653835 
L 577.909982 214.354224 
L 579.021409 228.635769 
L 580.132837 218.007642 
L 581.244264 221.661061 
L 582.355692 215.018482 
L 583.467119 222.989577 
L 584.578547 219.336158 
L 585.689974 210.700805 
L 586.801402 212.36145 
L 587.912829 206.383129 
L 589.024257 211.032934 
L 590.135685 217.675513 
L 591.247112 199.408421 
L 592.35854 222.657448 
L 593.469967 214.354224 
L 594.581395 215.018482 
L 595.692822 225.314479 
L 596.80425 226.975124 
L 597.915677 220.664674 
L 599.027105 212.029321 
L 600.138532 207.047387 
L 601.24996 222.325319 
L 602.361387 207.047387 
L 603.472815 221.661061 
L 604.584242 219.668287 
L 605.69567 215.350611 
L 606.807097 214.022095 
L 607.918525 218.007642 
L 609.029953 217.011256 
L 610.14138 217.675513 
L 611.252808 225.978737 
L 612.364235 205.386742 
L 613.475663 219.336158 
L 614.58709 208.375903 
L 615.698518 214.686353 
L 616.809945 217.011256 
L 617.921373 213.689966 
L 619.0328 219.668287 
L 620.144228 210.368677 
L 621.255655 220.664674 
L 622.367083 202.065453 
L 623.47851 214.354224 
L 624.589938 208.375903 
L 625.701365 211.032934 
L 626.812793 208.375903 
L 627.924221 216.346998 
L 629.035648 215.018482 
L 630.147076 217.343385 
L 631.258503 216.014869 
L 632.369931 208.043774 
L 633.481358 210.700805 
L 634.592786 216.346998 
L 635.704213 222.657448 
L 636.815641 207.047387 
L 637.927068 219.004029 
L 639.038496 220.332545 
L 640.149923 217.675513 
L 641.261351 220.000416 
L 642.372778 217.343385 
L 643.484206 218.6719 
L 644.595633 220.996803 
L 645.707061 208.043774 
L 646.818488 220.664674 
L 647.929916 209.37229 
L 649.041344 207.379516 
L 650.152771 208.375903 
L 651.264199 219.668287 
L 653.487054 209.37229 
L 654.598481 209.37229 
L 655.709909 214.354224 
L 656.821336 200.736937 
L 657.932764 217.011256 
L 659.044191 212.36145 
L 660.155619 210.700805 
L 661.267046 213.357837 
L 662.378474 212.029321 
L 663.489901 211.365063 
L 664.601329 211.365063 
L 665.712756 217.343385 
L 666.824184 213.689966 
L 667.935612 211.032934 
L 669.047039 206.383129 
L 670.158467 210.036548 
L 672.381322 215.350611 
L 673.492749 211.365063 
L 674.604177 202.065453 
L 675.715604 211.697192 
L 676.827032 212.029321 
L 677.938459 208.043774 
L 679.049887 211.032934 
L 680.161314 206.383129 
L 681.272742 204.722484 
L 682.384169 209.37229 
L 683.495597 216.014869 
L 684.607024 207.379516 
L 685.718452 218.007642 
L 686.82988 204.058226 
L 687.941307 219.336158 
L 690.164162 208.708032 
L 691.27559 212.029321 
L 692.387017 211.032934 
L 693.498445 214.354224 
L 694.609872 204.722484 
L 695.7213 214.686353 
L 696.832727 205.386742 
L 696.832727 205.386742 
" clip-path="url(#p57ee4bdc35)" style="fill: none; stroke: #ff7f0e; stroke-width: 1.5; stroke-linecap: square"/>
   </g>
   <g id="patch_9">
    <path d="M 406.25 318.04 
L 406.25 26.88 
" style="fill: none; stroke: #000000; stroke-width: 0.8; stroke-linejoin: miter; stroke-linecap: square"/>
   </g>
   <g id="patch_10">
    <path d="M 710.67 318.04 
L 710.67 26.88 
" style="fill: none; stroke: #000000; stroke-width: 0.8; stroke-linejoin: miter; stroke-linecap: square"/>
   </g>
   <g id="patch_11">
    <path d="M 406.25 318.04 
L 710.67 318.04 
" style="fill: none; stroke: #000000; stroke-width: 0.8; stroke-linejoin: miter; stroke-linecap: square"/>
   </g>
   <g id="patch_12">
    <path d="M 406.25 26.88 
L 710.67 26.88 
" style="fill: none; stroke: #000000; stroke-width: 0.8; stroke-linejoin: miter; stroke-linecap: square"/>
   </g>
   <g id="text_37">
    <!-- Accuracy vs Epoch -->
    <g transform="translate(502.2025 20.88) scale(0.12 -0.12)">
     <use xlink:href="#DejaVuSans-41"/>
     <use xlink:href="#DejaVuSans-63" x="66.658203"/>
     <use xlink:href="#DejaVuSans-63" x="121.638672"/>
     <use xlink:href="#DejaVuSans-75" x="176.619141"/>
     <use xlink:href="#DejaVuSans-72" x="239.998047"/>
     <use xlink:href="#DejaVuSans-61" x="281.111328"/>
     <use xlink:href="#DejaVuSans-63" x="342.390625"/>
     <use xlink:href="#DejaVuSans-79" x="397.371094"/>
     <use xlink:href="#DejaVuSans-20" x="456.550781"/>
     <use xlink:href="#DejaVuSans-76" x="488.337891"/>
     <use xlink:href="#DejaVuSans-73" x="547.517578"/>
     <use xlink:href="#DejaVuSans-20" x="599.617188"/>
     <use xlink:href="#DejaVuSans-45" x="631.404297"/>
     <use xlink:href="#DejaVuSans-70" x="694.587891"/>
     <use xlink:href="#DejaVuSans-6f" x="758.064453"/>
     <use xlink:href="#DejaVuSans-63" x="819.246094"/>
     <use xlink:href="#DejaVuSans-68" x="874.226562"/>
    </g>
   </g>
   <g id="legend_2">
    <g id="patch_13">
     <path d="M 573.454375 313.04 
L 703.67 313.04 
Q 705.67 313.04 705.67 311.04 
L 705.67 282.68375 
Q 705.67 280.68375 703.67 280.68375 
L 573.454375 280.68375 
Q 571.454375 280.68375 571.454375 282.68375 
L 571.454375 311.04 
Q 571.454375 313.04 573.454375 313.04 
z
" style="fill: #ffffff; opacity: 0.8; stroke: #cccccc; stroke-linejoin: miter"/>
    </g>
    <g id="line2d_36">
     <path d="M 575.454375 288.782188 
L 585.454375 288.782188 
L 595.454375 288.782188 
" style="fill: none; stroke: #1f77b4; stroke-width: 1.5; stroke-linecap: square"/>
    </g>
    <g id="text_38">
     <!-- Train Accuracy -->
     <g transform="translate(603.454375 292.282188) scale(0.1 -0.1)">
      <use xlink:href="#DejaVuSans-54"/>
      <use xlink:href="#DejaVuSans-72" x="46.333984"/>
      <use xlink:href="#DejaVuSans-61" x="87.447266"/>
      <use xlink:href="#DejaVuSans-69" x="148.726562"/>
      <use xlink:href="#DejaVuSans-6e" x="176.509766"/>
      <use xlink:href="#DejaVuSans-20" x="239.888672"/>
      <use xlink:href="#DejaVuSans-41" x="271.675781"/>
      <use xlink:href="#DejaVuSans-63" x="338.333984"/>
      <use xlink:href="#DejaVuSans-63" x="393.314453"/>
      <use xlink:href="#DejaVuSans-75" x="448.294922"/>
      <use xlink:href="#DejaVuSans-72" x="511.673828"/>
      <use xlink:href="#DejaVuSans-61" x="552.787109"/>
      <use xlink:href="#DejaVuSans-63" x="614.066406"/>
      <use xlink:href="#DejaVuSans-79" x="669.046875"/>
     </g>
    </g>
    <g id="line2d_37">
     <path d="M 575.454375 303.460313 
L 585.454375 303.460313 
L 595.454375 303.460313 
" style="fill: none; stroke: #ff7f0e; stroke-width: 1.5; stroke-linecap: square"/>
    </g>
    <g id="text_39">
     <!-- Validation Accuracy -->
     <g transform="translate(603.454375 306.960313) scale(0.1 -0.1)">
      <use xlink:href="#DejaVuSans-56"/>
      <use xlink:href="#DejaVuSans-61" x="60.658203"/>
      <use xlink:href="#DejaVuSans-6c" x="121.9375"/>
      <use xlink:href="#DejaVuSans-69" x="149.720703"/>
      <use xlink:href="#DejaVuSans-64" x="177.503906"/>
      <use xlink:href="#DejaVuSans-61" x="240.980469"/>
      <use xlink:href="#DejaVuSans-74" x="302.259766"/>
      <use xlink:href="#DejaVuSans-69" x="341.46875"/>
      <use xlink:href="#DejaVuSans-6f" x="369.251953"/>
      <use xlink:href="#DejaVuSans-6e" x="430.433594"/>
      <use xlink:href="#DejaVuSans-20" x="493.8125"/>
      <use xlink:href="#DejaVuSans-41" x="525.599609"/>
      <use xlink:href="#DejaVuSans-63" x="592.257812"/>
      <use xlink:href="#DejaVuSans-63" x="647.238281"/>
      <use xlink:href="#DejaVuSans-75" x="702.21875"/>
      <use xlink:href="#DejaVuSans-72" x="765.597656"/>
      <use xlink:href="#DejaVuSans-61" x="806.710938"/>
      <use xlink:href="#DejaVuSans-63" x="867.990234"/>
      <use xlink:href="#DejaVuSans-79" x="922.970703"/>
     </g>
    </g>
   </g>
  </g>
  <g id="axes_3">
   <g id="patch_14">
    <path d="M 764.78 318.04 
L 1069.2 318.04 
L 1069.2 26.88 
L 764.78 26.88 
z
" style="fill: #ffffff"/>
   </g>
   <g id="matplotlib.axis_5">
    <g id="xtick_13">
     <g id="line2d_38">
      <g>
       <use xlink:href="#m1fb3652dce" x="778.617273" y="318.04" style="stroke: #000000; stroke-width: 0.8"/>
      </g>
     </g>
     <g id="text_40">
      <!-- 0 -->
      <g transform="translate(775.436023 332.638438) scale(0.1 -0.1)">
       <use xlink:href="#DejaVuSans-30"/>
      </g>
     </g>
    </g>
    <g id="xtick_14">
     <g id="line2d_39">
      <g>
       <use xlink:href="#m1fb3652dce" x="834.188649" y="318.04" style="stroke: #000000; stroke-width: 0.8"/>
      </g>
     </g>
     <g id="text_41">
      <!-- 50 -->
      <g transform="translate(827.826149 332.638438) scale(0.1 -0.1)">
       <use xlink:href="#DejaVuSans-35"/>
       <use xlink:href="#DejaVuSans-30" x="63.623047"/>
      </g>
     </g>
    </g>
    <g id="xtick_15">
     <g id="line2d_40">
      <g>
       <use xlink:href="#m1fb3652dce" x="889.760026" y="318.04" style="stroke: #000000; stroke-width: 0.8"/>
      </g>
     </g>
     <g id="text_42">
      <!-- 100 -->
      <g transform="translate(880.216276 332.638438) scale(0.1 -0.1)">
       <use xlink:href="#DejaVuSans-31"/>
       <use xlink:href="#DejaVuSans-30" x="63.623047"/>
       <use xlink:href="#DejaVuSans-30" x="127.246094"/>
      </g>
     </g>
    </g>
    <g id="xtick_16">
     <g id="line2d_41">
      <g>
       <use xlink:href="#m1fb3652dce" x="945.331402" y="318.04" style="stroke: #000000; stroke-width: 0.8"/>
      </g>
     </g>
     <g id="text_43">
      <!-- 150 -->
      <g transform="translate(935.787652 332.638438) scale(0.1 -0.1)">
       <use xlink:href="#DejaVuSans-31"/>
       <use xlink:href="#DejaVuSans-35" x="63.623047"/>
       <use xlink:href="#DejaVuSans-30" x="127.246094"/>
      </g>
     </g>
    </g>
    <g id="xtick_17">
     <g id="line2d_42">
      <g>
       <use xlink:href="#m1fb3652dce" x="1000.902778" y="318.04" style="stroke: #000000; stroke-width: 0.8"/>
      </g>
     </g>
     <g id="text_44">
      <!-- 200 -->
      <g transform="translate(991.359028 332.638438) scale(0.1 -0.1)">
       <use xlink:href="#DejaVuSans-32"/>
       <use xlink:href="#DejaVuSans-30" x="63.623047"/>
       <use xlink:href="#DejaVuSans-30" x="127.246094"/>
      </g>
     </g>
    </g>
    <g id="xtick_18">
     <g id="line2d_43">
      <g>
       <use xlink:href="#m1fb3652dce" x="1056.474155" y="318.04" style="stroke: #000000; stroke-width: 0.8"/>
      </g>
     </g>
     <g id="text_45">
      <!-- 250 -->
      <g transform="translate(1046.930405 332.638438) scale(0.1 -0.1)">
       <use xlink:href="#DejaVuSans-32"/>
       <use xlink:href="#DejaVuSans-35" x="63.623047"/>
       <use xlink:href="#DejaVuSans-30" x="127.246094"/>
      </g>
     </g>
    </g>
    <g id="text_46">
     <!-- Epoch -->
     <g transform="translate(901.679062 346.316563) scale(0.1 -0.1)">
      <use xlink:href="#DejaVuSans-45"/>
      <use xlink:href="#DejaVuSans-70" x="63.183594"/>
      <use xlink:href="#DejaVuSans-6f" x="126.660156"/>
      <use xlink:href="#DejaVuSans-63" x="187.841797"/>
      <use xlink:href="#DejaVuSans-68" x="242.822266"/>
     </g>
    </g>
   </g>
   <g id="matplotlib.axis_6">
    <g id="ytick_18">
     <g id="line2d_44">
      <g>
       <use xlink:href="#m6565cf24aa" x="764.78" y="294.123626" style="stroke: #000000; stroke-width: 0.8"/>
      </g>
     </g>
     <g id="text_47">
      <!-- 0.78 -->
      <g transform="translate(735.514375 297.922845) scale(0.1 -0.1)">
       <use xlink:href="#DejaVuSans-30"/>
       <use xlink:href="#DejaVuSans-2e" x="63.623047"/>
       <use xlink:href="#DejaVuSans-37" x="95.410156"/>
       <use xlink:href="#DejaVuSans-38" x="159.033203"/>
      </g>
     </g>
    </g>
    <g id="ytick_19">
     <g id="line2d_45">
      <g>
       <use xlink:href="#m6565cf24aa" x="764.78" y="249.019466" style="stroke: #000000; stroke-width: 0.8"/>
      </g>
     </g>
     <g id="text_48">
      <!-- 0.80 -->
      <g transform="translate(735.514375 252.818685) scale(0.1 -0.1)">
       <use xlink:href="#DejaVuSans-30"/>
       <use xlink:href="#DejaVuSans-2e" x="63.623047"/>
       <use xlink:href="#DejaVuSans-38" x="95.410156"/>
       <use xlink:href="#DejaVuSans-30" x="159.033203"/>
      </g>
     </g>
    </g>
    <g id="ytick_20">
     <g id="line2d_46">
      <g>
       <use xlink:href="#m6565cf24aa" x="764.78" y="203.915306" style="stroke: #000000; stroke-width: 0.8"/>
      </g>
     </g>
     <g id="text_49">
      <!-- 0.82 -->
      <g transform="translate(735.514375 207.714524) scale(0.1 -0.1)">
       <use xlink:href="#DejaVuSans-30"/>
       <use xlink:href="#DejaVuSans-2e" x="63.623047"/>
       <use xlink:href="#DejaVuSans-38" x="95.410156"/>
       <use xlink:href="#DejaVuSans-32" x="159.033203"/>
      </g>
     </g>
    </g>
    <g id="ytick_21">
     <g id="line2d_47">
      <g>
       <use xlink:href="#m6565cf24aa" x="764.78" y="158.811145" style="stroke: #000000; stroke-width: 0.8"/>
      </g>
     </g>
     <g id="text_50">
      <!-- 0.84 -->
      <g transform="translate(735.514375 162.610364) scale(0.1 -0.1)">
       <use xlink:href="#DejaVuSans-30"/>
       <use xlink:href="#DejaVuSans-2e" x="63.623047"/>
       <use xlink:href="#DejaVuSans-38" x="95.410156"/>
       <use xlink:href="#DejaVuSans-34" x="159.033203"/>
      </g>
     </g>
    </g>
    <g id="ytick_22">
     <g id="line2d_48">
      <g>
       <use xlink:href="#m6565cf24aa" x="764.78" y="113.706985" style="stroke: #000000; stroke-width: 0.8"/>
      </g>
     </g>
     <g id="text_51">
      <!-- 0.86 -->
      <g transform="translate(735.514375 117.506204) scale(0.1 -0.1)">
       <use xlink:href="#DejaVuSans-30"/>
       <use xlink:href="#DejaVuSans-2e" x="63.623047"/>
       <use xlink:href="#DejaVuSans-38" x="95.410156"/>
       <use xlink:href="#DejaVuSans-36" x="159.033203"/>
      </g>
     </g>
    </g>
    <g id="ytick_23">
     <g id="line2d_49">
      <g>
       <use xlink:href="#m6565cf24aa" x="764.78" y="68.602825" style="stroke: #000000; stroke-width: 0.8"/>
      </g>
     </g>
     <g id="text_52">
      <!-- 0.88 -->
      <g transform="translate(735.514375 72.402043) scale(0.1 -0.1)">
       <use xlink:href="#DejaVuSans-30"/>
       <use xlink:href="#DejaVuSans-2e" x="63.623047"/>
       <use xlink:href="#DejaVuSans-38" x="95.410156"/>
       <use xlink:href="#DejaVuSans-38" x="159.033203"/>
      </g>
     </g>
    </g>
    <g id="text_53">
     <!-- F1-Score -->
     <g transform="translate(729.434688 194.323281) rotate(-90) scale(0.1 -0.1)">
      <defs>
       <path id="DejaVuSans-46" d="M 628 4666 
L 3309 4666 
L 3309 4134 
L 1259 4134 
L 1259 2759 
L 3109 2759 
L 3109 2228 
L 1259 2228 
L 1259 0 
L 628 0 
L 628 4666 
z
" transform="scale(0.015625)"/>
       <path id="DejaVuSans-2d" d="M 313 2009 
L 1997 2009 
L 1997 1497 
L 313 1497 
L 313 2009 
z
" transform="scale(0.015625)"/>
       <path id="DejaVuSans-53" d="M 3425 4513 
L 3425 3897 
Q 3066 4069 2747 4153 
Q 2428 4238 2131 4238 
Q 1616 4238 1336 4038 
Q 1056 3838 1056 3469 
Q 1056 3159 1242 3001 
Q 1428 2844 1947 2747 
L 2328 2669 
Q 3034 2534 3370 2195 
Q 3706 1856 3706 1288 
Q 3706 609 3251 259 
Q 2797 -91 1919 -91 
Q 1588 -91 1214 -16 
Q 841 59 441 206 
L 441 856 
Q 825 641 1194 531 
Q 1563 422 1919 422 
Q 2459 422 2753 634 
Q 3047 847 3047 1241 
Q 3047 1584 2836 1778 
Q 2625 1972 2144 2069 
L 1759 2144 
Q 1053 2284 737 2584 
Q 422 2884 422 3419 
Q 422 4038 858 4394 
Q 1294 4750 2059 4750 
Q 2388 4750 2728 4690 
Q 3069 4631 3425 4513 
z
" transform="scale(0.015625)"/>
       <path id="DejaVuSans-65" d="M 3597 1894 
L 3597 1613 
L 953 1613 
Q 991 1019 1311 708 
Q 1631 397 2203 397 
Q 2534 397 2845 478 
Q 3156 559 3463 722 
L 3463 178 
Q 3153 47 2828 -22 
Q 2503 -91 2169 -91 
Q 1331 -91 842 396 
Q 353 884 353 1716 
Q 353 2575 817 3079 
Q 1281 3584 2069 3584 
Q 2775 3584 3186 3129 
Q 3597 2675 3597 1894 
z
M 3022 2063 
Q 3016 2534 2758 2815 
Q 2500 3097 2075 3097 
Q 1594 3097 1305 2825 
Q 1016 2553 972 2059 
L 3022 2063 
z
" transform="scale(0.015625)"/>
      </defs>
      <use xlink:href="#DejaVuSans-46"/>
      <use xlink:href="#DejaVuSans-31" x="57.519531"/>
      <use xlink:href="#DejaVuSans-2d" x="121.142578"/>
      <use xlink:href="#DejaVuSans-53" x="157.226562"/>
      <use xlink:href="#DejaVuSans-63" x="220.703125"/>
      <use xlink:href="#DejaVuSans-6f" x="275.683594"/>
      <use xlink:href="#DejaVuSans-72" x="336.865234"/>
      <use xlink:href="#DejaVuSans-65" x="375.728516"/>
     </g>
    </g>
   </g>
   <g id="line2d_50">
    <path d="M 778.617273 304.805455 
L 779.7287 275.792854 
L 780.840128 261.818989 
L 781.951555 228.308895 
L 783.062983 225.234517 
L 784.17441 210.655323 
L 785.285838 214.636927 
L 786.397265 202.884883 
L 787.508693 196.385022 
L 788.62012 192.625082 
L 789.731548 182.520034 
L 790.842976 161.159649 
L 791.954403 144.733173 
L 794.177258 140.826604 
L 795.288686 141.547802 
L 796.400113 132.615036 
L 797.511541 137.775767 
L 798.622968 128.814254 
L 799.734396 127.877211 
L 800.845823 123.35388 
L 801.957251 119.97249 
L 803.068678 122.056257 
L 804.180106 125.367938 
L 805.291533 111.667098 
L 806.402961 117.89612 
L 807.514388 111.485172 
L 808.625816 111.229583 
L 809.737244 120.442715 
L 810.848671 109.415959 
L 811.960099 108.090978 
L 813.071526 109.340747 
L 814.182954 109.532841 
L 815.294381 110.734829 
L 816.405809 104.067826 
L 817.517236 105.118855 
L 818.628664 104.896975 
L 819.740091 103.055432 
L 820.851519 96.52396 
L 821.962946 101.89372 
L 823.074374 103.531712 
L 824.185801 93.974981 
L 825.297229 96.456254 
L 826.408656 100.245688 
L 827.520084 98.076808 
L 828.631512 97.522142 
L 829.742939 95.863456 
L 830.854367 93.398323 
L 831.965794 98.827743 
L 833.077222 95.912869 
L 834.188649 93.655125 
L 835.300077 97.03608 
L 836.411504 88.234123 
L 837.522932 86.379726 
L 838.634359 92.239386 
L 839.745787 87.279335 
L 840.857214 85.32712 
L 841.968642 84.128414 
L 843.080069 84.658296 
L 844.191497 84.351675 
L 845.302924 81.075534 
L 846.414352 83.243655 
L 847.525779 84.275786 
L 848.637207 82.349245 
L 849.748635 85.658675 
L 850.860062 80.447672 
L 851.97149 83.1742 
L 853.082917 79.73639 
L 854.194345 82.455448 
L 855.305772 78.937769 
L 856.4172 76.624184 
L 857.528627 77.569836 
L 858.640055 74.48677 
L 859.751482 76.126451 
L 860.86291 78.446303 
L 861.974337 71.476355 
L 863.085765 73.787289 
L 864.197192 73.746241 
L 865.30862 72.260689 
L 866.420047 73.412656 
L 867.531475 71.080599 
L 868.642903 70.32507 
L 869.75433 74.035028 
L 870.865758 71.186008 
L 871.977185 72.02629 
L 873.088613 67.120261 
L 874.20004 71.284583 
L 875.311468 70.742062 
L 876.422895 69.560547 
L 877.534323 67.429361 
L 878.64575 66.427809 
L 879.757178 76.639607 
L 880.868605 63.997218 
L 881.980033 66.388423 
L 883.09146 62.092076 
L 884.202888 68.904044 
L 885.314315 64.500891 
L 886.425743 62.846692 
L 887.537171 65.440658 
L 888.648598 65.61262 
L 890.871453 61.789914 
L 891.982881 62.292603 
L 893.094308 63.262865 
L 894.205736 61.068351 
L 895.317163 61.699522 
L 896.428591 61.251925 
L 897.540018 62.322498 
L 898.651446 63.101928 
L 899.762873 61.6432 
L 900.874301 60.853471 
L 901.985728 57.731384 
L 903.097156 58.802088 
L 904.208583 60.513578 
L 905.320011 63.934044 
L 906.431438 60.184812 
L 907.542866 58.582466 
L 908.654294 59.917111 
L 909.765721 59.972676 
L 911.988576 58.523377 
L 913.100004 60.683965 
L 914.211431 57.691981 
L 915.322859 57.56687 
L 916.434286 58.540654 
L 917.545714 58.659283 
L 918.657141 57.022797 
L 919.768569 53.875866 
L 920.879996 55.299583 
L 921.991424 57.8539 
L 923.102851 56.583265 
L 924.214279 56.325332 
L 925.325706 57.753473 
L 926.437134 56.996595 
L 927.548562 55.327899 
L 928.659989 52.309189 
L 929.771417 53.121845 
L 930.882844 54.535206 
L 931.994272 57.591073 
L 933.105699 53.993562 
L 934.217127 53.909042 
L 935.328554 53.325351 
L 936.439982 53.233847 
L 937.551409 55.777928 
L 938.662837 54.276144 
L 939.774264 56.409117 
L 940.885692 55.046138 
L 941.997119 51.813515 
L 943.108547 53.778372 
L 944.219974 54.03366 
L 945.331402 50.471233 
L 946.442829 49.938247 
L 947.554257 53.340456 
L 948.665685 50.674383 
L 950.88854 52.86778 
L 951.999967 49.976492 
L 953.111395 50.315999 
L 954.222822 48.92433 
L 955.33425 52.23117 
L 956.445677 50.002324 
L 957.557105 51.040708 
L 958.668532 50.01641 
L 959.77996 48.175973 
L 960.891387 52.116319 
L 962.002815 48.784745 
L 963.114242 51.801416 
L 964.22567 50.052334 
L 965.337097 50.266577 
L 967.559953 51.816483 
L 968.67138 50.942149 
L 969.782808 48.569207 
L 970.894235 49.950677 
L 972.005663 49.304414 
L 973.11709 51.141384 
L 974.228518 48.797326 
L 975.339945 47.403367 
L 977.5628 45.855592 
L 978.674228 50.572113 
L 979.785655 48.214288 
L 980.897083 50.991735 
L 982.00851 45.840575 
L 983.119938 48.98746 
L 984.231365 49.279647 
L 985.342793 48.074356 
L 986.454221 49.862685 
L 987.565648 48.721423 
L 988.677076 51.408553 
L 989.788503 52.17266 
L 990.899931 49.811707 
L 992.011358 46.208922 
L 993.122786 46.160832 
L 994.234213 46.932363 
L 995.345641 47.340314 
L 996.457068 48.607267 
L 997.568496 48.63266 
L 998.679923 48.886156 
L 999.791351 49.709811 
L 1000.902778 47.338652 
L 1002.014206 45.75592 
L 1003.125633 45.831128 
L 1004.237061 47.973878 
L 1005.348488 46.768178 
L 1006.459916 43.565227 
L 1007.571344 44.851773 
L 1008.682771 43.865709 
L 1009.794199 46.92162 
L 1012.017054 44.540583 
L 1013.128481 46.45184 
L 1014.239909 45.77972 
L 1015.351336 44.666188 
L 1016.462764 44.653713 
L 1017.574191 44.96923 
L 1018.685619 47.403367 
L 1019.797046 44.902616 
L 1020.908474 46.172845 
L 1022.019901 44.030636 
L 1023.131329 45.22393 
L 1024.242756 45.032521 
L 1025.354184 46.110625 
L 1026.465612 46.007371 
L 1027.577039 43.766224 
L 1028.688467 43.87815 
L 1029.799894 45.461715 
L 1030.911322 44.53601 
L 1032.022749 42.23122 
L 1033.134177 46.719491 
L 1034.245604 44.892618 
L 1035.357032 43.989137 
L 1036.468459 44.088825 
L 1037.579887 40.999165 
L 1038.691314 42.609243 
L 1039.802742 42.988821 
L 1040.914169 45.463124 
L 1042.025597 41.736339 
L 1043.137024 46.057025 
L 1044.248452 42.600932 
L 1045.35988 43.927927 
L 1046.471307 43.282792 
L 1047.582735 45.831748 
L 1048.694162 41.481906 
L 1049.80559 40.114545 
L 1050.917017 42.457999 
L 1052.028445 44.219483 
L 1053.139872 44.826776 
L 1054.2513 43.267974 
L 1055.362727 43.969453 
L 1055.362727 43.969453 
" clip-path="url(#pd4931b6e0b)" style="fill: none; stroke: #1f77b4; stroke-width: 1.5; stroke-linecap: square"/>
   </g>
   <g id="line2d_51">
    <path d="M 778.617273 168.084138 
L 779.7287 168.463608 
L 780.840128 167.363191 
L 781.951555 168.547173 
L 783.062983 167.659086 
L 784.17441 170.057817 
L 785.285838 168.655024 
L 786.397265 169.631239 
L 787.508693 171.464801 
L 788.62012 168.532793 
L 789.731548 170.821885 
L 790.842976 166.415618 
L 791.954403 151.578291 
L 793.065831 159.53888 
L 794.177258 166.102151 
L 795.288686 154.226028 
L 796.400113 159.468401 
L 797.511541 157.608093 
L 798.622968 159.292557 
L 799.734396 157.175856 
L 800.845823 163.791343 
L 801.957251 158.903624 
L 803.068678 158.470034 
L 804.180106 131.819264 
L 805.291533 162.843602 
L 806.402961 141.603778 
L 807.514388 150.685668 
L 808.625816 144.372821 
L 809.737244 143.093816 
L 810.848671 142.204803 
L 811.960099 154.687336 
L 813.071526 136.862342 
L 814.182954 157.764121 
L 815.294381 141.489815 
L 816.405809 155.87796 
L 817.517236 145.690312 
L 818.628664 146.149419 
L 819.740091 142.694652 
L 820.851519 155.338027 
L 821.962946 146.149419 
L 824.185801 133.143992 
L 825.297229 149.883739 
L 826.408656 141.816579 
L 827.520084 145.113502 
L 828.631512 141.895124 
L 829.742939 139.027153 
L 830.854367 158.234734 
L 831.965794 144.451283 
L 833.077222 144.712513 
L 834.188649 156.31567 
L 835.300077 140.169072 
L 836.411504 134.51744 
L 837.522932 160.109255 
L 838.634359 130.843087 
L 839.745787 141.116275 
L 840.857214 140.90423 
L 841.968642 141.326801 
L 843.080069 143.168084 
L 844.191497 144.32835 
L 845.302924 136.06296 
L 846.414352 151.797018 
L 847.525779 142.904317 
L 848.637207 145.995745 
L 849.748635 145.453896 
L 850.860062 134.454161 
L 851.97149 146.597717 
L 853.082917 144.348028 
L 854.194345 147.567789 
L 855.305772 142.304494 
L 856.4172 141.150319 
L 857.528627 140.6681 
L 858.640055 144.892933 
L 859.751482 151.421432 
L 860.86291 137.912443 
L 861.974337 139.69199 
L 863.085765 141.761174 
L 864.197192 138.257617 
L 865.30862 146.445652 
L 866.420047 141.673448 
L 867.531475 141.076091 
L 868.642903 144.045589 
L 869.75433 131.984418 
L 870.865758 152.371397 
L 871.977185 139.836037 
L 873.088613 141.150319 
L 874.20004 154.750153 
L 875.311468 141.110247 
L 876.422895 140.574619 
L 877.534323 141.161691 
L 878.64575 160.146804 
L 879.757178 143.232579 
L 880.868605 143.693672 
L 881.980033 144.547752 
L 883.09146 132.857325 
L 884.202888 146.051103 
L 885.314315 135.750532 
L 886.425743 148.671247 
L 887.537171 139.676047 
L 888.648598 146.75391 
L 889.760026 141.121369 
L 890.871453 141.831871 
L 891.982881 143.732335 
L 893.094308 142.830184 
L 895.317163 143.097848 
L 896.428591 138.351852 
L 897.540018 142.898192 
L 898.651446 150.501656 
L 899.762873 146.765021 
L 900.874301 135.237468 
L 901.985728 136.523141 
L 903.097156 141.831871 
L 904.208583 148.07755 
L 905.320011 143.389114 
L 906.431438 142.439342 
L 907.542866 136.617625 
L 908.654294 144.042899 
L 909.765721 135.834755 
L 910.877149 141.777324 
L 911.988576 149.044166 
L 913.100004 140.402807 
L 914.211431 140.59498 
L 915.322859 134.378401 
L 916.434286 138.681316 
L 917.545714 138.401686 
L 918.657141 143.408178 
L 919.768569 145.685512 
L 920.879996 143.06015 
L 921.991424 144.647952 
L 923.102851 142.402935 
L 924.214279 146.214345 
L 925.325706 138.800521 
L 926.437134 144.852086 
L 927.548562 145.522518 
L 928.659989 136.486162 
L 929.771417 148.253183 
L 930.882844 141.992645 
L 931.994272 138.875254 
L 933.105699 136.975257 
L 934.217127 135.501034 
L 935.328554 142.428726 
L 936.439982 137.608063 
L 937.551409 147.628644 
L 938.662837 140.718665 
L 939.774264 140.853493 
L 940.885692 139.257871 
L 941.997119 144.485311 
L 943.108547 139.69199 
L 944.219974 138.735109 
L 945.331402 137.534395 
L 946.442829 134.655837 
L 947.554257 140.343808 
L 948.665685 140.253159 
L 949.777112 129.949198 
L 950.88854 141.52113 
L 951.999967 140.581636 
L 953.111395 140.628797 
L 954.222822 146.459496 
L 955.33425 146.351898 
L 956.445677 142.431742 
L 957.557105 139.319647 
L 958.668532 136.715368 
L 959.77996 142.421123 
L 960.891387 134.791178 
L 962.002815 143.914164 
L 963.114242 140.955216 
L 964.22567 140.611875 
L 965.337097 142.147232 
L 966.448525 141.040752 
L 967.559953 142.390245 
L 968.67138 142.516136 
L 969.782808 146.253167 
L 970.894235 134.612048 
L 972.005663 141.535411 
L 973.11709 137.627321 
L 974.228518 140.483749 
L 975.339945 141.33501 
L 976.451373 139.159911 
L 977.5628 141.51787 
L 978.674228 139.318248 
L 979.785655 143.484746 
L 980.897083 134.169661 
L 982.00851 139.692176 
L 983.119938 136.740718 
L 984.231365 138.154871 
L 985.342793 135.539148 
L 986.454221 141.613386 
L 987.565648 139.579454 
L 988.677076 141.075164 
L 989.788503 143.099925 
L 990.899931 138.046779 
L 992.011358 138.816021 
L 993.122786 141.857099 
L 994.234213 143.450922 
L 995.345641 134.791178 
L 996.457068 142.767027 
L 997.568496 143.178996 
L 998.679923 140.896684 
L 999.791351 148.142038 
L 1000.902778 144.829768 
L 1002.014206 144.009425 
L 1003.125633 145.589122 
L 1004.237061 138.940949 
L 1005.348488 146.352023 
L 1006.459916 138.553725 
L 1007.571344 136.621035 
L 1008.682771 136.660348 
L 1009.794199 143.461061 
L 1010.905626 138.566794 
L 1012.017054 137.261677 
L 1013.128481 136.459113 
L 1014.239909 142.784613 
L 1015.351336 133.251582 
L 1016.462764 142.879467 
L 1017.574191 138.175672 
L 1018.685619 140.034315 
L 1019.797046 138.773128 
L 1022.019901 140.001203 
L 1023.131329 137.898683 
L 1024.242756 143.596443 
L 1025.354184 140.29099 
L 1026.465612 139.692303 
L 1027.577039 138.4478 
L 1028.688467 137.715849 
L 1029.799894 141.892379 
L 1030.911322 140.369359 
L 1033.134177 135.784997 
L 1035.357032 143.000103 
L 1036.468459 139.02247 
L 1037.579887 140.099203 
L 1038.691314 137.958971 
L 1039.802742 136.08395 
L 1040.914169 139.937353 
L 1042.025597 141.387565 
L 1043.137024 140.037155 
L 1044.248452 142.66031 
L 1045.35988 136.840513 
L 1046.471307 143.969975 
L 1047.582735 140.760932 
L 1048.694162 141.202914 
L 1049.80559 140.700775 
L 1050.917017 139.367479 
L 1052.028445 140.500585 
L 1053.139872 136.893688 
L 1054.2513 139.99867 
L 1055.362727 136.138005 
L 1055.362727 136.138005 
" clip-path="url(#pd4931b6e0b)" style="fill: none; stroke: #ff7f0e; stroke-width: 1.5; stroke-linecap: square"/>
   </g>
   <g id="patch_15">
    <path d="M 764.78 318.04 
L 764.78 26.88 
" style="fill: none; stroke: #000000; stroke-width: 0.8; stroke-linejoin: miter; stroke-linecap: square"/>
   </g>
   <g id="patch_16">
    <path d="M 1069.2 318.04 
L 1069.2 26.88 
" style="fill: none; stroke: #000000; stroke-width: 0.8; stroke-linejoin: miter; stroke-linecap: square"/>
   </g>
   <g id="patch_17">
    <path d="M 764.78 318.04 
L 1069.2 318.04 
" style="fill: none; stroke: #000000; stroke-width: 0.8; stroke-linejoin: miter; stroke-linecap: square"/>
   </g>
   <g id="patch_18">
    <path d="M 764.78 26.88 
L 1069.2 26.88 
" style="fill: none; stroke: #000000; stroke-width: 0.8; stroke-linejoin: miter; stroke-linecap: square"/>
   </g>
   <g id="text_54">
    <!-- F1-Score vs Epoch -->
    <g transform="translate(861.890313 20.88) scale(0.12 -0.12)">
     <use xlink:href="#DejaVuSans-46"/>
     <use xlink:href="#DejaVuSans-31" x="57.519531"/>
     <use xlink:href="#DejaVuSans-2d" x="121.142578"/>
     <use xlink:href="#DejaVuSans-53" x="157.226562"/>
     <use xlink:href="#DejaVuSans-63" x="220.703125"/>
     <use xlink:href="#DejaVuSans-6f" x="275.683594"/>
     <use xlink:href="#DejaVuSans-72" x="336.865234"/>
     <use xlink:href="#DejaVuSans-65" x="375.728516"/>
     <use xlink:href="#DejaVuSans-20" x="437.251953"/>
     <use xlink:href="#DejaVuSans-76" x="469.039062"/>
     <use xlink:href="#DejaVuSans-73" x="528.21875"/>
     <use xlink:href="#DejaVuSans-20" x="580.318359"/>
     <use xlink:href="#DejaVuSans-45" x="612.105469"/>
     <use xlink:href="#DejaVuSans-70" x="675.289062"/>
     <use xlink:href="#DejaVuSans-6f" x="738.765625"/>
     <use xlink:href="#DejaVuSans-63" x="799.947266"/>
     <use xlink:href="#DejaVuSans-68" x="854.927734"/>
    </g>
   </g>
   <g id="legend_3">
    <g id="patch_19">
     <path d="M 771.78 64.23625 
L 868.453438 64.23625 
Q 870.453438 64.23625 870.453438 62.23625 
L 870.453438 33.88 
Q 870.453438 31.88 868.453438 31.88 
L 771.78 31.88 
Q 769.78 31.88 769.78 33.88 
L 769.78 62.23625 
Q 769.78 64.23625 771.78 64.23625 
z
" style="fill: #ffffff; opacity: 0.8; stroke: #cccccc; stroke-linejoin: miter"/>
    </g>
    <g id="line2d_52">
     <path d="M 773.78 39.978437 
L 783.78 39.978437 
L 793.78 39.978437 
" style="fill: none; stroke: #1f77b4; stroke-width: 1.5; stroke-linecap: square"/>
    </g>
    <g id="text_55">
     <!-- Train F1 -->
     <g transform="translate(801.78 43.478437) scale(0.1 -0.1)">
      <use xlink:href="#DejaVuSans-54"/>
      <use xlink:href="#DejaVuSans-72" x="46.333984"/>
      <use xlink:href="#DejaVuSans-61" x="87.447266"/>
      <use xlink:href="#DejaVuSans-69" x="148.726562"/>
      <use xlink:href="#DejaVuSans-6e" x="176.509766"/>
      <use xlink:href="#DejaVuSans-20" x="239.888672"/>
      <use xlink:href="#DejaVuSans-46" x="271.675781"/>
      <use xlink:href="#DejaVuSans-31" x="329.195312"/>
     </g>
    </g>
    <g id="line2d_53">
     <path d="M 773.78 54.656563 
L 783.78 54.656563 
L 793.78 54.656563 
" style="fill: none; stroke: #ff7f0e; stroke-width: 1.5; stroke-linecap: square"/>
    </g>
    <g id="text_56">
     <!-- Validation F1 -->
     <g transform="translate(801.78 58.156563) scale(0.1 -0.1)">
      <use xlink:href="#DejaVuSans-56"/>
      <use xlink:href="#DejaVuSans-61" x="60.658203"/>
      <use xlink:href="#DejaVuSans-6c" x="121.9375"/>
      <use xlink:href="#DejaVuSans-69" x="149.720703"/>
      <use xlink:href="#DejaVuSans-64" x="177.503906"/>
      <use xlink:href="#DejaVuSans-61" x="240.980469"/>
      <use xlink:href="#DejaVuSans-74" x="302.259766"/>
      <use xlink:href="#DejaVuSans-69" x="341.46875"/>
      <use xlink:href="#DejaVuSans-6f" x="369.251953"/>
      <use xlink:href="#DejaVuSans-6e" x="430.433594"/>
      <use xlink:href="#DejaVuSans-20" x="493.8125"/>
      <use xlink:href="#DejaVuSans-46" x="525.599609"/>
      <use xlink:href="#DejaVuSans-31" x="583.119141"/>
     </g>
    </g>
   </g>
  </g>
 </g>
 <defs>
  <clipPath id="pc70195aed9">
   <rect x="47.72" y="26.88" width="304.42" height="291.16"/>
  </clipPath>
  <clipPath id="p57ee4bdc35">
   <rect x="406.25" y="26.88" width="304.42" height="291.16"/>
  </clipPath>
  <clipPath id="pd4931b6e0b">
   <rect x="764.78" y="26.88" width="304.42" height="291.16"/>
  </clipPath>
 </defs>
</svg>
