<?xml version="1.0" encoding="utf-8" standalone="no"?>
<!DOCTYPE svg PUBLIC "-//W3C//DTD SVG 1.1//EN"
  "http://www.w3.org/Graphics/SVG/1.1/DTD/svg11.dtd">
<svg xmlns:xlink="http://www.w3.org/1999/xlink" width="1080pt" height="360pt" viewBox="0 0 1080 360" xmlns="http://www.w3.org/2000/svg" version="1.1">
 <metadata>
  <rdf:RDF xmlns:dc="http://purl.org/dc/elements/1.1/" xmlns:cc="http://creativecommons.org/ns#" xmlns:rdf="http://www.w3.org/1999/02/22-rdf-syntax-ns#">
   <cc:Work>
    <dc:type rdf:resource="http://purl.org/dc/dcmitype/StillImage"/>
    <dc:date>2024-12-05T23:18:51.423642</dc:date>
    <dc:format>image/svg+xml</dc:format>
    <dc:creator>
     <cc:Agent>
      <dc:title>Matplotlib v3.8.2, https://matplotlib.org/</dc:title>
     </cc:Agent>
    </dc:creator>
   </cc:Work>
  </rdf:RDF>
 </metadata>
 <defs>
  <style type="text/css">*{stroke-linejoin: round; stroke-linecap: butt}</style>
 </defs>
 <g id="figure_1">
  <g id="patch_1">
   <path d="M 0 360 
L 1080 360 
L 1080 0 
L 0 0 
z
" style="fill: #ffffff"/>
  </g>
  <g id="axes_1">
   <g id="patch_2">
    <path d="M 47.72 318.04 
L 352.2 318.04 
L 352.2 26.88 
L 47.72 26.88 
z
" style="fill: #ffffff"/>
   </g>
   <g id="matplotlib.axis_1">
    <g id="xtick_1">
     <g id="line2d_1">
      <defs>
       <path id="me5ecc6e359" d="M 0 0 
L 0 3.5 
" style="stroke: #000000; stroke-width: 0.8"/>
      </defs>
      <g>
       <use xlink:href="#me5ecc6e359" x="61.56" y="318.04" style="stroke: #000000; stroke-width: 0.8"/>
      </g>
     </g>
     <g id="text_1">
      <!-- 0 -->
      <g transform="translate(58.37875 332.638438) scale(0.1 -0.1)">
       <defs>
        <path id="DejaVuSans-30" d="M 2034 4250 
Q 1547 4250 1301 3770 
Q 1056 3291 1056 2328 
Q 1056 1369 1301 889 
Q 1547 409 2034 409 
Q 2525 409 2770 889 
Q 3016 1369 3016 2328 
Q 3016 3291 2770 3770 
Q 2525 4250 2034 4250 
z
M 2034 4750 
Q 2819 4750 3233 4129 
Q 3647 3509 3647 2328 
Q 3647 1150 3233 529 
Q 2819 -91 2034 -91 
Q 1250 -91 836 529 
Q 422 1150 422 2328 
Q 422 3509 836 4129 
Q 1250 4750 2034 4750 
z
" transform="scale(0.015625)"/>
       </defs>
       <use xlink:href="#DejaVuSans-30"/>
      </g>
     </g>
    </g>
    <g id="xtick_2">
     <g id="line2d_2">
      <g>
       <use xlink:href="#me5ecc6e359" x="98.714362" y="318.04" style="stroke: #000000; stroke-width: 0.8"/>
      </g>
     </g>
     <g id="text_2">
      <!-- 20 -->
      <g transform="translate(92.351862 332.638438) scale(0.1 -0.1)">
       <defs>
        <path id="DejaVuSans-32" d="M 1228 531 
L 3431 531 
L 3431 0 
L 469 0 
L 469 531 
Q 828 903 1448 1529 
Q 2069 2156 2228 2338 
Q 2531 2678 2651 2914 
Q 2772 3150 2772 3378 
Q 2772 3750 2511 3984 
Q 2250 4219 1831 4219 
Q 1534 4219 1204 4116 
Q 875 4013 500 3803 
L 500 4441 
Q 881 4594 1212 4672 
Q 1544 4750 1819 4750 
Q 2544 4750 2975 4387 
Q 3406 4025 3406 3419 
Q 3406 3131 3298 2873 
Q 3191 2616 2906 2266 
Q 2828 2175 2409 1742 
Q 1991 1309 1228 531 
z
" transform="scale(0.015625)"/>
       </defs>
       <use xlink:href="#DejaVuSans-32"/>
       <use xlink:href="#DejaVuSans-30" x="63.623047"/>
      </g>
     </g>
    </g>
    <g id="xtick_3">
     <g id="line2d_3">
      <g>
       <use xlink:href="#me5ecc6e359" x="135.868725" y="318.04" style="stroke: #000000; stroke-width: 0.8"/>
      </g>
     </g>
     <g id="text_3">
      <!-- 40 -->
      <g transform="translate(129.506225 332.638438) scale(0.1 -0.1)">
       <defs>
        <path id="DejaVuSans-34" d="M 2419 4116 
L 825 1625 
L 2419 1625 
L 2419 4116 
z
M 2253 4666 
L 3047 4666 
L 3047 1625 
L 3713 1625 
L 3713 1100 
L 3047 1100 
L 3047 0 
L 2419 0 
L 2419 1100 
L 313 1100 
L 313 1709 
L 2253 4666 
z
" transform="scale(0.015625)"/>
       </defs>
       <use xlink:href="#DejaVuSans-34"/>
       <use xlink:href="#DejaVuSans-30" x="63.623047"/>
      </g>
     </g>
    </g>
    <g id="xtick_4">
     <g id="line2d_4">
      <g>
       <use xlink:href="#me5ecc6e359" x="173.023087" y="318.04" style="stroke: #000000; stroke-width: 0.8"/>
      </g>
     </g>
     <g id="text_4">
      <!-- 60 -->
      <g transform="translate(166.660587 332.638438) scale(0.1 -0.1)">
       <defs>
        <path id="DejaVuSans-36" d="M 2113 2584 
Q 1688 2584 1439 2293 
Q 1191 2003 1191 1497 
Q 1191 994 1439 701 
Q 1688 409 2113 409 
Q 2538 409 2786 701 
Q 3034 994 3034 1497 
Q 3034 2003 2786 2293 
Q 2538 2584 2113 2584 
z
M 3366 4563 
L 3366 3988 
Q 3128 4100 2886 4159 
Q 2644 4219 2406 4219 
Q 1781 4219 1451 3797 
Q 1122 3375 1075 2522 
Q 1259 2794 1537 2939 
Q 1816 3084 2150 3084 
Q 2853 3084 3261 2657 
Q 3669 2231 3669 1497 
Q 3669 778 3244 343 
Q 2819 -91 2113 -91 
Q 1303 -91 875 529 
Q 447 1150 447 2328 
Q 447 3434 972 4092 
Q 1497 4750 2381 4750 
Q 2619 4750 2861 4703 
Q 3103 4656 3366 4563 
z
" transform="scale(0.015625)"/>
       </defs>
       <use xlink:href="#DejaVuSans-36"/>
       <use xlink:href="#DejaVuSans-30" x="63.623047"/>
      </g>
     </g>
    </g>
    <g id="xtick_5">
     <g id="line2d_5">
      <g>
       <use xlink:href="#me5ecc6e359" x="210.17745" y="318.04" style="stroke: #000000; stroke-width: 0.8"/>
      </g>
     </g>
     <g id="text_5">
      <!-- 80 -->
      <g transform="translate(203.81495 332.638438) scale(0.1 -0.1)">
       <defs>
        <path id="DejaVuSans-38" d="M 2034 2216 
Q 1584 2216 1326 1975 
Q 1069 1734 1069 1313 
Q 1069 891 1326 650 
Q 1584 409 2034 409 
Q 2484 409 2743 651 
Q 3003 894 3003 1313 
Q 3003 1734 2745 1975 
Q 2488 2216 2034 2216 
z
M 1403 2484 
Q 997 2584 770 2862 
Q 544 3141 544 3541 
Q 544 4100 942 4425 
Q 1341 4750 2034 4750 
Q 2731 4750 3128 4425 
Q 3525 4100 3525 3541 
Q 3525 3141 3298 2862 
Q 3072 2584 2669 2484 
Q 3125 2378 3379 2068 
Q 3634 1759 3634 1313 
Q 3634 634 3220 271 
Q 2806 -91 2034 -91 
Q 1263 -91 848 271 
Q 434 634 434 1313 
Q 434 1759 690 2068 
Q 947 2378 1403 2484 
z
M 1172 3481 
Q 1172 3119 1398 2916 
Q 1625 2713 2034 2713 
Q 2441 2713 2670 2916 
Q 2900 3119 2900 3481 
Q 2900 3844 2670 4047 
Q 2441 4250 2034 4250 
Q 1625 4250 1398 4047 
Q 1172 3844 1172 3481 
z
" transform="scale(0.015625)"/>
       </defs>
       <use xlink:href="#DejaVuSans-38"/>
       <use xlink:href="#DejaVuSans-30" x="63.623047"/>
      </g>
     </g>
    </g>
    <g id="xtick_6">
     <g id="line2d_6">
      <g>
       <use xlink:href="#me5ecc6e359" x="247.331812" y="318.04" style="stroke: #000000; stroke-width: 0.8"/>
      </g>
     </g>
     <g id="text_6">
      <!-- 100 -->
      <g transform="translate(237.788062 332.638438) scale(0.1 -0.1)">
       <defs>
        <path id="DejaVuSans-31" d="M 794 531 
L 1825 531 
L 1825 4091 
L 703 3866 
L 703 4441 
L 1819 4666 
L 2450 4666 
L 2450 531 
L 3481 531 
L 3481 0 
L 794 0 
L 794 531 
z
" transform="scale(0.015625)"/>
       </defs>
       <use xlink:href="#DejaVuSans-31"/>
       <use xlink:href="#DejaVuSans-30" x="63.623047"/>
       <use xlink:href="#DejaVuSans-30" x="127.246094"/>
      </g>
     </g>
    </g>
    <g id="xtick_7">
     <g id="line2d_7">
      <g>
       <use xlink:href="#me5ecc6e359" x="284.486174" y="318.04" style="stroke: #000000; stroke-width: 0.8"/>
      </g>
     </g>
     <g id="text_7">
      <!-- 120 -->
      <g transform="translate(274.942424 332.638438) scale(0.1 -0.1)">
       <use xlink:href="#DejaVuSans-31"/>
       <use xlink:href="#DejaVuSans-32" x="63.623047"/>
       <use xlink:href="#DejaVuSans-30" x="127.246094"/>
      </g>
     </g>
    </g>
    <g id="xtick_8">
     <g id="line2d_8">
      <g>
       <use xlink:href="#me5ecc6e359" x="321.640537" y="318.04" style="stroke: #000000; stroke-width: 0.8"/>
      </g>
     </g>
     <g id="text_8">
      <!-- 140 -->
      <g transform="translate(312.096787 332.638438) scale(0.1 -0.1)">
       <use xlink:href="#DejaVuSans-31"/>
       <use xlink:href="#DejaVuSans-34" x="63.623047"/>
       <use xlink:href="#DejaVuSans-30" x="127.246094"/>
      </g>
     </g>
    </g>
    <g id="text_9">
     <!-- Epoch -->
     <g transform="translate(184.649062 346.316563) scale(0.1 -0.1)">
      <defs>
       <path id="DejaVuSans-45" d="M 628 4666 
L 3578 4666 
L 3578 4134 
L 1259 4134 
L 1259 2753 
L 3481 2753 
L 3481 2222 
L 1259 2222 
L 1259 531 
L 3634 531 
L 3634 0 
L 628 0 
L 628 4666 
z
" transform="scale(0.015625)"/>
       <path id="DejaVuSans-70" d="M 1159 525 
L 1159 -1331 
L 581 -1331 
L 581 3500 
L 1159 3500 
L 1159 2969 
Q 1341 3281 1617 3432 
Q 1894 3584 2278 3584 
Q 2916 3584 3314 3078 
Q 3713 2572 3713 1747 
Q 3713 922 3314 415 
Q 2916 -91 2278 -91 
Q 1894 -91 1617 61 
Q 1341 213 1159 525 
z
M 3116 1747 
Q 3116 2381 2855 2742 
Q 2594 3103 2138 3103 
Q 1681 3103 1420 2742 
Q 1159 2381 1159 1747 
Q 1159 1113 1420 752 
Q 1681 391 2138 391 
Q 2594 391 2855 752 
Q 3116 1113 3116 1747 
z
" transform="scale(0.015625)"/>
       <path id="DejaVuSans-6f" d="M 1959 3097 
Q 1497 3097 1228 2736 
Q 959 2375 959 1747 
Q 959 1119 1226 758 
Q 1494 397 1959 397 
Q 2419 397 2687 759 
Q 2956 1122 2956 1747 
Q 2956 2369 2687 2733 
Q 2419 3097 1959 3097 
z
M 1959 3584 
Q 2709 3584 3137 3096 
Q 3566 2609 3566 1747 
Q 3566 888 3137 398 
Q 2709 -91 1959 -91 
Q 1206 -91 779 398 
Q 353 888 353 1747 
Q 353 2609 779 3096 
Q 1206 3584 1959 3584 
z
" transform="scale(0.015625)"/>
       <path id="DejaVuSans-63" d="M 3122 3366 
L 3122 2828 
Q 2878 2963 2633 3030 
Q 2388 3097 2138 3097 
Q 1578 3097 1268 2742 
Q 959 2388 959 1747 
Q 959 1106 1268 751 
Q 1578 397 2138 397 
Q 2388 397 2633 464 
Q 2878 531 3122 666 
L 3122 134 
Q 2881 22 2623 -34 
Q 2366 -91 2075 -91 
Q 1284 -91 818 406 
Q 353 903 353 1747 
Q 353 2603 823 3093 
Q 1294 3584 2113 3584 
Q 2378 3584 2631 3529 
Q 2884 3475 3122 3366 
z
" transform="scale(0.015625)"/>
       <path id="DejaVuSans-68" d="M 3513 2113 
L 3513 0 
L 2938 0 
L 2938 2094 
Q 2938 2591 2744 2837 
Q 2550 3084 2163 3084 
Q 1697 3084 1428 2787 
Q 1159 2491 1159 1978 
L 1159 0 
L 581 0 
L 581 4863 
L 1159 4863 
L 1159 2956 
Q 1366 3272 1645 3428 
Q 1925 3584 2291 3584 
Q 2894 3584 3203 3211 
Q 3513 2838 3513 2113 
z
" transform="scale(0.015625)"/>
      </defs>
      <use xlink:href="#DejaVuSans-45"/>
      <use xlink:href="#DejaVuSans-70" x="63.183594"/>
      <use xlink:href="#DejaVuSans-6f" x="126.660156"/>
      <use xlink:href="#DejaVuSans-63" x="187.841797"/>
      <use xlink:href="#DejaVuSans-68" x="242.822266"/>
     </g>
    </g>
   </g>
   <g id="matplotlib.axis_2">
    <g id="ytick_1">
     <g id="line2d_9">
      <defs>
       <path id="m7a871793d0" d="M 0 0 
L -3.5 0 
" style="stroke: #000000; stroke-width: 0.8"/>
      </defs>
      <g>
       <use xlink:href="#m7a871793d0" x="47.72" y="308.896714" style="stroke: #000000; stroke-width: 0.8"/>
      </g>
     </g>
     <g id="text_10">
      <!-- 0.3 -->
      <g transform="translate(24.816875 312.695932) scale(0.1 -0.1)">
       <defs>
        <path id="DejaVuSans-2e" d="M 684 794 
L 1344 794 
L 1344 0 
L 684 0 
L 684 794 
z
" transform="scale(0.015625)"/>
        <path id="DejaVuSans-33" d="M 2597 2516 
Q 3050 2419 3304 2112 
Q 3559 1806 3559 1356 
Q 3559 666 3084 287 
Q 2609 -91 1734 -91 
Q 1441 -91 1130 -33 
Q 819 25 488 141 
L 488 750 
Q 750 597 1062 519 
Q 1375 441 1716 441 
Q 2309 441 2620 675 
Q 2931 909 2931 1356 
Q 2931 1769 2642 2001 
Q 2353 2234 1838 2234 
L 1294 2234 
L 1294 2753 
L 1863 2753 
Q 2328 2753 2575 2939 
Q 2822 3125 2822 3475 
Q 2822 3834 2567 4026 
Q 2313 4219 1838 4219 
Q 1578 4219 1281 4162 
Q 984 4106 628 3988 
L 628 4550 
Q 988 4650 1302 4700 
Q 1616 4750 1894 4750 
Q 2613 4750 3031 4423 
Q 3450 4097 3450 3541 
Q 3450 3153 3228 2886 
Q 3006 2619 2597 2516 
z
" transform="scale(0.015625)"/>
       </defs>
       <use xlink:href="#DejaVuSans-30"/>
       <use xlink:href="#DejaVuSans-2e" x="63.623047"/>
       <use xlink:href="#DejaVuSans-33" x="95.410156"/>
      </g>
     </g>
    </g>
    <g id="ytick_2">
     <g id="line2d_10">
      <g>
       <use xlink:href="#m7a871793d0" x="47.72" y="260.504953" style="stroke: #000000; stroke-width: 0.8"/>
      </g>
     </g>
     <g id="text_11">
      <!-- 0.4 -->
      <g transform="translate(24.816875 264.304172) scale(0.1 -0.1)">
       <use xlink:href="#DejaVuSans-30"/>
       <use xlink:href="#DejaVuSans-2e" x="63.623047"/>
       <use xlink:href="#DejaVuSans-34" x="95.410156"/>
      </g>
     </g>
    </g>
    <g id="ytick_3">
     <g id="line2d_11">
      <g>
       <use xlink:href="#m7a871793d0" x="47.72" y="212.113192" style="stroke: #000000; stroke-width: 0.8"/>
      </g>
     </g>
     <g id="text_12">
      <!-- 0.5 -->
      <g transform="translate(24.816875 215.912411) scale(0.1 -0.1)">
       <defs>
        <path id="DejaVuSans-35" d="M 691 4666 
L 3169 4666 
L 3169 4134 
L 1269 4134 
L 1269 2991 
Q 1406 3038 1543 3061 
Q 1681 3084 1819 3084 
Q 2600 3084 3056 2656 
Q 3513 2228 3513 1497 
Q 3513 744 3044 326 
Q 2575 -91 1722 -91 
Q 1428 -91 1123 -41 
Q 819 9 494 109 
L 494 744 
Q 775 591 1075 516 
Q 1375 441 1709 441 
Q 2250 441 2565 725 
Q 2881 1009 2881 1497 
Q 2881 1984 2565 2268 
Q 2250 2553 1709 2553 
Q 1456 2553 1204 2497 
Q 953 2441 691 2322 
L 691 4666 
z
" transform="scale(0.015625)"/>
       </defs>
       <use xlink:href="#DejaVuSans-30"/>
       <use xlink:href="#DejaVuSans-2e" x="63.623047"/>
       <use xlink:href="#DejaVuSans-35" x="95.410156"/>
      </g>
     </g>
    </g>
    <g id="ytick_4">
     <g id="line2d_12">
      <g>
       <use xlink:href="#m7a871793d0" x="47.72" y="163.721431" style="stroke: #000000; stroke-width: 0.8"/>
      </g>
     </g>
     <g id="text_13">
      <!-- 0.6 -->
      <g transform="translate(24.816875 167.52065) scale(0.1 -0.1)">
       <use xlink:href="#DejaVuSans-30"/>
       <use xlink:href="#DejaVuSans-2e" x="63.623047"/>
       <use xlink:href="#DejaVuSans-36" x="95.410156"/>
      </g>
     </g>
    </g>
    <g id="ytick_5">
     <g id="line2d_13">
      <g>
       <use xlink:href="#m7a871793d0" x="47.72" y="115.32967" style="stroke: #000000; stroke-width: 0.8"/>
      </g>
     </g>
     <g id="text_14">
      <!-- 0.7 -->
      <g transform="translate(24.816875 119.128889) scale(0.1 -0.1)">
       <defs>
        <path id="DejaVuSans-37" d="M 525 4666 
L 3525 4666 
L 3525 4397 
L 1831 0 
L 1172 0 
L 2766 4134 
L 525 4134 
L 525 4666 
z
" transform="scale(0.015625)"/>
       </defs>
       <use xlink:href="#DejaVuSans-30"/>
       <use xlink:href="#DejaVuSans-2e" x="63.623047"/>
       <use xlink:href="#DejaVuSans-37" x="95.410156"/>
      </g>
     </g>
    </g>
    <g id="ytick_6">
     <g id="line2d_14">
      <g>
       <use xlink:href="#m7a871793d0" x="47.72" y="66.93791" style="stroke: #000000; stroke-width: 0.8"/>
      </g>
     </g>
     <g id="text_15">
      <!-- 0.8 -->
      <g transform="translate(24.816875 70.737128) scale(0.1 -0.1)">
       <use xlink:href="#DejaVuSans-30"/>
       <use xlink:href="#DejaVuSans-2e" x="63.623047"/>
       <use xlink:href="#DejaVuSans-38" x="95.410156"/>
      </g>
     </g>
    </g>
    <g id="text_16">
     <!-- Loss -->
     <g transform="translate(18.737187 183.427188) rotate(-90) scale(0.1 -0.1)">
      <defs>
       <path id="DejaVuSans-4c" d="M 628 4666 
L 1259 4666 
L 1259 531 
L 3531 531 
L 3531 0 
L 628 0 
L 628 4666 
z
" transform="scale(0.015625)"/>
       <path id="DejaVuSans-73" d="M 2834 3397 
L 2834 2853 
Q 2591 2978 2328 3040 
Q 2066 3103 1784 3103 
Q 1356 3103 1142 2972 
Q 928 2841 928 2578 
Q 928 2378 1081 2264 
Q 1234 2150 1697 2047 
L 1894 2003 
Q 2506 1872 2764 1633 
Q 3022 1394 3022 966 
Q 3022 478 2636 193 
Q 2250 -91 1575 -91 
Q 1294 -91 989 -36 
Q 684 19 347 128 
L 347 722 
Q 666 556 975 473 
Q 1284 391 1588 391 
Q 1994 391 2212 530 
Q 2431 669 2431 922 
Q 2431 1156 2273 1281 
Q 2116 1406 1581 1522 
L 1381 1569 
Q 847 1681 609 1914 
Q 372 2147 372 2553 
Q 372 3047 722 3315 
Q 1072 3584 1716 3584 
Q 2034 3584 2315 3537 
Q 2597 3491 2834 3397 
z
" transform="scale(0.015625)"/>
      </defs>
      <use xlink:href="#DejaVuSans-4c"/>
      <use xlink:href="#DejaVuSans-6f" x="53.962891"/>
      <use xlink:href="#DejaVuSans-73" x="115.144531"/>
      <use xlink:href="#DejaVuSans-73" x="167.244141"/>
     </g>
    </g>
   </g>
   <g id="line2d_15">
    <path d="M 61.56 119.186821 
L 67.133154 131.462048 
L 68.990872 133.981378 
L 70.848591 137.346542 
L 72.706309 142.034298 
L 74.564027 150.04264 
L 80.137181 207.573502 
L 81.994899 218.842446 
L 83.852617 220.997618 
L 87.568054 230.018931 
L 89.425772 237.384624 
L 91.28349 231.432934 
L 93.141208 232.190832 
L 94.998926 242.977525 
L 96.856644 244.765675 
L 98.714362 247.380374 
L 100.572081 243.392292 
L 102.429799 247.822449 
L 104.287517 242.236494 
L 106.145235 253.542607 
L 109.860671 261.434696 
L 111.718389 261.1497 
L 113.576107 263.804757 
L 115.433826 265.209436 
L 117.291544 265.263807 
L 119.149262 268.301616 
L 121.00698 263.86333 
L 122.864698 269.252336 
L 124.722416 269.861384 
L 126.580134 273.38871 
L 128.437852 273.073805 
L 130.29557 273.550763 
L 132.153289 274.952581 
L 134.011007 274.623036 
L 135.868725 271.345139 
L 137.726443 273.611572 
L 139.584161 273.271446 
L 141.441879 271.774476 
L 143.299597 277.508402 
L 145.157315 276.85354 
L 147.015034 276.659257 
L 148.872752 275.99998 
L 150.73047 275.599669 
L 152.588188 279.204186 
L 154.445906 279.024491 
L 156.303624 279.202019 
L 158.161342 279.647545 
L 160.01906 281.681017 
L 161.876779 277.739633 
L 163.734497 280.570073 
L 165.592215 280.099991 
L 167.449933 281.037164 
L 169.307651 282.48576 
L 171.165369 283.662774 
L 173.023087 283.491873 
L 174.880805 283.477094 
L 176.738523 285.365632 
L 178.596242 281.664335 
L 180.45396 284.927156 
L 182.311678 285.925249 
L 184.169396 286.197038 
L 186.027114 285.453297 
L 187.884832 287.028079 
L 189.74255 287.490106 
L 191.600268 289.119641 
L 193.457987 289.387924 
L 195.315705 289.950961 
L 197.173423 289.369046 
L 199.031141 288.014055 
L 200.888859 290.016162 
L 202.746577 290.233937 
L 204.604295 291.488242 
L 206.462013 289.317855 
L 208.319732 292.257875 
L 210.17745 290.616195 
L 212.035168 290.820837 
L 213.892886 292.61296 
L 215.750604 292.117961 
L 217.608322 292.617439 
L 219.46604 294.159957 
L 221.323758 292.86914 
L 223.181477 294.054794 
L 225.039195 293.215247 
L 226.896913 293.711464 
L 228.754631 294.565948 
L 230.612349 295.016815 
L 232.470067 294.70725 
L 234.327785 295.676236 
L 236.185503 294.320623 
L 238.043221 296.257693 
L 239.90094 296.528641 
L 241.758658 294.873704 
L 243.616376 296.07302 
L 245.474094 296.305794 
L 247.331812 296.138581 
L 249.18953 295.378399 
L 251.047248 295.069365 
L 252.904966 296.753582 
L 254.762685 297.323867 
L 256.620403 296.758444 
L 258.478121 296.505482 
L 260.335839 298.011913 
L 262.193557 298.033319 
L 265.908993 297.021364 
L 267.766711 297.680021 
L 269.62443 296.156897 
L 271.482148 297.114667 
L 273.339866 298.877206 
L 275.197584 299.361692 
L 277.055302 298.231385 
L 278.91302 299.400549 
L 280.770738 298.269337 
L 282.628456 299.142817 
L 284.486174 298.836956 
L 286.343893 299.426689 
L 288.201611 298.886032 
L 290.059329 299.828184 
L 291.917047 300.380035 
L 293.774765 299.197414 
L 295.632483 299.326196 
L 297.490201 300.209968 
L 299.347919 300.401754 
L 301.205638 300.411539 
L 303.063356 300.687131 
L 306.778792 300.70963 
L 308.63651 300.969981 
L 310.494228 299.625174 
L 312.351946 301.712438 
L 314.209664 300.35169 
L 316.067383 301.469976 
L 317.925101 301.103938 
L 319.782819 302.072163 
L 321.640537 299.978064 
L 323.498255 301.464006 
L 325.355973 301.469478 
L 327.213691 299.695188 
L 329.071409 301.945761 
L 330.929128 301.968898 
L 332.786846 301.517127 
L 334.644564 302.435531 
L 336.502282 301.257339 
L 338.36 301.501623 
L 338.36 301.501623 
" clip-path="url(#p3e741e9279)" style="fill: none; stroke: #1f77b4; stroke-width: 1.5; stroke-linecap: square"/>
   </g>
   <g id="line2d_16">
    <path d="M 61.56 128.783078 
L 63.417718 125.1956 
L 65.275436 128.859966 
L 67.133154 130.827945 
L 68.990872 128.145641 
L 70.848591 127.872327 
L 72.706309 120.443171 
L 74.564027 40.323691 
L 76.421745 40.114545 
L 78.279463 230.503694 
L 80.137181 227.365635 
L 81.994899 219.305902 
L 83.852617 185.852133 
L 85.710336 87.382998 
L 87.568054 235.466322 
L 89.425772 225.085052 
L 91.28349 245.194459 
L 93.141208 263.84629 
L 94.998926 252.74972 
L 96.856644 253.238165 
L 98.714362 186.490762 
L 100.572081 232.975122 
L 102.429799 209.126106 
L 104.287517 281.664879 
L 106.145235 271.574027 
L 108.002953 203.821627 
L 109.860671 258.489494 
L 111.718389 283.392739 
L 113.576107 275.959636 
L 115.433826 184.79252 
L 117.291544 250.76954 
L 119.149262 234.745733 
L 121.00698 225.596072 
L 122.864698 266.136589 
L 124.722416 284.415264 
L 126.580134 287.402124 
L 128.437852 293.295457 
L 130.29557 233.763993 
L 132.153289 261.732169 
L 134.011007 259.67949 
L 135.868725 280.040231 
L 137.726443 240.175225 
L 139.584161 195.48347 
L 141.441879 291.906208 
L 143.299597 286.61633 
L 145.157315 245.674447 
L 147.015034 257.420607 
L 148.872752 186.555237 
L 150.73047 286.431614 
L 152.588188 291.037305 
L 154.445906 273.429425 
L 156.303624 267.813342 
L 158.161342 292.570446 
L 160.01906 268.381939 
L 161.876779 270.281357 
L 163.734497 295.13737 
L 165.592215 245.553357 
L 167.449933 285.567667 
L 169.307651 269.987045 
L 171.165369 243.954351 
L 173.023087 277.224482 
L 174.880805 278.321472 
L 176.738523 236.890255 
L 178.596242 277.492979 
L 180.45396 288.159046 
L 182.311678 281.468588 
L 184.169396 270.695091 
L 186.027114 285.121142 
L 187.884832 274.058415 
L 189.74255 264.662467 
L 191.600268 290.620696 
L 193.457987 268.189258 
L 195.315705 288.983766 
L 197.173423 286.599533 
L 199.031141 275.389506 
L 200.888859 288.723571 
L 202.746577 294.940175 
L 204.604295 296.617429 
L 206.462013 292.359949 
L 208.319732 281.708024 
L 210.17745 272.259821 
L 212.035168 275.771368 
L 213.892886 284.592663 
L 215.750604 291.598542 
L 217.608322 288.283728 
L 219.46604 299.352469 
L 221.323758 272.364649 
L 223.181477 289.921154 
L 225.039195 292.165475 
L 228.754631 297.366842 
L 230.612349 294.29322 
L 232.470067 286.48285 
L 234.327785 302.588453 
L 236.185503 298.887114 
L 238.043221 283.343599 
L 239.90094 295.300068 
L 241.758658 292.651184 
L 243.616376 292.739475 
L 245.474094 295.80754 
L 247.331812 301.010604 
L 251.047248 304.805455 
L 252.904966 300.331627 
L 254.762685 297.271701 
L 256.620403 293.605109 
L 258.478121 295.804093 
L 260.335839 295.026514 
L 262.193557 299.701373 
L 264.051275 294.710267 
L 265.908993 297.232892 
L 267.766711 297.958384 
L 269.62443 300.185404 
L 271.482148 298.543921 
L 273.339866 298.599801 
L 275.197584 299.438914 
L 277.055302 297.991612 
L 278.91302 300.759693 
L 280.770738 303.155324 
L 282.628456 298.894123 
L 284.486174 297.34034 
L 286.343893 304.603145 
L 288.201611 302.170055 
L 290.059329 300.774653 
L 291.917047 303.097747 
L 293.774765 302.519127 
L 295.632483 297.772385 
L 297.490201 300.477644 
L 299.347919 302.93378 
L 301.205638 298.850905 
L 303.063356 300.714696 
L 304.921074 303.750154 
L 306.778792 299.013959 
L 308.63651 302.841758 
L 310.494228 302.604625 
L 312.351946 302.823649 
L 314.209664 298.033777 
L 316.067383 299.472728 
L 317.925101 302.352136 
L 319.782819 300.268253 
L 321.640537 302.539313 
L 323.498255 301.027877 
L 325.355973 299.989286 
L 327.213691 302.019669 
L 329.071409 297.915556 
L 330.929128 302.066251 
L 332.786846 301.086367 
L 334.644564 303.00587 
L 336.502282 300.390574 
L 338.36 298.955541 
L 338.36 298.955541 
" clip-path="url(#p3e741e9279)" style="fill: none; stroke: #ff7f0e; stroke-width: 1.5; stroke-linecap: square"/>
   </g>
   <g id="patch_3">
    <path d="M 47.72 318.04 
L 47.72 26.88 
" style="fill: none; stroke: #000000; stroke-width: 0.8; stroke-linejoin: miter; stroke-linecap: square"/>
   </g>
   <g id="patch_4">
    <path d="M 352.2 318.04 
L 352.2 26.88 
" style="fill: none; stroke: #000000; stroke-width: 0.8; stroke-linejoin: miter; stroke-linecap: square"/>
   </g>
   <g id="patch_5">
    <path d="M 47.72 318.04 
L 352.2 318.04 
" style="fill: none; stroke: #000000; stroke-width: 0.8; stroke-linejoin: miter; stroke-linecap: square"/>
   </g>
   <g id="patch_6">
    <path d="M 47.72 26.88 
L 352.2 26.88 
" style="fill: none; stroke: #000000; stroke-width: 0.8; stroke-linejoin: miter; stroke-linecap: square"/>
   </g>
   <g id="text_17">
    <!-- Loss vs Epoch -->
    <g transform="translate(157.935625 20.88) scale(0.12 -0.12)">
     <defs>
      <path id="DejaVuSans-20" transform="scale(0.015625)"/>
      <path id="DejaVuSans-76" d="M 191 3500 
L 800 3500 
L 1894 563 
L 2988 3500 
L 3597 3500 
L 2284 0 
L 1503 0 
L 191 3500 
z
" transform="scale(0.015625)"/>
     </defs>
     <use xlink:href="#DejaVuSans-4c"/>
     <use xlink:href="#DejaVuSans-6f" x="53.962891"/>
     <use xlink:href="#DejaVuSans-73" x="115.144531"/>
     <use xlink:href="#DejaVuSans-73" x="167.244141"/>
     <use xlink:href="#DejaVuSans-20" x="219.34375"/>
     <use xlink:href="#DejaVuSans-76" x="251.130859"/>
     <use xlink:href="#DejaVuSans-73" x="310.310547"/>
     <use xlink:href="#DejaVuSans-20" x="362.410156"/>
     <use xlink:href="#DejaVuSans-45" x="394.197266"/>
     <use xlink:href="#DejaVuSans-70" x="457.380859"/>
     <use xlink:href="#DejaVuSans-6f" x="520.857422"/>
     <use xlink:href="#DejaVuSans-63" x="582.039062"/>
     <use xlink:href="#DejaVuSans-68" x="637.019531"/>
    </g>
   </g>
   <g id="legend_1">
    <g id="patch_7">
     <path d="M 238.70625 64.23625 
L 345.2 64.23625 
Q 347.2 64.23625 347.2 62.23625 
L 347.2 33.88 
Q 347.2 31.88 345.2 31.88 
L 238.70625 31.88 
Q 236.70625 31.88 236.70625 33.88 
L 236.70625 62.23625 
Q 236.70625 64.23625 238.70625 64.23625 
z
" style="fill: #ffffff; opacity: 0.8; stroke: #cccccc; stroke-linejoin: miter"/>
    </g>
    <g id="line2d_17">
     <path d="M 240.70625 39.978437 
L 250.70625 39.978437 
L 260.70625 39.978437 
" style="fill: none; stroke: #1f77b4; stroke-width: 1.5; stroke-linecap: square"/>
    </g>
    <g id="text_18">
     <!-- Train Loss -->
     <g transform="translate(268.70625 43.478437) scale(0.1 -0.1)">
      <defs>
       <path id="DejaVuSans-54" d="M -19 4666 
L 3928 4666 
L 3928 4134 
L 2272 4134 
L 2272 0 
L 1638 0 
L 1638 4134 
L -19 4134 
L -19 4666 
z
" transform="scale(0.015625)"/>
       <path id="DejaVuSans-72" d="M 2631 2963 
Q 2534 3019 2420 3045 
Q 2306 3072 2169 3072 
Q 1681 3072 1420 2755 
Q 1159 2438 1159 1844 
L 1159 0 
L 581 0 
L 581 3500 
L 1159 3500 
L 1159 2956 
Q 1341 3275 1631 3429 
Q 1922 3584 2338 3584 
Q 2397 3584 2469 3576 
Q 2541 3569 2628 3553 
L 2631 2963 
z
" transform="scale(0.015625)"/>
       <path id="DejaVuSans-61" d="M 2194 1759 
Q 1497 1759 1228 1600 
Q 959 1441 959 1056 
Q 959 750 1161 570 
Q 1363 391 1709 391 
Q 2188 391 2477 730 
Q 2766 1069 2766 1631 
L 2766 1759 
L 2194 1759 
z
M 3341 1997 
L 3341 0 
L 2766 0 
L 2766 531 
Q 2569 213 2275 61 
Q 1981 -91 1556 -91 
Q 1019 -91 701 211 
Q 384 513 384 1019 
Q 384 1609 779 1909 
Q 1175 2209 1959 2209 
L 2766 2209 
L 2766 2266 
Q 2766 2663 2505 2880 
Q 2244 3097 1772 3097 
Q 1472 3097 1187 3025 
Q 903 2953 641 2809 
L 641 3341 
Q 956 3463 1253 3523 
Q 1550 3584 1831 3584 
Q 2591 3584 2966 3190 
Q 3341 2797 3341 1997 
z
" transform="scale(0.015625)"/>
       <path id="DejaVuSans-69" d="M 603 3500 
L 1178 3500 
L 1178 0 
L 603 0 
L 603 3500 
z
M 603 4863 
L 1178 4863 
L 1178 4134 
L 603 4134 
L 603 4863 
z
" transform="scale(0.015625)"/>
       <path id="DejaVuSans-6e" d="M 3513 2113 
L 3513 0 
L 2938 0 
L 2938 2094 
Q 2938 2591 2744 2837 
Q 2550 3084 2163 3084 
Q 1697 3084 1428 2787 
Q 1159 2491 1159 1978 
L 1159 0 
L 581 0 
L 581 3500 
L 1159 3500 
L 1159 2956 
Q 1366 3272 1645 3428 
Q 1925 3584 2291 3584 
Q 2894 3584 3203 3211 
Q 3513 2838 3513 2113 
z
" transform="scale(0.015625)"/>
      </defs>
      <use xlink:href="#DejaVuSans-54"/>
      <use xlink:href="#DejaVuSans-72" x="46.333984"/>
      <use xlink:href="#DejaVuSans-61" x="87.447266"/>
      <use xlink:href="#DejaVuSans-69" x="148.726562"/>
      <use xlink:href="#DejaVuSans-6e" x="176.509766"/>
      <use xlink:href="#DejaVuSans-20" x="239.888672"/>
      <use xlink:href="#DejaVuSans-4c" x="271.675781"/>
      <use xlink:href="#DejaVuSans-6f" x="325.638672"/>
      <use xlink:href="#DejaVuSans-73" x="386.820312"/>
      <use xlink:href="#DejaVuSans-73" x="438.919922"/>
     </g>
    </g>
    <g id="line2d_18">
     <path d="M 240.70625 54.656563 
L 250.70625 54.656563 
L 260.70625 54.656563 
" style="fill: none; stroke: #ff7f0e; stroke-width: 1.5; stroke-linecap: square"/>
    </g>
    <g id="text_19">
     <!-- Validation Loss -->
     <g transform="translate(268.70625 58.156563) scale(0.1 -0.1)">
      <defs>
       <path id="DejaVuSans-56" d="M 1831 0 
L 50 4666 
L 709 4666 
L 2188 738 
L 3669 4666 
L 4325 4666 
L 2547 0 
L 1831 0 
z
" transform="scale(0.015625)"/>
       <path id="DejaVuSans-6c" d="M 603 4863 
L 1178 4863 
L 1178 0 
L 603 0 
L 603 4863 
z
" transform="scale(0.015625)"/>
       <path id="DejaVuSans-64" d="M 2906 2969 
L 2906 4863 
L 3481 4863 
L 3481 0 
L 2906 0 
L 2906 525 
Q 2725 213 2448 61 
Q 2172 -91 1784 -91 
Q 1150 -91 751 415 
Q 353 922 353 1747 
Q 353 2572 751 3078 
Q 1150 3584 1784 3584 
Q 2172 3584 2448 3432 
Q 2725 3281 2906 2969 
z
M 947 1747 
Q 947 1113 1208 752 
Q 1469 391 1925 391 
Q 2381 391 2643 752 
Q 2906 1113 2906 1747 
Q 2906 2381 2643 2742 
Q 2381 3103 1925 3103 
Q 1469 3103 1208 2742 
Q 947 2381 947 1747 
z
" transform="scale(0.015625)"/>
       <path id="DejaVuSans-74" d="M 1172 4494 
L 1172 3500 
L 2356 3500 
L 2356 3053 
L 1172 3053 
L 1172 1153 
Q 1172 725 1289 603 
Q 1406 481 1766 481 
L 2356 481 
L 2356 0 
L 1766 0 
Q 1100 0 847 248 
Q 594 497 594 1153 
L 594 3053 
L 172 3053 
L 172 3500 
L 594 3500 
L 594 4494 
L 1172 4494 
z
" transform="scale(0.015625)"/>
      </defs>
      <use xlink:href="#DejaVuSans-56"/>
      <use xlink:href="#DejaVuSans-61" x="60.658203"/>
      <use xlink:href="#DejaVuSans-6c" x="121.9375"/>
      <use xlink:href="#DejaVuSans-69" x="149.720703"/>
      <use xlink:href="#DejaVuSans-64" x="177.503906"/>
      <use xlink:href="#DejaVuSans-61" x="240.980469"/>
      <use xlink:href="#DejaVuSans-74" x="302.259766"/>
      <use xlink:href="#DejaVuSans-69" x="341.46875"/>
      <use xlink:href="#DejaVuSans-6f" x="369.251953"/>
      <use xlink:href="#DejaVuSans-6e" x="430.433594"/>
      <use xlink:href="#DejaVuSans-20" x="493.8125"/>
      <use xlink:href="#DejaVuSans-4c" x="525.599609"/>
      <use xlink:href="#DejaVuSans-6f" x="579.5625"/>
      <use xlink:href="#DejaVuSans-73" x="640.744141"/>
      <use xlink:href="#DejaVuSans-73" x="692.84375"/>
     </g>
    </g>
   </g>
  </g>
  <g id="axes_2">
   <g id="patch_8">
    <path d="M 406.22 318.04 
L 710.7 318.04 
L 710.7 26.88 
L 406.22 26.88 
z
" style="fill: #ffffff"/>
   </g>
   <g id="matplotlib.axis_3">
    <g id="xtick_9">
     <g id="line2d_19">
      <g>
       <use xlink:href="#me5ecc6e359" x="420.06" y="318.04" style="stroke: #000000; stroke-width: 0.8"/>
      </g>
     </g>
     <g id="text_20">
      <!-- 0 -->
      <g transform="translate(416.87875 332.638438) scale(0.1 -0.1)">
       <use xlink:href="#DejaVuSans-30"/>
      </g>
     </g>
    </g>
    <g id="xtick_10">
     <g id="line2d_20">
      <g>
       <use xlink:href="#me5ecc6e359" x="457.214362" y="318.04" style="stroke: #000000; stroke-width: 0.8"/>
      </g>
     </g>
     <g id="text_21">
      <!-- 20 -->
      <g transform="translate(450.851862 332.638438) scale(0.1 -0.1)">
       <use xlink:href="#DejaVuSans-32"/>
       <use xlink:href="#DejaVuSans-30" x="63.623047"/>
      </g>
     </g>
    </g>
    <g id="xtick_11">
     <g id="line2d_21">
      <g>
       <use xlink:href="#me5ecc6e359" x="494.368725" y="318.04" style="stroke: #000000; stroke-width: 0.8"/>
      </g>
     </g>
     <g id="text_22">
      <!-- 40 -->
      <g transform="translate(488.006225 332.638438) scale(0.1 -0.1)">
       <use xlink:href="#DejaVuSans-34"/>
       <use xlink:href="#DejaVuSans-30" x="63.623047"/>
      </g>
     </g>
    </g>
    <g id="xtick_12">
     <g id="line2d_22">
      <g>
       <use xlink:href="#me5ecc6e359" x="531.523087" y="318.04" style="stroke: #000000; stroke-width: 0.8"/>
      </g>
     </g>
     <g id="text_23">
      <!-- 60 -->
      <g transform="translate(525.160587 332.638438) scale(0.1 -0.1)">
       <use xlink:href="#DejaVuSans-36"/>
       <use xlink:href="#DejaVuSans-30" x="63.623047"/>
      </g>
     </g>
    </g>
    <g id="xtick_13">
     <g id="line2d_23">
      <g>
       <use xlink:href="#me5ecc6e359" x="568.67745" y="318.04" style="stroke: #000000; stroke-width: 0.8"/>
      </g>
     </g>
     <g id="text_24">
      <!-- 80 -->
      <g transform="translate(562.31495 332.638438) scale(0.1 -0.1)">
       <use xlink:href="#DejaVuSans-38"/>
       <use xlink:href="#DejaVuSans-30" x="63.623047"/>
      </g>
     </g>
    </g>
    <g id="xtick_14">
     <g id="line2d_24">
      <g>
       <use xlink:href="#me5ecc6e359" x="605.831812" y="318.04" style="stroke: #000000; stroke-width: 0.8"/>
      </g>
     </g>
     <g id="text_25">
      <!-- 100 -->
      <g transform="translate(596.288062 332.638438) scale(0.1 -0.1)">
       <use xlink:href="#DejaVuSans-31"/>
       <use xlink:href="#DejaVuSans-30" x="63.623047"/>
       <use xlink:href="#DejaVuSans-30" x="127.246094"/>
      </g>
     </g>
    </g>
    <g id="xtick_15">
     <g id="line2d_25">
      <g>
       <use xlink:href="#me5ecc6e359" x="642.986174" y="318.04" style="stroke: #000000; stroke-width: 0.8"/>
      </g>
     </g>
     <g id="text_26">
      <!-- 120 -->
      <g transform="translate(633.442424 332.638438) scale(0.1 -0.1)">
       <use xlink:href="#DejaVuSans-31"/>
       <use xlink:href="#DejaVuSans-32" x="63.623047"/>
       <use xlink:href="#DejaVuSans-30" x="127.246094"/>
      </g>
     </g>
    </g>
    <g id="xtick_16">
     <g id="line2d_26">
      <g>
       <use xlink:href="#me5ecc6e359" x="680.140537" y="318.04" style="stroke: #000000; stroke-width: 0.8"/>
      </g>
     </g>
     <g id="text_27">
      <!-- 140 -->
      <g transform="translate(670.596787 332.638438) scale(0.1 -0.1)">
       <use xlink:href="#DejaVuSans-31"/>
       <use xlink:href="#DejaVuSans-34" x="63.623047"/>
       <use xlink:href="#DejaVuSans-30" x="127.246094"/>
      </g>
     </g>
    </g>
    <g id="text_28">
     <!-- Epoch -->
     <g transform="translate(543.149062 346.316563) scale(0.1 -0.1)">
      <use xlink:href="#DejaVuSans-45"/>
      <use xlink:href="#DejaVuSans-70" x="63.183594"/>
      <use xlink:href="#DejaVuSans-6f" x="126.660156"/>
      <use xlink:href="#DejaVuSans-63" x="187.841797"/>
      <use xlink:href="#DejaVuSans-68" x="242.822266"/>
     </g>
    </g>
   </g>
   <g id="matplotlib.axis_4">
    <g id="ytick_7">
     <g id="line2d_27">
      <g>
       <use xlink:href="#m7a871793d0" x="406.22" y="308.713316" style="stroke: #000000; stroke-width: 0.8"/>
      </g>
     </g>
     <g id="text_29">
      <!-- 0.60 -->
      <g transform="translate(376.954375 312.512534) scale(0.1 -0.1)">
       <use xlink:href="#DejaVuSans-30"/>
       <use xlink:href="#DejaVuSans-2e" x="63.623047"/>
       <use xlink:href="#DejaVuSans-36" x="95.410156"/>
       <use xlink:href="#DejaVuSans-30" x="159.033203"/>
      </g>
     </g>
    </g>
    <g id="ytick_8">
     <g id="line2d_28">
      <g>
       <use xlink:href="#m7a871793d0" x="406.22" y="269.557392" style="stroke: #000000; stroke-width: 0.8"/>
      </g>
     </g>
     <g id="text_30">
      <!-- 0.65 -->
      <g transform="translate(376.954375 273.35661) scale(0.1 -0.1)">
       <use xlink:href="#DejaVuSans-30"/>
       <use xlink:href="#DejaVuSans-2e" x="63.623047"/>
       <use xlink:href="#DejaVuSans-36" x="95.410156"/>
       <use xlink:href="#DejaVuSans-35" x="159.033203"/>
      </g>
     </g>
    </g>
    <g id="ytick_9">
     <g id="line2d_29">
      <g>
       <use xlink:href="#m7a871793d0" x="406.22" y="230.401468" style="stroke: #000000; stroke-width: 0.8"/>
      </g>
     </g>
     <g id="text_31">
      <!-- 0.70 -->
      <g transform="translate(376.954375 234.200687) scale(0.1 -0.1)">
       <use xlink:href="#DejaVuSans-30"/>
       <use xlink:href="#DejaVuSans-2e" x="63.623047"/>
       <use xlink:href="#DejaVuSans-37" x="95.410156"/>
       <use xlink:href="#DejaVuSans-30" x="159.033203"/>
      </g>
     </g>
    </g>
    <g id="ytick_10">
     <g id="line2d_30">
      <g>
       <use xlink:href="#m7a871793d0" x="406.22" y="191.245544" style="stroke: #000000; stroke-width: 0.8"/>
      </g>
     </g>
     <g id="text_32">
      <!-- 0.75 -->
      <g transform="translate(376.954375 195.044763) scale(0.1 -0.1)">
       <use xlink:href="#DejaVuSans-30"/>
       <use xlink:href="#DejaVuSans-2e" x="63.623047"/>
       <use xlink:href="#DejaVuSans-37" x="95.410156"/>
       <use xlink:href="#DejaVuSans-35" x="159.033203"/>
      </g>
     </g>
    </g>
    <g id="ytick_11">
     <g id="line2d_31">
      <g>
       <use xlink:href="#m7a871793d0" x="406.22" y="152.08962" style="stroke: #000000; stroke-width: 0.8"/>
      </g>
     </g>
     <g id="text_33">
      <!-- 0.80 -->
      <g transform="translate(376.954375 155.888839) scale(0.1 -0.1)">
       <use xlink:href="#DejaVuSans-30"/>
       <use xlink:href="#DejaVuSans-2e" x="63.623047"/>
       <use xlink:href="#DejaVuSans-38" x="95.410156"/>
       <use xlink:href="#DejaVuSans-30" x="159.033203"/>
      </g>
     </g>
    </g>
    <g id="ytick_12">
     <g id="line2d_32">
      <g>
       <use xlink:href="#m7a871793d0" x="406.22" y="112.933696" style="stroke: #000000; stroke-width: 0.8"/>
      </g>
     </g>
     <g id="text_34">
      <!-- 0.85 -->
      <g transform="translate(376.954375 116.732915) scale(0.1 -0.1)">
       <use xlink:href="#DejaVuSans-30"/>
       <use xlink:href="#DejaVuSans-2e" x="63.623047"/>
       <use xlink:href="#DejaVuSans-38" x="95.410156"/>
       <use xlink:href="#DejaVuSans-35" x="159.033203"/>
      </g>
     </g>
    </g>
    <g id="ytick_13">
     <g id="line2d_33">
      <g>
       <use xlink:href="#m7a871793d0" x="406.22" y="73.777772" style="stroke: #000000; stroke-width: 0.8"/>
      </g>
     </g>
     <g id="text_35">
      <!-- 0.90 -->
      <g transform="translate(376.954375 77.576991) scale(0.1 -0.1)">
       <defs>
        <path id="DejaVuSans-39" d="M 703 97 
L 703 672 
Q 941 559 1184 500 
Q 1428 441 1663 441 
Q 2288 441 2617 861 
Q 2947 1281 2994 2138 
Q 2813 1869 2534 1725 
Q 2256 1581 1919 1581 
Q 1219 1581 811 2004 
Q 403 2428 403 3163 
Q 403 3881 828 4315 
Q 1253 4750 1959 4750 
Q 2769 4750 3195 4129 
Q 3622 3509 3622 2328 
Q 3622 1225 3098 567 
Q 2575 -91 1691 -91 
Q 1453 -91 1209 -44 
Q 966 3 703 97 
z
M 1959 2075 
Q 2384 2075 2632 2365 
Q 2881 2656 2881 3163 
Q 2881 3666 2632 3958 
Q 2384 4250 1959 4250 
Q 1534 4250 1286 3958 
Q 1038 3666 1038 3163 
Q 1038 2656 1286 2365 
Q 1534 2075 1959 2075 
z
" transform="scale(0.015625)"/>
       </defs>
       <use xlink:href="#DejaVuSans-30"/>
       <use xlink:href="#DejaVuSans-2e" x="63.623047"/>
       <use xlink:href="#DejaVuSans-39" x="95.410156"/>
       <use xlink:href="#DejaVuSans-30" x="159.033203"/>
      </g>
     </g>
    </g>
    <g id="ytick_14">
     <g id="line2d_34">
      <g>
       <use xlink:href="#m7a871793d0" x="406.22" y="34.621849" style="stroke: #000000; stroke-width: 0.8"/>
      </g>
     </g>
     <g id="text_36">
      <!-- 0.95 -->
      <g transform="translate(376.954375 38.421067) scale(0.1 -0.1)">
       <use xlink:href="#DejaVuSans-30"/>
       <use xlink:href="#DejaVuSans-2e" x="63.623047"/>
       <use xlink:href="#DejaVuSans-39" x="95.410156"/>
       <use xlink:href="#DejaVuSans-35" x="159.033203"/>
      </g>
     </g>
    </g>
    <g id="text_37">
     <!-- Accuracy -->
     <g transform="translate(370.874687 195.288125) rotate(-90) scale(0.1 -0.1)">
      <defs>
       <path id="DejaVuSans-41" d="M 2188 4044 
L 1331 1722 
L 3047 1722 
L 2188 4044 
z
M 1831 4666 
L 2547 4666 
L 4325 0 
L 3669 0 
L 3244 1197 
L 1141 1197 
L 716 0 
L 50 0 
L 1831 4666 
z
" transform="scale(0.015625)"/>
       <path id="DejaVuSans-75" d="M 544 1381 
L 544 3500 
L 1119 3500 
L 1119 1403 
Q 1119 906 1312 657 
Q 1506 409 1894 409 
Q 2359 409 2629 706 
Q 2900 1003 2900 1516 
L 2900 3500 
L 3475 3500 
L 3475 0 
L 2900 0 
L 2900 538 
Q 2691 219 2414 64 
Q 2138 -91 1772 -91 
Q 1169 -91 856 284 
Q 544 659 544 1381 
z
M 1991 3584 
L 1991 3584 
z
" transform="scale(0.015625)"/>
       <path id="DejaVuSans-79" d="M 2059 -325 
Q 1816 -950 1584 -1140 
Q 1353 -1331 966 -1331 
L 506 -1331 
L 506 -850 
L 844 -850 
Q 1081 -850 1212 -737 
Q 1344 -625 1503 -206 
L 1606 56 
L 191 3500 
L 800 3500 
L 1894 763 
L 2988 3500 
L 3597 3500 
L 2059 -325 
z
" transform="scale(0.015625)"/>
      </defs>
      <use xlink:href="#DejaVuSans-41"/>
      <use xlink:href="#DejaVuSans-63" x="66.658203"/>
      <use xlink:href="#DejaVuSans-63" x="121.638672"/>
      <use xlink:href="#DejaVuSans-75" x="176.619141"/>
      <use xlink:href="#DejaVuSans-72" x="239.998047"/>
      <use xlink:href="#DejaVuSans-61" x="281.111328"/>
      <use xlink:href="#DejaVuSans-63" x="342.390625"/>
      <use xlink:href="#DejaVuSans-79" x="397.371094"/>
     </g>
    </g>
   </g>
   <g id="line2d_35">
    <path d="M 420.06 304.805455 
L 421.917718 273.486338 
L 423.775436 279.474643 
L 425.633154 275.791695 
L 427.490872 275.62301 
L 429.348591 270.89984 
L 431.206309 258.192264 
L 433.064027 249.420662 
L 434.921745 219.957077 
L 436.779463 194.31701 
L 438.637181 156.138052 
L 440.494899 144.639382 
L 442.352617 146.41057 
L 444.210336 141.6874 
L 446.068054 126.393325 
L 447.925772 119.842738 
L 449.78349 137.385942 
L 451.641208 130.863469 
L 453.498926 115.147682 
L 455.356644 113.910662 
L 457.214362 108.76578 
L 459.072081 121.22033 
L 460.929799 112.448728 
L 462.787517 122.373008 
L 464.645235 101.062514 
L 466.502953 94.596269 
L 468.360671 92.712624 
L 470.218389 91.166348 
L 472.076107 89.957442 
L 473.933826 90.069898 
L 475.791544 89.6763 
L 477.649262 85.402956 
L 479.50698 94.933639 
L 481.364698 83.744224 
L 483.222416 83.350626 
L 485.080134 77.390435 
L 486.937852 78.65557 
L 488.79557 81.495095 
L 490.653289 77.053066 
L 492.511007 78.318201 
L 494.368725 83.406854 
L 496.226443 79.245966 
L 498.084161 78.936711 
L 499.941879 82.338518 
L 501.799597 69.855854 
L 503.657315 75.000736 
L 505.515034 73.398232 
L 507.372752 76.631354 
L 509.23047 77.868375 
L 511.088188 71.7395 
L 512.945906 71.88007 
L 514.803624 73.735601 
L 516.661342 72.695379 
L 518.51906 69.293572 
L 520.376779 79.723906 
L 522.234497 70.024539 
L 524.092215 73.173319 
L 525.949933 74.101085 
L 527.807651 70.502479 
L 529.665369 68.590719 
L 531.523087 64.739087 
L 533.380805 67.325585 
L 535.238523 63.923778 
L 537.096242 73.9324 
L 538.95396 67.972209 
L 540.811678 65.076456 
L 542.669396 64.345489 
L 544.527114 65.863651 
L 546.384832 63.108468 
L 548.24255 63.670751 
L 550.100268 61.871448 
L 551.957987 60.3814 
L 553.815705 61.084253 
L 555.673423 61.056139 
L 557.531141 61.702763 
L 559.388859 57.935473 
L 561.246577 58.610211 
L 563.104295 56.895251 
L 564.962013 58.835124 
L 566.819732 55.236518 
L 568.67745 58.047929 
L 570.535168 59.453634 
L 572.392886 56.361083 
L 574.250604 58.160385 
L 576.108322 55.433317 
L 577.96604 55.152176 
L 579.823758 54.477437 
L 581.681477 53.999497 
L 583.539195 55.320861 
L 585.396913 54.280639 
L 589.112349 53.212302 
L 590.970067 53.296645 
L 592.827785 50.766375 
L 594.685503 53.830813 
L 596.543221 51.834711 
L 598.40094 50.59769 
L 600.258658 53.352873 
L 602.116376 51.441114 
L 603.974094 51.722255 
L 605.831812 52.340765 
L 607.68953 52.734363 
L 609.547248 53.718356 
L 611.404966 50.906946 
L 613.262685 50.035408 
L 615.120403 50.906946 
L 616.978121 50.710147 
L 618.835839 49.445012 
L 620.693557 49.107643 
L 622.551275 50.738261 
L 624.408993 51.188087 
L 626.266711 50.091636 
L 628.12443 49.669925 
L 629.982148 49.866724 
L 631.839866 48.88273 
L 633.697584 47.392682 
L 635.555302 49.922952 
L 637.41302 48.236105 
L 639.270738 49.0233 
L 641.128456 48.207991 
L 642.986174 47.870622 
L 644.843893 48.179877 
L 646.701611 47.954964 
L 648.559329 47.842508 
L 650.417047 47.30834 
L 652.274765 49.473126 
L 654.132483 48.376676 
L 655.990201 47.645709 
L 657.847919 47.055313 
L 659.705638 46.858514 
L 661.563356 47.589481 
L 663.421074 46.914742 
L 665.278792 48.095535 
L 667.13651 46.408688 
L 668.994228 48.264219 
L 670.851946 44.834298 
L 672.709664 47.280226 
L 674.567383 44.834298 
L 676.425101 44.974869 
L 678.282819 45.621493 
L 680.140537 47.645709 
L 681.998255 45.73395 
L 683.855973 47.392682 
L 685.713691 46.858514 
L 687.571409 44.243902 
L 689.429128 45.39658 
L 691.286846 46.155661 
L 693.144564 45.115439 
L 695.002282 45.986977 
L 696.86 45.677722 
L 696.86 45.677722 
" clip-path="url(#pd2bad70a91)" style="fill: none; stroke: #1f77b4; stroke-width: 1.5; stroke-linecap: square"/>
   </g>
   <g id="line2d_36">
    <path d="M 420.06 287.187705 
L 421.917718 287.187705 
L 423.775436 288.23518 
L 425.633154 287.187705 
L 427.490872 287.318639 
L 429.348591 274.094268 
L 431.206309 275.272677 
L 433.064027 289.806392 
L 434.921745 272.65399 
L 436.779463 136.482243 
L 438.637181 127.578706 
L 440.494899 134.387293 
L 442.352617 165.025936 
L 444.210336 232.064334 
L 446.068054 121.031987 
L 447.925772 138.053455 
L 449.78349 105.581731 
L 451.641208 87.250919 
L 453.498926 93.2739 
L 455.356644 102.308372 
L 457.214362 142.37429 
L 459.072081 115.270875 
L 460.929799 170.787048 
L 462.787517 65.646748 
L 464.645235 79.263923 
L 466.502953 102.701175 
L 468.360671 87.381854 
L 470.218389 63.944601 
L 472.076107 70.360385 
L 473.933826 150.361286 
L 475.791544 109.247894 
L 477.649262 107.283878 
L 479.50698 133.470752 
L 481.364698 86.07251 
L 483.222416 64.599273 
L 485.080134 63.028061 
L 486.937852 55.695736 
L 488.79557 126.138428 
L 490.653289 90.131475 
L 492.511007 95.630719 
L 494.368725 69.967582 
L 496.226443 122.472265 
L 498.084161 165.942477 
L 499.941879 57.005079 
L 501.799597 62.373389 
L 503.657315 104.665191 
L 505.515034 98.249406 
L 507.372752 163.847527 
L 509.23047 64.468339 
L 511.088188 55.302933 
L 512.945906 86.334379 
L 514.803624 91.440819 
L 516.661342 54.648261 
L 518.51906 86.203444 
L 520.376779 82.668216 
L 522.234497 52.946114 
L 524.092215 116.056481 
L 525.949933 66.563289 
L 527.807651 81.620741 
L 529.665369 110.819106 
L 531.523087 75.59776 
L 533.380805 70.360385 
L 535.238523 127.971509 
L 537.096242 76.383366 
L 538.95396 63.551798 
L 540.811678 67.479829 
L 542.669396 86.203444 
L 544.527114 69.181976 
L 546.384832 75.990563 
L 548.24255 93.404835 
L 550.100268 60.147504 
L 551.957987 89.345869 
L 553.815705 57.397883 
L 555.673423 63.289929 
L 557.531141 79.263923 
L 559.388859 62.504323 
L 561.246577 51.63677 
L 563.104295 52.029573 
L 564.962013 58.576292 
L 566.819732 68.134501 
L 568.67745 79.132988 
L 570.535168 79.525791 
L 572.392886 68.658238 
L 574.250604 56.088539 
L 576.108322 57.266948 
L 577.96604 48.232476 
L 579.823758 82.930085 
L 581.681477 59.492832 
L 583.539195 57.528817 
L 585.396913 50.196492 
L 587.254631 48.62528 
L 589.112349 56.219473 
L 590.970067 61.849651 
L 592.827785 42.078561 
L 594.685503 47.577805 
L 596.543221 69.836648 
L 598.40094 52.422376 
L 600.258658 58.183489 
L 602.116376 61.194979 
L 603.974094 52.946114 
L 605.831812 46.399395 
L 609.547248 41.554824 
L 611.404966 47.970608 
L 613.262685 52.553311 
L 615.120403 56.481342 
L 616.978121 53.600786 
L 618.835839 53.469851 
L 620.693557 49.279951 
L 622.551275 54.648261 
L 624.408993 52.160508 
L 626.266711 50.458361 
L 628.12443 45.875658 
L 629.982148 49.934623 
L 631.839866 51.767705 
L 633.697584 48.756214 
L 635.555302 50.458361 
L 637.41302 47.970608 
L 639.270738 41.947627 
L 641.128456 49.803689 
L 642.986174 50.458361 
L 644.843893 43.387905 
L 646.701611 45.613789 
L 648.559329 44.828183 
L 652.274765 41.423889 
L 654.132483 51.505836 
L 655.990201 47.839673 
L 657.847919 43.126036 
L 659.705638 50.196492 
L 661.563356 48.494345 
L 663.421074 40.114545 
L 665.278792 50.851164 
L 667.13651 43.649773 
L 668.994228 41.292955 
L 670.851946 44.959117 
L 672.709664 51.243967 
L 674.567383 49.803689 
L 676.425101 43.911642 
L 678.282819 47.708739 
L 680.140537 43.25697 
L 681.998255 47.839673 
L 683.855973 48.887148 
L 685.713691 45.220986 
L 687.571409 51.374901 
L 689.429128 44.828183 
L 691.286846 46.53033 
L 693.144564 44.566314 
L 695.002282 47.315936 
L 696.86 51.505836 
L 696.86 51.505836 
" clip-path="url(#pd2bad70a91)" style="fill: none; stroke: #ff7f0e; stroke-width: 1.5; stroke-linecap: square"/>
   </g>
   <g id="patch_9">
    <path d="M 406.22 318.04 
L 406.22 26.88 
" style="fill: none; stroke: #000000; stroke-width: 0.8; stroke-linejoin: miter; stroke-linecap: square"/>
   </g>
   <g id="patch_10">
    <path d="M 710.7 318.04 
L 710.7 26.88 
" style="fill: none; stroke: #000000; stroke-width: 0.8; stroke-linejoin: miter; stroke-linecap: square"/>
   </g>
   <g id="patch_11">
    <path d="M 406.22 318.04 
L 710.7 318.04 
" style="fill: none; stroke: #000000; stroke-width: 0.8; stroke-linejoin: miter; stroke-linecap: square"/>
   </g>
   <g id="patch_12">
    <path d="M 406.22 26.88 
L 710.7 26.88 
" style="fill: none; stroke: #000000; stroke-width: 0.8; stroke-linejoin: miter; stroke-linecap: square"/>
   </g>
   <g id="text_38">
    <!-- Accuracy vs Epoch -->
    <g transform="translate(502.2025 20.88) scale(0.12 -0.12)">
     <use xlink:href="#DejaVuSans-41"/>
     <use xlink:href="#DejaVuSans-63" x="66.658203"/>
     <use xlink:href="#DejaVuSans-63" x="121.638672"/>
     <use xlink:href="#DejaVuSans-75" x="176.619141"/>
     <use xlink:href="#DejaVuSans-72" x="239.998047"/>
     <use xlink:href="#DejaVuSans-61" x="281.111328"/>
     <use xlink:href="#DejaVuSans-63" x="342.390625"/>
     <use xlink:href="#DejaVuSans-79" x="397.371094"/>
     <use xlink:href="#DejaVuSans-20" x="456.550781"/>
     <use xlink:href="#DejaVuSans-76" x="488.337891"/>
     <use xlink:href="#DejaVuSans-73" x="547.517578"/>
     <use xlink:href="#DejaVuSans-20" x="599.617188"/>
     <use xlink:href="#DejaVuSans-45" x="631.404297"/>
     <use xlink:href="#DejaVuSans-70" x="694.587891"/>
     <use xlink:href="#DejaVuSans-6f" x="758.064453"/>
     <use xlink:href="#DejaVuSans-63" x="819.246094"/>
     <use xlink:href="#DejaVuSans-68" x="874.226562"/>
    </g>
   </g>
   <g id="legend_2">
    <g id="patch_13">
     <path d="M 573.484375 313.04 
L 703.7 313.04 
Q 705.7 313.04 705.7 311.04 
L 705.7 282.68375 
Q 705.7 280.68375 703.7 280.68375 
L 573.484375 280.68375 
Q 571.484375 280.68375 571.484375 282.68375 
L 571.484375 311.04 
Q 571.484375 313.04 573.484375 313.04 
z
" style="fill: #ffffff; opacity: 0.8; stroke: #cccccc; stroke-linejoin: miter"/>
    </g>
    <g id="line2d_37">
     <path d="M 575.484375 288.782188 
L 585.484375 288.782188 
L 595.484375 288.782188 
" style="fill: none; stroke: #1f77b4; stroke-width: 1.5; stroke-linecap: square"/>
    </g>
    <g id="text_39">
     <!-- Train Accuracy -->
     <g transform="translate(603.484375 292.282188) scale(0.1 -0.1)">
      <use xlink:href="#DejaVuSans-54"/>
      <use xlink:href="#DejaVuSans-72" x="46.333984"/>
      <use xlink:href="#DejaVuSans-61" x="87.447266"/>
      <use xlink:href="#DejaVuSans-69" x="148.726562"/>
      <use xlink:href="#DejaVuSans-6e" x="176.509766"/>
      <use xlink:href="#DejaVuSans-20" x="239.888672"/>
      <use xlink:href="#DejaVuSans-41" x="271.675781"/>
      <use xlink:href="#DejaVuSans-63" x="338.333984"/>
      <use xlink:href="#DejaVuSans-63" x="393.314453"/>
      <use xlink:href="#DejaVuSans-75" x="448.294922"/>
      <use xlink:href="#DejaVuSans-72" x="511.673828"/>
      <use xlink:href="#DejaVuSans-61" x="552.787109"/>
      <use xlink:href="#DejaVuSans-63" x="614.066406"/>
      <use xlink:href="#DejaVuSans-79" x="669.046875"/>
     </g>
    </g>
    <g id="line2d_38">
     <path d="M 575.484375 303.460313 
L 585.484375 303.460313 
L 595.484375 303.460313 
" style="fill: none; stroke: #ff7f0e; stroke-width: 1.5; stroke-linecap: square"/>
    </g>
    <g id="text_40">
     <!-- Validation Accuracy -->
     <g transform="translate(603.484375 306.960313) scale(0.1 -0.1)">
      <use xlink:href="#DejaVuSans-56"/>
      <use xlink:href="#DejaVuSans-61" x="60.658203"/>
      <use xlink:href="#DejaVuSans-6c" x="121.9375"/>
      <use xlink:href="#DejaVuSans-69" x="149.720703"/>
      <use xlink:href="#DejaVuSans-64" x="177.503906"/>
      <use xlink:href="#DejaVuSans-61" x="240.980469"/>
      <use xlink:href="#DejaVuSans-74" x="302.259766"/>
      <use xlink:href="#DejaVuSans-69" x="341.46875"/>
      <use xlink:href="#DejaVuSans-6f" x="369.251953"/>
      <use xlink:href="#DejaVuSans-6e" x="430.433594"/>
      <use xlink:href="#DejaVuSans-20" x="493.8125"/>
      <use xlink:href="#DejaVuSans-41" x="525.599609"/>
      <use xlink:href="#DejaVuSans-63" x="592.257812"/>
      <use xlink:href="#DejaVuSans-63" x="647.238281"/>
      <use xlink:href="#DejaVuSans-75" x="702.21875"/>
      <use xlink:href="#DejaVuSans-72" x="765.597656"/>
      <use xlink:href="#DejaVuSans-61" x="806.710938"/>
      <use xlink:href="#DejaVuSans-63" x="867.990234"/>
      <use xlink:href="#DejaVuSans-79" x="922.970703"/>
     </g>
    </g>
   </g>
  </g>
  <g id="axes_3">
   <g id="patch_14">
    <path d="M 764.72 318.04 
L 1069.2 318.04 
L 1069.2 26.88 
L 764.72 26.88 
z
" style="fill: #ffffff"/>
   </g>
   <g id="matplotlib.axis_5">
    <g id="xtick_17">
     <g id="line2d_39">
      <g>
       <use xlink:href="#me5ecc6e359" x="778.56" y="318.04" style="stroke: #000000; stroke-width: 0.8"/>
      </g>
     </g>
     <g id="text_41">
      <!-- 0 -->
      <g transform="translate(775.37875 332.638438) scale(0.1 -0.1)">
       <use xlink:href="#DejaVuSans-30"/>
      </g>
     </g>
    </g>
    <g id="xtick_18">
     <g id="line2d_40">
      <g>
       <use xlink:href="#me5ecc6e359" x="815.714362" y="318.04" style="stroke: #000000; stroke-width: 0.8"/>
      </g>
     </g>
     <g id="text_42">
      <!-- 20 -->
      <g transform="translate(809.351862 332.638438) scale(0.1 -0.1)">
       <use xlink:href="#DejaVuSans-32"/>
       <use xlink:href="#DejaVuSans-30" x="63.623047"/>
      </g>
     </g>
    </g>
    <g id="xtick_19">
     <g id="line2d_41">
      <g>
       <use xlink:href="#me5ecc6e359" x="852.868725" y="318.04" style="stroke: #000000; stroke-width: 0.8"/>
      </g>
     </g>
     <g id="text_43">
      <!-- 40 -->
      <g transform="translate(846.506225 332.638438) scale(0.1 -0.1)">
       <use xlink:href="#DejaVuSans-34"/>
       <use xlink:href="#DejaVuSans-30" x="63.623047"/>
      </g>
     </g>
    </g>
    <g id="xtick_20">
     <g id="line2d_42">
      <g>
       <use xlink:href="#me5ecc6e359" x="890.023087" y="318.04" style="stroke: #000000; stroke-width: 0.8"/>
      </g>
     </g>
     <g id="text_44">
      <!-- 60 -->
      <g transform="translate(883.660587 332.638438) scale(0.1 -0.1)">
       <use xlink:href="#DejaVuSans-36"/>
       <use xlink:href="#DejaVuSans-30" x="63.623047"/>
      </g>
     </g>
    </g>
    <g id="xtick_21">
     <g id="line2d_43">
      <g>
       <use xlink:href="#me5ecc6e359" x="927.17745" y="318.04" style="stroke: #000000; stroke-width: 0.8"/>
      </g>
     </g>
     <g id="text_45">
      <!-- 80 -->
      <g transform="translate(920.81495 332.638438) scale(0.1 -0.1)">
       <use xlink:href="#DejaVuSans-38"/>
       <use xlink:href="#DejaVuSans-30" x="63.623047"/>
      </g>
     </g>
    </g>
    <g id="xtick_22">
     <g id="line2d_44">
      <g>
       <use xlink:href="#me5ecc6e359" x="964.331812" y="318.04" style="stroke: #000000; stroke-width: 0.8"/>
      </g>
     </g>
     <g id="text_46">
      <!-- 100 -->
      <g transform="translate(954.788062 332.638438) scale(0.1 -0.1)">
       <use xlink:href="#DejaVuSans-31"/>
       <use xlink:href="#DejaVuSans-30" x="63.623047"/>
       <use xlink:href="#DejaVuSans-30" x="127.246094"/>
      </g>
     </g>
    </g>
    <g id="xtick_23">
     <g id="line2d_45">
      <g>
       <use xlink:href="#me5ecc6e359" x="1001.486174" y="318.04" style="stroke: #000000; stroke-width: 0.8"/>
      </g>
     </g>
     <g id="text_47">
      <!-- 120 -->
      <g transform="translate(991.942424 332.638438) scale(0.1 -0.1)">
       <use xlink:href="#DejaVuSans-31"/>
       <use xlink:href="#DejaVuSans-32" x="63.623047"/>
       <use xlink:href="#DejaVuSans-30" x="127.246094"/>
      </g>
     </g>
    </g>
    <g id="xtick_24">
     <g id="line2d_46">
      <g>
       <use xlink:href="#me5ecc6e359" x="1038.640537" y="318.04" style="stroke: #000000; stroke-width: 0.8"/>
      </g>
     </g>
     <g id="text_48">
      <!-- 140 -->
      <g transform="translate(1029.096787 332.638438) scale(0.1 -0.1)">
       <use xlink:href="#DejaVuSans-31"/>
       <use xlink:href="#DejaVuSans-34" x="63.623047"/>
       <use xlink:href="#DejaVuSans-30" x="127.246094"/>
      </g>
     </g>
    </g>
    <g id="text_49">
     <!-- Epoch -->
     <g transform="translate(901.649062 346.316563) scale(0.1 -0.1)">
      <use xlink:href="#DejaVuSans-45"/>
      <use xlink:href="#DejaVuSans-70" x="63.183594"/>
      <use xlink:href="#DejaVuSans-6f" x="126.660156"/>
      <use xlink:href="#DejaVuSans-63" x="187.841797"/>
      <use xlink:href="#DejaVuSans-68" x="242.822266"/>
     </g>
    </g>
   </g>
   <g id="matplotlib.axis_6">
    <g id="ytick_15">
     <g id="line2d_47">
      <g>
       <use xlink:href="#m7a871793d0" x="764.72" y="312.981115" style="stroke: #000000; stroke-width: 0.8"/>
      </g>
     </g>
     <g id="text_50">
      <!-- 0.70 -->
      <g transform="translate(735.454375 316.780334) scale(0.1 -0.1)">
       <use xlink:href="#DejaVuSans-30"/>
       <use xlink:href="#DejaVuSans-2e" x="63.623047"/>
       <use xlink:href="#DejaVuSans-37" x="95.410156"/>
       <use xlink:href="#DejaVuSans-30" x="159.033203"/>
      </g>
     </g>
    </g>
    <g id="ytick_16">
     <g id="line2d_48">
      <g>
       <use xlink:href="#m7a871793d0" x="764.72" y="259.360578" style="stroke: #000000; stroke-width: 0.8"/>
      </g>
     </g>
     <g id="text_51">
      <!-- 0.75 -->
      <g transform="translate(735.454375 263.159797) scale(0.1 -0.1)">
       <use xlink:href="#DejaVuSans-30"/>
       <use xlink:href="#DejaVuSans-2e" x="63.623047"/>
       <use xlink:href="#DejaVuSans-37" x="95.410156"/>
       <use xlink:href="#DejaVuSans-35" x="159.033203"/>
      </g>
     </g>
    </g>
    <g id="ytick_17">
     <g id="line2d_49">
      <g>
       <use xlink:href="#m7a871793d0" x="764.72" y="205.74004" style="stroke: #000000; stroke-width: 0.8"/>
      </g>
     </g>
     <g id="text_52">
      <!-- 0.80 -->
      <g transform="translate(735.454375 209.539259) scale(0.1 -0.1)">
       <use xlink:href="#DejaVuSans-30"/>
       <use xlink:href="#DejaVuSans-2e" x="63.623047"/>
       <use xlink:href="#DejaVuSans-38" x="95.410156"/>
       <use xlink:href="#DejaVuSans-30" x="159.033203"/>
      </g>
     </g>
    </g>
    <g id="ytick_18">
     <g id="line2d_50">
      <g>
       <use xlink:href="#m7a871793d0" x="764.72" y="152.119503" style="stroke: #000000; stroke-width: 0.8"/>
      </g>
     </g>
     <g id="text_53">
      <!-- 0.85 -->
      <g transform="translate(735.454375 155.918721) scale(0.1 -0.1)">
       <use xlink:href="#DejaVuSans-30"/>
       <use xlink:href="#DejaVuSans-2e" x="63.623047"/>
       <use xlink:href="#DejaVuSans-38" x="95.410156"/>
       <use xlink:href="#DejaVuSans-35" x="159.033203"/>
      </g>
     </g>
    </g>
    <g id="ytick_19">
     <g id="line2d_51">
      <g>
       <use xlink:href="#m7a871793d0" x="764.72" y="98.498965" style="stroke: #000000; stroke-width: 0.8"/>
      </g>
     </g>
     <g id="text_54">
      <!-- 0.90 -->
      <g transform="translate(735.454375 102.298184) scale(0.1 -0.1)">
       <use xlink:href="#DejaVuSans-30"/>
       <use xlink:href="#DejaVuSans-2e" x="63.623047"/>
       <use xlink:href="#DejaVuSans-39" x="95.410156"/>
       <use xlink:href="#DejaVuSans-30" x="159.033203"/>
      </g>
     </g>
    </g>
    <g id="ytick_20">
     <g id="line2d_52">
      <g>
       <use xlink:href="#m7a871793d0" x="764.72" y="44.878428" style="stroke: #000000; stroke-width: 0.8"/>
      </g>
     </g>
     <g id="text_55">
      <!-- 0.95 -->
      <g transform="translate(735.454375 48.677646) scale(0.1 -0.1)">
       <use xlink:href="#DejaVuSans-30"/>
       <use xlink:href="#DejaVuSans-2e" x="63.623047"/>
       <use xlink:href="#DejaVuSans-39" x="95.410156"/>
       <use xlink:href="#DejaVuSans-35" x="159.033203"/>
      </g>
     </g>
    </g>
    <g id="text_56">
     <!-- F1-Score -->
     <g transform="translate(729.374688 194.323281) rotate(-90) scale(0.1 -0.1)">
      <defs>
       <path id="DejaVuSans-46" d="M 628 4666 
L 3309 4666 
L 3309 4134 
L 1259 4134 
L 1259 2759 
L 3109 2759 
L 3109 2228 
L 1259 2228 
L 1259 0 
L 628 0 
L 628 4666 
z
" transform="scale(0.015625)"/>
       <path id="DejaVuSans-2d" d="M 313 2009 
L 1997 2009 
L 1997 1497 
L 313 1497 
L 313 2009 
z
" transform="scale(0.015625)"/>
       <path id="DejaVuSans-53" d="M 3425 4513 
L 3425 3897 
Q 3066 4069 2747 4153 
Q 2428 4238 2131 4238 
Q 1616 4238 1336 4038 
Q 1056 3838 1056 3469 
Q 1056 3159 1242 3001 
Q 1428 2844 1947 2747 
L 2328 2669 
Q 3034 2534 3370 2195 
Q 3706 1856 3706 1288 
Q 3706 609 3251 259 
Q 2797 -91 1919 -91 
Q 1588 -91 1214 -16 
Q 841 59 441 206 
L 441 856 
Q 825 641 1194 531 
Q 1563 422 1919 422 
Q 2459 422 2753 634 
Q 3047 847 3047 1241 
Q 3047 1584 2836 1778 
Q 2625 1972 2144 2069 
L 1759 2144 
Q 1053 2284 737 2584 
Q 422 2884 422 3419 
Q 422 4038 858 4394 
Q 1294 4750 2059 4750 
Q 2388 4750 2728 4690 
Q 3069 4631 3425 4513 
z
" transform="scale(0.015625)"/>
       <path id="DejaVuSans-65" d="M 3597 1894 
L 3597 1613 
L 953 1613 
Q 991 1019 1311 708 
Q 1631 397 2203 397 
Q 2534 397 2845 478 
Q 3156 559 3463 722 
L 3463 178 
Q 3153 47 2828 -22 
Q 2503 -91 2169 -91 
Q 1331 -91 842 396 
Q 353 884 353 1716 
Q 353 2575 817 3079 
Q 1281 3584 2069 3584 
Q 2775 3584 3186 3129 
Q 3597 2675 3597 1894 
z
M 3022 2063 
Q 3016 2534 2758 2815 
Q 2500 3097 2075 3097 
Q 1594 3097 1305 2825 
Q 1016 2553 972 2059 
L 3022 2063 
z
" transform="scale(0.015625)"/>
      </defs>
      <use xlink:href="#DejaVuSans-46"/>
      <use xlink:href="#DejaVuSans-31" x="57.519531"/>
      <use xlink:href="#DejaVuSans-2d" x="121.142578"/>
      <use xlink:href="#DejaVuSans-53" x="157.226562"/>
      <use xlink:href="#DejaVuSans-63" x="220.703125"/>
      <use xlink:href="#DejaVuSans-6f" x="275.683594"/>
      <use xlink:href="#DejaVuSans-72" x="336.865234"/>
      <use xlink:href="#DejaVuSans-65" x="375.728516"/>
     </g>
    </g>
   </g>
   <g id="line2d_53">
    <path d="M 778.56 304.805455 
L 780.417718 223.017105 
L 782.275436 230.38674 
L 784.133154 226.263881 
L 785.990872 227.806867 
L 787.848591 229.730962 
L 789.706309 225.842251 
L 791.564027 224.00305 
L 795.279463 186.625855 
L 797.137181 153.015325 
L 798.994899 141.848359 
L 800.852617 144.377942 
L 802.710336 141.820944 
L 804.568054 126.043653 
L 806.425772 117.490999 
L 808.28349 132.257251 
L 810.141208 126.453172 
L 811.998926 113.066171 
L 813.856644 111.262844 
L 815.714362 106.752688 
L 817.572081 116.933 
L 819.429799 108.646708 
L 821.287517 117.598378 
L 823.145235 100.588946 
L 825.002953 94.488038 
L 826.860671 92.319565 
L 828.718389 90.348178 
L 830.576107 88.718143 
L 832.433826 88.618262 
L 834.291544 87.70837 
L 836.149262 83.239604 
L 838.00698 92.533494 
L 839.864698 82.737644 
L 841.722416 81.96998 
L 843.580134 76.273531 
L 845.437852 77.061189 
L 847.29557 80.605987 
L 849.153289 74.984982 
L 851.011007 75.857683 
L 852.868725 80.634977 
L 854.726443 76.917374 
L 856.584161 76.480114 
L 858.441879 80.40427 
L 860.299597 68.312114 
L 862.157315 72.929358 
L 864.015034 71.51498 
L 865.872752 74.743122 
L 867.73047 76.823043 
L 869.588188 70.415838 
L 871.445906 70.715213 
L 873.303624 72.511742 
L 875.161342 71.600223 
L 877.01906 68.117896 
L 878.876779 80.030574 
L 880.734497 69.865776 
L 882.592215 72.223291 
L 884.449933 73.116168 
L 886.307651 69.725535 
L 888.165369 66.942068 
L 890.023087 62.829398 
L 891.880805 65.586267 
L 893.738523 62.362592 
L 895.596242 72.838157 
L 897.45396 67.455574 
L 899.311678 63.471353 
L 901.169396 62.639284 
L 903.027114 64.555098 
L 904.884832 61.448866 
L 906.74255 62.19056 
L 908.600268 60.545985 
L 910.457987 58.697943 
L 912.315705 59.211593 
L 914.173423 59.291453 
L 916.031141 59.777707 
L 917.888859 56.006998 
L 919.746577 56.642399 
L 921.604295 54.878685 
L 923.462013 56.570342 
L 925.319732 53.135577 
L 927.17745 55.884733 
L 929.035168 57.150846 
L 930.892886 54.241667 
L 932.750604 55.993854 
L 934.608322 53.246783 
L 936.46604 53.073426 
L 938.323758 52.328189 
L 940.181477 51.868107 
L 942.039195 53.056848 
L 943.896913 52.146 
L 947.612349 50.910484 
L 949.470067 50.934582 
L 951.327785 48.552942 
L 953.185503 51.792033 
L 955.043221 49.599595 
L 956.90094 48.204937 
L 958.758658 51.249026 
L 960.616376 49.173365 
L 962.474094 49.448467 
L 964.331812 50.088244 
L 966.18953 50.514657 
L 968.047248 51.813705 
L 969.904966 48.672073 
L 971.762685 47.767983 
L 973.620403 48.609791 
L 975.478121 48.500905 
L 977.335839 47.194555 
L 979.193557 46.884241 
L 981.051275 48.469426 
L 982.908993 48.982025 
L 984.766711 47.955506 
L 986.62443 47.302776 
L 988.482148 47.682144 
L 990.339866 46.5248 
L 992.197584 45.110223 
L 994.055302 47.752753 
L 995.91302 46.020656 
L 997.770738 46.949695 
L 999.628456 45.939412 
L 1001.486174 45.657652 
L 1003.343893 45.893929 
L 1005.201611 45.646037 
L 1007.059329 45.564917 
L 1008.917047 45.035912 
L 1010.774765 47.283047 
L 1012.632483 46.153093 
L 1014.490201 45.321187 
L 1016.347919 44.754525 
L 1018.205638 44.560594 
L 1020.063356 45.239469 
L 1021.921074 44.601507 
L 1023.778792 45.819855 
L 1025.63651 44.016586 
L 1027.494228 46.087123 
L 1029.351946 42.555991 
L 1031.209664 44.938137 
L 1033.067383 42.519684 
L 1034.925101 42.599959 
L 1036.782819 43.25215 
L 1038.640537 45.400601 
L 1040.498255 43.323449 
L 1042.355973 45.048799 
L 1044.213691 44.572191 
L 1046.071409 41.874954 
L 1047.929128 43.083781 
L 1049.786846 43.798761 
L 1051.644564 42.730342 
L 1053.502282 43.57274 
L 1055.36 43.352913 
L 1055.36 43.352913 
" clip-path="url(#pddc6a6c6f1)" style="fill: none; stroke: #1f77b4; stroke-width: 1.5; stroke-linecap: square"/>
   </g>
   <g id="line2d_54">
    <path d="M 778.56 236.720306 
L 780.417718 236.720306 
L 782.275436 238.210561 
L 784.133154 236.720306 
L 785.990872 236.855708 
L 787.848591 236.327701 
L 789.706309 234.104322 
L 791.564027 239.6894 
L 793.421745 233.474209 
L 795.279463 138.746893 
L 797.137181 128.592888 
L 798.994899 151.537902 
L 800.852617 203.575872 
L 802.710336 200.596361 
L 804.568054 121.226538 
L 806.425772 147.61822 
L 808.28349 111.366752 
L 810.141208 96.916349 
L 811.998926 93.164878 
L 813.856644 101.414886 
L 815.714362 136.753037 
L 817.572081 126.846647 
L 819.429799 158.288016 
L 821.287517 67.634739 
L 823.145235 82.38148 
L 825.002953 108.069222 
L 826.860671 100.713015 
L 828.718389 66.010765 
L 830.576107 77.557686 
L 832.433826 138.725276 
L 834.291544 105.646615 
L 836.149262 103.163899 
L 838.00698 125.277446 
L 839.864698 83.882483 
L 841.722416 67.858658 
L 843.580134 67.33212 
L 845.437852 56.735584 
L 847.29557 119.310765 
L 849.153289 87.300622 
L 851.011007 92.428716 
L 852.868725 69.57925 
L 854.726443 116.2565 
L 856.584161 150.723262 
L 858.441879 58.696083 
L 860.299597 63.183588 
L 862.157315 99.826786 
L 864.015034 95.407641 
L 865.872752 149.051966 
L 867.73047 64.990501 
L 869.588188 57.352524 
L 871.445906 85.874348 
L 873.303624 88.749776 
L 875.161342 55.341663 
L 877.01906 84.027913 
L 878.876779 81.052403 
L 880.734497 53.424577 
L 882.592215 110.616235 
L 884.449933 67.189438 
L 886.307651 79.973791 
L 888.165369 105.681273 
L 890.023087 74.398931 
L 891.880805 69.700211 
L 893.738523 120.951924 
L 895.596242 75.044217 
L 897.45396 63.869035 
L 899.311678 67.443102 
L 901.169396 84.027913 
L 903.027114 68.535153 
L 904.884832 74.795903 
L 906.74255 91.004625 
L 908.600268 60.023585 
L 910.457987 86.954033 
L 912.315705 57.521807 
L 914.173423 62.660045 
L 916.031141 78.379352 
L 917.888859 62.455284 
L 919.746577 52.104896 
L 921.604295 53.193912 
L 923.462013 58.492799 
L 925.319732 67.087673 
L 927.17745 77.705533 
L 929.035168 78.100436 
L 930.892886 68.619822 
L 932.750604 55.884491 
L 934.608322 56.436602 
L 936.46604 48.326625 
L 938.323758 81.208968 
L 940.181477 59.531404 
L 942.039195 57.566616 
L 943.896913 49.947036 
L 945.754631 48.33691 
L 947.612349 56.252481 
L 949.470067 61.260755 
L 951.327785 42.379774 
L 953.185503 48.319318 
L 955.043221 68.97278 
L 956.90094 52.550582 
L 958.758658 58.170063 
L 960.616376 61.685702 
L 962.474094 52.710484 
L 964.331812 47.066289 
L 966.18953 44.121196 
L 968.047248 42.408105 
L 969.904966 48.163634 
L 971.762685 52.764216 
L 973.620403 56.600909 
L 975.478121 53.679281 
L 977.335839 53.661405 
L 979.193557 49.413427 
L 981.051275 54.870706 
L 982.908993 52.397305 
L 984.766711 50.305152 
L 986.62443 46.879356 
L 988.482148 50.237646 
L 990.339866 52.093856 
L 992.197584 48.469998 
L 994.055302 50.9468 
L 995.91302 47.893832 
L 997.770738 42.379928 
L 999.628456 49.442027 
L 1001.486174 50.012458 
L 1003.343893 43.605494 
L 1005.201611 45.913022 
L 1007.059329 44.602507 
L 1008.917047 44.008905 
L 1010.774765 41.858263 
L 1012.632483 51.288207 
L 1014.490201 48.210134 
L 1016.347919 43.500598 
L 1018.205638 50.162975 
L 1020.063356 48.899078 
L 1021.921074 40.114545 
L 1023.778792 51.064053 
L 1025.63651 44.344675 
L 1027.494228 41.870587 
L 1029.351946 45.07776 
L 1031.209664 51.007691 
L 1033.067383 49.625164 
L 1034.925101 44.107115 
L 1036.782819 47.864834 
L 1038.640537 43.735424 
L 1040.498255 47.9992 
L 1042.355973 49.027046 
L 1044.213691 45.578882 
L 1046.071409 51.312892 
L 1047.929128 45.301314 
L 1049.786846 46.786328 
L 1051.644564 44.714494 
L 1053.502282 47.254021 
L 1055.36 51.619779 
L 1055.36 51.619779 
" clip-path="url(#pddc6a6c6f1)" style="fill: none; stroke: #ff7f0e; stroke-width: 1.5; stroke-linecap: square"/>
   </g>
   <g id="patch_15">
    <path d="M 764.72 318.04 
L 764.72 26.88 
" style="fill: none; stroke: #000000; stroke-width: 0.8; stroke-linejoin: miter; stroke-linecap: square"/>
   </g>
   <g id="patch_16">
    <path d="M 1069.2 318.04 
L 1069.2 26.88 
" style="fill: none; stroke: #000000; stroke-width: 0.8; stroke-linejoin: miter; stroke-linecap: square"/>
   </g>
   <g id="patch_17">
    <path d="M 764.72 318.04 
L 1069.2 318.04 
" style="fill: none; stroke: #000000; stroke-width: 0.8; stroke-linejoin: miter; stroke-linecap: square"/>
   </g>
   <g id="patch_18">
    <path d="M 764.72 26.88 
L 1069.2 26.88 
" style="fill: none; stroke: #000000; stroke-width: 0.8; stroke-linejoin: miter; stroke-linecap: square"/>
   </g>
   <g id="text_57">
    <!-- F1-Score vs Epoch -->
    <g transform="translate(861.860312 20.88) scale(0.12 -0.12)">
     <use xlink:href="#DejaVuSans-46"/>
     <use xlink:href="#DejaVuSans-31" x="57.519531"/>
     <use xlink:href="#DejaVuSans-2d" x="121.142578"/>
     <use xlink:href="#DejaVuSans-53" x="157.226562"/>
     <use xlink:href="#DejaVuSans-63" x="220.703125"/>
     <use xlink:href="#DejaVuSans-6f" x="275.683594"/>
     <use xlink:href="#DejaVuSans-72" x="336.865234"/>
     <use xlink:href="#DejaVuSans-65" x="375.728516"/>
     <use xlink:href="#DejaVuSans-20" x="437.251953"/>
     <use xlink:href="#DejaVuSans-76" x="469.039062"/>
     <use xlink:href="#DejaVuSans-73" x="528.21875"/>
     <use xlink:href="#DejaVuSans-20" x="580.318359"/>
     <use xlink:href="#DejaVuSans-45" x="612.105469"/>
     <use xlink:href="#DejaVuSans-70" x="675.289062"/>
     <use xlink:href="#DejaVuSans-6f" x="738.765625"/>
     <use xlink:href="#DejaVuSans-63" x="799.947266"/>
     <use xlink:href="#DejaVuSans-68" x="854.927734"/>
    </g>
   </g>
   <g id="legend_3">
    <g id="patch_19">
     <path d="M 965.526562 313.04 
L 1062.2 313.04 
Q 1064.2 313.04 1064.2 311.04 
L 1064.2 282.68375 
Q 1064.2 280.68375 1062.2 280.68375 
L 965.526562 280.68375 
Q 963.526562 280.68375 963.526562 282.68375 
L 963.526562 311.04 
Q 963.526562 313.04 965.526562 313.04 
z
" style="fill: #ffffff; opacity: 0.8; stroke: #cccccc; stroke-linejoin: miter"/>
    </g>
    <g id="line2d_55">
     <path d="M 967.526562 288.782188 
L 977.526562 288.782188 
L 987.526562 288.782188 
" style="fill: none; stroke: #1f77b4; stroke-width: 1.5; stroke-linecap: square"/>
    </g>
    <g id="text_58">
     <!-- Train F1 -->
     <g transform="translate(995.526562 292.282188) scale(0.1 -0.1)">
      <use xlink:href="#DejaVuSans-54"/>
      <use xlink:href="#DejaVuSans-72" x="46.333984"/>
      <use xlink:href="#DejaVuSans-61" x="87.447266"/>
      <use xlink:href="#DejaVuSans-69" x="148.726562"/>
      <use xlink:href="#DejaVuSans-6e" x="176.509766"/>
      <use xlink:href="#DejaVuSans-20" x="239.888672"/>
      <use xlink:href="#DejaVuSans-46" x="271.675781"/>
      <use xlink:href="#DejaVuSans-31" x="329.195312"/>
     </g>
    </g>
    <g id="line2d_56">
     <path d="M 967.526562 303.460313 
L 977.526562 303.460313 
L 987.526562 303.460313 
" style="fill: none; stroke: #ff7f0e; stroke-width: 1.5; stroke-linecap: square"/>
    </g>
    <g id="text_59">
     <!-- Validation F1 -->
     <g transform="translate(995.526562 306.960313) scale(0.1 -0.1)">
      <use xlink:href="#DejaVuSans-56"/>
      <use xlink:href="#DejaVuSans-61" x="60.658203"/>
      <use xlink:href="#DejaVuSans-6c" x="121.9375"/>
      <use xlink:href="#DejaVuSans-69" x="149.720703"/>
      <use xlink:href="#DejaVuSans-64" x="177.503906"/>
      <use xlink:href="#DejaVuSans-61" x="240.980469"/>
      <use xlink:href="#DejaVuSans-74" x="302.259766"/>
      <use xlink:href="#DejaVuSans-69" x="341.46875"/>
      <use xlink:href="#DejaVuSans-6f" x="369.251953"/>
      <use xlink:href="#DejaVuSans-6e" x="430.433594"/>
      <use xlink:href="#DejaVuSans-20" x="493.8125"/>
      <use xlink:href="#DejaVuSans-46" x="525.599609"/>
      <use xlink:href="#DejaVuSans-31" x="583.119141"/>
     </g>
    </g>
   </g>
  </g>
 </g>
 <defs>
  <clipPath id="p3e741e9279">
   <rect x="47.72" y="26.88" width="304.48" height="291.16"/>
  </clipPath>
  <clipPath id="pd2bad70a91">
   <rect x="406.22" y="26.88" width="304.48" height="291.16"/>
  </clipPath>
  <clipPath id="pddc6a6c6f1">
   <rect x="764.72" y="26.88" width="304.48" height="291.16"/>
  </clipPath>
 </defs>
</svg>
