<?xml version="1.0" encoding="utf-8" standalone="no"?>
<!DOCTYPE svg PUBLIC "-//W3C//DTD SVG 1.1//EN"
  "http://www.w3.org/Graphics/SVG/1.1/DTD/svg11.dtd">
<svg xmlns:xlink="http://www.w3.org/1999/xlink" width="1080pt" height="360pt" viewBox="0 0 1080 360" xmlns="http://www.w3.org/2000/svg" version="1.1">
 <metadata>
  <rdf:RDF xmlns:dc="http://purl.org/dc/elements/1.1/" xmlns:cc="http://creativecommons.org/ns#" xmlns:rdf="http://www.w3.org/1999/02/22-rdf-syntax-ns#">
   <cc:Work>
    <dc:type rdf:resource="http://purl.org/dc/dcmitype/StillImage"/>
    <dc:date>2024-10-24T15:29:30.528644</dc:date>
    <dc:format>image/svg+xml</dc:format>
    <dc:creator>
     <cc:Agent>
      <dc:title>Matplotlib v3.8.2, https://matplotlib.org/</dc:title>
     </cc:Agent>
    </dc:creator>
   </cc:Work>
  </rdf:RDF>
 </metadata>
 <defs>
  <style type="text/css">*{stroke-linejoin: round; stroke-linecap: butt}</style>
 </defs>
 <g id="figure_1">
  <g id="patch_1">
   <path d="M 0 360 
L 1080 360 
L 1080 0 
L 0 0 
z
" style="fill: #ffffff"/>
  </g>
  <g id="axes_1">
   <g id="patch_2">
    <path d="M 47.72 318.04 
L 348.37664 318.04 
L 348.37664 26.88 
L 47.72 26.88 
z
" style="fill: #ffffff"/>
   </g>
   <g id="matplotlib.axis_1">
    <g id="xtick_1">
     <g id="line2d_1">
      <defs>
       <path id="m3126774cd3" d="M 0 0 
L 0 3.5 
" style="stroke: #000000; stroke-width: 0.8"/>
      </defs>
      <g>
       <use xlink:href="#m3126774cd3" x="61.386211" y="318.04" style="stroke: #000000; stroke-width: 0.8"/>
      </g>
     </g>
     <g id="text_1">
      <!-- 0 -->
      <g transform="translate(58.204961 332.638438) scale(0.1 -0.1)">
       <defs>
        <path id="DejaVuSans-30" d="M 2034 4250 
Q 1547 4250 1301 3770 
Q 1056 3291 1056 2328 
Q 1056 1369 1301 889 
Q 1547 409 2034 409 
Q 2525 409 2770 889 
Q 3016 1369 3016 2328 
Q 3016 3291 2770 3770 
Q 2525 4250 2034 4250 
z
M 2034 4750 
Q 2819 4750 3233 4129 
Q 3647 3509 3647 2328 
Q 3647 1150 3233 529 
Q 2819 -91 2034 -91 
Q 1250 -91 836 529 
Q 422 1150 422 2328 
Q 422 3509 836 4129 
Q 1250 4750 2034 4750 
z
" transform="scale(0.015625)"/>
       </defs>
       <use xlink:href="#DejaVuSans-30"/>
      </g>
     </g>
    </g>
    <g id="xtick_2">
     <g id="line2d_2">
      <g>
       <use xlink:href="#m3126774cd3" x="117.395272" y="318.04" style="stroke: #000000; stroke-width: 0.8"/>
      </g>
     </g>
     <g id="text_2">
      <!-- 50 -->
      <g transform="translate(111.032772 332.638438) scale(0.1 -0.1)">
       <defs>
        <path id="DejaVuSans-35" d="M 691 4666 
L 3169 4666 
L 3169 4134 
L 1269 4134 
L 1269 2991 
Q 1406 3038 1543 3061 
Q 1681 3084 1819 3084 
Q 2600 3084 3056 2656 
Q 3513 2228 3513 1497 
Q 3513 744 3044 326 
Q 2575 -91 1722 -91 
Q 1428 -91 1123 -41 
Q 819 9 494 109 
L 494 744 
Q 775 591 1075 516 
Q 1375 441 1709 441 
Q 2250 441 2565 725 
Q 2881 1009 2881 1497 
Q 2881 1984 2565 2268 
Q 2250 2553 1709 2553 
Q 1456 2553 1204 2497 
Q 953 2441 691 2322 
L 691 4666 
z
" transform="scale(0.015625)"/>
       </defs>
       <use xlink:href="#DejaVuSans-35"/>
       <use xlink:href="#DejaVuSans-30" x="63.623047"/>
      </g>
     </g>
    </g>
    <g id="xtick_3">
     <g id="line2d_3">
      <g>
       <use xlink:href="#m3126774cd3" x="173.404333" y="318.04" style="stroke: #000000; stroke-width: 0.8"/>
      </g>
     </g>
     <g id="text_3">
      <!-- 100 -->
      <g transform="translate(163.860583 332.638438) scale(0.1 -0.1)">
       <defs>
        <path id="DejaVuSans-31" d="M 794 531 
L 1825 531 
L 1825 4091 
L 703 3866 
L 703 4441 
L 1819 4666 
L 2450 4666 
L 2450 531 
L 3481 531 
L 3481 0 
L 794 0 
L 794 531 
z
" transform="scale(0.015625)"/>
       </defs>
       <use xlink:href="#DejaVuSans-31"/>
       <use xlink:href="#DejaVuSans-30" x="63.623047"/>
       <use xlink:href="#DejaVuSans-30" x="127.246094"/>
      </g>
     </g>
    </g>
    <g id="xtick_4">
     <g id="line2d_4">
      <g>
       <use xlink:href="#m3126774cd3" x="229.413394" y="318.04" style="stroke: #000000; stroke-width: 0.8"/>
      </g>
     </g>
     <g id="text_4">
      <!-- 150 -->
      <g transform="translate(219.869644 332.638438) scale(0.1 -0.1)">
       <use xlink:href="#DejaVuSans-31"/>
       <use xlink:href="#DejaVuSans-35" x="63.623047"/>
       <use xlink:href="#DejaVuSans-30" x="127.246094"/>
      </g>
     </g>
    </g>
    <g id="xtick_5">
     <g id="line2d_5">
      <g>
       <use xlink:href="#m3126774cd3" x="285.422455" y="318.04" style="stroke: #000000; stroke-width: 0.8"/>
      </g>
     </g>
     <g id="text_5">
      <!-- 200 -->
      <g transform="translate(275.878705 332.638438) scale(0.1 -0.1)">
       <defs>
        <path id="DejaVuSans-32" d="M 1228 531 
L 3431 531 
L 3431 0 
L 469 0 
L 469 531 
Q 828 903 1448 1529 
Q 2069 2156 2228 2338 
Q 2531 2678 2651 2914 
Q 2772 3150 2772 3378 
Q 2772 3750 2511 3984 
Q 2250 4219 1831 4219 
Q 1534 4219 1204 4116 
Q 875 4013 500 3803 
L 500 4441 
Q 881 4594 1212 4672 
Q 1544 4750 1819 4750 
Q 2544 4750 2975 4387 
Q 3406 4025 3406 3419 
Q 3406 3131 3298 2873 
Q 3191 2616 2906 2266 
Q 2828 2175 2409 1742 
Q 1991 1309 1228 531 
z
" transform="scale(0.015625)"/>
       </defs>
       <use xlink:href="#DejaVuSans-32"/>
       <use xlink:href="#DejaVuSans-30" x="63.623047"/>
       <use xlink:href="#DejaVuSans-30" x="127.246094"/>
      </g>
     </g>
    </g>
    <g id="xtick_6">
     <g id="line2d_6">
      <g>
       <use xlink:href="#m3126774cd3" x="341.431516" y="318.04" style="stroke: #000000; stroke-width: 0.8"/>
      </g>
     </g>
     <g id="text_6">
      <!-- 250 -->
      <g transform="translate(331.887766 332.638438) scale(0.1 -0.1)">
       <use xlink:href="#DejaVuSans-32"/>
       <use xlink:href="#DejaVuSans-35" x="63.623047"/>
       <use xlink:href="#DejaVuSans-30" x="127.246094"/>
      </g>
     </g>
    </g>
    <g id="text_7">
     <!-- Epoch -->
     <g transform="translate(182.737382 346.316563) scale(0.1 -0.1)">
      <defs>
       <path id="DejaVuSans-45" d="M 628 4666 
L 3578 4666 
L 3578 4134 
L 1259 4134 
L 1259 2753 
L 3481 2753 
L 3481 2222 
L 1259 2222 
L 1259 531 
L 3634 531 
L 3634 0 
L 628 0 
L 628 4666 
z
" transform="scale(0.015625)"/>
       <path id="DejaVuSans-70" d="M 1159 525 
L 1159 -1331 
L 581 -1331 
L 581 3500 
L 1159 3500 
L 1159 2969 
Q 1341 3281 1617 3432 
Q 1894 3584 2278 3584 
Q 2916 3584 3314 3078 
Q 3713 2572 3713 1747 
Q 3713 922 3314 415 
Q 2916 -91 2278 -91 
Q 1894 -91 1617 61 
Q 1341 213 1159 525 
z
M 3116 1747 
Q 3116 2381 2855 2742 
Q 2594 3103 2138 3103 
Q 1681 3103 1420 2742 
Q 1159 2381 1159 1747 
Q 1159 1113 1420 752 
Q 1681 391 2138 391 
Q 2594 391 2855 752 
Q 3116 1113 3116 1747 
z
" transform="scale(0.015625)"/>
       <path id="DejaVuSans-6f" d="M 1959 3097 
Q 1497 3097 1228 2736 
Q 959 2375 959 1747 
Q 959 1119 1226 758 
Q 1494 397 1959 397 
Q 2419 397 2687 759 
Q 2956 1122 2956 1747 
Q 2956 2369 2687 2733 
Q 2419 3097 1959 3097 
z
M 1959 3584 
Q 2709 3584 3137 3096 
Q 3566 2609 3566 1747 
Q 3566 888 3137 398 
Q 2709 -91 1959 -91 
Q 1206 -91 779 398 
Q 353 888 353 1747 
Q 353 2609 779 3096 
Q 1206 3584 1959 3584 
z
" transform="scale(0.015625)"/>
       <path id="DejaVuSans-63" d="M 3122 3366 
L 3122 2828 
Q 2878 2963 2633 3030 
Q 2388 3097 2138 3097 
Q 1578 3097 1268 2742 
Q 959 2388 959 1747 
Q 959 1106 1268 751 
Q 1578 397 2138 397 
Q 2388 397 2633 464 
Q 2878 531 3122 666 
L 3122 134 
Q 2881 22 2623 -34 
Q 2366 -91 2075 -91 
Q 1284 -91 818 406 
Q 353 903 353 1747 
Q 353 2603 823 3093 
Q 1294 3584 2113 3584 
Q 2378 3584 2631 3529 
Q 2884 3475 3122 3366 
z
" transform="scale(0.015625)"/>
       <path id="DejaVuSans-68" d="M 3513 2113 
L 3513 0 
L 2938 0 
L 2938 2094 
Q 2938 2591 2744 2837 
Q 2550 3084 2163 3084 
Q 1697 3084 1428 2787 
Q 1159 2491 1159 1978 
L 1159 0 
L 581 0 
L 581 4863 
L 1159 4863 
L 1159 2956 
Q 1366 3272 1645 3428 
Q 1925 3584 2291 3584 
Q 2894 3584 3203 3211 
Q 3513 2838 3513 2113 
z
" transform="scale(0.015625)"/>
      </defs>
      <use xlink:href="#DejaVuSans-45"/>
      <use xlink:href="#DejaVuSans-70" x="63.183594"/>
      <use xlink:href="#DejaVuSans-6f" x="126.660156"/>
      <use xlink:href="#DejaVuSans-63" x="187.841797"/>
      <use xlink:href="#DejaVuSans-68" x="242.822266"/>
     </g>
    </g>
   </g>
   <g id="matplotlib.axis_2">
    <g id="ytick_1">
     <g id="line2d_7">
      <defs>
       <path id="md79c81a0a0" d="M 0 0 
L -3.5 0 
" style="stroke: #000000; stroke-width: 0.8"/>
      </defs>
      <g>
       <use xlink:href="#md79c81a0a0" x="47.72" y="267.451808" style="stroke: #000000; stroke-width: 0.8"/>
      </g>
     </g>
     <g id="text_8">
      <!-- 0.4 -->
      <g transform="translate(24.816875 271.251027) scale(0.1 -0.1)">
       <defs>
        <path id="DejaVuSans-2e" d="M 684 794 
L 1344 794 
L 1344 0 
L 684 0 
L 684 794 
z
" transform="scale(0.015625)"/>
        <path id="DejaVuSans-34" d="M 2419 4116 
L 825 1625 
L 2419 1625 
L 2419 4116 
z
M 2253 4666 
L 3047 4666 
L 3047 1625 
L 3713 1625 
L 3713 1100 
L 3047 1100 
L 3047 0 
L 2419 0 
L 2419 1100 
L 313 1100 
L 313 1709 
L 2253 4666 
z
" transform="scale(0.015625)"/>
       </defs>
       <use xlink:href="#DejaVuSans-30"/>
       <use xlink:href="#DejaVuSans-2e" x="63.623047"/>
       <use xlink:href="#DejaVuSans-34" x="95.410156"/>
      </g>
     </g>
    </g>
    <g id="ytick_2">
     <g id="line2d_8">
      <g>
       <use xlink:href="#md79c81a0a0" x="47.72" y="212.879864" style="stroke: #000000; stroke-width: 0.8"/>
      </g>
     </g>
     <g id="text_9">
      <!-- 0.6 -->
      <g transform="translate(24.816875 216.679083) scale(0.1 -0.1)">
       <defs>
        <path id="DejaVuSans-36" d="M 2113 2584 
Q 1688 2584 1439 2293 
Q 1191 2003 1191 1497 
Q 1191 994 1439 701 
Q 1688 409 2113 409 
Q 2538 409 2786 701 
Q 3034 994 3034 1497 
Q 3034 2003 2786 2293 
Q 2538 2584 2113 2584 
z
M 3366 4563 
L 3366 3988 
Q 3128 4100 2886 4159 
Q 2644 4219 2406 4219 
Q 1781 4219 1451 3797 
Q 1122 3375 1075 2522 
Q 1259 2794 1537 2939 
Q 1816 3084 2150 3084 
Q 2853 3084 3261 2657 
Q 3669 2231 3669 1497 
Q 3669 778 3244 343 
Q 2819 -91 2113 -91 
Q 1303 -91 875 529 
Q 447 1150 447 2328 
Q 447 3434 972 4092 
Q 1497 4750 2381 4750 
Q 2619 4750 2861 4703 
Q 3103 4656 3366 4563 
z
" transform="scale(0.015625)"/>
       </defs>
       <use xlink:href="#DejaVuSans-30"/>
       <use xlink:href="#DejaVuSans-2e" x="63.623047"/>
       <use xlink:href="#DejaVuSans-36" x="95.410156"/>
      </g>
     </g>
    </g>
    <g id="ytick_3">
     <g id="line2d_9">
      <g>
       <use xlink:href="#md79c81a0a0" x="47.72" y="158.30792" style="stroke: #000000; stroke-width: 0.8"/>
      </g>
     </g>
     <g id="text_10">
      <!-- 0.8 -->
      <g transform="translate(24.816875 162.107138) scale(0.1 -0.1)">
       <defs>
        <path id="DejaVuSans-38" d="M 2034 2216 
Q 1584 2216 1326 1975 
Q 1069 1734 1069 1313 
Q 1069 891 1326 650 
Q 1584 409 2034 409 
Q 2484 409 2743 651 
Q 3003 894 3003 1313 
Q 3003 1734 2745 1975 
Q 2488 2216 2034 2216 
z
M 1403 2484 
Q 997 2584 770 2862 
Q 544 3141 544 3541 
Q 544 4100 942 4425 
Q 1341 4750 2034 4750 
Q 2731 4750 3128 4425 
Q 3525 4100 3525 3541 
Q 3525 3141 3298 2862 
Q 3072 2584 2669 2484 
Q 3125 2378 3379 2068 
Q 3634 1759 3634 1313 
Q 3634 634 3220 271 
Q 2806 -91 2034 -91 
Q 1263 -91 848 271 
Q 434 634 434 1313 
Q 434 1759 690 2068 
Q 947 2378 1403 2484 
z
M 1172 3481 
Q 1172 3119 1398 2916 
Q 1625 2713 2034 2713 
Q 2441 2713 2670 2916 
Q 2900 3119 2900 3481 
Q 2900 3844 2670 4047 
Q 2441 4250 2034 4250 
Q 1625 4250 1398 4047 
Q 1172 3844 1172 3481 
z
" transform="scale(0.015625)"/>
       </defs>
       <use xlink:href="#DejaVuSans-30"/>
       <use xlink:href="#DejaVuSans-2e" x="63.623047"/>
       <use xlink:href="#DejaVuSans-38" x="95.410156"/>
      </g>
     </g>
    </g>
    <g id="ytick_4">
     <g id="line2d_10">
      <g>
       <use xlink:href="#md79c81a0a0" x="47.72" y="103.735976" style="stroke: #000000; stroke-width: 0.8"/>
      </g>
     </g>
     <g id="text_11">
      <!-- 1.0 -->
      <g transform="translate(24.816875 107.535194) scale(0.1 -0.1)">
       <use xlink:href="#DejaVuSans-31"/>
       <use xlink:href="#DejaVuSans-2e" x="63.623047"/>
       <use xlink:href="#DejaVuSans-30" x="95.410156"/>
      </g>
     </g>
    </g>
    <g id="ytick_5">
     <g id="line2d_11">
      <g>
       <use xlink:href="#md79c81a0a0" x="47.72" y="49.164031" style="stroke: #000000; stroke-width: 0.8"/>
      </g>
     </g>
     <g id="text_12">
      <!-- 1.2 -->
      <g transform="translate(24.816875 52.96325) scale(0.1 -0.1)">
       <use xlink:href="#DejaVuSans-31"/>
       <use xlink:href="#DejaVuSans-2e" x="63.623047"/>
       <use xlink:href="#DejaVuSans-32" x="95.410156"/>
      </g>
     </g>
    </g>
    <g id="text_13">
     <!-- Loss -->
     <g transform="translate(18.737187 183.427188) rotate(-90) scale(0.1 -0.1)">
      <defs>
       <path id="DejaVuSans-4c" d="M 628 4666 
L 1259 4666 
L 1259 531 
L 3531 531 
L 3531 0 
L 628 0 
L 628 4666 
z
" transform="scale(0.015625)"/>
       <path id="DejaVuSans-73" d="M 2834 3397 
L 2834 2853 
Q 2591 2978 2328 3040 
Q 2066 3103 1784 3103 
Q 1356 3103 1142 2972 
Q 928 2841 928 2578 
Q 928 2378 1081 2264 
Q 1234 2150 1697 2047 
L 1894 2003 
Q 2506 1872 2764 1633 
Q 3022 1394 3022 966 
Q 3022 478 2636 193 
Q 2250 -91 1575 -91 
Q 1294 -91 989 -36 
Q 684 19 347 128 
L 347 722 
Q 666 556 975 473 
Q 1284 391 1588 391 
Q 1994 391 2212 530 
Q 2431 669 2431 922 
Q 2431 1156 2273 1281 
Q 2116 1406 1581 1522 
L 1381 1569 
Q 847 1681 609 1914 
Q 372 2147 372 2553 
Q 372 3047 722 3315 
Q 1072 3584 1716 3584 
Q 2034 3584 2315 3537 
Q 2597 3491 2834 3397 
z
" transform="scale(0.015625)"/>
      </defs>
      <use xlink:href="#DejaVuSans-4c"/>
      <use xlink:href="#DejaVuSans-6f" x="53.962891"/>
      <use xlink:href="#DejaVuSans-73" x="115.144531"/>
      <use xlink:href="#DejaVuSans-73" x="167.244141"/>
     </g>
    </g>
   </g>
   <g id="line2d_12">
    <path d="M 61.386211 221.537878 
L 62.506392 217.142126 
L 64.746755 233.796756 
L 66.987117 237.911978 
L 68.107298 240.263606 
L 69.227479 243.579551 
L 70.347661 241.443104 
L 71.467842 246.175273 
L 72.588023 245.622634 
L 73.708204 249.750721 
L 74.828386 247.554187 
L 75.948567 250.522413 
L 77.068748 252.511519 
L 78.188929 256.544177 
L 79.30911 255.660998 
L 80.429292 260.859958 
L 81.549473 260.693328 
L 82.669654 264.021843 
L 83.789835 266.377234 
L 84.910017 266.896857 
L 87.150379 263.247415 
L 88.27056 267.590148 
L 89.390741 268.210883 
L 90.510923 269.558092 
L 91.631104 272.769569 
L 92.751285 272.902418 
L 93.871466 273.725843 
L 94.991648 273.79236 
L 96.111829 270.702087 
L 97.23201 273.934537 
L 99.472372 275.434103 
L 100.592554 274.713741 
L 101.712735 276.841588 
L 102.832916 276.395425 
L 103.953097 279.159272 
L 105.073279 275.427485 
L 106.19346 278.302444 
L 107.313641 277.496906 
L 108.433822 278.9301 
L 109.554003 278.210521 
L 110.674185 279.606799 
L 111.794366 277.789428 
L 112.914547 282.063844 
L 114.034728 280.957936 
L 115.15491 282.053998 
L 116.275091 283.526916 
L 117.395272 281.43199 
L 118.515453 282.808163 
L 119.635634 284.481418 
L 120.755816 285.737563 
L 121.875997 284.88457 
L 122.996178 285.197607 
L 124.116359 285.795535 
L 125.236541 285.864407 
L 126.356722 286.940743 
L 127.476903 285.539212 
L 128.597084 287.226919 
L 129.717265 285.432307 
L 130.837447 286.674115 
L 131.957628 288.310088 
L 133.077809 287.387248 
L 134.19799 289.242984 
L 135.318172 288.526445 
L 136.438353 288.858391 
L 137.558534 284.739493 
L 138.678715 286.650217 
L 139.798896 287.97355 
L 140.919078 287.877247 
L 142.039259 288.360081 
L 143.15944 289.021971 
L 144.279621 289.476495 
L 145.399802 289.364737 
L 146.519984 289.965645 
L 147.640165 291.135606 
L 148.760346 291.898499 
L 149.880527 289.938068 
L 151.000709 289.837346 
L 152.12089 291.384499 
L 153.241071 291.319481 
L 154.361252 291.035503 
L 155.481433 290.303268 
L 156.601615 291.040922 
L 157.721796 292.446255 
L 158.841977 291.870825 
L 159.962158 292.575345 
L 161.08234 290.964248 
L 162.202521 291.759959 
L 163.322702 291.947776 
L 164.442883 292.856487 
L 166.683246 293.152728 
L 167.803427 292.87551 
L 168.923608 293.077381 
L 170.043789 294.399228 
L 171.163971 292.710698 
L 172.284152 293.686999 
L 173.404333 290.366128 
L 174.524514 294.14387 
L 175.644695 293.334122 
L 176.764877 294.049317 
L 177.885058 294.479706 
L 179.005239 294.098128 
L 180.12542 294.7127 
L 181.245602 294.795254 
L 182.365783 294.734388 
L 183.485964 294.372405 
L 184.606145 294.983208 
L 185.726326 295.193604 
L 186.846508 295.091755 
L 187.966689 296.104016 
L 189.08687 294.242105 
L 190.207051 296.329578 
L 191.327233 294.465164 
L 192.447414 294.844038 
L 193.567595 294.266882 
L 194.687776 294.322304 
L 195.807957 295.334567 
L 196.928139 294.711851 
L 198.04832 295.170593 
L 199.168501 294.21924 
L 200.288682 296.733544 
L 201.408864 296.391972 
L 202.529045 296.766154 
L 203.649226 296.953752 
L 204.769407 296.866674 
L 205.889588 296.90289 
L 207.00977 297.273795 
L 208.129951 296.445301 
L 209.250132 297.91045 
L 210.370313 296.301197 
L 211.490495 296.441378 
L 212.610676 297.664412 
L 213.730857 297.390706 
L 214.851038 297.746701 
L 215.971219 297.335173 
L 217.091401 297.318096 
L 218.211582 297.118037 
L 219.331763 297.512435 
L 220.451944 298.512827 
L 221.572126 296.965443 
L 222.692307 298.018025 
L 223.812488 298.236695 
L 224.932669 297.625785 
L 226.05285 298.56955 
L 227.173032 296.860974 
L 228.293213 298.246172 
L 229.413394 298.765305 
L 230.533575 298.265266 
L 231.653757 299.02981 
L 232.773938 299.215223 
L 233.894119 299.535692 
L 235.0143 299.698456 
L 236.134481 299.036799 
L 237.254663 297.766144 
L 238.374844 299.292716 
L 239.495025 299.604813 
L 241.735388 299.087582 
L 242.855569 298.182125 
L 243.97575 299.773574 
L 245.095931 299.95448 
L 246.216112 299.694891 
L 247.336294 299.639042 
L 248.456475 299.434043 
L 249.576656 298.905917 
L 250.696837 300.598601 
L 251.817019 299.566582 
L 254.057381 300.171679 
L 255.177562 299.81696 
L 257.417925 300.799488 
L 258.538106 300.991573 
L 259.658287 300.350935 
L 260.778468 301.673861 
L 261.89865 301.102731 
L 263.018831 301.453643 
L 264.139012 300.629971 
L 265.259193 301.308984 
L 266.379374 301.23563 
L 267.499556 301.499096 
L 268.619737 300.283041 
L 269.739918 301.284293 
L 270.860099 300.839895 
L 271.98028 301.969665 
L 273.100462 300.130725 
L 274.220643 302.174733 
L 275.340824 301.257719 
L 276.461005 301.950723 
L 277.581187 302.241414 
L 278.701368 301.050246 
L 279.821549 302.443378 
L 280.94173 301.803648 
L 282.061911 302.414086 
L 283.182093 301.326113 
L 284.302274 302.983925 
L 285.422455 302.469621 
L 286.542636 303.259212 
L 287.662818 301.59915 
L 288.782999 302.6111 
L 289.90318 303.370732 
L 291.023361 302.207514 
L 292.143542 303.147014 
L 293.263724 302.082679 
L 294.383905 302.422663 
L 295.504086 301.870078 
L 296.624267 302.904914 
L 297.744449 302.853872 
L 298.86463 303.561468 
L 299.984811 302.53625 
L 301.104992 303.344822 
L 302.225173 303.651163 
L 303.345355 303.202956 
L 304.465536 302.559435 
L 305.585717 302.998423 
L 307.82608 303.580904 
L 308.946261 302.758577 
L 310.066442 302.690162 
L 312.306804 303.56907 
L 313.426986 303.785973 
L 314.547167 303.54851 
L 315.667348 304.800321 
L 316.787529 303.026063 
L 317.907711 303.407767 
L 319.027892 304.398214 
L 320.148073 303.612369 
L 321.268254 303.593346 
L 322.388435 304.554122 
L 323.508617 304.430235 
L 324.628798 303.862036 
L 325.748979 303.774493 
L 326.86916 304.805455 
L 327.989342 303.874856 
L 329.109523 304.209029 
L 331.349885 304.444171 
L 332.470066 304.716694 
L 333.590248 304.014289 
L 334.710429 304.096769 
L 334.710429 304.096769 
" clip-path="url(#p95aecaf00f)" style="fill: none; stroke: #1f77b4; stroke-width: 1.5; stroke-linecap: square"/>
   </g>
   <g id="line2d_13">
    <path d="M 61.386211 40.114545 
L 62.506392 65.857669 
L 63.626573 102.379194 
L 64.746755 81.315215 
L 66.987117 110.367751 
L 68.107298 102.54721 
L 69.227479 62.166647 
L 70.347661 92.855812 
L 71.467842 95.21078 
L 72.588023 127.576191 
L 73.708204 100.113849 
L 74.828386 125.650049 
L 75.948567 127.481511 
L 77.068748 148.457169 
L 78.188929 105.171315 
L 79.30911 129.524303 
L 80.429292 114.500326 
L 81.549473 120.411938 
L 82.669654 148.327652 
L 83.789835 156.466223 
L 84.910017 77.39322 
L 86.030198 89.003427 
L 87.150379 139.858818 
L 88.27056 145.27681 
L 89.390741 139.81177 
L 90.510923 169.798148 
L 91.631104 176.945263 
L 92.751285 141.89003 
L 93.871466 142.724729 
L 94.991648 123.118841 
L 96.111829 118.007625 
L 97.23201 128.791753 
L 98.352191 131.126744 
L 99.472372 122.82402 
L 100.592554 159.744176 
L 101.712735 135.626426 
L 102.832916 183.309368 
L 103.953097 105.259766 
L 105.073279 142.640223 
L 106.19346 128.898754 
L 107.313641 159.027776 
L 108.433822 159.030641 
L 109.554003 139.665543 
L 110.674185 102.616118 
L 111.794366 193.908774 
L 112.914547 152.846088 
L 114.034728 152.551965 
L 115.15491 202.060024 
L 116.275091 117.391344 
L 117.395272 127.633282 
L 118.515453 190.205105 
L 119.635634 175.845541 
L 120.755816 162.968214 
L 121.875997 160.706606 
L 122.996178 130.03017 
L 124.116359 153.961728 
L 125.236541 192.219955 
L 126.356722 134.522768 
L 127.476903 165.238528 
L 128.597084 163.170322 
L 129.717265 189.139106 
L 130.837447 193.691783 
L 131.957628 166.576629 
L 133.077809 182.001064 
L 134.19799 166.550753 
L 135.318172 153.895116 
L 136.438353 152.264362 
L 137.558534 161.401306 
L 138.678715 154.688095 
L 139.798896 149.125818 
L 140.919078 177.084127 
L 142.039259 151.395251 
L 143.15944 148.660852 
L 144.279621 152.555905 
L 145.399802 190.625412 
L 146.519984 184.173822 
L 147.640165 183.765313 
L 148.760346 108.035262 
L 149.880527 142.850163 
L 151.000709 155.28522 
L 152.12089 151.06202 
L 153.241071 153.990734 
L 154.361252 159.520045 
L 155.481433 130.334745 
L 156.601615 177.396254 
L 157.721796 179.991275 
L 158.841977 178.718477 
L 159.962158 168.027885 
L 161.08234 145.346481 
L 162.202521 138.157263 
L 163.322702 167.425094 
L 164.442883 174.061426 
L 165.563064 181.653049 
L 166.683246 172.719476 
L 167.803427 189.350428 
L 168.923608 187.444335 
L 170.043789 145.108783 
L 171.163971 200.226992 
L 172.284152 114.08171 
L 173.404333 185.343154 
L 174.524514 136.607268 
L 175.644695 169.222383 
L 176.764877 196.916405 
L 177.885058 166.279774 
L 179.005239 186.08176 
L 180.12542 179.26589 
L 181.245602 146.65821 
L 182.365783 149.455123 
L 183.485964 196.643704 
L 184.606145 171.047264 
L 185.726326 184.422593 
L 186.846508 169.771118 
L 187.966689 132.933444 
L 189.08687 170.060468 
L 190.207051 146.420262 
L 191.327233 164.076251 
L 192.447414 165.646838 
L 193.567595 159.572389 
L 194.687776 155.58145 
L 196.928139 190.327091 
L 198.04832 156.385505 
L 199.168501 199.886638 
L 200.288682 176.865276 
L 201.408864 183.245937 
L 202.529045 170.769246 
L 203.649226 175.496511 
L 204.769407 155.360535 
L 205.889588 152.77723 
L 207.00977 160.863545 
L 208.129951 197.824435 
L 209.250132 126.332203 
L 210.370313 144.897823 
L 211.490495 175.905901 
L 212.610676 189.294344 
L 213.730857 170.501182 
L 214.851038 160.917788 
L 215.971219 162.628943 
L 217.091401 171.021123 
L 218.211582 171.446721 
L 219.331763 196.060684 
L 220.451944 148.083893 
L 221.572126 191.700176 
L 222.692307 216.804946 
L 223.812488 168.591293 
L 224.932669 197.563291 
L 226.05285 155.365768 
L 227.173032 177.978218 
L 228.293213 176.399241 
L 229.413394 161.146049 
L 231.653757 207.444329 
L 232.773938 172.240372 
L 233.894119 201.73959 
L 235.0143 188.765519 
L 236.134481 151.8758 
L 237.254663 183.756571 
L 238.374844 193.65443 
L 239.495025 158.789064 
L 240.615206 182.572528 
L 241.735388 159.816804 
L 242.855569 185.465068 
L 243.97575 191.90922 
L 245.095931 196.138965 
L 246.216112 180.539649 
L 247.336294 176.734171 
L 248.456475 167.369503 
L 249.576656 210.082338 
L 251.817019 191.712146 
L 252.9372 172.770451 
L 254.057381 178.52411 
L 255.177562 165.22694 
L 256.297743 179.978278 
L 257.417925 183.31342 
L 258.538106 188.884332 
L 259.658287 210.672006 
L 260.778468 196.979206 
L 261.89865 198.178771 
L 263.018831 173.294251 
L 264.139012 187.248183 
L 265.259193 185.345831 
L 266.379374 180.530041 
L 267.499556 161.864307 
L 268.619737 160.678822 
L 269.739918 165.070734 
L 270.860099 187.44146 
L 271.98028 155.42213 
L 273.100462 192.743936 
L 274.220643 171.070449 
L 275.340824 200.464806 
L 276.461005 200.919398 
L 277.581187 179.693665 
L 278.701368 215.996543 
L 279.821549 179.184991 
L 280.94173 201.099289 
L 282.061911 178.30154 
L 283.182093 202.336653 
L 284.302274 192.789983 
L 285.422455 201.946152 
L 286.542636 154.837285 
L 287.662818 166.696989 
L 288.782999 193.58731 
L 289.90318 173.170653 
L 291.023361 197.469169 
L 292.143542 164.807893 
L 293.263724 183.537453 
L 294.383905 165.179536 
L 295.504086 187.74662 
L 296.624267 175.39623 
L 297.744449 178.068466 
L 298.86463 172.855042 
L 299.984811 196.207119 
L 301.104992 189.86213 
L 302.225173 188.872598 
L 303.345355 180.293058 
L 304.465536 193.966497 
L 305.585717 181.499135 
L 306.705898 189.821772 
L 307.82608 169.334453 
L 308.946261 183.821005 
L 310.066442 182.776479 
L 311.186623 188.293139 
L 312.306804 177.829211 
L 313.426986 184.942091 
L 314.547167 210.274107 
L 315.667348 174.426366 
L 316.787529 177.35718 
L 317.907711 202.265712 
L 319.027892 188.241431 
L 320.148073 184.465249 
L 321.268254 194.131673 
L 322.388435 189.456755 
L 323.508617 193.978478 
L 324.628798 182.707293 
L 325.748979 188.717432 
L 326.86916 184.078849 
L 327.989342 191.474124 
L 329.109523 201.038193 
L 330.229704 187.400443 
L 331.349885 182.986006 
L 332.470066 186.205571 
L 333.590248 187.545796 
L 334.710429 176.014315 
L 334.710429 176.014315 
" clip-path="url(#p95aecaf00f)" style="fill: none; stroke: #ff7f0e; stroke-width: 1.5; stroke-linecap: square"/>
   </g>
   <g id="patch_3">
    <path d="M 47.72 318.04 
L 47.72 26.88 
" style="fill: none; stroke: #000000; stroke-width: 0.8; stroke-linejoin: miter; stroke-linecap: square"/>
   </g>
   <g id="patch_4">
    <path d="M 348.37664 318.04 
L 348.37664 26.88 
" style="fill: none; stroke: #000000; stroke-width: 0.8; stroke-linejoin: miter; stroke-linecap: square"/>
   </g>
   <g id="patch_5">
    <path d="M 47.72 318.04 
L 348.37664 318.04 
" style="fill: none; stroke: #000000; stroke-width: 0.8; stroke-linejoin: miter; stroke-linecap: square"/>
   </g>
   <g id="patch_6">
    <path d="M 47.72 26.88 
L 348.37664 26.88 
" style="fill: none; stroke: #000000; stroke-width: 0.8; stroke-linejoin: miter; stroke-linecap: square"/>
   </g>
   <g id="text_14">
    <!-- Loss vs Epoch -->
    <g transform="translate(156.023945 20.88) scale(0.12 -0.12)">
     <defs>
      <path id="DejaVuSans-20" transform="scale(0.015625)"/>
      <path id="DejaVuSans-76" d="M 191 3500 
L 800 3500 
L 1894 563 
L 2988 3500 
L 3597 3500 
L 2284 0 
L 1503 0 
L 191 3500 
z
" transform="scale(0.015625)"/>
     </defs>
     <use xlink:href="#DejaVuSans-4c"/>
     <use xlink:href="#DejaVuSans-6f" x="53.962891"/>
     <use xlink:href="#DejaVuSans-73" x="115.144531"/>
     <use xlink:href="#DejaVuSans-73" x="167.244141"/>
     <use xlink:href="#DejaVuSans-20" x="219.34375"/>
     <use xlink:href="#DejaVuSans-76" x="251.130859"/>
     <use xlink:href="#DejaVuSans-73" x="310.310547"/>
     <use xlink:href="#DejaVuSans-20" x="362.410156"/>
     <use xlink:href="#DejaVuSans-45" x="394.197266"/>
     <use xlink:href="#DejaVuSans-70" x="457.380859"/>
     <use xlink:href="#DejaVuSans-6f" x="520.857422"/>
     <use xlink:href="#DejaVuSans-63" x="582.039062"/>
     <use xlink:href="#DejaVuSans-68" x="637.019531"/>
    </g>
   </g>
   <g id="legend_1">
    <g id="patch_7">
     <path d="M 234.88289 64.23625 
L 341.37664 64.23625 
Q 343.37664 64.23625 343.37664 62.23625 
L 343.37664 33.88 
Q 343.37664 31.88 341.37664 31.88 
L 234.88289 31.88 
Q 232.88289 31.88 232.88289 33.88 
L 232.88289 62.23625 
Q 232.88289 64.23625 234.88289 64.23625 
z
" style="fill: #ffffff; opacity: 0.8; stroke: #cccccc; stroke-linejoin: miter"/>
    </g>
    <g id="line2d_14">
     <path d="M 236.88289 39.978437 
L 246.88289 39.978437 
L 256.88289 39.978437 
" style="fill: none; stroke: #1f77b4; stroke-width: 1.5; stroke-linecap: square"/>
    </g>
    <g id="text_15">
     <!-- Train Loss -->
     <g transform="translate(264.88289 43.478437) scale(0.1 -0.1)">
      <defs>
       <path id="DejaVuSans-54" d="M -19 4666 
L 3928 4666 
L 3928 4134 
L 2272 4134 
L 2272 0 
L 1638 0 
L 1638 4134 
L -19 4134 
L -19 4666 
z
" transform="scale(0.015625)"/>
       <path id="DejaVuSans-72" d="M 2631 2963 
Q 2534 3019 2420 3045 
Q 2306 3072 2169 3072 
Q 1681 3072 1420 2755 
Q 1159 2438 1159 1844 
L 1159 0 
L 581 0 
L 581 3500 
L 1159 3500 
L 1159 2956 
Q 1341 3275 1631 3429 
Q 1922 3584 2338 3584 
Q 2397 3584 2469 3576 
Q 2541 3569 2628 3553 
L 2631 2963 
z
" transform="scale(0.015625)"/>
       <path id="DejaVuSans-61" d="M 2194 1759 
Q 1497 1759 1228 1600 
Q 959 1441 959 1056 
Q 959 750 1161 570 
Q 1363 391 1709 391 
Q 2188 391 2477 730 
Q 2766 1069 2766 1631 
L 2766 1759 
L 2194 1759 
z
M 3341 1997 
L 3341 0 
L 2766 0 
L 2766 531 
Q 2569 213 2275 61 
Q 1981 -91 1556 -91 
Q 1019 -91 701 211 
Q 384 513 384 1019 
Q 384 1609 779 1909 
Q 1175 2209 1959 2209 
L 2766 2209 
L 2766 2266 
Q 2766 2663 2505 2880 
Q 2244 3097 1772 3097 
Q 1472 3097 1187 3025 
Q 903 2953 641 2809 
L 641 3341 
Q 956 3463 1253 3523 
Q 1550 3584 1831 3584 
Q 2591 3584 2966 3190 
Q 3341 2797 3341 1997 
z
" transform="scale(0.015625)"/>
       <path id="DejaVuSans-69" d="M 603 3500 
L 1178 3500 
L 1178 0 
L 603 0 
L 603 3500 
z
M 603 4863 
L 1178 4863 
L 1178 4134 
L 603 4134 
L 603 4863 
z
" transform="scale(0.015625)"/>
       <path id="DejaVuSans-6e" d="M 3513 2113 
L 3513 0 
L 2938 0 
L 2938 2094 
Q 2938 2591 2744 2837 
Q 2550 3084 2163 3084 
Q 1697 3084 1428 2787 
Q 1159 2491 1159 1978 
L 1159 0 
L 581 0 
L 581 3500 
L 1159 3500 
L 1159 2956 
Q 1366 3272 1645 3428 
Q 1925 3584 2291 3584 
Q 2894 3584 3203 3211 
Q 3513 2838 3513 2113 
z
" transform="scale(0.015625)"/>
      </defs>
      <use xlink:href="#DejaVuSans-54"/>
      <use xlink:href="#DejaVuSans-72" x="46.333984"/>
      <use xlink:href="#DejaVuSans-61" x="87.447266"/>
      <use xlink:href="#DejaVuSans-69" x="148.726562"/>
      <use xlink:href="#DejaVuSans-6e" x="176.509766"/>
      <use xlink:href="#DejaVuSans-20" x="239.888672"/>
      <use xlink:href="#DejaVuSans-4c" x="271.675781"/>
      <use xlink:href="#DejaVuSans-6f" x="325.638672"/>
      <use xlink:href="#DejaVuSans-73" x="386.820312"/>
      <use xlink:href="#DejaVuSans-73" x="438.919922"/>
     </g>
    </g>
    <g id="line2d_15">
     <path d="M 236.88289 54.656563 
L 246.88289 54.656563 
L 256.88289 54.656563 
" style="fill: none; stroke: #ff7f0e; stroke-width: 1.5; stroke-linecap: square"/>
    </g>
    <g id="text_16">
     <!-- Validation Loss -->
     <g transform="translate(264.88289 58.156563) scale(0.1 -0.1)">
      <defs>
       <path id="DejaVuSans-56" d="M 1831 0 
L 50 4666 
L 709 4666 
L 2188 738 
L 3669 4666 
L 4325 4666 
L 2547 0 
L 1831 0 
z
" transform="scale(0.015625)"/>
       <path id="DejaVuSans-6c" d="M 603 4863 
L 1178 4863 
L 1178 0 
L 603 0 
L 603 4863 
z
" transform="scale(0.015625)"/>
       <path id="DejaVuSans-64" d="M 2906 2969 
L 2906 4863 
L 3481 4863 
L 3481 0 
L 2906 0 
L 2906 525 
Q 2725 213 2448 61 
Q 2172 -91 1784 -91 
Q 1150 -91 751 415 
Q 353 922 353 1747 
Q 353 2572 751 3078 
Q 1150 3584 1784 3584 
Q 2172 3584 2448 3432 
Q 2725 3281 2906 2969 
z
M 947 1747 
Q 947 1113 1208 752 
Q 1469 391 1925 391 
Q 2381 391 2643 752 
Q 2906 1113 2906 1747 
Q 2906 2381 2643 2742 
Q 2381 3103 1925 3103 
Q 1469 3103 1208 2742 
Q 947 2381 947 1747 
z
" transform="scale(0.015625)"/>
       <path id="DejaVuSans-74" d="M 1172 4494 
L 1172 3500 
L 2356 3500 
L 2356 3053 
L 1172 3053 
L 1172 1153 
Q 1172 725 1289 603 
Q 1406 481 1766 481 
L 2356 481 
L 2356 0 
L 1766 0 
Q 1100 0 847 248 
Q 594 497 594 1153 
L 594 3053 
L 172 3053 
L 172 3500 
L 594 3500 
L 594 4494 
L 1172 4494 
z
" transform="scale(0.015625)"/>
      </defs>
      <use xlink:href="#DejaVuSans-56"/>
      <use xlink:href="#DejaVuSans-61" x="60.658203"/>
      <use xlink:href="#DejaVuSans-6c" x="121.9375"/>
      <use xlink:href="#DejaVuSans-69" x="149.720703"/>
      <use xlink:href="#DejaVuSans-64" x="177.503906"/>
      <use xlink:href="#DejaVuSans-61" x="240.980469"/>
      <use xlink:href="#DejaVuSans-74" x="302.259766"/>
      <use xlink:href="#DejaVuSans-69" x="341.46875"/>
      <use xlink:href="#DejaVuSans-6f" x="369.251953"/>
      <use xlink:href="#DejaVuSans-6e" x="430.433594"/>
      <use xlink:href="#DejaVuSans-20" x="493.8125"/>
      <use xlink:href="#DejaVuSans-4c" x="525.599609"/>
      <use xlink:href="#DejaVuSans-6f" x="579.5625"/>
      <use xlink:href="#DejaVuSans-73" x="640.744141"/>
      <use xlink:href="#DejaVuSans-73" x="692.84375"/>
     </g>
    </g>
   </g>
  </g>
  <g id="axes_2">
   <g id="patch_8">
    <path d="M 406.25 318.04 
L 706.90664 318.04 
L 706.90664 26.88 
L 406.25 26.88 
z
" style="fill: #ffffff"/>
   </g>
   <g id="matplotlib.axis_3">
    <g id="xtick_7">
     <g id="line2d_16">
      <g>
       <use xlink:href="#m3126774cd3" x="419.916211" y="318.04" style="stroke: #000000; stroke-width: 0.8"/>
      </g>
     </g>
     <g id="text_17">
      <!-- 0 -->
      <g transform="translate(416.734961 332.638438) scale(0.1 -0.1)">
       <use xlink:href="#DejaVuSans-30"/>
      </g>
     </g>
    </g>
    <g id="xtick_8">
     <g id="line2d_17">
      <g>
       <use xlink:href="#m3126774cd3" x="475.925272" y="318.04" style="stroke: #000000; stroke-width: 0.8"/>
      </g>
     </g>
     <g id="text_18">
      <!-- 50 -->
      <g transform="translate(469.562772 332.638438) scale(0.1 -0.1)">
       <use xlink:href="#DejaVuSans-35"/>
       <use xlink:href="#DejaVuSans-30" x="63.623047"/>
      </g>
     </g>
    </g>
    <g id="xtick_9">
     <g id="line2d_18">
      <g>
       <use xlink:href="#m3126774cd3" x="531.934333" y="318.04" style="stroke: #000000; stroke-width: 0.8"/>
      </g>
     </g>
     <g id="text_19">
      <!-- 100 -->
      <g transform="translate(522.390583 332.638438) scale(0.1 -0.1)">
       <use xlink:href="#DejaVuSans-31"/>
       <use xlink:href="#DejaVuSans-30" x="63.623047"/>
       <use xlink:href="#DejaVuSans-30" x="127.246094"/>
      </g>
     </g>
    </g>
    <g id="xtick_10">
     <g id="line2d_19">
      <g>
       <use xlink:href="#m3126774cd3" x="587.943394" y="318.04" style="stroke: #000000; stroke-width: 0.8"/>
      </g>
     </g>
     <g id="text_20">
      <!-- 150 -->
      <g transform="translate(578.399644 332.638438) scale(0.1 -0.1)">
       <use xlink:href="#DejaVuSans-31"/>
       <use xlink:href="#DejaVuSans-35" x="63.623047"/>
       <use xlink:href="#DejaVuSans-30" x="127.246094"/>
      </g>
     </g>
    </g>
    <g id="xtick_11">
     <g id="line2d_20">
      <g>
       <use xlink:href="#m3126774cd3" x="643.952455" y="318.04" style="stroke: #000000; stroke-width: 0.8"/>
      </g>
     </g>
     <g id="text_21">
      <!-- 200 -->
      <g transform="translate(634.408705 332.638438) scale(0.1 -0.1)">
       <use xlink:href="#DejaVuSans-32"/>
       <use xlink:href="#DejaVuSans-30" x="63.623047"/>
       <use xlink:href="#DejaVuSans-30" x="127.246094"/>
      </g>
     </g>
    </g>
    <g id="xtick_12">
     <g id="line2d_21">
      <g>
       <use xlink:href="#m3126774cd3" x="699.961516" y="318.04" style="stroke: #000000; stroke-width: 0.8"/>
      </g>
     </g>
     <g id="text_22">
      <!-- 250 -->
      <g transform="translate(690.417766 332.638438) scale(0.1 -0.1)">
       <use xlink:href="#DejaVuSans-32"/>
       <use xlink:href="#DejaVuSans-35" x="63.623047"/>
       <use xlink:href="#DejaVuSans-30" x="127.246094"/>
      </g>
     </g>
    </g>
    <g id="text_23">
     <!-- Epoch -->
     <g transform="translate(541.267382 346.316563) scale(0.1 -0.1)">
      <use xlink:href="#DejaVuSans-45"/>
      <use xlink:href="#DejaVuSans-70" x="63.183594"/>
      <use xlink:href="#DejaVuSans-6f" x="126.660156"/>
      <use xlink:href="#DejaVuSans-63" x="187.841797"/>
      <use xlink:href="#DejaVuSans-68" x="242.822266"/>
     </g>
    </g>
   </g>
   <g id="matplotlib.axis_4">
    <g id="ytick_6">
     <g id="line2d_22">
      <g>
       <use xlink:href="#md79c81a0a0" x="406.25" y="313.963215" style="stroke: #000000; stroke-width: 0.8"/>
      </g>
     </g>
     <g id="text_24">
      <!-- 0.60 -->
      <g transform="translate(376.984375 317.762434) scale(0.1 -0.1)">
       <use xlink:href="#DejaVuSans-30"/>
       <use xlink:href="#DejaVuSans-2e" x="63.623047"/>
       <use xlink:href="#DejaVuSans-36" x="95.410156"/>
       <use xlink:href="#DejaVuSans-30" x="159.033203"/>
      </g>
     </g>
    </g>
    <g id="ytick_7">
     <g id="line2d_23">
      <g>
       <use xlink:href="#md79c81a0a0" x="406.25" y="262.538867" style="stroke: #000000; stroke-width: 0.8"/>
      </g>
     </g>
     <g id="text_25">
      <!-- 0.65 -->
      <g transform="translate(376.984375 266.338086) scale(0.1 -0.1)">
       <use xlink:href="#DejaVuSans-30"/>
       <use xlink:href="#DejaVuSans-2e" x="63.623047"/>
       <use xlink:href="#DejaVuSans-36" x="95.410156"/>
       <use xlink:href="#DejaVuSans-35" x="159.033203"/>
      </g>
     </g>
    </g>
    <g id="ytick_8">
     <g id="line2d_24">
      <g>
       <use xlink:href="#md79c81a0a0" x="406.25" y="211.114519" style="stroke: #000000; stroke-width: 0.8"/>
      </g>
     </g>
     <g id="text_26">
      <!-- 0.70 -->
      <g transform="translate(376.984375 214.913738) scale(0.1 -0.1)">
       <defs>
        <path id="DejaVuSans-37" d="M 525 4666 
L 3525 4666 
L 3525 4397 
L 1831 0 
L 1172 0 
L 2766 4134 
L 525 4134 
L 525 4666 
z
" transform="scale(0.015625)"/>
       </defs>
       <use xlink:href="#DejaVuSans-30"/>
       <use xlink:href="#DejaVuSans-2e" x="63.623047"/>
       <use xlink:href="#DejaVuSans-37" x="95.410156"/>
       <use xlink:href="#DejaVuSans-30" x="159.033203"/>
      </g>
     </g>
    </g>
    <g id="ytick_9">
     <g id="line2d_25">
      <g>
       <use xlink:href="#md79c81a0a0" x="406.25" y="159.690171" style="stroke: #000000; stroke-width: 0.8"/>
      </g>
     </g>
     <g id="text_27">
      <!-- 0.75 -->
      <g transform="translate(376.984375 163.48939) scale(0.1 -0.1)">
       <use xlink:href="#DejaVuSans-30"/>
       <use xlink:href="#DejaVuSans-2e" x="63.623047"/>
       <use xlink:href="#DejaVuSans-37" x="95.410156"/>
       <use xlink:href="#DejaVuSans-35" x="159.033203"/>
      </g>
     </g>
    </g>
    <g id="ytick_10">
     <g id="line2d_26">
      <g>
       <use xlink:href="#md79c81a0a0" x="406.25" y="108.265823" style="stroke: #000000; stroke-width: 0.8"/>
      </g>
     </g>
     <g id="text_28">
      <!-- 0.80 -->
      <g transform="translate(376.984375 112.065042) scale(0.1 -0.1)">
       <use xlink:href="#DejaVuSans-30"/>
       <use xlink:href="#DejaVuSans-2e" x="63.623047"/>
       <use xlink:href="#DejaVuSans-38" x="95.410156"/>
       <use xlink:href="#DejaVuSans-30" x="159.033203"/>
      </g>
     </g>
    </g>
    <g id="ytick_11">
     <g id="line2d_27">
      <g>
       <use xlink:href="#md79c81a0a0" x="406.25" y="56.841476" style="stroke: #000000; stroke-width: 0.8"/>
      </g>
     </g>
     <g id="text_29">
      <!-- 0.85 -->
      <g transform="translate(376.984375 60.640694) scale(0.1 -0.1)">
       <use xlink:href="#DejaVuSans-30"/>
       <use xlink:href="#DejaVuSans-2e" x="63.623047"/>
       <use xlink:href="#DejaVuSans-38" x="95.410156"/>
       <use xlink:href="#DejaVuSans-35" x="159.033203"/>
      </g>
     </g>
    </g>
    <g id="text_30">
     <!-- Accuracy -->
     <g transform="translate(370.904688 195.288125) rotate(-90) scale(0.1 -0.1)">
      <defs>
       <path id="DejaVuSans-41" d="M 2188 4044 
L 1331 1722 
L 3047 1722 
L 2188 4044 
z
M 1831 4666 
L 2547 4666 
L 4325 0 
L 3669 0 
L 3244 1197 
L 1141 1197 
L 716 0 
L 50 0 
L 1831 4666 
z
" transform="scale(0.015625)"/>
       <path id="DejaVuSans-75" d="M 544 1381 
L 544 3500 
L 1119 3500 
L 1119 1403 
Q 1119 906 1312 657 
Q 1506 409 1894 409 
Q 2359 409 2629 706 
Q 2900 1003 2900 1516 
L 2900 3500 
L 3475 3500 
L 3475 0 
L 2900 0 
L 2900 538 
Q 2691 219 2414 64 
Q 2138 -91 1772 -91 
Q 1169 -91 856 284 
Q 544 659 544 1381 
z
M 1991 3584 
L 1991 3584 
z
" transform="scale(0.015625)"/>
       <path id="DejaVuSans-79" d="M 2059 -325 
Q 1816 -950 1584 -1140 
Q 1353 -1331 966 -1331 
L 506 -1331 
L 506 -850 
L 844 -850 
Q 1081 -850 1212 -737 
Q 1344 -625 1503 -206 
L 1606 56 
L 191 3500 
L 800 3500 
L 1894 763 
L 2988 3500 
L 3597 3500 
L 2059 -325 
z
" transform="scale(0.015625)"/>
      </defs>
      <use xlink:href="#DejaVuSans-41"/>
      <use xlink:href="#DejaVuSans-63" x="66.658203"/>
      <use xlink:href="#DejaVuSans-63" x="121.638672"/>
      <use xlink:href="#DejaVuSans-75" x="176.619141"/>
      <use xlink:href="#DejaVuSans-72" x="239.998047"/>
      <use xlink:href="#DejaVuSans-61" x="281.111328"/>
      <use xlink:href="#DejaVuSans-63" x="342.390625"/>
      <use xlink:href="#DejaVuSans-79" x="397.371094"/>
     </g>
    </g>
   </g>
   <g id="line2d_28">
    <path d="M 419.916211 228.337435 
L 421.036392 237.107033 
L 422.156573 204.760155 
L 423.276755 186.394316 
L 424.396936 183.519038 
L 425.517117 180.032764 
L 426.637298 171.514752 
L 427.757479 158.324414 
L 428.877661 166.051724 
L 429.997842 151.495629 
L 431.118023 154.370907 
L 432.238204 145.349722 
L 433.358386 151.819098 
L 434.478567 143.085441 
L 435.598748 137.945881 
L 436.718929 130.074807 
L 437.83911 135.214367 
L 438.959292 124.28831 
L 440.079473 126.193182 
L 441.199654 117.818935 
L 442.319835 110.918267 
L 443.440017 109.55251 
L 444.560198 115.374948 
L 445.680379 118.609636 
L 446.80056 110.558858 
L 447.920741 109.15716 
L 449.040923 106.713173 
L 450.161104 99.884388 
L 451.281285 99.345273 
L 452.401466 97.835752 
L 453.521648 98.913982 
L 454.641829 104.161364 
L 455.76201 98.734277 
L 456.882191 94.672946 
L 458.002372 93.415012 
L 459.122554 94.385419 
L 460.242735 89.749033 
L 461.362916 91.86955 
L 462.483097 86.047112 
L 463.603279 93.882245 
L 464.72346 88.347335 
L 465.843641 90.00062 
L 466.963822 88.203571 
L 468.084003 87.484751 
L 469.204185 85.004824 
L 470.324366 87.161283 
L 471.444547 81.15914 
L 472.564728 81.9139 
L 473.68491 80.548143 
L 474.805091 76.702459 
L 475.925272 79.937146 
L 477.045453 79.074563 
L 478.165634 73.935004 
L 479.285816 73.180243 
L 480.405997 74.797587 
L 481.526178 75.372643 
L 482.646359 71.203489 
L 483.766541 72.928656 
L 484.886722 70.808139 
L 486.006903 73.755299 
L 487.127084 71.131607 
L 488.247265 72.892715 
L 489.367447 72.605187 
L 490.487628 68.148506 
L 491.607809 70.556552 
L 492.72799 66.459281 
L 493.848172 66.315517 
L 494.968353 68.687621 
L 496.088534 75.192938 
L 497.208715 71.383194 
L 498.328896 68.507916 
L 499.449078 69.837732 
L 500.569259 69.190795 
L 501.68944 68.184447 
L 502.809621 65.884225 
L 503.929802 66.81869 
L 506.170165 63.188652 
L 507.290346 62.39795 
L 508.410527 66.099871 
L 510.65089 63.008947 
L 511.771071 62.973006 
L 512.891252 64.59035 
L 514.011433 65.992048 
L 516.251796 61.068134 
L 517.371977 62.793301 
L 518.492158 62.110423 
L 519.61234 64.123117 
L 520.732521 61.463485 
L 521.852702 61.966659 
L 522.972883 60.636843 
L 524.093064 60.205551 
L 525.213246 59.558613 
L 526.333427 60.385256 
L 527.453608 60.816547 
L 528.573789 59.163263 
L 529.693971 60.133669 
L 530.814152 59.342967 
L 531.934333 63.11677 
L 533.054514 59.127322 
L 534.174695 58.085033 
L 535.294877 58.767912 
L 536.415058 56.683335 
L 537.535239 60.349315 
L 538.65542 56.827099 
L 539.775602 57.150568 
L 540.895783 58.013151 
L 542.015964 58.624148 
L 543.136145 56.934922 
L 544.256326 57.761564 
L 545.376508 57.22245 
L 546.496689 55.605106 
L 547.61687 57.509978 
L 548.737051 54.27529 
L 549.857233 59.05544 
L 550.977414 57.617801 
L 552.097595 57.509978 
L 553.217776 58.408502 
L 554.337957 56.683335 
L 555.458139 56.575512 
L 556.57832 57.438096 
L 557.698501 58.69603 
L 558.818682 54.383113 
L 559.938864 54.994109 
L 561.059045 51.975067 
L 562.179226 53.304884 
L 563.299407 54.131526 
L 564.419588 53.700234 
L 565.53977 54.311231 
L 566.659951 55.065991 
L 567.780132 52.08289 
L 568.900313 54.347172 
L 570.020495 55.03005 
L 571.140676 53.340824 
L 572.260857 53.412706 
L 573.381038 52.4423 
L 574.501219 51.831304 
L 575.621401 52.190713 
L 576.741582 54.131526 
L 577.861763 53.951821 
L 578.981944 50.896838 
L 580.102126 52.08289 
L 581.222307 51.975067 
L 582.342488 52.118831 
L 583.462669 52.478241 
L 584.58285 51.292189 
L 585.703032 53.664293 
L 586.823213 52.765769 
L 587.943394 50.070196 
L 589.063575 52.08289 
L 590.183757 49.459199 
L 591.303938 50.070196 
L 592.424119 48.920084 
L 593.5443 49.243553 
L 594.664481 50.249901 
L 595.784663 52.406359 
L 596.904844 47.698091 
L 598.025025 50.393664 
L 599.145206 48.991966 
L 600.265388 49.531081 
L 601.385569 51.292189 
L 602.50575 48.237206 
L 603.625931 48.74038 
L 604.746112 49.063848 
L 606.986475 48.560675 
L 608.106656 51.112484 
L 609.226837 47.230859 
L 610.347019 48.884144 
L 612.587381 48.273147 
L 613.707562 48.201265 
L 614.827743 48.416911 
L 615.947925 47.482445 
L 617.068106 47.374623 
L 618.188287 46.655803 
L 619.308468 45.218164 
L 620.42865 46.763626 
L 621.548831 46.943331 
L 622.669012 46.90739 
L 623.789193 47.302741 
L 624.909374 46.296393 
L 626.029556 46.979272 
L 627.149737 48.273147 
L 628.269918 47.087095 
L 629.390099 47.302741 
L 630.51028 45.505692 
L 631.630462 49.998314 
L 632.750643 45.829161 
L 633.870824 45.757279 
L 634.991005 45.865102 
L 636.111187 45.110341 
L 637.231368 47.230859 
L 638.351549 43.996171 
L 639.47173 44.139935 
L 640.591911 44.427463 
L 641.712093 46.080747 
L 642.832274 44.463404 
L 643.952455 45.290046 
L 645.072636 43.457056 
L 646.192818 44.894695 
L 647.312999 45.146282 
L 648.43318 42.235063 
L 649.553361 45.43381 
L 650.673542 43.60082 
L 651.793724 45.43381 
L 652.913905 45.110341 
L 654.034086 45.936984 
L 655.154267 43.205469 
L 656.274449 43.780525 
L 657.39463 42.12724 
L 658.514811 44.966577 
L 659.634992 43.744584 
L 660.755173 43.924289 
L 661.875355 44.858754 
L 664.115717 43.421115 
L 665.235898 44.427463 
L 666.35608 42.630414 
L 667.476261 45.002518 
L 668.596442 43.888348 
L 669.716623 43.924289 
L 670.836804 42.163181 
L 671.956986 43.169528 
L 673.077167 43.133587 
L 674.197348 40.186427 
L 675.317529 43.349233 
L 676.437711 43.96023 
L 677.557892 41.695948 
L 678.678073 43.061705 
L 679.798254 44.068053 
L 680.918435 41.875653 
L 682.038617 42.414768 
L 683.158798 42.055358 
L 684.278979 41.947535 
L 685.39916 40.114545 
L 686.519342 42.522591 
L 687.639523 41.839712 
L 689.879885 42.019417 
L 691.000066 42.522591 
L 692.120248 41.444362 
L 693.240429 41.76783 
L 693.240429 41.76783 
" clip-path="url(#p9bd3019783)" style="fill: none; stroke: #1f77b4; stroke-width: 1.5; stroke-linecap: square"/>
   </g>
   <g id="line2d_29">
    <path d="M 419.916211 303.74879 
L 422.156573 304.805455 
L 423.276755 304.101011 
L 424.396936 303.74879 
L 425.517117 303.74879 
L 426.637298 300.402685 
L 427.757479 297.408802 
L 428.877661 298.817688 
L 429.997842 295.471583 
L 431.118023 293.358254 
L 432.238204 291.597146 
L 433.358386 278.212727 
L 434.478567 295.823805 
L 435.598748 283.49605 
L 436.718929 285.433269 
L 437.83911 273.986068 
L 438.959292 274.690511 
L 440.079473 263.0672 
L 441.199654 245.984454 
L 442.319835 234.185032 
L 443.440017 277.684394 
L 444.560198 253.733328 
L 445.680379 264.299975 
L 446.80056 259.368873 
L 447.920741 235.946139 
L 449.040923 232.423924 
L 450.161104 224.85116 
L 451.281285 245.456121 
L 452.401466 233.656699 
L 453.521648 248.097783 
L 454.641829 243.518903 
L 455.76201 218.687283 
L 456.882191 242.990571 
L 458.002372 247.39334 
L 459.122554 225.555603 
L 460.242735 232.776145 
L 461.362916 217.630618 
L 462.483097 245.456121 
L 463.603279 250.211113 
L 464.72346 236.298361 
L 465.843641 226.260046 
L 466.963822 229.958373 
L 468.084003 221.681166 
L 469.204185 233.304478 
L 470.324366 215.341178 
L 471.444547 222.913942 
L 472.564728 241.933906 
L 473.68491 189.452893 
L 474.805091 232.952256 
L 475.925272 226.96449 
L 477.045453 202.132869 
L 478.165634 201.428426 
L 479.285816 204.59842 
L 480.405997 218.687283 
L 481.526178 226.436157 
L 482.646359 220.976723 
L 483.766541 194.031774 
L 484.886722 241.757795 
L 486.006903 200.547872 
L 487.127084 199.667319 
L 488.247265 188.572339 
L 489.367447 183.289016 
L 490.487628 209.177301 
L 491.607809 197.906211 
L 492.72799 208.648968 
L 493.848172 200.723983 
L 494.968353 231.015037 
L 496.088534 207.063971 
L 497.208715 207.416193 
L 498.328896 222.385609 
L 499.449078 207.768414 
L 500.569259 206.007307 
L 501.68944 204.774531 
L 502.809621 200.01954 
L 503.929802 181.88013 
L 505.049984 198.082322 
L 506.170165 184.16957 
L 507.290346 215.86951 
L 508.410527 205.655085 
L 509.530709 198.434543 
L 510.65089 211.466741 
L 511.771071 210.586187 
L 512.891252 217.806729 
L 515.131615 202.132869 
L 516.251796 192.094555 
L 517.371977 195.44066 
L 519.61234 201.076205 
L 520.732521 204.42231 
L 521.852702 203.893977 
L 522.972883 180.647354 
L 524.093064 183.817348 
L 525.213246 195.616771 
L 526.333427 180.647354 
L 527.453608 178.534025 
L 528.573789 213.932292 
L 529.693971 174.307366 
L 530.814152 217.278397 
L 531.934333 191.214001 
L 533.054514 210.762298 
L 534.174695 187.339564 
L 535.294877 167.439046 
L 536.415058 181.704019 
L 537.535239 177.301249 
L 538.65542 175.716252 
L 539.775602 191.03789 
L 540.895783 193.15122 
L 542.015964 170.256818 
L 543.136145 192.975109 
L 544.256326 191.742333 
L 545.376508 186.635121 
L 546.496689 203.541756 
L 547.61687 192.798998 
L 548.737051 207.416193 
L 549.857233 193.15122 
L 550.977414 198.082322 
L 552.097595 196.673435 
L 553.217776 204.070088 
L 554.337957 189.276782 
L 555.458139 176.596806 
L 556.57832 198.082322 
L 557.698501 171.137372 
L 558.818682 188.572339 
L 559.938864 167.615156 
L 561.059045 182.760684 
L 562.179226 199.491208 
L 563.299407 193.855663 
L 564.419588 208.296747 
L 565.53977 194.031774 
L 566.659951 177.301249 
L 567.780132 222.209498 
L 568.900313 220.27228 
L 570.020495 188.924561 
L 571.140676 171.489594 
L 572.260857 195.792881 
L 573.381038 203.013423 
L 574.501219 200.01954 
L 575.621401 183.112905 
L 576.741582 181.351797 
L 577.861763 162.507944 
L 578.981944 201.780648 
L 581.222307 149.827968 
L 582.342488 174.131255 
L 583.462669 161.62739 
L 584.58285 206.71175 
L 585.703032 178.534025 
L 586.823213 182.760684 
L 587.943394 189.981226 
L 589.063575 161.451279 
L 590.183757 154.406848 
L 591.303938 188.220118 
L 592.424119 163.212387 
L 593.5443 172.017926 
L 594.664481 200.371762 
L 595.784663 178.710136 
L 596.904844 161.62739 
L 598.025025 193.855663 
L 599.145206 172.370148 
L 600.265388 204.59842 
L 601.385569 167.086824 
L 602.50575 170.080707 
L 603.625931 161.099058 
L 604.746112 177.47736 
L 605.866294 173.426812 
L 606.986475 185.050124 
L 608.106656 156.872399 
L 609.226837 166.910713 
L 610.347019 164.092941 
L 611.4672 182.760684 
L 612.587381 183.289016 
L 613.707562 185.578456 
L 614.827743 180.295133 
L 615.947925 169.200154 
L 617.068106 172.194037 
L 618.188287 154.054626 
L 619.308468 162.155722 
L 620.42865 163.036276 
L 621.548831 184.874013 
L 622.669012 169.200154 
L 623.789193 165.677938 
L 626.029556 185.226235 
L 627.149737 184.345681 
L 628.269918 184.697902 
L 629.390099 164.621273 
L 630.51028 186.811232 
L 631.630462 165.149606 
L 632.750643 184.16957 
L 633.870824 155.463513 
L 634.991005 153.878516 
L 636.111187 172.194037 
L 637.231368 136.619659 
L 638.351549 174.131255 
L 639.47173 154.75907 
L 640.591911 167.439046 
L 641.712093 162.155722 
L 642.832274 163.740719 
L 643.952455 156.344067 
L 645.072636 194.031774 
L 646.192818 184.521791 
L 647.312999 161.979612 
L 648.43318 185.578456 
L 649.553361 161.979612 
L 650.673542 177.653471 
L 651.793724 170.961261 
L 652.913905 187.339564 
L 654.034086 170.785151 
L 655.154267 171.841815 
L 656.274449 173.074591 
L 657.39463 173.955145 
L 658.514811 161.803501 
L 659.634992 157.400731 
L 660.755173 161.099058 
L 661.875355 171.313483 
L 662.995536 160.218504 
L 664.115717 171.665704 
L 665.235898 162.860165 
L 666.35608 176.244585 
L 667.476261 168.49571 
L 668.596442 173.779034 
L 669.716623 170.785151 
L 670.836804 171.665704 
L 671.956986 166.558492 
L 673.077167 145.95353 
L 674.197348 176.420696 
L 675.317529 168.143489 
L 676.437711 150.884632 
L 677.557892 165.149606 
L 678.678073 166.20627 
L 679.798254 162.331833 
L 680.918435 156.872399 
L 682.038617 155.815734 
L 683.158798 164.445162 
L 684.278979 162.684055 
L 685.39916 168.3196 
L 686.519342 162.860165 
L 687.639523 153.526294 
L 688.759704 169.200154 
L 689.879885 169.200154 
L 691.000066 163.564609 
L 692.120248 164.621273 
L 693.240429 170.080707 
L 693.240429 170.080707 
" clip-path="url(#p9bd3019783)" style="fill: none; stroke: #ff7f0e; stroke-width: 1.5; stroke-linecap: square"/>
   </g>
   <g id="patch_9">
    <path d="M 406.25 318.04 
L 406.25 26.88 
" style="fill: none; stroke: #000000; stroke-width: 0.8; stroke-linejoin: miter; stroke-linecap: square"/>
   </g>
   <g id="patch_10">
    <path d="M 706.90664 318.04 
L 706.90664 26.88 
" style="fill: none; stroke: #000000; stroke-width: 0.8; stroke-linejoin: miter; stroke-linecap: square"/>
   </g>
   <g id="patch_11">
    <path d="M 406.25 318.04 
L 706.90664 318.04 
" style="fill: none; stroke: #000000; stroke-width: 0.8; stroke-linejoin: miter; stroke-linecap: square"/>
   </g>
   <g id="patch_12">
    <path d="M 406.25 26.88 
L 706.90664 26.88 
" style="fill: none; stroke: #000000; stroke-width: 0.8; stroke-linejoin: miter; stroke-linecap: square"/>
   </g>
   <g id="text_31">
    <!-- Accuracy vs Epoch -->
    <g transform="translate(500.32082 20.88) scale(0.12 -0.12)">
     <use xlink:href="#DejaVuSans-41"/>
     <use xlink:href="#DejaVuSans-63" x="66.658203"/>
     <use xlink:href="#DejaVuSans-63" x="121.638672"/>
     <use xlink:href="#DejaVuSans-75" x="176.619141"/>
     <use xlink:href="#DejaVuSans-72" x="239.998047"/>
     <use xlink:href="#DejaVuSans-61" x="281.111328"/>
     <use xlink:href="#DejaVuSans-63" x="342.390625"/>
     <use xlink:href="#DejaVuSans-79" x="397.371094"/>
     <use xlink:href="#DejaVuSans-20" x="456.550781"/>
     <use xlink:href="#DejaVuSans-76" x="488.337891"/>
     <use xlink:href="#DejaVuSans-73" x="547.517578"/>
     <use xlink:href="#DejaVuSans-20" x="599.617188"/>
     <use xlink:href="#DejaVuSans-45" x="631.404297"/>
     <use xlink:href="#DejaVuSans-70" x="694.587891"/>
     <use xlink:href="#DejaVuSans-6f" x="758.064453"/>
     <use xlink:href="#DejaVuSans-63" x="819.246094"/>
     <use xlink:href="#DejaVuSans-68" x="874.226562"/>
    </g>
   </g>
   <g id="legend_2">
    <g id="patch_13">
     <path d="M 569.691015 313.04 
L 699.90664 313.04 
Q 701.90664 313.04 701.90664 311.04 
L 701.90664 282.68375 
Q 701.90664 280.68375 699.90664 280.68375 
L 569.691015 280.68375 
Q 567.691015 280.68375 567.691015 282.68375 
L 567.691015 311.04 
Q 567.691015 313.04 569.691015 313.04 
z
" style="fill: #ffffff; opacity: 0.8; stroke: #cccccc; stroke-linejoin: miter"/>
    </g>
    <g id="line2d_30">
     <path d="M 571.691015 288.782188 
L 581.691015 288.782188 
L 591.691015 288.782188 
" style="fill: none; stroke: #1f77b4; stroke-width: 1.5; stroke-linecap: square"/>
    </g>
    <g id="text_32">
     <!-- Train Accuracy -->
     <g transform="translate(599.691015 292.282188) scale(0.1 -0.1)">
      <use xlink:href="#DejaVuSans-54"/>
      <use xlink:href="#DejaVuSans-72" x="46.333984"/>
      <use xlink:href="#DejaVuSans-61" x="87.447266"/>
      <use xlink:href="#DejaVuSans-69" x="148.726562"/>
      <use xlink:href="#DejaVuSans-6e" x="176.509766"/>
      <use xlink:href="#DejaVuSans-20" x="239.888672"/>
      <use xlink:href="#DejaVuSans-41" x="271.675781"/>
      <use xlink:href="#DejaVuSans-63" x="338.333984"/>
      <use xlink:href="#DejaVuSans-63" x="393.314453"/>
      <use xlink:href="#DejaVuSans-75" x="448.294922"/>
      <use xlink:href="#DejaVuSans-72" x="511.673828"/>
      <use xlink:href="#DejaVuSans-61" x="552.787109"/>
      <use xlink:href="#DejaVuSans-63" x="614.066406"/>
      <use xlink:href="#DejaVuSans-79" x="669.046875"/>
     </g>
    </g>
    <g id="line2d_31">
     <path d="M 571.691015 303.460313 
L 581.691015 303.460313 
L 591.691015 303.460313 
" style="fill: none; stroke: #ff7f0e; stroke-width: 1.5; stroke-linecap: square"/>
    </g>
    <g id="text_33">
     <!-- Validation Accuracy -->
     <g transform="translate(599.691015 306.960313) scale(0.1 -0.1)">
      <use xlink:href="#DejaVuSans-56"/>
      <use xlink:href="#DejaVuSans-61" x="60.658203"/>
      <use xlink:href="#DejaVuSans-6c" x="121.9375"/>
      <use xlink:href="#DejaVuSans-69" x="149.720703"/>
      <use xlink:href="#DejaVuSans-64" x="177.503906"/>
      <use xlink:href="#DejaVuSans-61" x="240.980469"/>
      <use xlink:href="#DejaVuSans-74" x="302.259766"/>
      <use xlink:href="#DejaVuSans-69" x="341.46875"/>
      <use xlink:href="#DejaVuSans-6f" x="369.251953"/>
      <use xlink:href="#DejaVuSans-6e" x="430.433594"/>
      <use xlink:href="#DejaVuSans-20" x="493.8125"/>
      <use xlink:href="#DejaVuSans-41" x="525.599609"/>
      <use xlink:href="#DejaVuSans-63" x="592.257812"/>
      <use xlink:href="#DejaVuSans-63" x="647.238281"/>
      <use xlink:href="#DejaVuSans-75" x="702.21875"/>
      <use xlink:href="#DejaVuSans-72" x="765.597656"/>
      <use xlink:href="#DejaVuSans-61" x="806.710938"/>
      <use xlink:href="#DejaVuSans-63" x="867.990234"/>
      <use xlink:href="#DejaVuSans-79" x="922.970703"/>
     </g>
    </g>
   </g>
  </g>
  <g id="axes_3">
   <g id="patch_14">
    <path d="M 764.78 318.04 
L 1065.43664 318.04 
L 1065.43664 26.88 
L 764.78 26.88 
z
" style="fill: #ffffff"/>
   </g>
   <g id="matplotlib.axis_5">
    <g id="xtick_13">
     <g id="line2d_32">
      <g>
       <use xlink:href="#m3126774cd3" x="778.446211" y="318.04" style="stroke: #000000; stroke-width: 0.8"/>
      </g>
     </g>
     <g id="text_34">
      <!-- 0 -->
      <g transform="translate(775.264961 332.638438) scale(0.1 -0.1)">
       <use xlink:href="#DejaVuSans-30"/>
      </g>
     </g>
    </g>
    <g id="xtick_14">
     <g id="line2d_33">
      <g>
       <use xlink:href="#m3126774cd3" x="834.455272" y="318.04" style="stroke: #000000; stroke-width: 0.8"/>
      </g>
     </g>
     <g id="text_35">
      <!-- 50 -->
      <g transform="translate(828.092772 332.638438) scale(0.1 -0.1)">
       <use xlink:href="#DejaVuSans-35"/>
       <use xlink:href="#DejaVuSans-30" x="63.623047"/>
      </g>
     </g>
    </g>
    <g id="xtick_15">
     <g id="line2d_34">
      <g>
       <use xlink:href="#m3126774cd3" x="890.464333" y="318.04" style="stroke: #000000; stroke-width: 0.8"/>
      </g>
     </g>
     <g id="text_36">
      <!-- 100 -->
      <g transform="translate(880.920583 332.638438) scale(0.1 -0.1)">
       <use xlink:href="#DejaVuSans-31"/>
       <use xlink:href="#DejaVuSans-30" x="63.623047"/>
       <use xlink:href="#DejaVuSans-30" x="127.246094"/>
      </g>
     </g>
    </g>
    <g id="xtick_16">
     <g id="line2d_35">
      <g>
       <use xlink:href="#m3126774cd3" x="946.473394" y="318.04" style="stroke: #000000; stroke-width: 0.8"/>
      </g>
     </g>
     <g id="text_37">
      <!-- 150 -->
      <g transform="translate(936.929644 332.638438) scale(0.1 -0.1)">
       <use xlink:href="#DejaVuSans-31"/>
       <use xlink:href="#DejaVuSans-35" x="63.623047"/>
       <use xlink:href="#DejaVuSans-30" x="127.246094"/>
      </g>
     </g>
    </g>
    <g id="xtick_17">
     <g id="line2d_36">
      <g>
       <use xlink:href="#m3126774cd3" x="1002.482455" y="318.04" style="stroke: #000000; stroke-width: 0.8"/>
      </g>
     </g>
     <g id="text_38">
      <!-- 200 -->
      <g transform="translate(992.938705 332.638438) scale(0.1 -0.1)">
       <use xlink:href="#DejaVuSans-32"/>
       <use xlink:href="#DejaVuSans-30" x="63.623047"/>
       <use xlink:href="#DejaVuSans-30" x="127.246094"/>
      </g>
     </g>
    </g>
    <g id="xtick_18">
     <g id="line2d_37">
      <g>
       <use xlink:href="#m3126774cd3" x="1058.491516" y="318.04" style="stroke: #000000; stroke-width: 0.8"/>
      </g>
     </g>
     <g id="text_39">
      <!-- 250 -->
      <g transform="translate(1048.947766 332.638438) scale(0.1 -0.1)">
       <use xlink:href="#DejaVuSans-32"/>
       <use xlink:href="#DejaVuSans-35" x="63.623047"/>
       <use xlink:href="#DejaVuSans-30" x="127.246094"/>
      </g>
     </g>
    </g>
    <g id="text_40">
     <!-- Epoch -->
     <g transform="translate(899.797382 346.316563) scale(0.1 -0.1)">
      <use xlink:href="#DejaVuSans-45"/>
      <use xlink:href="#DejaVuSans-70" x="63.183594"/>
      <use xlink:href="#DejaVuSans-6f" x="126.660156"/>
      <use xlink:href="#DejaVuSans-63" x="187.841797"/>
      <use xlink:href="#DejaVuSans-68" x="242.822266"/>
     </g>
    </g>
   </g>
   <g id="matplotlib.axis_6">
    <g id="ytick_12">
     <g id="line2d_38">
      <g>
       <use xlink:href="#md79c81a0a0" x="764.78" y="297.815669" style="stroke: #000000; stroke-width: 0.8"/>
      </g>
     </g>
     <g id="text_41">
      <!-- 0.76 -->
      <g transform="translate(735.514375 301.614888) scale(0.1 -0.1)">
       <use xlink:href="#DejaVuSans-30"/>
       <use xlink:href="#DejaVuSans-2e" x="63.623047"/>
       <use xlink:href="#DejaVuSans-37" x="95.410156"/>
       <use xlink:href="#DejaVuSans-36" x="159.033203"/>
      </g>
     </g>
    </g>
    <g id="ytick_13">
     <g id="line2d_39">
      <g>
       <use xlink:href="#md79c81a0a0" x="764.78" y="261.457887" style="stroke: #000000; stroke-width: 0.8"/>
      </g>
     </g>
     <g id="text_42">
      <!-- 0.78 -->
      <g transform="translate(735.514375 265.257105) scale(0.1 -0.1)">
       <use xlink:href="#DejaVuSans-30"/>
       <use xlink:href="#DejaVuSans-2e" x="63.623047"/>
       <use xlink:href="#DejaVuSans-37" x="95.410156"/>
       <use xlink:href="#DejaVuSans-38" x="159.033203"/>
      </g>
     </g>
    </g>
    <g id="ytick_14">
     <g id="line2d_40">
      <g>
       <use xlink:href="#md79c81a0a0" x="764.78" y="225.100104" style="stroke: #000000; stroke-width: 0.8"/>
      </g>
     </g>
     <g id="text_43">
      <!-- 0.80 -->
      <g transform="translate(735.514375 228.899323) scale(0.1 -0.1)">
       <use xlink:href="#DejaVuSans-30"/>
       <use xlink:href="#DejaVuSans-2e" x="63.623047"/>
       <use xlink:href="#DejaVuSans-38" x="95.410156"/>
       <use xlink:href="#DejaVuSans-30" x="159.033203"/>
      </g>
     </g>
    </g>
    <g id="ytick_15">
     <g id="line2d_41">
      <g>
       <use xlink:href="#md79c81a0a0" x="764.78" y="188.742322" style="stroke: #000000; stroke-width: 0.8"/>
      </g>
     </g>
     <g id="text_44">
      <!-- 0.82 -->
      <g transform="translate(735.514375 192.541541) scale(0.1 -0.1)">
       <use xlink:href="#DejaVuSans-30"/>
       <use xlink:href="#DejaVuSans-2e" x="63.623047"/>
       <use xlink:href="#DejaVuSans-38" x="95.410156"/>
       <use xlink:href="#DejaVuSans-32" x="159.033203"/>
      </g>
     </g>
    </g>
    <g id="ytick_16">
     <g id="line2d_42">
      <g>
       <use xlink:href="#md79c81a0a0" x="764.78" y="152.38454" style="stroke: #000000; stroke-width: 0.8"/>
      </g>
     </g>
     <g id="text_45">
      <!-- 0.84 -->
      <g transform="translate(735.514375 156.183759) scale(0.1 -0.1)">
       <use xlink:href="#DejaVuSans-30"/>
       <use xlink:href="#DejaVuSans-2e" x="63.623047"/>
       <use xlink:href="#DejaVuSans-38" x="95.410156"/>
       <use xlink:href="#DejaVuSans-34" x="159.033203"/>
      </g>
     </g>
    </g>
    <g id="ytick_17">
     <g id="line2d_43">
      <g>
       <use xlink:href="#md79c81a0a0" x="764.78" y="116.026758" style="stroke: #000000; stroke-width: 0.8"/>
      </g>
     </g>
     <g id="text_46">
      <!-- 0.86 -->
      <g transform="translate(735.514375 119.825976) scale(0.1 -0.1)">
       <use xlink:href="#DejaVuSans-30"/>
       <use xlink:href="#DejaVuSans-2e" x="63.623047"/>
       <use xlink:href="#DejaVuSans-38" x="95.410156"/>
       <use xlink:href="#DejaVuSans-36" x="159.033203"/>
      </g>
     </g>
    </g>
    <g id="ytick_18">
     <g id="line2d_44">
      <g>
       <use xlink:href="#md79c81a0a0" x="764.78" y="79.668975" style="stroke: #000000; stroke-width: 0.8"/>
      </g>
     </g>
     <g id="text_47">
      <!-- 0.88 -->
      <g transform="translate(735.514375 83.468194) scale(0.1 -0.1)">
       <use xlink:href="#DejaVuSans-30"/>
       <use xlink:href="#DejaVuSans-2e" x="63.623047"/>
       <use xlink:href="#DejaVuSans-38" x="95.410156"/>
       <use xlink:href="#DejaVuSans-38" x="159.033203"/>
      </g>
     </g>
    </g>
    <g id="ytick_19">
     <g id="line2d_45">
      <g>
       <use xlink:href="#md79c81a0a0" x="764.78" y="43.311193" style="stroke: #000000; stroke-width: 0.8"/>
      </g>
     </g>
     <g id="text_48">
      <!-- 0.90 -->
      <g transform="translate(735.514375 47.110412) scale(0.1 -0.1)">
       <defs>
        <path id="DejaVuSans-39" d="M 703 97 
L 703 672 
Q 941 559 1184 500 
Q 1428 441 1663 441 
Q 2288 441 2617 861 
Q 2947 1281 2994 2138 
Q 2813 1869 2534 1725 
Q 2256 1581 1919 1581 
Q 1219 1581 811 2004 
Q 403 2428 403 3163 
Q 403 3881 828 4315 
Q 1253 4750 1959 4750 
Q 2769 4750 3195 4129 
Q 3622 3509 3622 2328 
Q 3622 1225 3098 567 
Q 2575 -91 1691 -91 
Q 1453 -91 1209 -44 
Q 966 3 703 97 
z
M 1959 2075 
Q 2384 2075 2632 2365 
Q 2881 2656 2881 3163 
Q 2881 3666 2632 3958 
Q 2384 4250 1959 4250 
Q 1534 4250 1286 3958 
Q 1038 3666 1038 3163 
Q 1038 2656 1286 2365 
Q 1534 2075 1959 2075 
z
" transform="scale(0.015625)"/>
       </defs>
       <use xlink:href="#DejaVuSans-30"/>
       <use xlink:href="#DejaVuSans-2e" x="63.623047"/>
       <use xlink:href="#DejaVuSans-39" x="95.410156"/>
       <use xlink:href="#DejaVuSans-30" x="159.033203"/>
      </g>
     </g>
    </g>
    <g id="text_49">
     <!-- F1-Score -->
     <g transform="translate(729.434688 194.323281) rotate(-90) scale(0.1 -0.1)">
      <defs>
       <path id="DejaVuSans-46" d="M 628 4666 
L 3309 4666 
L 3309 4134 
L 1259 4134 
L 1259 2759 
L 3109 2759 
L 3109 2228 
L 1259 2228 
L 1259 0 
L 628 0 
L 628 4666 
z
" transform="scale(0.015625)"/>
       <path id="DejaVuSans-2d" d="M 313 2009 
L 1997 2009 
L 1997 1497 
L 313 1497 
L 313 2009 
z
" transform="scale(0.015625)"/>
       <path id="DejaVuSans-53" d="M 3425 4513 
L 3425 3897 
Q 3066 4069 2747 4153 
Q 2428 4238 2131 4238 
Q 1616 4238 1336 4038 
Q 1056 3838 1056 3469 
Q 1056 3159 1242 3001 
Q 1428 2844 1947 2747 
L 2328 2669 
Q 3034 2534 3370 2195 
Q 3706 1856 3706 1288 
Q 3706 609 3251 259 
Q 2797 -91 1919 -91 
Q 1588 -91 1214 -16 
Q 841 59 441 206 
L 441 856 
Q 825 641 1194 531 
Q 1563 422 1919 422 
Q 2459 422 2753 634 
Q 3047 847 3047 1241 
Q 3047 1584 2836 1778 
Q 2625 1972 2144 2069 
L 1759 2144 
Q 1053 2284 737 2584 
Q 422 2884 422 3419 
Q 422 4038 858 4394 
Q 1294 4750 2059 4750 
Q 2388 4750 2728 4690 
Q 3069 4631 3425 4513 
z
" transform="scale(0.015625)"/>
       <path id="DejaVuSans-65" d="M 3597 1894 
L 3597 1613 
L 953 1613 
Q 991 1019 1311 708 
Q 1631 397 2203 397 
Q 2534 397 2845 478 
Q 3156 559 3463 722 
L 3463 178 
Q 3153 47 2828 -22 
Q 2503 -91 2169 -91 
Q 1331 -91 842 396 
Q 353 884 353 1716 
Q 353 2575 817 3079 
Q 1281 3584 2069 3584 
Q 2775 3584 3186 3129 
Q 3597 2675 3597 1894 
z
M 3022 2063 
Q 3016 2534 2758 2815 
Q 2500 3097 2075 3097 
Q 1594 3097 1305 2825 
Q 1016 2553 972 2059 
L 3022 2063 
z
" transform="scale(0.015625)"/>
      </defs>
      <use xlink:href="#DejaVuSans-46"/>
      <use xlink:href="#DejaVuSans-31" x="57.519531"/>
      <use xlink:href="#DejaVuSans-2d" x="121.142578"/>
      <use xlink:href="#DejaVuSans-53" x="157.226562"/>
      <use xlink:href="#DejaVuSans-63" x="220.703125"/>
      <use xlink:href="#DejaVuSans-6f" x="275.683594"/>
      <use xlink:href="#DejaVuSans-72" x="336.865234"/>
      <use xlink:href="#DejaVuSans-65" x="375.728516"/>
     </g>
    </g>
   </g>
   <g id="line2d_46">
    <path d="M 778.446211 292.415245 
L 781.806755 219.336651 
L 782.926936 218.362279 
L 784.047117 216.062095 
L 785.167298 205.987204 
L 786.287479 190.685104 
L 787.407661 199.486552 
L 788.527842 180.532619 
L 789.648023 185.960103 
L 790.768204 173.327907 
L 791.888386 180.92288 
L 793.008567 171.025003 
L 794.128748 165.067724 
L 795.248929 154.252836 
L 796.36911 160.356531 
L 797.489292 146.930826 
L 798.609473 148.251801 
L 799.729654 138.250998 
L 800.849835 129.870508 
L 801.970017 127.731843 
L 803.090198 135.820119 
L 804.210379 138.760172 
L 805.33056 129.366677 
L 806.450741 127.39238 
L 807.570923 124.313948 
L 808.691104 115.834055 
L 809.811285 115.016485 
L 810.931466 113.341245 
L 812.051648 114.654294 
L 813.171829 120.389987 
L 814.29201 114.261565 
L 815.412191 109.06049 
L 816.532372 107.39572 
L 817.652554 108.992609 
L 818.772735 102.894057 
L 819.892916 105.547614 
L 821.013097 98.090227 
L 822.133279 107.790669 
L 823.25346 100.90956 
L 824.373641 103.212319 
L 825.493822 101.029393 
L 826.614003 100.053293 
L 827.734185 97.221008 
L 828.854366 99.690704 
L 829.974547 91.999433 
L 831.094728 92.849529 
L 832.21491 91.169906 
L 833.335091 86.408602 
L 834.455272 90.504205 
L 835.575453 89.367353 
L 836.695634 83.032511 
L 837.815816 82.039994 
L 838.935997 84.261342 
L 840.056178 84.674111 
L 841.176359 79.535157 
L 842.296541 81.968311 
L 843.416722 79.007367 
L 844.536903 82.88508 
L 845.657084 79.732252 
L 846.777265 81.623365 
L 847.897447 81.521601 
L 849.017628 75.788282 
L 850.137809 78.887688 
L 851.25799 73.770703 
L 852.378172 73.497681 
L 853.498353 76.634506 
L 854.618534 84.766929 
L 855.738715 80.253874 
L 856.858896 76.231397 
L 857.979078 78.212578 
L 859.099259 77.263986 
L 860.21944 75.906093 
L 861.339621 73.08014 
L 862.459802 74.181711 
L 863.579984 71.674002 
L 864.700165 69.551023 
L 865.820346 68.569353 
L 866.940527 73.587595 
L 868.060709 71.284086 
L 869.18089 69.376823 
L 870.301071 69.335583 
L 871.421252 71.597753 
L 872.541433 73.431472 
L 874.781796 67.041431 
L 875.901977 69.203837 
L 877.022158 68.345199 
L 878.14234 70.997315 
L 879.262521 67.401006 
L 880.382702 68.063545 
L 881.502883 66.35617 
L 883.743246 65.209426 
L 884.863427 65.962059 
L 885.983608 66.384347 
L 887.103789 64.514231 
L 888.223971 65.662289 
L 889.344152 64.940072 
L 890.464333 69.58579 
L 891.584514 64.670691 
L 892.704695 63.033904 
L 893.824877 64.141949 
L 894.945058 61.489151 
L 896.065239 66.151338 
L 897.18542 61.439779 
L 898.305602 62.059384 
L 899.425783 63.116354 
L 900.545964 63.872429 
L 901.666145 61.800177 
L 902.786326 62.836531 
L 903.906508 62.214404 
L 905.026689 60.161469 
L 906.14687 62.381394 
L 907.267051 58.268774 
L 908.387233 64.46288 
L 909.507414 62.670677 
L 910.627595 62.4741 
L 911.747776 63.820998 
L 912.867957 61.345622 
L 913.988139 61.354376 
L 915.10832 62.525186 
L 916.228501 64.007161 
L 917.348682 58.676529 
L 918.468864 59.241558 
L 919.589045 55.474622 
L 920.709226 57.155735 
L 921.829407 58.233641 
L 922.949588 57.643679 
L 924.06977 58.290159 
L 925.189951 59.375392 
L 926.310132 55.331065 
L 927.430313 58.402381 
L 928.550495 59.100699 
L 929.670676 57.237535 
L 930.790857 57.240431 
L 931.911038 55.916517 
L 933.031219 55.337738 
L 934.151401 55.535468 
L 935.271582 58.183178 
L 936.391763 57.9752 
L 937.511944 54.114462 
L 938.632126 55.480187 
L 939.752307 55.216118 
L 941.992669 56.107841 
L 943.11285 54.603009 
L 944.233032 57.541719 
L 945.353213 56.331077 
L 946.473394 53.06572 
L 947.593575 55.679373 
L 948.713757 52.042394 
L 949.833938 52.918303 
L 950.954119 51.377231 
L 952.0743 51.948254 
L 953.194481 53.235096 
L 954.314663 55.844984 
L 955.434844 49.93697 
L 956.555025 53.274081 
L 957.675206 51.567964 
L 958.795388 52.233434 
L 959.915569 54.464345 
L 961.03575 50.612608 
L 963.276112 51.700302 
L 964.396294 51.430102 
L 965.516475 51.008183 
L 966.636656 54.335064 
L 967.756837 49.209948 
L 968.877019 51.364689 
L 969.9972 51.154166 
L 971.117381 50.596181 
L 972.237562 50.735913 
L 973.357743 50.763317 
L 974.477925 49.60873 
L 975.598106 49.521851 
L 976.718287 48.425507 
L 977.838468 46.722156 
L 978.95865 48.598953 
L 980.078831 49.029293 
L 981.199012 48.862356 
L 982.319193 49.496077 
L 983.439374 48.02626 
L 984.559556 48.907568 
L 985.679737 50.644702 
L 986.799918 49.110039 
L 987.920099 49.187678 
L 989.04028 47.228917 
L 990.160462 52.8643 
L 991.280643 47.491535 
L 992.400824 47.340996 
L 993.521005 47.571615 
L 994.641187 46.491963 
L 995.761368 49.248471 
L 996.881549 45.079123 
L 999.121911 45.591657 
L 1000.242093 47.775104 
L 1001.362274 45.728078 
L 1002.482455 46.748917 
L 1003.602636 44.393492 
L 1004.722818 46.155287 
L 1005.842999 46.695375 
L 1006.96318 42.79806 
L 1008.083361 47.011647 
L 1009.203542 44.721133 
L 1010.323724 46.964046 
L 1011.443905 46.615428 
L 1012.564086 47.626726 
L 1013.684267 44.165363 
L 1014.804449 44.827461 
L 1015.92463 42.616292 
L 1017.044811 46.267489 
L 1018.164992 44.794917 
L 1019.285173 45.183765 
L 1020.405355 46.170228 
L 1022.645717 44.548805 
L 1023.765898 45.676693 
L 1024.88608 43.269219 
L 1026.006261 46.423202 
L 1027.126442 44.840398 
L 1028.246623 45.080031 
L 1029.366804 42.630405 
L 1030.486986 44.076502 
L 1031.607167 43.819257 
L 1032.727348 40.116186 
L 1033.847529 44.267608 
L 1034.967711 45.056023 
L 1036.087892 42.167866 
L 1037.208073 44.053646 
L 1038.328254 45.257281 
L 1039.448435 42.545255 
L 1040.568617 42.980083 
L 1042.808979 42.332079 
L 1043.92916 40.114545 
L 1045.049342 43.245858 
L 1046.169523 42.345248 
L 1048.409885 42.666916 
L 1049.530066 43.236529 
L 1050.650248 41.81806 
L 1051.770429 42.326178 
L 1051.770429 42.326178 
" clip-path="url(#p80a9e938a1)" style="fill: none; stroke: #1f77b4; stroke-width: 1.5; stroke-linecap: square"/>
   </g>
   <g id="line2d_47">
    <path d="M 778.446211 302.164057 
L 779.566392 302.979225 
L 780.686573 303.512779 
L 782.926936 303.009638 
L 784.047117 304.805455 
L 785.167298 301.437815 
L 786.287479 300.431111 
L 787.407661 299.826022 
L 788.527842 298.23065 
L 789.648023 295.507859 
L 790.768204 294.57707 
L 791.888386 284.32868 
L 793.008567 296.840929 
L 794.128748 287.488499 
L 795.248929 287.945559 
L 796.36911 278.570921 
L 797.489292 279.908045 
L 798.609473 271.845252 
L 799.729654 258.130446 
L 800.849835 249.143752 
L 801.970017 280.762625 
L 803.090198 262.060502 
L 804.210379 271.125643 
L 805.33056 266.875941 
L 806.450741 248.311547 
L 807.570923 247.347359 
L 808.691104 240.421721 
L 809.811285 259.972141 
L 810.931466 248.57002 
L 812.051648 258.527896 
L 813.171829 257.765619 
L 814.29201 235.946947 
L 815.412191 257.820878 
L 816.532372 259.312501 
L 817.652554 241.769617 
L 818.772735 251.114474 
L 819.892916 235.124077 
L 821.013097 259.345155 
L 822.133279 262.473467 
L 823.25346 254.103463 
L 824.373641 240.524118 
L 825.493822 244.810913 
L 826.614003 241.279611 
L 827.734185 247.023157 
L 828.854366 232.793103 
L 829.974547 239.219631 
L 831.094728 255.435733 
L 832.21491 214.862142 
L 833.335091 248.623301 
L 834.455272 240.232047 
L 835.575453 218.881508 
L 836.695634 222.040901 
L 837.815816 222.824846 
L 838.935997 236.5494 
L 840.056178 241.549345 
L 841.176359 238.183239 
L 842.296541 214.769491 
L 843.416722 255.807691 
L 844.536903 220.684867 
L 845.657084 216.761357 
L 847.897447 204.203839 
L 849.017628 226.862804 
L 850.137809 216.630033 
L 851.25799 231.312928 
L 852.378172 220.771292 
L 853.498353 245.00415 
L 854.618534 225.100104 
L 855.738715 224.094704 
L 856.858896 238.725964 
L 857.979078 224.680995 
L 859.099259 223.169083 
L 860.21944 222.74249 
L 861.339621 220.341344 
L 862.459802 201.438827 
L 863.579984 219.720724 
L 864.700165 204.913267 
L 865.820346 232.269127 
L 866.940527 223.417847 
L 868.060709 216.892739 
L 869.18089 228.616169 
L 870.301071 231.445267 
L 871.421252 233.410455 
L 872.541433 227.869742 
L 873.661615 224.077022 
L 874.781796 210.577374 
L 875.901977 214.323028 
L 877.022158 216.39216 
L 878.14234 223.47718 
L 879.262521 221.487848 
L 880.382702 223.239722 
L 881.502883 202.876415 
L 882.623064 201.591265 
L 883.743246 214.247035 
L 884.863427 200.858717 
L 885.983608 198.598633 
L 887.103789 230.526639 
L 888.223971 198.540533 
L 889.344152 233.339593 
L 890.464333 212.591005 
L 891.584514 226.434641 
L 892.704695 205.125636 
L 893.824877 188.881624 
L 894.945058 203.198345 
L 897.18542 197.382438 
L 898.305602 211.757799 
L 899.425783 217.421313 
L 900.545964 192.126667 
L 901.666145 211.925455 
L 902.786326 210.315683 
L 903.906508 206.534064 
L 905.026689 220.064982 
L 906.14687 213.316699 
L 907.267051 224.596708 
L 908.387233 210.22224 
L 910.627595 217.17772 
L 911.747776 221.067818 
L 912.867957 210.275932 
L 913.988139 195.481604 
L 915.10832 216.469679 
L 916.228501 194.36907 
L 917.348682 206.653439 
L 918.468864 189.767407 
L 919.589045 203.195239 
L 920.709226 218.494218 
L 921.829407 212.127295 
L 922.949588 225.855634 
L 924.06977 212.871865 
L 925.189951 196.973786 
L 926.310132 237.358794 
L 927.430313 235.72036 
L 928.550495 207.32103 
L 929.670676 192.579727 
L 930.790857 216.653735 
L 931.911038 220.222123 
L 933.031219 217.26492 
L 934.151401 202.496891 
L 935.271582 201.156233 
L 936.391763 186.995878 
L 937.511944 218.378851 
L 938.632126 198.987739 
L 939.752307 175.305945 
L 940.872488 195.47332 
L 941.992669 184.912642 
L 943.11285 222.425201 
L 944.233032 202.064092 
L 945.353213 202.872639 
L 946.473394 209.166415 
L 947.593575 185.437069 
L 948.713757 179.942349 
L 949.833938 208.745096 
L 950.954119 186.223692 
L 952.0743 190.990458 
L 953.194481 218.430501 
L 954.314663 198.853658 
L 955.434844 182.968956 
L 956.555025 212.209078 
L 957.675206 194.100037 
L 958.795388 221.906033 
L 959.915569 187.587418 
L 961.03575 191.081127 
L 962.155931 183.04773 
L 963.276112 198.024701 
L 964.396294 195.562121 
L 965.516475 204.165541 
L 966.636656 179.322751 
L 967.756837 189.130825 
L 968.877019 186.340635 
L 969.9972 203.114532 
L 971.117381 202.51019 
L 972.237562 205.250697 
L 973.357743 200.348795 
L 974.477925 190.035545 
L 975.598106 192.893663 
L 976.718287 176.106098 
L 977.838468 183.199179 
L 978.95865 185.261956 
L 980.078831 204.799022 
L 981.199012 190.585423 
L 982.319193 188.505948 
L 983.439374 198.393945 
L 984.559556 205.146357 
L 985.679737 203.230762 
L 986.799918 203.336643 
L 987.920099 187.978835 
L 989.04028 205.654704 
L 990.160462 187.339407 
L 991.280643 203.781165 
L 992.400824 179.40937 
L 993.521005 178.846779 
L 994.641187 190.854696 
L 995.761368 162.428326 
L 996.881549 194.284035 
L 998.00173 177.293413 
L 999.121911 188.646621 
L 1000.242093 185.925254 
L 1001.362274 183.963324 
L 1002.482455 180.555068 
L 1003.602636 210.832218 
L 1004.722818 203.2436 
L 1005.842999 185.822956 
L 1006.96318 204.202376 
L 1008.083361 184.648946 
L 1009.203542 199.482624 
L 1010.323724 192.442374 
L 1011.443905 205.930799 
L 1012.564086 191.870107 
L 1013.684267 191.282924 
L 1014.804449 194.411848 
L 1015.92463 196.734334 
L 1017.044811 184.546518 
L 1018.164992 181.883449 
L 1019.285173 183.357933 
L 1020.405355 192.560323 
L 1021.525536 181.991226 
L 1022.645717 192.836042 
L 1023.765898 184.537443 
L 1024.88608 197.831768 
L 1026.006261 189.951638 
L 1027.126442 195.517657 
L 1028.246623 192.422858 
L 1029.366804 191.890332 
L 1030.486986 189.166358 
L 1031.607167 173.457066 
L 1032.727348 197.448315 
L 1033.847529 189.202987 
L 1034.967711 175.412026 
L 1036.087892 187.182821 
L 1037.208073 187.631329 
L 1038.328254 184.541971 
L 1039.448435 179.553767 
L 1040.568617 180.007241 
L 1041.688798 187.326923 
L 1042.808979 185.21393 
L 1043.92916 190.166666 
L 1045.049342 185.784907 
L 1046.169523 177.860294 
L 1047.289704 193.362662 
L 1048.409885 190.979322 
L 1049.530066 186.819513 
L 1050.650248 187.506736 
L 1051.770429 191.869639 
L 1051.770429 191.869639 
" clip-path="url(#p80a9e938a1)" style="fill: none; stroke: #ff7f0e; stroke-width: 1.5; stroke-linecap: square"/>
   </g>
   <g id="patch_15">
    <path d="M 764.78 318.04 
L 764.78 26.88 
" style="fill: none; stroke: #000000; stroke-width: 0.8; stroke-linejoin: miter; stroke-linecap: square"/>
   </g>
   <g id="patch_16">
    <path d="M 1065.43664 318.04 
L 1065.43664 26.88 
" style="fill: none; stroke: #000000; stroke-width: 0.8; stroke-linejoin: miter; stroke-linecap: square"/>
   </g>
   <g id="patch_17">
    <path d="M 764.78 318.04 
L 1065.43664 318.04 
" style="fill: none; stroke: #000000; stroke-width: 0.8; stroke-linejoin: miter; stroke-linecap: square"/>
   </g>
   <g id="patch_18">
    <path d="M 764.78 26.88 
L 1065.43664 26.88 
" style="fill: none; stroke: #000000; stroke-width: 0.8; stroke-linejoin: miter; stroke-linecap: square"/>
   </g>
   <g id="text_50">
    <!-- F1-Score vs Epoch -->
    <g transform="translate(860.008632 20.88) scale(0.12 -0.12)">
     <use xlink:href="#DejaVuSans-46"/>
     <use xlink:href="#DejaVuSans-31" x="57.519531"/>
     <use xlink:href="#DejaVuSans-2d" x="121.142578"/>
     <use xlink:href="#DejaVuSans-53" x="157.226562"/>
     <use xlink:href="#DejaVuSans-63" x="220.703125"/>
     <use xlink:href="#DejaVuSans-6f" x="275.683594"/>
     <use xlink:href="#DejaVuSans-72" x="336.865234"/>
     <use xlink:href="#DejaVuSans-65" x="375.728516"/>
     <use xlink:href="#DejaVuSans-20" x="437.251953"/>
     <use xlink:href="#DejaVuSans-76" x="469.039062"/>
     <use xlink:href="#DejaVuSans-73" x="528.21875"/>
     <use xlink:href="#DejaVuSans-20" x="580.318359"/>
     <use xlink:href="#DejaVuSans-45" x="612.105469"/>
     <use xlink:href="#DejaVuSans-70" x="675.289062"/>
     <use xlink:href="#DejaVuSans-6f" x="738.765625"/>
     <use xlink:href="#DejaVuSans-63" x="799.947266"/>
     <use xlink:href="#DejaVuSans-68" x="854.927734"/>
    </g>
   </g>
   <g id="legend_3">
    <g id="patch_19">
     <path d="M 771.78 64.23625 
L 868.453438 64.23625 
Q 870.453438 64.23625 870.453438 62.23625 
L 870.453438 33.88 
Q 870.453438 31.88 868.453438 31.88 
L 771.78 31.88 
Q 769.78 31.88 769.78 33.88 
L 769.78 62.23625 
Q 769.78 64.23625 771.78 64.23625 
z
" style="fill: #ffffff; opacity: 0.8; stroke: #cccccc; stroke-linejoin: miter"/>
    </g>
    <g id="line2d_48">
     <path d="M 773.78 39.978437 
L 783.78 39.978437 
L 793.78 39.978437 
" style="fill: none; stroke: #1f77b4; stroke-width: 1.5; stroke-linecap: square"/>
    </g>
    <g id="text_51">
     <!-- Train F1 -->
     <g transform="translate(801.78 43.478437) scale(0.1 -0.1)">
      <use xlink:href="#DejaVuSans-54"/>
      <use xlink:href="#DejaVuSans-72" x="46.333984"/>
      <use xlink:href="#DejaVuSans-61" x="87.447266"/>
      <use xlink:href="#DejaVuSans-69" x="148.726562"/>
      <use xlink:href="#DejaVuSans-6e" x="176.509766"/>
      <use xlink:href="#DejaVuSans-20" x="239.888672"/>
      <use xlink:href="#DejaVuSans-46" x="271.675781"/>
      <use xlink:href="#DejaVuSans-31" x="329.195312"/>
     </g>
    </g>
    <g id="line2d_49">
     <path d="M 773.78 54.656563 
L 783.78 54.656563 
L 793.78 54.656563 
" style="fill: none; stroke: #ff7f0e; stroke-width: 1.5; stroke-linecap: square"/>
    </g>
    <g id="text_52">
     <!-- Validation F1 -->
     <g transform="translate(801.78 58.156563) scale(0.1 -0.1)">
      <use xlink:href="#DejaVuSans-56"/>
      <use xlink:href="#DejaVuSans-61" x="60.658203"/>
      <use xlink:href="#DejaVuSans-6c" x="121.9375"/>
      <use xlink:href="#DejaVuSans-69" x="149.720703"/>
      <use xlink:href="#DejaVuSans-64" x="177.503906"/>
      <use xlink:href="#DejaVuSans-61" x="240.980469"/>
      <use xlink:href="#DejaVuSans-74" x="302.259766"/>
      <use xlink:href="#DejaVuSans-69" x="341.46875"/>
      <use xlink:href="#DejaVuSans-6f" x="369.251953"/>
      <use xlink:href="#DejaVuSans-6e" x="430.433594"/>
      <use xlink:href="#DejaVuSans-20" x="493.8125"/>
      <use xlink:href="#DejaVuSans-46" x="525.599609"/>
      <use xlink:href="#DejaVuSans-31" x="583.119141"/>
     </g>
    </g>
   </g>
  </g>
 </g>
 <defs>
  <clipPath id="p95aecaf00f">
   <rect x="47.72" y="26.88" width="300.65664" height="291.16"/>
  </clipPath>
  <clipPath id="p9bd3019783">
   <rect x="406.25" y="26.88" width="300.65664" height="291.16"/>
  </clipPath>
  <clipPath id="p80a9e938a1">
   <rect x="764.78" y="26.88" width="300.65664" height="291.16"/>
  </clipPath>
 </defs>
</svg>
