<?xml version="1.0" encoding="utf-8" standalone="no"?>
<!DOCTYPE svg PUBLIC "-//W3C//DTD SVG 1.1//EN"
  "http://www.w3.org/Graphics/SVG/1.1/DTD/svg11.dtd">
<svg xmlns:xlink="http://www.w3.org/1999/xlink" width="1080pt" height="360pt" viewBox="0 0 1080 360" xmlns="http://www.w3.org/2000/svg" version="1.1">
 <metadata>
  <rdf:RDF xmlns:dc="http://purl.org/dc/elements/1.1/" xmlns:cc="http://creativecommons.org/ns#" xmlns:rdf="http://www.w3.org/1999/02/22-rdf-syntax-ns#">
   <cc:Work>
    <dc:type rdf:resource="http://purl.org/dc/dcmitype/StillImage"/>
    <dc:date>2024-10-22T10:31:15.312906</dc:date>
    <dc:format>image/svg+xml</dc:format>
    <dc:creator>
     <cc:Agent>
      <dc:title>Matplotlib v3.8.2, https://matplotlib.org/</dc:title>
     </cc:Agent>
    </dc:creator>
   </cc:Work>
  </rdf:RDF>
 </metadata>
 <defs>
  <style type="text/css">*{stroke-linejoin: round; stroke-linecap: butt}</style>
 </defs>
 <g id="figure_1">
  <g id="patch_1">
   <path d="M 0 360 
L 1080 360 
L 1080 0 
L 0 0 
z
" style="fill: #ffffff"/>
  </g>
  <g id="axes_1">
   <g id="patch_2">
    <path d="M 60.23 318.04 
L 354.989985 318.04 
L 354.989985 26.88 
L 60.23 26.88 
z
" style="fill: #ffffff"/>
   </g>
   <g id="matplotlib.axis_1">
    <g id="xtick_1">
     <g id="line2d_1">
      <defs>
       <path id="md31458ba14" d="M 0 0 
L 0 3.5 
" style="stroke: #000000; stroke-width: 0.8"/>
      </defs>
      <g>
       <use xlink:href="#md31458ba14" x="71.805299" y="318.04" style="stroke: #000000; stroke-width: 0.8"/>
      </g>
     </g>
     <g id="text_1">
      <!-- 0 -->
      <g transform="translate(68.624049 332.638438) scale(0.1 -0.1)">
       <defs>
        <path id="DejaVuSans-30" d="M 2034 4250 
Q 1547 4250 1301 3770 
Q 1056 3291 1056 2328 
Q 1056 1369 1301 889 
Q 1547 409 2034 409 
Q 2525 409 2770 889 
Q 3016 1369 3016 2328 
Q 3016 3291 2770 3770 
Q 2525 4250 2034 4250 
z
M 2034 4750 
Q 2819 4750 3233 4129 
Q 3647 3509 3647 2328 
Q 3647 1150 3233 529 
Q 2819 -91 2034 -91 
Q 1250 -91 836 529 
Q 422 1150 422 2328 
Q 422 3509 836 4129 
Q 1250 4750 2034 4750 
z
" transform="scale(0.015625)"/>
       </defs>
       <use xlink:href="#DejaVuSans-30"/>
      </g>
     </g>
    </g>
    <g id="xtick_2">
     <g id="line2d_2">
      <g>
       <use xlink:href="#md31458ba14" x="108.262935" y="318.04" style="stroke: #000000; stroke-width: 0.8"/>
      </g>
     </g>
     <g id="text_2">
      <!-- 20 -->
      <g transform="translate(101.900435 332.638438) scale(0.1 -0.1)">
       <defs>
        <path id="DejaVuSans-32" d="M 1228 531 
L 3431 531 
L 3431 0 
L 469 0 
L 469 531 
Q 828 903 1448 1529 
Q 2069 2156 2228 2338 
Q 2531 2678 2651 2914 
Q 2772 3150 2772 3378 
Q 2772 3750 2511 3984 
Q 2250 4219 1831 4219 
Q 1534 4219 1204 4116 
Q 875 4013 500 3803 
L 500 4441 
Q 881 4594 1212 4672 
Q 1544 4750 1819 4750 
Q 2544 4750 2975 4387 
Q 3406 4025 3406 3419 
Q 3406 3131 3298 2873 
Q 3191 2616 2906 2266 
Q 2828 2175 2409 1742 
Q 1991 1309 1228 531 
z
" transform="scale(0.015625)"/>
       </defs>
       <use xlink:href="#DejaVuSans-32"/>
       <use xlink:href="#DejaVuSans-30" x="63.623047"/>
      </g>
     </g>
    </g>
    <g id="xtick_3">
     <g id="line2d_3">
      <g>
       <use xlink:href="#md31458ba14" x="144.720571" y="318.04" style="stroke: #000000; stroke-width: 0.8"/>
      </g>
     </g>
     <g id="text_3">
      <!-- 40 -->
      <g transform="translate(138.358071 332.638438) scale(0.1 -0.1)">
       <defs>
        <path id="DejaVuSans-34" d="M 2419 4116 
L 825 1625 
L 2419 1625 
L 2419 4116 
z
M 2253 4666 
L 3047 4666 
L 3047 1625 
L 3713 1625 
L 3713 1100 
L 3047 1100 
L 3047 0 
L 2419 0 
L 2419 1100 
L 313 1100 
L 313 1709 
L 2253 4666 
z
" transform="scale(0.015625)"/>
       </defs>
       <use xlink:href="#DejaVuSans-34"/>
       <use xlink:href="#DejaVuSans-30" x="63.623047"/>
      </g>
     </g>
    </g>
    <g id="xtick_4">
     <g id="line2d_4">
      <g>
       <use xlink:href="#md31458ba14" x="181.178207" y="318.04" style="stroke: #000000; stroke-width: 0.8"/>
      </g>
     </g>
     <g id="text_4">
      <!-- 60 -->
      <g transform="translate(174.815707 332.638438) scale(0.1 -0.1)">
       <defs>
        <path id="DejaVuSans-36" d="M 2113 2584 
Q 1688 2584 1439 2293 
Q 1191 2003 1191 1497 
Q 1191 994 1439 701 
Q 1688 409 2113 409 
Q 2538 409 2786 701 
Q 3034 994 3034 1497 
Q 3034 2003 2786 2293 
Q 2538 2584 2113 2584 
z
M 3366 4563 
L 3366 3988 
Q 3128 4100 2886 4159 
Q 2644 4219 2406 4219 
Q 1781 4219 1451 3797 
Q 1122 3375 1075 2522 
Q 1259 2794 1537 2939 
Q 1816 3084 2150 3084 
Q 2853 3084 3261 2657 
Q 3669 2231 3669 1497 
Q 3669 778 3244 343 
Q 2819 -91 2113 -91 
Q 1303 -91 875 529 
Q 447 1150 447 2328 
Q 447 3434 972 4092 
Q 1497 4750 2381 4750 
Q 2619 4750 2861 4703 
Q 3103 4656 3366 4563 
z
" transform="scale(0.015625)"/>
       </defs>
       <use xlink:href="#DejaVuSans-36"/>
       <use xlink:href="#DejaVuSans-30" x="63.623047"/>
      </g>
     </g>
    </g>
    <g id="xtick_5">
     <g id="line2d_5">
      <g>
       <use xlink:href="#md31458ba14" x="217.635842" y="318.04" style="stroke: #000000; stroke-width: 0.8"/>
      </g>
     </g>
     <g id="text_5">
      <!-- 80 -->
      <g transform="translate(211.273342 332.638438) scale(0.1 -0.1)">
       <defs>
        <path id="DejaVuSans-38" d="M 2034 2216 
Q 1584 2216 1326 1975 
Q 1069 1734 1069 1313 
Q 1069 891 1326 650 
Q 1584 409 2034 409 
Q 2484 409 2743 651 
Q 3003 894 3003 1313 
Q 3003 1734 2745 1975 
Q 2488 2216 2034 2216 
z
M 1403 2484 
Q 997 2584 770 2862 
Q 544 3141 544 3541 
Q 544 4100 942 4425 
Q 1341 4750 2034 4750 
Q 2731 4750 3128 4425 
Q 3525 4100 3525 3541 
Q 3525 3141 3298 2862 
Q 3072 2584 2669 2484 
Q 3125 2378 3379 2068 
Q 3634 1759 3634 1313 
Q 3634 634 3220 271 
Q 2806 -91 2034 -91 
Q 1263 -91 848 271 
Q 434 634 434 1313 
Q 434 1759 690 2068 
Q 947 2378 1403 2484 
z
M 1172 3481 
Q 1172 3119 1398 2916 
Q 1625 2713 2034 2713 
Q 2441 2713 2670 2916 
Q 2900 3119 2900 3481 
Q 2900 3844 2670 4047 
Q 2441 4250 2034 4250 
Q 1625 4250 1398 4047 
Q 1172 3844 1172 3481 
z
" transform="scale(0.015625)"/>
       </defs>
       <use xlink:href="#DejaVuSans-38"/>
       <use xlink:href="#DejaVuSans-30" x="63.623047"/>
      </g>
     </g>
    </g>
    <g id="xtick_6">
     <g id="line2d_6">
      <g>
       <use xlink:href="#md31458ba14" x="254.093478" y="318.04" style="stroke: #000000; stroke-width: 0.8"/>
      </g>
     </g>
     <g id="text_6">
      <!-- 100 -->
      <g transform="translate(244.549728 332.638438) scale(0.1 -0.1)">
       <defs>
        <path id="DejaVuSans-31" d="M 794 531 
L 1825 531 
L 1825 4091 
L 703 3866 
L 703 4441 
L 1819 4666 
L 2450 4666 
L 2450 531 
L 3481 531 
L 3481 0 
L 794 0 
L 794 531 
z
" transform="scale(0.015625)"/>
       </defs>
       <use xlink:href="#DejaVuSans-31"/>
       <use xlink:href="#DejaVuSans-30" x="63.623047"/>
       <use xlink:href="#DejaVuSans-30" x="127.246094"/>
      </g>
     </g>
    </g>
    <g id="xtick_7">
     <g id="line2d_7">
      <g>
       <use xlink:href="#md31458ba14" x="290.551114" y="318.04" style="stroke: #000000; stroke-width: 0.8"/>
      </g>
     </g>
     <g id="text_7">
      <!-- 120 -->
      <g transform="translate(281.007364 332.638438) scale(0.1 -0.1)">
       <use xlink:href="#DejaVuSans-31"/>
       <use xlink:href="#DejaVuSans-32" x="63.623047"/>
       <use xlink:href="#DejaVuSans-30" x="127.246094"/>
      </g>
     </g>
    </g>
    <g id="xtick_8">
     <g id="line2d_8">
      <g>
       <use xlink:href="#md31458ba14" x="327.00875" y="318.04" style="stroke: #000000; stroke-width: 0.8"/>
      </g>
     </g>
     <g id="text_8">
      <!-- 140 -->
      <g transform="translate(317.465 332.638438) scale(0.1 -0.1)">
       <use xlink:href="#DejaVuSans-31"/>
       <use xlink:href="#DejaVuSans-34" x="63.623047"/>
       <use xlink:href="#DejaVuSans-30" x="127.246094"/>
      </g>
     </g>
    </g>
    <g id="text_9">
     <!-- Epochs -->
     <g transform="translate(189.694368 346.316563) scale(0.1 -0.1)">
      <defs>
       <path id="DejaVuSans-45" d="M 628 4666 
L 3578 4666 
L 3578 4134 
L 1259 4134 
L 1259 2753 
L 3481 2753 
L 3481 2222 
L 1259 2222 
L 1259 531 
L 3634 531 
L 3634 0 
L 628 0 
L 628 4666 
z
" transform="scale(0.015625)"/>
       <path id="DejaVuSans-70" d="M 1159 525 
L 1159 -1331 
L 581 -1331 
L 581 3500 
L 1159 3500 
L 1159 2969 
Q 1341 3281 1617 3432 
Q 1894 3584 2278 3584 
Q 2916 3584 3314 3078 
Q 3713 2572 3713 1747 
Q 3713 922 3314 415 
Q 2916 -91 2278 -91 
Q 1894 -91 1617 61 
Q 1341 213 1159 525 
z
M 3116 1747 
Q 3116 2381 2855 2742 
Q 2594 3103 2138 3103 
Q 1681 3103 1420 2742 
Q 1159 2381 1159 1747 
Q 1159 1113 1420 752 
Q 1681 391 2138 391 
Q 2594 391 2855 752 
Q 3116 1113 3116 1747 
z
" transform="scale(0.015625)"/>
       <path id="DejaVuSans-6f" d="M 1959 3097 
Q 1497 3097 1228 2736 
Q 959 2375 959 1747 
Q 959 1119 1226 758 
Q 1494 397 1959 397 
Q 2419 397 2687 759 
Q 2956 1122 2956 1747 
Q 2956 2369 2687 2733 
Q 2419 3097 1959 3097 
z
M 1959 3584 
Q 2709 3584 3137 3096 
Q 3566 2609 3566 1747 
Q 3566 888 3137 398 
Q 2709 -91 1959 -91 
Q 1206 -91 779 398 
Q 353 888 353 1747 
Q 353 2609 779 3096 
Q 1206 3584 1959 3584 
z
" transform="scale(0.015625)"/>
       <path id="DejaVuSans-63" d="M 3122 3366 
L 3122 2828 
Q 2878 2963 2633 3030 
Q 2388 3097 2138 3097 
Q 1578 3097 1268 2742 
Q 959 2388 959 1747 
Q 959 1106 1268 751 
Q 1578 397 2138 397 
Q 2388 397 2633 464 
Q 2878 531 3122 666 
L 3122 134 
Q 2881 22 2623 -34 
Q 2366 -91 2075 -91 
Q 1284 -91 818 406 
Q 353 903 353 1747 
Q 353 2603 823 3093 
Q 1294 3584 2113 3584 
Q 2378 3584 2631 3529 
Q 2884 3475 3122 3366 
z
" transform="scale(0.015625)"/>
       <path id="DejaVuSans-68" d="M 3513 2113 
L 3513 0 
L 2938 0 
L 2938 2094 
Q 2938 2591 2744 2837 
Q 2550 3084 2163 3084 
Q 1697 3084 1428 2787 
Q 1159 2491 1159 1978 
L 1159 0 
L 581 0 
L 581 4863 
L 1159 4863 
L 1159 2956 
Q 1366 3272 1645 3428 
Q 1925 3584 2291 3584 
Q 2894 3584 3203 3211 
Q 3513 2838 3513 2113 
z
" transform="scale(0.015625)"/>
       <path id="DejaVuSans-73" d="M 2834 3397 
L 2834 2853 
Q 2591 2978 2328 3040 
Q 2066 3103 1784 3103 
Q 1356 3103 1142 2972 
Q 928 2841 928 2578 
Q 928 2378 1081 2264 
Q 1234 2150 1697 2047 
L 1894 2003 
Q 2506 1872 2764 1633 
Q 3022 1394 3022 966 
Q 3022 478 2636 193 
Q 2250 -91 1575 -91 
Q 1294 -91 989 -36 
Q 684 19 347 128 
L 347 722 
Q 666 556 975 473 
Q 1284 391 1588 391 
Q 1994 391 2212 530 
Q 2431 669 2431 922 
Q 2431 1156 2273 1281 
Q 2116 1406 1581 1522 
L 1381 1569 
Q 847 1681 609 1914 
Q 372 2147 372 2553 
Q 372 3047 722 3315 
Q 1072 3584 1716 3584 
Q 2034 3584 2315 3537 
Q 2597 3491 2834 3397 
z
" transform="scale(0.015625)"/>
      </defs>
      <use xlink:href="#DejaVuSans-45"/>
      <use xlink:href="#DejaVuSans-70" x="63.183594"/>
      <use xlink:href="#DejaVuSans-6f" x="126.660156"/>
      <use xlink:href="#DejaVuSans-63" x="187.841797"/>
      <use xlink:href="#DejaVuSans-68" x="242.822266"/>
      <use xlink:href="#DejaVuSans-73" x="306.201172"/>
     </g>
    </g>
   </g>
   <g id="matplotlib.axis_2">
    <g id="ytick_1">
     <g id="line2d_9">
      <defs>
       <path id="m74f88cc7d5" d="M 0 0 
L -3.5 0 
" style="stroke: #000000; stroke-width: 0.8"/>
      </defs>
      <g>
       <use xlink:href="#m74f88cc7d5" x="60.23" y="289.064402" style="stroke: #000000; stroke-width: 0.8"/>
      </g>
     </g>
     <g id="text_10">
      <!-- 0.325 -->
      <g transform="translate(24.601875 292.863621) scale(0.1 -0.1)">
       <defs>
        <path id="DejaVuSans-2e" d="M 684 794 
L 1344 794 
L 1344 0 
L 684 0 
L 684 794 
z
" transform="scale(0.015625)"/>
        <path id="DejaVuSans-33" d="M 2597 2516 
Q 3050 2419 3304 2112 
Q 3559 1806 3559 1356 
Q 3559 666 3084 287 
Q 2609 -91 1734 -91 
Q 1441 -91 1130 -33 
Q 819 25 488 141 
L 488 750 
Q 750 597 1062 519 
Q 1375 441 1716 441 
Q 2309 441 2620 675 
Q 2931 909 2931 1356 
Q 2931 1769 2642 2001 
Q 2353 2234 1838 2234 
L 1294 2234 
L 1294 2753 
L 1863 2753 
Q 2328 2753 2575 2939 
Q 2822 3125 2822 3475 
Q 2822 3834 2567 4026 
Q 2313 4219 1838 4219 
Q 1578 4219 1281 4162 
Q 984 4106 628 3988 
L 628 4550 
Q 988 4650 1302 4700 
Q 1616 4750 1894 4750 
Q 2613 4750 3031 4423 
Q 3450 4097 3450 3541 
Q 3450 3153 3228 2886 
Q 3006 2619 2597 2516 
z
" transform="scale(0.015625)"/>
        <path id="DejaVuSans-35" d="M 691 4666 
L 3169 4666 
L 3169 4134 
L 1269 4134 
L 1269 2991 
Q 1406 3038 1543 3061 
Q 1681 3084 1819 3084 
Q 2600 3084 3056 2656 
Q 3513 2228 3513 1497 
Q 3513 744 3044 326 
Q 2575 -91 1722 -91 
Q 1428 -91 1123 -41 
Q 819 9 494 109 
L 494 744 
Q 775 591 1075 516 
Q 1375 441 1709 441 
Q 2250 441 2565 725 
Q 2881 1009 2881 1497 
Q 2881 1984 2565 2268 
Q 2250 2553 1709 2553 
Q 1456 2553 1204 2497 
Q 953 2441 691 2322 
L 691 4666 
z
" transform="scale(0.015625)"/>
       </defs>
       <use xlink:href="#DejaVuSans-30"/>
       <use xlink:href="#DejaVuSans-2e" x="63.623047"/>
       <use xlink:href="#DejaVuSans-33" x="95.410156"/>
       <use xlink:href="#DejaVuSans-32" x="159.033203"/>
       <use xlink:href="#DejaVuSans-35" x="222.65625"/>
      </g>
     </g>
    </g>
    <g id="ytick_2">
     <g id="line2d_10">
      <g>
       <use xlink:href="#m74f88cc7d5" x="60.23" y="253.092372" style="stroke: #000000; stroke-width: 0.8"/>
      </g>
     </g>
     <g id="text_11">
      <!-- 0.350 -->
      <g transform="translate(24.601875 256.89159) scale(0.1 -0.1)">
       <use xlink:href="#DejaVuSans-30"/>
       <use xlink:href="#DejaVuSans-2e" x="63.623047"/>
       <use xlink:href="#DejaVuSans-33" x="95.410156"/>
       <use xlink:href="#DejaVuSans-35" x="159.033203"/>
       <use xlink:href="#DejaVuSans-30" x="222.65625"/>
      </g>
     </g>
    </g>
    <g id="ytick_3">
     <g id="line2d_11">
      <g>
       <use xlink:href="#m74f88cc7d5" x="60.23" y="217.120341" style="stroke: #000000; stroke-width: 0.8"/>
      </g>
     </g>
     <g id="text_12">
      <!-- 0.375 -->
      <g transform="translate(24.601875 220.91956) scale(0.1 -0.1)">
       <defs>
        <path id="DejaVuSans-37" d="M 525 4666 
L 3525 4666 
L 3525 4397 
L 1831 0 
L 1172 0 
L 2766 4134 
L 525 4134 
L 525 4666 
z
" transform="scale(0.015625)"/>
       </defs>
       <use xlink:href="#DejaVuSans-30"/>
       <use xlink:href="#DejaVuSans-2e" x="63.623047"/>
       <use xlink:href="#DejaVuSans-33" x="95.410156"/>
       <use xlink:href="#DejaVuSans-37" x="159.033203"/>
       <use xlink:href="#DejaVuSans-35" x="222.65625"/>
      </g>
     </g>
    </g>
    <g id="ytick_4">
     <g id="line2d_12">
      <g>
       <use xlink:href="#m74f88cc7d5" x="60.23" y="181.14831" style="stroke: #000000; stroke-width: 0.8"/>
      </g>
     </g>
     <g id="text_13">
      <!-- 0.400 -->
      <g transform="translate(24.601875 184.947529) scale(0.1 -0.1)">
       <use xlink:href="#DejaVuSans-30"/>
       <use xlink:href="#DejaVuSans-2e" x="63.623047"/>
       <use xlink:href="#DejaVuSans-34" x="95.410156"/>
       <use xlink:href="#DejaVuSans-30" x="159.033203"/>
       <use xlink:href="#DejaVuSans-30" x="222.65625"/>
      </g>
     </g>
    </g>
    <g id="ytick_5">
     <g id="line2d_13">
      <g>
       <use xlink:href="#m74f88cc7d5" x="60.23" y="145.176279" style="stroke: #000000; stroke-width: 0.8"/>
      </g>
     </g>
     <g id="text_14">
      <!-- 0.425 -->
      <g transform="translate(24.601875 148.975498) scale(0.1 -0.1)">
       <use xlink:href="#DejaVuSans-30"/>
       <use xlink:href="#DejaVuSans-2e" x="63.623047"/>
       <use xlink:href="#DejaVuSans-34" x="95.410156"/>
       <use xlink:href="#DejaVuSans-32" x="159.033203"/>
       <use xlink:href="#DejaVuSans-35" x="222.65625"/>
      </g>
     </g>
    </g>
    <g id="ytick_6">
     <g id="line2d_14">
      <g>
       <use xlink:href="#m74f88cc7d5" x="60.23" y="109.204248" style="stroke: #000000; stroke-width: 0.8"/>
      </g>
     </g>
     <g id="text_15">
      <!-- 0.450 -->
      <g transform="translate(24.601875 113.003467) scale(0.1 -0.1)">
       <use xlink:href="#DejaVuSans-30"/>
       <use xlink:href="#DejaVuSans-2e" x="63.623047"/>
       <use xlink:href="#DejaVuSans-34" x="95.410156"/>
       <use xlink:href="#DejaVuSans-35" x="159.033203"/>
       <use xlink:href="#DejaVuSans-30" x="222.65625"/>
      </g>
     </g>
    </g>
    <g id="ytick_7">
     <g id="line2d_15">
      <g>
       <use xlink:href="#m74f88cc7d5" x="60.23" y="73.232218" style="stroke: #000000; stroke-width: 0.8"/>
      </g>
     </g>
     <g id="text_16">
      <!-- 0.475 -->
      <g transform="translate(24.601875 77.031436) scale(0.1 -0.1)">
       <use xlink:href="#DejaVuSans-30"/>
       <use xlink:href="#DejaVuSans-2e" x="63.623047"/>
       <use xlink:href="#DejaVuSans-34" x="95.410156"/>
       <use xlink:href="#DejaVuSans-37" x="159.033203"/>
       <use xlink:href="#DejaVuSans-35" x="222.65625"/>
      </g>
     </g>
    </g>
    <g id="ytick_8">
     <g id="line2d_16">
      <g>
       <use xlink:href="#m74f88cc7d5" x="60.23" y="37.260187" style="stroke: #000000; stroke-width: 0.8"/>
      </g>
     </g>
     <g id="text_17">
      <!-- 0.500 -->
      <g transform="translate(24.601875 41.059405) scale(0.1 -0.1)">
       <use xlink:href="#DejaVuSans-30"/>
       <use xlink:href="#DejaVuSans-2e" x="63.623047"/>
       <use xlink:href="#DejaVuSans-35" x="95.410156"/>
       <use xlink:href="#DejaVuSans-30" x="159.033203"/>
       <use xlink:href="#DejaVuSans-30" x="222.65625"/>
      </g>
     </g>
    </g>
    <g id="text_18">
     <!-- Loss -->
     <g transform="translate(18.522187 183.427188) rotate(-90) scale(0.1 -0.1)">
      <defs>
       <path id="DejaVuSans-4c" d="M 628 4666 
L 1259 4666 
L 1259 531 
L 3531 531 
L 3531 0 
L 628 0 
L 628 4666 
z
" transform="scale(0.015625)"/>
      </defs>
      <use xlink:href="#DejaVuSans-4c"/>
      <use xlink:href="#DejaVuSans-6f" x="53.962891"/>
      <use xlink:href="#DejaVuSans-73" x="115.144531"/>
      <use xlink:href="#DejaVuSans-73" x="167.244141"/>
     </g>
    </g>
   </g>
   <g id="line2d_17">
    <path d="M 73.628181 51.160022 
L 75.451063 204.667158 
L 77.273945 220.388005 
L 79.096827 230.52943 
L 80.919708 236.502343 
L 82.74259 241.686315 
L 84.565472 250.500774 
L 86.388354 246.258253 
L 88.211235 253.826594 
L 90.034117 257.273252 
L 91.856999 258.632264 
L 93.679881 259.479416 
L 95.502763 260.76656 
L 97.325644 261.329259 
L 99.148526 265.236856 
L 100.971408 265.930204 
L 102.79429 265.193508 
L 104.617172 271.205074 
L 106.440053 272.466827 
L 108.262935 270.154287 
L 110.085817 272.60241 
L 111.908699 272.808375 
L 115.554462 276.192921 
L 117.377344 276.045796 
L 119.200226 276.36118 
L 121.023108 277.063265 
L 122.845989 281.914806 
L 124.668871 279.366437 
L 126.491753 281.706517 
L 128.314635 282.701189 
L 130.137517 282.27263 
L 131.960398 282.777185 
L 133.78328 283.784972 
L 135.606162 282.898555 
L 137.429044 287.18151 
L 139.251926 286.39144 
L 141.074807 284.336188 
L 142.897689 283.667723 
L 144.720571 287.374846 
L 146.543453 287.236818 
L 148.366334 287.721287 
L 150.189216 290.324889 
L 152.012098 288.528641 
L 153.83498 291.81917 
L 155.657862 290.734797 
L 157.480743 291.897844 
L 159.303625 292.53953 
L 161.126507 289.748333 
L 162.949389 290.387855 
L 164.772271 292.205046 
L 166.595152 291.129567 
L 168.418034 291.61555 
L 170.240916 291.388657 
L 172.063798 293.111705 
L 173.88668 295.735535 
L 175.709561 292.964426 
L 177.532443 295.102245 
L 179.355325 295.590881 
L 181.178207 294.542776 
L 183.001088 295.182387 
L 184.82397 295.619946 
L 186.646852 295.695207 
L 188.469734 297.353292 
L 190.292616 296.470776 
L 192.115497 297.220802 
L 193.938379 299.11294 
L 195.761261 296.843222 
L 197.584143 295.586234 
L 199.407025 298.289989 
L 201.229906 298.768981 
L 203.052788 296.651849 
L 204.87567 296.71262 
L 206.698552 298.133701 
L 208.521434 298.997525 
L 210.344315 297.928374 
L 212.167197 299.374294 
L 213.990079 299.244925 
L 215.812961 299.854864 
L 217.635842 299.209589 
L 219.458724 299.166169 
L 221.281606 300.088969 
L 223.104488 300.613782 
L 224.92737 300.537068 
L 226.750251 300.694362 
L 228.573133 299.757276 
L 230.396015 300.733068 
L 232.218897 301.269835 
L 234.041779 300.226471 
L 235.86466 301.842892 
L 237.687542 302.203117 
L 239.510424 302.733015 
L 241.333306 301.368473 
L 243.156188 299.596054 
L 244.979069 301.578422 
L 246.801951 302.146462 
L 248.624833 300.780674 
L 250.447715 302.093611 
L 252.270596 300.076981 
L 254.093478 301.317124 
L 255.91636 303.268555 
L 257.739242 303.169695 
L 259.562124 302.868556 
L 261.385005 301.15012 
L 263.207887 302.233748 
L 265.030769 302.731508 
L 266.853651 302.104665 
L 268.676533 302.432093 
L 270.499414 303.150617 
L 272.322296 302.35586 
L 274.145178 303.139052 
L 275.96806 303.364253 
L 277.790942 304.349598 
L 279.613823 302.604598 
L 281.436705 303.682413 
L 285.082469 301.886805 
L 286.90535 302.986911 
L 288.728232 303.750094 
L 290.551114 303.191212 
L 292.373996 303.759538 
L 294.196878 304.119482 
L 296.019759 304.078414 
L 297.842641 303.492263 
L 299.665523 302.237557 
L 301.488405 302.572593 
L 303.311287 302.055967 
L 305.134168 304.104902 
L 306.95705 304.141788 
L 308.779932 304.415699 
L 310.602814 304.41987 
L 312.425695 304.805455 
L 314.248577 304.340429 
L 316.071459 303.753399 
L 317.894341 303.77051 
L 319.717223 303.975371 
L 321.540104 303.844226 
L 323.362986 304.328432 
L 325.185868 304.142202 
L 327.00875 304.16774 
L 328.831632 303.898359 
L 330.654513 304.376601 
L 332.477395 304.135354 
L 334.300277 304.147311 
L 336.123159 303.99168 
L 337.946041 304.554419 
L 339.768922 304.594913 
L 341.591804 304.458615 
L 341.591804 304.458615 
" clip-path="url(#p92168eefe3)" style="fill: none; stroke: #1f77b4; stroke-width: 1.5; stroke-linecap: square"/>
   </g>
   <g id="line2d_18">
    <path d="M 73.628181 40.114545 
L 75.451063 221.348582 
L 77.273945 200.270885 
L 79.096827 98.563707 
L 80.919708 196.684369 
L 82.74259 206.029454 
L 84.565472 218.621569 
L 86.388354 216.015867 
L 88.211235 223.976441 
L 90.034117 200.195198 
L 91.856999 225.696315 
L 93.679881 219.999822 
L 95.502763 226.20683 
L 97.325644 222.366859 
L 99.148526 207.377046 
L 100.971408 209.154596 
L 102.79429 247.607248 
L 104.617172 224.530726 
L 106.440053 216.576437 
L 108.262935 217.800314 
L 110.085817 225.777139 
L 111.908699 219.037964 
L 113.731581 234.780757 
L 115.554462 201.913934 
L 117.377344 235.32391 
L 119.200226 242.708046 
L 121.023108 244.555943 
L 122.845989 245.565109 
L 124.668871 239.961551 
L 126.491753 243.053853 
L 128.314635 238.370324 
L 130.137517 245.768938 
L 131.960398 208.574766 
L 133.78328 231.738465 
L 135.606162 253.100357 
L 137.429044 241.822082 
L 139.251926 232.891049 
L 141.074807 242.677945 
L 142.897689 217.777413 
L 144.720571 252.764667 
L 146.543453 245.336097 
L 148.366334 230.277926 
L 150.189216 245.412451 
L 152.012098 208.416003 
L 153.83498 232.019723 
L 155.657862 233.569622 
L 157.480743 240.932961 
L 159.303625 258.406293 
L 161.126507 250.432225 
L 162.949389 246.463612 
L 164.772271 239.449628 
L 166.595152 218.167639 
L 168.418034 239.728436 
L 170.240916 234.921737 
L 172.063798 219.468342 
L 173.88668 240.169906 
L 175.709561 218.190862 
L 177.532443 232.848905 
L 179.355325 245.898995 
L 181.178207 238.407927 
L 183.001088 255.095217 
L 184.82397 250.828389 
L 186.646852 237.379669 
L 188.469734 238.180766 
L 190.292616 239.756107 
L 192.115497 248.268566 
L 193.938379 230.104972 
L 195.761261 245.10669 
L 197.584143 246.296715 
L 199.407025 251.880339 
L 201.229906 237.090634 
L 203.052788 244.174595 
L 204.87567 236.474438 
L 206.698552 231.306093 
L 208.521434 240.502472 
L 210.344315 235.863537 
L 212.167197 222.639971 
L 213.990079 225.553642 
L 215.812961 242.354496 
L 217.635842 233.001177 
L 219.458724 239.398883 
L 221.281606 238.497368 
L 223.104488 231.657462 
L 224.92737 244.676431 
L 226.750251 241.988818 
L 228.573133 232.120769 
L 230.396015 234.317969 
L 232.218897 249.000945 
L 234.041779 239.319541 
L 235.86466 226.851733 
L 237.687542 246.929649 
L 239.510424 248.763573 
L 241.333306 232.096434 
L 243.156188 245.45892 
L 244.979069 234.411255 
L 246.801951 215.613654 
L 248.624833 226.181505 
L 250.447715 239.226751 
L 252.270596 240.973772 
L 254.093478 236.019621 
L 255.91636 240.818464 
L 257.739242 230.195536 
L 259.562124 225.879776 
L 263.207887 224.720688 
L 265.030769 240.796643 
L 266.853651 206.994875 
L 268.676533 237.965037 
L 270.499414 224.394396 
L 272.322296 230.810327 
L 274.145178 241.961629 
L 275.96806 236.875311 
L 277.790942 237.375054 
L 279.613823 232.426504 
L 281.436705 240.691303 
L 283.259587 225.595883 
L 285.082469 237.891734 
L 286.90535 233.819375 
L 288.728232 244.65554 
L 290.551114 234.899775 
L 292.373996 236.578098 
L 294.196878 239.497068 
L 296.019759 231.260355 
L 297.842641 231.483351 
L 299.665523 209.108488 
L 301.488405 243.669151 
L 303.311287 240.557977 
L 305.134168 236.507332 
L 306.95705 239.639667 
L 308.779932 236.68154 
L 310.602814 244.400223 
L 312.425695 243.792513 
L 314.248577 233.774589 
L 316.071459 237.518836 
L 317.894341 243.237515 
L 319.717223 242.902012 
L 321.540104 235.622526 
L 323.362986 237.198215 
L 325.185868 243.527414 
L 327.00875 242.306027 
L 328.831632 234.64515 
L 330.654513 252.513403 
L 332.477395 237.932967 
L 334.300277 244.218844 
L 336.123159 233.178418 
L 337.946041 243.205952 
L 339.768922 230.137429 
L 341.591804 242.921295 
L 341.591804 242.921295 
" clip-path="url(#p92168eefe3)" style="fill: none; stroke: #ff7f0e; stroke-width: 1.5; stroke-linecap: square"/>
   </g>
   <g id="patch_3">
    <path d="M 60.23 318.04 
L 60.23 26.88 
" style="fill: none; stroke: #000000; stroke-width: 0.8; stroke-linejoin: miter; stroke-linecap: square"/>
   </g>
   <g id="patch_4">
    <path d="M 354.989985 318.04 
L 354.989985 26.88 
" style="fill: none; stroke: #000000; stroke-width: 0.8; stroke-linejoin: miter; stroke-linecap: square"/>
   </g>
   <g id="patch_5">
    <path d="M 60.23 318.04 
L 354.989985 318.04 
" style="fill: none; stroke: #000000; stroke-width: 0.8; stroke-linejoin: miter; stroke-linecap: square"/>
   </g>
   <g id="patch_6">
    <path d="M 60.23 26.88 
L 354.989985 26.88 
" style="fill: none; stroke: #000000; stroke-width: 0.8; stroke-linejoin: miter; stroke-linecap: square"/>
   </g>
   <g id="text_19">
    <!-- Loss -->
    <g transform="translate(194.449368 20.88) scale(0.12 -0.12)">
     <use xlink:href="#DejaVuSans-4c"/>
     <use xlink:href="#DejaVuSans-6f" x="53.962891"/>
     <use xlink:href="#DejaVuSans-73" x="115.144531"/>
     <use xlink:href="#DejaVuSans-73" x="167.244141"/>
    </g>
   </g>
   <g id="legend_1">
    <g id="patch_7">
     <path d="M 266.889985 64.23625 
L 347.989985 64.23625 
Q 349.989985 64.23625 349.989985 62.23625 
L 349.989985 33.88 
Q 349.989985 31.88 347.989985 31.88 
L 266.889985 31.88 
Q 264.889985 31.88 264.889985 33.88 
L 264.889985 62.23625 
Q 264.889985 64.23625 266.889985 64.23625 
z
" style="fill: #ffffff; opacity: 0.8; stroke: #cccccc; stroke-linejoin: miter"/>
    </g>
    <g id="line2d_19">
     <path d="M 268.889985 39.978437 
L 278.889985 39.978437 
L 288.889985 39.978437 
" style="fill: none; stroke: #1f77b4; stroke-width: 1.5; stroke-linecap: square"/>
    </g>
    <g id="text_20">
     <!-- Train Loss -->
     <g transform="translate(296.889985 43.478437) scale(0.1 -0.1)">
      <defs>
       <path id="DejaVuSans-54" d="M -19 4666 
L 3928 4666 
L 3928 4134 
L 2272 4134 
L 2272 0 
L 1638 0 
L 1638 4134 
L -19 4134 
L -19 4666 
z
" transform="scale(0.015625)"/>
       <path id="DejaVuSans-72" d="M 2631 2963 
Q 2534 3019 2420 3045 
Q 2306 3072 2169 3072 
Q 1681 3072 1420 2755 
Q 1159 2438 1159 1844 
L 1159 0 
L 581 0 
L 581 3500 
L 1159 3500 
L 1159 2956 
Q 1341 3275 1631 3429 
Q 1922 3584 2338 3584 
Q 2397 3584 2469 3576 
Q 2541 3569 2628 3553 
L 2631 2963 
z
" transform="scale(0.015625)"/>
       <path id="DejaVuSans-61" d="M 2194 1759 
Q 1497 1759 1228 1600 
Q 959 1441 959 1056 
Q 959 750 1161 570 
Q 1363 391 1709 391 
Q 2188 391 2477 730 
Q 2766 1069 2766 1631 
L 2766 1759 
L 2194 1759 
z
M 3341 1997 
L 3341 0 
L 2766 0 
L 2766 531 
Q 2569 213 2275 61 
Q 1981 -91 1556 -91 
Q 1019 -91 701 211 
Q 384 513 384 1019 
Q 384 1609 779 1909 
Q 1175 2209 1959 2209 
L 2766 2209 
L 2766 2266 
Q 2766 2663 2505 2880 
Q 2244 3097 1772 3097 
Q 1472 3097 1187 3025 
Q 903 2953 641 2809 
L 641 3341 
Q 956 3463 1253 3523 
Q 1550 3584 1831 3584 
Q 2591 3584 2966 3190 
Q 3341 2797 3341 1997 
z
" transform="scale(0.015625)"/>
       <path id="DejaVuSans-69" d="M 603 3500 
L 1178 3500 
L 1178 0 
L 603 0 
L 603 3500 
z
M 603 4863 
L 1178 4863 
L 1178 4134 
L 603 4134 
L 603 4863 
z
" transform="scale(0.015625)"/>
       <path id="DejaVuSans-6e" d="M 3513 2113 
L 3513 0 
L 2938 0 
L 2938 2094 
Q 2938 2591 2744 2837 
Q 2550 3084 2163 3084 
Q 1697 3084 1428 2787 
Q 1159 2491 1159 1978 
L 1159 0 
L 581 0 
L 581 3500 
L 1159 3500 
L 1159 2956 
Q 1366 3272 1645 3428 
Q 1925 3584 2291 3584 
Q 2894 3584 3203 3211 
Q 3513 2838 3513 2113 
z
" transform="scale(0.015625)"/>
       <path id="DejaVuSans-20" transform="scale(0.015625)"/>
      </defs>
      <use xlink:href="#DejaVuSans-54"/>
      <use xlink:href="#DejaVuSans-72" x="46.333984"/>
      <use xlink:href="#DejaVuSans-61" x="87.447266"/>
      <use xlink:href="#DejaVuSans-69" x="148.726562"/>
      <use xlink:href="#DejaVuSans-6e" x="176.509766"/>
      <use xlink:href="#DejaVuSans-20" x="239.888672"/>
      <use xlink:href="#DejaVuSans-4c" x="271.675781"/>
      <use xlink:href="#DejaVuSans-6f" x="325.638672"/>
      <use xlink:href="#DejaVuSans-73" x="386.820312"/>
      <use xlink:href="#DejaVuSans-73" x="438.919922"/>
     </g>
    </g>
    <g id="line2d_20">
     <path d="M 268.889985 54.656563 
L 278.889985 54.656563 
L 288.889985 54.656563 
" style="fill: none; stroke: #ff7f0e; stroke-width: 1.5; stroke-linecap: square"/>
    </g>
    <g id="text_21">
     <!-- Val Loss -->
     <g transform="translate(296.889985 58.156563) scale(0.1 -0.1)">
      <defs>
       <path id="DejaVuSans-56" d="M 1831 0 
L 50 4666 
L 709 4666 
L 2188 738 
L 3669 4666 
L 4325 4666 
L 2547 0 
L 1831 0 
z
" transform="scale(0.015625)"/>
       <path id="DejaVuSans-6c" d="M 603 4863 
L 1178 4863 
L 1178 0 
L 603 0 
L 603 4863 
z
" transform="scale(0.015625)"/>
      </defs>
      <use xlink:href="#DejaVuSans-56"/>
      <use xlink:href="#DejaVuSans-61" x="60.658203"/>
      <use xlink:href="#DejaVuSans-6c" x="121.9375"/>
      <use xlink:href="#DejaVuSans-20" x="149.720703"/>
      <use xlink:href="#DejaVuSans-4c" x="181.507812"/>
      <use xlink:href="#DejaVuSans-6f" x="235.470703"/>
      <use xlink:href="#DejaVuSans-73" x="296.652344"/>
      <use xlink:href="#DejaVuSans-73" x="348.751953"/>
     </g>
    </g>
   </g>
  </g>
  <g id="axes_2">
   <g id="patch_8">
    <path d="M 416.66 318.04 
L 711.419985 318.04 
L 711.419985 26.88 
L 416.66 26.88 
z
" style="fill: #ffffff"/>
   </g>
   <g id="matplotlib.axis_3">
    <g id="xtick_9">
     <g id="line2d_21">
      <g>
       <use xlink:href="#md31458ba14" x="428.235299" y="318.04" style="stroke: #000000; stroke-width: 0.8"/>
      </g>
     </g>
     <g id="text_22">
      <!-- 0 -->
      <g transform="translate(425.054049 332.638438) scale(0.1 -0.1)">
       <use xlink:href="#DejaVuSans-30"/>
      </g>
     </g>
    </g>
    <g id="xtick_10">
     <g id="line2d_22">
      <g>
       <use xlink:href="#md31458ba14" x="464.692935" y="318.04" style="stroke: #000000; stroke-width: 0.8"/>
      </g>
     </g>
     <g id="text_23">
      <!-- 20 -->
      <g transform="translate(458.330435 332.638438) scale(0.1 -0.1)">
       <use xlink:href="#DejaVuSans-32"/>
       <use xlink:href="#DejaVuSans-30" x="63.623047"/>
      </g>
     </g>
    </g>
    <g id="xtick_11">
     <g id="line2d_23">
      <g>
       <use xlink:href="#md31458ba14" x="501.150571" y="318.04" style="stroke: #000000; stroke-width: 0.8"/>
      </g>
     </g>
     <g id="text_24">
      <!-- 40 -->
      <g transform="translate(494.788071 332.638438) scale(0.1 -0.1)">
       <use xlink:href="#DejaVuSans-34"/>
       <use xlink:href="#DejaVuSans-30" x="63.623047"/>
      </g>
     </g>
    </g>
    <g id="xtick_12">
     <g id="line2d_24">
      <g>
       <use xlink:href="#md31458ba14" x="537.608207" y="318.04" style="stroke: #000000; stroke-width: 0.8"/>
      </g>
     </g>
     <g id="text_25">
      <!-- 60 -->
      <g transform="translate(531.245707 332.638438) scale(0.1 -0.1)">
       <use xlink:href="#DejaVuSans-36"/>
       <use xlink:href="#DejaVuSans-30" x="63.623047"/>
      </g>
     </g>
    </g>
    <g id="xtick_13">
     <g id="line2d_25">
      <g>
       <use xlink:href="#md31458ba14" x="574.065842" y="318.04" style="stroke: #000000; stroke-width: 0.8"/>
      </g>
     </g>
     <g id="text_26">
      <!-- 80 -->
      <g transform="translate(567.703342 332.638438) scale(0.1 -0.1)">
       <use xlink:href="#DejaVuSans-38"/>
       <use xlink:href="#DejaVuSans-30" x="63.623047"/>
      </g>
     </g>
    </g>
    <g id="xtick_14">
     <g id="line2d_26">
      <g>
       <use xlink:href="#md31458ba14" x="610.523478" y="318.04" style="stroke: #000000; stroke-width: 0.8"/>
      </g>
     </g>
     <g id="text_27">
      <!-- 100 -->
      <g transform="translate(600.979728 332.638438) scale(0.1 -0.1)">
       <use xlink:href="#DejaVuSans-31"/>
       <use xlink:href="#DejaVuSans-30" x="63.623047"/>
       <use xlink:href="#DejaVuSans-30" x="127.246094"/>
      </g>
     </g>
    </g>
    <g id="xtick_15">
     <g id="line2d_27">
      <g>
       <use xlink:href="#md31458ba14" x="646.981114" y="318.04" style="stroke: #000000; stroke-width: 0.8"/>
      </g>
     </g>
     <g id="text_28">
      <!-- 120 -->
      <g transform="translate(637.437364 332.638438) scale(0.1 -0.1)">
       <use xlink:href="#DejaVuSans-31"/>
       <use xlink:href="#DejaVuSans-32" x="63.623047"/>
       <use xlink:href="#DejaVuSans-30" x="127.246094"/>
      </g>
     </g>
    </g>
    <g id="xtick_16">
     <g id="line2d_28">
      <g>
       <use xlink:href="#md31458ba14" x="683.43875" y="318.04" style="stroke: #000000; stroke-width: 0.8"/>
      </g>
     </g>
     <g id="text_29">
      <!-- 140 -->
      <g transform="translate(673.895 332.638438) scale(0.1 -0.1)">
       <use xlink:href="#DejaVuSans-31"/>
       <use xlink:href="#DejaVuSans-34" x="63.623047"/>
       <use xlink:href="#DejaVuSans-30" x="127.246094"/>
      </g>
     </g>
    </g>
    <g id="text_30">
     <!-- Epochs -->
     <g transform="translate(546.124368 346.316563) scale(0.1 -0.1)">
      <use xlink:href="#DejaVuSans-45"/>
      <use xlink:href="#DejaVuSans-70" x="63.183594"/>
      <use xlink:href="#DejaVuSans-6f" x="126.660156"/>
      <use xlink:href="#DejaVuSans-63" x="187.841797"/>
      <use xlink:href="#DejaVuSans-68" x="242.822266"/>
      <use xlink:href="#DejaVuSans-73" x="306.201172"/>
     </g>
    </g>
   </g>
   <g id="matplotlib.axis_4">
    <g id="ytick_9">
     <g id="line2d_29">
      <g>
       <use xlink:href="#m74f88cc7d5" x="416.66" y="308.708888" style="stroke: #000000; stroke-width: 0.8"/>
      </g>
     </g>
     <g id="text_31">
      <!-- 0.800 -->
      <g transform="translate(381.031875 312.508107) scale(0.1 -0.1)">
       <use xlink:href="#DejaVuSans-30"/>
       <use xlink:href="#DejaVuSans-2e" x="63.623047"/>
       <use xlink:href="#DejaVuSans-38" x="95.410156"/>
       <use xlink:href="#DejaVuSans-30" x="159.033203"/>
       <use xlink:href="#DejaVuSans-30" x="222.65625"/>
      </g>
     </g>
    </g>
    <g id="ytick_10">
     <g id="line2d_30">
      <g>
       <use xlink:href="#m74f88cc7d5" x="416.66" y="275.004122" style="stroke: #000000; stroke-width: 0.8"/>
      </g>
     </g>
     <g id="text_32">
      <!-- 0.825 -->
      <g transform="translate(381.031875 278.803341) scale(0.1 -0.1)">
       <use xlink:href="#DejaVuSans-30"/>
       <use xlink:href="#DejaVuSans-2e" x="63.623047"/>
       <use xlink:href="#DejaVuSans-38" x="95.410156"/>
       <use xlink:href="#DejaVuSans-32" x="159.033203"/>
       <use xlink:href="#DejaVuSans-35" x="222.65625"/>
      </g>
     </g>
    </g>
    <g id="ytick_11">
     <g id="line2d_31">
      <g>
       <use xlink:href="#m74f88cc7d5" x="416.66" y="241.299356" style="stroke: #000000; stroke-width: 0.8"/>
      </g>
     </g>
     <g id="text_33">
      <!-- 0.850 -->
      <g transform="translate(381.031875 245.098575) scale(0.1 -0.1)">
       <use xlink:href="#DejaVuSans-30"/>
       <use xlink:href="#DejaVuSans-2e" x="63.623047"/>
       <use xlink:href="#DejaVuSans-38" x="95.410156"/>
       <use xlink:href="#DejaVuSans-35" x="159.033203"/>
       <use xlink:href="#DejaVuSans-30" x="222.65625"/>
      </g>
     </g>
    </g>
    <g id="ytick_12">
     <g id="line2d_32">
      <g>
       <use xlink:href="#m74f88cc7d5" x="416.66" y="207.59459" style="stroke: #000000; stroke-width: 0.8"/>
      </g>
     </g>
     <g id="text_34">
      <!-- 0.875 -->
      <g transform="translate(381.031875 211.393809) scale(0.1 -0.1)">
       <use xlink:href="#DejaVuSans-30"/>
       <use xlink:href="#DejaVuSans-2e" x="63.623047"/>
       <use xlink:href="#DejaVuSans-38" x="95.410156"/>
       <use xlink:href="#DejaVuSans-37" x="159.033203"/>
       <use xlink:href="#DejaVuSans-35" x="222.65625"/>
      </g>
     </g>
    </g>
    <g id="ytick_13">
     <g id="line2d_33">
      <g>
       <use xlink:href="#m74f88cc7d5" x="416.66" y="173.889824" style="stroke: #000000; stroke-width: 0.8"/>
      </g>
     </g>
     <g id="text_35">
      <!-- 0.900 -->
      <g transform="translate(381.031875 177.689043) scale(0.1 -0.1)">
       <defs>
        <path id="DejaVuSans-39" d="M 703 97 
L 703 672 
Q 941 559 1184 500 
Q 1428 441 1663 441 
Q 2288 441 2617 861 
Q 2947 1281 2994 2138 
Q 2813 1869 2534 1725 
Q 2256 1581 1919 1581 
Q 1219 1581 811 2004 
Q 403 2428 403 3163 
Q 403 3881 828 4315 
Q 1253 4750 1959 4750 
Q 2769 4750 3195 4129 
Q 3622 3509 3622 2328 
Q 3622 1225 3098 567 
Q 2575 -91 1691 -91 
Q 1453 -91 1209 -44 
Q 966 3 703 97 
z
M 1959 2075 
Q 2384 2075 2632 2365 
Q 2881 2656 2881 3163 
Q 2881 3666 2632 3958 
Q 2384 4250 1959 4250 
Q 1534 4250 1286 3958 
Q 1038 3666 1038 3163 
Q 1038 2656 1286 2365 
Q 1534 2075 1959 2075 
z
" transform="scale(0.015625)"/>
       </defs>
       <use xlink:href="#DejaVuSans-30"/>
       <use xlink:href="#DejaVuSans-2e" x="63.623047"/>
       <use xlink:href="#DejaVuSans-39" x="95.410156"/>
       <use xlink:href="#DejaVuSans-30" x="159.033203"/>
       <use xlink:href="#DejaVuSans-30" x="222.65625"/>
      </g>
     </g>
    </g>
    <g id="ytick_14">
     <g id="line2d_34">
      <g>
       <use xlink:href="#m74f88cc7d5" x="416.66" y="140.185058" style="stroke: #000000; stroke-width: 0.8"/>
      </g>
     </g>
     <g id="text_36">
      <!-- 0.925 -->
      <g transform="translate(381.031875 143.984277) scale(0.1 -0.1)">
       <use xlink:href="#DejaVuSans-30"/>
       <use xlink:href="#DejaVuSans-2e" x="63.623047"/>
       <use xlink:href="#DejaVuSans-39" x="95.410156"/>
       <use xlink:href="#DejaVuSans-32" x="159.033203"/>
       <use xlink:href="#DejaVuSans-35" x="222.65625"/>
      </g>
     </g>
    </g>
    <g id="ytick_15">
     <g id="line2d_35">
      <g>
       <use xlink:href="#m74f88cc7d5" x="416.66" y="106.480292" style="stroke: #000000; stroke-width: 0.8"/>
      </g>
     </g>
     <g id="text_37">
      <!-- 0.950 -->
      <g transform="translate(381.031875 110.279511) scale(0.1 -0.1)">
       <use xlink:href="#DejaVuSans-30"/>
       <use xlink:href="#DejaVuSans-2e" x="63.623047"/>
       <use xlink:href="#DejaVuSans-39" x="95.410156"/>
       <use xlink:href="#DejaVuSans-35" x="159.033203"/>
       <use xlink:href="#DejaVuSans-30" x="222.65625"/>
      </g>
     </g>
    </g>
    <g id="ytick_16">
     <g id="line2d_36">
      <g>
       <use xlink:href="#m74f88cc7d5" x="416.66" y="72.775526" style="stroke: #000000; stroke-width: 0.8"/>
      </g>
     </g>
     <g id="text_38">
      <!-- 0.975 -->
      <g transform="translate(381.031875 76.574745) scale(0.1 -0.1)">
       <use xlink:href="#DejaVuSans-30"/>
       <use xlink:href="#DejaVuSans-2e" x="63.623047"/>
       <use xlink:href="#DejaVuSans-39" x="95.410156"/>
       <use xlink:href="#DejaVuSans-37" x="159.033203"/>
       <use xlink:href="#DejaVuSans-35" x="222.65625"/>
      </g>
     </g>
    </g>
    <g id="ytick_17">
     <g id="line2d_37">
      <g>
       <use xlink:href="#m74f88cc7d5" x="416.66" y="39.07076" style="stroke: #000000; stroke-width: 0.8"/>
      </g>
     </g>
     <g id="text_39">
      <!-- 1.000 -->
      <g transform="translate(381.031875 42.869979) scale(0.1 -0.1)">
       <use xlink:href="#DejaVuSans-31"/>
       <use xlink:href="#DejaVuSans-2e" x="63.623047"/>
       <use xlink:href="#DejaVuSans-30" x="95.410156"/>
       <use xlink:href="#DejaVuSans-30" x="159.033203"/>
       <use xlink:href="#DejaVuSans-30" x="222.65625"/>
      </g>
     </g>
    </g>
    <g id="text_40">
     <!-- Accuracy -->
     <g transform="translate(374.952188 195.288125) rotate(-90) scale(0.1 -0.1)">
      <defs>
       <path id="DejaVuSans-41" d="M 2188 4044 
L 1331 1722 
L 3047 1722 
L 2188 4044 
z
M 1831 4666 
L 2547 4666 
L 4325 0 
L 3669 0 
L 3244 1197 
L 1141 1197 
L 716 0 
L 50 0 
L 1831 4666 
z
" transform="scale(0.015625)"/>
       <path id="DejaVuSans-75" d="M 544 1381 
L 544 3500 
L 1119 3500 
L 1119 1403 
Q 1119 906 1312 657 
Q 1506 409 1894 409 
Q 2359 409 2629 706 
Q 2900 1003 2900 1516 
L 2900 3500 
L 3475 3500 
L 3475 0 
L 2900 0 
L 2900 538 
Q 2691 219 2414 64 
Q 2138 -91 1772 -91 
Q 1169 -91 856 284 
Q 544 659 544 1381 
z
M 1991 3584 
L 1991 3584 
z
" transform="scale(0.015625)"/>
       <path id="DejaVuSans-79" d="M 2059 -325 
Q 1816 -950 1584 -1140 
Q 1353 -1331 966 -1331 
L 506 -1331 
L 506 -850 
L 844 -850 
Q 1081 -850 1212 -737 
Q 1344 -625 1503 -206 
L 1606 56 
L 191 3500 
L 800 3500 
L 1894 763 
L 2988 3500 
L 3597 3500 
L 2059 -325 
z
" transform="scale(0.015625)"/>
      </defs>
      <use xlink:href="#DejaVuSans-41"/>
      <use xlink:href="#DejaVuSans-63" x="66.658203"/>
      <use xlink:href="#DejaVuSans-63" x="121.638672"/>
      <use xlink:href="#DejaVuSans-75" x="176.619141"/>
      <use xlink:href="#DejaVuSans-72" x="239.998047"/>
      <use xlink:href="#DejaVuSans-61" x="281.111328"/>
      <use xlink:href="#DejaVuSans-63" x="342.390625"/>
      <use xlink:href="#DejaVuSans-79" x="397.371094"/>
     </g>
    </g>
   </g>
   <g id="line2d_38">
    <path d="M 430.058181 291.80331 
L 431.881063 136.267846 
L 433.703945 122.30183 
L 435.526827 110.890643 
L 437.349708 106.300002 
L 439.17259 101.31255 
L 440.995472 92.541018 
L 442.818354 97.072713 
L 444.641235 89.783471 
L 446.464117 86.705311 
L 448.286999 84.796019 
L 450.109881 84.611991 
L 451.932763 82.719951 
L 453.755644 82.577616 
L 455.578526 78.681394 
L 457.401408 77.874833 
L 459.22429 78.669892 
L 461.047172 72.371239 
L 462.870053 71.268508 
L 464.692935 74.174141 
L 466.515817 71.902543 
L 468.338699 71.38065 
L 470.161581 69.666887 
L 471.984462 67.679958 
L 473.807344 67.822292 
L 475.630226 67.490179 
L 477.453108 67.395289 
L 479.275989 62.318699 
L 481.098871 64.542852 
L 482.921753 62.117418 
L 484.744635 61.791055 
L 486.567517 61.980834 
L 488.390398 61.743611 
L 490.21328 60.74727 
L 492.036162 61.026188 
L 493.859044 56.672771 
L 495.681926 58.191004 
L 497.504807 59.929207 
L 499.327689 61.073633 
L 501.150571 56.482992 
L 502.973453 57.099774 
L 504.796334 56.720216 
L 506.619216 54.253087 
L 508.442098 55.338566 
L 510.26498 52.302101 
L 512.087862 54.010113 
L 513.910743 52.497631 
L 515.733625 51.69107 
L 517.556507 54.431365 
L 519.379389 54.110753 
L 521.202271 52.023183 
L 523.025152 53.203552 
L 524.848034 53.256747 
L 526.670916 53.446526 
L 528.493798 51.590429 
L 530.31668 48.559715 
L 532.139561 51.643625 
L 533.962443 49.223942 
L 535.785325 48.844383 
L 537.608207 50.30367 
L 539.431088 49.170746 
L 543.076852 48.791188 
L 544.899734 47.136372 
L 546.722616 47.563375 
L 548.545497 47.183816 
L 550.368379 45.380915 
L 552.191261 47.610819 
L 554.014143 49.081607 
L 555.837025 46.4247 
L 557.659906 45.855363 
L 559.482788 47.990378 
L 561.30567 48.085267 
L 563.128552 46.418949 
L 564.951434 45.665584 
L 566.774315 46.851703 
L 568.597197 45.422609 
L 570.420079 45.760473 
L 572.242961 44.716688 
L 574.065842 45.523249 
L 575.888724 45.570694 
L 577.711606 44.479464 
L 579.534488 43.957572 
L 581.35737 44.43202 
L 583.180251 44.005017 
L 585.003133 44.859023 
L 586.826015 43.862682 
L 588.648897 43.483124 
L 590.471779 44.43202 
L 592.29466 43.008677 
L 594.117542 42.724008 
L 595.940424 42.107226 
L 599.586188 45.096247 
L 601.409069 43.103566 
L 603.231951 42.528478 
L 605.054833 44.052462 
L 606.877715 42.771453 
L 608.700596 44.900717 
L 610.523478 43.435679 
L 612.34636 41.537889 
L 615.992124 41.964892 
L 617.815005 43.767793 
L 619.637887 42.534229 
L 621.460769 42.24956 
L 623.283651 42.765702 
L 625.106533 42.386144 
L 626.929414 41.537889 
L 628.752296 42.534229 
L 630.575178 41.680223 
L 632.39806 41.395554 
L 634.220942 40.446659 
L 636.043823 42.24956 
L 637.866705 41.015996 
L 641.512469 43.14526 
L 643.33535 41.775112 
L 645.158232 41.015996 
L 646.981114 41.585333 
L 648.803996 41.110886 
L 650.626878 40.778772 
L 652.449759 40.826217 
L 654.272641 41.34811 
L 656.095523 42.676563 
L 657.918405 42.433588 
L 659.741287 42.818897 
L 661.564168 40.826217 
L 663.38705 40.826217 
L 665.209932 40.446659 
L 668.855695 40.114545 
L 672.501459 41.063441 
L 674.324341 41.205775 
L 676.147223 40.921107 
L 677.970104 41.110886 
L 679.792986 40.636438 
L 681.615868 40.725577 
L 683.43875 40.636438 
L 685.261632 40.921107 
L 687.084513 40.399214 
L 688.907395 40.731327 
L 690.730277 40.719826 
L 692.553159 40.826217 
L 696.198922 40.25688 
L 698.021804 40.399214 
L 698.021804 40.399214 
" clip-path="url(#pfd9f5a238f)" style="fill: none; stroke: #1f77b4; stroke-width: 1.5; stroke-linecap: square"/>
   </g>
   <g id="line2d_39">
    <path d="M 430.058181 304.805455 
L 431.881063 117.596067 
L 433.703945 143.291355 
L 435.526827 249.716476 
L 437.349708 147.621783 
L 439.17259 138.353094 
L 440.995472 126.737747 
L 442.818354 126.4928 
L 444.641235 118.06177 
L 446.464117 143.433485 
L 448.286999 117.287615 
L 450.109881 125.023115 
L 451.932763 116.837033 
L 453.755644 120.574749 
L 455.578526 136.638462 
L 457.401408 133.312015 
L 459.22429 96.814848 
L 461.047172 119.041559 
L 462.870053 125.615827 
L 464.692935 122.921406 
L 466.515817 118.370222 
L 468.338699 123.695561 
L 470.161581 111.369564 
L 471.984462 141.924488 
L 473.807344 109.34648 
L 475.630226 100.591877 
L 477.453108 100.978955 
L 479.275989 98.490168 
L 481.098871 102.693587 
L 482.921753 101.32672 
L 484.744635 105.040243 
L 486.567517 97.897456 
L 488.390398 131.920956 
L 492.036162 89.221478 
L 493.859044 103.776194 
L 495.681926 111.203242 
L 497.504807 101.121085 
L 499.327689 125.552322 
L 501.150571 91.876587 
L 502.973453 100.425555 
L 504.796334 111.898771 
L 506.619216 98.181716 
L 508.442098 133.94404 
L 510.26498 110.982487 
L 512.087862 107.450405 
L 513.910743 102.654274 
L 515.733625 85.405137 
L 517.556507 93.591219 
L 519.379389 97.162613 
L 521.202271 103.815506 
L 523.025152 123.798378 
L 524.848034 105.632956 
L 526.670916 110.429087 
L 528.493798 124.043325 
L 530.31668 103.080664 
L 532.139561 125.023115 
L 535.785325 97.510378 
L 537.608207 106.573433 
L 539.431088 88.344506 
L 541.25397 92.224352 
L 543.076852 106.549241 
L 544.899734 106.225668 
L 546.722616 103.119977 
L 548.545497 95.629424 
L 550.368379 113.368456 
L 552.191261 98.078898 
L 554.014143 97.162613 
L 555.837025 91.9159 
L 557.659906 105.285191 
L 559.482788 99.303635 
L 561.30567 106.367798 
L 563.128552 112.285849 
L 564.951434 101.998057 
L 566.774315 107.52903 
L 568.597197 120.124167 
L 570.420079 117.91964 
L 572.242961 99.019375 
L 574.065842 111.448189 
L 575.888724 103.957636 
L 577.711606 105.388008 
L 579.534488 110.002697 
L 581.35737 99.019375 
L 583.180251 100.180608 
L 585.003133 109.939192 
L 586.826015 109.20435 
L 588.648897 94.713139 
L 590.471779 104.692479 
L 592.29466 116.694903 
L 594.117542 96.751344 
L 595.940424 94.507504 
L 597.763306 110.531904 
L 599.586188 98.142403 
L 601.409069 108.817272 
L 603.231951 126.287165 
L 605.054833 115.430853 
L 606.877715 103.776194 
L 608.700596 101.958744 
L 610.523478 106.509928 
L 612.34636 100.876137 
L 614.169242 112.530796 
L 615.992124 115.999373 
L 617.815005 117.22411 
L 619.637887 118.125275 
L 621.460769 101.571667 
L 623.283651 135.247402 
L 625.106533 105.877903 
L 626.929414 118.860117 
L 628.752296 112.633614 
L 630.575178 101.018267 
L 632.39806 105.388008 
L 634.220942 104.795296 
L 636.043823 110.776852 
L 637.866705 103.080664 
L 639.689587 117.571875 
L 641.512469 104.653166 
L 643.33535 108.08243 
L 645.158232 97.936768 
L 646.981114 108.08243 
L 648.803996 106.509928 
L 650.626878 104.060454 
L 652.449759 112.775744 
L 654.272641 110.286957 
L 656.095523 134.331117 
L 657.918405 100.48906 
L 659.741287 101.366032 
L 661.564168 105.388008 
L 663.38705 103.918324 
L 665.209932 107.181265 
L 667.032814 96.956978 
L 668.855695 100.386242 
L 670.678577 107.489718 
L 672.501459 106.122851 
L 674.324341 100.63119 
L 676.147223 100.48906 
L 677.970104 107.837483 
L 679.792986 105.388008 
L 681.615868 100.63119 
L 683.43875 102.448639 
L 685.261632 107.9403 
L 687.084513 90.304085 
L 688.907395 106.328486 
L 690.730277 99.22501 
L 692.553159 110.144827 
L 694.376041 99.714905 
L 696.198922 112.001589 
L 698.021804 100.386242 
L 698.021804 100.386242 
" clip-path="url(#pfd9f5a238f)" style="fill: none; stroke: #ff7f0e; stroke-width: 1.5; stroke-linecap: square"/>
   </g>
   <g id="patch_9">
    <path d="M 416.66 318.04 
L 416.66 26.88 
" style="fill: none; stroke: #000000; stroke-width: 0.8; stroke-linejoin: miter; stroke-linecap: square"/>
   </g>
   <g id="patch_10">
    <path d="M 711.419985 318.04 
L 711.419985 26.88 
" style="fill: none; stroke: #000000; stroke-width: 0.8; stroke-linejoin: miter; stroke-linecap: square"/>
   </g>
   <g id="patch_11">
    <path d="M 416.66 318.04 
L 711.419985 318.04 
" style="fill: none; stroke: #000000; stroke-width: 0.8; stroke-linejoin: miter; stroke-linecap: square"/>
   </g>
   <g id="patch_12">
    <path d="M 416.66 26.88 
L 711.419985 26.88 
" style="fill: none; stroke: #000000; stroke-width: 0.8; stroke-linejoin: miter; stroke-linecap: square"/>
   </g>
   <g id="text_41">
    <!-- Accuracy -->
    <g transform="translate(536.646243 20.88) scale(0.12 -0.12)">
     <use xlink:href="#DejaVuSans-41"/>
     <use xlink:href="#DejaVuSans-63" x="66.658203"/>
     <use xlink:href="#DejaVuSans-63" x="121.638672"/>
     <use xlink:href="#DejaVuSans-75" x="176.619141"/>
     <use xlink:href="#DejaVuSans-72" x="239.998047"/>
     <use xlink:href="#DejaVuSans-61" x="281.111328"/>
     <use xlink:href="#DejaVuSans-63" x="342.390625"/>
     <use xlink:href="#DejaVuSans-79" x="397.371094"/>
    </g>
   </g>
   <g id="legend_2">
    <g id="patch_13">
     <path d="M 599.59811 313.04 
L 704.419985 313.04 
Q 706.419985 313.04 706.419985 311.04 
L 706.419985 282.68375 
Q 706.419985 280.68375 704.419985 280.68375 
L 599.59811 280.68375 
Q 597.59811 280.68375 597.59811 282.68375 
L 597.59811 311.04 
Q 597.59811 313.04 599.59811 313.04 
z
" style="fill: #ffffff; opacity: 0.8; stroke: #cccccc; stroke-linejoin: miter"/>
    </g>
    <g id="line2d_40">
     <path d="M 601.59811 288.782188 
L 611.59811 288.782188 
L 621.59811 288.782188 
" style="fill: none; stroke: #1f77b4; stroke-width: 1.5; stroke-linecap: square"/>
    </g>
    <g id="text_42">
     <!-- Train Accuracy -->
     <g transform="translate(629.59811 292.282188) scale(0.1 -0.1)">
      <use xlink:href="#DejaVuSans-54"/>
      <use xlink:href="#DejaVuSans-72" x="46.333984"/>
      <use xlink:href="#DejaVuSans-61" x="87.447266"/>
      <use xlink:href="#DejaVuSans-69" x="148.726562"/>
      <use xlink:href="#DejaVuSans-6e" x="176.509766"/>
      <use xlink:href="#DejaVuSans-20" x="239.888672"/>
      <use xlink:href="#DejaVuSans-41" x="271.675781"/>
      <use xlink:href="#DejaVuSans-63" x="338.333984"/>
      <use xlink:href="#DejaVuSans-63" x="393.314453"/>
      <use xlink:href="#DejaVuSans-75" x="448.294922"/>
      <use xlink:href="#DejaVuSans-72" x="511.673828"/>
      <use xlink:href="#DejaVuSans-61" x="552.787109"/>
      <use xlink:href="#DejaVuSans-63" x="614.066406"/>
      <use xlink:href="#DejaVuSans-79" x="669.046875"/>
     </g>
    </g>
    <g id="line2d_41">
     <path d="M 601.59811 303.460313 
L 611.59811 303.460313 
L 621.59811 303.460313 
" style="fill: none; stroke: #ff7f0e; stroke-width: 1.5; stroke-linecap: square"/>
    </g>
    <g id="text_43">
     <!-- Val Accuracy -->
     <g transform="translate(629.59811 306.960313) scale(0.1 -0.1)">
      <use xlink:href="#DejaVuSans-56"/>
      <use xlink:href="#DejaVuSans-61" x="60.658203"/>
      <use xlink:href="#DejaVuSans-6c" x="121.9375"/>
      <use xlink:href="#DejaVuSans-20" x="149.720703"/>
      <use xlink:href="#DejaVuSans-41" x="181.507812"/>
      <use xlink:href="#DejaVuSans-63" x="248.166016"/>
      <use xlink:href="#DejaVuSans-63" x="303.146484"/>
      <use xlink:href="#DejaVuSans-75" x="358.126953"/>
      <use xlink:href="#DejaVuSans-72" x="421.505859"/>
      <use xlink:href="#DejaVuSans-61" x="462.619141"/>
      <use xlink:href="#DejaVuSans-63" x="523.898438"/>
      <use xlink:href="#DejaVuSans-79" x="578.878906"/>
     </g>
    </g>
   </g>
  </g>
  <g id="axes_3">
   <g id="patch_14">
    <path d="M 773.09 318.04 
L 1067.849985 318.04 
L 1067.849985 26.88 
L 773.09 26.88 
z
" style="fill: #ffffff"/>
   </g>
   <g id="matplotlib.axis_5">
    <g id="xtick_17">
     <g id="line2d_42">
      <g>
       <use xlink:href="#md31458ba14" x="784.665299" y="318.04" style="stroke: #000000; stroke-width: 0.8"/>
      </g>
     </g>
     <g id="text_44">
      <!-- 0 -->
      <g transform="translate(781.484049 332.638438) scale(0.1 -0.1)">
       <use xlink:href="#DejaVuSans-30"/>
      </g>
     </g>
    </g>
    <g id="xtick_18">
     <g id="line2d_43">
      <g>
       <use xlink:href="#md31458ba14" x="821.122935" y="318.04" style="stroke: #000000; stroke-width: 0.8"/>
      </g>
     </g>
     <g id="text_45">
      <!-- 20 -->
      <g transform="translate(814.760435 332.638438) scale(0.1 -0.1)">
       <use xlink:href="#DejaVuSans-32"/>
       <use xlink:href="#DejaVuSans-30" x="63.623047"/>
      </g>
     </g>
    </g>
    <g id="xtick_19">
     <g id="line2d_44">
      <g>
       <use xlink:href="#md31458ba14" x="857.580571" y="318.04" style="stroke: #000000; stroke-width: 0.8"/>
      </g>
     </g>
     <g id="text_46">
      <!-- 40 -->
      <g transform="translate(851.218071 332.638438) scale(0.1 -0.1)">
       <use xlink:href="#DejaVuSans-34"/>
       <use xlink:href="#DejaVuSans-30" x="63.623047"/>
      </g>
     </g>
    </g>
    <g id="xtick_20">
     <g id="line2d_45">
      <g>
       <use xlink:href="#md31458ba14" x="894.038207" y="318.04" style="stroke: #000000; stroke-width: 0.8"/>
      </g>
     </g>
     <g id="text_47">
      <!-- 60 -->
      <g transform="translate(887.675707 332.638438) scale(0.1 -0.1)">
       <use xlink:href="#DejaVuSans-36"/>
       <use xlink:href="#DejaVuSans-30" x="63.623047"/>
      </g>
     </g>
    </g>
    <g id="xtick_21">
     <g id="line2d_46">
      <g>
       <use xlink:href="#md31458ba14" x="930.495842" y="318.04" style="stroke: #000000; stroke-width: 0.8"/>
      </g>
     </g>
     <g id="text_48">
      <!-- 80 -->
      <g transform="translate(924.133342 332.638438) scale(0.1 -0.1)">
       <use xlink:href="#DejaVuSans-38"/>
       <use xlink:href="#DejaVuSans-30" x="63.623047"/>
      </g>
     </g>
    </g>
    <g id="xtick_22">
     <g id="line2d_47">
      <g>
       <use xlink:href="#md31458ba14" x="966.953478" y="318.04" style="stroke: #000000; stroke-width: 0.8"/>
      </g>
     </g>
     <g id="text_49">
      <!-- 100 -->
      <g transform="translate(957.409728 332.638438) scale(0.1 -0.1)">
       <use xlink:href="#DejaVuSans-31"/>
       <use xlink:href="#DejaVuSans-30" x="63.623047"/>
       <use xlink:href="#DejaVuSans-30" x="127.246094"/>
      </g>
     </g>
    </g>
    <g id="xtick_23">
     <g id="line2d_48">
      <g>
       <use xlink:href="#md31458ba14" x="1003.411114" y="318.04" style="stroke: #000000; stroke-width: 0.8"/>
      </g>
     </g>
     <g id="text_50">
      <!-- 120 -->
      <g transform="translate(993.867364 332.638438) scale(0.1 -0.1)">
       <use xlink:href="#DejaVuSans-31"/>
       <use xlink:href="#DejaVuSans-32" x="63.623047"/>
       <use xlink:href="#DejaVuSans-30" x="127.246094"/>
      </g>
     </g>
    </g>
    <g id="xtick_24">
     <g id="line2d_49">
      <g>
       <use xlink:href="#md31458ba14" x="1039.86875" y="318.04" style="stroke: #000000; stroke-width: 0.8"/>
      </g>
     </g>
     <g id="text_51">
      <!-- 140 -->
      <g transform="translate(1030.325 332.638438) scale(0.1 -0.1)">
       <use xlink:href="#DejaVuSans-31"/>
       <use xlink:href="#DejaVuSans-34" x="63.623047"/>
       <use xlink:href="#DejaVuSans-30" x="127.246094"/>
      </g>
     </g>
    </g>
    <g id="text_52">
     <!-- Epochs -->
     <g transform="translate(902.554368 346.316563) scale(0.1 -0.1)">
      <use xlink:href="#DejaVuSans-45"/>
      <use xlink:href="#DejaVuSans-70" x="63.183594"/>
      <use xlink:href="#DejaVuSans-6f" x="126.660156"/>
      <use xlink:href="#DejaVuSans-63" x="187.841797"/>
      <use xlink:href="#DejaVuSans-68" x="242.822266"/>
      <use xlink:href="#DejaVuSans-73" x="306.201172"/>
     </g>
    </g>
   </g>
   <g id="matplotlib.axis_6">
    <g id="ytick_18">
     <g id="line2d_50">
      <g>
       <use xlink:href="#m74f88cc7d5" x="773.09" y="302.253386" style="stroke: #000000; stroke-width: 0.8"/>
      </g>
     </g>
     <g id="text_53">
      <!-- 0.60 -->
      <g transform="translate(743.824375 306.052605) scale(0.1 -0.1)">
       <use xlink:href="#DejaVuSans-30"/>
       <use xlink:href="#DejaVuSans-2e" x="63.623047"/>
       <use xlink:href="#DejaVuSans-36" x="95.410156"/>
       <use xlink:href="#DejaVuSans-30" x="159.033203"/>
      </g>
     </g>
    </g>
    <g id="ytick_19">
     <g id="line2d_51">
      <g>
       <use xlink:href="#m74f88cc7d5" x="773.09" y="269.393451" style="stroke: #000000; stroke-width: 0.8"/>
      </g>
     </g>
     <g id="text_54">
      <!-- 0.65 -->
      <g transform="translate(743.824375 273.19267) scale(0.1 -0.1)">
       <use xlink:href="#DejaVuSans-30"/>
       <use xlink:href="#DejaVuSans-2e" x="63.623047"/>
       <use xlink:href="#DejaVuSans-36" x="95.410156"/>
       <use xlink:href="#DejaVuSans-35" x="159.033203"/>
      </g>
     </g>
    </g>
    <g id="ytick_20">
     <g id="line2d_52">
      <g>
       <use xlink:href="#m74f88cc7d5" x="773.09" y="236.533517" style="stroke: #000000; stroke-width: 0.8"/>
      </g>
     </g>
     <g id="text_55">
      <!-- 0.70 -->
      <g transform="translate(743.824375 240.332736) scale(0.1 -0.1)">
       <use xlink:href="#DejaVuSans-30"/>
       <use xlink:href="#DejaVuSans-2e" x="63.623047"/>
       <use xlink:href="#DejaVuSans-37" x="95.410156"/>
       <use xlink:href="#DejaVuSans-30" x="159.033203"/>
      </g>
     </g>
    </g>
    <g id="ytick_21">
     <g id="line2d_53">
      <g>
       <use xlink:href="#m74f88cc7d5" x="773.09" y="203.673582" style="stroke: #000000; stroke-width: 0.8"/>
      </g>
     </g>
     <g id="text_56">
      <!-- 0.75 -->
      <g transform="translate(743.824375 207.472801) scale(0.1 -0.1)">
       <use xlink:href="#DejaVuSans-30"/>
       <use xlink:href="#DejaVuSans-2e" x="63.623047"/>
       <use xlink:href="#DejaVuSans-37" x="95.410156"/>
       <use xlink:href="#DejaVuSans-35" x="159.033203"/>
      </g>
     </g>
    </g>
    <g id="ytick_22">
     <g id="line2d_54">
      <g>
       <use xlink:href="#m74f88cc7d5" x="773.09" y="170.813648" style="stroke: #000000; stroke-width: 0.8"/>
      </g>
     </g>
     <g id="text_57">
      <!-- 0.80 -->
      <g transform="translate(743.824375 174.612866) scale(0.1 -0.1)">
       <use xlink:href="#DejaVuSans-30"/>
       <use xlink:href="#DejaVuSans-2e" x="63.623047"/>
       <use xlink:href="#DejaVuSans-38" x="95.410156"/>
       <use xlink:href="#DejaVuSans-30" x="159.033203"/>
      </g>
     </g>
    </g>
    <g id="ytick_23">
     <g id="line2d_55">
      <g>
       <use xlink:href="#m74f88cc7d5" x="773.09" y="137.953713" style="stroke: #000000; stroke-width: 0.8"/>
      </g>
     </g>
     <g id="text_58">
      <!-- 0.85 -->
      <g transform="translate(743.824375 141.752932) scale(0.1 -0.1)">
       <use xlink:href="#DejaVuSans-30"/>
       <use xlink:href="#DejaVuSans-2e" x="63.623047"/>
       <use xlink:href="#DejaVuSans-38" x="95.410156"/>
       <use xlink:href="#DejaVuSans-35" x="159.033203"/>
      </g>
     </g>
    </g>
    <g id="ytick_24">
     <g id="line2d_56">
      <g>
       <use xlink:href="#m74f88cc7d5" x="773.09" y="105.093778" style="stroke: #000000; stroke-width: 0.8"/>
      </g>
     </g>
     <g id="text_59">
      <!-- 0.90 -->
      <g transform="translate(743.824375 108.892997) scale(0.1 -0.1)">
       <use xlink:href="#DejaVuSans-30"/>
       <use xlink:href="#DejaVuSans-2e" x="63.623047"/>
       <use xlink:href="#DejaVuSans-39" x="95.410156"/>
       <use xlink:href="#DejaVuSans-30" x="159.033203"/>
      </g>
     </g>
    </g>
    <g id="ytick_25">
     <g id="line2d_57">
      <g>
       <use xlink:href="#m74f88cc7d5" x="773.09" y="72.233844" style="stroke: #000000; stroke-width: 0.8"/>
      </g>
     </g>
     <g id="text_60">
      <!-- 0.95 -->
      <g transform="translate(743.824375 76.033063) scale(0.1 -0.1)">
       <use xlink:href="#DejaVuSans-30"/>
       <use xlink:href="#DejaVuSans-2e" x="63.623047"/>
       <use xlink:href="#DejaVuSans-39" x="95.410156"/>
       <use xlink:href="#DejaVuSans-35" x="159.033203"/>
      </g>
     </g>
    </g>
    <g id="ytick_26">
     <g id="line2d_58">
      <g>
       <use xlink:href="#m74f88cc7d5" x="773.09" y="39.373909" style="stroke: #000000; stroke-width: 0.8"/>
      </g>
     </g>
     <g id="text_61">
      <!-- 1.00 -->
      <g transform="translate(743.824375 43.173128) scale(0.1 -0.1)">
       <use xlink:href="#DejaVuSans-31"/>
       <use xlink:href="#DejaVuSans-2e" x="63.623047"/>
       <use xlink:href="#DejaVuSans-30" x="95.410156"/>
       <use xlink:href="#DejaVuSans-30" x="159.033203"/>
      </g>
     </g>
    </g>
    <g id="text_62">
     <!-- F1 Score -->
     <g transform="translate(737.744688 194.108438) rotate(-90) scale(0.1 -0.1)">
      <defs>
       <path id="DejaVuSans-46" d="M 628 4666 
L 3309 4666 
L 3309 4134 
L 1259 4134 
L 1259 2759 
L 3109 2759 
L 3109 2228 
L 1259 2228 
L 1259 0 
L 628 0 
L 628 4666 
z
" transform="scale(0.015625)"/>
       <path id="DejaVuSans-53" d="M 3425 4513 
L 3425 3897 
Q 3066 4069 2747 4153 
Q 2428 4238 2131 4238 
Q 1616 4238 1336 4038 
Q 1056 3838 1056 3469 
Q 1056 3159 1242 3001 
Q 1428 2844 1947 2747 
L 2328 2669 
Q 3034 2534 3370 2195 
Q 3706 1856 3706 1288 
Q 3706 609 3251 259 
Q 2797 -91 1919 -91 
Q 1588 -91 1214 -16 
Q 841 59 441 206 
L 441 856 
Q 825 641 1194 531 
Q 1563 422 1919 422 
Q 2459 422 2753 634 
Q 3047 847 3047 1241 
Q 3047 1584 2836 1778 
Q 2625 1972 2144 2069 
L 1759 2144 
Q 1053 2284 737 2584 
Q 422 2884 422 3419 
Q 422 4038 858 4394 
Q 1294 4750 2059 4750 
Q 2388 4750 2728 4690 
Q 3069 4631 3425 4513 
z
" transform="scale(0.015625)"/>
       <path id="DejaVuSans-65" d="M 3597 1894 
L 3597 1613 
L 953 1613 
Q 991 1019 1311 708 
Q 1631 397 2203 397 
Q 2534 397 2845 478 
Q 3156 559 3463 722 
L 3463 178 
Q 3153 47 2828 -22 
Q 2503 -91 2169 -91 
Q 1331 -91 842 396 
Q 353 884 353 1716 
Q 353 2575 817 3079 
Q 1281 3584 2069 3584 
Q 2775 3584 3186 3129 
Q 3597 2675 3597 1894 
z
M 3022 2063 
Q 3016 2534 2758 2815 
Q 2500 3097 2075 3097 
Q 1594 3097 1305 2825 
Q 1016 2553 972 2059 
L 3022 2063 
z
" transform="scale(0.015625)"/>
      </defs>
      <use xlink:href="#DejaVuSans-46"/>
      <use xlink:href="#DejaVuSans-31" x="57.519531"/>
      <use xlink:href="#DejaVuSans-20" x="121.142578"/>
      <use xlink:href="#DejaVuSans-53" x="152.929688"/>
      <use xlink:href="#DejaVuSans-63" x="216.40625"/>
      <use xlink:href="#DejaVuSans-6f" x="271.386719"/>
      <use xlink:href="#DejaVuSans-72" x="332.568359"/>
      <use xlink:href="#DejaVuSans-65" x="371.431641"/>
     </g>
    </g>
   </g>
   <g id="line2d_59">
    <path d="M 786.488181 285.100621 
L 788.311063 106.788434 
L 790.133945 96.891234 
L 791.956827 89.216157 
L 795.60259 82.468501 
L 797.425472 76.33108 
L 799.248354 79.570621 
L 801.071235 74.331184 
L 802.894117 72.499363 
L 804.716999 71.004572 
L 806.539881 71.038933 
L 808.362763 69.600121 
L 810.185644 69.773246 
L 812.008526 66.9233 
L 813.831408 66.418183 
L 815.65429 66.883602 
L 817.477172 62.455183 
L 819.300053 61.816359 
L 821.122935 63.846532 
L 822.945817 62.245004 
L 824.768699 61.955473 
L 828.414462 59.413337 
L 832.060226 59.0587 
L 833.883108 59.164389 
L 835.705989 55.476585 
L 837.528871 57.168008 
L 839.351753 55.424013 
L 844.820398 55.139855 
L 846.64328 54.388316 
L 848.466162 54.671793 
L 850.289044 51.665185 
L 852.111926 52.569502 
L 853.934807 54.242348 
L 855.757689 54.714387 
L 857.580571 51.465921 
L 859.403453 51.873909 
L 861.226334 51.616469 
L 863.049216 50.003726 
L 864.872098 50.715544 
L 866.69498 48.628574 
L 868.517862 49.930404 
L 870.340743 48.764418 
L 872.163625 48.242288 
L 873.986507 50.168387 
L 875.809389 49.97751 
L 877.632271 48.370952 
L 879.455152 49.289432 
L 883.100916 49.326474 
L 884.923798 48.133438 
L 886.74668 45.997377 
L 888.569561 48.302041 
L 890.392443 46.405766 
L 892.215325 46.12197 
L 894.038207 47.145827 
L 895.861088 46.479717 
L 897.68397 46.362194 
L 899.506852 46.093075 
L 901.329734 44.934043 
L 903.152616 45.276349 
L 904.975497 45.008732 
L 906.798379 43.767741 
L 908.621261 45.343444 
L 910.444143 46.402179 
L 912.267025 44.501356 
L 914.089906 44.019833 
L 915.912788 45.531225 
L 917.73567 45.642417 
L 919.558552 44.524442 
L 921.381434 44.004823 
L 923.204315 44.777118 
L 925.027197 43.826951 
L 926.850079 43.928456 
L 928.672961 43.275013 
L 930.495842 43.950552 
L 932.318724 43.896922 
L 934.141606 43.137772 
L 935.964488 42.709564 
L 937.78737 43.092894 
L 939.610251 42.877763 
L 941.433133 43.419053 
L 943.256015 42.748869 
L 945.078897 42.422303 
L 946.901779 43.14778 
L 948.72466 42.12204 
L 950.547542 41.934345 
L 952.370424 41.525245 
L 956.016188 43.619045 
L 957.839069 42.134047 
L 959.661951 41.876642 
L 961.484833 42.911476 
L 963.307715 41.939017 
L 965.130596 43.492374 
L 966.953478 42.482261 
L 968.77636 41.096129 
L 970.599242 41.209649 
L 972.422124 41.438542 
L 974.245005 42.670071 
L 976.067887 41.798227 
L 977.890769 41.543552 
L 979.713651 42.003549 
L 981.536533 41.775188 
L 983.359414 41.106723 
L 985.182296 41.802824 
L 987.005178 41.189726 
L 988.82806 41.082031 
L 990.650942 40.327994 
L 992.473823 41.589407 
L 994.296705 40.719596 
L 997.942469 42.285552 
L 999.76535 41.240005 
L 1001.588232 40.727129 
L 1003.411114 41.165771 
L 1005.233996 40.778291 
L 1007.056878 40.53462 
L 1008.879759 40.627059 
L 1010.702641 41.001593 
L 1012.525523 41.872438 
L 1014.348405 41.818852 
L 1016.171287 41.923429 
L 1017.994168 40.599319 
L 1019.81705 40.60041 
L 1023.462814 40.189675 
L 1025.285695 40.114545 
L 1027.108577 40.384478 
L 1028.931459 40.79569 
L 1030.754341 40.876395 
L 1032.577223 40.637834 
L 1034.400104 40.822251 
L 1036.222986 40.432256 
L 1038.045868 40.592447 
L 1039.86875 40.455732 
L 1041.691632 40.640765 
L 1043.514513 40.250454 
L 1045.337395 40.547175 
L 1047.160277 40.441813 
L 1048.983159 40.566736 
L 1052.628922 40.190689 
L 1054.451804 40.294256 
L 1054.451804 40.294256 
" clip-path="url(#p45d6c97e35)" style="fill: none; stroke: #1f77b4; stroke-width: 1.5; stroke-linecap: square"/>
   </g>
   <g id="line2d_60">
    <path d="M 786.488181 304.805455 
L 788.311063 101.606134 
L 790.133945 133.8828 
L 791.956827 269.856098 
L 793.779708 131.233061 
L 795.60259 122.497904 
L 799.248354 109.34307 
L 801.071235 104.101326 
L 802.894117 119.154252 
L 804.716999 109.890698 
L 806.539881 112.572275 
L 808.362763 108.937856 
L 810.185644 109.699067 
L 812.008526 122.299406 
L 813.831408 120.771605 
L 815.65429 87.73655 
L 817.477172 108.567248 
L 819.300053 115.914222 
L 821.122935 112.659145 
L 822.945817 108.102109 
L 824.768699 113.550974 
L 826.591581 101.738314 
L 828.414462 124.760698 
L 830.237344 100.674276 
L 832.060226 91.012513 
L 833.883108 90.300425 
L 835.705989 88.426506 
L 837.528871 92.685548 
L 839.351753 88.972893 
L 841.174635 93.669562 
L 842.997517 87.155182 
L 844.820398 115.313577 
L 848.466162 80.939761 
L 850.289044 93.306085 
L 852.111926 101.911596 
L 853.934807 88.217117 
L 855.757689 112.635254 
L 857.580571 84.03463 
L 859.403453 92.29593 
L 861.226334 102.685548 
L 863.049216 88.462153 
L 864.872098 121.330635 
L 866.69498 98.893794 
L 868.517862 97.589922 
L 870.340743 93.273111 
L 872.163625 78.574787 
L 873.986507 84.453247 
L 875.809389 87.841128 
L 877.632271 95.488058 
L 879.455152 107.767909 
L 881.278034 96.192978 
L 883.100916 98.05614 
L 884.923798 108.59616 
L 886.74668 93.622328 
L 888.569561 114.341084 
L 890.392443 98.966111 
L 892.215325 86.930967 
L 894.038207 96.652436 
L 895.861088 79.578327 
L 897.68397 82.917677 
L 899.506852 94.83606 
L 901.329734 96.420819 
L 903.152616 92.665471 
L 904.975497 86.417738 
L 906.798379 103.428613 
L 908.621261 88.960801 
L 910.444143 86.920253 
L 912.267025 84.148334 
L 914.089906 96.062721 
L 915.912788 90.208743 
L 917.73567 97.318253 
L 919.558552 100.555592 
L 921.381434 91.844731 
L 923.204315 95.604627 
L 925.027197 106.75776 
L 926.850079 108.434284 
L 928.672961 90.183452 
L 930.495842 101.327883 
L 932.318724 94.432289 
L 934.141606 94.613776 
L 935.964488 100.40149 
L 937.78737 89.311333 
L 939.610251 91.110812 
L 941.433133 98.500761 
L 943.256015 98.113466 
L 945.078897 85.072286 
L 946.901779 94.713923 
L 948.72466 103.72083 
L 950.547542 87.77906 
L 952.370424 85.791958 
L 954.193306 98.283535 
L 956.016188 87.76607 
L 957.839069 99.8095 
L 959.661951 114.774813 
L 963.307715 94.011568 
L 965.130596 92.310905 
L 966.953478 97.069223 
L 968.77636 88.96417 
L 970.599242 101.890476 
L 972.422124 105.206285 
L 974.245005 106.345534 
L 976.067887 105.673652 
L 977.890769 91.76574 
L 979.713651 126.116309 
L 981.536533 95.526874 
L 983.359414 106.363273 
L 985.182296 102.481691 
L 987.005178 91.558662 
L 988.82806 94.815426 
L 990.650942 94.116016 
L 992.473823 98.182136 
L 994.296705 92.121284 
L 996.119587 105.576988 
L 997.942469 94.958284 
L 999.76535 98.116423 
L 1001.588232 89.120978 
L 1003.411114 97.408859 
L 1005.233996 97.217851 
L 1007.056878 93.667159 
L 1008.879759 101.91242 
L 1010.702641 99.439743 
L 1012.525523 121.895365 
L 1014.348405 91.401273 
L 1016.171287 91.577813 
L 1017.994168 94.76997 
L 1019.81705 92.259486 
L 1021.639932 97.414345 
L 1023.462814 87.789755 
L 1025.285695 90.988148 
L 1027.108577 97.888328 
L 1028.931459 94.578424 
L 1030.754341 90.926759 
L 1032.577223 88.734903 
L 1034.400104 97.352525 
L 1036.222986 92.605374 
L 1038.045868 91.663551 
L 1039.86875 91.051381 
L 1041.691632 97.657793 
L 1043.514513 82.491043 
L 1045.337395 96.206238 
L 1047.160277 90.854409 
L 1048.983159 98.984108 
L 1050.806041 89.347353 
L 1052.628922 100.297463 
L 1054.451804 92.585471 
L 1054.451804 92.585471 
" clip-path="url(#p45d6c97e35)" style="fill: none; stroke: #ff7f0e; stroke-width: 1.5; stroke-linecap: square"/>
   </g>
   <g id="patch_15">
    <path d="M 773.09 318.04 
L 773.09 26.88 
" style="fill: none; stroke: #000000; stroke-width: 0.8; stroke-linejoin: miter; stroke-linecap: square"/>
   </g>
   <g id="patch_16">
    <path d="M 1067.849985 318.04 
L 1067.849985 26.88 
" style="fill: none; stroke: #000000; stroke-width: 0.8; stroke-linejoin: miter; stroke-linecap: square"/>
   </g>
   <g id="patch_17">
    <path d="M 773.09 318.04 
L 1067.849985 318.04 
" style="fill: none; stroke: #000000; stroke-width: 0.8; stroke-linejoin: miter; stroke-linecap: square"/>
   </g>
   <g id="patch_18">
    <path d="M 773.09 26.88 
L 1067.849985 26.88 
" style="fill: none; stroke: #000000; stroke-width: 0.8; stroke-linejoin: miter; stroke-linecap: square"/>
   </g>
   <g id="text_63">
    <!-- F1 Score -->
    <g transform="translate(894.491868 20.88) scale(0.12 -0.12)">
     <use xlink:href="#DejaVuSans-46"/>
     <use xlink:href="#DejaVuSans-31" x="57.519531"/>
     <use xlink:href="#DejaVuSans-20" x="121.142578"/>
     <use xlink:href="#DejaVuSans-53" x="152.929688"/>
     <use xlink:href="#DejaVuSans-63" x="216.40625"/>
     <use xlink:href="#DejaVuSans-6f" x="271.386719"/>
     <use xlink:href="#DejaVuSans-72" x="332.568359"/>
     <use xlink:href="#DejaVuSans-65" x="371.431641"/>
    </g>
   </g>
   <g id="legend_3">
    <g id="patch_19">
     <path d="M 989.570298 313.04 
L 1060.849985 313.04 
Q 1062.849985 313.04 1062.849985 311.04 
L 1062.849985 282.68375 
Q 1062.849985 280.68375 1060.849985 280.68375 
L 989.570298 280.68375 
Q 987.570298 280.68375 987.570298 282.68375 
L 987.570298 311.04 
Q 987.570298 313.04 989.570298 313.04 
z
" style="fill: #ffffff; opacity: 0.8; stroke: #cccccc; stroke-linejoin: miter"/>
    </g>
    <g id="line2d_61">
     <path d="M 991.570298 288.782188 
L 1001.570298 288.782188 
L 1011.570298 288.782188 
" style="fill: none; stroke: #1f77b4; stroke-width: 1.5; stroke-linecap: square"/>
    </g>
    <g id="text_64">
     <!-- Train F1 -->
     <g transform="translate(1019.570298 292.282188) scale(0.1 -0.1)">
      <use xlink:href="#DejaVuSans-54"/>
      <use xlink:href="#DejaVuSans-72" x="46.333984"/>
      <use xlink:href="#DejaVuSans-61" x="87.447266"/>
      <use xlink:href="#DejaVuSans-69" x="148.726562"/>
      <use xlink:href="#DejaVuSans-6e" x="176.509766"/>
      <use xlink:href="#DejaVuSans-20" x="239.888672"/>
      <use xlink:href="#DejaVuSans-46" x="271.675781"/>
      <use xlink:href="#DejaVuSans-31" x="329.195312"/>
     </g>
    </g>
    <g id="line2d_62">
     <path d="M 991.570298 303.460313 
L 1001.570298 303.460313 
L 1011.570298 303.460313 
" style="fill: none; stroke: #ff7f0e; stroke-width: 1.5; stroke-linecap: square"/>
    </g>
    <g id="text_65">
     <!-- Val F1 -->
     <g transform="translate(1019.570298 306.960313) scale(0.1 -0.1)">
      <use xlink:href="#DejaVuSans-56"/>
      <use xlink:href="#DejaVuSans-61" x="60.658203"/>
      <use xlink:href="#DejaVuSans-6c" x="121.9375"/>
      <use xlink:href="#DejaVuSans-20" x="149.720703"/>
      <use xlink:href="#DejaVuSans-46" x="181.507812"/>
      <use xlink:href="#DejaVuSans-31" x="239.027344"/>
     </g>
    </g>
   </g>
  </g>
 </g>
 <defs>
  <clipPath id="p92168eefe3">
   <rect x="60.23" y="26.88" width="294.759985" height="291.16"/>
  </clipPath>
  <clipPath id="pfd9f5a238f">
   <rect x="416.66" y="26.88" width="294.759985" height="291.16"/>
  </clipPath>
  <clipPath id="p45d6c97e35">
   <rect x="773.09" y="26.88" width="294.759985" height="291.16"/>
  </clipPath>
 </defs>
</svg>
