<?xml version="1.0" encoding="utf-8" standalone="no"?>
<!DOCTYPE svg PUBLIC "-//W3C//DTD SVG 1.1//EN"
  "http://www.w3.org/Graphics/SVG/1.1/DTD/svg11.dtd">
<svg xmlns:xlink="http://www.w3.org/1999/xlink" width="1080pt" height="360pt" viewBox="0 0 1080 360" xmlns="http://www.w3.org/2000/svg" version="1.1">
 <metadata>
  <rdf:RDF xmlns:dc="http://purl.org/dc/elements/1.1/" xmlns:cc="http://creativecommons.org/ns#" xmlns:rdf="http://www.w3.org/1999/02/22-rdf-syntax-ns#">
   <cc:Work>
    <dc:type rdf:resource="http://purl.org/dc/dcmitype/StillImage"/>
    <dc:date>2024-12-06T00:00:05.509444</dc:date>
    <dc:format>image/svg+xml</dc:format>
    <dc:creator>
     <cc:Agent>
      <dc:title>Matplotlib v3.8.2, https://matplotlib.org/</dc:title>
     </cc:Agent>
    </dc:creator>
   </cc:Work>
  </rdf:RDF>
 </metadata>
 <defs>
  <style type="text/css">*{stroke-linejoin: round; stroke-linecap: butt}</style>
 </defs>
 <g id="figure_1">
  <g id="patch_1">
   <path d="M 0 360 
L 1080 360 
L 1080 0 
L 0 0 
z
" style="fill: #ffffff"/>
  </g>
  <g id="axes_1">
   <g id="patch_2">
    <path d="M 54.02 318.04 
L 355.879266 318.04 
L 355.879266 26.88 
L 54.02 26.88 
z
" style="fill: #ffffff"/>
   </g>
   <g id="matplotlib.axis_1">
    <g id="xtick_1">
     <g id="line2d_1">
      <defs>
       <path id="me38bbfcc3a" d="M 0 0 
L 0 3.5 
" style="stroke: #000000; stroke-width: 0.8"/>
      </defs>
      <g>
       <use xlink:href="#me38bbfcc3a" x="67.740876" y="318.04" style="stroke: #000000; stroke-width: 0.8"/>
      </g>
     </g>
     <g id="text_1">
      <!-- 0 -->
      <g transform="translate(64.559626 332.638438) scale(0.1 -0.1)">
       <defs>
        <path id="DejaVuSans-30" d="M 2034 4250 
Q 1547 4250 1301 3770 
Q 1056 3291 1056 2328 
Q 1056 1369 1301 889 
Q 1547 409 2034 409 
Q 2525 409 2770 889 
Q 3016 1369 3016 2328 
Q 3016 3291 2770 3770 
Q 2525 4250 2034 4250 
z
M 2034 4750 
Q 2819 4750 3233 4129 
Q 3647 3509 3647 2328 
Q 3647 1150 3233 529 
Q 2819 -91 2034 -91 
Q 1250 -91 836 529 
Q 422 1150 422 2328 
Q 422 3509 836 4129 
Q 1250 4750 2034 4750 
z
" transform="scale(0.015625)"/>
       </defs>
       <use xlink:href="#DejaVuSans-30"/>
      </g>
     </g>
    </g>
    <g id="xtick_2">
     <g id="line2d_2">
      <g>
       <use xlink:href="#me38bbfcc3a" x="102.389552" y="318.04" style="stroke: #000000; stroke-width: 0.8"/>
      </g>
     </g>
     <g id="text_2">
      <!-- 25 -->
      <g transform="translate(96.027052 332.638438) scale(0.1 -0.1)">
       <defs>
        <path id="DejaVuSans-32" d="M 1228 531 
L 3431 531 
L 3431 0 
L 469 0 
L 469 531 
Q 828 903 1448 1529 
Q 2069 2156 2228 2338 
Q 2531 2678 2651 2914 
Q 2772 3150 2772 3378 
Q 2772 3750 2511 3984 
Q 2250 4219 1831 4219 
Q 1534 4219 1204 4116 
Q 875 4013 500 3803 
L 500 4441 
Q 881 4594 1212 4672 
Q 1544 4750 1819 4750 
Q 2544 4750 2975 4387 
Q 3406 4025 3406 3419 
Q 3406 3131 3298 2873 
Q 3191 2616 2906 2266 
Q 2828 2175 2409 1742 
Q 1991 1309 1228 531 
z
" transform="scale(0.015625)"/>
        <path id="DejaVuSans-35" d="M 691 4666 
L 3169 4666 
L 3169 4134 
L 1269 4134 
L 1269 2991 
Q 1406 3038 1543 3061 
Q 1681 3084 1819 3084 
Q 2600 3084 3056 2656 
Q 3513 2228 3513 1497 
Q 3513 744 3044 326 
Q 2575 -91 1722 -91 
Q 1428 -91 1123 -41 
Q 819 9 494 109 
L 494 744 
Q 775 591 1075 516 
Q 1375 441 1709 441 
Q 2250 441 2565 725 
Q 2881 1009 2881 1497 
Q 2881 1984 2565 2268 
Q 2250 2553 1709 2553 
Q 1456 2553 1204 2497 
Q 953 2441 691 2322 
L 691 4666 
z
" transform="scale(0.015625)"/>
       </defs>
       <use xlink:href="#DejaVuSans-32"/>
       <use xlink:href="#DejaVuSans-35" x="63.623047"/>
      </g>
     </g>
    </g>
    <g id="xtick_3">
     <g id="line2d_3">
      <g>
       <use xlink:href="#me38bbfcc3a" x="137.038228" y="318.04" style="stroke: #000000; stroke-width: 0.8"/>
      </g>
     </g>
     <g id="text_3">
      <!-- 50 -->
      <g transform="translate(130.675728 332.638438) scale(0.1 -0.1)">
       <use xlink:href="#DejaVuSans-35"/>
       <use xlink:href="#DejaVuSans-30" x="63.623047"/>
      </g>
     </g>
    </g>
    <g id="xtick_4">
     <g id="line2d_4">
      <g>
       <use xlink:href="#me38bbfcc3a" x="171.686904" y="318.04" style="stroke: #000000; stroke-width: 0.8"/>
      </g>
     </g>
     <g id="text_4">
      <!-- 75 -->
      <g transform="translate(165.324404 332.638438) scale(0.1 -0.1)">
       <defs>
        <path id="DejaVuSans-37" d="M 525 4666 
L 3525 4666 
L 3525 4397 
L 1831 0 
L 1172 0 
L 2766 4134 
L 525 4134 
L 525 4666 
z
" transform="scale(0.015625)"/>
       </defs>
       <use xlink:href="#DejaVuSans-37"/>
       <use xlink:href="#DejaVuSans-35" x="63.623047"/>
      </g>
     </g>
    </g>
    <g id="xtick_5">
     <g id="line2d_5">
      <g>
       <use xlink:href="#me38bbfcc3a" x="206.33558" y="318.04" style="stroke: #000000; stroke-width: 0.8"/>
      </g>
     </g>
     <g id="text_5">
      <!-- 100 -->
      <g transform="translate(196.79183 332.638438) scale(0.1 -0.1)">
       <defs>
        <path id="DejaVuSans-31" d="M 794 531 
L 1825 531 
L 1825 4091 
L 703 3866 
L 703 4441 
L 1819 4666 
L 2450 4666 
L 2450 531 
L 3481 531 
L 3481 0 
L 794 0 
L 794 531 
z
" transform="scale(0.015625)"/>
       </defs>
       <use xlink:href="#DejaVuSans-31"/>
       <use xlink:href="#DejaVuSans-30" x="63.623047"/>
       <use xlink:href="#DejaVuSans-30" x="127.246094"/>
      </g>
     </g>
    </g>
    <g id="xtick_6">
     <g id="line2d_6">
      <g>
       <use xlink:href="#me38bbfcc3a" x="240.984256" y="318.04" style="stroke: #000000; stroke-width: 0.8"/>
      </g>
     </g>
     <g id="text_6">
      <!-- 125 -->
      <g transform="translate(231.440506 332.638438) scale(0.1 -0.1)">
       <use xlink:href="#DejaVuSans-31"/>
       <use xlink:href="#DejaVuSans-32" x="63.623047"/>
       <use xlink:href="#DejaVuSans-35" x="127.246094"/>
      </g>
     </g>
    </g>
    <g id="xtick_7">
     <g id="line2d_7">
      <g>
       <use xlink:href="#me38bbfcc3a" x="275.632932" y="318.04" style="stroke: #000000; stroke-width: 0.8"/>
      </g>
     </g>
     <g id="text_7">
      <!-- 150 -->
      <g transform="translate(266.089182 332.638438) scale(0.1 -0.1)">
       <use xlink:href="#DejaVuSans-31"/>
       <use xlink:href="#DejaVuSans-35" x="63.623047"/>
       <use xlink:href="#DejaVuSans-30" x="127.246094"/>
      </g>
     </g>
    </g>
    <g id="xtick_8">
     <g id="line2d_8">
      <g>
       <use xlink:href="#me38bbfcc3a" x="310.281608" y="318.04" style="stroke: #000000; stroke-width: 0.8"/>
      </g>
     </g>
     <g id="text_8">
      <!-- 175 -->
      <g transform="translate(300.737858 332.638438) scale(0.1 -0.1)">
       <use xlink:href="#DejaVuSans-31"/>
       <use xlink:href="#DejaVuSans-37" x="63.623047"/>
       <use xlink:href="#DejaVuSans-35" x="127.246094"/>
      </g>
     </g>
    </g>
    <g id="xtick_9">
     <g id="line2d_9">
      <g>
       <use xlink:href="#me38bbfcc3a" x="344.930284" y="318.04" style="stroke: #000000; stroke-width: 0.8"/>
      </g>
     </g>
     <g id="text_9">
      <!-- 200 -->
      <g transform="translate(335.386534 332.638438) scale(0.1 -0.1)">
       <use xlink:href="#DejaVuSans-32"/>
       <use xlink:href="#DejaVuSans-30" x="63.623047"/>
       <use xlink:href="#DejaVuSans-30" x="127.246094"/>
      </g>
     </g>
    </g>
    <g id="text_10">
     <!-- Epoch -->
     <g transform="translate(189.638695 346.316563) scale(0.1 -0.1)">
      <defs>
       <path id="DejaVuSans-45" d="M 628 4666 
L 3578 4666 
L 3578 4134 
L 1259 4134 
L 1259 2753 
L 3481 2753 
L 3481 2222 
L 1259 2222 
L 1259 531 
L 3634 531 
L 3634 0 
L 628 0 
L 628 4666 
z
" transform="scale(0.015625)"/>
       <path id="DejaVuSans-70" d="M 1159 525 
L 1159 -1331 
L 581 -1331 
L 581 3500 
L 1159 3500 
L 1159 2969 
Q 1341 3281 1617 3432 
Q 1894 3584 2278 3584 
Q 2916 3584 3314 3078 
Q 3713 2572 3713 1747 
Q 3713 922 3314 415 
Q 2916 -91 2278 -91 
Q 1894 -91 1617 61 
Q 1341 213 1159 525 
z
M 3116 1747 
Q 3116 2381 2855 2742 
Q 2594 3103 2138 3103 
Q 1681 3103 1420 2742 
Q 1159 2381 1159 1747 
Q 1159 1113 1420 752 
Q 1681 391 2138 391 
Q 2594 391 2855 752 
Q 3116 1113 3116 1747 
z
" transform="scale(0.015625)"/>
       <path id="DejaVuSans-6f" d="M 1959 3097 
Q 1497 3097 1228 2736 
Q 959 2375 959 1747 
Q 959 1119 1226 758 
Q 1494 397 1959 397 
Q 2419 397 2687 759 
Q 2956 1122 2956 1747 
Q 2956 2369 2687 2733 
Q 2419 3097 1959 3097 
z
M 1959 3584 
Q 2709 3584 3137 3096 
Q 3566 2609 3566 1747 
Q 3566 888 3137 398 
Q 2709 -91 1959 -91 
Q 1206 -91 779 398 
Q 353 888 353 1747 
Q 353 2609 779 3096 
Q 1206 3584 1959 3584 
z
" transform="scale(0.015625)"/>
       <path id="DejaVuSans-63" d="M 3122 3366 
L 3122 2828 
Q 2878 2963 2633 3030 
Q 2388 3097 2138 3097 
Q 1578 3097 1268 2742 
Q 959 2388 959 1747 
Q 959 1106 1268 751 
Q 1578 397 2138 397 
Q 2388 397 2633 464 
Q 2878 531 3122 666 
L 3122 134 
Q 2881 22 2623 -34 
Q 2366 -91 2075 -91 
Q 1284 -91 818 406 
Q 353 903 353 1747 
Q 353 2603 823 3093 
Q 1294 3584 2113 3584 
Q 2378 3584 2631 3529 
Q 2884 3475 3122 3366 
z
" transform="scale(0.015625)"/>
       <path id="DejaVuSans-68" d="M 3513 2113 
L 3513 0 
L 2938 0 
L 2938 2094 
Q 2938 2591 2744 2837 
Q 2550 3084 2163 3084 
Q 1697 3084 1428 2787 
Q 1159 2491 1159 1978 
L 1159 0 
L 581 0 
L 581 4863 
L 1159 4863 
L 1159 2956 
Q 1366 3272 1645 3428 
Q 1925 3584 2291 3584 
Q 2894 3584 3203 3211 
Q 3513 2838 3513 2113 
z
" transform="scale(0.015625)"/>
      </defs>
      <use xlink:href="#DejaVuSans-45"/>
      <use xlink:href="#DejaVuSans-70" x="63.183594"/>
      <use xlink:href="#DejaVuSans-6f" x="126.660156"/>
      <use xlink:href="#DejaVuSans-63" x="187.841797"/>
      <use xlink:href="#DejaVuSans-68" x="242.822266"/>
     </g>
    </g>
   </g>
   <g id="matplotlib.axis_2">
    <g id="ytick_1">
     <g id="line2d_10">
      <defs>
       <path id="me55936d593" d="M 0 0 
L -3.5 0 
" style="stroke: #000000; stroke-width: 0.8"/>
      </defs>
      <g>
       <use xlink:href="#me55936d593" x="54.02" y="301.776494" style="stroke: #000000; stroke-width: 0.8"/>
      </g>
     </g>
     <g id="text_11">
      <!-- 0.35 -->
      <g transform="translate(24.754375 305.575713) scale(0.1 -0.1)">
       <defs>
        <path id="DejaVuSans-2e" d="M 684 794 
L 1344 794 
L 1344 0 
L 684 0 
L 684 794 
z
" transform="scale(0.015625)"/>
        <path id="DejaVuSans-33" d="M 2597 2516 
Q 3050 2419 3304 2112 
Q 3559 1806 3559 1356 
Q 3559 666 3084 287 
Q 2609 -91 1734 -91 
Q 1441 -91 1130 -33 
Q 819 25 488 141 
L 488 750 
Q 750 597 1062 519 
Q 1375 441 1716 441 
Q 2309 441 2620 675 
Q 2931 909 2931 1356 
Q 2931 1769 2642 2001 
Q 2353 2234 1838 2234 
L 1294 2234 
L 1294 2753 
L 1863 2753 
Q 2328 2753 2575 2939 
Q 2822 3125 2822 3475 
Q 2822 3834 2567 4026 
Q 2313 4219 1838 4219 
Q 1578 4219 1281 4162 
Q 984 4106 628 3988 
L 628 4550 
Q 988 4650 1302 4700 
Q 1616 4750 1894 4750 
Q 2613 4750 3031 4423 
Q 3450 4097 3450 3541 
Q 3450 3153 3228 2886 
Q 3006 2619 2597 2516 
z
" transform="scale(0.015625)"/>
       </defs>
       <use xlink:href="#DejaVuSans-30"/>
       <use xlink:href="#DejaVuSans-2e" x="63.623047"/>
       <use xlink:href="#DejaVuSans-33" x="95.410156"/>
       <use xlink:href="#DejaVuSans-35" x="159.033203"/>
      </g>
     </g>
    </g>
    <g id="ytick_2">
     <g id="line2d_11">
      <g>
       <use xlink:href="#me55936d593" x="54.02" y="267.375527" style="stroke: #000000; stroke-width: 0.8"/>
      </g>
     </g>
     <g id="text_12">
      <!-- 0.40 -->
      <g transform="translate(24.754375 271.174746) scale(0.1 -0.1)">
       <defs>
        <path id="DejaVuSans-34" d="M 2419 4116 
L 825 1625 
L 2419 1625 
L 2419 4116 
z
M 2253 4666 
L 3047 4666 
L 3047 1625 
L 3713 1625 
L 3713 1100 
L 3047 1100 
L 3047 0 
L 2419 0 
L 2419 1100 
L 313 1100 
L 313 1709 
L 2253 4666 
z
" transform="scale(0.015625)"/>
       </defs>
       <use xlink:href="#DejaVuSans-30"/>
       <use xlink:href="#DejaVuSans-2e" x="63.623047"/>
       <use xlink:href="#DejaVuSans-34" x="95.410156"/>
       <use xlink:href="#DejaVuSans-30" x="159.033203"/>
      </g>
     </g>
    </g>
    <g id="ytick_3">
     <g id="line2d_12">
      <g>
       <use xlink:href="#me55936d593" x="54.02" y="232.97456" style="stroke: #000000; stroke-width: 0.8"/>
      </g>
     </g>
     <g id="text_13">
      <!-- 0.45 -->
      <g transform="translate(24.754375 236.773779) scale(0.1 -0.1)">
       <use xlink:href="#DejaVuSans-30"/>
       <use xlink:href="#DejaVuSans-2e" x="63.623047"/>
       <use xlink:href="#DejaVuSans-34" x="95.410156"/>
       <use xlink:href="#DejaVuSans-35" x="159.033203"/>
      </g>
     </g>
    </g>
    <g id="ytick_4">
     <g id="line2d_13">
      <g>
       <use xlink:href="#me55936d593" x="54.02" y="198.573594" style="stroke: #000000; stroke-width: 0.8"/>
      </g>
     </g>
     <g id="text_14">
      <!-- 0.50 -->
      <g transform="translate(24.754375 202.372812) scale(0.1 -0.1)">
       <use xlink:href="#DejaVuSans-30"/>
       <use xlink:href="#DejaVuSans-2e" x="63.623047"/>
       <use xlink:href="#DejaVuSans-35" x="95.410156"/>
       <use xlink:href="#DejaVuSans-30" x="159.033203"/>
      </g>
     </g>
    </g>
    <g id="ytick_5">
     <g id="line2d_14">
      <g>
       <use xlink:href="#me55936d593" x="54.02" y="164.172627" style="stroke: #000000; stroke-width: 0.8"/>
      </g>
     </g>
     <g id="text_15">
      <!-- 0.55 -->
      <g transform="translate(24.754375 167.971845) scale(0.1 -0.1)">
       <use xlink:href="#DejaVuSans-30"/>
       <use xlink:href="#DejaVuSans-2e" x="63.623047"/>
       <use xlink:href="#DejaVuSans-35" x="95.410156"/>
       <use xlink:href="#DejaVuSans-35" x="159.033203"/>
      </g>
     </g>
    </g>
    <g id="ytick_6">
     <g id="line2d_15">
      <g>
       <use xlink:href="#me55936d593" x="54.02" y="129.77166" style="stroke: #000000; stroke-width: 0.8"/>
      </g>
     </g>
     <g id="text_16">
      <!-- 0.60 -->
      <g transform="translate(24.754375 133.570878) scale(0.1 -0.1)">
       <defs>
        <path id="DejaVuSans-36" d="M 2113 2584 
Q 1688 2584 1439 2293 
Q 1191 2003 1191 1497 
Q 1191 994 1439 701 
Q 1688 409 2113 409 
Q 2538 409 2786 701 
Q 3034 994 3034 1497 
Q 3034 2003 2786 2293 
Q 2538 2584 2113 2584 
z
M 3366 4563 
L 3366 3988 
Q 3128 4100 2886 4159 
Q 2644 4219 2406 4219 
Q 1781 4219 1451 3797 
Q 1122 3375 1075 2522 
Q 1259 2794 1537 2939 
Q 1816 3084 2150 3084 
Q 2853 3084 3261 2657 
Q 3669 2231 3669 1497 
Q 3669 778 3244 343 
Q 2819 -91 2113 -91 
Q 1303 -91 875 529 
Q 447 1150 447 2328 
Q 447 3434 972 4092 
Q 1497 4750 2381 4750 
Q 2619 4750 2861 4703 
Q 3103 4656 3366 4563 
z
" transform="scale(0.015625)"/>
       </defs>
       <use xlink:href="#DejaVuSans-30"/>
       <use xlink:href="#DejaVuSans-2e" x="63.623047"/>
       <use xlink:href="#DejaVuSans-36" x="95.410156"/>
       <use xlink:href="#DejaVuSans-30" x="159.033203"/>
      </g>
     </g>
    </g>
    <g id="ytick_7">
     <g id="line2d_16">
      <g>
       <use xlink:href="#me55936d593" x="54.02" y="95.370693" style="stroke: #000000; stroke-width: 0.8"/>
      </g>
     </g>
     <g id="text_17">
      <!-- 0.65 -->
      <g transform="translate(24.754375 99.169912) scale(0.1 -0.1)">
       <use xlink:href="#DejaVuSans-30"/>
       <use xlink:href="#DejaVuSans-2e" x="63.623047"/>
       <use xlink:href="#DejaVuSans-36" x="95.410156"/>
       <use xlink:href="#DejaVuSans-35" x="159.033203"/>
      </g>
     </g>
    </g>
    <g id="ytick_8">
     <g id="line2d_17">
      <g>
       <use xlink:href="#me55936d593" x="54.02" y="60.969726" style="stroke: #000000; stroke-width: 0.8"/>
      </g>
     </g>
     <g id="text_18">
      <!-- 0.70 -->
      <g transform="translate(24.754375 64.768945) scale(0.1 -0.1)">
       <use xlink:href="#DejaVuSans-30"/>
       <use xlink:href="#DejaVuSans-2e" x="63.623047"/>
       <use xlink:href="#DejaVuSans-37" x="95.410156"/>
       <use xlink:href="#DejaVuSans-30" x="159.033203"/>
      </g>
     </g>
    </g>
    <g id="text_19">
     <!-- Loss -->
     <g transform="translate(18.674688 183.427188) rotate(-90) scale(0.1 -0.1)">
      <defs>
       <path id="DejaVuSans-4c" d="M 628 4666 
L 1259 4666 
L 1259 531 
L 3531 531 
L 3531 0 
L 628 0 
L 628 4666 
z
" transform="scale(0.015625)"/>
       <path id="DejaVuSans-73" d="M 2834 3397 
L 2834 2853 
Q 2591 2978 2328 3040 
Q 2066 3103 1784 3103 
Q 1356 3103 1142 2972 
Q 928 2841 928 2578 
Q 928 2378 1081 2264 
Q 1234 2150 1697 2047 
L 1894 2003 
Q 2506 1872 2764 1633 
Q 3022 1394 3022 966 
Q 3022 478 2636 193 
Q 2250 -91 1575 -91 
Q 1294 -91 989 -36 
Q 684 19 347 128 
L 347 722 
Q 666 556 975 473 
Q 1284 391 1588 391 
Q 1994 391 2212 530 
Q 2431 669 2431 922 
Q 2431 1156 2273 1281 
Q 2116 1406 1581 1522 
L 1381 1569 
Q 847 1681 609 1914 
Q 372 2147 372 2553 
Q 372 3047 722 3315 
Q 1072 3584 1716 3584 
Q 2034 3584 2315 3537 
Q 2597 3491 2834 3397 
z
" transform="scale(0.015625)"/>
      </defs>
      <use xlink:href="#DejaVuSans-4c"/>
      <use xlink:href="#DejaVuSans-6f" x="53.962891"/>
      <use xlink:href="#DejaVuSans-73" x="115.144531"/>
      <use xlink:href="#DejaVuSans-73" x="167.244141"/>
     </g>
    </g>
   </g>
   <g id="line2d_18">
    <path d="M 67.740876 40.114545 
L 70.51277 90.317808 
L 71.898717 98.362422 
L 73.284664 108.434009 
L 74.670611 115.576764 
L 76.056558 122.12397 
L 77.442505 126.709135 
L 78.828452 134.525465 
L 80.214399 139.298397 
L 81.600346 146.163765 
L 82.986293 148.743036 
L 84.37224 153.270774 
L 85.758187 158.902724 
L 87.144134 159.810803 
L 88.530081 166.574524 
L 89.916028 167.811141 
L 91.301975 173.379651 
L 92.687922 175.932962 
L 94.07387 177.715739 
L 95.459817 181.660901 
L 96.845764 184.179348 
L 98.231711 184.832262 
L 99.617658 190.766573 
L 101.003605 194.215162 
L 102.389552 193.29562 
L 103.775499 198.505785 
L 105.161446 200.901143 
L 106.547393 202.882404 
L 107.93334 208.64691 
L 109.319287 208.855619 
L 112.091181 216.090296 
L 113.477128 214.067171 
L 114.863075 220.430041 
L 116.249022 223.415637 
L 117.634969 224.063417 
L 119.020916 224.965174 
L 120.406863 227.060585 
L 123.178757 233.265631 
L 124.564704 234.84179 
L 125.950652 236.058607 
L 127.336599 238.03613 
L 128.722546 239.296764 
L 130.108493 243.490927 
L 131.49444 244.896557 
L 132.880387 244.632048 
L 134.266334 243.871144 
L 135.652281 247.504916 
L 137.038228 248.991847 
L 138.424175 252.178736 
L 139.810122 253.571612 
L 141.196069 252.702942 
L 142.582016 255.047442 
L 143.967963 258.46444 
L 145.35391 257.304961 
L 146.739857 258.310007 
L 148.125804 261.562271 
L 149.511751 264.364891 
L 150.897698 263.339622 
L 152.283645 263.132758 
L 153.669592 268.090531 
L 155.055539 266.32221 
L 156.441486 266.124573 
L 157.827434 266.49043 
L 159.213381 266.684868 
L 160.599328 272.127035 
L 161.985275 270.90434 
L 163.371222 271.144496 
L 164.757169 272.370725 
L 166.143116 272.377095 
L 167.529063 268.895104 
L 168.91501 275.087704 
L 170.300957 275.025076 
L 171.686904 275.352404 
L 173.072851 276.699787 
L 174.458798 277.576576 
L 175.844745 279.8928 
L 177.230692 278.970976 
L 178.616639 278.970409 
L 180.002586 279.887155 
L 181.388533 279.200504 
L 182.77448 280.260167 
L 184.160427 280.413138 
L 185.546374 281.665024 
L 186.932321 281.478679 
L 188.318268 281.900683 
L 189.704215 283.462995 
L 191.090163 284.31075 
L 192.47611 281.694633 
L 193.862057 285.632796 
L 195.248004 280.886055 
L 196.633951 282.251298 
L 198.019898 288.276505 
L 199.405845 283.807322 
L 200.791792 283.470349 
L 202.177739 285.782623 
L 203.563686 286.889186 
L 204.949633 288.646189 
L 206.33558 286.345139 
L 207.721527 289.513294 
L 209.107474 289.741154 
L 210.493421 289.163745 
L 211.879368 289.538897 
L 213.265315 293.031291 
L 214.651262 290.908527 
L 216.037209 286.58416 
L 217.423156 288.456194 
L 218.809103 288.557992 
L 220.19505 290.016428 
L 221.580997 290.847273 
L 222.966945 295.03091 
L 224.352892 291.246518 
L 225.738839 288.797793 
L 228.510733 293.141195 
L 229.89668 291.245042 
L 231.282627 295.523868 
L 232.668574 293.247915 
L 234.054521 289.087072 
L 235.440468 292.404288 
L 236.826415 292.173783 
L 238.212362 294.303347 
L 239.598309 292.536693 
L 240.984256 292.886904 
L 242.370203 292.249998 
L 245.142097 294.731872 
L 246.528044 294.941442 
L 247.913991 293.349631 
L 249.299938 295.099252 
L 250.685885 296.428536 
L 252.071832 295.149399 
L 253.457779 294.100447 
L 254.843727 296.709244 
L 256.229674 296.163706 
L 259.001568 297.493394 
L 260.387515 297.074929 
L 261.773462 294.847613 
L 263.159409 295.541167 
L 264.545356 299.448218 
L 265.931303 292.985087 
L 267.31725 301.14912 
L 268.703197 298.659748 
L 270.089144 295.390376 
L 271.475091 296.15683 
L 272.861038 295.596802 
L 274.246985 296.979665 
L 275.632932 298.098962 
L 277.018879 294.828851 
L 278.404826 296.050569 
L 279.790773 299.004642 
L 281.17672 298.921975 
L 282.562667 298.978287 
L 283.948614 298.313214 
L 285.334561 296.2775 
L 286.720508 297.850453 
L 288.106456 300.299069 
L 289.492403 296.982324 
L 290.87835 302.449301 
L 292.264297 301.954676 
L 293.650244 297.867308 
L 295.036191 298.838248 
L 296.422138 298.271699 
L 297.808085 299.0135 
L 299.194032 299.141052 
L 300.579979 298.705029 
L 301.965926 299.304467 
L 303.351873 298.015529 
L 304.73782 301.57636 
L 306.123767 300.494764 
L 307.509714 300.040848 
L 308.895661 300.681547 
L 310.281608 298.322851 
L 311.667555 301.772069 
L 313.053502 298.895319 
L 314.439449 302.819019 
L 315.825396 299.490006 
L 317.211343 301.047848 
L 319.983238 299.227978 
L 321.369185 299.531432 
L 322.755132 298.43564 
L 324.141079 300.199355 
L 325.527026 303.68246 
L 326.912973 302.166994 
L 328.29892 303.021536 
L 329.684867 301.246988 
L 331.070814 301.51501 
L 332.456761 301.121938 
L 333.842708 299.990338 
L 335.228655 300.027376 
L 336.614602 304.60518 
L 338.000549 300.06045 
L 339.386496 302.154384 
L 340.772443 302.457749 
L 342.15839 302.376585 
L 342.15839 302.376585 
" clip-path="url(#pe390eace4b)" style="fill: none; stroke: #1f77b4; stroke-width: 1.5; stroke-linecap: square"/>
   </g>
   <g id="line2d_19">
    <path d="M 67.740876 71.046625 
L 70.51277 77.723078 
L 71.898717 89.942697 
L 73.284664 105.977315 
L 74.670611 115.802164 
L 76.056558 121.746932 
L 77.442505 120.273309 
L 78.828452 111.010778 
L 80.214399 111.10309 
L 81.600346 117.675216 
L 82.986293 113.066895 
L 84.37224 129.574799 
L 85.758187 127.822027 
L 87.144134 132.886985 
L 88.530081 131.35107 
L 89.916028 139.120171 
L 91.301975 131.487917 
L 92.687922 137.984176 
L 94.07387 135.456003 
L 95.459817 138.721767 
L 96.845764 151.124123 
L 98.231711 148.07255 
L 101.003605 152.158701 
L 102.389552 156.925236 
L 103.775499 176.757711 
L 105.161446 178.740421 
L 106.547393 180.985221 
L 107.93334 192.533889 
L 109.319287 192.146107 
L 110.705234 200.087057 
L 112.091181 207.087482 
L 113.477128 205.470492 
L 114.863075 203.539678 
L 116.249022 216.651533 
L 117.634969 217.659436 
L 119.020916 227.406695 
L 120.406863 219.51307 
L 121.79281 237.916068 
L 123.178757 226.633755 
L 124.564704 224.479237 
L 125.950652 227.825337 
L 127.336599 243.595692 
L 128.722546 236.172442 
L 130.108493 247.618587 
L 131.49444 248.622716 
L 132.880387 257.591028 
L 134.266334 218.840499 
L 135.652281 253.155396 
L 137.038228 255.727777 
L 138.424175 259.278923 
L 139.810122 266.90724 
L 141.196069 261.008135 
L 142.582016 264.923627 
L 143.967963 261.732439 
L 145.35391 266.198581 
L 146.739857 271.101225 
L 148.125804 267.816802 
L 149.511751 263.042886 
L 150.897698 237.871574 
L 152.283645 258.34699 
L 153.669592 273.977032 
L 155.055539 277.505357 
L 156.441486 274.02001 
L 157.827434 272.062397 
L 159.213381 280.183787 
L 160.599328 280.789677 
L 161.985275 278.370999 
L 163.371222 280.657054 
L 164.757169 277.39412 
L 166.143116 286.711337 
L 167.529063 273.652527 
L 168.91501 272.14946 
L 170.300957 275.960563 
L 171.686904 283.50803 
L 173.072851 281.110143 
L 174.458798 282.486123 
L 175.844745 288.462735 
L 177.230692 286.406987 
L 178.616639 280.540116 
L 180.002586 279.735906 
L 181.388533 291.452937 
L 182.77448 286.950974 
L 184.160427 283.695442 
L 185.546374 279.9738 
L 186.932321 274.672486 
L 188.318268 290.972556 
L 189.704215 296.033721 
L 191.090163 286.885297 
L 192.47611 285.814897 
L 193.862057 283.507333 
L 196.633951 299.536825 
L 198.019898 296.24418 
L 199.405845 294.756552 
L 200.791792 286.078155 
L 202.177739 286.870637 
L 203.563686 296.309938 
L 204.949633 294.795285 
L 206.33558 294.206866 
L 207.721527 297.480093 
L 209.107474 291.453553 
L 210.493421 288.793002 
L 211.879368 297.541299 
L 213.265315 297.353867 
L 214.651262 288.713608 
L 216.037209 294.835659 
L 217.423156 300.113967 
L 218.809103 299.957968 
L 220.19505 293.087562 
L 221.580997 288.255372 
L 222.966945 287.18815 
L 224.352892 295.699558 
L 225.738839 301.014302 
L 227.124786 298.635526 
L 229.89668 290.033693 
L 231.282627 292.466827 
L 232.668574 297.020134 
L 234.054521 299.216133 
L 235.440468 297.640152 
L 236.826415 296.542747 
L 238.212362 300.791746 
L 239.598309 299.72762 
L 240.984256 296.292591 
L 242.370203 297.468036 
L 243.75615 296.878796 
L 245.142097 296.559786 
L 246.528044 298.046491 
L 247.913991 300.945674 
L 249.299938 300.742637 
L 250.685885 299.769654 
L 252.071832 298.300686 
L 253.457779 295.333633 
L 254.843727 296.73508 
L 256.229674 297.867896 
L 257.615621 298.492035 
L 259.001568 298.534869 
L 261.773462 295.790065 
L 263.159409 295.095103 
L 264.545356 296.030707 
L 265.931303 297.506093 
L 267.31725 297.539392 
L 268.703197 300.583727 
L 270.089144 302.661968 
L 271.475091 302.272114 
L 272.861038 300.755617 
L 275.632932 292.161022 
L 277.018879 295.131212 
L 278.404826 300.439231 
L 279.790773 301.955975 
L 281.17672 301.013749 
L 282.562667 298.630543 
L 283.948614 295.806797 
L 285.334561 297.967507 
L 286.720508 301.061401 
L 288.106456 302.353231 
L 289.492403 300.545137 
L 290.87835 297.555591 
L 292.264297 296.245472 
L 293.650244 297.278553 
L 297.808085 303.42888 
L 299.194032 304.203953 
L 300.579979 303.381022 
L 301.965926 300.064941 
L 303.351873 294.585298 
L 304.73782 293.048788 
L 306.123767 295.898575 
L 307.509714 300.046015 
L 308.895661 302.599901 
L 310.281608 302.945464 
L 311.667555 301.292447 
L 313.053502 298.992182 
L 314.439449 299.315375 
L 315.825396 302.597235 
L 317.211343 304.805455 
L 318.59729 304.733894 
L 319.983238 304.291815 
L 321.369185 302.907572 
L 322.755132 300.557112 
L 324.141079 299.652778 
L 325.527026 300.244868 
L 326.912973 301.166098 
L 328.29892 301.718183 
L 329.684867 301.715702 
L 331.070814 301.342929 
L 332.456761 301.141677 
L 333.842708 301.375962 
L 336.614602 300.990271 
L 338.000549 301.02314 
L 339.386496 302.156858 
L 340.772443 303.438435 
L 342.15839 303.527548 
L 342.15839 303.527548 
" clip-path="url(#pe390eace4b)" style="fill: none; stroke: #ff7f0e; stroke-width: 1.5; stroke-linecap: square"/>
   </g>
   <g id="patch_3">
    <path d="M 54.02 318.04 
L 54.02 26.88 
" style="fill: none; stroke: #000000; stroke-width: 0.8; stroke-linejoin: miter; stroke-linecap: square"/>
   </g>
   <g id="patch_4">
    <path d="M 355.879266 318.04 
L 355.879266 26.88 
" style="fill: none; stroke: #000000; stroke-width: 0.8; stroke-linejoin: miter; stroke-linecap: square"/>
   </g>
   <g id="patch_5">
    <path d="M 54.02 318.04 
L 355.879266 318.04 
" style="fill: none; stroke: #000000; stroke-width: 0.8; stroke-linejoin: miter; stroke-linecap: square"/>
   </g>
   <g id="patch_6">
    <path d="M 54.02 26.88 
L 355.879266 26.88 
" style="fill: none; stroke: #000000; stroke-width: 0.8; stroke-linejoin: miter; stroke-linecap: square"/>
   </g>
   <g id="text_20">
    <!-- Loss vs Epoch -->
    <g transform="translate(162.925258 20.88) scale(0.12 -0.12)">
     <defs>
      <path id="DejaVuSans-20" transform="scale(0.015625)"/>
      <path id="DejaVuSans-76" d="M 191 3500 
L 800 3500 
L 1894 563 
L 2988 3500 
L 3597 3500 
L 2284 0 
L 1503 0 
L 191 3500 
z
" transform="scale(0.015625)"/>
     </defs>
     <use xlink:href="#DejaVuSans-4c"/>
     <use xlink:href="#DejaVuSans-6f" x="53.962891"/>
     <use xlink:href="#DejaVuSans-73" x="115.144531"/>
     <use xlink:href="#DejaVuSans-73" x="167.244141"/>
     <use xlink:href="#DejaVuSans-20" x="219.34375"/>
     <use xlink:href="#DejaVuSans-76" x="251.130859"/>
     <use xlink:href="#DejaVuSans-73" x="310.310547"/>
     <use xlink:href="#DejaVuSans-20" x="362.410156"/>
     <use xlink:href="#DejaVuSans-45" x="394.197266"/>
     <use xlink:href="#DejaVuSans-70" x="457.380859"/>
     <use xlink:href="#DejaVuSans-6f" x="520.857422"/>
     <use xlink:href="#DejaVuSans-63" x="582.039062"/>
     <use xlink:href="#DejaVuSans-68" x="637.019531"/>
    </g>
   </g>
   <g id="legend_1">
    <g id="patch_7">
     <path d="M 242.385516 64.23625 
L 348.879266 64.23625 
Q 350.879266 64.23625 350.879266 62.23625 
L 350.879266 33.88 
Q 350.879266 31.88 348.879266 31.88 
L 242.385516 31.88 
Q 240.385516 31.88 240.385516 33.88 
L 240.385516 62.23625 
Q 240.385516 64.23625 242.385516 64.23625 
z
" style="fill: #ffffff; opacity: 0.8; stroke: #cccccc; stroke-linejoin: miter"/>
    </g>
    <g id="line2d_20">
     <path d="M 244.385516 39.978437 
L 254.385516 39.978437 
L 264.385516 39.978437 
" style="fill: none; stroke: #1f77b4; stroke-width: 1.5; stroke-linecap: square"/>
    </g>
    <g id="text_21">
     <!-- Train Loss -->
     <g transform="translate(272.385516 43.478437) scale(0.1 -0.1)">
      <defs>
       <path id="DejaVuSans-54" d="M -19 4666 
L 3928 4666 
L 3928 4134 
L 2272 4134 
L 2272 0 
L 1638 0 
L 1638 4134 
L -19 4134 
L -19 4666 
z
" transform="scale(0.015625)"/>
       <path id="DejaVuSans-72" d="M 2631 2963 
Q 2534 3019 2420 3045 
Q 2306 3072 2169 3072 
Q 1681 3072 1420 2755 
Q 1159 2438 1159 1844 
L 1159 0 
L 581 0 
L 581 3500 
L 1159 3500 
L 1159 2956 
Q 1341 3275 1631 3429 
Q 1922 3584 2338 3584 
Q 2397 3584 2469 3576 
Q 2541 3569 2628 3553 
L 2631 2963 
z
" transform="scale(0.015625)"/>
       <path id="DejaVuSans-61" d="M 2194 1759 
Q 1497 1759 1228 1600 
Q 959 1441 959 1056 
Q 959 750 1161 570 
Q 1363 391 1709 391 
Q 2188 391 2477 730 
Q 2766 1069 2766 1631 
L 2766 1759 
L 2194 1759 
z
M 3341 1997 
L 3341 0 
L 2766 0 
L 2766 531 
Q 2569 213 2275 61 
Q 1981 -91 1556 -91 
Q 1019 -91 701 211 
Q 384 513 384 1019 
Q 384 1609 779 1909 
Q 1175 2209 1959 2209 
L 2766 2209 
L 2766 2266 
Q 2766 2663 2505 2880 
Q 2244 3097 1772 3097 
Q 1472 3097 1187 3025 
Q 903 2953 641 2809 
L 641 3341 
Q 956 3463 1253 3523 
Q 1550 3584 1831 3584 
Q 2591 3584 2966 3190 
Q 3341 2797 3341 1997 
z
" transform="scale(0.015625)"/>
       <path id="DejaVuSans-69" d="M 603 3500 
L 1178 3500 
L 1178 0 
L 603 0 
L 603 3500 
z
M 603 4863 
L 1178 4863 
L 1178 4134 
L 603 4134 
L 603 4863 
z
" transform="scale(0.015625)"/>
       <path id="DejaVuSans-6e" d="M 3513 2113 
L 3513 0 
L 2938 0 
L 2938 2094 
Q 2938 2591 2744 2837 
Q 2550 3084 2163 3084 
Q 1697 3084 1428 2787 
Q 1159 2491 1159 1978 
L 1159 0 
L 581 0 
L 581 3500 
L 1159 3500 
L 1159 2956 
Q 1366 3272 1645 3428 
Q 1925 3584 2291 3584 
Q 2894 3584 3203 3211 
Q 3513 2838 3513 2113 
z
" transform="scale(0.015625)"/>
      </defs>
      <use xlink:href="#DejaVuSans-54"/>
      <use xlink:href="#DejaVuSans-72" x="46.333984"/>
      <use xlink:href="#DejaVuSans-61" x="87.447266"/>
      <use xlink:href="#DejaVuSans-69" x="148.726562"/>
      <use xlink:href="#DejaVuSans-6e" x="176.509766"/>
      <use xlink:href="#DejaVuSans-20" x="239.888672"/>
      <use xlink:href="#DejaVuSans-4c" x="271.675781"/>
      <use xlink:href="#DejaVuSans-6f" x="325.638672"/>
      <use xlink:href="#DejaVuSans-73" x="386.820312"/>
      <use xlink:href="#DejaVuSans-73" x="438.919922"/>
     </g>
    </g>
    <g id="line2d_21">
     <path d="M 244.385516 54.656563 
L 254.385516 54.656563 
L 264.385516 54.656563 
" style="fill: none; stroke: #ff7f0e; stroke-width: 1.5; stroke-linecap: square"/>
    </g>
    <g id="text_22">
     <!-- Validation Loss -->
     <g transform="translate(272.385516 58.156563) scale(0.1 -0.1)">
      <defs>
       <path id="DejaVuSans-56" d="M 1831 0 
L 50 4666 
L 709 4666 
L 2188 738 
L 3669 4666 
L 4325 4666 
L 2547 0 
L 1831 0 
z
" transform="scale(0.015625)"/>
       <path id="DejaVuSans-6c" d="M 603 4863 
L 1178 4863 
L 1178 0 
L 603 0 
L 603 4863 
z
" transform="scale(0.015625)"/>
       <path id="DejaVuSans-64" d="M 2906 2969 
L 2906 4863 
L 3481 4863 
L 3481 0 
L 2906 0 
L 2906 525 
Q 2725 213 2448 61 
Q 2172 -91 1784 -91 
Q 1150 -91 751 415 
Q 353 922 353 1747 
Q 353 2572 751 3078 
Q 1150 3584 1784 3584 
Q 2172 3584 2448 3432 
Q 2725 3281 2906 2969 
z
M 947 1747 
Q 947 1113 1208 752 
Q 1469 391 1925 391 
Q 2381 391 2643 752 
Q 2906 1113 2906 1747 
Q 2906 2381 2643 2742 
Q 2381 3103 1925 3103 
Q 1469 3103 1208 2742 
Q 947 2381 947 1747 
z
" transform="scale(0.015625)"/>
       <path id="DejaVuSans-74" d="M 1172 4494 
L 1172 3500 
L 2356 3500 
L 2356 3053 
L 1172 3053 
L 1172 1153 
Q 1172 725 1289 603 
Q 1406 481 1766 481 
L 2356 481 
L 2356 0 
L 1766 0 
Q 1100 0 847 248 
Q 594 497 594 1153 
L 594 3053 
L 172 3053 
L 172 3500 
L 594 3500 
L 594 4494 
L 1172 4494 
z
" transform="scale(0.015625)"/>
      </defs>
      <use xlink:href="#DejaVuSans-56"/>
      <use xlink:href="#DejaVuSans-61" x="60.658203"/>
      <use xlink:href="#DejaVuSans-6c" x="121.9375"/>
      <use xlink:href="#DejaVuSans-69" x="149.720703"/>
      <use xlink:href="#DejaVuSans-64" x="177.503906"/>
      <use xlink:href="#DejaVuSans-61" x="240.980469"/>
      <use xlink:href="#DejaVuSans-74" x="302.259766"/>
      <use xlink:href="#DejaVuSans-69" x="341.46875"/>
      <use xlink:href="#DejaVuSans-6f" x="369.251953"/>
      <use xlink:href="#DejaVuSans-6e" x="430.433594"/>
      <use xlink:href="#DejaVuSans-20" x="493.8125"/>
      <use xlink:href="#DejaVuSans-4c" x="525.599609"/>
      <use xlink:href="#DejaVuSans-6f" x="579.5625"/>
      <use xlink:href="#DejaVuSans-73" x="640.744141"/>
      <use xlink:href="#DejaVuSans-73" x="692.84375"/>
     </g>
    </g>
   </g>
  </g>
  <g id="axes_2">
   <g id="patch_8">
    <path d="M 410.42 318.04 
L 712.279266 318.04 
L 712.279266 26.88 
L 410.42 26.88 
z
" style="fill: #ffffff"/>
   </g>
   <g id="matplotlib.axis_3">
    <g id="xtick_10">
     <g id="line2d_22">
      <g>
       <use xlink:href="#me38bbfcc3a" x="424.140876" y="318.04" style="stroke: #000000; stroke-width: 0.8"/>
      </g>
     </g>
     <g id="text_23">
      <!-- 0 -->
      <g transform="translate(420.959626 332.638438) scale(0.1 -0.1)">
       <use xlink:href="#DejaVuSans-30"/>
      </g>
     </g>
    </g>
    <g id="xtick_11">
     <g id="line2d_23">
      <g>
       <use xlink:href="#me38bbfcc3a" x="458.789552" y="318.04" style="stroke: #000000; stroke-width: 0.8"/>
      </g>
     </g>
     <g id="text_24">
      <!-- 25 -->
      <g transform="translate(452.427052 332.638438) scale(0.1 -0.1)">
       <use xlink:href="#DejaVuSans-32"/>
       <use xlink:href="#DejaVuSans-35" x="63.623047"/>
      </g>
     </g>
    </g>
    <g id="xtick_12">
     <g id="line2d_24">
      <g>
       <use xlink:href="#me38bbfcc3a" x="493.438228" y="318.04" style="stroke: #000000; stroke-width: 0.8"/>
      </g>
     </g>
     <g id="text_25">
      <!-- 50 -->
      <g transform="translate(487.075728 332.638438) scale(0.1 -0.1)">
       <use xlink:href="#DejaVuSans-35"/>
       <use xlink:href="#DejaVuSans-30" x="63.623047"/>
      </g>
     </g>
    </g>
    <g id="xtick_13">
     <g id="line2d_25">
      <g>
       <use xlink:href="#me38bbfcc3a" x="528.086904" y="318.04" style="stroke: #000000; stroke-width: 0.8"/>
      </g>
     </g>
     <g id="text_26">
      <!-- 75 -->
      <g transform="translate(521.724404 332.638438) scale(0.1 -0.1)">
       <use xlink:href="#DejaVuSans-37"/>
       <use xlink:href="#DejaVuSans-35" x="63.623047"/>
      </g>
     </g>
    </g>
    <g id="xtick_14">
     <g id="line2d_26">
      <g>
       <use xlink:href="#me38bbfcc3a" x="562.73558" y="318.04" style="stroke: #000000; stroke-width: 0.8"/>
      </g>
     </g>
     <g id="text_27">
      <!-- 100 -->
      <g transform="translate(553.19183 332.638438) scale(0.1 -0.1)">
       <use xlink:href="#DejaVuSans-31"/>
       <use xlink:href="#DejaVuSans-30" x="63.623047"/>
       <use xlink:href="#DejaVuSans-30" x="127.246094"/>
      </g>
     </g>
    </g>
    <g id="xtick_15">
     <g id="line2d_27">
      <g>
       <use xlink:href="#me38bbfcc3a" x="597.384256" y="318.04" style="stroke: #000000; stroke-width: 0.8"/>
      </g>
     </g>
     <g id="text_28">
      <!-- 125 -->
      <g transform="translate(587.840506 332.638438) scale(0.1 -0.1)">
       <use xlink:href="#DejaVuSans-31"/>
       <use xlink:href="#DejaVuSans-32" x="63.623047"/>
       <use xlink:href="#DejaVuSans-35" x="127.246094"/>
      </g>
     </g>
    </g>
    <g id="xtick_16">
     <g id="line2d_28">
      <g>
       <use xlink:href="#me38bbfcc3a" x="632.032932" y="318.04" style="stroke: #000000; stroke-width: 0.8"/>
      </g>
     </g>
     <g id="text_29">
      <!-- 150 -->
      <g transform="translate(622.489182 332.638438) scale(0.1 -0.1)">
       <use xlink:href="#DejaVuSans-31"/>
       <use xlink:href="#DejaVuSans-35" x="63.623047"/>
       <use xlink:href="#DejaVuSans-30" x="127.246094"/>
      </g>
     </g>
    </g>
    <g id="xtick_17">
     <g id="line2d_29">
      <g>
       <use xlink:href="#me38bbfcc3a" x="666.681608" y="318.04" style="stroke: #000000; stroke-width: 0.8"/>
      </g>
     </g>
     <g id="text_30">
      <!-- 175 -->
      <g transform="translate(657.137858 332.638438) scale(0.1 -0.1)">
       <use xlink:href="#DejaVuSans-31"/>
       <use xlink:href="#DejaVuSans-37" x="63.623047"/>
       <use xlink:href="#DejaVuSans-35" x="127.246094"/>
      </g>
     </g>
    </g>
    <g id="xtick_18">
     <g id="line2d_30">
      <g>
       <use xlink:href="#me38bbfcc3a" x="701.330284" y="318.04" style="stroke: #000000; stroke-width: 0.8"/>
      </g>
     </g>
     <g id="text_31">
      <!-- 200 -->
      <g transform="translate(691.786534 332.638438) scale(0.1 -0.1)">
       <use xlink:href="#DejaVuSans-32"/>
       <use xlink:href="#DejaVuSans-30" x="63.623047"/>
       <use xlink:href="#DejaVuSans-30" x="127.246094"/>
      </g>
     </g>
    </g>
    <g id="text_32">
     <!-- Epoch -->
     <g transform="translate(546.038695 346.316563) scale(0.1 -0.1)">
      <use xlink:href="#DejaVuSans-45"/>
      <use xlink:href="#DejaVuSans-70" x="63.183594"/>
      <use xlink:href="#DejaVuSans-6f" x="126.660156"/>
      <use xlink:href="#DejaVuSans-63" x="187.841797"/>
      <use xlink:href="#DejaVuSans-68" x="242.822266"/>
     </g>
    </g>
   </g>
   <g id="matplotlib.axis_4">
    <g id="ytick_9">
     <g id="line2d_31">
      <g>
       <use xlink:href="#me55936d593" x="410.42" y="287.514177" style="stroke: #000000; stroke-width: 0.8"/>
      </g>
     </g>
     <g id="text_33">
      <!-- 0.55 -->
      <g transform="translate(381.154375 291.313395) scale(0.1 -0.1)">
       <use xlink:href="#DejaVuSans-30"/>
       <use xlink:href="#DejaVuSans-2e" x="63.623047"/>
       <use xlink:href="#DejaVuSans-35" x="95.410156"/>
       <use xlink:href="#DejaVuSans-35" x="159.033203"/>
      </g>
     </g>
    </g>
    <g id="ytick_10">
     <g id="line2d_32">
      <g>
       <use xlink:href="#me55936d593" x="410.42" y="253.731217" style="stroke: #000000; stroke-width: 0.8"/>
      </g>
     </g>
     <g id="text_34">
      <!-- 0.60 -->
      <g transform="translate(381.154375 257.530436) scale(0.1 -0.1)">
       <use xlink:href="#DejaVuSans-30"/>
       <use xlink:href="#DejaVuSans-2e" x="63.623047"/>
       <use xlink:href="#DejaVuSans-36" x="95.410156"/>
       <use xlink:href="#DejaVuSans-30" x="159.033203"/>
      </g>
     </g>
    </g>
    <g id="ytick_11">
     <g id="line2d_33">
      <g>
       <use xlink:href="#me55936d593" x="410.42" y="219.948258" style="stroke: #000000; stroke-width: 0.8"/>
      </g>
     </g>
     <g id="text_35">
      <!-- 0.65 -->
      <g transform="translate(381.154375 223.747476) scale(0.1 -0.1)">
       <use xlink:href="#DejaVuSans-30"/>
       <use xlink:href="#DejaVuSans-2e" x="63.623047"/>
       <use xlink:href="#DejaVuSans-36" x="95.410156"/>
       <use xlink:href="#DejaVuSans-35" x="159.033203"/>
      </g>
     </g>
    </g>
    <g id="ytick_12">
     <g id="line2d_34">
      <g>
       <use xlink:href="#me55936d593" x="410.42" y="186.165298" style="stroke: #000000; stroke-width: 0.8"/>
      </g>
     </g>
     <g id="text_36">
      <!-- 0.70 -->
      <g transform="translate(381.154375 189.964517) scale(0.1 -0.1)">
       <use xlink:href="#DejaVuSans-30"/>
       <use xlink:href="#DejaVuSans-2e" x="63.623047"/>
       <use xlink:href="#DejaVuSans-37" x="95.410156"/>
       <use xlink:href="#DejaVuSans-30" x="159.033203"/>
      </g>
     </g>
    </g>
    <g id="ytick_13">
     <g id="line2d_35">
      <g>
       <use xlink:href="#me55936d593" x="410.42" y="152.382339" style="stroke: #000000; stroke-width: 0.8"/>
      </g>
     </g>
     <g id="text_37">
      <!-- 0.75 -->
      <g transform="translate(381.154375 156.181558) scale(0.1 -0.1)">
       <use xlink:href="#DejaVuSans-30"/>
       <use xlink:href="#DejaVuSans-2e" x="63.623047"/>
       <use xlink:href="#DejaVuSans-37" x="95.410156"/>
       <use xlink:href="#DejaVuSans-35" x="159.033203"/>
      </g>
     </g>
    </g>
    <g id="ytick_14">
     <g id="line2d_36">
      <g>
       <use xlink:href="#me55936d593" x="410.42" y="118.599379" style="stroke: #000000; stroke-width: 0.8"/>
      </g>
     </g>
     <g id="text_38">
      <!-- 0.80 -->
      <g transform="translate(381.154375 122.398598) scale(0.1 -0.1)">
       <defs>
        <path id="DejaVuSans-38" d="M 2034 2216 
Q 1584 2216 1326 1975 
Q 1069 1734 1069 1313 
Q 1069 891 1326 650 
Q 1584 409 2034 409 
Q 2484 409 2743 651 
Q 3003 894 3003 1313 
Q 3003 1734 2745 1975 
Q 2488 2216 2034 2216 
z
M 1403 2484 
Q 997 2584 770 2862 
Q 544 3141 544 3541 
Q 544 4100 942 4425 
Q 1341 4750 2034 4750 
Q 2731 4750 3128 4425 
Q 3525 4100 3525 3541 
Q 3525 3141 3298 2862 
Q 3072 2584 2669 2484 
Q 3125 2378 3379 2068 
Q 3634 1759 3634 1313 
Q 3634 634 3220 271 
Q 2806 -91 2034 -91 
Q 1263 -91 848 271 
Q 434 634 434 1313 
Q 434 1759 690 2068 
Q 947 2378 1403 2484 
z
M 1172 3481 
Q 1172 3119 1398 2916 
Q 1625 2713 2034 2713 
Q 2441 2713 2670 2916 
Q 2900 3119 2900 3481 
Q 2900 3844 2670 4047 
Q 2441 4250 2034 4250 
Q 1625 4250 1398 4047 
Q 1172 3844 1172 3481 
z
" transform="scale(0.015625)"/>
       </defs>
       <use xlink:href="#DejaVuSans-30"/>
       <use xlink:href="#DejaVuSans-2e" x="63.623047"/>
       <use xlink:href="#DejaVuSans-38" x="95.410156"/>
       <use xlink:href="#DejaVuSans-30" x="159.033203"/>
      </g>
     </g>
    </g>
    <g id="ytick_15">
     <g id="line2d_37">
      <g>
       <use xlink:href="#me55936d593" x="410.42" y="84.81642" style="stroke: #000000; stroke-width: 0.8"/>
      </g>
     </g>
     <g id="text_39">
      <!-- 0.85 -->
      <g transform="translate(381.154375 88.615639) scale(0.1 -0.1)">
       <use xlink:href="#DejaVuSans-30"/>
       <use xlink:href="#DejaVuSans-2e" x="63.623047"/>
       <use xlink:href="#DejaVuSans-38" x="95.410156"/>
       <use xlink:href="#DejaVuSans-35" x="159.033203"/>
      </g>
     </g>
    </g>
    <g id="ytick_16">
     <g id="line2d_38">
      <g>
       <use xlink:href="#me55936d593" x="410.42" y="51.033461" style="stroke: #000000; stroke-width: 0.8"/>
      </g>
     </g>
     <g id="text_40">
      <!-- 0.90 -->
      <g transform="translate(381.154375 54.832679) scale(0.1 -0.1)">
       <defs>
        <path id="DejaVuSans-39" d="M 703 97 
L 703 672 
Q 941 559 1184 500 
Q 1428 441 1663 441 
Q 2288 441 2617 861 
Q 2947 1281 2994 2138 
Q 2813 1869 2534 1725 
Q 2256 1581 1919 1581 
Q 1219 1581 811 2004 
Q 403 2428 403 3163 
Q 403 3881 828 4315 
Q 1253 4750 1959 4750 
Q 2769 4750 3195 4129 
Q 3622 3509 3622 2328 
Q 3622 1225 3098 567 
Q 2575 -91 1691 -91 
Q 1453 -91 1209 -44 
Q 966 3 703 97 
z
M 1959 2075 
Q 2384 2075 2632 2365 
Q 2881 2656 2881 3163 
Q 2881 3666 2632 3958 
Q 2384 4250 1959 4250 
Q 1534 4250 1286 3958 
Q 1038 3666 1038 3163 
Q 1038 2656 1286 2365 
Q 1534 2075 1959 2075 
z
" transform="scale(0.015625)"/>
       </defs>
       <use xlink:href="#DejaVuSans-30"/>
       <use xlink:href="#DejaVuSans-2e" x="63.623047"/>
       <use xlink:href="#DejaVuSans-39" x="95.410156"/>
       <use xlink:href="#DejaVuSans-30" x="159.033203"/>
      </g>
     </g>
    </g>
    <g id="text_41">
     <!-- Accuracy -->
     <g transform="translate(375.074688 195.288125) rotate(-90) scale(0.1 -0.1)">
      <defs>
       <path id="DejaVuSans-41" d="M 2188 4044 
L 1331 1722 
L 3047 1722 
L 2188 4044 
z
M 1831 4666 
L 2547 4666 
L 4325 0 
L 3669 0 
L 3244 1197 
L 1141 1197 
L 716 0 
L 50 0 
L 1831 4666 
z
" transform="scale(0.015625)"/>
       <path id="DejaVuSans-75" d="M 544 1381 
L 544 3500 
L 1119 3500 
L 1119 1403 
Q 1119 906 1312 657 
Q 1506 409 1894 409 
Q 2359 409 2629 706 
Q 2900 1003 2900 1516 
L 2900 3500 
L 3475 3500 
L 3475 0 
L 2900 0 
L 2900 538 
Q 2691 219 2414 64 
Q 2138 -91 1772 -91 
Q 1169 -91 856 284 
Q 544 659 544 1381 
z
M 1991 3584 
L 1991 3584 
z
" transform="scale(0.015625)"/>
       <path id="DejaVuSans-79" d="M 2059 -325 
Q 1816 -950 1584 -1140 
Q 1353 -1331 966 -1331 
L 506 -1331 
L 506 -850 
L 844 -850 
Q 1081 -850 1212 -737 
Q 1344 -625 1503 -206 
L 1606 56 
L 191 3500 
L 800 3500 
L 1894 763 
L 2988 3500 
L 3597 3500 
L 2059 -325 
z
" transform="scale(0.015625)"/>
      </defs>
      <use xlink:href="#DejaVuSans-41"/>
      <use xlink:href="#DejaVuSans-63" x="66.658203"/>
      <use xlink:href="#DejaVuSans-63" x="121.638672"/>
      <use xlink:href="#DejaVuSans-75" x="176.619141"/>
      <use xlink:href="#DejaVuSans-72" x="239.998047"/>
      <use xlink:href="#DejaVuSans-61" x="281.111328"/>
      <use xlink:href="#DejaVuSans-63" x="342.390625"/>
      <use xlink:href="#DejaVuSans-79" x="397.371094"/>
     </g>
    </g>
   </g>
   <g id="line2d_39">
    <path d="M 424.140876 304.805455 
L 425.526823 280.103629 
L 426.91277 241.266076 
L 429.684664 211.423986 
L 431.070611 205.783974 
L 432.456558 193.932809 
L 435.228452 178.726194 
L 436.614399 174.656818 
L 438.000346 172.586433 
L 440.77224 165.447177 
L 442.158187 160.449698 
L 443.544134 160.306913 
L 444.930081 151.811198 
L 446.316028 154.09576 
L 447.701975 150.45474 
L 449.087922 149.526636 
L 450.47387 145.742831 
L 451.859817 142.601558 
L 453.245764 137.318509 
L 454.631711 139.460286 
L 457.403605 131.749889 
L 458.789552 133.17774 
L 460.175499 127.109373 
L 461.561446 126.75241 
L 462.947393 120.541257 
L 464.33334 119.541761 
L 465.719287 119.184798 
L 467.105234 117.185807 
L 468.491181 114.330104 
L 469.877128 116.257703 
L 471.263075 110.903261 
L 472.649022 108.190344 
L 474.034969 105.83439 
L 475.420916 107.547811 
L 476.806863 104.192361 
L 478.19281 103.549828 
L 479.578757 100.622733 
L 480.964704 100.55134 
L 482.350652 97.838423 
L 483.736599 98.123993 
L 485.122546 97.267283 
L 486.508493 95.696646 
L 487.89444 92.341196 
L 489.280387 91.198915 
L 490.666334 92.127018 
L 492.052281 90.056634 
L 493.438228 89.556886 
L 494.824175 84.273837 
L 496.210122 88.485998 
L 497.596069 83.631304 
L 498.982016 81.84649 
L 500.367963 81.275349 
L 501.75391 79.133572 
L 503.139857 79.34775 
L 504.525804 77.134581 
L 505.911751 73.564953 
L 507.297698 77.491543 
L 508.683645 75.706729 
L 510.069592 73.49356 
L 511.455539 73.065205 
L 512.841486 72.208494 
L 514.227434 75.563944 
L 515.613381 74.635841 
L 516.999328 70.566465 
L 518.385275 71.066213 
L 519.771222 69.923932 
L 521.157169 69.923932 
L 522.543116 70.066717 
L 523.929063 71.351783 
L 525.31501 68.424688 
L 526.700957 67.425192 
L 528.086904 66.282911 
L 529.472851 64.355312 
L 530.858798 65.925949 
L 532.244745 66.711267 
L 533.630692 65.854556 
L 535.016639 63.784172 
L 536.402586 64.56949 
L 537.788533 63.855564 
L 539.17448 64.640883 
L 540.560427 62.784676 
L 541.946374 62.784676 
L 543.332321 61.428217 
L 544.718268 62.07075 
L 546.104215 60.999862 
L 547.490163 60.928469 
L 548.87611 63.284424 
L 550.262057 60.785684 
L 551.648004 60.999862 
L 553.033951 60.214544 
L 554.419898 58.786693 
L 555.805845 61.713788 
L 557.191792 58.7153 
L 558.577739 60.714292 
L 559.963686 58.501122 
L 561.349633 57.501627 
L 562.73558 59.215048 
L 564.121527 54.217569 
L 565.507474 56.359346 
L 566.893421 54.860102 
L 568.279368 54.931494 
L 569.665315 54.003391 
L 571.051262 55.93099 
L 572.437209 61.713788 
L 573.823156 58.501122 
L 575.209103 57.787197 
L 576.59505 55.288457 
L 577.980997 56.287953 
L 579.366945 53.717821 
L 580.752892 57.287449 
L 582.138839 54.860102 
L 583.524786 56.573523 
L 584.910733 53.717821 
L 586.29668 51.933007 
L 587.682627 50.933511 
L 589.068574 54.788709 
L 590.454521 56.216561 
L 591.840468 53.717821 
L 593.226415 53.075288 
L 594.612362 50.290978 
L 595.998309 51.861614 
L 597.384256 55.35985 
L 598.770203 52.932503 
L 600.15615 55.716813 
L 601.542097 51.076296 
L 604.313991 53.218073 
L 605.699938 49.648445 
L 607.085885 50.719333 
L 608.471832 50.148193 
L 609.857779 51.219081 
L 611.243727 48.149201 
L 612.629674 52.147185 
L 614.015621 51.718829 
L 615.401568 49.577052 
L 616.787515 49.362875 
L 618.173462 51.004904 
L 619.559409 51.433259 
L 620.945356 52.218577 
L 622.331303 54.288961 
L 623.71725 48.934519 
L 625.103197 47.363883 
L 626.489144 51.361866 
L 627.875091 54.146176 
L 629.261038 50.862119 
L 630.646985 52.147185 
L 632.032932 51.219081 
L 633.418879 53.360858 
L 636.190773 50.219585 
L 637.57672 49.79123 
L 638.962667 48.720342 
L 640.348614 49.148697 
L 641.734561 51.361866 
L 643.120508 48.434771 
L 644.506456 47.935024 
L 645.892403 52.28997 
L 647.27835 45.364891 
L 648.664297 47.506668 
L 650.050244 49.005912 
L 651.436191 52.147185 
L 652.822138 51.647437 
L 654.208085 49.648445 
L 655.594032 48.720342 
L 656.979979 52.789718 
L 658.365926 52.432755 
L 659.751873 50.433763 
L 661.13782 45.507676 
L 662.523767 49.22009 
L 663.909714 48.506164 
L 665.295661 46.72135 
L 666.681608 52.718325 
L 668.067555 49.934015 
L 669.453502 49.005912 
L 670.839449 46.007424 
L 672.225396 47.649453 
L 673.611343 48.363379 
L 674.99729 47.078313 
L 676.383238 49.291482 
L 677.769185 49.648445 
L 679.155132 50.505156 
L 680.541079 48.006416 
L 681.927026 46.507172 
L 683.312973 46.078817 
L 684.69892 47.00692 
L 686.084867 46.792743 
L 687.470814 49.577052 
L 688.856761 47.00692 
L 690.242708 49.005912 
L 691.628655 49.148697 
L 693.014602 45.079321 
L 694.400549 47.792238 
L 695.786496 46.007424 
L 697.172443 47.435276 
L 698.55839 47.292491 
L 698.55839 47.292491 
" clip-path="url(#p0e86def4f8)" style="fill: none; stroke: #1f77b4; stroke-width: 1.5; stroke-linecap: square"/>
   </g>
   <g id="line2d_40">
    <path d="M 424.140876 187.889338 
L 432.456558 187.889338 
L 433.842505 190.352251 
L 435.228452 188.710309 
L 436.614399 193.088821 
L 438.000346 192.26785 
L 439.386293 187.61568 
L 440.77224 178.858656 
L 442.158187 174.480143 
L 443.544134 169.28066 
L 444.930081 165.449462 
L 446.316028 165.449462 
L 447.701975 166.54409 
L 449.087922 159.702664 
L 450.47387 162.712891 
L 453.245764 155.324152 
L 454.631711 150.671982 
L 456.017658 146.840784 
L 457.403605 146.567127 
L 458.789552 145.472499 
L 460.175499 137.810102 
L 461.561446 133.157933 
L 462.947393 132.610619 
L 464.33334 130.69502 
L 465.719287 131.789648 
L 467.105234 126.590165 
L 468.491181 115.643884 
L 469.877128 119.748739 
L 471.263075 119.201425 
L 472.649022 112.086342 
L 474.034969 110.991714 
L 475.420916 102.782004 
L 476.806863 106.339545 
L 478.19281 95.393264 
L 479.578757 103.055661 
L 480.964704 104.423946 
L 482.350652 100.31909 
L 483.736599 89.646466 
L 485.122546 97.58252 
L 486.508493 88.825495 
L 487.89444 89.920124 
L 489.280387 81.163099 
L 490.666334 100.592747 
L 492.052281 78.426529 
L 493.438228 82.805041 
L 494.824175 81.436756 
L 496.210122 74.868987 
L 497.596069 77.058243 
L 498.982016 76.784586 
L 500.367963 74.59533 
L 501.75391 71.585103 
L 503.139857 70.216818 
L 504.525804 70.216818 
L 505.911751 73.500702 
L 507.297698 84.173326 
L 508.683645 74.59533 
L 510.069592 66.111963 
L 511.455539 63.649049 
L 512.841486 66.659277 
L 514.227434 69.943161 
L 515.613381 61.459793 
L 516.999328 58.723223 
L 518.385275 60.912479 
L 519.771222 60.365165 
L 521.157169 60.638822 
L 522.543116 55.712996 
L 523.929063 65.017334 
L 525.31501 65.838306 
L 526.700957 63.649049 
L 528.086904 58.175909 
L 529.472851 60.091508 
L 530.858798 60.638822 
L 532.244745 54.892025 
L 535.016639 60.912479 
L 536.402586 60.365165 
L 537.788533 51.334483 
L 539.17448 52.155454 
L 540.560427 56.26031 
L 543.332321 63.649049 
L 544.718268 52.976426 
L 546.104215 49.145227 
L 547.490163 54.071054 
L 548.87611 54.618368 
L 550.262057 56.26031 
L 551.648004 47.503285 
L 553.033951 46.408657 
L 554.419898 49.418884 
L 555.805845 48.87157 
L 557.191792 52.976426 
L 558.577739 52.976426 
L 559.963686 47.503285 
L 561.349633 48.597913 
L 562.73558 49.966198 
L 564.121527 47.776942 
L 565.507474 50.239855 
L 566.893421 49.692541 
L 568.279368 46.955971 
L 569.665315 48.050599 
L 571.051262 51.60814 
L 572.437209 48.050599 
L 573.823156 43.672087 
L 575.209103 44.219401 
L 577.980997 52.155454 
L 579.366945 51.881797 
L 580.752892 46.955971 
L 582.138839 44.493058 
L 583.524786 46.682314 
L 584.910733 48.050599 
L 586.29668 50.787169 
L 587.682627 48.597913 
L 589.068574 47.776942 
L 590.454521 46.135 
L 591.840468 47.229628 
L 593.226415 47.229628 
L 594.612362 45.314029 
L 595.998309 45.861343 
L 597.384256 46.955971 
L 598.770203 46.955971 
L 600.15615 47.776942 
L 602.928044 46.135 
L 604.313991 44.219401 
L 605.699938 43.672087 
L 607.085885 44.219401 
L 608.471832 46.682314 
L 609.857779 46.955971 
L 611.243727 46.682314 
L 612.629674 45.040372 
L 614.015621 45.040372 
L 615.401568 45.587686 
L 616.787515 48.87157 
L 618.173462 48.324256 
L 619.559409 48.324256 
L 620.945356 47.776942 
L 622.331303 47.503285 
L 623.71725 46.682314 
L 625.103197 45.314029 
L 626.489144 42.577459 
L 627.875091 42.577459 
L 629.261038 44.219401 
L 630.646985 48.050599 
L 632.032932 49.145227 
L 633.418879 46.682314 
L 634.804826 44.493058 
L 636.190773 43.124773 
L 637.57672 43.672087 
L 638.962667 46.135 
L 640.348614 45.587686 
L 643.120508 45.040372 
L 644.506456 44.219401 
L 645.892403 43.945744 
L 647.27835 44.493058 
L 650.050244 46.135 
L 651.436191 45.040372 
L 654.208085 40.661859 
L 656.979979 40.114545 
L 658.365926 43.945744 
L 659.751873 48.324256 
L 661.13782 47.776942 
L 662.523767 46.408657 
L 663.909714 44.493058 
L 665.295661 41.756488 
L 666.681608 42.303802 
L 668.067555 43.672087 
L 669.453502 45.861343 
L 670.839449 45.314029 
L 673.611343 40.935517 
L 674.99729 41.482831 
L 676.383238 41.756488 
L 677.769185 42.577459 
L 679.155132 43.945744 
L 680.541079 44.766715 
L 681.927026 43.672087 
L 683.312973 44.219401 
L 684.69892 44.493058 
L 686.084867 45.040372 
L 687.470814 43.945744 
L 688.856761 43.39843 
L 690.242708 43.945744 
L 691.628655 43.39843 
L 693.014602 43.672087 
L 694.400549 43.39843 
L 695.786496 43.39843 
L 697.172443 42.577459 
L 698.55839 42.303802 
L 698.55839 42.303802 
" clip-path="url(#p0e86def4f8)" style="fill: none; stroke: #ff7f0e; stroke-width: 1.5; stroke-linecap: square"/>
   </g>
   <g id="patch_9">
    <path d="M 410.42 318.04 
L 410.42 26.88 
" style="fill: none; stroke: #000000; stroke-width: 0.8; stroke-linejoin: miter; stroke-linecap: square"/>
   </g>
   <g id="patch_10">
    <path d="M 712.279266 318.04 
L 712.279266 26.88 
" style="fill: none; stroke: #000000; stroke-width: 0.8; stroke-linejoin: miter; stroke-linecap: square"/>
   </g>
   <g id="patch_11">
    <path d="M 410.42 318.04 
L 712.279266 318.04 
" style="fill: none; stroke: #000000; stroke-width: 0.8; stroke-linejoin: miter; stroke-linecap: square"/>
   </g>
   <g id="patch_12">
    <path d="M 410.42 26.88 
L 712.279266 26.88 
" style="fill: none; stroke: #000000; stroke-width: 0.8; stroke-linejoin: miter; stroke-linecap: square"/>
   </g>
   <g id="text_42">
    <!-- Accuracy vs Epoch -->
    <g transform="translate(505.092133 20.88) scale(0.12 -0.12)">
     <use xlink:href="#DejaVuSans-41"/>
     <use xlink:href="#DejaVuSans-63" x="66.658203"/>
     <use xlink:href="#DejaVuSans-63" x="121.638672"/>
     <use xlink:href="#DejaVuSans-75" x="176.619141"/>
     <use xlink:href="#DejaVuSans-72" x="239.998047"/>
     <use xlink:href="#DejaVuSans-61" x="281.111328"/>
     <use xlink:href="#DejaVuSans-63" x="342.390625"/>
     <use xlink:href="#DejaVuSans-79" x="397.371094"/>
     <use xlink:href="#DejaVuSans-20" x="456.550781"/>
     <use xlink:href="#DejaVuSans-76" x="488.337891"/>
     <use xlink:href="#DejaVuSans-73" x="547.517578"/>
     <use xlink:href="#DejaVuSans-20" x="599.617188"/>
     <use xlink:href="#DejaVuSans-45" x="631.404297"/>
     <use xlink:href="#DejaVuSans-70" x="694.587891"/>
     <use xlink:href="#DejaVuSans-6f" x="758.064453"/>
     <use xlink:href="#DejaVuSans-63" x="819.246094"/>
     <use xlink:href="#DejaVuSans-68" x="874.226562"/>
    </g>
   </g>
   <g id="legend_2">
    <g id="patch_13">
     <path d="M 575.063641 313.04 
L 705.279266 313.04 
Q 707.279266 313.04 707.279266 311.04 
L 707.279266 282.68375 
Q 707.279266 280.68375 705.279266 280.68375 
L 575.063641 280.68375 
Q 573.063641 280.68375 573.063641 282.68375 
L 573.063641 311.04 
Q 573.063641 313.04 575.063641 313.04 
z
" style="fill: #ffffff; opacity: 0.8; stroke: #cccccc; stroke-linejoin: miter"/>
    </g>
    <g id="line2d_41">
     <path d="M 577.063641 288.782188 
L 587.063641 288.782188 
L 597.063641 288.782188 
" style="fill: none; stroke: #1f77b4; stroke-width: 1.5; stroke-linecap: square"/>
    </g>
    <g id="text_43">
     <!-- Train Accuracy -->
     <g transform="translate(605.063641 292.282188) scale(0.1 -0.1)">
      <use xlink:href="#DejaVuSans-54"/>
      <use xlink:href="#DejaVuSans-72" x="46.333984"/>
      <use xlink:href="#DejaVuSans-61" x="87.447266"/>
      <use xlink:href="#DejaVuSans-69" x="148.726562"/>
      <use xlink:href="#DejaVuSans-6e" x="176.509766"/>
      <use xlink:href="#DejaVuSans-20" x="239.888672"/>
      <use xlink:href="#DejaVuSans-41" x="271.675781"/>
      <use xlink:href="#DejaVuSans-63" x="338.333984"/>
      <use xlink:href="#DejaVuSans-63" x="393.314453"/>
      <use xlink:href="#DejaVuSans-75" x="448.294922"/>
      <use xlink:href="#DejaVuSans-72" x="511.673828"/>
      <use xlink:href="#DejaVuSans-61" x="552.787109"/>
      <use xlink:href="#DejaVuSans-63" x="614.066406"/>
      <use xlink:href="#DejaVuSans-79" x="669.046875"/>
     </g>
    </g>
    <g id="line2d_42">
     <path d="M 577.063641 303.460313 
L 587.063641 303.460313 
L 597.063641 303.460313 
" style="fill: none; stroke: #ff7f0e; stroke-width: 1.5; stroke-linecap: square"/>
    </g>
    <g id="text_44">
     <!-- Validation Accuracy -->
     <g transform="translate(605.063641 306.960313) scale(0.1 -0.1)">
      <use xlink:href="#DejaVuSans-56"/>
      <use xlink:href="#DejaVuSans-61" x="60.658203"/>
      <use xlink:href="#DejaVuSans-6c" x="121.9375"/>
      <use xlink:href="#DejaVuSans-69" x="149.720703"/>
      <use xlink:href="#DejaVuSans-64" x="177.503906"/>
      <use xlink:href="#DejaVuSans-61" x="240.980469"/>
      <use xlink:href="#DejaVuSans-74" x="302.259766"/>
      <use xlink:href="#DejaVuSans-69" x="341.46875"/>
      <use xlink:href="#DejaVuSans-6f" x="369.251953"/>
      <use xlink:href="#DejaVuSans-6e" x="430.433594"/>
      <use xlink:href="#DejaVuSans-20" x="493.8125"/>
      <use xlink:href="#DejaVuSans-41" x="525.599609"/>
      <use xlink:href="#DejaVuSans-63" x="592.257812"/>
      <use xlink:href="#DejaVuSans-63" x="647.238281"/>
      <use xlink:href="#DejaVuSans-75" x="702.21875"/>
      <use xlink:href="#DejaVuSans-72" x="765.597656"/>
      <use xlink:href="#DejaVuSans-61" x="806.710938"/>
      <use xlink:href="#DejaVuSans-63" x="867.990234"/>
      <use xlink:href="#DejaVuSans-79" x="922.970703"/>
     </g>
    </g>
   </g>
  </g>
  <g id="axes_3">
   <g id="patch_14">
    <path d="M 766.82 318.04 
L 1068.679266 318.04 
L 1068.679266 26.88 
L 766.82 26.88 
z
" style="fill: #ffffff"/>
   </g>
   <g id="matplotlib.axis_5">
    <g id="xtick_19">
     <g id="line2d_43">
      <g>
       <use xlink:href="#me38bbfcc3a" x="780.540876" y="318.04" style="stroke: #000000; stroke-width: 0.8"/>
      </g>
     </g>
     <g id="text_45">
      <!-- 0 -->
      <g transform="translate(777.359626 332.638438) scale(0.1 -0.1)">
       <use xlink:href="#DejaVuSans-30"/>
      </g>
     </g>
    </g>
    <g id="xtick_20">
     <g id="line2d_44">
      <g>
       <use xlink:href="#me38bbfcc3a" x="815.189552" y="318.04" style="stroke: #000000; stroke-width: 0.8"/>
      </g>
     </g>
     <g id="text_46">
      <!-- 25 -->
      <g transform="translate(808.827052 332.638438) scale(0.1 -0.1)">
       <use xlink:href="#DejaVuSans-32"/>
       <use xlink:href="#DejaVuSans-35" x="63.623047"/>
      </g>
     </g>
    </g>
    <g id="xtick_21">
     <g id="line2d_45">
      <g>
       <use xlink:href="#me38bbfcc3a" x="849.838228" y="318.04" style="stroke: #000000; stroke-width: 0.8"/>
      </g>
     </g>
     <g id="text_47">
      <!-- 50 -->
      <g transform="translate(843.475728 332.638438) scale(0.1 -0.1)">
       <use xlink:href="#DejaVuSans-35"/>
       <use xlink:href="#DejaVuSans-30" x="63.623047"/>
      </g>
     </g>
    </g>
    <g id="xtick_22">
     <g id="line2d_46">
      <g>
       <use xlink:href="#me38bbfcc3a" x="884.486904" y="318.04" style="stroke: #000000; stroke-width: 0.8"/>
      </g>
     </g>
     <g id="text_48">
      <!-- 75 -->
      <g transform="translate(878.124404 332.638438) scale(0.1 -0.1)">
       <use xlink:href="#DejaVuSans-37"/>
       <use xlink:href="#DejaVuSans-35" x="63.623047"/>
      </g>
     </g>
    </g>
    <g id="xtick_23">
     <g id="line2d_47">
      <g>
       <use xlink:href="#me38bbfcc3a" x="919.13558" y="318.04" style="stroke: #000000; stroke-width: 0.8"/>
      </g>
     </g>
     <g id="text_49">
      <!-- 100 -->
      <g transform="translate(909.59183 332.638438) scale(0.1 -0.1)">
       <use xlink:href="#DejaVuSans-31"/>
       <use xlink:href="#DejaVuSans-30" x="63.623047"/>
       <use xlink:href="#DejaVuSans-30" x="127.246094"/>
      </g>
     </g>
    </g>
    <g id="xtick_24">
     <g id="line2d_48">
      <g>
       <use xlink:href="#me38bbfcc3a" x="953.784256" y="318.04" style="stroke: #000000; stroke-width: 0.8"/>
      </g>
     </g>
     <g id="text_50">
      <!-- 125 -->
      <g transform="translate(944.240506 332.638438) scale(0.1 -0.1)">
       <use xlink:href="#DejaVuSans-31"/>
       <use xlink:href="#DejaVuSans-32" x="63.623047"/>
       <use xlink:href="#DejaVuSans-35" x="127.246094"/>
      </g>
     </g>
    </g>
    <g id="xtick_25">
     <g id="line2d_49">
      <g>
       <use xlink:href="#me38bbfcc3a" x="988.432932" y="318.04" style="stroke: #000000; stroke-width: 0.8"/>
      </g>
     </g>
     <g id="text_51">
      <!-- 150 -->
      <g transform="translate(978.889182 332.638438) scale(0.1 -0.1)">
       <use xlink:href="#DejaVuSans-31"/>
       <use xlink:href="#DejaVuSans-35" x="63.623047"/>
       <use xlink:href="#DejaVuSans-30" x="127.246094"/>
      </g>
     </g>
    </g>
    <g id="xtick_26">
     <g id="line2d_50">
      <g>
       <use xlink:href="#me38bbfcc3a" x="1023.081608" y="318.04" style="stroke: #000000; stroke-width: 0.8"/>
      </g>
     </g>
     <g id="text_52">
      <!-- 175 -->
      <g transform="translate(1013.537858 332.638438) scale(0.1 -0.1)">
       <use xlink:href="#DejaVuSans-31"/>
       <use xlink:href="#DejaVuSans-37" x="63.623047"/>
       <use xlink:href="#DejaVuSans-35" x="127.246094"/>
      </g>
     </g>
    </g>
    <g id="xtick_27">
     <g id="line2d_51">
      <g>
       <use xlink:href="#me38bbfcc3a" x="1057.730284" y="318.04" style="stroke: #000000; stroke-width: 0.8"/>
      </g>
     </g>
     <g id="text_53">
      <!-- 200 -->
      <g transform="translate(1048.186534 332.638438) scale(0.1 -0.1)">
       <use xlink:href="#DejaVuSans-32"/>
       <use xlink:href="#DejaVuSans-30" x="63.623047"/>
       <use xlink:href="#DejaVuSans-30" x="127.246094"/>
      </g>
     </g>
    </g>
    <g id="text_54">
     <!-- Epoch -->
     <g transform="translate(902.438695 346.316563) scale(0.1 -0.1)">
      <use xlink:href="#DejaVuSans-45"/>
      <use xlink:href="#DejaVuSans-70" x="63.183594"/>
      <use xlink:href="#DejaVuSans-6f" x="126.660156"/>
      <use xlink:href="#DejaVuSans-63" x="187.841797"/>
      <use xlink:href="#DejaVuSans-68" x="242.822266"/>
     </g>
    </g>
   </g>
   <g id="matplotlib.axis_6">
    <g id="ytick_17">
     <g id="line2d_52">
      <g>
       <use xlink:href="#me55936d593" x="766.82" y="298.0263" style="stroke: #000000; stroke-width: 0.8"/>
      </g>
     </g>
     <g id="text_55">
      <!-- 0.60 -->
      <g transform="translate(737.554375 301.825519) scale(0.1 -0.1)">
       <use xlink:href="#DejaVuSans-30"/>
       <use xlink:href="#DejaVuSans-2e" x="63.623047"/>
       <use xlink:href="#DejaVuSans-36" x="95.410156"/>
       <use xlink:href="#DejaVuSans-30" x="159.033203"/>
      </g>
     </g>
    </g>
    <g id="ytick_18">
     <g id="line2d_53">
      <g>
       <use xlink:href="#me55936d593" x="766.82" y="260.03335" style="stroke: #000000; stroke-width: 0.8"/>
      </g>
     </g>
     <g id="text_56">
      <!-- 0.65 -->
      <g transform="translate(737.554375 263.832569) scale(0.1 -0.1)">
       <use xlink:href="#DejaVuSans-30"/>
       <use xlink:href="#DejaVuSans-2e" x="63.623047"/>
       <use xlink:href="#DejaVuSans-36" x="95.410156"/>
       <use xlink:href="#DejaVuSans-35" x="159.033203"/>
      </g>
     </g>
    </g>
    <g id="ytick_19">
     <g id="line2d_54">
      <g>
       <use xlink:href="#me55936d593" x="766.82" y="222.0404" style="stroke: #000000; stroke-width: 0.8"/>
      </g>
     </g>
     <g id="text_57">
      <!-- 0.70 -->
      <g transform="translate(737.554375 225.839619) scale(0.1 -0.1)">
       <use xlink:href="#DejaVuSans-30"/>
       <use xlink:href="#DejaVuSans-2e" x="63.623047"/>
       <use xlink:href="#DejaVuSans-37" x="95.410156"/>
       <use xlink:href="#DejaVuSans-30" x="159.033203"/>
      </g>
     </g>
    </g>
    <g id="ytick_20">
     <g id="line2d_55">
      <g>
       <use xlink:href="#me55936d593" x="766.82" y="184.04745" style="stroke: #000000; stroke-width: 0.8"/>
      </g>
     </g>
     <g id="text_58">
      <!-- 0.75 -->
      <g transform="translate(737.554375 187.846669) scale(0.1 -0.1)">
       <use xlink:href="#DejaVuSans-30"/>
       <use xlink:href="#DejaVuSans-2e" x="63.623047"/>
       <use xlink:href="#DejaVuSans-37" x="95.410156"/>
       <use xlink:href="#DejaVuSans-35" x="159.033203"/>
      </g>
     </g>
    </g>
    <g id="ytick_21">
     <g id="line2d_56">
      <g>
       <use xlink:href="#me55936d593" x="766.82" y="146.054501" style="stroke: #000000; stroke-width: 0.8"/>
      </g>
     </g>
     <g id="text_59">
      <!-- 0.80 -->
      <g transform="translate(737.554375 149.853719) scale(0.1 -0.1)">
       <use xlink:href="#DejaVuSans-30"/>
       <use xlink:href="#DejaVuSans-2e" x="63.623047"/>
       <use xlink:href="#DejaVuSans-38" x="95.410156"/>
       <use xlink:href="#DejaVuSans-30" x="159.033203"/>
      </g>
     </g>
    </g>
    <g id="ytick_22">
     <g id="line2d_57">
      <g>
       <use xlink:href="#me55936d593" x="766.82" y="108.061551" style="stroke: #000000; stroke-width: 0.8"/>
      </g>
     </g>
     <g id="text_60">
      <!-- 0.85 -->
      <g transform="translate(737.554375 111.860769) scale(0.1 -0.1)">
       <use xlink:href="#DejaVuSans-30"/>
       <use xlink:href="#DejaVuSans-2e" x="63.623047"/>
       <use xlink:href="#DejaVuSans-38" x="95.410156"/>
       <use xlink:href="#DejaVuSans-35" x="159.033203"/>
      </g>
     </g>
    </g>
    <g id="ytick_23">
     <g id="line2d_58">
      <g>
       <use xlink:href="#me55936d593" x="766.82" y="70.068601" style="stroke: #000000; stroke-width: 0.8"/>
      </g>
     </g>
     <g id="text_61">
      <!-- 0.90 -->
      <g transform="translate(737.554375 73.86782) scale(0.1 -0.1)">
       <use xlink:href="#DejaVuSans-30"/>
       <use xlink:href="#DejaVuSans-2e" x="63.623047"/>
       <use xlink:href="#DejaVuSans-39" x="95.410156"/>
       <use xlink:href="#DejaVuSans-30" x="159.033203"/>
      </g>
     </g>
    </g>
    <g id="ytick_24">
     <g id="line2d_59">
      <g>
       <use xlink:href="#me55936d593" x="766.82" y="32.075651" style="stroke: #000000; stroke-width: 0.8"/>
      </g>
     </g>
     <g id="text_62">
      <!-- 0.95 -->
      <g transform="translate(737.554375 35.87487) scale(0.1 -0.1)">
       <use xlink:href="#DejaVuSans-30"/>
       <use xlink:href="#DejaVuSans-2e" x="63.623047"/>
       <use xlink:href="#DejaVuSans-39" x="95.410156"/>
       <use xlink:href="#DejaVuSans-35" x="159.033203"/>
      </g>
     </g>
    </g>
    <g id="text_63">
     <!-- F1-Score -->
     <g transform="translate(731.474688 194.323281) rotate(-90) scale(0.1 -0.1)">
      <defs>
       <path id="DejaVuSans-46" d="M 628 4666 
L 3309 4666 
L 3309 4134 
L 1259 4134 
L 1259 2759 
L 3109 2759 
L 3109 2228 
L 1259 2228 
L 1259 0 
L 628 0 
L 628 4666 
z
" transform="scale(0.015625)"/>
       <path id="DejaVuSans-2d" d="M 313 2009 
L 1997 2009 
L 1997 1497 
L 313 1497 
L 313 2009 
z
" transform="scale(0.015625)"/>
       <path id="DejaVuSans-53" d="M 3425 4513 
L 3425 3897 
Q 3066 4069 2747 4153 
Q 2428 4238 2131 4238 
Q 1616 4238 1336 4038 
Q 1056 3838 1056 3469 
Q 1056 3159 1242 3001 
Q 1428 2844 1947 2747 
L 2328 2669 
Q 3034 2534 3370 2195 
Q 3706 1856 3706 1288 
Q 3706 609 3251 259 
Q 2797 -91 1919 -91 
Q 1588 -91 1214 -16 
Q 841 59 441 206 
L 441 856 
Q 825 641 1194 531 
Q 1563 422 1919 422 
Q 2459 422 2753 634 
Q 3047 847 3047 1241 
Q 3047 1584 2836 1778 
Q 2625 1972 2144 2069 
L 1759 2144 
Q 1053 2284 737 2584 
Q 422 2884 422 3419 
Q 422 4038 858 4394 
Q 1294 4750 2059 4750 
Q 2388 4750 2728 4690 
Q 3069 4631 3425 4513 
z
" transform="scale(0.015625)"/>
       <path id="DejaVuSans-65" d="M 3597 1894 
L 3597 1613 
L 953 1613 
Q 991 1019 1311 708 
Q 1631 397 2203 397 
Q 2534 397 2845 478 
Q 3156 559 3463 722 
L 3463 178 
Q 3153 47 2828 -22 
Q 2503 -91 2169 -91 
Q 1331 -91 842 396 
Q 353 884 353 1716 
Q 353 2575 817 3079 
Q 1281 3584 2069 3584 
Q 2775 3584 3186 3129 
Q 3597 2675 3597 1894 
z
M 3022 2063 
Q 3016 2534 2758 2815 
Q 2500 3097 2075 3097 
Q 1594 3097 1305 2825 
Q 1016 2553 972 2059 
L 3022 2063 
z
" transform="scale(0.015625)"/>
      </defs>
      <use xlink:href="#DejaVuSans-46"/>
      <use xlink:href="#DejaVuSans-31" x="57.519531"/>
      <use xlink:href="#DejaVuSans-2d" x="121.142578"/>
      <use xlink:href="#DejaVuSans-53" x="157.226562"/>
      <use xlink:href="#DejaVuSans-63" x="220.703125"/>
      <use xlink:href="#DejaVuSans-6f" x="275.683594"/>
      <use xlink:href="#DejaVuSans-72" x="336.865234"/>
      <use xlink:href="#DejaVuSans-65" x="375.728516"/>
     </g>
    </g>
   </g>
   <g id="line2d_60">
    <path d="M 780.540876 304.805455 
L 783.31277 199.015918 
L 784.698717 178.895634 
L 786.084664 170.164404 
L 787.470611 165.026273 
L 788.856558 162.280953 
L 790.242505 157.323572 
L 791.628452 153.125661 
L 793.014399 148.1486 
L 794.400346 148.030424 
L 795.786293 145.984419 
L 797.17224 143.567966 
L 798.558187 140.026023 
L 799.944134 139.278314 
L 801.330081 132.87027 
L 802.716028 134.059809 
L 804.101975 131.379742 
L 805.487922 129.913628 
L 808.259817 124.721012 
L 809.645764 120.637778 
L 811.031711 122.757576 
L 813.803605 116.000595 
L 815.189552 117.824591 
L 816.575499 112.799606 
L 817.961446 113.105335 
L 819.347393 107.671091 
L 820.73334 106.405584 
L 822.119287 106.76637 
L 823.505234 105.332283 
L 824.891181 102.633986 
L 826.277128 103.779824 
L 827.663075 99.479259 
L 829.049022 98.010805 
L 830.434969 95.626309 
L 831.820916 97.548303 
L 833.206863 95.122377 
L 834.59281 94.010991 
L 835.978757 91.735502 
L 837.364704 91.257432 
L 838.750652 89.287934 
L 840.136599 89.436159 
L 841.522546 89.065076 
L 842.908493 87.754152 
L 844.29444 85.476736 
L 845.680387 84.06365 
L 847.066334 85.318532 
L 848.452281 83.700324 
L 849.838228 83.555797 
L 851.224175 78.831588 
L 852.610122 82.407678 
L 853.996069 78.618596 
L 855.382016 77.184741 
L 856.767963 77.084362 
L 858.15391 75.227988 
L 859.539857 75.506992 
L 860.925804 73.811988 
L 862.311751 70.736742 
L 863.697698 73.892439 
L 865.083645 72.798049 
L 866.469592 71.001879 
L 867.855539 70.611314 
L 869.241486 70.074714 
L 870.627434 72.688804 
L 872.013381 72.153337 
L 873.399328 68.506912 
L 874.785275 68.807955 
L 876.171222 67.77448 
L 877.557169 68.023179 
L 878.943116 68.097715 
L 880.329063 69.30477 
L 881.71501 66.852072 
L 884.486904 65.086119 
L 885.872851 63.550969 
L 887.258798 65.198262 
L 888.644745 65.430389 
L 890.030692 64.844264 
L 891.416639 63.138471 
L 892.802586 63.594685 
L 894.188533 63.317305 
L 895.57448 63.886343 
L 896.960427 62.224064 
L 898.346374 62.334245 
L 899.732321 61.270233 
L 901.118268 61.796562 
L 902.504215 60.782254 
L 903.890163 60.747778 
L 905.27611 62.825407 
L 906.662057 60.862486 
L 908.048004 61.031173 
L 909.433951 60.628397 
L 910.819898 59.125398 
L 912.205845 61.374674 
L 913.591792 59.005803 
L 914.977739 60.568827 
L 916.363686 58.73192 
L 917.749633 57.994923 
L 919.13558 59.686932 
L 920.521527 55.159858 
L 921.907474 57.049671 
L 923.293421 55.879952 
L 924.679368 56.017304 
L 926.065315 55.237857 
L 927.451262 56.659324 
L 928.837209 61.614769 
L 930.223156 58.847262 
L 931.609103 58.189453 
L 932.99505 56.149781 
L 934.380997 57.013537 
L 935.766945 54.861538 
L 937.152892 57.866936 
L 938.538839 56.071524 
L 939.924786 57.455857 
L 941.310733 54.881307 
L 942.69668 53.525133 
L 944.082627 52.743493 
L 945.468574 55.843269 
L 946.854521 57.254466 
L 948.240468 55.139475 
L 949.626415 54.447935 
L 951.012362 52.113708 
L 952.398309 53.467994 
L 953.784256 56.267017 
L 955.170203 54.333928 
L 956.55615 56.479431 
L 957.942097 52.676176 
L 960.713991 54.385052 
L 962.099938 51.485463 
L 963.485885 52.485702 
L 964.871832 52.027533 
L 966.257779 52.828623 
L 967.643727 50.235413 
L 969.029674 53.696496 
L 970.415621 53.431165 
L 971.801568 51.465626 
L 973.187515 51.377845 
L 974.573462 52.800771 
L 975.959409 53.057572 
L 977.345356 53.617663 
L 978.731303 55.62582 
L 980.11725 51.061252 
L 981.503197 49.867608 
L 982.889144 53.154548 
L 984.275091 55.602198 
L 985.661038 52.561985 
L 987.046985 53.677056 
L 988.432932 52.87652 
L 989.818879 54.794523 
L 991.204826 53.555325 
L 992.590773 52.04698 
L 993.97672 51.750294 
L 995.362667 50.814536 
L 996.748614 51.242985 
L 998.134561 53.154548 
L 999.520508 50.649429 
L 1000.906456 50.200528 
L 1002.292403 53.742586 
L 1003.67835 47.928042 
L 1005.064297 49.791203 
L 1006.450244 50.960601 
L 1007.836191 53.706221 
L 1009.222138 53.296519 
L 1010.608085 51.692032 
L 1011.994032 50.786744 
L 1013.379979 54.151339 
L 1014.765926 53.807989 
L 1016.151873 52.342284 
L 1017.53782 47.999372 
L 1018.923767 51.281731 
L 1020.309714 50.586786 
L 1021.695661 49.15756 
L 1023.081608 54.143264 
L 1024.467555 51.676833 
L 1025.853502 51.044204 
L 1027.239449 48.509233 
L 1028.625396 50.034314 
L 1030.011343 50.518017 
L 1031.39729 49.463835 
L 1032.783238 51.227073 
L 1034.169185 51.588562 
L 1035.555132 52.390097 
L 1036.941079 50.35011 
L 1038.327026 48.957609 
L 1039.712973 48.700875 
L 1041.09892 49.315836 
L 1042.484867 49.233256 
L 1043.870814 51.5406 
L 1045.256761 49.415258 
L 1046.642708 50.932787 
L 1048.028655 51.121725 
L 1049.414602 47.73224 
L 1050.800549 49.975668 
L 1052.186496 48.473654 
L 1053.572443 49.760953 
L 1054.95839 49.600349 
L 1054.95839 49.600349 
" clip-path="url(#p5518bbc005)" style="fill: none; stroke: #1f77b4; stroke-width: 1.5; stroke-linecap: square"/>
   </g>
   <g id="line2d_61">
    <path d="M 780.540876 129.519273 
L 788.856558 129.519273 
L 790.242505 133.10821 
L 791.628452 131.208362 
L 793.014399 136.393702 
L 794.400346 137.271739 
L 795.786293 137.08341 
L 798.558187 132.131004 
L 799.944134 128.618362 
L 801.330081 128.151747 
L 802.716028 129.58987 
L 804.101975 129.388974 
L 805.487922 125.275515 
L 806.87387 126.769356 
L 808.259817 123.343294 
L 809.645764 122.914086 
L 811.031711 116.550084 
L 812.417658 112.680301 
L 813.803605 110.923765 
L 815.189552 110.620661 
L 816.575499 108.609819 
L 817.961446 103.606514 
L 819.347393 102.011592 
L 820.73334 104.272496 
L 822.119287 110.48846 
L 823.505234 102.397298 
L 824.891181 92.874598 
L 826.277128 99.138165 
L 827.663075 102.136045 
L 829.049022 91.606931 
L 830.434969 91.094836 
L 831.820916 85.80433 
L 833.206863 91.533912 
L 834.59281 80.723997 
L 835.978757 90.025602 
L 837.364704 93.331424 
L 838.750652 88.374997 
L 840.136599 77.413761 
L 841.522546 85.846733 
L 842.908493 78.755845 
L 844.29444 78.318993 
L 845.680387 71.743641 
L 847.066334 93.782165 
L 848.452281 70.932329 
L 849.838228 72.199047 
L 851.224175 71.188574 
L 852.610122 66.761082 
L 853.996069 69.670769 
L 855.382016 69.515574 
L 856.767963 68.569909 
L 858.15391 65.919048 
L 859.539857 64.16571 
L 860.925804 64.658529 
L 862.311751 68.552052 
L 863.697698 79.963571 
L 866.469592 61.338685 
L 867.855539 59.50694 
L 870.627434 64.913215 
L 872.013381 57.720613 
L 873.399328 55.705002 
L 874.785275 57.572543 
L 876.171222 57.198391 
L 877.557169 57.366882 
L 878.943116 52.738483 
L 880.329063 61.716507 
L 881.71501 62.828586 
L 883.100957 60.681171 
L 884.486904 55.076969 
L 885.872851 57.216386 
L 887.258798 57.818643 
L 888.644745 52.395903 
L 890.030692 55.050739 
L 891.416639 58.063688 
L 892.802586 57.877257 
L 894.188533 49.736874 
L 895.57448 50.627204 
L 896.960427 54.489902 
L 898.346374 57.651115 
L 899.732321 61.203197 
L 901.118268 50.682169 
L 902.504215 47.343846 
L 903.890163 52.290427 
L 905.27611 52.881314 
L 906.662057 54.562202 
L 908.048004 47.064526 
L 909.433951 45.484927 
L 910.819898 47.738141 
L 912.205845 47.733011 
L 913.591792 51.799264 
L 914.977739 51.422031 
L 916.363686 46.378879 
L 917.749633 47.272831 
L 919.13558 48.438231 
L 920.521527 46.556067 
L 921.907474 49.131868 
L 923.293421 48.745566 
L 924.679368 45.810191 
L 926.065315 46.671183 
L 927.451262 50.343447 
L 928.837209 46.981439 
L 930.223156 42.820013 
L 931.609103 43.406882 
L 934.380997 50.930572 
L 935.766945 50.720969 
L 937.152892 46.393469 
L 938.538839 43.759792 
L 939.924786 45.754008 
L 941.310733 47.232293 
L 942.69668 49.914635 
L 944.082627 47.746333 
L 945.468574 46.928769 
L 946.854521 45.457874 
L 948.240468 46.479015 
L 949.626415 46.448021 
L 951.012362 44.502 
L 952.398309 45.128031 
L 953.784256 46.269583 
L 955.170203 46.238703 
L 956.55615 46.928769 
L 959.328044 45.367025 
L 960.713991 43.755462 
L 962.099938 43.30796 
L 963.485885 43.667856 
L 964.871832 45.967841 
L 966.257779 46.424532 
L 967.643727 46.029262 
L 969.029674 44.471229 
L 970.415621 44.441545 
L 971.801568 44.94911 
L 973.187515 47.828277 
L 974.573462 47.441688 
L 975.959409 47.441688 
L 977.345356 46.897509 
L 978.731303 46.750653 
L 980.11725 46.121666 
L 981.503197 44.769871 
L 982.889144 42.327717 
L 984.275091 42.299371 
L 985.661038 43.755462 
L 987.046985 47.358614 
L 988.432932 48.618036 
L 991.204826 43.964525 
L 992.590773 42.660197 
L 993.97672 43.221143 
L 995.362667 45.518619 
L 996.748614 45.342134 
L 998.134561 45.040604 
L 999.520508 44.620175 
L 1000.906456 43.843379 
L 1002.292403 43.809926 
L 1003.67835 44.408973 
L 1005.064297 45.16186 
L 1006.450244 45.763043 
L 1007.836191 44.65007 
L 1010.608085 40.559298 
L 1011.994032 40.269338 
L 1013.379979 40.114545 
L 1014.765926 43.604623 
L 1016.151873 47.695854 
L 1017.53782 47.370336 
L 1018.923767 45.881032 
L 1020.309714 44.023331 
L 1021.695661 41.532119 
L 1023.081608 42.033885 
L 1024.467555 43.278987 
L 1025.853502 45.339462 
L 1027.239449 44.889841 
L 1030.011343 40.82271 
L 1031.39729 41.212633 
L 1032.783238 41.476542 
L 1034.169185 42.271058 
L 1035.555132 43.692402 
L 1036.941079 44.410441 
L 1038.327026 43.453339 
L 1039.712973 43.814039 
L 1041.09892 43.964525 
L 1042.484867 44.411896 
L 1043.870814 43.546276 
L 1045.256761 43.156461 
L 1046.642708 43.575433 
L 1048.028655 43.156461 
L 1049.414602 43.395084 
L 1050.800549 43.156461 
L 1052.186496 43.127535 
L 1053.572443 42.384509 
L 1054.95839 42.175043 
L 1054.95839 42.175043 
" clip-path="url(#p5518bbc005)" style="fill: none; stroke: #ff7f0e; stroke-width: 1.5; stroke-linecap: square"/>
   </g>
   <g id="patch_15">
    <path d="M 766.82 318.04 
L 766.82 26.88 
" style="fill: none; stroke: #000000; stroke-width: 0.8; stroke-linejoin: miter; stroke-linecap: square"/>
   </g>
   <g id="patch_16">
    <path d="M 1068.679266 318.04 
L 1068.679266 26.88 
" style="fill: none; stroke: #000000; stroke-width: 0.8; stroke-linejoin: miter; stroke-linecap: square"/>
   </g>
   <g id="patch_17">
    <path d="M 766.82 318.04 
L 1068.679266 318.04 
" style="fill: none; stroke: #000000; stroke-width: 0.8; stroke-linejoin: miter; stroke-linecap: square"/>
   </g>
   <g id="patch_18">
    <path d="M 766.82 26.88 
L 1068.679266 26.88 
" style="fill: none; stroke: #000000; stroke-width: 0.8; stroke-linejoin: miter; stroke-linecap: square"/>
   </g>
   <g id="text_64">
    <!-- F1-Score vs Epoch -->
    <g transform="translate(862.649945 20.88) scale(0.12 -0.12)">
     <use xlink:href="#DejaVuSans-46"/>
     <use xlink:href="#DejaVuSans-31" x="57.519531"/>
     <use xlink:href="#DejaVuSans-2d" x="121.142578"/>
     <use xlink:href="#DejaVuSans-53" x="157.226562"/>
     <use xlink:href="#DejaVuSans-63" x="220.703125"/>
     <use xlink:href="#DejaVuSans-6f" x="275.683594"/>
     <use xlink:href="#DejaVuSans-72" x="336.865234"/>
     <use xlink:href="#DejaVuSans-65" x="375.728516"/>
     <use xlink:href="#DejaVuSans-20" x="437.251953"/>
     <use xlink:href="#DejaVuSans-76" x="469.039062"/>
     <use xlink:href="#DejaVuSans-73" x="528.21875"/>
     <use xlink:href="#DejaVuSans-20" x="580.318359"/>
     <use xlink:href="#DejaVuSans-45" x="612.105469"/>
     <use xlink:href="#DejaVuSans-70" x="675.289062"/>
     <use xlink:href="#DejaVuSans-6f" x="738.765625"/>
     <use xlink:href="#DejaVuSans-63" x="799.947266"/>
     <use xlink:href="#DejaVuSans-68" x="854.927734"/>
    </g>
   </g>
   <g id="legend_3">
    <g id="patch_19">
     <path d="M 965.005828 313.04 
L 1061.679266 313.04 
Q 1063.679266 313.04 1063.679266 311.04 
L 1063.679266 282.68375 
Q 1063.679266 280.68375 1061.679266 280.68375 
L 965.005828 280.68375 
Q 963.005828 280.68375 963.005828 282.68375 
L 963.005828 311.04 
Q 963.005828 313.04 965.005828 313.04 
z
" style="fill: #ffffff; opacity: 0.8; stroke: #cccccc; stroke-linejoin: miter"/>
    </g>
    <g id="line2d_62">
     <path d="M 967.005828 288.782188 
L 977.005828 288.782188 
L 987.005828 288.782188 
" style="fill: none; stroke: #1f77b4; stroke-width: 1.5; stroke-linecap: square"/>
    </g>
    <g id="text_65">
     <!-- Train F1 -->
     <g transform="translate(995.005828 292.282188) scale(0.1 -0.1)">
      <use xlink:href="#DejaVuSans-54"/>
      <use xlink:href="#DejaVuSans-72" x="46.333984"/>
      <use xlink:href="#DejaVuSans-61" x="87.447266"/>
      <use xlink:href="#DejaVuSans-69" x="148.726562"/>
      <use xlink:href="#DejaVuSans-6e" x="176.509766"/>
      <use xlink:href="#DejaVuSans-20" x="239.888672"/>
      <use xlink:href="#DejaVuSans-46" x="271.675781"/>
      <use xlink:href="#DejaVuSans-31" x="329.195312"/>
     </g>
    </g>
    <g id="line2d_63">
     <path d="M 967.005828 303.460313 
L 977.005828 303.460313 
L 987.005828 303.460313 
" style="fill: none; stroke: #ff7f0e; stroke-width: 1.5; stroke-linecap: square"/>
    </g>
    <g id="text_66">
     <!-- Validation F1 -->
     <g transform="translate(995.005828 306.960313) scale(0.1 -0.1)">
      <use xlink:href="#DejaVuSans-56"/>
      <use xlink:href="#DejaVuSans-61" x="60.658203"/>
      <use xlink:href="#DejaVuSans-6c" x="121.9375"/>
      <use xlink:href="#DejaVuSans-69" x="149.720703"/>
      <use xlink:href="#DejaVuSans-64" x="177.503906"/>
      <use xlink:href="#DejaVuSans-61" x="240.980469"/>
      <use xlink:href="#DejaVuSans-74" x="302.259766"/>
      <use xlink:href="#DejaVuSans-69" x="341.46875"/>
      <use xlink:href="#DejaVuSans-6f" x="369.251953"/>
      <use xlink:href="#DejaVuSans-6e" x="430.433594"/>
      <use xlink:href="#DejaVuSans-20" x="493.8125"/>
      <use xlink:href="#DejaVuSans-46" x="525.599609"/>
      <use xlink:href="#DejaVuSans-31" x="583.119141"/>
     </g>
    </g>
   </g>
  </g>
 </g>
 <defs>
  <clipPath id="pe390eace4b">
   <rect x="54.02" y="26.88" width="301.859266" height="291.16"/>
  </clipPath>
  <clipPath id="p0e86def4f8">
   <rect x="410.42" y="26.88" width="301.859266" height="291.16"/>
  </clipPath>
  <clipPath id="p5518bbc005">
   <rect x="766.82" y="26.88" width="301.859266" height="291.16"/>
  </clipPath>
 </defs>
</svg>
