<?xml version="1.0" encoding="utf-8" standalone="no"?>
<!DOCTYPE svg PUBLIC "-//W3C//DTD SVG 1.1//EN"
  "http://www.w3.org/Graphics/SVG/1.1/DTD/svg11.dtd">
<svg xmlns:xlink="http://www.w3.org/1999/xlink" width="1080pt" height="360pt" viewBox="0 0 1080 360" xmlns="http://www.w3.org/2000/svg" version="1.1">
 <metadata>
  <rdf:RDF xmlns:dc="http://purl.org/dc/elements/1.1/" xmlns:cc="http://creativecommons.org/ns#" xmlns:rdf="http://www.w3.org/1999/02/22-rdf-syntax-ns#">
   <cc:Work>
    <dc:type rdf:resource="http://purl.org/dc/dcmitype/StillImage"/>
    <dc:date>2024-10-28T11:46:02.112337</dc:date>
    <dc:format>image/svg+xml</dc:format>
    <dc:creator>
     <cc:Agent>
      <dc:title>Matplotlib v3.8.2, https://matplotlib.org/</dc:title>
     </cc:Agent>
    </dc:creator>
   </cc:Work>
  </rdf:RDF>
 </metadata>
 <defs>
  <style type="text/css">*{stroke-linejoin: round; stroke-linecap: butt}</style>
 </defs>
 <g id="figure_1">
  <g id="patch_1">
   <path d="M 0 360 
L 1080 360 
L 1080 0 
L 0 0 
z
" style="fill: #ffffff"/>
  </g>
  <g id="axes_1">
   <g id="patch_2">
    <path d="M 47.72 318.04 
L 356.4 318.04 
L 356.4 26.88 
L 47.72 26.88 
z
" style="fill: #ffffff"/>
   </g>
   <g id="matplotlib.axis_1">
    <g id="xtick_1">
     <g id="line2d_1">
      <defs>
       <path id="m1a7fd7766f" d="M 0 0 
L 0 3.5 
" style="stroke: #000000; stroke-width: 0.8"/>
      </defs>
      <g>
       <use xlink:href="#m1a7fd7766f" x="60.333646" y="318.04" style="stroke: #000000; stroke-width: 0.8"/>
      </g>
     </g>
     <g id="text_1">
      <!-- 0 -->
      <g transform="translate(57.152396 332.638438) scale(0.1 -0.1)">
       <defs>
        <path id="DejaVuSans-30" d="M 2034 4250 
Q 1547 4250 1301 3770 
Q 1056 3291 1056 2328 
Q 1056 1369 1301 889 
Q 1547 409 2034 409 
Q 2525 409 2770 889 
Q 3016 1369 3016 2328 
Q 3016 3291 2770 3770 
Q 2525 4250 2034 4250 
z
M 2034 4750 
Q 2819 4750 3233 4129 
Q 3647 3509 3647 2328 
Q 3647 1150 3233 529 
Q 2819 -91 2034 -91 
Q 1250 -91 836 529 
Q 422 1150 422 2328 
Q 422 3509 836 4129 
Q 1250 4750 2034 4750 
z
" transform="scale(0.015625)"/>
       </defs>
       <use xlink:href="#DejaVuSans-30"/>
      </g>
     </g>
    </g>
    <g id="xtick_2">
     <g id="line2d_2">
      <g>
       <use xlink:href="#m1a7fd7766f" x="95.765234" y="318.04" style="stroke: #000000; stroke-width: 0.8"/>
      </g>
     </g>
     <g id="text_2">
      <!-- 25 -->
      <g transform="translate(89.402734 332.638438) scale(0.1 -0.1)">
       <defs>
        <path id="DejaVuSans-32" d="M 1228 531 
L 3431 531 
L 3431 0 
L 469 0 
L 469 531 
Q 828 903 1448 1529 
Q 2069 2156 2228 2338 
Q 2531 2678 2651 2914 
Q 2772 3150 2772 3378 
Q 2772 3750 2511 3984 
Q 2250 4219 1831 4219 
Q 1534 4219 1204 4116 
Q 875 4013 500 3803 
L 500 4441 
Q 881 4594 1212 4672 
Q 1544 4750 1819 4750 
Q 2544 4750 2975 4387 
Q 3406 4025 3406 3419 
Q 3406 3131 3298 2873 
Q 3191 2616 2906 2266 
Q 2828 2175 2409 1742 
Q 1991 1309 1228 531 
z
" transform="scale(0.015625)"/>
        <path id="DejaVuSans-35" d="M 691 4666 
L 3169 4666 
L 3169 4134 
L 1269 4134 
L 1269 2991 
Q 1406 3038 1543 3061 
Q 1681 3084 1819 3084 
Q 2600 3084 3056 2656 
Q 3513 2228 3513 1497 
Q 3513 744 3044 326 
Q 2575 -91 1722 -91 
Q 1428 -91 1123 -41 
Q 819 9 494 109 
L 494 744 
Q 775 591 1075 516 
Q 1375 441 1709 441 
Q 2250 441 2565 725 
Q 2881 1009 2881 1497 
Q 2881 1984 2565 2268 
Q 2250 2553 1709 2553 
Q 1456 2553 1204 2497 
Q 953 2441 691 2322 
L 691 4666 
z
" transform="scale(0.015625)"/>
       </defs>
       <use xlink:href="#DejaVuSans-32"/>
       <use xlink:href="#DejaVuSans-35" x="63.623047"/>
      </g>
     </g>
    </g>
    <g id="xtick_3">
     <g id="line2d_3">
      <g>
       <use xlink:href="#m1a7fd7766f" x="131.196823" y="318.04" style="stroke: #000000; stroke-width: 0.8"/>
      </g>
     </g>
     <g id="text_3">
      <!-- 50 -->
      <g transform="translate(124.834323 332.638438) scale(0.1 -0.1)">
       <use xlink:href="#DejaVuSans-35"/>
       <use xlink:href="#DejaVuSans-30" x="63.623047"/>
      </g>
     </g>
    </g>
    <g id="xtick_4">
     <g id="line2d_4">
      <g>
       <use xlink:href="#m1a7fd7766f" x="166.628411" y="318.04" style="stroke: #000000; stroke-width: 0.8"/>
      </g>
     </g>
     <g id="text_4">
      <!-- 75 -->
      <g transform="translate(160.265911 332.638438) scale(0.1 -0.1)">
       <defs>
        <path id="DejaVuSans-37" d="M 525 4666 
L 3525 4666 
L 3525 4397 
L 1831 0 
L 1172 0 
L 2766 4134 
L 525 4134 
L 525 4666 
z
" transform="scale(0.015625)"/>
       </defs>
       <use xlink:href="#DejaVuSans-37"/>
       <use xlink:href="#DejaVuSans-35" x="63.623047"/>
      </g>
     </g>
    </g>
    <g id="xtick_5">
     <g id="line2d_5">
      <g>
       <use xlink:href="#m1a7fd7766f" x="202.06" y="318.04" style="stroke: #000000; stroke-width: 0.8"/>
      </g>
     </g>
     <g id="text_5">
      <!-- 100 -->
      <g transform="translate(192.51625 332.638438) scale(0.1 -0.1)">
       <defs>
        <path id="DejaVuSans-31" d="M 794 531 
L 1825 531 
L 1825 4091 
L 703 3866 
L 703 4441 
L 1819 4666 
L 2450 4666 
L 2450 531 
L 3481 531 
L 3481 0 
L 794 0 
L 794 531 
z
" transform="scale(0.015625)"/>
       </defs>
       <use xlink:href="#DejaVuSans-31"/>
       <use xlink:href="#DejaVuSans-30" x="63.623047"/>
       <use xlink:href="#DejaVuSans-30" x="127.246094"/>
      </g>
     </g>
    </g>
    <g id="xtick_6">
     <g id="line2d_6">
      <g>
       <use xlink:href="#m1a7fd7766f" x="237.491589" y="318.04" style="stroke: #000000; stroke-width: 0.8"/>
      </g>
     </g>
     <g id="text_6">
      <!-- 125 -->
      <g transform="translate(227.947839 332.638438) scale(0.1 -0.1)">
       <use xlink:href="#DejaVuSans-31"/>
       <use xlink:href="#DejaVuSans-32" x="63.623047"/>
       <use xlink:href="#DejaVuSans-35" x="127.246094"/>
      </g>
     </g>
    </g>
    <g id="xtick_7">
     <g id="line2d_7">
      <g>
       <use xlink:href="#m1a7fd7766f" x="272.923177" y="318.04" style="stroke: #000000; stroke-width: 0.8"/>
      </g>
     </g>
     <g id="text_7">
      <!-- 150 -->
      <g transform="translate(263.379427 332.638438) scale(0.1 -0.1)">
       <use xlink:href="#DejaVuSans-31"/>
       <use xlink:href="#DejaVuSans-35" x="63.623047"/>
       <use xlink:href="#DejaVuSans-30" x="127.246094"/>
      </g>
     </g>
    </g>
    <g id="xtick_8">
     <g id="line2d_8">
      <g>
       <use xlink:href="#m1a7fd7766f" x="308.354766" y="318.04" style="stroke: #000000; stroke-width: 0.8"/>
      </g>
     </g>
     <g id="text_8">
      <!-- 175 -->
      <g transform="translate(298.811016 332.638438) scale(0.1 -0.1)">
       <use xlink:href="#DejaVuSans-31"/>
       <use xlink:href="#DejaVuSans-37" x="63.623047"/>
       <use xlink:href="#DejaVuSans-35" x="127.246094"/>
      </g>
     </g>
    </g>
    <g id="xtick_9">
     <g id="line2d_9">
      <g>
       <use xlink:href="#m1a7fd7766f" x="343.786354" y="318.04" style="stroke: #000000; stroke-width: 0.8"/>
      </g>
     </g>
     <g id="text_9">
      <!-- 200 -->
      <g transform="translate(334.242604 332.638438) scale(0.1 -0.1)">
       <use xlink:href="#DejaVuSans-32"/>
       <use xlink:href="#DejaVuSans-30" x="63.623047"/>
       <use xlink:href="#DejaVuSans-30" x="127.246094"/>
      </g>
     </g>
    </g>
    <g id="text_10">
     <!-- Epochs -->
     <g transform="translate(184.144375 346.316563) scale(0.1 -0.1)">
      <defs>
       <path id="DejaVuSans-45" d="M 628 4666 
L 3578 4666 
L 3578 4134 
L 1259 4134 
L 1259 2753 
L 3481 2753 
L 3481 2222 
L 1259 2222 
L 1259 531 
L 3634 531 
L 3634 0 
L 628 0 
L 628 4666 
z
" transform="scale(0.015625)"/>
       <path id="DejaVuSans-70" d="M 1159 525 
L 1159 -1331 
L 581 -1331 
L 581 3500 
L 1159 3500 
L 1159 2969 
Q 1341 3281 1617 3432 
Q 1894 3584 2278 3584 
Q 2916 3584 3314 3078 
Q 3713 2572 3713 1747 
Q 3713 922 3314 415 
Q 2916 -91 2278 -91 
Q 1894 -91 1617 61 
Q 1341 213 1159 525 
z
M 3116 1747 
Q 3116 2381 2855 2742 
Q 2594 3103 2138 3103 
Q 1681 3103 1420 2742 
Q 1159 2381 1159 1747 
Q 1159 1113 1420 752 
Q 1681 391 2138 391 
Q 2594 391 2855 752 
Q 3116 1113 3116 1747 
z
" transform="scale(0.015625)"/>
       <path id="DejaVuSans-6f" d="M 1959 3097 
Q 1497 3097 1228 2736 
Q 959 2375 959 1747 
Q 959 1119 1226 758 
Q 1494 397 1959 397 
Q 2419 397 2687 759 
Q 2956 1122 2956 1747 
Q 2956 2369 2687 2733 
Q 2419 3097 1959 3097 
z
M 1959 3584 
Q 2709 3584 3137 3096 
Q 3566 2609 3566 1747 
Q 3566 888 3137 398 
Q 2709 -91 1959 -91 
Q 1206 -91 779 398 
Q 353 888 353 1747 
Q 353 2609 779 3096 
Q 1206 3584 1959 3584 
z
" transform="scale(0.015625)"/>
       <path id="DejaVuSans-63" d="M 3122 3366 
L 3122 2828 
Q 2878 2963 2633 3030 
Q 2388 3097 2138 3097 
Q 1578 3097 1268 2742 
Q 959 2388 959 1747 
Q 959 1106 1268 751 
Q 1578 397 2138 397 
Q 2388 397 2633 464 
Q 2878 531 3122 666 
L 3122 134 
Q 2881 22 2623 -34 
Q 2366 -91 2075 -91 
Q 1284 -91 818 406 
Q 353 903 353 1747 
Q 353 2603 823 3093 
Q 1294 3584 2113 3584 
Q 2378 3584 2631 3529 
Q 2884 3475 3122 3366 
z
" transform="scale(0.015625)"/>
       <path id="DejaVuSans-68" d="M 3513 2113 
L 3513 0 
L 2938 0 
L 2938 2094 
Q 2938 2591 2744 2837 
Q 2550 3084 2163 3084 
Q 1697 3084 1428 2787 
Q 1159 2491 1159 1978 
L 1159 0 
L 581 0 
L 581 4863 
L 1159 4863 
L 1159 2956 
Q 1366 3272 1645 3428 
Q 1925 3584 2291 3584 
Q 2894 3584 3203 3211 
Q 3513 2838 3513 2113 
z
" transform="scale(0.015625)"/>
       <path id="DejaVuSans-73" d="M 2834 3397 
L 2834 2853 
Q 2591 2978 2328 3040 
Q 2066 3103 1784 3103 
Q 1356 3103 1142 2972 
Q 928 2841 928 2578 
Q 928 2378 1081 2264 
Q 1234 2150 1697 2047 
L 1894 2003 
Q 2506 1872 2764 1633 
Q 3022 1394 3022 966 
Q 3022 478 2636 193 
Q 2250 -91 1575 -91 
Q 1294 -91 989 -36 
Q 684 19 347 128 
L 347 722 
Q 666 556 975 473 
Q 1284 391 1588 391 
Q 1994 391 2212 530 
Q 2431 669 2431 922 
Q 2431 1156 2273 1281 
Q 2116 1406 1581 1522 
L 1381 1569 
Q 847 1681 609 1914 
Q 372 2147 372 2553 
Q 372 3047 722 3315 
Q 1072 3584 1716 3584 
Q 2034 3584 2315 3537 
Q 2597 3491 2834 3397 
z
" transform="scale(0.015625)"/>
      </defs>
      <use xlink:href="#DejaVuSans-45"/>
      <use xlink:href="#DejaVuSans-70" x="63.183594"/>
      <use xlink:href="#DejaVuSans-6f" x="126.660156"/>
      <use xlink:href="#DejaVuSans-63" x="187.841797"/>
      <use xlink:href="#DejaVuSans-68" x="242.822266"/>
      <use xlink:href="#DejaVuSans-73" x="306.201172"/>
     </g>
    </g>
   </g>
   <g id="matplotlib.axis_2">
    <g id="ytick_1">
     <g id="line2d_10">
      <defs>
       <path id="m34ae32c795" d="M 0 0 
L -3.5 0 
" style="stroke: #000000; stroke-width: 0.8"/>
      </defs>
      <g>
       <use xlink:href="#m34ae32c795" x="47.72" y="312.707652" style="stroke: #000000; stroke-width: 0.8"/>
      </g>
     </g>
     <g id="text_11">
      <!-- 0.3 -->
      <g transform="translate(24.816875 316.506871) scale(0.1 -0.1)">
       <defs>
        <path id="DejaVuSans-2e" d="M 684 794 
L 1344 794 
L 1344 0 
L 684 0 
L 684 794 
z
" transform="scale(0.015625)"/>
        <path id="DejaVuSans-33" d="M 2597 2516 
Q 3050 2419 3304 2112 
Q 3559 1806 3559 1356 
Q 3559 666 3084 287 
Q 2609 -91 1734 -91 
Q 1441 -91 1130 -33 
Q 819 25 488 141 
L 488 750 
Q 750 597 1062 519 
Q 1375 441 1716 441 
Q 2309 441 2620 675 
Q 2931 909 2931 1356 
Q 2931 1769 2642 2001 
Q 2353 2234 1838 2234 
L 1294 2234 
L 1294 2753 
L 1863 2753 
Q 2328 2753 2575 2939 
Q 2822 3125 2822 3475 
Q 2822 3834 2567 4026 
Q 2313 4219 1838 4219 
Q 1578 4219 1281 4162 
Q 984 4106 628 3988 
L 628 4550 
Q 988 4650 1302 4700 
Q 1616 4750 1894 4750 
Q 2613 4750 3031 4423 
Q 3450 4097 3450 3541 
Q 3450 3153 3228 2886 
Q 3006 2619 2597 2516 
z
" transform="scale(0.015625)"/>
       </defs>
       <use xlink:href="#DejaVuSans-30"/>
       <use xlink:href="#DejaVuSans-2e" x="63.623047"/>
       <use xlink:href="#DejaVuSans-33" x="95.410156"/>
      </g>
     </g>
    </g>
    <g id="ytick_2">
     <g id="line2d_11">
      <g>
       <use xlink:href="#m34ae32c795" x="47.72" y="258.175734" style="stroke: #000000; stroke-width: 0.8"/>
      </g>
     </g>
     <g id="text_12">
      <!-- 0.4 -->
      <g transform="translate(24.816875 261.974953) scale(0.1 -0.1)">
       <defs>
        <path id="DejaVuSans-34" d="M 2419 4116 
L 825 1625 
L 2419 1625 
L 2419 4116 
z
M 2253 4666 
L 3047 4666 
L 3047 1625 
L 3713 1625 
L 3713 1100 
L 3047 1100 
L 3047 0 
L 2419 0 
L 2419 1100 
L 313 1100 
L 313 1709 
L 2253 4666 
z
" transform="scale(0.015625)"/>
       </defs>
       <use xlink:href="#DejaVuSans-30"/>
       <use xlink:href="#DejaVuSans-2e" x="63.623047"/>
       <use xlink:href="#DejaVuSans-34" x="95.410156"/>
      </g>
     </g>
    </g>
    <g id="ytick_3">
     <g id="line2d_12">
      <g>
       <use xlink:href="#m34ae32c795" x="47.72" y="203.643816" style="stroke: #000000; stroke-width: 0.8"/>
      </g>
     </g>
     <g id="text_13">
      <!-- 0.5 -->
      <g transform="translate(24.816875 207.443035) scale(0.1 -0.1)">
       <use xlink:href="#DejaVuSans-30"/>
       <use xlink:href="#DejaVuSans-2e" x="63.623047"/>
       <use xlink:href="#DejaVuSans-35" x="95.410156"/>
      </g>
     </g>
    </g>
    <g id="ytick_4">
     <g id="line2d_13">
      <g>
       <use xlink:href="#m34ae32c795" x="47.72" y="149.111898" style="stroke: #000000; stroke-width: 0.8"/>
      </g>
     </g>
     <g id="text_14">
      <!-- 0.6 -->
      <g transform="translate(24.816875 152.911117) scale(0.1 -0.1)">
       <defs>
        <path id="DejaVuSans-36" d="M 2113 2584 
Q 1688 2584 1439 2293 
Q 1191 2003 1191 1497 
Q 1191 994 1439 701 
Q 1688 409 2113 409 
Q 2538 409 2786 701 
Q 3034 994 3034 1497 
Q 3034 2003 2786 2293 
Q 2538 2584 2113 2584 
z
M 3366 4563 
L 3366 3988 
Q 3128 4100 2886 4159 
Q 2644 4219 2406 4219 
Q 1781 4219 1451 3797 
Q 1122 3375 1075 2522 
Q 1259 2794 1537 2939 
Q 1816 3084 2150 3084 
Q 2853 3084 3261 2657 
Q 3669 2231 3669 1497 
Q 3669 778 3244 343 
Q 2819 -91 2113 -91 
Q 1303 -91 875 529 
Q 447 1150 447 2328 
Q 447 3434 972 4092 
Q 1497 4750 2381 4750 
Q 2619 4750 2861 4703 
Q 3103 4656 3366 4563 
z
" transform="scale(0.015625)"/>
       </defs>
       <use xlink:href="#DejaVuSans-30"/>
       <use xlink:href="#DejaVuSans-2e" x="63.623047"/>
       <use xlink:href="#DejaVuSans-36" x="95.410156"/>
      </g>
     </g>
    </g>
    <g id="ytick_5">
     <g id="line2d_14">
      <g>
       <use xlink:href="#m34ae32c795" x="47.72" y="94.57998" style="stroke: #000000; stroke-width: 0.8"/>
      </g>
     </g>
     <g id="text_15">
      <!-- 0.7 -->
      <g transform="translate(24.816875 98.379199) scale(0.1 -0.1)">
       <use xlink:href="#DejaVuSans-30"/>
       <use xlink:href="#DejaVuSans-2e" x="63.623047"/>
       <use xlink:href="#DejaVuSans-37" x="95.410156"/>
      </g>
     </g>
    </g>
    <g id="ytick_6">
     <g id="line2d_15">
      <g>
       <use xlink:href="#m34ae32c795" x="47.72" y="40.048062" style="stroke: #000000; stroke-width: 0.8"/>
      </g>
     </g>
     <g id="text_16">
      <!-- 0.8 -->
      <g transform="translate(24.816875 43.847281) scale(0.1 -0.1)">
       <defs>
        <path id="DejaVuSans-38" d="M 2034 2216 
Q 1584 2216 1326 1975 
Q 1069 1734 1069 1313 
Q 1069 891 1326 650 
Q 1584 409 2034 409 
Q 2484 409 2743 651 
Q 3003 894 3003 1313 
Q 3003 1734 2745 1975 
Q 2488 2216 2034 2216 
z
M 1403 2484 
Q 997 2584 770 2862 
Q 544 3141 544 3541 
Q 544 4100 942 4425 
Q 1341 4750 2034 4750 
Q 2731 4750 3128 4425 
Q 3525 4100 3525 3541 
Q 3525 3141 3298 2862 
Q 3072 2584 2669 2484 
Q 3125 2378 3379 2068 
Q 3634 1759 3634 1313 
Q 3634 634 3220 271 
Q 2806 -91 2034 -91 
Q 1263 -91 848 271 
Q 434 634 434 1313 
Q 434 1759 690 2068 
Q 947 2378 1403 2484 
z
M 1172 3481 
Q 1172 3119 1398 2916 
Q 1625 2713 2034 2713 
Q 2441 2713 2670 2916 
Q 2900 3119 2900 3481 
Q 2900 3844 2670 4047 
Q 2441 4250 2034 4250 
Q 1625 4250 1398 4047 
Q 1172 3844 1172 3481 
z
" transform="scale(0.015625)"/>
       </defs>
       <use xlink:href="#DejaVuSans-30"/>
       <use xlink:href="#DejaVuSans-2e" x="63.623047"/>
       <use xlink:href="#DejaVuSans-38" x="95.410156"/>
      </g>
     </g>
    </g>
    <g id="text_17">
     <!-- Loss -->
     <g transform="translate(18.737187 183.427188) rotate(-90) scale(0.1 -0.1)">
      <defs>
       <path id="DejaVuSans-4c" d="M 628 4666 
L 1259 4666 
L 1259 531 
L 3531 531 
L 3531 0 
L 628 0 
L 628 4666 
z
" transform="scale(0.015625)"/>
      </defs>
      <use xlink:href="#DejaVuSans-4c"/>
      <use xlink:href="#DejaVuSans-6f" x="53.962891"/>
      <use xlink:href="#DejaVuSans-73" x="115.144531"/>
      <use xlink:href="#DejaVuSans-73" x="167.244141"/>
     </g>
    </g>
   </g>
   <g id="line2d_16">
    <path d="M 61.750909 124.38881 
L 63.168173 166.239121 
L 64.585436 201.467405 
L 66.0027 225.554839 
L 67.419963 241.515992 
L 68.837227 252.18998 
L 70.25449 260.746125 
L 71.671754 267.09651 
L 73.089017 272.044304 
L 77.340808 281.77649 
L 78.758072 283.325889 
L 80.175335 285.799123 
L 81.592599 287.089485 
L 83.009862 288.663 
L 84.427126 289.760693 
L 85.844389 289.727119 
L 87.261653 291.962616 
L 88.678916 292.384654 
L 90.09618 293.127653 
L 91.513444 294.019766 
L 92.930707 294.550263 
L 94.347971 294.610213 
L 95.765234 295.528976 
L 98.599761 296.221327 
L 100.017025 297.065417 
L 101.434288 297.338393 
L 102.851552 297.201622 
L 104.268815 297.531799 
L 105.686079 298.385082 
L 107.103343 298.681145 
L 108.520606 298.366493 
L 109.93787 298.20158 
L 111.355133 299.136232 
L 112.772397 298.966252 
L 117.024187 299.779789 
L 118.441451 299.198474 
L 119.858714 299.7751 
L 121.275978 300.160631 
L 122.693242 300.217989 
L 126.945032 301.106404 
L 128.362296 300.555612 
L 129.779559 300.72365 
L 131.196823 301.264866 
L 132.614086 300.513419 
L 139.700404 301.554636 
L 141.117668 301.910002 
L 142.534931 301.806504 
L 143.952195 302.132771 
L 145.369458 301.98603 
L 148.203985 301.931732 
L 149.621249 300.889211 
L 151.038512 301.897412 
L 153.873039 302.562487 
L 155.290303 302.251687 
L 156.707567 302.143606 
L 158.12483 302.581683 
L 159.542094 302.426566 
L 160.959357 302.647261 
L 163.793884 301.791942 
L 165.211148 302.624604 
L 166.628411 302.542865 
L 168.045675 302.748955 
L 170.880202 301.939385 
L 172.297466 301.748185 
L 175.131993 303.13657 
L 176.549256 302.715598 
L 177.96652 302.995258 
L 179.383783 303.041589 
L 180.801047 302.967298 
L 182.21831 302.638197 
L 186.470101 303.193087 
L 187.887365 302.968747 
L 189.304628 302.993349 
L 190.721892 302.316126 
L 194.973682 303.124254 
L 196.390946 303.205472 
L 197.808209 303.137324 
L 199.225473 302.945367 
L 200.642736 303.074667 
L 202.06 303.348574 
L 203.477264 303.183301 
L 204.894527 302.679678 
L 206.311791 303.213021 
L 209.146318 303.438746 
L 210.563581 303.567517 
L 211.980845 303.530609 
L 213.398108 303.370104 
L 214.815372 302.070109 
L 216.232635 303.390183 
L 219.067163 303.428445 
L 220.484426 303.520383 
L 221.90169 302.946027 
L 224.736217 303.640929 
L 226.15348 303.80073 
L 227.570744 303.717085 
L 228.988007 303.326378 
L 231.822534 303.587701 
L 233.239798 303.241568 
L 234.657062 303.775655 
L 236.074325 304.126463 
L 237.491589 303.842368 
L 238.908852 302.863695 
L 241.743379 304.063034 
L 244.577906 303.525527 
L 245.99517 303.463714 
L 247.412433 303.75896 
L 248.829697 303.70562 
L 250.246961 303.798229 
L 251.664224 303.740009 
L 253.081488 303.485768 
L 254.498751 303.621856 
L 255.916015 304.123703 
L 258.750542 303.913738 
L 260.167805 303.369905 
L 261.585069 303.872571 
L 263.002332 303.880245 
L 264.419596 303.450431 
L 265.83686 303.229369 
L 267.254123 303.874254 
L 268.671387 304.076907 
L 270.08865 303.807288 
L 271.505914 303.312045 
L 272.923177 303.741553 
L 274.340441 303.607229 
L 277.174968 304.064995 
L 282.844022 304.171622 
L 284.261286 304.298596 
L 285.678549 304.007614 
L 287.095813 303.851519 
L 288.513076 304.399074 
L 289.93034 304.342147 
L 291.347603 303.988437 
L 292.764867 304.327641 
L 295.599394 303.715013 
L 297.016657 304.308866 
L 298.433921 304.10852 
L 299.851185 303.537363 
L 301.268448 304.074504 
L 302.685712 304.051027 
L 305.520239 304.421823 
L 306.937502 304.292752 
L 308.354766 304.445646 
L 309.772029 304.404147 
L 311.189293 304.575193 
L 312.606556 304.415044 
L 314.02382 304.044602 
L 315.441084 303.886625 
L 316.858347 304.158886 
L 321.110138 304.465813 
L 322.527401 304.385524 
L 323.944665 304.523423 
L 325.361928 304.113924 
L 328.196455 304.441421 
L 329.613719 304.753601 
L 331.030983 304.397862 
L 332.448246 304.561223 
L 335.282773 304.178521 
L 336.700037 304.805455 
L 338.1173 304.562366 
L 340.951827 304.22641 
L 342.369091 304.477574 
L 342.369091 304.477574 
" clip-path="url(#p0d8695e610)" style="fill: none; stroke: #1f77b4; stroke-width: 1.5; stroke-linecap: square"/>
   </g>
   <g id="line2d_17">
    <path d="M 61.750909 92.521386 
L 63.168173 171.883536 
L 64.585436 191.935988 
L 66.0027 201.689703 
L 67.419963 89.710411 
L 68.837227 163.398723 
L 70.25449 143.850719 
L 71.671754 202.151215 
L 73.089017 157.130535 
L 74.506281 231.353878 
L 75.923545 230.897955 
L 77.340808 171.473239 
L 78.758072 246.142308 
L 80.175335 169.70506 
L 81.592599 197.725865 
L 83.009862 158.919478 
L 84.427126 226.788277 
L 85.844389 227.314089 
L 87.261653 228.717743 
L 88.678916 239.754047 
L 90.09618 234.622366 
L 91.513444 240.667149 
L 92.930707 238.472651 
L 94.347971 225.985963 
L 95.765234 247.680929 
L 97.182498 232.856943 
L 98.599761 131.228656 
L 100.017025 228.193247 
L 101.434288 258.793412 
L 102.851552 250.525024 
L 104.268815 246.222814 
L 105.686079 176.403915 
L 107.103343 246.746633 
L 108.520606 258.731049 
L 109.93787 245.841387 
L 111.355133 222.140777 
L 112.772397 246.245373 
L 114.18966 225.956622 
L 115.606924 213.833384 
L 117.024187 250.269457 
L 118.441451 161.859327 
L 119.858714 203.43631 
L 121.275978 220.543646 
L 122.693242 258.596822 
L 124.110505 246.050114 
L 125.527769 247.447547 
L 126.945032 257.684801 
L 128.362296 241.004356 
L 129.779559 251.945349 
L 131.196823 206.002968 
L 132.614086 245.563322 
L 134.03135 242.219394 
L 135.448613 256.129087 
L 136.865877 205.34902 
L 138.28314 248.740262 
L 139.700404 240.554557 
L 141.117668 256.612201 
L 142.534931 139.390506 
L 143.952195 254.435386 
L 145.369458 73.838802 
L 146.786722 256.484074 
L 148.203985 247.009935 
L 149.621249 257.575105 
L 151.038512 218.767481 
L 152.455776 248.530248 
L 153.873039 241.097095 
L 155.290303 255.049004 
L 156.707567 254.601196 
L 158.12483 229.726371 
L 159.542094 171.761793 
L 160.959357 248.661769 
L 162.376621 245.892948 
L 163.793884 171.541879 
L 165.211148 256.438249 
L 166.628411 242.577419 
L 168.045675 210.242293 
L 169.462938 241.918868 
L 170.880202 263.595954 
L 172.297466 253.75629 
L 173.714729 199.974523 
L 175.131993 204.908091 
L 176.549256 252.955177 
L 177.96652 259.37655 
L 179.383783 198.609666 
L 180.801047 237.31852 
L 182.21831 251.940852 
L 183.635574 259.909232 
L 185.052837 257.361167 
L 186.470101 261.208807 
L 187.887365 263.154718 
L 189.304628 246.432792 
L 190.721892 258.297505 
L 192.139155 263.999843 
L 193.556419 245.949286 
L 194.973682 265.408249 
L 196.390946 257.324484 
L 197.808209 261.341665 
L 199.225473 253.376681 
L 200.642736 257.052823 
L 202.06 266.559064 
L 203.477264 213.808996 
L 204.894527 250.420818 
L 206.311791 266.739793 
L 207.729054 110.911106 
L 209.146318 76.204579 
L 210.563581 158.953002 
L 211.980845 264.684852 
L 213.398108 267.196258 
L 214.815372 254.472385 
L 216.232635 40.114545 
L 217.649899 262.998371 
L 219.067163 253.473277 
L 220.484426 263.275739 
L 221.90169 200.449085 
L 223.318953 249.153056 
L 224.736217 261.347003 
L 226.15348 248.612864 
L 227.570744 251.200145 
L 228.988007 262.243984 
L 230.405271 240.884866 
L 231.822534 256.361666 
L 233.239798 261.86028 
L 234.657062 261.325919 
L 236.074325 265.071531 
L 237.491589 232.268831 
L 238.908852 214.225977 
L 240.326116 268.892519 
L 241.743379 218.590152 
L 243.160643 190.193316 
L 244.577906 258.671369 
L 245.99517 265.019403 
L 247.412433 267.491347 
L 248.829697 215.972065 
L 250.246961 242.427106 
L 251.664224 259.623046 
L 253.081488 232.247843 
L 254.498751 263.251548 
L 255.916015 265.447252 
L 257.333278 199.731905 
L 258.750542 242.899078 
L 260.167805 243.567555 
L 261.585069 261.751973 
L 263.002332 263.471025 
L 264.419596 258.077549 
L 265.83686 257.846763 
L 267.254123 141.839744 
L 268.671387 242.606784 
L 271.505914 274.987586 
L 272.923177 268.405715 
L 274.340441 239.350326 
L 275.757704 255.150796 
L 277.174968 247.562758 
L 278.592231 267.104756 
L 280.009495 266.324185 
L 281.426758 229.805166 
L 282.844022 266.886902 
L 284.261286 266.177601 
L 285.678549 225.349416 
L 287.095813 264.998451 
L 288.513076 207.118942 
L 289.93034 215.262282 
L 291.347603 267.58913 
L 292.764867 269.423351 
L 294.18213 191.065862 
L 295.599394 258.464578 
L 297.016657 210.3004 
L 298.433921 246.943457 
L 299.851185 266.006687 
L 301.268448 152.291873 
L 302.685712 266.067584 
L 304.102975 240.79394 
L 305.520239 261.692579 
L 306.937502 266.136877 
L 308.354766 265.128411 
L 309.772029 263.930629 
L 311.189293 240.328926 
L 314.02382 267.097871 
L 315.441084 246.963908 
L 316.858347 266.633405 
L 318.275611 268.238917 
L 319.692874 153.200622 
L 321.110138 232.265252 
L 322.527401 266.360255 
L 323.944665 259.019906 
L 325.361928 175.451799 
L 326.779192 198.764106 
L 328.196455 260.45278 
L 329.613719 223.007397 
L 331.030983 262.188471 
L 332.448246 267.9829 
L 333.86551 263.989152 
L 335.282773 255.502714 
L 336.700037 264.757598 
L 338.1173 253.137646 
L 339.534564 267.396506 
L 340.951827 266.103863 
L 342.369091 249.317357 
L 342.369091 249.317357 
" clip-path="url(#p0d8695e610)" style="fill: none; stroke: #ff7f0e; stroke-width: 1.5; stroke-linecap: square"/>
   </g>
   <g id="patch_3">
    <path d="M 47.72 318.04 
L 47.72 26.88 
" style="fill: none; stroke: #000000; stroke-width: 0.8; stroke-linejoin: miter; stroke-linecap: square"/>
   </g>
   <g id="patch_4">
    <path d="M 356.4 318.04 
L 356.4 26.88 
" style="fill: none; stroke: #000000; stroke-width: 0.8; stroke-linejoin: miter; stroke-linecap: square"/>
   </g>
   <g id="patch_5">
    <path d="M 47.72 318.04 
L 356.4 318.04 
" style="fill: none; stroke: #000000; stroke-width: 0.8; stroke-linejoin: miter; stroke-linecap: square"/>
   </g>
   <g id="patch_6">
    <path d="M 47.72 26.88 
L 356.4 26.88 
" style="fill: none; stroke: #000000; stroke-width: 0.8; stroke-linejoin: miter; stroke-linecap: square"/>
   </g>
   <g id="text_18">
    <!-- Loss -->
    <g transform="translate(188.899375 20.88) scale(0.12 -0.12)">
     <use xlink:href="#DejaVuSans-4c"/>
     <use xlink:href="#DejaVuSans-6f" x="53.962891"/>
     <use xlink:href="#DejaVuSans-73" x="115.144531"/>
     <use xlink:href="#DejaVuSans-73" x="167.244141"/>
    </g>
   </g>
   <g id="legend_1">
    <g id="patch_7">
     <path d="M 268.3 64.23625 
L 349.4 64.23625 
Q 351.4 64.23625 351.4 62.23625 
L 351.4 33.88 
Q 351.4 31.88 349.4 31.88 
L 268.3 31.88 
Q 266.3 31.88 266.3 33.88 
L 266.3 62.23625 
Q 266.3 64.23625 268.3 64.23625 
z
" style="fill: #ffffff; opacity: 0.8; stroke: #cccccc; stroke-linejoin: miter"/>
    </g>
    <g id="line2d_18">
     <path d="M 270.3 39.978437 
L 280.3 39.978437 
L 290.3 39.978437 
" style="fill: none; stroke: #1f77b4; stroke-width: 1.5; stroke-linecap: square"/>
    </g>
    <g id="text_19">
     <!-- Train Loss -->
     <g transform="translate(298.3 43.478437) scale(0.1 -0.1)">
      <defs>
       <path id="DejaVuSans-54" d="M -19 4666 
L 3928 4666 
L 3928 4134 
L 2272 4134 
L 2272 0 
L 1638 0 
L 1638 4134 
L -19 4134 
L -19 4666 
z
" transform="scale(0.015625)"/>
       <path id="DejaVuSans-72" d="M 2631 2963 
Q 2534 3019 2420 3045 
Q 2306 3072 2169 3072 
Q 1681 3072 1420 2755 
Q 1159 2438 1159 1844 
L 1159 0 
L 581 0 
L 581 3500 
L 1159 3500 
L 1159 2956 
Q 1341 3275 1631 3429 
Q 1922 3584 2338 3584 
Q 2397 3584 2469 3576 
Q 2541 3569 2628 3553 
L 2631 2963 
z
" transform="scale(0.015625)"/>
       <path id="DejaVuSans-61" d="M 2194 1759 
Q 1497 1759 1228 1600 
Q 959 1441 959 1056 
Q 959 750 1161 570 
Q 1363 391 1709 391 
Q 2188 391 2477 730 
Q 2766 1069 2766 1631 
L 2766 1759 
L 2194 1759 
z
M 3341 1997 
L 3341 0 
L 2766 0 
L 2766 531 
Q 2569 213 2275 61 
Q 1981 -91 1556 -91 
Q 1019 -91 701 211 
Q 384 513 384 1019 
Q 384 1609 779 1909 
Q 1175 2209 1959 2209 
L 2766 2209 
L 2766 2266 
Q 2766 2663 2505 2880 
Q 2244 3097 1772 3097 
Q 1472 3097 1187 3025 
Q 903 2953 641 2809 
L 641 3341 
Q 956 3463 1253 3523 
Q 1550 3584 1831 3584 
Q 2591 3584 2966 3190 
Q 3341 2797 3341 1997 
z
" transform="scale(0.015625)"/>
       <path id="DejaVuSans-69" d="M 603 3500 
L 1178 3500 
L 1178 0 
L 603 0 
L 603 3500 
z
M 603 4863 
L 1178 4863 
L 1178 4134 
L 603 4134 
L 603 4863 
z
" transform="scale(0.015625)"/>
       <path id="DejaVuSans-6e" d="M 3513 2113 
L 3513 0 
L 2938 0 
L 2938 2094 
Q 2938 2591 2744 2837 
Q 2550 3084 2163 3084 
Q 1697 3084 1428 2787 
Q 1159 2491 1159 1978 
L 1159 0 
L 581 0 
L 581 3500 
L 1159 3500 
L 1159 2956 
Q 1366 3272 1645 3428 
Q 1925 3584 2291 3584 
Q 2894 3584 3203 3211 
Q 3513 2838 3513 2113 
z
" transform="scale(0.015625)"/>
       <path id="DejaVuSans-20" transform="scale(0.015625)"/>
      </defs>
      <use xlink:href="#DejaVuSans-54"/>
      <use xlink:href="#DejaVuSans-72" x="46.333984"/>
      <use xlink:href="#DejaVuSans-61" x="87.447266"/>
      <use xlink:href="#DejaVuSans-69" x="148.726562"/>
      <use xlink:href="#DejaVuSans-6e" x="176.509766"/>
      <use xlink:href="#DejaVuSans-20" x="239.888672"/>
      <use xlink:href="#DejaVuSans-4c" x="271.675781"/>
      <use xlink:href="#DejaVuSans-6f" x="325.638672"/>
      <use xlink:href="#DejaVuSans-73" x="386.820312"/>
      <use xlink:href="#DejaVuSans-73" x="438.919922"/>
     </g>
    </g>
    <g id="line2d_19">
     <path d="M 270.3 54.656563 
L 280.3 54.656563 
L 290.3 54.656563 
" style="fill: none; stroke: #ff7f0e; stroke-width: 1.5; stroke-linecap: square"/>
    </g>
    <g id="text_20">
     <!-- Val Loss -->
     <g transform="translate(298.3 58.156563) scale(0.1 -0.1)">
      <defs>
       <path id="DejaVuSans-56" d="M 1831 0 
L 50 4666 
L 709 4666 
L 2188 738 
L 3669 4666 
L 4325 4666 
L 2547 0 
L 1831 0 
z
" transform="scale(0.015625)"/>
       <path id="DejaVuSans-6c" d="M 603 4863 
L 1178 4863 
L 1178 0 
L 603 0 
L 603 4863 
z
" transform="scale(0.015625)"/>
      </defs>
      <use xlink:href="#DejaVuSans-56"/>
      <use xlink:href="#DejaVuSans-61" x="60.658203"/>
      <use xlink:href="#DejaVuSans-6c" x="121.9375"/>
      <use xlink:href="#DejaVuSans-20" x="149.720703"/>
      <use xlink:href="#DejaVuSans-4c" x="181.507812"/>
      <use xlink:href="#DejaVuSans-6f" x="235.470703"/>
      <use xlink:href="#DejaVuSans-73" x="296.652344"/>
      <use xlink:href="#DejaVuSans-73" x="348.751953"/>
     </g>
    </g>
   </g>
  </g>
  <g id="axes_2">
   <g id="patch_8">
    <path d="M 404.12 318.04 
L 712.8 318.04 
L 712.8 26.88 
L 404.12 26.88 
z
" style="fill: #ffffff"/>
   </g>
   <g id="matplotlib.axis_3">
    <g id="xtick_10">
     <g id="line2d_20">
      <g>
       <use xlink:href="#m1a7fd7766f" x="416.733646" y="318.04" style="stroke: #000000; stroke-width: 0.8"/>
      </g>
     </g>
     <g id="text_21">
      <!-- 0 -->
      <g transform="translate(413.552396 332.638438) scale(0.1 -0.1)">
       <use xlink:href="#DejaVuSans-30"/>
      </g>
     </g>
    </g>
    <g id="xtick_11">
     <g id="line2d_21">
      <g>
       <use xlink:href="#m1a7fd7766f" x="452.165234" y="318.04" style="stroke: #000000; stroke-width: 0.8"/>
      </g>
     </g>
     <g id="text_22">
      <!-- 25 -->
      <g transform="translate(445.802734 332.638438) scale(0.1 -0.1)">
       <use xlink:href="#DejaVuSans-32"/>
       <use xlink:href="#DejaVuSans-35" x="63.623047"/>
      </g>
     </g>
    </g>
    <g id="xtick_12">
     <g id="line2d_22">
      <g>
       <use xlink:href="#m1a7fd7766f" x="487.596823" y="318.04" style="stroke: #000000; stroke-width: 0.8"/>
      </g>
     </g>
     <g id="text_23">
      <!-- 50 -->
      <g transform="translate(481.234323 332.638438) scale(0.1 -0.1)">
       <use xlink:href="#DejaVuSans-35"/>
       <use xlink:href="#DejaVuSans-30" x="63.623047"/>
      </g>
     </g>
    </g>
    <g id="xtick_13">
     <g id="line2d_23">
      <g>
       <use xlink:href="#m1a7fd7766f" x="523.028411" y="318.04" style="stroke: #000000; stroke-width: 0.8"/>
      </g>
     </g>
     <g id="text_24">
      <!-- 75 -->
      <g transform="translate(516.665911 332.638438) scale(0.1 -0.1)">
       <use xlink:href="#DejaVuSans-37"/>
       <use xlink:href="#DejaVuSans-35" x="63.623047"/>
      </g>
     </g>
    </g>
    <g id="xtick_14">
     <g id="line2d_24">
      <g>
       <use xlink:href="#m1a7fd7766f" x="558.46" y="318.04" style="stroke: #000000; stroke-width: 0.8"/>
      </g>
     </g>
     <g id="text_25">
      <!-- 100 -->
      <g transform="translate(548.91625 332.638438) scale(0.1 -0.1)">
       <use xlink:href="#DejaVuSans-31"/>
       <use xlink:href="#DejaVuSans-30" x="63.623047"/>
       <use xlink:href="#DejaVuSans-30" x="127.246094"/>
      </g>
     </g>
    </g>
    <g id="xtick_15">
     <g id="line2d_25">
      <g>
       <use xlink:href="#m1a7fd7766f" x="593.891589" y="318.04" style="stroke: #000000; stroke-width: 0.8"/>
      </g>
     </g>
     <g id="text_26">
      <!-- 125 -->
      <g transform="translate(584.347839 332.638438) scale(0.1 -0.1)">
       <use xlink:href="#DejaVuSans-31"/>
       <use xlink:href="#DejaVuSans-32" x="63.623047"/>
       <use xlink:href="#DejaVuSans-35" x="127.246094"/>
      </g>
     </g>
    </g>
    <g id="xtick_16">
     <g id="line2d_26">
      <g>
       <use xlink:href="#m1a7fd7766f" x="629.323177" y="318.04" style="stroke: #000000; stroke-width: 0.8"/>
      </g>
     </g>
     <g id="text_27">
      <!-- 150 -->
      <g transform="translate(619.779427 332.638438) scale(0.1 -0.1)">
       <use xlink:href="#DejaVuSans-31"/>
       <use xlink:href="#DejaVuSans-35" x="63.623047"/>
       <use xlink:href="#DejaVuSans-30" x="127.246094"/>
      </g>
     </g>
    </g>
    <g id="xtick_17">
     <g id="line2d_27">
      <g>
       <use xlink:href="#m1a7fd7766f" x="664.754766" y="318.04" style="stroke: #000000; stroke-width: 0.8"/>
      </g>
     </g>
     <g id="text_28">
      <!-- 175 -->
      <g transform="translate(655.211016 332.638438) scale(0.1 -0.1)">
       <use xlink:href="#DejaVuSans-31"/>
       <use xlink:href="#DejaVuSans-37" x="63.623047"/>
       <use xlink:href="#DejaVuSans-35" x="127.246094"/>
      </g>
     </g>
    </g>
    <g id="xtick_18">
     <g id="line2d_28">
      <g>
       <use xlink:href="#m1a7fd7766f" x="700.186354" y="318.04" style="stroke: #000000; stroke-width: 0.8"/>
      </g>
     </g>
     <g id="text_29">
      <!-- 200 -->
      <g transform="translate(690.642604 332.638438) scale(0.1 -0.1)">
       <use xlink:href="#DejaVuSans-32"/>
       <use xlink:href="#DejaVuSans-30" x="63.623047"/>
       <use xlink:href="#DejaVuSans-30" x="127.246094"/>
      </g>
     </g>
    </g>
    <g id="text_30">
     <!-- Epochs -->
     <g transform="translate(540.544375 346.316563) scale(0.1 -0.1)">
      <use xlink:href="#DejaVuSans-45"/>
      <use xlink:href="#DejaVuSans-70" x="63.183594"/>
      <use xlink:href="#DejaVuSans-6f" x="126.660156"/>
      <use xlink:href="#DejaVuSans-63" x="187.841797"/>
      <use xlink:href="#DejaVuSans-68" x="242.822266"/>
      <use xlink:href="#DejaVuSans-73" x="306.201172"/>
     </g>
    </g>
   </g>
   <g id="matplotlib.axis_4">
    <g id="ytick_7">
     <g id="line2d_29">
      <g>
       <use xlink:href="#m34ae32c795" x="404.12" y="307.359785" style="stroke: #000000; stroke-width: 0.8"/>
      </g>
     </g>
     <g id="text_31">
      <!-- 0.3 -->
      <g transform="translate(381.216875 311.159003) scale(0.1 -0.1)">
       <use xlink:href="#DejaVuSans-30"/>
       <use xlink:href="#DejaVuSans-2e" x="63.623047"/>
       <use xlink:href="#DejaVuSans-33" x="95.410156"/>
      </g>
     </g>
    </g>
    <g id="ytick_8">
     <g id="line2d_30">
      <g>
       <use xlink:href="#m34ae32c795" x="404.12" y="269.122239" style="stroke: #000000; stroke-width: 0.8"/>
      </g>
     </g>
     <g id="text_32">
      <!-- 0.4 -->
      <g transform="translate(381.216875 272.921458) scale(0.1 -0.1)">
       <use xlink:href="#DejaVuSans-30"/>
       <use xlink:href="#DejaVuSans-2e" x="63.623047"/>
       <use xlink:href="#DejaVuSans-34" x="95.410156"/>
      </g>
     </g>
    </g>
    <g id="ytick_9">
     <g id="line2d_31">
      <g>
       <use xlink:href="#m34ae32c795" x="404.12" y="230.884693" style="stroke: #000000; stroke-width: 0.8"/>
      </g>
     </g>
     <g id="text_33">
      <!-- 0.5 -->
      <g transform="translate(381.216875 234.683912) scale(0.1 -0.1)">
       <use xlink:href="#DejaVuSans-30"/>
       <use xlink:href="#DejaVuSans-2e" x="63.623047"/>
       <use xlink:href="#DejaVuSans-35" x="95.410156"/>
      </g>
     </g>
    </g>
    <g id="ytick_10">
     <g id="line2d_32">
      <g>
       <use xlink:href="#m34ae32c795" x="404.12" y="192.647147" style="stroke: #000000; stroke-width: 0.8"/>
      </g>
     </g>
     <g id="text_34">
      <!-- 0.6 -->
      <g transform="translate(381.216875 196.446366) scale(0.1 -0.1)">
       <use xlink:href="#DejaVuSans-30"/>
       <use xlink:href="#DejaVuSans-2e" x="63.623047"/>
       <use xlink:href="#DejaVuSans-36" x="95.410156"/>
      </g>
     </g>
    </g>
    <g id="ytick_11">
     <g id="line2d_33">
      <g>
       <use xlink:href="#m34ae32c795" x="404.12" y="154.409602" style="stroke: #000000; stroke-width: 0.8"/>
      </g>
     </g>
     <g id="text_35">
      <!-- 0.7 -->
      <g transform="translate(381.216875 158.208821) scale(0.1 -0.1)">
       <use xlink:href="#DejaVuSans-30"/>
       <use xlink:href="#DejaVuSans-2e" x="63.623047"/>
       <use xlink:href="#DejaVuSans-37" x="95.410156"/>
      </g>
     </g>
    </g>
    <g id="ytick_12">
     <g id="line2d_34">
      <g>
       <use xlink:href="#m34ae32c795" x="404.12" y="116.172056" style="stroke: #000000; stroke-width: 0.8"/>
      </g>
     </g>
     <g id="text_36">
      <!-- 0.8 -->
      <g transform="translate(381.216875 119.971275) scale(0.1 -0.1)">
       <use xlink:href="#DejaVuSans-30"/>
       <use xlink:href="#DejaVuSans-2e" x="63.623047"/>
       <use xlink:href="#DejaVuSans-38" x="95.410156"/>
      </g>
     </g>
    </g>
    <g id="ytick_13">
     <g id="line2d_35">
      <g>
       <use xlink:href="#m34ae32c795" x="404.12" y="77.93451" style="stroke: #000000; stroke-width: 0.8"/>
      </g>
     </g>
     <g id="text_37">
      <!-- 0.9 -->
      <g transform="translate(381.216875 81.733729) scale(0.1 -0.1)">
       <defs>
        <path id="DejaVuSans-39" d="M 703 97 
L 703 672 
Q 941 559 1184 500 
Q 1428 441 1663 441 
Q 2288 441 2617 861 
Q 2947 1281 2994 2138 
Q 2813 1869 2534 1725 
Q 2256 1581 1919 1581 
Q 1219 1581 811 2004 
Q 403 2428 403 3163 
Q 403 3881 828 4315 
Q 1253 4750 1959 4750 
Q 2769 4750 3195 4129 
Q 3622 3509 3622 2328 
Q 3622 1225 3098 567 
Q 2575 -91 1691 -91 
Q 1453 -91 1209 -44 
Q 966 3 703 97 
z
M 1959 2075 
Q 2384 2075 2632 2365 
Q 2881 2656 2881 3163 
Q 2881 3666 2632 3958 
Q 2384 4250 1959 4250 
Q 1534 4250 1286 3958 
Q 1038 3666 1038 3163 
Q 1038 2656 1286 2365 
Q 1534 2075 1959 2075 
z
" transform="scale(0.015625)"/>
       </defs>
       <use xlink:href="#DejaVuSans-30"/>
       <use xlink:href="#DejaVuSans-2e" x="63.623047"/>
       <use xlink:href="#DejaVuSans-39" x="95.410156"/>
      </g>
     </g>
    </g>
    <g id="ytick_14">
     <g id="line2d_36">
      <g>
       <use xlink:href="#m34ae32c795" x="404.12" y="39.696965" style="stroke: #000000; stroke-width: 0.8"/>
      </g>
     </g>
     <g id="text_38">
      <!-- 1.0 -->
      <g transform="translate(381.216875 43.496183) scale(0.1 -0.1)">
       <use xlink:href="#DejaVuSans-31"/>
       <use xlink:href="#DejaVuSans-2e" x="63.623047"/>
       <use xlink:href="#DejaVuSans-30" x="95.410156"/>
      </g>
     </g>
    </g>
    <g id="text_39">
     <!-- Accuracy -->
     <g transform="translate(375.137188 195.288125) rotate(-90) scale(0.1 -0.1)">
      <defs>
       <path id="DejaVuSans-41" d="M 2188 4044 
L 1331 1722 
L 3047 1722 
L 2188 4044 
z
M 1831 4666 
L 2547 4666 
L 4325 0 
L 3669 0 
L 3244 1197 
L 1141 1197 
L 716 0 
L 50 0 
L 1831 4666 
z
" transform="scale(0.015625)"/>
       <path id="DejaVuSans-75" d="M 544 1381 
L 544 3500 
L 1119 3500 
L 1119 1403 
Q 1119 906 1312 657 
Q 1506 409 1894 409 
Q 2359 409 2629 706 
Q 2900 1003 2900 1516 
L 2900 3500 
L 3475 3500 
L 3475 0 
L 2900 0 
L 2900 538 
Q 2691 219 2414 64 
Q 2138 -91 1772 -91 
Q 1169 -91 856 284 
Q 544 659 544 1381 
z
M 1991 3584 
L 1991 3584 
z
" transform="scale(0.015625)"/>
       <path id="DejaVuSans-79" d="M 2059 -325 
Q 1816 -950 1584 -1140 
Q 1353 -1331 966 -1331 
L 506 -1331 
L 506 -850 
L 844 -850 
Q 1081 -850 1212 -737 
Q 1344 -625 1503 -206 
L 1606 56 
L 191 3500 
L 800 3500 
L 1894 763 
L 2988 3500 
L 3597 3500 
L 2059 -325 
z
" transform="scale(0.015625)"/>
      </defs>
      <use xlink:href="#DejaVuSans-41"/>
      <use xlink:href="#DejaVuSans-63" x="66.658203"/>
      <use xlink:href="#DejaVuSans-63" x="121.638672"/>
      <use xlink:href="#DejaVuSans-75" x="176.619141"/>
      <use xlink:href="#DejaVuSans-72" x="239.998047"/>
      <use xlink:href="#DejaVuSans-61" x="281.111328"/>
      <use xlink:href="#DejaVuSans-63" x="342.390625"/>
      <use xlink:href="#DejaVuSans-79" x="397.371094"/>
     </g>
    </g>
   </g>
   <g id="line2d_37">
    <path d="M 418.150909 172.125732 
L 419.568173 110.098933 
L 420.985436 79.19796 
L 422.4027 63.349165 
L 423.819963 56.596135 
L 425.237227 52.822919 
L 426.65449 50.498386 
L 428.071754 49.128935 
L 429.489017 47.956497 
L 430.906281 47.635281 
L 432.323545 46.412519 
L 433.740808 45.724047 
L 435.158072 45.678006 
L 436.575335 44.64369 
L 437.992599 44.487365 
L 439.409862 44.210049 
L 440.827126 44.129745 
L 442.244389 44.420981 
L 443.661653 43.712164 
L 445.078916 43.796751 
L 447.913444 43.310644 
L 449.330707 42.929468 
L 450.747971 43.262462 
L 452.165234 42.989428 
L 453.582498 42.913407 
L 454.999761 42.957307 
L 456.417025 42.523665 
L 457.834288 42.750658 
L 459.251552 42.523665 
L 460.668815 42.780638 
L 462.086079 42.090023 
L 463.503343 41.913355 
L 464.920606 42.379118 
L 466.33787 42.640373 
L 467.755133 41.961537 
L 469.172397 42.417664 
L 472.006924 41.961537 
L 473.424187 42.349138 
L 476.258714 42.300955 
L 477.675978 42.112509 
L 479.093242 42.041841 
L 480.510505 41.849112 
L 481.927769 41.833051 
L 483.345032 41.527896 
L 484.762296 42.076104 
L 487.596823 41.736686 
L 489.014086 42.082528 
L 490.43135 41.656382 
L 491.848613 41.768808 
L 493.265877 41.736686 
L 494.68314 41.560017 
L 497.517668 41.399409 
L 498.934931 41.592139 
L 501.769458 41.303044 
L 503.186722 41.463652 
L 504.603985 41.511835 
L 506.021249 41.9958 
L 507.438512 41.463652 
L 508.855776 41.270923 
L 510.273039 41.238801 
L 513.107567 41.527896 
L 514.52483 41.286984 
L 515.942094 41.367288 
L 517.359357 41.158497 
L 518.776621 41.656382 
L 520.193884 41.672443 
L 521.611148 41.319105 
L 524.445675 41.254862 
L 525.862938 41.399409 
L 528.697466 41.897294 
L 530.114729 41.367288 
L 531.531993 40.981828 
L 532.949256 41.335166 
L 535.783783 41.174558 
L 537.201047 41.254862 
L 538.61831 41.495774 
L 541.452837 41.238801 
L 542.870101 40.853342 
L 544.287365 41.20668 
L 545.704628 41.078193 
L 547.121892 41.530037 
L 548.539155 41.273064 
L 549.956419 41.142436 
L 552.790946 41.190619 
L 554.208209 41.110315 
L 555.625473 41.286984 
L 557.042736 41.335166 
L 558.46 40.933646 
L 559.877264 41.110315 
L 561.294527 41.447592 
L 562.711791 41.030011 
L 564.129054 41.319105 
L 565.546318 40.965768 
L 569.798108 40.901525 
L 571.215372 41.640321 
L 572.632635 40.740917 
L 575.467163 40.933646 
L 576.884426 40.917585 
L 578.30169 41.367288 
L 581.136217 40.997889 
L 582.55348 40.724856 
L 585.388007 41.1767 
L 588.222534 41.01395 
L 589.639798 41.270923 
L 591.057062 40.708795 
L 592.474325 40.596369 
L 593.891589 40.724856 
L 595.308852 41.41547 
L 598.143379 40.532126 
L 599.560643 40.821221 
L 602.39517 41.110315 
L 603.812433 40.965768 
L 605.229697 40.997889 
L 606.646961 40.708795 
L 608.064224 40.724856 
L 609.481488 41.190619 
L 610.898751 41.094254 
L 612.316015 40.435761 
L 613.733278 40.580309 
L 616.567805 41.190619 
L 617.985069 40.821221 
L 619.402332 40.708795 
L 622.23686 41.174558 
L 623.654123 40.692734 
L 625.071387 40.548187 
L 627.905914 41.158497 
L 629.323177 40.901525 
L 630.740441 41.190619 
L 632.157704 40.708795 
L 636.409495 40.596369 
L 637.826758 40.628491 
L 639.244022 40.500005 
L 640.661286 40.532126 
L 642.078549 40.692734 
L 643.495813 40.724856 
L 644.913076 40.419701 
L 646.33034 40.435761 
L 647.747603 40.644552 
L 649.164867 40.355457 
L 651.999394 40.981828 
L 653.416657 40.435761 
L 654.833921 40.548187 
L 656.251185 41.303044 
L 657.668448 40.532126 
L 659.085712 40.708795 
L 661.920239 40.435761 
L 663.337502 40.40364 
L 664.754766 40.259093 
L 666.172029 40.451822 
L 667.589293 40.194849 
L 671.841084 40.821221 
L 673.258347 40.596369 
L 677.510138 40.40364 
L 678.927401 40.467883 
L 680.344665 40.339397 
L 681.761928 40.740917 
L 686.013719 40.146667 
L 687.430983 40.387579 
L 688.848246 40.275153 
L 691.682773 40.548187 
L 693.100037 40.114545 
L 694.5173 40.323336 
L 695.934564 40.323336 
L 697.351827 40.516065 
L 698.769091 40.40364 
L 698.769091 40.40364 
" clip-path="url(#pe40c5c9f81)" style="fill: none; stroke: #1f77b4; stroke-width: 1.5; stroke-linecap: square"/>
   </g>
   <g id="line2d_38">
    <path d="M 418.150909 304.757077 
L 419.568173 102.623948 
L 420.985436 93.601551 
L 422.4027 95.185913 
L 423.819963 304.805455 
L 425.237227 115.34722 
L 426.65449 145.214256 
L 428.071754 95.959953 
L 429.489017 136.796577 
L 430.906281 82.662198 
L 432.323545 87.977671 
L 433.740808 124.478466 
L 435.158072 73.071366 
L 436.575335 130.65264 
L 437.992599 108.852546 
L 439.409862 153.371905 
L 440.827126 94.925884 
L 442.244389 92.712616 
L 443.661653 88.382833 
L 445.078916 87.826492 
L 446.49618 84.09538 
L 447.913444 82.317508 
L 449.330707 88.086521 
L 450.747971 94.550959 
L 452.165234 76.028438 
L 453.582498 88.951268 
L 454.999761 166.379395 
L 456.417025 94.176034 
L 457.834288 70.313851 
L 459.251552 76.312656 
L 460.668815 77.667225 
L 462.086079 128.681258 
L 463.503343 81.168544 
L 464.920606 70.114294 
L 466.33787 81.767215 
L 467.755133 99.431035 
L 469.172397 81.114119 
L 470.58966 100.440915 
L 472.006924 110.207115 
L 473.424187 81.253204 
L 474.841451 150.263653 
L 476.258714 118.763879 
L 477.675978 101.898286 
L 479.093242 73.325348 
L 480.510505 81.743026 
L 481.927769 81.029459 
L 483.345032 71.976826 
L 484.762296 85.994196 
L 486.179559 77.866782 
L 487.596823 114.077312 
L 489.014086 83.526945 
L 490.43135 84.585202 
L 491.848613 75.599088 
L 493.265877 114.91787 
L 494.68314 81.797451 
L 496.100404 85.359241 
L 497.517668 74.649681 
L 498.934931 164.601524 
L 500.352195 77.383007 
L 501.769458 219.485754 
L 503.186722 72.781101 
L 504.603985 83.865587 
L 506.021249 74.335227 
L 507.438512 102.10389 
L 508.855776 82.287273 
L 510.273039 87.403189 
L 511.690303 74.849238 
L 513.107567 75.224163 
L 514.52483 94.212317 
L 515.942094 136.627256 
L 517.359357 81.482997 
L 518.776621 82.837566 
L 520.193884 136.881238 
L 521.611148 74.450124 
L 523.028411 84.494494 
L 524.445675 110.376436 
L 525.862938 86.248177 
L 527.280202 69.678897 
L 528.697466 78.296132 
L 530.114729 122.005169 
L 531.531993 117.149281 
L 532.949256 76.657345 
L 534.36652 71.317683 
L 535.783783 121.346026 
L 537.201047 88.086521 
L 538.61831 78.005867 
L 540.035574 70.918569 
L 541.452837 74.389652 
L 542.870101 70.858097 
L 544.287365 69.709132 
L 545.704628 82.317508 
L 547.121892 74.619445 
L 548.539155 68.475507 
L 549.956419 81.658366 
L 551.373682 69.279783 
L 552.790946 74.220331 
L 554.208209 70.22919 
L 555.625473 77.491857 
L 557.042736 74.825049 
L 558.46 66.177578 
L 559.877264 107.588685 
L 561.294527 77.95749 
L 562.711791 66.981853 
L 564.129054 185.821088 
L 565.546318 220.144897 
L 566.963581 148.056432 
L 568.380845 69.13465 
L 569.798108 65.947785 
L 571.215372 78.404981 
L 572.632635 237.197952 
L 574.049899 70.023586 
L 575.467163 77.407196 
L 576.884426 69.279783 
L 578.30169 116.804591 
L 579.718953 80.309844 
L 581.136217 71.317683 
L 582.55348 80.509401 
L 583.970744 77.921207 
L 585.388007 71.202787 
L 586.805271 86.453781 
L 588.222534 75.538617 
L 589.639798 69.364443 
L 591.057062 70.743201 
L 592.474325 68.820197 
L 593.891589 92.652144 
L 595.308852 105.955946 
L 596.726116 66.292474 
L 598.143379 104.571141 
L 599.560643 124.647787 
L 600.977906 72.121958 
L 602.39517 66.782296 
L 603.812433 65.603095 
L 605.229697 106.844881 
L 606.646961 84.300984 
L 608.064224 74.619445 
L 609.481488 94.375591 
L 610.898751 69.195122 
L 612.316015 68.445271 
L 613.733278 119.048096 
L 615.150542 85.879299 
L 616.567805 84.125616 
L 617.985069 70.168718 
L 619.402332 69.854265 
L 620.819596 73.101602 
L 622.23686 73.240687 
L 623.654123 161.983093 
L 625.071387 85.734167 
L 627.905914 60.317858 
L 629.323177 64.71416 
L 630.740441 87.48785 
L 632.157704 75.883306 
L 633.574968 81.28344 
L 634.992231 67.272118 
L 636.409495 67.671232 
L 637.826758 95.699924 
L 639.244022 67.786128 
L 640.661286 67.901025 
L 642.078549 100.295783 
L 643.495813 70.192907 
L 644.913076 113.678198 
L 646.33034 108.138979 
L 647.747603 66.552503 
L 649.164867 65.373302 
L 650.58213 121.835847 
L 651.999394 72.841573 
L 653.416657 106.959778 
L 654.833921 81.428573 
L 656.251185 66.812532 
L 657.668448 155.585174 
L 659.085712 68.390847 
L 660.502975 86.538442 
L 661.920239 70.398511 
L 663.337502 67.671232 
L 664.754766 68.759725 
L 666.172029 70.138482 
L 667.589293 86.82266 
L 669.006556 77.606753 
L 670.42382 67.411203 
L 671.841084 81.337865 
L 673.258347 67.725657 
L 674.675611 66.177578 
L 676.092874 156.764375 
L 677.510138 94.061137 
L 678.927401 67.380967 
L 680.344665 72.811337 
L 681.761928 138.689346 
L 683.179192 118.648982 
L 684.596455 71.233023 
L 686.013719 102.763033 
L 687.430983 70.398511 
L 688.848246 66.836721 
L 690.26551 68.590404 
L 691.682773 76.19776 
L 693.100037 68.330375 
L 694.5173 78.441264 
L 695.934564 66.117106 
L 697.351827 68.46946 
L 698.769091 79.3302 
L 698.769091 79.3302 
" clip-path="url(#pe40c5c9f81)" style="fill: none; stroke: #ff7f0e; stroke-width: 1.5; stroke-linecap: square"/>
   </g>
   <g id="patch_9">
    <path d="M 404.12 318.04 
L 404.12 26.88 
" style="fill: none; stroke: #000000; stroke-width: 0.8; stroke-linejoin: miter; stroke-linecap: square"/>
   </g>
   <g id="patch_10">
    <path d="M 712.8 318.04 
L 712.8 26.88 
" style="fill: none; stroke: #000000; stroke-width: 0.8; stroke-linejoin: miter; stroke-linecap: square"/>
   </g>
   <g id="patch_11">
    <path d="M 404.12 318.04 
L 712.8 318.04 
" style="fill: none; stroke: #000000; stroke-width: 0.8; stroke-linejoin: miter; stroke-linecap: square"/>
   </g>
   <g id="patch_12">
    <path d="M 404.12 26.88 
L 712.8 26.88 
" style="fill: none; stroke: #000000; stroke-width: 0.8; stroke-linejoin: miter; stroke-linecap: square"/>
   </g>
   <g id="text_40">
    <!-- Accuracy -->
    <g transform="translate(531.06625 20.88) scale(0.12 -0.12)">
     <use xlink:href="#DejaVuSans-41"/>
     <use xlink:href="#DejaVuSans-63" x="66.658203"/>
     <use xlink:href="#DejaVuSans-63" x="121.638672"/>
     <use xlink:href="#DejaVuSans-75" x="176.619141"/>
     <use xlink:href="#DejaVuSans-72" x="239.998047"/>
     <use xlink:href="#DejaVuSans-61" x="281.111328"/>
     <use xlink:href="#DejaVuSans-63" x="342.390625"/>
     <use xlink:href="#DejaVuSans-79" x="397.371094"/>
    </g>
   </g>
   <g id="legend_2">
    <g id="patch_13">
     <path d="M 600.978125 313.04 
L 705.8 313.04 
Q 707.8 313.04 707.8 311.04 
L 707.8 282.68375 
Q 707.8 280.68375 705.8 280.68375 
L 600.978125 280.68375 
Q 598.978125 280.68375 598.978125 282.68375 
L 598.978125 311.04 
Q 598.978125 313.04 600.978125 313.04 
z
" style="fill: #ffffff; opacity: 0.8; stroke: #cccccc; stroke-linejoin: miter"/>
    </g>
    <g id="line2d_39">
     <path d="M 602.978125 288.782188 
L 612.978125 288.782188 
L 622.978125 288.782188 
" style="fill: none; stroke: #1f77b4; stroke-width: 1.5; stroke-linecap: square"/>
    </g>
    <g id="text_41">
     <!-- Train Accuracy -->
     <g transform="translate(630.978125 292.282188) scale(0.1 -0.1)">
      <use xlink:href="#DejaVuSans-54"/>
      <use xlink:href="#DejaVuSans-72" x="46.333984"/>
      <use xlink:href="#DejaVuSans-61" x="87.447266"/>
      <use xlink:href="#DejaVuSans-69" x="148.726562"/>
      <use xlink:href="#DejaVuSans-6e" x="176.509766"/>
      <use xlink:href="#DejaVuSans-20" x="239.888672"/>
      <use xlink:href="#DejaVuSans-41" x="271.675781"/>
      <use xlink:href="#DejaVuSans-63" x="338.333984"/>
      <use xlink:href="#DejaVuSans-63" x="393.314453"/>
      <use xlink:href="#DejaVuSans-75" x="448.294922"/>
      <use xlink:href="#DejaVuSans-72" x="511.673828"/>
      <use xlink:href="#DejaVuSans-61" x="552.787109"/>
      <use xlink:href="#DejaVuSans-63" x="614.066406"/>
      <use xlink:href="#DejaVuSans-79" x="669.046875"/>
     </g>
    </g>
    <g id="line2d_40">
     <path d="M 602.978125 303.460313 
L 612.978125 303.460313 
L 622.978125 303.460313 
" style="fill: none; stroke: #ff7f0e; stroke-width: 1.5; stroke-linecap: square"/>
    </g>
    <g id="text_42">
     <!-- Val Accuracy -->
     <g transform="translate(630.978125 306.960313) scale(0.1 -0.1)">
      <use xlink:href="#DejaVuSans-56"/>
      <use xlink:href="#DejaVuSans-61" x="60.658203"/>
      <use xlink:href="#DejaVuSans-6c" x="121.9375"/>
      <use xlink:href="#DejaVuSans-20" x="149.720703"/>
      <use xlink:href="#DejaVuSans-41" x="181.507812"/>
      <use xlink:href="#DejaVuSans-63" x="248.166016"/>
      <use xlink:href="#DejaVuSans-63" x="303.146484"/>
      <use xlink:href="#DejaVuSans-75" x="358.126953"/>
      <use xlink:href="#DejaVuSans-72" x="421.505859"/>
      <use xlink:href="#DejaVuSans-61" x="462.619141"/>
      <use xlink:href="#DejaVuSans-63" x="523.898438"/>
      <use xlink:href="#DejaVuSans-79" x="578.878906"/>
     </g>
    </g>
   </g>
  </g>
  <g id="axes_3">
   <g id="patch_14">
    <path d="M 760.52 318.04 
L 1069.2 318.04 
L 1069.2 26.88 
L 760.52 26.88 
z
" style="fill: #ffffff"/>
   </g>
   <g id="matplotlib.axis_5">
    <g id="xtick_19">
     <g id="line2d_41">
      <g>
       <use xlink:href="#m1a7fd7766f" x="773.133646" y="318.04" style="stroke: #000000; stroke-width: 0.8"/>
      </g>
     </g>
     <g id="text_43">
      <!-- 0 -->
      <g transform="translate(769.952396 332.638438) scale(0.1 -0.1)">
       <use xlink:href="#DejaVuSans-30"/>
      </g>
     </g>
    </g>
    <g id="xtick_20">
     <g id="line2d_42">
      <g>
       <use xlink:href="#m1a7fd7766f" x="808.565234" y="318.04" style="stroke: #000000; stroke-width: 0.8"/>
      </g>
     </g>
     <g id="text_44">
      <!-- 25 -->
      <g transform="translate(802.202734 332.638438) scale(0.1 -0.1)">
       <use xlink:href="#DejaVuSans-32"/>
       <use xlink:href="#DejaVuSans-35" x="63.623047"/>
      </g>
     </g>
    </g>
    <g id="xtick_21">
     <g id="line2d_43">
      <g>
       <use xlink:href="#m1a7fd7766f" x="843.996823" y="318.04" style="stroke: #000000; stroke-width: 0.8"/>
      </g>
     </g>
     <g id="text_45">
      <!-- 50 -->
      <g transform="translate(837.634323 332.638438) scale(0.1 -0.1)">
       <use xlink:href="#DejaVuSans-35"/>
       <use xlink:href="#DejaVuSans-30" x="63.623047"/>
      </g>
     </g>
    </g>
    <g id="xtick_22">
     <g id="line2d_44">
      <g>
       <use xlink:href="#m1a7fd7766f" x="879.428411" y="318.04" style="stroke: #000000; stroke-width: 0.8"/>
      </g>
     </g>
     <g id="text_46">
      <!-- 75 -->
      <g transform="translate(873.065911 332.638438) scale(0.1 -0.1)">
       <use xlink:href="#DejaVuSans-37"/>
       <use xlink:href="#DejaVuSans-35" x="63.623047"/>
      </g>
     </g>
    </g>
    <g id="xtick_23">
     <g id="line2d_45">
      <g>
       <use xlink:href="#m1a7fd7766f" x="914.86" y="318.04" style="stroke: #000000; stroke-width: 0.8"/>
      </g>
     </g>
     <g id="text_47">
      <!-- 100 -->
      <g transform="translate(905.31625 332.638438) scale(0.1 -0.1)">
       <use xlink:href="#DejaVuSans-31"/>
       <use xlink:href="#DejaVuSans-30" x="63.623047"/>
       <use xlink:href="#DejaVuSans-30" x="127.246094"/>
      </g>
     </g>
    </g>
    <g id="xtick_24">
     <g id="line2d_46">
      <g>
       <use xlink:href="#m1a7fd7766f" x="950.291589" y="318.04" style="stroke: #000000; stroke-width: 0.8"/>
      </g>
     </g>
     <g id="text_48">
      <!-- 125 -->
      <g transform="translate(940.747839 332.638438) scale(0.1 -0.1)">
       <use xlink:href="#DejaVuSans-31"/>
       <use xlink:href="#DejaVuSans-32" x="63.623047"/>
       <use xlink:href="#DejaVuSans-35" x="127.246094"/>
      </g>
     </g>
    </g>
    <g id="xtick_25">
     <g id="line2d_47">
      <g>
       <use xlink:href="#m1a7fd7766f" x="985.723177" y="318.04" style="stroke: #000000; stroke-width: 0.8"/>
      </g>
     </g>
     <g id="text_49">
      <!-- 150 -->
      <g transform="translate(976.179427 332.638438) scale(0.1 -0.1)">
       <use xlink:href="#DejaVuSans-31"/>
       <use xlink:href="#DejaVuSans-35" x="63.623047"/>
       <use xlink:href="#DejaVuSans-30" x="127.246094"/>
      </g>
     </g>
    </g>
    <g id="xtick_26">
     <g id="line2d_48">
      <g>
       <use xlink:href="#m1a7fd7766f" x="1021.154766" y="318.04" style="stroke: #000000; stroke-width: 0.8"/>
      </g>
     </g>
     <g id="text_50">
      <!-- 175 -->
      <g transform="translate(1011.611016 332.638438) scale(0.1 -0.1)">
       <use xlink:href="#DejaVuSans-31"/>
       <use xlink:href="#DejaVuSans-37" x="63.623047"/>
       <use xlink:href="#DejaVuSans-35" x="127.246094"/>
      </g>
     </g>
    </g>
    <g id="xtick_27">
     <g id="line2d_49">
      <g>
       <use xlink:href="#m1a7fd7766f" x="1056.586354" y="318.04" style="stroke: #000000; stroke-width: 0.8"/>
      </g>
     </g>
     <g id="text_51">
      <!-- 200 -->
      <g transform="translate(1047.042604 332.638438) scale(0.1 -0.1)">
       <use xlink:href="#DejaVuSans-32"/>
       <use xlink:href="#DejaVuSans-30" x="63.623047"/>
       <use xlink:href="#DejaVuSans-30" x="127.246094"/>
      </g>
     </g>
    </g>
    <g id="text_52">
     <!-- Epochs -->
     <g transform="translate(896.944375 346.316563) scale(0.1 -0.1)">
      <use xlink:href="#DejaVuSans-45"/>
      <use xlink:href="#DejaVuSans-70" x="63.183594"/>
      <use xlink:href="#DejaVuSans-6f" x="126.660156"/>
      <use xlink:href="#DejaVuSans-63" x="187.841797"/>
      <use xlink:href="#DejaVuSans-68" x="242.822266"/>
      <use xlink:href="#DejaVuSans-73" x="306.201172"/>
     </g>
    </g>
   </g>
   <g id="matplotlib.axis_6">
    <g id="ytick_15">
     <g id="line2d_50">
      <g>
       <use xlink:href="#m34ae32c795" x="760.52" y="308.119251" style="stroke: #000000; stroke-width: 0.8"/>
      </g>
     </g>
     <g id="text_53">
      <!-- 0.0 -->
      <g transform="translate(737.616875 311.918469) scale(0.1 -0.1)">
       <use xlink:href="#DejaVuSans-30"/>
       <use xlink:href="#DejaVuSans-2e" x="63.623047"/>
       <use xlink:href="#DejaVuSans-30" x="95.410156"/>
      </g>
     </g>
    </g>
    <g id="ytick_16">
     <g id="line2d_51">
      <g>
       <use xlink:href="#m34ae32c795" x="760.52" y="254.436744" style="stroke: #000000; stroke-width: 0.8"/>
      </g>
     </g>
     <g id="text_54">
      <!-- 0.2 -->
      <g transform="translate(737.616875 258.235963) scale(0.1 -0.1)">
       <use xlink:href="#DejaVuSans-30"/>
       <use xlink:href="#DejaVuSans-2e" x="63.623047"/>
       <use xlink:href="#DejaVuSans-32" x="95.410156"/>
      </g>
     </g>
    </g>
    <g id="ytick_17">
     <g id="line2d_52">
      <g>
       <use xlink:href="#m34ae32c795" x="760.52" y="200.754238" style="stroke: #000000; stroke-width: 0.8"/>
      </g>
     </g>
     <g id="text_55">
      <!-- 0.4 -->
      <g transform="translate(737.616875 204.553457) scale(0.1 -0.1)">
       <use xlink:href="#DejaVuSans-30"/>
       <use xlink:href="#DejaVuSans-2e" x="63.623047"/>
       <use xlink:href="#DejaVuSans-34" x="95.410156"/>
      </g>
     </g>
    </g>
    <g id="ytick_18">
     <g id="line2d_53">
      <g>
       <use xlink:href="#m34ae32c795" x="760.52" y="147.071732" style="stroke: #000000; stroke-width: 0.8"/>
      </g>
     </g>
     <g id="text_56">
      <!-- 0.6 -->
      <g transform="translate(737.616875 150.87095) scale(0.1 -0.1)">
       <use xlink:href="#DejaVuSans-30"/>
       <use xlink:href="#DejaVuSans-2e" x="63.623047"/>
       <use xlink:href="#DejaVuSans-36" x="95.410156"/>
      </g>
     </g>
    </g>
    <g id="ytick_19">
     <g id="line2d_54">
      <g>
       <use xlink:href="#m34ae32c795" x="760.52" y="93.389225" style="stroke: #000000; stroke-width: 0.8"/>
      </g>
     </g>
     <g id="text_57">
      <!-- 0.8 -->
      <g transform="translate(737.616875 97.188444) scale(0.1 -0.1)">
       <use xlink:href="#DejaVuSans-30"/>
       <use xlink:href="#DejaVuSans-2e" x="63.623047"/>
       <use xlink:href="#DejaVuSans-38" x="95.410156"/>
      </g>
     </g>
    </g>
    <g id="ytick_20">
     <g id="line2d_55">
      <g>
       <use xlink:href="#m34ae32c795" x="760.52" y="39.706719" style="stroke: #000000; stroke-width: 0.8"/>
      </g>
     </g>
     <g id="text_58">
      <!-- 1.0 -->
      <g transform="translate(737.616875 43.505938) scale(0.1 -0.1)">
       <use xlink:href="#DejaVuSans-31"/>
       <use xlink:href="#DejaVuSans-2e" x="63.623047"/>
       <use xlink:href="#DejaVuSans-30" x="95.410156"/>
      </g>
     </g>
    </g>
    <g id="text_59">
     <!-- F1 Score -->
     <g transform="translate(731.537188 194.108438) rotate(-90) scale(0.1 -0.1)">
      <defs>
       <path id="DejaVuSans-46" d="M 628 4666 
L 3309 4666 
L 3309 4134 
L 1259 4134 
L 1259 2759 
L 3109 2759 
L 3109 2228 
L 1259 2228 
L 1259 0 
L 628 0 
L 628 4666 
z
" transform="scale(0.015625)"/>
       <path id="DejaVuSans-53" d="M 3425 4513 
L 3425 3897 
Q 3066 4069 2747 4153 
Q 2428 4238 2131 4238 
Q 1616 4238 1336 4038 
Q 1056 3838 1056 3469 
Q 1056 3159 1242 3001 
Q 1428 2844 1947 2747 
L 2328 2669 
Q 3034 2534 3370 2195 
Q 3706 1856 3706 1288 
Q 3706 609 3251 259 
Q 2797 -91 1919 -91 
Q 1588 -91 1214 -16 
Q 841 59 441 206 
L 441 856 
Q 825 641 1194 531 
Q 1563 422 1919 422 
Q 2459 422 2753 634 
Q 3047 847 3047 1241 
Q 3047 1584 2836 1778 
Q 2625 1972 2144 2069 
L 1759 2144 
Q 1053 2284 737 2584 
Q 422 2884 422 3419 
Q 422 4038 858 4394 
Q 1294 4750 2059 4750 
Q 2388 4750 2728 4690 
Q 3069 4631 3425 4513 
z
" transform="scale(0.015625)"/>
       <path id="DejaVuSans-65" d="M 3597 1894 
L 3597 1613 
L 953 1613 
Q 991 1019 1311 708 
Q 1631 397 2203 397 
Q 2534 397 2845 478 
Q 3156 559 3463 722 
L 3463 178 
Q 3153 47 2828 -22 
Q 2503 -91 2169 -91 
Q 1331 -91 842 396 
Q 353 884 353 1716 
Q 353 2575 817 3079 
Q 1281 3584 2069 3584 
Q 2775 3584 3186 3129 
Q 3597 2675 3597 1894 
z
M 3022 2063 
Q 3016 2534 2758 2815 
Q 2500 3097 2075 3097 
Q 1594 3097 1305 2825 
Q 1016 2553 972 2059 
L 3022 2063 
z
" transform="scale(0.015625)"/>
      </defs>
      <use xlink:href="#DejaVuSans-46"/>
      <use xlink:href="#DejaVuSans-31" x="57.519531"/>
      <use xlink:href="#DejaVuSans-20" x="121.142578"/>
      <use xlink:href="#DejaVuSans-53" x="152.929688"/>
      <use xlink:href="#DejaVuSans-63" x="216.40625"/>
      <use xlink:href="#DejaVuSans-6f" x="271.386719"/>
      <use xlink:href="#DejaVuSans-72" x="332.568359"/>
      <use xlink:href="#DejaVuSans-65" x="371.431641"/>
     </g>
    </g>
   </g>
   <g id="line2d_56">
    <path d="M 774.550909 166.273065 
L 775.968173 112.526491 
L 777.385436 80.718436 
L 778.8027 64.432781 
L 780.219963 57.862084 
L 781.637227 53.997525 
L 783.05449 51.824224 
L 784.471754 50.428766 
L 785.889017 49.328716 
L 787.306281 48.941634 
L 788.723545 47.933155 
L 790.140808 47.201445 
L 791.558072 47.023032 
L 792.975335 46.145662 
L 794.392599 46.040924 
L 795.809862 45.635245 
L 797.227126 45.459231 
L 798.644389 45.960903 
L 800.061653 45.049018 
L 801.478916 45.146442 
L 802.89618 44.799885 
L 807.147971 44.419132 
L 811.399761 44.105108 
L 812.817025 43.898255 
L 814.234288 43.984429 
L 815.651552 43.735789 
L 817.068815 44.004636 
L 818.486079 43.011203 
L 819.903343 42.995227 
L 821.320606 43.755906 
L 822.73787 43.949205 
L 824.155133 43.524248 
L 825.572397 43.704304 
L 826.98966 43.5192 
L 829.824187 43.460743 
L 831.241451 43.215152 
L 832.658714 43.488919 
L 834.075978 42.414358 
L 835.493242 43.237978 
L 836.910505 42.566136 
L 838.327769 42.887879 
L 839.745032 42.98544 
L 841.162296 42.799379 
L 842.579559 41.903008 
L 843.996823 42.615497 
L 845.414086 42.846478 
L 846.83135 42.089816 
L 848.248613 43.172345 
L 849.665877 43.236563 
L 851.08314 43.006341 
L 852.500404 43.073537 
L 853.917668 42.793571 
L 855.334931 42.302428 
L 856.752195 42.626709 
L 861.003985 42.108927 
L 862.421249 42.679302 
L 863.838512 42.886083 
L 869.507567 42.837581 
L 870.92483 42.472638 
L 873.759357 42.099358 
L 875.176621 42.659094 
L 876.593884 42.181924 
L 878.011148 41.834072 
L 879.428411 41.92381 
L 882.262938 41.645291 
L 883.680202 41.822528 
L 885.097466 42.634839 
L 886.514729 42.33993 
L 887.931993 41.63287 
L 889.349256 42.027773 
L 890.76652 41.802047 
L 892.183783 42.669829 
L 893.601047 42.35107 
L 895.01831 42.37627 
L 896.435574 42.616084 
L 897.852837 42.258127 
L 899.270101 41.531396 
L 900.687365 41.562587 
L 902.104628 41.397068 
L 903.521892 42.646171 
L 904.939155 41.638427 
L 906.356419 41.280367 
L 907.773682 41.595096 
L 909.190946 41.298468 
L 910.608209 41.714812 
L 912.025473 41.141779 
L 913.442736 42.63201 
L 914.86 41.376046 
L 916.277264 41.166529 
L 917.694527 41.57236 
L 919.111791 41.315098 
L 920.529054 42.637169 
L 921.946318 41.292175 
L 923.363581 41.584036 
L 924.780845 42.100836 
L 926.198108 41.18413 
L 927.615372 42.10842 
L 929.032635 40.775482 
L 930.449899 41.106616 
L 933.284426 41.08799 
L 934.70169 41.597034 
L 936.118953 42.621386 
L 937.536217 41.907359 
L 938.95348 41.045226 
L 940.370744 41.697172 
L 941.788007 40.992641 
L 943.205271 41.764805 
L 944.622534 41.362072 
L 946.039798 41.506899 
L 947.457062 40.92704 
L 948.874325 41.053592 
L 950.291589 40.864369 
L 951.708852 41.691234 
L 954.543379 40.82672 
L 955.960643 40.697067 
L 957.377906 41.377652 
L 958.79517 42.609753 
L 960.212433 42.212283 
L 961.629697 42.116808 
L 963.046961 41.02068 
L 964.464224 40.890986 
L 965.881488 41.121884 
L 967.298751 42.219008 
L 968.716015 40.616056 
L 970.133278 40.976628 
L 971.550542 41.147311 
L 972.967805 41.097458 
L 974.385069 41.687414 
L 975.802332 40.763366 
L 977.219596 41.165793 
L 978.63686 41.134518 
L 980.054123 41.333462 
L 981.471387 40.706499 
L 984.305914 41.253995 
L 985.723177 41.121502 
L 987.140441 42.263029 
L 988.557704 40.879802 
L 992.809495 40.594767 
L 994.226758 40.715135 
L 995.644022 40.466234 
L 998.478549 40.96208 
L 999.895813 40.890783 
L 1002.73034 40.428258 
L 1004.147603 40.513749 
L 1005.564867 40.339513 
L 1006.98213 40.658697 
L 1008.399394 41.482815 
L 1009.816657 40.487679 
L 1011.233921 40.561279 
L 1012.651185 42.481869 
L 1014.068448 40.794256 
L 1015.485712 40.943643 
L 1016.902975 40.526995 
L 1018.320239 40.338925 
L 1019.737502 40.553325 
L 1021.154766 40.384675 
L 1022.572029 40.4731 
L 1023.989293 40.156321 
L 1026.82382 40.618924 
L 1028.241084 41.03587 
L 1029.658347 40.657453 
L 1031.075611 40.707253 
L 1032.492874 40.493853 
L 1035.327401 40.521634 
L 1036.744665 40.402178 
L 1038.161928 40.709928 
L 1039.579192 40.388901 
L 1040.996455 40.398721 
L 1042.413719 40.182086 
L 1043.830983 40.442334 
L 1045.248246 40.297069 
L 1046.66551 40.384887 
L 1048.082773 40.622685 
L 1049.500037 40.114545 
L 1050.9173 40.321802 
L 1052.334564 40.328598 
L 1053.751827 40.493853 
L 1055.169091 40.420151 
L 1055.169091 40.420151 
" clip-path="url(#p9f193bef57)" style="fill: none; stroke: #1f77b4; stroke-width: 1.5; stroke-linecap: square"/>
   </g>
   <g id="line2d_57">
    <path d="M 774.550909 182.44993 
L 775.968173 120.125127 
L 777.385436 102.475838 
L 778.8027 106.622104 
L 780.219963 187.726897 
L 781.637227 114.841262 
L 783.05449 262.842247 
L 784.471754 97.106679 
L 785.889017 140.654031 
L 787.306281 89.742203 
L 788.723545 101.47027 
L 790.140808 123.684815 
L 791.558072 77.561178 
L 792.975335 156.350858 
L 794.392599 116.692134 
L 795.809862 304.805455 
L 797.227126 103.90773 
L 798.644389 101.310689 
L 800.061653 90.961096 
L 801.478916 95.715697 
L 802.89618 88.558754 
L 804.313444 88.389504 
L 805.730707 96.472258 
L 807.147971 101.444082 
L 808.565234 81.173955 
L 809.982498 98.662109 
L 811.399761 158.154464 
L 812.817025 103.720578 
L 814.234288 74.897292 
L 815.651552 83.005799 
L 817.068815 83.462412 
L 818.486079 184.519233 
L 819.903343 91.053706 
L 821.320606 75.297474 
L 822.73787 85.655955 
L 824.155133 109.243586 
L 825.572397 83.844259 
L 828.406924 115.278109 
L 829.824187 91.154331 
L 831.241451 133.785697 
L 832.658714 116.403611 
L 834.075978 110.639867 
L 835.493242 80.969631 
L 836.910505 91.734724 
L 838.327769 89.837004 
L 839.745032 78.99938 
L 841.162296 100.560436 
L 842.579559 86.858402 
L 843.996823 114.429025 
L 845.414086 89.93933 
L 846.83135 91.73967 
L 848.248613 82.402335 
L 849.665877 116.656659 
L 851.08314 87.336865 
L 852.500404 90.453312 
L 853.917668 80.870165 
L 855.334931 151.904917 
L 856.752195 87.625266 
L 858.169458 171.47425 
L 859.586722 78.878814 
L 861.003985 92.057393 
L 862.421249 81.148778 
L 863.838512 111.439511 
L 865.255776 86.898157 
L 866.673039 92.982858 
L 868.090303 80.120268 
L 869.507567 81.038748 
L 870.92483 96.775608 
L 872.342094 170.320641 
L 873.759357 87.203469 
L 875.176621 90.745391 
L 876.593884 148.47411 
L 878.011148 81.351696 
L 879.428411 92.44643 
L 880.845675 106.161858 
L 882.262938 88.599881 
L 883.680202 73.686564 
L 885.097466 84.367802 
L 886.514729 118.301314 
L 887.931993 118.380687 
L 889.349256 81.525232 
L 890.76652 76.511949 
L 892.183783 121.468559 
L 893.601047 93.675729 
L 895.01831 81.206772 
L 896.435574 75.961256 
L 897.852837 80.987702 
L 899.270101 77.133787 
L 900.687365 74.817135 
L 902.104628 84.552164 
L 903.521892 79.791332 
L 904.939155 72.545537 
L 906.356419 86.329219 
L 907.773682 74.037823 
L 909.190946 79.329475 
L 910.608209 75.68619 
L 912.025473 81.492956 
L 913.442736 79.501949 
L 914.86 70.233605 
L 916.277264 102.994213 
L 917.694527 83.985252 
L 919.111791 71.211675 
L 920.529054 148.019375 
L 921.946318 166.517098 
L 923.363581 143.103084 
L 924.780845 73.247545 
L 926.198108 68.634403 
L 927.615372 83.119644 
L 929.032635 168.688986 
L 930.449899 75.827546 
L 931.867163 85.50089 
L 933.284426 74.279003 
L 934.70169 161.767033 
L 936.118953 84.406048 
L 937.536217 78.763473 
L 938.95348 85.61079 
L 940.370744 82.438667 
L 941.788007 77.582756 
L 943.205271 89.807884 
L 944.622534 80.927648 
L 946.039798 73.286856 
L 947.457062 76.966224 
L 948.874325 73.871021 
L 950.291589 94.420225 
L 951.708852 133.782225 
L 953.126116 70.756975 
L 954.543379 115.631869 
L 955.960643 115.318389 
L 957.377906 76.495556 
L 958.79517 71.334401 
L 960.212433 70.644012 
L 961.629697 104.311872 
L 963.046961 88.698896 
L 964.464224 78.432544 
L 965.881488 97.214345 
L 967.298751 75.396209 
L 968.716015 74.175817 
L 970.133278 117.643982 
L 971.550542 96.141047 
L 972.967805 86.829347 
L 974.385069 75.620252 
L 975.802332 73.7866 
L 977.219596 77.794459 
L 978.63686 77.12246 
L 980.054123 165.76286 
L 981.471387 89.895825 
L 982.88865 77.863717 
L 984.305914 63.684638 
L 985.723177 69.208388 
L 987.140441 91.822412 
L 988.557704 81.658566 
L 989.974968 84.522212 
L 991.392231 72.229839 
L 992.809495 72.860914 
L 994.226758 107.25997 
L 995.644022 72.621364 
L 997.061286 73.051438 
L 998.478549 123.907519 
L 999.895813 73.926226 
L 1001.313076 119.57908 
L 1002.73034 111.134429 
L 1004.147603 71.142326 
L 1005.564867 69.522481 
L 1006.98213 182.528358 
L 1008.399394 77.982419 
L 1009.816657 135.080829 
L 1011.233921 84.885721 
L 1012.651185 71.274595 
L 1014.068448 137.625932 
L 1015.485712 73.104127 
L 1016.902975 89.511155 
L 1018.320239 75.019231 
L 1019.737502 71.889714 
L 1021.154766 73.208186 
L 1022.572029 76.450275 
L 1023.989293 91.055244 
L 1025.406556 84.248437 
L 1026.82382 71.262156 
L 1028.241084 84.829499 
L 1029.658347 75.960644 
L 1031.075611 70.531486 
L 1032.492874 142.828655 
L 1033.910138 104.351777 
L 1035.327401 71.277038 
L 1036.744665 77.835743 
L 1038.161928 129.041285 
L 1039.579192 118.328683 
L 1040.996455 76.34385 
L 1042.413719 113.953914 
L 1043.830983 77.881461 
L 1045.248246 71.517441 
L 1046.66551 72.679752 
L 1048.082773 81.527224 
L 1049.500037 72.490042 
L 1050.9173 81.536195 
L 1052.334564 70.611335 
L 1053.751827 73.813057 
L 1055.169091 83.763377 
L 1055.169091 83.763377 
" clip-path="url(#p9f193bef57)" style="fill: none; stroke: #ff7f0e; stroke-width: 1.5; stroke-linecap: square"/>
   </g>
   <g id="patch_15">
    <path d="M 760.52 318.04 
L 760.52 26.88 
" style="fill: none; stroke: #000000; stroke-width: 0.8; stroke-linejoin: miter; stroke-linecap: square"/>
   </g>
   <g id="patch_16">
    <path d="M 1069.2 318.04 
L 1069.2 26.88 
" style="fill: none; stroke: #000000; stroke-width: 0.8; stroke-linejoin: miter; stroke-linecap: square"/>
   </g>
   <g id="patch_17">
    <path d="M 760.52 318.04 
L 1069.2 318.04 
" style="fill: none; stroke: #000000; stroke-width: 0.8; stroke-linejoin: miter; stroke-linecap: square"/>
   </g>
   <g id="patch_18">
    <path d="M 760.52 26.88 
L 1069.2 26.88 
" style="fill: none; stroke: #000000; stroke-width: 0.8; stroke-linejoin: miter; stroke-linecap: square"/>
   </g>
   <g id="text_60">
    <!-- F1 Score -->
    <g transform="translate(888.881875 20.88) scale(0.12 -0.12)">
     <use xlink:href="#DejaVuSans-46"/>
     <use xlink:href="#DejaVuSans-31" x="57.519531"/>
     <use xlink:href="#DejaVuSans-20" x="121.142578"/>
     <use xlink:href="#DejaVuSans-53" x="152.929688"/>
     <use xlink:href="#DejaVuSans-63" x="216.40625"/>
     <use xlink:href="#DejaVuSans-6f" x="271.386719"/>
     <use xlink:href="#DejaVuSans-72" x="332.568359"/>
     <use xlink:href="#DejaVuSans-65" x="371.431641"/>
    </g>
   </g>
   <g id="legend_3">
    <g id="patch_19">
     <path d="M 990.920313 313.04 
L 1062.2 313.04 
Q 1064.2 313.04 1064.2 311.04 
L 1064.2 282.68375 
Q 1064.2 280.68375 1062.2 280.68375 
L 990.920313 280.68375 
Q 988.920313 280.68375 988.920313 282.68375 
L 988.920313 311.04 
Q 988.920313 313.04 990.920313 313.04 
z
" style="fill: #ffffff; opacity: 0.8; stroke: #cccccc; stroke-linejoin: miter"/>
    </g>
    <g id="line2d_58">
     <path d="M 992.920313 288.782188 
L 1002.920313 288.782188 
L 1012.920313 288.782188 
" style="fill: none; stroke: #1f77b4; stroke-width: 1.5; stroke-linecap: square"/>
    </g>
    <g id="text_61">
     <!-- Train F1 -->
     <g transform="translate(1020.920313 292.282188) scale(0.1 -0.1)">
      <use xlink:href="#DejaVuSans-54"/>
      <use xlink:href="#DejaVuSans-72" x="46.333984"/>
      <use xlink:href="#DejaVuSans-61" x="87.447266"/>
      <use xlink:href="#DejaVuSans-69" x="148.726562"/>
      <use xlink:href="#DejaVuSans-6e" x="176.509766"/>
      <use xlink:href="#DejaVuSans-20" x="239.888672"/>
      <use xlink:href="#DejaVuSans-46" x="271.675781"/>
      <use xlink:href="#DejaVuSans-31" x="329.195312"/>
     </g>
    </g>
    <g id="line2d_59">
     <path d="M 992.920313 303.460313 
L 1002.920313 303.460313 
L 1012.920313 303.460313 
" style="fill: none; stroke: #ff7f0e; stroke-width: 1.5; stroke-linecap: square"/>
    </g>
    <g id="text_62">
     <!-- Val F1 -->
     <g transform="translate(1020.920313 306.960313) scale(0.1 -0.1)">
      <use xlink:href="#DejaVuSans-56"/>
      <use xlink:href="#DejaVuSans-61" x="60.658203"/>
      <use xlink:href="#DejaVuSans-6c" x="121.9375"/>
      <use xlink:href="#DejaVuSans-20" x="149.720703"/>
      <use xlink:href="#DejaVuSans-46" x="181.507812"/>
      <use xlink:href="#DejaVuSans-31" x="239.027344"/>
     </g>
    </g>
   </g>
  </g>
 </g>
 <defs>
  <clipPath id="p0d8695e610">
   <rect x="47.72" y="26.88" width="308.68" height="291.16"/>
  </clipPath>
  <clipPath id="pe40c5c9f81">
   <rect x="404.12" y="26.88" width="308.68" height="291.16"/>
  </clipPath>
  <clipPath id="p9f193bef57">
   <rect x="760.52" y="26.88" width="308.68" height="291.16"/>
  </clipPath>
 </defs>
</svg>
