<?xml version="1.0" encoding="utf-8" standalone="no"?>
<!DOCTYPE svg PUBLIC "-//W3C//DTD SVG 1.1//EN"
  "http://www.w3.org/Graphics/SVG/1.1/DTD/svg11.dtd">
<svg xmlns:xlink="http://www.w3.org/1999/xlink" width="1080pt" height="360pt" viewBox="0 0 1080 360" xmlns="http://www.w3.org/2000/svg" version="1.1">
 <metadata>
  <rdf:RDF xmlns:dc="http://purl.org/dc/elements/1.1/" xmlns:cc="http://creativecommons.org/ns#" xmlns:rdf="http://www.w3.org/1999/02/22-rdf-syntax-ns#">
   <cc:Work>
    <dc:type rdf:resource="http://purl.org/dc/dcmitype/StillImage"/>
    <dc:date>2024-10-23T17:14:41.457067</dc:date>
    <dc:format>image/svg+xml</dc:format>
    <dc:creator>
     <cc:Agent>
      <dc:title>Matplotlib v3.8.2, https://matplotlib.org/</dc:title>
     </cc:Agent>
    </dc:creator>
   </cc:Work>
  </rdf:RDF>
 </metadata>
 <defs>
  <style type="text/css">*{stroke-linejoin: round; stroke-linecap: butt}</style>
 </defs>
 <g id="figure_1">
  <g id="patch_1">
   <path d="M 0 360 
L 1080 360 
L 1080 0 
L 0 0 
z
" style="fill: #ffffff"/>
  </g>
  <g id="axes_1">
   <g id="patch_2">
    <path d="M 47.72 318.04 
L 352.14 318.04 
L 352.14 26.88 
L 47.72 26.88 
z
" style="fill: #ffffff"/>
   </g>
   <g id="matplotlib.axis_1">
    <g id="xtick_1">
     <g id="line2d_1">
      <defs>
       <path id="m57d746db5f" d="M 0 0 
L 0 3.5 
" style="stroke: #000000; stroke-width: 0.8"/>
      </defs>
      <g>
       <use xlink:href="#m57d746db5f" x="61.557273" y="318.04" style="stroke: #000000; stroke-width: 0.8"/>
      </g>
     </g>
     <g id="text_1">
      <!-- 0 -->
      <g transform="translate(58.376023 332.638438) scale(0.1 -0.1)">
       <defs>
        <path id="DejaVuSans-30" d="M 2034 4250 
Q 1547 4250 1301 3770 
Q 1056 3291 1056 2328 
Q 1056 1369 1301 889 
Q 1547 409 2034 409 
Q 2525 409 2770 889 
Q 3016 1369 3016 2328 
Q 3016 3291 2770 3770 
Q 2525 4250 2034 4250 
z
M 2034 4750 
Q 2819 4750 3233 4129 
Q 3647 3509 3647 2328 
Q 3647 1150 3233 529 
Q 2819 -91 2034 -91 
Q 1250 -91 836 529 
Q 422 1150 422 2328 
Q 422 3509 836 4129 
Q 1250 4750 2034 4750 
z
" transform="scale(0.015625)"/>
       </defs>
       <use xlink:href="#DejaVuSans-30"/>
      </g>
     </g>
    </g>
    <g id="xtick_2">
     <g id="line2d_2">
      <g>
       <use xlink:href="#m57d746db5f" x="104.463545" y="318.04" style="stroke: #000000; stroke-width: 0.8"/>
      </g>
     </g>
     <g id="text_2">
      <!-- 20 -->
      <g transform="translate(98.101045 332.638438) scale(0.1 -0.1)">
       <defs>
        <path id="DejaVuSans-32" d="M 1228 531 
L 3431 531 
L 3431 0 
L 469 0 
L 469 531 
Q 828 903 1448 1529 
Q 2069 2156 2228 2338 
Q 2531 2678 2651 2914 
Q 2772 3150 2772 3378 
Q 2772 3750 2511 3984 
Q 2250 4219 1831 4219 
Q 1534 4219 1204 4116 
Q 875 4013 500 3803 
L 500 4441 
Q 881 4594 1212 4672 
Q 1544 4750 1819 4750 
Q 2544 4750 2975 4387 
Q 3406 4025 3406 3419 
Q 3406 3131 3298 2873 
Q 3191 2616 2906 2266 
Q 2828 2175 2409 1742 
Q 1991 1309 1228 531 
z
" transform="scale(0.015625)"/>
       </defs>
       <use xlink:href="#DejaVuSans-32"/>
       <use xlink:href="#DejaVuSans-30" x="63.623047"/>
      </g>
     </g>
    </g>
    <g id="xtick_3">
     <g id="line2d_3">
      <g>
       <use xlink:href="#m57d746db5f" x="147.369817" y="318.04" style="stroke: #000000; stroke-width: 0.8"/>
      </g>
     </g>
     <g id="text_3">
      <!-- 40 -->
      <g transform="translate(141.007317 332.638438) scale(0.1 -0.1)">
       <defs>
        <path id="DejaVuSans-34" d="M 2419 4116 
L 825 1625 
L 2419 1625 
L 2419 4116 
z
M 2253 4666 
L 3047 4666 
L 3047 1625 
L 3713 1625 
L 3713 1100 
L 3047 1100 
L 3047 0 
L 2419 0 
L 2419 1100 
L 313 1100 
L 313 1709 
L 2253 4666 
z
" transform="scale(0.015625)"/>
       </defs>
       <use xlink:href="#DejaVuSans-34"/>
       <use xlink:href="#DejaVuSans-30" x="63.623047"/>
      </g>
     </g>
    </g>
    <g id="xtick_4">
     <g id="line2d_4">
      <g>
       <use xlink:href="#m57d746db5f" x="190.276089" y="318.04" style="stroke: #000000; stroke-width: 0.8"/>
      </g>
     </g>
     <g id="text_4">
      <!-- 60 -->
      <g transform="translate(183.913589 332.638438) scale(0.1 -0.1)">
       <defs>
        <path id="DejaVuSans-36" d="M 2113 2584 
Q 1688 2584 1439 2293 
Q 1191 2003 1191 1497 
Q 1191 994 1439 701 
Q 1688 409 2113 409 
Q 2538 409 2786 701 
Q 3034 994 3034 1497 
Q 3034 2003 2786 2293 
Q 2538 2584 2113 2584 
z
M 3366 4563 
L 3366 3988 
Q 3128 4100 2886 4159 
Q 2644 4219 2406 4219 
Q 1781 4219 1451 3797 
Q 1122 3375 1075 2522 
Q 1259 2794 1537 2939 
Q 1816 3084 2150 3084 
Q 2853 3084 3261 2657 
Q 3669 2231 3669 1497 
Q 3669 778 3244 343 
Q 2819 -91 2113 -91 
Q 1303 -91 875 529 
Q 447 1150 447 2328 
Q 447 3434 972 4092 
Q 1497 4750 2381 4750 
Q 2619 4750 2861 4703 
Q 3103 4656 3366 4563 
z
" transform="scale(0.015625)"/>
       </defs>
       <use xlink:href="#DejaVuSans-36"/>
       <use xlink:href="#DejaVuSans-30" x="63.623047"/>
      </g>
     </g>
    </g>
    <g id="xtick_5">
     <g id="line2d_5">
      <g>
       <use xlink:href="#m57d746db5f" x="233.182361" y="318.04" style="stroke: #000000; stroke-width: 0.8"/>
      </g>
     </g>
     <g id="text_5">
      <!-- 80 -->
      <g transform="translate(226.819861 332.638438) scale(0.1 -0.1)">
       <defs>
        <path id="DejaVuSans-38" d="M 2034 2216 
Q 1584 2216 1326 1975 
Q 1069 1734 1069 1313 
Q 1069 891 1326 650 
Q 1584 409 2034 409 
Q 2484 409 2743 651 
Q 3003 894 3003 1313 
Q 3003 1734 2745 1975 
Q 2488 2216 2034 2216 
z
M 1403 2484 
Q 997 2584 770 2862 
Q 544 3141 544 3541 
Q 544 4100 942 4425 
Q 1341 4750 2034 4750 
Q 2731 4750 3128 4425 
Q 3525 4100 3525 3541 
Q 3525 3141 3298 2862 
Q 3072 2584 2669 2484 
Q 3125 2378 3379 2068 
Q 3634 1759 3634 1313 
Q 3634 634 3220 271 
Q 2806 -91 2034 -91 
Q 1263 -91 848 271 
Q 434 634 434 1313 
Q 434 1759 690 2068 
Q 947 2378 1403 2484 
z
M 1172 3481 
Q 1172 3119 1398 2916 
Q 1625 2713 2034 2713 
Q 2441 2713 2670 2916 
Q 2900 3119 2900 3481 
Q 2900 3844 2670 4047 
Q 2441 4250 2034 4250 
Q 1625 4250 1398 4047 
Q 1172 3844 1172 3481 
z
" transform="scale(0.015625)"/>
       </defs>
       <use xlink:href="#DejaVuSans-38"/>
       <use xlink:href="#DejaVuSans-30" x="63.623047"/>
      </g>
     </g>
    </g>
    <g id="xtick_6">
     <g id="line2d_6">
      <g>
       <use xlink:href="#m57d746db5f" x="276.088633" y="318.04" style="stroke: #000000; stroke-width: 0.8"/>
      </g>
     </g>
     <g id="text_6">
      <!-- 100 -->
      <g transform="translate(266.544883 332.638438) scale(0.1 -0.1)">
       <defs>
        <path id="DejaVuSans-31" d="M 794 531 
L 1825 531 
L 1825 4091 
L 703 3866 
L 703 4441 
L 1819 4666 
L 2450 4666 
L 2450 531 
L 3481 531 
L 3481 0 
L 794 0 
L 794 531 
z
" transform="scale(0.015625)"/>
       </defs>
       <use xlink:href="#DejaVuSans-31"/>
       <use xlink:href="#DejaVuSans-30" x="63.623047"/>
       <use xlink:href="#DejaVuSans-30" x="127.246094"/>
      </g>
     </g>
    </g>
    <g id="xtick_7">
     <g id="line2d_7">
      <g>
       <use xlink:href="#m57d746db5f" x="318.994905" y="318.04" style="stroke: #000000; stroke-width: 0.8"/>
      </g>
     </g>
     <g id="text_7">
      <!-- 120 -->
      <g transform="translate(309.451155 332.638438) scale(0.1 -0.1)">
       <use xlink:href="#DejaVuSans-31"/>
       <use xlink:href="#DejaVuSans-32" x="63.623047"/>
       <use xlink:href="#DejaVuSans-30" x="127.246094"/>
      </g>
     </g>
    </g>
    <g id="text_8">
     <!-- Epoch -->
     <g transform="translate(184.619062 346.316563) scale(0.1 -0.1)">
      <defs>
       <path id="DejaVuSans-45" d="M 628 4666 
L 3578 4666 
L 3578 4134 
L 1259 4134 
L 1259 2753 
L 3481 2753 
L 3481 2222 
L 1259 2222 
L 1259 531 
L 3634 531 
L 3634 0 
L 628 0 
L 628 4666 
z
" transform="scale(0.015625)"/>
       <path id="DejaVuSans-70" d="M 1159 525 
L 1159 -1331 
L 581 -1331 
L 581 3500 
L 1159 3500 
L 1159 2969 
Q 1341 3281 1617 3432 
Q 1894 3584 2278 3584 
Q 2916 3584 3314 3078 
Q 3713 2572 3713 1747 
Q 3713 922 3314 415 
Q 2916 -91 2278 -91 
Q 1894 -91 1617 61 
Q 1341 213 1159 525 
z
M 3116 1747 
Q 3116 2381 2855 2742 
Q 2594 3103 2138 3103 
Q 1681 3103 1420 2742 
Q 1159 2381 1159 1747 
Q 1159 1113 1420 752 
Q 1681 391 2138 391 
Q 2594 391 2855 752 
Q 3116 1113 3116 1747 
z
" transform="scale(0.015625)"/>
       <path id="DejaVuSans-6f" d="M 1959 3097 
Q 1497 3097 1228 2736 
Q 959 2375 959 1747 
Q 959 1119 1226 758 
Q 1494 397 1959 397 
Q 2419 397 2687 759 
Q 2956 1122 2956 1747 
Q 2956 2369 2687 2733 
Q 2419 3097 1959 3097 
z
M 1959 3584 
Q 2709 3584 3137 3096 
Q 3566 2609 3566 1747 
Q 3566 888 3137 398 
Q 2709 -91 1959 -91 
Q 1206 -91 779 398 
Q 353 888 353 1747 
Q 353 2609 779 3096 
Q 1206 3584 1959 3584 
z
" transform="scale(0.015625)"/>
       <path id="DejaVuSans-63" d="M 3122 3366 
L 3122 2828 
Q 2878 2963 2633 3030 
Q 2388 3097 2138 3097 
Q 1578 3097 1268 2742 
Q 959 2388 959 1747 
Q 959 1106 1268 751 
Q 1578 397 2138 397 
Q 2388 397 2633 464 
Q 2878 531 3122 666 
L 3122 134 
Q 2881 22 2623 -34 
Q 2366 -91 2075 -91 
Q 1284 -91 818 406 
Q 353 903 353 1747 
Q 353 2603 823 3093 
Q 1294 3584 2113 3584 
Q 2378 3584 2631 3529 
Q 2884 3475 3122 3366 
z
" transform="scale(0.015625)"/>
       <path id="DejaVuSans-68" d="M 3513 2113 
L 3513 0 
L 2938 0 
L 2938 2094 
Q 2938 2591 2744 2837 
Q 2550 3084 2163 3084 
Q 1697 3084 1428 2787 
Q 1159 2491 1159 1978 
L 1159 0 
L 581 0 
L 581 4863 
L 1159 4863 
L 1159 2956 
Q 1366 3272 1645 3428 
Q 1925 3584 2291 3584 
Q 2894 3584 3203 3211 
Q 3513 2838 3513 2113 
z
" transform="scale(0.015625)"/>
      </defs>
      <use xlink:href="#DejaVuSans-45"/>
      <use xlink:href="#DejaVuSans-70" x="63.183594"/>
      <use xlink:href="#DejaVuSans-6f" x="126.660156"/>
      <use xlink:href="#DejaVuSans-63" x="187.841797"/>
      <use xlink:href="#DejaVuSans-68" x="242.822266"/>
     </g>
    </g>
   </g>
   <g id="matplotlib.axis_2">
    <g id="ytick_1">
     <g id="line2d_8">
      <defs>
       <path id="m844998b135" d="M 0 0 
L -3.5 0 
" style="stroke: #000000; stroke-width: 0.8"/>
      </defs>
      <g>
       <use xlink:href="#m844998b135" x="47.72" y="314.547076" style="stroke: #000000; stroke-width: 0.8"/>
      </g>
     </g>
     <g id="text_9">
      <!-- 0.2 -->
      <g transform="translate(24.816875 318.346295) scale(0.1 -0.1)">
       <defs>
        <path id="DejaVuSans-2e" d="M 684 794 
L 1344 794 
L 1344 0 
L 684 0 
L 684 794 
z
" transform="scale(0.015625)"/>
       </defs>
       <use xlink:href="#DejaVuSans-30"/>
       <use xlink:href="#DejaVuSans-2e" x="63.623047"/>
       <use xlink:href="#DejaVuSans-32" x="95.410156"/>
      </g>
     </g>
    </g>
    <g id="ytick_2">
     <g id="line2d_9">
      <g>
       <use xlink:href="#m844998b135" x="47.72" y="269.483867" style="stroke: #000000; stroke-width: 0.8"/>
      </g>
     </g>
     <g id="text_10">
      <!-- 0.4 -->
      <g transform="translate(24.816875 273.283086) scale(0.1 -0.1)">
       <use xlink:href="#DejaVuSans-30"/>
       <use xlink:href="#DejaVuSans-2e" x="63.623047"/>
       <use xlink:href="#DejaVuSans-34" x="95.410156"/>
      </g>
     </g>
    </g>
    <g id="ytick_3">
     <g id="line2d_10">
      <g>
       <use xlink:href="#m844998b135" x="47.72" y="224.420658" style="stroke: #000000; stroke-width: 0.8"/>
      </g>
     </g>
     <g id="text_11">
      <!-- 0.6 -->
      <g transform="translate(24.816875 228.219877) scale(0.1 -0.1)">
       <use xlink:href="#DejaVuSans-30"/>
       <use xlink:href="#DejaVuSans-2e" x="63.623047"/>
       <use xlink:href="#DejaVuSans-36" x="95.410156"/>
      </g>
     </g>
    </g>
    <g id="ytick_4">
     <g id="line2d_11">
      <g>
       <use xlink:href="#m844998b135" x="47.72" y="179.357449" style="stroke: #000000; stroke-width: 0.8"/>
      </g>
     </g>
     <g id="text_12">
      <!-- 0.8 -->
      <g transform="translate(24.816875 183.156668) scale(0.1 -0.1)">
       <use xlink:href="#DejaVuSans-30"/>
       <use xlink:href="#DejaVuSans-2e" x="63.623047"/>
       <use xlink:href="#DejaVuSans-38" x="95.410156"/>
      </g>
     </g>
    </g>
    <g id="ytick_5">
     <g id="line2d_12">
      <g>
       <use xlink:href="#m844998b135" x="47.72" y="134.29424" style="stroke: #000000; stroke-width: 0.8"/>
      </g>
     </g>
     <g id="text_13">
      <!-- 1.0 -->
      <g transform="translate(24.816875 138.093458) scale(0.1 -0.1)">
       <use xlink:href="#DejaVuSans-31"/>
       <use xlink:href="#DejaVuSans-2e" x="63.623047"/>
       <use xlink:href="#DejaVuSans-30" x="95.410156"/>
      </g>
     </g>
    </g>
    <g id="ytick_6">
     <g id="line2d_13">
      <g>
       <use xlink:href="#m844998b135" x="47.72" y="89.23103" style="stroke: #000000; stroke-width: 0.8"/>
      </g>
     </g>
     <g id="text_14">
      <!-- 1.2 -->
      <g transform="translate(24.816875 93.030249) scale(0.1 -0.1)">
       <use xlink:href="#DejaVuSans-31"/>
       <use xlink:href="#DejaVuSans-2e" x="63.623047"/>
       <use xlink:href="#DejaVuSans-32" x="95.410156"/>
      </g>
     </g>
    </g>
    <g id="ytick_7">
     <g id="line2d_14">
      <g>
       <use xlink:href="#m844998b135" x="47.72" y="44.167821" style="stroke: #000000; stroke-width: 0.8"/>
      </g>
     </g>
     <g id="text_15">
      <!-- 1.4 -->
      <g transform="translate(24.816875 47.96704) scale(0.1 -0.1)">
       <use xlink:href="#DejaVuSans-31"/>
       <use xlink:href="#DejaVuSans-2e" x="63.623047"/>
       <use xlink:href="#DejaVuSans-34" x="95.410156"/>
      </g>
     </g>
    </g>
    <g id="text_16">
     <!-- Loss -->
     <g transform="translate(18.737187 183.427188) rotate(-90) scale(0.1 -0.1)">
      <defs>
       <path id="DejaVuSans-4c" d="M 628 4666 
L 1259 4666 
L 1259 531 
L 3531 531 
L 3531 0 
L 628 0 
L 628 4666 
z
" transform="scale(0.015625)"/>
       <path id="DejaVuSans-73" d="M 2834 3397 
L 2834 2853 
Q 2591 2978 2328 3040 
Q 2066 3103 1784 3103 
Q 1356 3103 1142 2972 
Q 928 2841 928 2578 
Q 928 2378 1081 2264 
Q 1234 2150 1697 2047 
L 1894 2003 
Q 2506 1872 2764 1633 
Q 3022 1394 3022 966 
Q 3022 478 2636 193 
Q 2250 -91 1575 -91 
Q 1294 -91 989 -36 
Q 684 19 347 128 
L 347 722 
Q 666 556 975 473 
Q 1284 391 1588 391 
Q 1994 391 2212 530 
Q 2431 669 2431 922 
Q 2431 1156 2273 1281 
Q 2116 1406 1581 1522 
L 1381 1569 
Q 847 1681 609 1914 
Q 372 2147 372 2553 
Q 372 3047 722 3315 
Q 1072 3584 1716 3584 
Q 2034 3584 2315 3537 
Q 2597 3491 2834 3397 
z
" transform="scale(0.015625)"/>
      </defs>
      <use xlink:href="#DejaVuSans-4c"/>
      <use xlink:href="#DejaVuSans-6f" x="53.962891"/>
      <use xlink:href="#DejaVuSans-73" x="115.144531"/>
      <use xlink:href="#DejaVuSans-73" x="167.244141"/>
     </g>
    </g>
   </g>
   <g id="line2d_15">
    <path d="M 61.557273 228.093932 
L 63.702586 245.672555 
L 65.8479 259.09216 
L 67.993214 264.364309 
L 70.138527 269.133742 
L 72.283841 269.081991 
L 74.429154 270.518255 
L 78.719782 275.643413 
L 80.865095 277.287202 
L 85.155722 278.915145 
L 87.301036 278.107653 
L 89.44635 278.566171 
L 91.591663 280.689206 
L 93.736977 281.650228 
L 95.88229 279.848052 
L 98.027604 281.393841 
L 100.172918 282.008631 
L 102.318231 282.37143 
L 104.463545 281.094259 
L 106.608858 280.69079 
L 108.754172 281.54052 
L 110.899486 281.252712 
L 113.044799 283.484839 
L 115.190113 283.391962 
L 117.335426 285.130702 
L 119.48074 286.087639 
L 121.626054 284.943997 
L 123.771367 285.973186 
L 125.916681 285.287822 
L 128.061994 286.308138 
L 130.207308 286.69823 
L 132.352622 285.942112 
L 134.497935 287.691211 
L 136.643249 287.748577 
L 138.788562 287.365546 
L 140.933876 288.001227 
L 143.07919 287.138359 
L 145.224503 288.98848 
L 147.369817 286.468383 
L 149.51513 288.767856 
L 151.660444 288.964344 
L 153.805758 288.521607 
L 155.951071 288.744311 
L 158.096385 291.317746 
L 160.241698 289.145546 
L 162.387012 290.432646 
L 164.532326 289.963117 
L 166.677639 290.486247 
L 168.822953 291.292778 
L 170.968266 290.928536 
L 173.11358 292.586881 
L 175.258894 293.290428 
L 177.404207 292.514628 
L 179.549521 293.862904 
L 181.694834 293.840521 
L 183.840148 294.424713 
L 185.985462 294.287636 
L 188.130775 293.904031 
L 190.276089 294.057017 
L 192.421402 293.826051 
L 194.566716 294.396414 
L 196.71203 294.039961 
L 198.857343 295.05754 
L 201.002657 294.941127 
L 203.14797 295.856799 
L 207.438598 295.428315 
L 209.583911 295.053953 
L 211.729225 292.861777 
L 213.874538 294.911835 
L 216.019852 296.209475 
L 218.165166 296.812987 
L 220.310479 297.770843 
L 222.455793 298.176177 
L 224.601106 297.448714 
L 226.74642 298.384969 
L 228.891734 298.576258 
L 231.037047 299.276095 
L 233.182361 298.068248 
L 235.327674 298.439922 
L 237.472988 298.566756 
L 239.618302 298.965626 
L 241.763615 299.021273 
L 243.908929 298.639885 
L 246.054242 299.065407 
L 248.199556 298.777105 
L 250.34487 300.321817 
L 252.490183 299.87796 
L 254.635497 299.004348 
L 256.78081 299.950641 
L 258.926124 300.25441 
L 267.507378 300.668757 
L 269.652692 299.466495 
L 271.798006 300.059918 
L 273.943319 300.342394 
L 276.088633 301.794002 
L 278.233946 301.913545 
L 280.37926 301.54358 
L 282.524574 301.851897 
L 284.669887 301.415139 
L 286.815201 302.199163 
L 288.960514 301.984378 
L 291.105828 302.374602 
L 293.251142 302.196027 
L 295.396455 302.790068 
L 297.541769 302.669683 
L 301.832396 302.918191 
L 303.97771 302.568884 
L 306.123023 303.034742 
L 308.268337 303.689201 
L 310.41365 303.461583 
L 312.558964 302.819857 
L 316.849591 303.751925 
L 318.994905 303.880682 
L 321.140218 303.079357 
L 323.285532 304.008688 
L 325.430846 302.957871 
L 327.576159 304.166255 
L 329.721473 304.755725 
L 331.866786 304.311377 
L 334.0121 304.805455 
L 336.157414 304.776137 
L 338.302727 304.381562 
L 338.302727 304.381562 
" clip-path="url(#p3c3ff33232)" style="fill: none; stroke: #1f77b4; stroke-width: 1.5; stroke-linecap: square"/>
   </g>
   <g id="line2d_16">
    <path d="M 61.557273 40.114545 
L 63.702586 142.411744 
L 65.8479 90.518329 
L 67.993214 138.473494 
L 70.138527 107.593873 
L 72.283841 90.667633 
L 74.429154 112.097982 
L 76.574468 158.952748 
L 78.719782 167.515739 
L 80.865095 46.0516 
L 83.010409 170.684792 
L 85.155722 83.275231 
L 87.301036 135.139803 
L 89.44635 195.185618 
L 91.591663 190.424211 
L 93.736977 167.334858 
L 95.88229 141.78768 
L 98.027604 147.322 
L 100.172918 175.042275 
L 102.318231 103.406412 
L 104.463545 129.822738 
L 106.608858 120.333726 
L 108.754172 153.143018 
L 110.899486 155.671143 
L 113.044799 72.577008 
L 115.190113 130.636758 
L 117.335426 182.071437 
L 119.48074 209.31725 
L 121.626054 155.099366 
L 123.771367 120.429438 
L 125.916681 173.155916 
L 128.061994 178.363064 
L 130.207308 148.856654 
L 132.352622 166.29682 
L 134.497935 201.141443 
L 136.643249 162.203998 
L 138.788562 101.710864 
L 140.933876 118.132841 
L 143.07919 190.268563 
L 145.224503 74.518795 
L 147.369817 189.30545 
L 149.51513 164.937192 
L 151.660444 150.224663 
L 153.805758 188.350644 
L 155.951071 196.305035 
L 158.096385 136.059944 
L 160.241698 174.26882 
L 162.387012 202.142798 
L 164.532326 202.853396 
L 166.677639 120.870029 
L 168.822953 168.078939 
L 170.968266 205.728693 
L 173.11358 184.619585 
L 175.258894 182.050218 
L 177.404207 191.672868 
L 179.549521 193.824696 
L 181.694834 185.391265 
L 183.840148 174.120219 
L 185.985462 183.565076 
L 188.130775 161.697998 
L 190.276089 148.220655 
L 192.421402 204.676419 
L 194.566716 236.512797 
L 196.71203 169.027351 
L 198.857343 198.05231 
L 201.002657 186.196271 
L 203.14797 206.858444 
L 205.293284 193.978351 
L 207.438598 144.941214 
L 209.583911 147.137084 
L 211.729225 197.645091 
L 213.874538 173.704005 
L 216.019852 206.259867 
L 218.165166 209.730933 
L 220.310479 190.557865 
L 222.455793 144.271245 
L 224.601106 191.23739 
L 226.74642 212.311399 
L 228.891734 209.040003 
L 231.037047 151.228904 
L 233.182361 218.606516 
L 235.327674 200.539299 
L 237.472988 176.257783 
L 239.618302 189.318893 
L 241.763615 177.796659 
L 243.908929 200.342971 
L 246.054242 136.822181 
L 248.199556 200.785379 
L 250.34487 197.631365 
L 252.490183 189.396366 
L 254.635497 181.984973 
L 256.78081 194.858622 
L 258.926124 214.699491 
L 261.071438 202.217076 
L 263.216751 226.614285 
L 265.362065 168.02728 
L 267.507378 192.819135 
L 269.652692 187.425565 
L 271.798006 219.377167 
L 273.943319 190.944601 
L 276.088633 229.28764 
L 278.233946 238.266861 
L 280.37926 186.923801 
L 282.524574 213.540629 
L 284.669887 172.827433 
L 286.815201 220.144989 
L 288.960514 203.869633 
L 291.105828 216.363223 
L 293.251142 214.691342 
L 295.396455 253.668922 
L 297.541769 187.903033 
L 299.687082 170.115463 
L 301.832396 214.817245 
L 303.97771 224.223656 
L 306.123023 230.621675 
L 308.268337 219.912301 
L 310.41365 188.719917 
L 312.558964 193.279325 
L 314.704278 204.729477 
L 316.849591 244.851543 
L 318.994905 197.543112 
L 321.140218 222.868863 
L 323.285532 139.224901 
L 325.430846 212.44084 
L 327.576159 215.908114 
L 329.721473 215.522283 
L 331.866786 237.894779 
L 334.0121 218.132191 
L 336.157414 190.480505 
L 338.302727 181.029173 
L 338.302727 181.029173 
" clip-path="url(#p3c3ff33232)" style="fill: none; stroke: #ff7f0e; stroke-width: 1.5; stroke-linecap: square"/>
   </g>
   <g id="patch_3">
    <path d="M 47.72 318.04 
L 47.72 26.88 
" style="fill: none; stroke: #000000; stroke-width: 0.8; stroke-linejoin: miter; stroke-linecap: square"/>
   </g>
   <g id="patch_4">
    <path d="M 352.14 318.04 
L 352.14 26.88 
" style="fill: none; stroke: #000000; stroke-width: 0.8; stroke-linejoin: miter; stroke-linecap: square"/>
   </g>
   <g id="patch_5">
    <path d="M 47.72 318.04 
L 352.14 318.04 
" style="fill: none; stroke: #000000; stroke-width: 0.8; stroke-linejoin: miter; stroke-linecap: square"/>
   </g>
   <g id="patch_6">
    <path d="M 47.72 26.88 
L 352.14 26.88 
" style="fill: none; stroke: #000000; stroke-width: 0.8; stroke-linejoin: miter; stroke-linecap: square"/>
   </g>
   <g id="text_17">
    <!-- Loss vs Epoch -->
    <g transform="translate(157.905625 20.88) scale(0.12 -0.12)">
     <defs>
      <path id="DejaVuSans-20" transform="scale(0.015625)"/>
      <path id="DejaVuSans-76" d="M 191 3500 
L 800 3500 
L 1894 563 
L 2988 3500 
L 3597 3500 
L 2284 0 
L 1503 0 
L 191 3500 
z
" transform="scale(0.015625)"/>
     </defs>
     <use xlink:href="#DejaVuSans-4c"/>
     <use xlink:href="#DejaVuSans-6f" x="53.962891"/>
     <use xlink:href="#DejaVuSans-73" x="115.144531"/>
     <use xlink:href="#DejaVuSans-73" x="167.244141"/>
     <use xlink:href="#DejaVuSans-20" x="219.34375"/>
     <use xlink:href="#DejaVuSans-76" x="251.130859"/>
     <use xlink:href="#DejaVuSans-73" x="310.310547"/>
     <use xlink:href="#DejaVuSans-20" x="362.410156"/>
     <use xlink:href="#DejaVuSans-45" x="394.197266"/>
     <use xlink:href="#DejaVuSans-70" x="457.380859"/>
     <use xlink:href="#DejaVuSans-6f" x="520.857422"/>
     <use xlink:href="#DejaVuSans-63" x="582.039062"/>
     <use xlink:href="#DejaVuSans-68" x="637.019531"/>
    </g>
   </g>
   <g id="legend_1">
    <g id="patch_7">
     <path d="M 238.64625 64.23625 
L 345.14 64.23625 
Q 347.14 64.23625 347.14 62.23625 
L 347.14 33.88 
Q 347.14 31.88 345.14 31.88 
L 238.64625 31.88 
Q 236.64625 31.88 236.64625 33.88 
L 236.64625 62.23625 
Q 236.64625 64.23625 238.64625 64.23625 
z
" style="fill: #ffffff; opacity: 0.8; stroke: #cccccc; stroke-linejoin: miter"/>
    </g>
    <g id="line2d_17">
     <path d="M 240.64625 39.978437 
L 250.64625 39.978437 
L 260.64625 39.978437 
" style="fill: none; stroke: #1f77b4; stroke-width: 1.5; stroke-linecap: square"/>
    </g>
    <g id="text_18">
     <!-- Train Loss -->
     <g transform="translate(268.64625 43.478437) scale(0.1 -0.1)">
      <defs>
       <path id="DejaVuSans-54" d="M -19 4666 
L 3928 4666 
L 3928 4134 
L 2272 4134 
L 2272 0 
L 1638 0 
L 1638 4134 
L -19 4134 
L -19 4666 
z
" transform="scale(0.015625)"/>
       <path id="DejaVuSans-72" d="M 2631 2963 
Q 2534 3019 2420 3045 
Q 2306 3072 2169 3072 
Q 1681 3072 1420 2755 
Q 1159 2438 1159 1844 
L 1159 0 
L 581 0 
L 581 3500 
L 1159 3500 
L 1159 2956 
Q 1341 3275 1631 3429 
Q 1922 3584 2338 3584 
Q 2397 3584 2469 3576 
Q 2541 3569 2628 3553 
L 2631 2963 
z
" transform="scale(0.015625)"/>
       <path id="DejaVuSans-61" d="M 2194 1759 
Q 1497 1759 1228 1600 
Q 959 1441 959 1056 
Q 959 750 1161 570 
Q 1363 391 1709 391 
Q 2188 391 2477 730 
Q 2766 1069 2766 1631 
L 2766 1759 
L 2194 1759 
z
M 3341 1997 
L 3341 0 
L 2766 0 
L 2766 531 
Q 2569 213 2275 61 
Q 1981 -91 1556 -91 
Q 1019 -91 701 211 
Q 384 513 384 1019 
Q 384 1609 779 1909 
Q 1175 2209 1959 2209 
L 2766 2209 
L 2766 2266 
Q 2766 2663 2505 2880 
Q 2244 3097 1772 3097 
Q 1472 3097 1187 3025 
Q 903 2953 641 2809 
L 641 3341 
Q 956 3463 1253 3523 
Q 1550 3584 1831 3584 
Q 2591 3584 2966 3190 
Q 3341 2797 3341 1997 
z
" transform="scale(0.015625)"/>
       <path id="DejaVuSans-69" d="M 603 3500 
L 1178 3500 
L 1178 0 
L 603 0 
L 603 3500 
z
M 603 4863 
L 1178 4863 
L 1178 4134 
L 603 4134 
L 603 4863 
z
" transform="scale(0.015625)"/>
       <path id="DejaVuSans-6e" d="M 3513 2113 
L 3513 0 
L 2938 0 
L 2938 2094 
Q 2938 2591 2744 2837 
Q 2550 3084 2163 3084 
Q 1697 3084 1428 2787 
Q 1159 2491 1159 1978 
L 1159 0 
L 581 0 
L 581 3500 
L 1159 3500 
L 1159 2956 
Q 1366 3272 1645 3428 
Q 1925 3584 2291 3584 
Q 2894 3584 3203 3211 
Q 3513 2838 3513 2113 
z
" transform="scale(0.015625)"/>
      </defs>
      <use xlink:href="#DejaVuSans-54"/>
      <use xlink:href="#DejaVuSans-72" x="46.333984"/>
      <use xlink:href="#DejaVuSans-61" x="87.447266"/>
      <use xlink:href="#DejaVuSans-69" x="148.726562"/>
      <use xlink:href="#DejaVuSans-6e" x="176.509766"/>
      <use xlink:href="#DejaVuSans-20" x="239.888672"/>
      <use xlink:href="#DejaVuSans-4c" x="271.675781"/>
      <use xlink:href="#DejaVuSans-6f" x="325.638672"/>
      <use xlink:href="#DejaVuSans-73" x="386.820312"/>
      <use xlink:href="#DejaVuSans-73" x="438.919922"/>
     </g>
    </g>
    <g id="line2d_18">
     <path d="M 240.64625 54.656563 
L 250.64625 54.656563 
L 260.64625 54.656563 
" style="fill: none; stroke: #ff7f0e; stroke-width: 1.5; stroke-linecap: square"/>
    </g>
    <g id="text_19">
     <!-- Validation Loss -->
     <g transform="translate(268.64625 58.156563) scale(0.1 -0.1)">
      <defs>
       <path id="DejaVuSans-56" d="M 1831 0 
L 50 4666 
L 709 4666 
L 2188 738 
L 3669 4666 
L 4325 4666 
L 2547 0 
L 1831 0 
z
" transform="scale(0.015625)"/>
       <path id="DejaVuSans-6c" d="M 603 4863 
L 1178 4863 
L 1178 0 
L 603 0 
L 603 4863 
z
" transform="scale(0.015625)"/>
       <path id="DejaVuSans-64" d="M 2906 2969 
L 2906 4863 
L 3481 4863 
L 3481 0 
L 2906 0 
L 2906 525 
Q 2725 213 2448 61 
Q 2172 -91 1784 -91 
Q 1150 -91 751 415 
Q 353 922 353 1747 
Q 353 2572 751 3078 
Q 1150 3584 1784 3584 
Q 2172 3584 2448 3432 
Q 2725 3281 2906 2969 
z
M 947 1747 
Q 947 1113 1208 752 
Q 1469 391 1925 391 
Q 2381 391 2643 752 
Q 2906 1113 2906 1747 
Q 2906 2381 2643 2742 
Q 2381 3103 1925 3103 
Q 1469 3103 1208 2742 
Q 947 2381 947 1747 
z
" transform="scale(0.015625)"/>
       <path id="DejaVuSans-74" d="M 1172 4494 
L 1172 3500 
L 2356 3500 
L 2356 3053 
L 1172 3053 
L 1172 1153 
Q 1172 725 1289 603 
Q 1406 481 1766 481 
L 2356 481 
L 2356 0 
L 1766 0 
Q 1100 0 847 248 
Q 594 497 594 1153 
L 594 3053 
L 172 3053 
L 172 3500 
L 594 3500 
L 594 4494 
L 1172 4494 
z
" transform="scale(0.015625)"/>
      </defs>
      <use xlink:href="#DejaVuSans-56"/>
      <use xlink:href="#DejaVuSans-61" x="60.658203"/>
      <use xlink:href="#DejaVuSans-6c" x="121.9375"/>
      <use xlink:href="#DejaVuSans-69" x="149.720703"/>
      <use xlink:href="#DejaVuSans-64" x="177.503906"/>
      <use xlink:href="#DejaVuSans-61" x="240.980469"/>
      <use xlink:href="#DejaVuSans-74" x="302.259766"/>
      <use xlink:href="#DejaVuSans-69" x="341.46875"/>
      <use xlink:href="#DejaVuSans-6f" x="369.251953"/>
      <use xlink:href="#DejaVuSans-6e" x="430.433594"/>
      <use xlink:href="#DejaVuSans-20" x="493.8125"/>
      <use xlink:href="#DejaVuSans-4c" x="525.599609"/>
      <use xlink:href="#DejaVuSans-6f" x="579.5625"/>
      <use xlink:href="#DejaVuSans-73" x="640.744141"/>
      <use xlink:href="#DejaVuSans-73" x="692.84375"/>
     </g>
    </g>
   </g>
  </g>
  <g id="axes_2">
   <g id="patch_8">
    <path d="M 406.25 318.04 
L 710.67 318.04 
L 710.67 26.88 
L 406.25 26.88 
z
" style="fill: #ffffff"/>
   </g>
   <g id="matplotlib.axis_3">
    <g id="xtick_8">
     <g id="line2d_19">
      <g>
       <use xlink:href="#m57d746db5f" x="420.087273" y="318.04" style="stroke: #000000; stroke-width: 0.8"/>
      </g>
     </g>
     <g id="text_20">
      <!-- 0 -->
      <g transform="translate(416.906023 332.638438) scale(0.1 -0.1)">
       <use xlink:href="#DejaVuSans-30"/>
      </g>
     </g>
    </g>
    <g id="xtick_9">
     <g id="line2d_20">
      <g>
       <use xlink:href="#m57d746db5f" x="462.993545" y="318.04" style="stroke: #000000; stroke-width: 0.8"/>
      </g>
     </g>
     <g id="text_21">
      <!-- 20 -->
      <g transform="translate(456.631045 332.638438) scale(0.1 -0.1)">
       <use xlink:href="#DejaVuSans-32"/>
       <use xlink:href="#DejaVuSans-30" x="63.623047"/>
      </g>
     </g>
    </g>
    <g id="xtick_10">
     <g id="line2d_21">
      <g>
       <use xlink:href="#m57d746db5f" x="505.899817" y="318.04" style="stroke: #000000; stroke-width: 0.8"/>
      </g>
     </g>
     <g id="text_22">
      <!-- 40 -->
      <g transform="translate(499.537317 332.638438) scale(0.1 -0.1)">
       <use xlink:href="#DejaVuSans-34"/>
       <use xlink:href="#DejaVuSans-30" x="63.623047"/>
      </g>
     </g>
    </g>
    <g id="xtick_11">
     <g id="line2d_22">
      <g>
       <use xlink:href="#m57d746db5f" x="548.806089" y="318.04" style="stroke: #000000; stroke-width: 0.8"/>
      </g>
     </g>
     <g id="text_23">
      <!-- 60 -->
      <g transform="translate(542.443589 332.638438) scale(0.1 -0.1)">
       <use xlink:href="#DejaVuSans-36"/>
       <use xlink:href="#DejaVuSans-30" x="63.623047"/>
      </g>
     </g>
    </g>
    <g id="xtick_12">
     <g id="line2d_23">
      <g>
       <use xlink:href="#m57d746db5f" x="591.712361" y="318.04" style="stroke: #000000; stroke-width: 0.8"/>
      </g>
     </g>
     <g id="text_24">
      <!-- 80 -->
      <g transform="translate(585.349861 332.638438) scale(0.1 -0.1)">
       <use xlink:href="#DejaVuSans-38"/>
       <use xlink:href="#DejaVuSans-30" x="63.623047"/>
      </g>
     </g>
    </g>
    <g id="xtick_13">
     <g id="line2d_24">
      <g>
       <use xlink:href="#m57d746db5f" x="634.618633" y="318.04" style="stroke: #000000; stroke-width: 0.8"/>
      </g>
     </g>
     <g id="text_25">
      <!-- 100 -->
      <g transform="translate(625.074883 332.638438) scale(0.1 -0.1)">
       <use xlink:href="#DejaVuSans-31"/>
       <use xlink:href="#DejaVuSans-30" x="63.623047"/>
       <use xlink:href="#DejaVuSans-30" x="127.246094"/>
      </g>
     </g>
    </g>
    <g id="xtick_14">
     <g id="line2d_25">
      <g>
       <use xlink:href="#m57d746db5f" x="677.524905" y="318.04" style="stroke: #000000; stroke-width: 0.8"/>
      </g>
     </g>
     <g id="text_26">
      <!-- 120 -->
      <g transform="translate(667.981155 332.638438) scale(0.1 -0.1)">
       <use xlink:href="#DejaVuSans-31"/>
       <use xlink:href="#DejaVuSans-32" x="63.623047"/>
       <use xlink:href="#DejaVuSans-30" x="127.246094"/>
      </g>
     </g>
    </g>
    <g id="text_27">
     <!-- Epoch -->
     <g transform="translate(543.149063 346.316563) scale(0.1 -0.1)">
      <use xlink:href="#DejaVuSans-45"/>
      <use xlink:href="#DejaVuSans-70" x="63.183594"/>
      <use xlink:href="#DejaVuSans-6f" x="126.660156"/>
      <use xlink:href="#DejaVuSans-63" x="187.841797"/>
      <use xlink:href="#DejaVuSans-68" x="242.822266"/>
     </g>
    </g>
   </g>
   <g id="matplotlib.axis_4">
    <g id="ytick_8">
     <g id="line2d_26">
      <g>
       <use xlink:href="#m844998b135" x="406.25" y="315.392786" style="stroke: #000000; stroke-width: 0.8"/>
      </g>
     </g>
     <g id="text_28">
      <!-- 0.60 -->
      <g transform="translate(376.984375 319.192005) scale(0.1 -0.1)">
       <use xlink:href="#DejaVuSans-30"/>
       <use xlink:href="#DejaVuSans-2e" x="63.623047"/>
       <use xlink:href="#DejaVuSans-36" x="95.410156"/>
       <use xlink:href="#DejaVuSans-30" x="159.033203"/>
      </g>
     </g>
    </g>
    <g id="ytick_9">
     <g id="line2d_27">
      <g>
       <use xlink:href="#m844998b135" x="406.25" y="266.100432" style="stroke: #000000; stroke-width: 0.8"/>
      </g>
     </g>
     <g id="text_29">
      <!-- 0.65 -->
      <g transform="translate(376.984375 269.899651) scale(0.1 -0.1)">
       <defs>
        <path id="DejaVuSans-35" d="M 691 4666 
L 3169 4666 
L 3169 4134 
L 1269 4134 
L 1269 2991 
Q 1406 3038 1543 3061 
Q 1681 3084 1819 3084 
Q 2600 3084 3056 2656 
Q 3513 2228 3513 1497 
Q 3513 744 3044 326 
Q 2575 -91 1722 -91 
Q 1428 -91 1123 -41 
Q 819 9 494 109 
L 494 744 
Q 775 591 1075 516 
Q 1375 441 1709 441 
Q 2250 441 2565 725 
Q 2881 1009 2881 1497 
Q 2881 1984 2565 2268 
Q 2250 2553 1709 2553 
Q 1456 2553 1204 2497 
Q 953 2441 691 2322 
L 691 4666 
z
" transform="scale(0.015625)"/>
       </defs>
       <use xlink:href="#DejaVuSans-30"/>
       <use xlink:href="#DejaVuSans-2e" x="63.623047"/>
       <use xlink:href="#DejaVuSans-36" x="95.410156"/>
       <use xlink:href="#DejaVuSans-35" x="159.033203"/>
      </g>
     </g>
    </g>
    <g id="ytick_10">
     <g id="line2d_28">
      <g>
       <use xlink:href="#m844998b135" x="406.25" y="216.808078" style="stroke: #000000; stroke-width: 0.8"/>
      </g>
     </g>
     <g id="text_30">
      <!-- 0.70 -->
      <g transform="translate(376.984375 220.607297) scale(0.1 -0.1)">
       <defs>
        <path id="DejaVuSans-37" d="M 525 4666 
L 3525 4666 
L 3525 4397 
L 1831 0 
L 1172 0 
L 2766 4134 
L 525 4134 
L 525 4666 
z
" transform="scale(0.015625)"/>
       </defs>
       <use xlink:href="#DejaVuSans-30"/>
       <use xlink:href="#DejaVuSans-2e" x="63.623047"/>
       <use xlink:href="#DejaVuSans-37" x="95.410156"/>
       <use xlink:href="#DejaVuSans-30" x="159.033203"/>
      </g>
     </g>
    </g>
    <g id="ytick_11">
     <g id="line2d_29">
      <g>
       <use xlink:href="#m844998b135" x="406.25" y="167.515725" style="stroke: #000000; stroke-width: 0.8"/>
      </g>
     </g>
     <g id="text_31">
      <!-- 0.75 -->
      <g transform="translate(376.984375 171.314943) scale(0.1 -0.1)">
       <use xlink:href="#DejaVuSans-30"/>
       <use xlink:href="#DejaVuSans-2e" x="63.623047"/>
       <use xlink:href="#DejaVuSans-37" x="95.410156"/>
       <use xlink:href="#DejaVuSans-35" x="159.033203"/>
      </g>
     </g>
    </g>
    <g id="ytick_12">
     <g id="line2d_30">
      <g>
       <use xlink:href="#m844998b135" x="406.25" y="118.223371" style="stroke: #000000; stroke-width: 0.8"/>
      </g>
     </g>
     <g id="text_32">
      <!-- 0.80 -->
      <g transform="translate(376.984375 122.02259) scale(0.1 -0.1)">
       <use xlink:href="#DejaVuSans-30"/>
       <use xlink:href="#DejaVuSans-2e" x="63.623047"/>
       <use xlink:href="#DejaVuSans-38" x="95.410156"/>
       <use xlink:href="#DejaVuSans-30" x="159.033203"/>
      </g>
     </g>
    </g>
    <g id="ytick_13">
     <g id="line2d_31">
      <g>
       <use xlink:href="#m844998b135" x="406.25" y="68.931017" style="stroke: #000000; stroke-width: 0.8"/>
      </g>
     </g>
     <g id="text_33">
      <!-- 0.85 -->
      <g transform="translate(376.984375 72.730236) scale(0.1 -0.1)">
       <use xlink:href="#DejaVuSans-30"/>
       <use xlink:href="#DejaVuSans-2e" x="63.623047"/>
       <use xlink:href="#DejaVuSans-38" x="95.410156"/>
       <use xlink:href="#DejaVuSans-35" x="159.033203"/>
      </g>
     </g>
    </g>
    <g id="text_34">
     <!-- Accuracy -->
     <g transform="translate(370.904688 195.288125) rotate(-90) scale(0.1 -0.1)">
      <defs>
       <path id="DejaVuSans-41" d="M 2188 4044 
L 1331 1722 
L 3047 1722 
L 2188 4044 
z
M 1831 4666 
L 2547 4666 
L 4325 0 
L 3669 0 
L 3244 1197 
L 1141 1197 
L 716 0 
L 50 0 
L 1831 4666 
z
" transform="scale(0.015625)"/>
       <path id="DejaVuSans-75" d="M 544 1381 
L 544 3500 
L 1119 3500 
L 1119 1403 
Q 1119 906 1312 657 
Q 1506 409 1894 409 
Q 2359 409 2629 706 
Q 2900 1003 2900 1516 
L 2900 3500 
L 3475 3500 
L 3475 0 
L 2900 0 
L 2900 538 
Q 2691 219 2414 64 
Q 2138 -91 1772 -91 
Q 1169 -91 856 284 
Q 544 659 544 1381 
z
M 1991 3584 
L 1991 3584 
z
" transform="scale(0.015625)"/>
       <path id="DejaVuSans-79" d="M 2059 -325 
Q 1816 -950 1584 -1140 
Q 1353 -1331 966 -1331 
L 506 -1331 
L 506 -850 
L 844 -850 
Q 1081 -850 1212 -737 
Q 1344 -625 1503 -206 
L 1606 56 
L 191 3500 
L 800 3500 
L 1894 763 
L 2988 3500 
L 3597 3500 
L 2059 -325 
z
" transform="scale(0.015625)"/>
      </defs>
      <use xlink:href="#DejaVuSans-41"/>
      <use xlink:href="#DejaVuSans-63" x="66.658203"/>
      <use xlink:href="#DejaVuSans-63" x="121.638672"/>
      <use xlink:href="#DejaVuSans-75" x="176.619141"/>
      <use xlink:href="#DejaVuSans-72" x="239.998047"/>
      <use xlink:href="#DejaVuSans-61" x="281.111328"/>
      <use xlink:href="#DejaVuSans-63" x="342.390625"/>
      <use xlink:href="#DejaVuSans-79" x="397.371094"/>
     </g>
    </g>
   </g>
   <g id="line2d_32">
    <path d="M 420.087273 248.787979 
L 422.232586 183.756069 
L 424.3779 142.56449 
L 428.668527 116.467086 
L 430.813841 118.336224 
L 432.959154 116.890287 
L 435.104468 107.685662 
L 437.249782 103.065716 
L 439.395095 98.12837 
L 443.685722 94.989628 
L 445.831036 97.211434 
L 447.97635 94.143225 
L 450.121663 90.404949 
L 452.266977 86.278737 
L 454.41229 93.261556 
L 456.557604 91.216084 
L 458.702918 86.560872 
L 460.848231 86.807739 
L 462.993545 90.334415 
L 465.138858 90.369682 
L 467.284172 90.228615 
L 469.429486 88.43001 
L 471.574799 85.82027 
L 475.865426 79.084318 
L 480.156054 80.283388 
L 482.301367 79.154851 
L 484.446681 80.001254 
L 486.591994 78.837451 
L 488.737308 76.756712 
L 490.882622 78.343716 
L 493.027935 76.22771 
L 495.173249 77.391513 
L 497.318562 74.675973 
L 499.463876 75.980843 
L 501.60919 76.615645 
L 503.754503 74.217505 
L 505.899817 77.250446 
L 508.04513 71.748831 
L 512.335758 73.72377 
L 514.481071 73.124235 
L 516.626385 69.809159 
L 518.771698 73.547436 
L 520.917012 70.937696 
L 523.062326 71.537231 
L 525.207639 71.149296 
L 527.352953 67.164152 
L 529.498266 69.280158 
L 531.64358 65.048146 
L 533.788894 64.166477 
L 535.934207 66.846751 
L 538.079521 62.403139 
L 540.224834 64.095944 
L 542.370148 63.249542 
L 544.515462 63.990144 
L 546.660775 63.320075 
L 548.806089 64.871813 
L 550.951402 65.506614 
L 553.096716 62.332606 
L 555.24203 63.037941 
L 557.387343 62.367873 
L 559.532657 60.816135 
L 561.67797 60.075533 
L 563.823284 60.851402 
L 565.968598 62.896874 
L 568.113911 61.733071 
L 570.259225 64.02541 
L 572.404538 61.733071 
L 574.549852 59.722865 
L 576.695166 57.430526 
L 580.985793 54.538651 
L 583.131106 54.785519 
L 585.27642 53.339581 
L 587.421734 53.974383 
L 589.567047 52.634246 
L 591.712361 54.503385 
L 596.002988 53.586449 
L 598.148302 52.70478 
L 600.293615 53.233781 
L 602.438929 53.198514 
L 604.584242 52.352112 
L 606.729556 53.374848 
L 608.87487 49.812905 
L 611.020183 49.389704 
L 613.165497 53.02218 
L 615.31081 51.258842 
L 617.456124 51.787844 
L 619.601438 49.848172 
L 621.746751 49.848172 
L 623.892065 48.261168 
L 626.037378 49.424971 
L 628.182692 51.50571 
L 630.328006 51.329376 
L 632.473319 50.377173 
L 634.618633 46.250962 
L 636.763946 45.580894 
L 638.90926 46.60363 
L 641.054574 46.70943 
L 643.199887 47.696899 
L 645.345201 44.628691 
L 647.490514 45.545627 
L 649.635828 46.215695 
L 651.781142 46.109895 
L 653.926455 45.439827 
L 656.071769 46.392029 
L 658.217082 44.805025 
L 660.362396 45.29876 
L 662.50771 44.946092 
L 664.653023 44.064423 
L 666.798337 43.993889 
L 668.94365 43.464888 
L 671.088964 45.263493 
L 673.234278 43.253287 
L 675.379591 44.170223 
L 677.524905 43.641222 
L 679.670218 44.240757 
L 681.815532 41.772083 
L 683.960846 44.487624 
L 686.106159 42.865353 
L 688.251473 40.114545 
L 690.396786 41.631016 
L 692.5421 41.207815 
L 694.687414 40.925681 
L 696.832727 41.560483 
L 696.832727 41.560483 
" clip-path="url(#pdefddd8348)" style="fill: none; stroke: #1f77b4; stroke-width: 1.5; stroke-linecap: square"/>
   </g>
   <g id="line2d_33">
    <path d="M 420.087273 304.805455 
L 422.232586 298.208008 
L 424.3779 301.977977 
L 426.523214 298.208008 
L 428.668527 287.997673 
L 430.813841 285.170196 
L 432.959154 288.468919 
L 437.249782 249.669648 
L 439.395095 294.752202 
L 441.540409 267.577004 
L 443.685722 274.959861 
L 445.831036 275.431107 
L 447.97635 221.237793 
L 450.121663 231.133963 
L 452.266977 262.70746 
L 454.41229 266.948675 
L 456.557604 277.15901 
L 458.702918 229.563143 
L 460.848231 287.055181 
L 462.993545 262.550377 
L 465.138858 263.649952 
L 467.284172 258.15208 
L 469.429486 248.570073 
L 471.574799 278.415667 
L 473.720113 263.649952 
L 475.865426 241.344298 
L 478.01074 193.120102 
L 480.156054 251.868797 
L 482.301367 265.377855 
L 484.446681 236.003508 
L 486.591994 227.678158 
L 488.737308 238.988067 
L 490.882622 236.788918 
L 493.027935 210.713294 
L 495.173249 233.018948 
L 497.318562 269.619071 
L 499.463876 261.922049 
L 501.60919 230.662717 
L 503.754503 275.902354 
L 505.899817 214.012018 
L 508.04513 249.041319 
L 510.190444 234.589769 
L 512.335758 226.107337 
L 514.481071 208.828309 
L 516.626385 247.941745 
L 518.771698 198.932139 
L 520.917012 227.992322 
L 523.062326 220.766547 
L 525.207639 251.868797 
L 527.352953 232.704784 
L 529.498266 210.713294 
L 531.64358 219.50989 
L 533.788894 214.95451 
L 535.934207 218.253234 
L 538.079521 192.17761 
L 540.224834 212.912443 
L 542.370148 225.007763 
L 544.515462 223.908188 
L 546.660775 224.536516 
L 548.806089 245.742596 
L 550.951402 200.345877 
L 553.096716 170.18612 
L 555.24203 232.076456 
L 557.387343 190.763871 
L 559.532657 218.096151 
L 561.67797 189.507215 
L 563.823284 213.383689 
L 565.968598 250.455058 
L 568.113911 241.972626 
L 570.259225 209.927884 
L 572.404538 224.379434 
L 574.549852 199.560467 
L 576.695166 200.345877 
L 578.840479 190.920953 
L 580.985793 227.83524 
L 583.131106 208.042899 
L 585.27642 201.916698 
L 587.421734 192.020528 
L 589.567047 227.521076 
L 591.712361 182.281439 
L 593.857674 198.775057 
L 596.002988 216.211167 
L 598.148302 211.027458 
L 600.293615 217.624905 
L 602.438929 196.418826 
L 604.584242 236.317672 
L 606.729556 188.40764 
L 608.87487 196.104662 
L 611.020183 211.18454 
L 613.165497 202.07378 
L 615.31081 207.571653 
L 617.456124 177.097731 
L 619.601438 180.553537 
L 621.746751 141.597183 
L 623.892065 213.540771 
L 626.037378 207.885817 
L 628.182692 201.445452 
L 630.328006 174.113172 
L 632.473319 186.836819 
L 634.618633 161.703688 
L 636.763946 149.765451 
L 638.90926 206.62916 
L 641.054574 184.480588 
L 643.199887 205.05834 
L 645.345201 165.002412 
L 647.490514 198.460893 
L 649.635828 177.097731 
L 651.781142 178.040223 
L 653.926455 130.444356 
L 656.071769 195.633415 
L 658.217082 203.801683 
L 660.362396 163.902837 
L 662.50771 157.462472 
L 664.653023 152.75001 
L 666.798337 178.668552 
L 668.94365 190.606789 
L 671.088964 183.381014 
L 673.234278 166.730314 
L 675.379591 130.287274 
L 677.524905 185.894327 
L 679.670218 156.205816 
L 681.815532 220.452383 
L 683.960846 180.396454 
L 686.106159 171.128612 
L 688.251473 159.190375 
L 690.396786 139.08387 
L 692.5421 181.024783 
L 694.687414 185.894327 
L 696.832727 186.993901 
L 696.832727 186.993901 
" clip-path="url(#pdefddd8348)" style="fill: none; stroke: #ff7f0e; stroke-width: 1.5; stroke-linecap: square"/>
   </g>
   <g id="patch_9">
    <path d="M 406.25 318.04 
L 406.25 26.88 
" style="fill: none; stroke: #000000; stroke-width: 0.8; stroke-linejoin: miter; stroke-linecap: square"/>
   </g>
   <g id="patch_10">
    <path d="M 710.67 318.04 
L 710.67 26.88 
" style="fill: none; stroke: #000000; stroke-width: 0.8; stroke-linejoin: miter; stroke-linecap: square"/>
   </g>
   <g id="patch_11">
    <path d="M 406.25 318.04 
L 710.67 318.04 
" style="fill: none; stroke: #000000; stroke-width: 0.8; stroke-linejoin: miter; stroke-linecap: square"/>
   </g>
   <g id="patch_12">
    <path d="M 406.25 26.88 
L 710.67 26.88 
" style="fill: none; stroke: #000000; stroke-width: 0.8; stroke-linejoin: miter; stroke-linecap: square"/>
   </g>
   <g id="text_35">
    <!-- Accuracy vs Epoch -->
    <g transform="translate(502.2025 20.88) scale(0.12 -0.12)">
     <use xlink:href="#DejaVuSans-41"/>
     <use xlink:href="#DejaVuSans-63" x="66.658203"/>
     <use xlink:href="#DejaVuSans-63" x="121.638672"/>
     <use xlink:href="#DejaVuSans-75" x="176.619141"/>
     <use xlink:href="#DejaVuSans-72" x="239.998047"/>
     <use xlink:href="#DejaVuSans-61" x="281.111328"/>
     <use xlink:href="#DejaVuSans-63" x="342.390625"/>
     <use xlink:href="#DejaVuSans-79" x="397.371094"/>
     <use xlink:href="#DejaVuSans-20" x="456.550781"/>
     <use xlink:href="#DejaVuSans-76" x="488.337891"/>
     <use xlink:href="#DejaVuSans-73" x="547.517578"/>
     <use xlink:href="#DejaVuSans-20" x="599.617188"/>
     <use xlink:href="#DejaVuSans-45" x="631.404297"/>
     <use xlink:href="#DejaVuSans-70" x="694.587891"/>
     <use xlink:href="#DejaVuSans-6f" x="758.064453"/>
     <use xlink:href="#DejaVuSans-63" x="819.246094"/>
     <use xlink:href="#DejaVuSans-68" x="874.226562"/>
    </g>
   </g>
   <g id="legend_2">
    <g id="patch_13">
     <path d="M 573.454375 313.04 
L 703.67 313.04 
Q 705.67 313.04 705.67 311.04 
L 705.67 282.68375 
Q 705.67 280.68375 703.67 280.68375 
L 573.454375 280.68375 
Q 571.454375 280.68375 571.454375 282.68375 
L 571.454375 311.04 
Q 571.454375 313.04 573.454375 313.04 
z
" style="fill: #ffffff; opacity: 0.8; stroke: #cccccc; stroke-linejoin: miter"/>
    </g>
    <g id="line2d_34">
     <path d="M 575.454375 288.782188 
L 585.454375 288.782188 
L 595.454375 288.782188 
" style="fill: none; stroke: #1f77b4; stroke-width: 1.5; stroke-linecap: square"/>
    </g>
    <g id="text_36">
     <!-- Train Accuracy -->
     <g transform="translate(603.454375 292.282188) scale(0.1 -0.1)">
      <use xlink:href="#DejaVuSans-54"/>
      <use xlink:href="#DejaVuSans-72" x="46.333984"/>
      <use xlink:href="#DejaVuSans-61" x="87.447266"/>
      <use xlink:href="#DejaVuSans-69" x="148.726562"/>
      <use xlink:href="#DejaVuSans-6e" x="176.509766"/>
      <use xlink:href="#DejaVuSans-20" x="239.888672"/>
      <use xlink:href="#DejaVuSans-41" x="271.675781"/>
      <use xlink:href="#DejaVuSans-63" x="338.333984"/>
      <use xlink:href="#DejaVuSans-63" x="393.314453"/>
      <use xlink:href="#DejaVuSans-75" x="448.294922"/>
      <use xlink:href="#DejaVuSans-72" x="511.673828"/>
      <use xlink:href="#DejaVuSans-61" x="552.787109"/>
      <use xlink:href="#DejaVuSans-63" x="614.066406"/>
      <use xlink:href="#DejaVuSans-79" x="669.046875"/>
     </g>
    </g>
    <g id="line2d_35">
     <path d="M 575.454375 303.460313 
L 585.454375 303.460313 
L 595.454375 303.460313 
" style="fill: none; stroke: #ff7f0e; stroke-width: 1.5; stroke-linecap: square"/>
    </g>
    <g id="text_37">
     <!-- Validation Accuracy -->
     <g transform="translate(603.454375 306.960313) scale(0.1 -0.1)">
      <use xlink:href="#DejaVuSans-56"/>
      <use xlink:href="#DejaVuSans-61" x="60.658203"/>
      <use xlink:href="#DejaVuSans-6c" x="121.9375"/>
      <use xlink:href="#DejaVuSans-69" x="149.720703"/>
      <use xlink:href="#DejaVuSans-64" x="177.503906"/>
      <use xlink:href="#DejaVuSans-61" x="240.980469"/>
      <use xlink:href="#DejaVuSans-74" x="302.259766"/>
      <use xlink:href="#DejaVuSans-69" x="341.46875"/>
      <use xlink:href="#DejaVuSans-6f" x="369.251953"/>
      <use xlink:href="#DejaVuSans-6e" x="430.433594"/>
      <use xlink:href="#DejaVuSans-20" x="493.8125"/>
      <use xlink:href="#DejaVuSans-41" x="525.599609"/>
      <use xlink:href="#DejaVuSans-63" x="592.257812"/>
      <use xlink:href="#DejaVuSans-63" x="647.238281"/>
      <use xlink:href="#DejaVuSans-75" x="702.21875"/>
      <use xlink:href="#DejaVuSans-72" x="765.597656"/>
      <use xlink:href="#DejaVuSans-61" x="806.710938"/>
      <use xlink:href="#DejaVuSans-63" x="867.990234"/>
      <use xlink:href="#DejaVuSans-79" x="922.970703"/>
     </g>
    </g>
   </g>
  </g>
  <g id="axes_3">
   <g id="patch_14">
    <path d="M 764.78 318.04 
L 1069.2 318.04 
L 1069.2 26.88 
L 764.78 26.88 
z
" style="fill: #ffffff"/>
   </g>
   <g id="matplotlib.axis_5">
    <g id="xtick_15">
     <g id="line2d_36">
      <g>
       <use xlink:href="#m57d746db5f" x="778.617273" y="318.04" style="stroke: #000000; stroke-width: 0.8"/>
      </g>
     </g>
     <g id="text_38">
      <!-- 0 -->
      <g transform="translate(775.436023 332.638438) scale(0.1 -0.1)">
       <use xlink:href="#DejaVuSans-30"/>
      </g>
     </g>
    </g>
    <g id="xtick_16">
     <g id="line2d_37">
      <g>
       <use xlink:href="#m57d746db5f" x="821.523545" y="318.04" style="stroke: #000000; stroke-width: 0.8"/>
      </g>
     </g>
     <g id="text_39">
      <!-- 20 -->
      <g transform="translate(815.161045 332.638438) scale(0.1 -0.1)">
       <use xlink:href="#DejaVuSans-32"/>
       <use xlink:href="#DejaVuSans-30" x="63.623047"/>
      </g>
     </g>
    </g>
    <g id="xtick_17">
     <g id="line2d_38">
      <g>
       <use xlink:href="#m57d746db5f" x="864.429817" y="318.04" style="stroke: #000000; stroke-width: 0.8"/>
      </g>
     </g>
     <g id="text_40">
      <!-- 40 -->
      <g transform="translate(858.067317 332.638438) scale(0.1 -0.1)">
       <use xlink:href="#DejaVuSans-34"/>
       <use xlink:href="#DejaVuSans-30" x="63.623047"/>
      </g>
     </g>
    </g>
    <g id="xtick_18">
     <g id="line2d_39">
      <g>
       <use xlink:href="#m57d746db5f" x="907.336089" y="318.04" style="stroke: #000000; stroke-width: 0.8"/>
      </g>
     </g>
     <g id="text_41">
      <!-- 60 -->
      <g transform="translate(900.973589 332.638438) scale(0.1 -0.1)">
       <use xlink:href="#DejaVuSans-36"/>
       <use xlink:href="#DejaVuSans-30" x="63.623047"/>
      </g>
     </g>
    </g>
    <g id="xtick_19">
     <g id="line2d_40">
      <g>
       <use xlink:href="#m57d746db5f" x="950.242361" y="318.04" style="stroke: #000000; stroke-width: 0.8"/>
      </g>
     </g>
     <g id="text_42">
      <!-- 80 -->
      <g transform="translate(943.879861 332.638438) scale(0.1 -0.1)">
       <use xlink:href="#DejaVuSans-38"/>
       <use xlink:href="#DejaVuSans-30" x="63.623047"/>
      </g>
     </g>
    </g>
    <g id="xtick_20">
     <g id="line2d_41">
      <g>
       <use xlink:href="#m57d746db5f" x="993.148633" y="318.04" style="stroke: #000000; stroke-width: 0.8"/>
      </g>
     </g>
     <g id="text_43">
      <!-- 100 -->
      <g transform="translate(983.604883 332.638438) scale(0.1 -0.1)">
       <use xlink:href="#DejaVuSans-31"/>
       <use xlink:href="#DejaVuSans-30" x="63.623047"/>
       <use xlink:href="#DejaVuSans-30" x="127.246094"/>
      </g>
     </g>
    </g>
    <g id="xtick_21">
     <g id="line2d_42">
      <g>
       <use xlink:href="#m57d746db5f" x="1036.054905" y="318.04" style="stroke: #000000; stroke-width: 0.8"/>
      </g>
     </g>
     <g id="text_44">
      <!-- 120 -->
      <g transform="translate(1026.511155 332.638438) scale(0.1 -0.1)">
       <use xlink:href="#DejaVuSans-31"/>
       <use xlink:href="#DejaVuSans-32" x="63.623047"/>
       <use xlink:href="#DejaVuSans-30" x="127.246094"/>
      </g>
     </g>
    </g>
    <g id="text_45">
     <!-- Epoch -->
     <g transform="translate(901.679062 346.316563) scale(0.1 -0.1)">
      <use xlink:href="#DejaVuSans-45"/>
      <use xlink:href="#DejaVuSans-70" x="63.183594"/>
      <use xlink:href="#DejaVuSans-6f" x="126.660156"/>
      <use xlink:href="#DejaVuSans-63" x="187.841797"/>
      <use xlink:href="#DejaVuSans-68" x="242.822266"/>
     </g>
    </g>
   </g>
   <g id="matplotlib.axis_6">
    <g id="ytick_14">
     <g id="line2d_43">
      <g>
       <use xlink:href="#m844998b135" x="764.78" y="301.801876" style="stroke: #000000; stroke-width: 0.8"/>
      </g>
     </g>
     <g id="text_46">
      <!-- 0.76 -->
      <g transform="translate(735.514375 305.601095) scale(0.1 -0.1)">
       <use xlink:href="#DejaVuSans-30"/>
       <use xlink:href="#DejaVuSans-2e" x="63.623047"/>
       <use xlink:href="#DejaVuSans-37" x="95.410156"/>
       <use xlink:href="#DejaVuSans-36" x="159.033203"/>
      </g>
     </g>
    </g>
    <g id="ytick_15">
     <g id="line2d_44">
      <g>
       <use xlink:href="#m844998b135" x="764.78" y="267.699452" style="stroke: #000000; stroke-width: 0.8"/>
      </g>
     </g>
     <g id="text_47">
      <!-- 0.78 -->
      <g transform="translate(735.514375 271.498671) scale(0.1 -0.1)">
       <use xlink:href="#DejaVuSans-30"/>
       <use xlink:href="#DejaVuSans-2e" x="63.623047"/>
       <use xlink:href="#DejaVuSans-37" x="95.410156"/>
       <use xlink:href="#DejaVuSans-38" x="159.033203"/>
      </g>
     </g>
    </g>
    <g id="ytick_16">
     <g id="line2d_45">
      <g>
       <use xlink:href="#m844998b135" x="764.78" y="233.597029" style="stroke: #000000; stroke-width: 0.8"/>
      </g>
     </g>
     <g id="text_48">
      <!-- 0.80 -->
      <g transform="translate(735.514375 237.396247) scale(0.1 -0.1)">
       <use xlink:href="#DejaVuSans-30"/>
       <use xlink:href="#DejaVuSans-2e" x="63.623047"/>
       <use xlink:href="#DejaVuSans-38" x="95.410156"/>
       <use xlink:href="#DejaVuSans-30" x="159.033203"/>
      </g>
     </g>
    </g>
    <g id="ytick_17">
     <g id="line2d_46">
      <g>
       <use xlink:href="#m844998b135" x="764.78" y="199.494605" style="stroke: #000000; stroke-width: 0.8"/>
      </g>
     </g>
     <g id="text_49">
      <!-- 0.82 -->
      <g transform="translate(735.514375 203.293823) scale(0.1 -0.1)">
       <use xlink:href="#DejaVuSans-30"/>
       <use xlink:href="#DejaVuSans-2e" x="63.623047"/>
       <use xlink:href="#DejaVuSans-38" x="95.410156"/>
       <use xlink:href="#DejaVuSans-32" x="159.033203"/>
      </g>
     </g>
    </g>
    <g id="ytick_18">
     <g id="line2d_47">
      <g>
       <use xlink:href="#m844998b135" x="764.78" y="165.392181" style="stroke: #000000; stroke-width: 0.8"/>
      </g>
     </g>
     <g id="text_50">
      <!-- 0.84 -->
      <g transform="translate(735.514375 169.191399) scale(0.1 -0.1)">
       <use xlink:href="#DejaVuSans-30"/>
       <use xlink:href="#DejaVuSans-2e" x="63.623047"/>
       <use xlink:href="#DejaVuSans-38" x="95.410156"/>
       <use xlink:href="#DejaVuSans-34" x="159.033203"/>
      </g>
     </g>
    </g>
    <g id="ytick_19">
     <g id="line2d_48">
      <g>
       <use xlink:href="#m844998b135" x="764.78" y="131.289757" style="stroke: #000000; stroke-width: 0.8"/>
      </g>
     </g>
     <g id="text_51">
      <!-- 0.86 -->
      <g transform="translate(735.514375 135.088976) scale(0.1 -0.1)">
       <use xlink:href="#DejaVuSans-30"/>
       <use xlink:href="#DejaVuSans-2e" x="63.623047"/>
       <use xlink:href="#DejaVuSans-38" x="95.410156"/>
       <use xlink:href="#DejaVuSans-36" x="159.033203"/>
      </g>
     </g>
    </g>
    <g id="ytick_20">
     <g id="line2d_49">
      <g>
       <use xlink:href="#m844998b135" x="764.78" y="97.187333" style="stroke: #000000; stroke-width: 0.8"/>
      </g>
     </g>
     <g id="text_52">
      <!-- 0.88 -->
      <g transform="translate(735.514375 100.986552) scale(0.1 -0.1)">
       <use xlink:href="#DejaVuSans-30"/>
       <use xlink:href="#DejaVuSans-2e" x="63.623047"/>
       <use xlink:href="#DejaVuSans-38" x="95.410156"/>
       <use xlink:href="#DejaVuSans-38" x="159.033203"/>
      </g>
     </g>
    </g>
    <g id="ytick_21">
     <g id="line2d_50">
      <g>
       <use xlink:href="#m844998b135" x="764.78" y="63.084909" style="stroke: #000000; stroke-width: 0.8"/>
      </g>
     </g>
     <g id="text_53">
      <!-- 0.90 -->
      <g transform="translate(735.514375 66.884128) scale(0.1 -0.1)">
       <defs>
        <path id="DejaVuSans-39" d="M 703 97 
L 703 672 
Q 941 559 1184 500 
Q 1428 441 1663 441 
Q 2288 441 2617 861 
Q 2947 1281 2994 2138 
Q 2813 1869 2534 1725 
Q 2256 1581 1919 1581 
Q 1219 1581 811 2004 
Q 403 2428 403 3163 
Q 403 3881 828 4315 
Q 1253 4750 1959 4750 
Q 2769 4750 3195 4129 
Q 3622 3509 3622 2328 
Q 3622 1225 3098 567 
Q 2575 -91 1691 -91 
Q 1453 -91 1209 -44 
Q 966 3 703 97 
z
M 1959 2075 
Q 2384 2075 2632 2365 
Q 2881 2656 2881 3163 
Q 2881 3666 2632 3958 
Q 2384 4250 1959 4250 
Q 1534 4250 1286 3958 
Q 1038 3666 1038 3163 
Q 1038 2656 1286 2365 
Q 1534 2075 1959 2075 
z
" transform="scale(0.015625)"/>
       </defs>
       <use xlink:href="#DejaVuSans-30"/>
       <use xlink:href="#DejaVuSans-2e" x="63.623047"/>
       <use xlink:href="#DejaVuSans-39" x="95.410156"/>
       <use xlink:href="#DejaVuSans-30" x="159.033203"/>
      </g>
     </g>
    </g>
    <g id="ytick_22">
     <g id="line2d_51">
      <g>
       <use xlink:href="#m844998b135" x="764.78" y="28.982485" style="stroke: #000000; stroke-width: 0.8"/>
      </g>
     </g>
     <g id="text_54">
      <!-- 0.92 -->
      <g transform="translate(735.514375 32.781704) scale(0.1 -0.1)">
       <use xlink:href="#DejaVuSans-30"/>
       <use xlink:href="#DejaVuSans-2e" x="63.623047"/>
       <use xlink:href="#DejaVuSans-39" x="95.410156"/>
       <use xlink:href="#DejaVuSans-32" x="159.033203"/>
      </g>
     </g>
    </g>
    <g id="text_55">
     <!-- F1-Score -->
     <g transform="translate(729.434688 194.323281) rotate(-90) scale(0.1 -0.1)">
      <defs>
       <path id="DejaVuSans-46" d="M 628 4666 
L 3309 4666 
L 3309 4134 
L 1259 4134 
L 1259 2759 
L 3109 2759 
L 3109 2228 
L 1259 2228 
L 1259 0 
L 628 0 
L 628 4666 
z
" transform="scale(0.015625)"/>
       <path id="DejaVuSans-2d" d="M 313 2009 
L 1997 2009 
L 1997 1497 
L 313 1497 
L 313 2009 
z
" transform="scale(0.015625)"/>
       <path id="DejaVuSans-53" d="M 3425 4513 
L 3425 3897 
Q 3066 4069 2747 4153 
Q 2428 4238 2131 4238 
Q 1616 4238 1336 4038 
Q 1056 3838 1056 3469 
Q 1056 3159 1242 3001 
Q 1428 2844 1947 2747 
L 2328 2669 
Q 3034 2534 3370 2195 
Q 3706 1856 3706 1288 
Q 3706 609 3251 259 
Q 2797 -91 1919 -91 
Q 1588 -91 1214 -16 
Q 841 59 441 206 
L 441 856 
Q 825 641 1194 531 
Q 1563 422 1919 422 
Q 2459 422 2753 634 
Q 3047 847 3047 1241 
Q 3047 1584 2836 1778 
Q 2625 1972 2144 2069 
L 1759 2144 
Q 1053 2284 737 2584 
Q 422 2884 422 3419 
Q 422 4038 858 4394 
Q 1294 4750 2059 4750 
Q 2388 4750 2728 4690 
Q 3069 4631 3425 4513 
z
" transform="scale(0.015625)"/>
       <path id="DejaVuSans-65" d="M 3597 1894 
L 3597 1613 
L 953 1613 
Q 991 1019 1311 708 
Q 1631 397 2203 397 
Q 2534 397 2845 478 
Q 3156 559 3463 722 
L 3463 178 
Q 3153 47 2828 -22 
Q 2503 -91 2169 -91 
Q 1331 -91 842 396 
Q 353 884 353 1716 
Q 353 2575 817 3079 
Q 1281 3584 2069 3584 
Q 2775 3584 3186 3129 
Q 3597 2675 3597 1894 
z
M 3022 2063 
Q 3016 2534 2758 2815 
Q 2500 3097 2075 3097 
Q 1594 3097 1305 2825 
Q 1016 2553 972 2059 
L 3022 2063 
z
" transform="scale(0.015625)"/>
      </defs>
      <use xlink:href="#DejaVuSans-46"/>
      <use xlink:href="#DejaVuSans-31" x="57.519531"/>
      <use xlink:href="#DejaVuSans-2d" x="121.142578"/>
      <use xlink:href="#DejaVuSans-53" x="157.226562"/>
      <use xlink:href="#DejaVuSans-63" x="220.703125"/>
      <use xlink:href="#DejaVuSans-6f" x="275.683594"/>
      <use xlink:href="#DejaVuSans-72" x="336.865234"/>
      <use xlink:href="#DejaVuSans-65" x="375.728516"/>
     </g>
    </g>
   </g>
   <g id="line2d_52">
    <path d="M 778.617273 269.914043 
L 780.762586 212.323256 
L 782.9079 168.408322 
L 785.053214 155.308799 
L 787.198527 134.415689 
L 789.343841 137.814934 
L 791.489154 135.43677 
L 793.634468 128.876706 
L 795.779782 119.760875 
L 797.925095 112.700152 
L 800.070409 112.91261 
L 802.215722 111.574293 
L 804.361036 112.419473 
L 806.50635 106.246252 
L 808.651663 104.740907 
L 810.796977 96.991858 
L 812.94229 106.309326 
L 815.087604 108.22139 
L 817.232918 100.059339 
L 819.378231 97.494279 
L 821.523545 105.291932 
L 823.668858 101.62529 
L 825.814172 105.109268 
L 827.959486 101.390078 
L 830.104799 98.187239 
L 832.250113 92.047035 
L 834.395426 87.741199 
L 836.54074 93.762148 
L 838.686054 90.282597 
L 840.831367 89.83372 
L 842.976681 91.815257 
L 845.121994 90.999472 
L 847.267308 85.289941 
L 849.412622 89.967809 
L 851.557935 84.56146 
L 853.703249 88.635411 
L 855.848562 83.50148 
L 857.993876 84.772451 
L 860.13919 84.938057 
L 862.284503 83.368176 
L 864.429817 85.220471 
L 866.57513 78.748409 
L 868.720444 80.208523 
L 870.865758 81.497303 
L 873.011071 80.558129 
L 875.156385 76.62011 
L 877.301698 82.832493 
L 879.447012 78.817073 
L 881.592326 80.815064 
L 883.737639 78.306712 
L 885.882953 73.361455 
L 888.028266 75.99846 
L 890.17358 70.652079 
L 892.318894 69.611522 
L 894.464207 72.834937 
L 896.609521 67.430167 
L 898.754834 69.551436 
L 900.900148 68.648409 
L 903.045462 69.551872 
L 905.190775 68.654576 
L 907.336089 70.57515 
L 909.481402 71.214503 
L 911.626716 67.405539 
L 913.77203 68.206467 
L 915.917343 67.632889 
L 918.062657 65.551038 
L 920.20797 64.63002 
L 922.353284 65.723225 
L 924.498598 67.987089 
L 926.643911 66.721558 
L 928.789225 69.618208 
L 930.934538 66.766158 
L 933.079852 64.395868 
L 935.225166 61.360801 
L 937.370479 61.132699 
L 939.515793 57.807018 
L 941.661106 58.099889 
L 943.80642 56.415031 
L 945.951734 57.100113 
L 948.097047 55.524742 
L 950.242361 57.759134 
L 952.387674 57.131127 
L 954.532988 56.825979 
L 956.678302 55.587039 
L 958.823615 56.826779 
L 960.968929 56.28225 
L 963.114242 55.117053 
L 965.259556 56.588959 
L 967.40487 52.079758 
L 969.550183 51.425252 
L 971.695497 56.067985 
L 973.84081 53.759482 
L 975.986124 54.377071 
L 978.131438 52.004983 
L 980.276751 52.209341 
L 982.422065 50.060617 
L 984.567378 52.628521 
L 986.712692 53.978304 
L 988.858006 53.830283 
L 991.003319 52.762358 
L 993.148633 47.591747 
L 995.293946 46.63187 
L 997.43926 47.972704 
L 999.584574 48.139502 
L 1001.729887 49.354001 
L 1003.875201 45.630087 
L 1006.020514 46.836919 
L 1008.165828 47.520302 
L 1010.311142 47.369506 
L 1012.456455 46.520376 
L 1014.601769 47.837989 
L 1016.747082 45.81316 
L 1018.892396 46.440313 
L 1021.03771 46.121551 
L 1023.183023 44.915585 
L 1025.328337 44.820433 
L 1027.47365 44.16144 
L 1029.618964 46.329686 
L 1031.764278 43.938171 
L 1033.909591 45.128675 
L 1036.054905 44.484858 
L 1038.200218 45.184785 
L 1040.345532 42.06514 
L 1042.490846 45.431869 
L 1044.636159 43.399685 
L 1046.781473 40.114545 
L 1048.926786 41.867505 
L 1053.217414 41.146373 
L 1055.362727 41.917857 
L 1055.362727 41.917857 
" clip-path="url(#p39e0d012a5)" style="fill: none; stroke: #1f77b4; stroke-width: 1.5; stroke-linecap: square"/>
   </g>
   <g id="line2d_53">
    <path d="M 778.617273 304.805455 
L 780.762586 299.652037 
L 782.9079 303.149584 
L 785.053214 301.60426 
L 787.198527 292.729823 
L 789.343841 290.20568 
L 791.489154 292.400206 
L 793.634468 277.667426 
L 795.779782 261.228592 
L 797.925095 297.856367 
L 800.070409 275.929634 
L 802.215722 281.914844 
L 804.361036 283.026851 
L 806.50635 236.186267 
L 808.651663 243.920309 
L 810.796977 270.735184 
L 812.94229 274.533814 
L 815.087604 282.673683 
L 817.232918 242.213427 
L 819.378231 291.541697 
L 821.523545 271.295049 
L 823.668858 272.941955 
L 825.814172 267.182749 
L 827.959486 259.199343 
L 830.104799 284.129337 
L 832.250113 272.165453 
L 834.395426 253.867824 
L 836.54074 210.197 
L 838.686054 262.472381 
L 840.831367 274.118896 
L 842.976681 248.731556 
L 845.121994 240.585815 
L 847.267308 250.354803 
L 849.412622 247.953711 
L 851.557935 225.720012 
L 853.703249 246.351592 
L 855.848562 277.130563 
L 857.993876 270.28951 
L 860.13919 243.42297 
L 862.284503 281.532577 
L 864.429817 228.837041 
L 866.57513 259.386416 
L 868.720444 248.430371 
L 870.865758 239.237924 
L 873.011071 226.096389 
L 875.156385 259.252257 
L 877.301698 217.017169 
L 879.447012 241.599273 
L 881.592326 234.241687 
L 883.737639 261.105757 
L 885.882953 245.479158 
L 888.028266 226.853407 
L 890.17358 234.100332 
L 892.318894 229.135903 
L 894.464207 233.741286 
L 896.609521 209.642299 
L 898.754834 228.605371 
L 900.900148 238.31412 
L 903.045462 237.5333 
L 905.190775 238.321546 
L 907.336089 258.297134 
L 909.481402 216.95814 
L 911.626716 188.256391 
L 913.77203 244.254036 
L 915.917343 207.276981 
L 918.062657 231.66041 
L 920.20797 205.743356 
L 922.353284 228.115831 
L 924.498598 260.626227 
L 926.643911 253.451542 
L 928.789225 224.429904 
L 930.934538 237.166094 
L 933.079852 215.458604 
L 935.225166 215.026043 
L 937.370479 207.900907 
L 939.515793 241.238028 
L 941.661106 223.103975 
L 943.80642 217.323183 
L 945.951734 207.72698 
L 948.097047 240.225779 
L 950.242361 199.291724 
L 954.532988 230.289953 
L 956.678302 226.010684 
L 958.823615 231.158067 
L 960.968929 211.952793 
L 963.114242 248.123775 
L 965.259556 205.031475 
L 967.40487 211.315953 
L 969.550183 226.722269 
L 971.695497 217.193607 
L 973.84081 222.87664 
L 975.986124 195.070346 
L 978.131438 197.427791 
L 980.276751 159.580391 
L 982.422065 227.552286 
L 986.712692 217.15862 
L 988.858006 191.186796 
L 991.003319 203.329474 
L 993.148633 179.948551 
L 995.293946 168.300961 
L 997.43926 221.301351 
L 999.584574 201.606427 
L 1001.729887 219.146849 
L 1003.875201 183.025045 
L 1006.020514 213.737895 
L 1008.165828 194.21676 
L 1010.311142 194.933322 
L 1012.456455 150.244998 
L 1014.601769 211.553082 
L 1016.747082 219.502716 
L 1018.892396 181.557373 
L 1021.03771 175.72488 
L 1023.183023 170.694404 
L 1025.328337 196.661389 
L 1027.47365 208.281461 
L 1029.618964 199.288903 
L 1031.764278 183.64565 
L 1033.909591 149.149996 
L 1036.054905 202.2275 
L 1038.200218 174.530862 
L 1040.345532 232.954126 
L 1042.490846 197.276231 
L 1044.636159 188.211315 
L 1046.781473 177.197732 
L 1048.926786 156.773305 
L 1051.0721 199.34261 
L 1053.217414 202.561396 
L 1055.362727 203.546632 
L 1055.362727 203.546632 
" clip-path="url(#p39e0d012a5)" style="fill: none; stroke: #ff7f0e; stroke-width: 1.5; stroke-linecap: square"/>
   </g>
   <g id="patch_15">
    <path d="M 764.78 318.04 
L 764.78 26.88 
" style="fill: none; stroke: #000000; stroke-width: 0.8; stroke-linejoin: miter; stroke-linecap: square"/>
   </g>
   <g id="patch_16">
    <path d="M 1069.2 318.04 
L 1069.2 26.88 
" style="fill: none; stroke: #000000; stroke-width: 0.8; stroke-linejoin: miter; stroke-linecap: square"/>
   </g>
   <g id="patch_17">
    <path d="M 764.78 318.04 
L 1069.2 318.04 
" style="fill: none; stroke: #000000; stroke-width: 0.8; stroke-linejoin: miter; stroke-linecap: square"/>
   </g>
   <g id="patch_18">
    <path d="M 764.78 26.88 
L 1069.2 26.88 
" style="fill: none; stroke: #000000; stroke-width: 0.8; stroke-linejoin: miter; stroke-linecap: square"/>
   </g>
   <g id="text_56">
    <!-- F1-Score vs Epoch -->
    <g transform="translate(861.890313 20.88) scale(0.12 -0.12)">
     <use xlink:href="#DejaVuSans-46"/>
     <use xlink:href="#DejaVuSans-31" x="57.519531"/>
     <use xlink:href="#DejaVuSans-2d" x="121.142578"/>
     <use xlink:href="#DejaVuSans-53" x="157.226562"/>
     <use xlink:href="#DejaVuSans-63" x="220.703125"/>
     <use xlink:href="#DejaVuSans-6f" x="275.683594"/>
     <use xlink:href="#DejaVuSans-72" x="336.865234"/>
     <use xlink:href="#DejaVuSans-65" x="375.728516"/>
     <use xlink:href="#DejaVuSans-20" x="437.251953"/>
     <use xlink:href="#DejaVuSans-76" x="469.039062"/>
     <use xlink:href="#DejaVuSans-73" x="528.21875"/>
     <use xlink:href="#DejaVuSans-20" x="580.318359"/>
     <use xlink:href="#DejaVuSans-45" x="612.105469"/>
     <use xlink:href="#DejaVuSans-70" x="675.289062"/>
     <use xlink:href="#DejaVuSans-6f" x="738.765625"/>
     <use xlink:href="#DejaVuSans-63" x="799.947266"/>
     <use xlink:href="#DejaVuSans-68" x="854.927734"/>
    </g>
   </g>
   <g id="legend_3">
    <g id="patch_19">
     <path d="M 771.78 64.23625 
L 868.453438 64.23625 
Q 870.453438 64.23625 870.453438 62.23625 
L 870.453438 33.88 
Q 870.453438 31.88 868.453438 31.88 
L 771.78 31.88 
Q 769.78 31.88 769.78 33.88 
L 769.78 62.23625 
Q 769.78 64.23625 771.78 64.23625 
z
" style="fill: #ffffff; opacity: 0.8; stroke: #cccccc; stroke-linejoin: miter"/>
    </g>
    <g id="line2d_54">
     <path d="M 773.78 39.978437 
L 783.78 39.978437 
L 793.78 39.978437 
" style="fill: none; stroke: #1f77b4; stroke-width: 1.5; stroke-linecap: square"/>
    </g>
    <g id="text_57">
     <!-- Train F1 -->
     <g transform="translate(801.78 43.478437) scale(0.1 -0.1)">
      <use xlink:href="#DejaVuSans-54"/>
      <use xlink:href="#DejaVuSans-72" x="46.333984"/>
      <use xlink:href="#DejaVuSans-61" x="87.447266"/>
      <use xlink:href="#DejaVuSans-69" x="148.726562"/>
      <use xlink:href="#DejaVuSans-6e" x="176.509766"/>
      <use xlink:href="#DejaVuSans-20" x="239.888672"/>
      <use xlink:href="#DejaVuSans-46" x="271.675781"/>
      <use xlink:href="#DejaVuSans-31" x="329.195312"/>
     </g>
    </g>
    <g id="line2d_55">
     <path d="M 773.78 54.656563 
L 783.78 54.656563 
L 793.78 54.656563 
" style="fill: none; stroke: #ff7f0e; stroke-width: 1.5; stroke-linecap: square"/>
    </g>
    <g id="text_58">
     <!-- Validation F1 -->
     <g transform="translate(801.78 58.156563) scale(0.1 -0.1)">
      <use xlink:href="#DejaVuSans-56"/>
      <use xlink:href="#DejaVuSans-61" x="60.658203"/>
      <use xlink:href="#DejaVuSans-6c" x="121.9375"/>
      <use xlink:href="#DejaVuSans-69" x="149.720703"/>
      <use xlink:href="#DejaVuSans-64" x="177.503906"/>
      <use xlink:href="#DejaVuSans-61" x="240.980469"/>
      <use xlink:href="#DejaVuSans-74" x="302.259766"/>
      <use xlink:href="#DejaVuSans-69" x="341.46875"/>
      <use xlink:href="#DejaVuSans-6f" x="369.251953"/>
      <use xlink:href="#DejaVuSans-6e" x="430.433594"/>
      <use xlink:href="#DejaVuSans-20" x="493.8125"/>
      <use xlink:href="#DejaVuSans-46" x="525.599609"/>
      <use xlink:href="#DejaVuSans-31" x="583.119141"/>
     </g>
    </g>
   </g>
  </g>
 </g>
 <defs>
  <clipPath id="p3c3ff33232">
   <rect x="47.72" y="26.88" width="304.42" height="291.16"/>
  </clipPath>
  <clipPath id="pdefddd8348">
   <rect x="406.25" y="26.88" width="304.42" height="291.16"/>
  </clipPath>
  <clipPath id="p39e0d012a5">
   <rect x="764.78" y="26.88" width="304.42" height="291.16"/>
  </clipPath>
 </defs>
</svg>
