<?xml version="1.0" encoding="utf-8" standalone="no"?>
<!DOCTYPE svg PUBLIC "-//W3C//DTD SVG 1.1//EN"
  "http://www.w3.org/Graphics/SVG/1.1/DTD/svg11.dtd">
<svg xmlns:xlink="http://www.w3.org/1999/xlink" width="1080pt" height="360pt" viewBox="0 0 1080 360" xmlns="http://www.w3.org/2000/svg" version="1.1">
 <metadata>
  <rdf:RDF xmlns:dc="http://purl.org/dc/elements/1.1/" xmlns:cc="http://creativecommons.org/ns#" xmlns:rdf="http://www.w3.org/1999/02/22-rdf-syntax-ns#">
   <cc:Work>
    <dc:type rdf:resource="http://purl.org/dc/dcmitype/StillImage"/>
    <dc:date>2024-10-23T02:11:19.922302</dc:date>
    <dc:format>image/svg+xml</dc:format>
    <dc:creator>
     <cc:Agent>
      <dc:title>Matplotlib v3.8.2, https://matplotlib.org/</dc:title>
     </cc:Agent>
    </dc:creator>
   </cc:Work>
  </rdf:RDF>
 </metadata>
 <defs>
  <style type="text/css">*{stroke-linejoin: round; stroke-linecap: butt}</style>
 </defs>
 <g id="figure_1">
  <g id="patch_1">
   <path d="M 0 360 
L 1080 360 
L 1080 0 
L 0 0 
z
" style="fill: #ffffff"/>
  </g>
  <g id="axes_1">
   <g id="patch_2">
    <path d="M 47.72 318.04 
L 352.14 318.04 
L 352.14 26.88 
L 47.72 26.88 
z
" style="fill: #ffffff"/>
   </g>
   <g id="matplotlib.axis_1">
    <g id="xtick_1">
     <g id="line2d_1">
      <defs>
       <path id="m5116ea0c02" d="M 0 0 
L 0 3.5 
" style="stroke: #000000; stroke-width: 0.8"/>
      </defs>
      <g>
       <use xlink:href="#m5116ea0c02" x="61.557273" y="318.04" style="stroke: #000000; stroke-width: 0.8"/>
      </g>
     </g>
     <g id="text_1">
      <!-- 0 -->
      <g transform="translate(58.376023 332.638438) scale(0.1 -0.1)">
       <defs>
        <path id="DejaVuSans-30" d="M 2034 4250 
Q 1547 4250 1301 3770 
Q 1056 3291 1056 2328 
Q 1056 1369 1301 889 
Q 1547 409 2034 409 
Q 2525 409 2770 889 
Q 3016 1369 3016 2328 
Q 3016 3291 2770 3770 
Q 2525 4250 2034 4250 
z
M 2034 4750 
Q 2819 4750 3233 4129 
Q 3647 3509 3647 2328 
Q 3647 1150 3233 529 
Q 2819 -91 2034 -91 
Q 1250 -91 836 529 
Q 422 1150 422 2328 
Q 422 3509 836 4129 
Q 1250 4750 2034 4750 
z
" transform="scale(0.015625)"/>
       </defs>
       <use xlink:href="#DejaVuSans-30"/>
      </g>
     </g>
    </g>
    <g id="xtick_2">
     <g id="line2d_2">
      <g>
       <use xlink:href="#m5116ea0c02" x="98.163814" y="318.04" style="stroke: #000000; stroke-width: 0.8"/>
      </g>
     </g>
     <g id="text_2">
      <!-- 25 -->
      <g transform="translate(91.801314 332.638438) scale(0.1 -0.1)">
       <defs>
        <path id="DejaVuSans-32" d="M 1228 531 
L 3431 531 
L 3431 0 
L 469 0 
L 469 531 
Q 828 903 1448 1529 
Q 2069 2156 2228 2338 
Q 2531 2678 2651 2914 
Q 2772 3150 2772 3378 
Q 2772 3750 2511 3984 
Q 2250 4219 1831 4219 
Q 1534 4219 1204 4116 
Q 875 4013 500 3803 
L 500 4441 
Q 881 4594 1212 4672 
Q 1544 4750 1819 4750 
Q 2544 4750 2975 4387 
Q 3406 4025 3406 3419 
Q 3406 3131 3298 2873 
Q 3191 2616 2906 2266 
Q 2828 2175 2409 1742 
Q 1991 1309 1228 531 
z
" transform="scale(0.015625)"/>
        <path id="DejaVuSans-35" d="M 691 4666 
L 3169 4666 
L 3169 4134 
L 1269 4134 
L 1269 2991 
Q 1406 3038 1543 3061 
Q 1681 3084 1819 3084 
Q 2600 3084 3056 2656 
Q 3513 2228 3513 1497 
Q 3513 744 3044 326 
Q 2575 -91 1722 -91 
Q 1428 -91 1123 -41 
Q 819 9 494 109 
L 494 744 
Q 775 591 1075 516 
Q 1375 441 1709 441 
Q 2250 441 2565 725 
Q 2881 1009 2881 1497 
Q 2881 1984 2565 2268 
Q 2250 2553 1709 2553 
Q 1456 2553 1204 2497 
Q 953 2441 691 2322 
L 691 4666 
z
" transform="scale(0.015625)"/>
       </defs>
       <use xlink:href="#DejaVuSans-32"/>
       <use xlink:href="#DejaVuSans-35" x="63.623047"/>
      </g>
     </g>
    </g>
    <g id="xtick_3">
     <g id="line2d_3">
      <g>
       <use xlink:href="#m5116ea0c02" x="134.770356" y="318.04" style="stroke: #000000; stroke-width: 0.8"/>
      </g>
     </g>
     <g id="text_3">
      <!-- 50 -->
      <g transform="translate(128.407856 332.638438) scale(0.1 -0.1)">
       <use xlink:href="#DejaVuSans-35"/>
       <use xlink:href="#DejaVuSans-30" x="63.623047"/>
      </g>
     </g>
    </g>
    <g id="xtick_4">
     <g id="line2d_4">
      <g>
       <use xlink:href="#m5116ea0c02" x="171.376898" y="318.04" style="stroke: #000000; stroke-width: 0.8"/>
      </g>
     </g>
     <g id="text_4">
      <!-- 75 -->
      <g transform="translate(165.014398 332.638438) scale(0.1 -0.1)">
       <defs>
        <path id="DejaVuSans-37" d="M 525 4666 
L 3525 4666 
L 3525 4397 
L 1831 0 
L 1172 0 
L 2766 4134 
L 525 4134 
L 525 4666 
z
" transform="scale(0.015625)"/>
       </defs>
       <use xlink:href="#DejaVuSans-37"/>
       <use xlink:href="#DejaVuSans-35" x="63.623047"/>
      </g>
     </g>
    </g>
    <g id="xtick_5">
     <g id="line2d_5">
      <g>
       <use xlink:href="#m5116ea0c02" x="207.983439" y="318.04" style="stroke: #000000; stroke-width: 0.8"/>
      </g>
     </g>
     <g id="text_5">
      <!-- 100 -->
      <g transform="translate(198.439689 332.638438) scale(0.1 -0.1)">
       <defs>
        <path id="DejaVuSans-31" d="M 794 531 
L 1825 531 
L 1825 4091 
L 703 3866 
L 703 4441 
L 1819 4666 
L 2450 4666 
L 2450 531 
L 3481 531 
L 3481 0 
L 794 0 
L 794 531 
z
" transform="scale(0.015625)"/>
       </defs>
       <use xlink:href="#DejaVuSans-31"/>
       <use xlink:href="#DejaVuSans-30" x="63.623047"/>
       <use xlink:href="#DejaVuSans-30" x="127.246094"/>
      </g>
     </g>
    </g>
    <g id="xtick_6">
     <g id="line2d_6">
      <g>
       <use xlink:href="#m5116ea0c02" x="244.589981" y="318.04" style="stroke: #000000; stroke-width: 0.8"/>
      </g>
     </g>
     <g id="text_6">
      <!-- 125 -->
      <g transform="translate(235.046231 332.638438) scale(0.1 -0.1)">
       <use xlink:href="#DejaVuSans-31"/>
       <use xlink:href="#DejaVuSans-32" x="63.623047"/>
       <use xlink:href="#DejaVuSans-35" x="127.246094"/>
      </g>
     </g>
    </g>
    <g id="xtick_7">
     <g id="line2d_7">
      <g>
       <use xlink:href="#m5116ea0c02" x="281.196522" y="318.04" style="stroke: #000000; stroke-width: 0.8"/>
      </g>
     </g>
     <g id="text_7">
      <!-- 150 -->
      <g transform="translate(271.652772 332.638438) scale(0.1 -0.1)">
       <use xlink:href="#DejaVuSans-31"/>
       <use xlink:href="#DejaVuSans-35" x="63.623047"/>
       <use xlink:href="#DejaVuSans-30" x="127.246094"/>
      </g>
     </g>
    </g>
    <g id="xtick_8">
     <g id="line2d_8">
      <g>
       <use xlink:href="#m5116ea0c02" x="317.803064" y="318.04" style="stroke: #000000; stroke-width: 0.8"/>
      </g>
     </g>
     <g id="text_8">
      <!-- 175 -->
      <g transform="translate(308.259314 332.638438) scale(0.1 -0.1)">
       <use xlink:href="#DejaVuSans-31"/>
       <use xlink:href="#DejaVuSans-37" x="63.623047"/>
       <use xlink:href="#DejaVuSans-35" x="127.246094"/>
      </g>
     </g>
    </g>
    <g id="text_9">
     <!-- Epoch -->
     <g transform="translate(184.619062 346.316563) scale(0.1 -0.1)">
      <defs>
       <path id="DejaVuSans-45" d="M 628 4666 
L 3578 4666 
L 3578 4134 
L 1259 4134 
L 1259 2753 
L 3481 2753 
L 3481 2222 
L 1259 2222 
L 1259 531 
L 3634 531 
L 3634 0 
L 628 0 
L 628 4666 
z
" transform="scale(0.015625)"/>
       <path id="DejaVuSans-70" d="M 1159 525 
L 1159 -1331 
L 581 -1331 
L 581 3500 
L 1159 3500 
L 1159 2969 
Q 1341 3281 1617 3432 
Q 1894 3584 2278 3584 
Q 2916 3584 3314 3078 
Q 3713 2572 3713 1747 
Q 3713 922 3314 415 
Q 2916 -91 2278 -91 
Q 1894 -91 1617 61 
Q 1341 213 1159 525 
z
M 3116 1747 
Q 3116 2381 2855 2742 
Q 2594 3103 2138 3103 
Q 1681 3103 1420 2742 
Q 1159 2381 1159 1747 
Q 1159 1113 1420 752 
Q 1681 391 2138 391 
Q 2594 391 2855 752 
Q 3116 1113 3116 1747 
z
" transform="scale(0.015625)"/>
       <path id="DejaVuSans-6f" d="M 1959 3097 
Q 1497 3097 1228 2736 
Q 959 2375 959 1747 
Q 959 1119 1226 758 
Q 1494 397 1959 397 
Q 2419 397 2687 759 
Q 2956 1122 2956 1747 
Q 2956 2369 2687 2733 
Q 2419 3097 1959 3097 
z
M 1959 3584 
Q 2709 3584 3137 3096 
Q 3566 2609 3566 1747 
Q 3566 888 3137 398 
Q 2709 -91 1959 -91 
Q 1206 -91 779 398 
Q 353 888 353 1747 
Q 353 2609 779 3096 
Q 1206 3584 1959 3584 
z
" transform="scale(0.015625)"/>
       <path id="DejaVuSans-63" d="M 3122 3366 
L 3122 2828 
Q 2878 2963 2633 3030 
Q 2388 3097 2138 3097 
Q 1578 3097 1268 2742 
Q 959 2388 959 1747 
Q 959 1106 1268 751 
Q 1578 397 2138 397 
Q 2388 397 2633 464 
Q 2878 531 3122 666 
L 3122 134 
Q 2881 22 2623 -34 
Q 2366 -91 2075 -91 
Q 1284 -91 818 406 
Q 353 903 353 1747 
Q 353 2603 823 3093 
Q 1294 3584 2113 3584 
Q 2378 3584 2631 3529 
Q 2884 3475 3122 3366 
z
" transform="scale(0.015625)"/>
       <path id="DejaVuSans-68" d="M 3513 2113 
L 3513 0 
L 2938 0 
L 2938 2094 
Q 2938 2591 2744 2837 
Q 2550 3084 2163 3084 
Q 1697 3084 1428 2787 
Q 1159 2491 1159 1978 
L 1159 0 
L 581 0 
L 581 4863 
L 1159 4863 
L 1159 2956 
Q 1366 3272 1645 3428 
Q 1925 3584 2291 3584 
Q 2894 3584 3203 3211 
Q 3513 2838 3513 2113 
z
" transform="scale(0.015625)"/>
      </defs>
      <use xlink:href="#DejaVuSans-45"/>
      <use xlink:href="#DejaVuSans-70" x="63.183594"/>
      <use xlink:href="#DejaVuSans-6f" x="126.660156"/>
      <use xlink:href="#DejaVuSans-63" x="187.841797"/>
      <use xlink:href="#DejaVuSans-68" x="242.822266"/>
     </g>
    </g>
   </g>
   <g id="matplotlib.axis_2">
    <g id="ytick_1">
     <g id="line2d_9">
      <defs>
       <path id="m96edf6718d" d="M 0 0 
L -3.5 0 
" style="stroke: #000000; stroke-width: 0.8"/>
      </defs>
      <g>
       <use xlink:href="#m96edf6718d" x="47.72" y="268.742289" style="stroke: #000000; stroke-width: 0.8"/>
      </g>
     </g>
     <g id="text_10">
      <!-- 0.4 -->
      <g transform="translate(24.816875 272.541508) scale(0.1 -0.1)">
       <defs>
        <path id="DejaVuSans-2e" d="M 684 794 
L 1344 794 
L 1344 0 
L 684 0 
L 684 794 
z
" transform="scale(0.015625)"/>
        <path id="DejaVuSans-34" d="M 2419 4116 
L 825 1625 
L 2419 1625 
L 2419 4116 
z
M 2253 4666 
L 3047 4666 
L 3047 1625 
L 3713 1625 
L 3713 1100 
L 3047 1100 
L 3047 0 
L 2419 0 
L 2419 1100 
L 313 1100 
L 313 1709 
L 2253 4666 
z
" transform="scale(0.015625)"/>
       </defs>
       <use xlink:href="#DejaVuSans-30"/>
       <use xlink:href="#DejaVuSans-2e" x="63.623047"/>
       <use xlink:href="#DejaVuSans-34" x="95.410156"/>
      </g>
     </g>
    </g>
    <g id="ytick_2">
     <g id="line2d_10">
      <g>
       <use xlink:href="#m96edf6718d" x="47.72" y="217.52609" style="stroke: #000000; stroke-width: 0.8"/>
      </g>
     </g>
     <g id="text_11">
      <!-- 0.6 -->
      <g transform="translate(24.816875 221.325309) scale(0.1 -0.1)">
       <defs>
        <path id="DejaVuSans-36" d="M 2113 2584 
Q 1688 2584 1439 2293 
Q 1191 2003 1191 1497 
Q 1191 994 1439 701 
Q 1688 409 2113 409 
Q 2538 409 2786 701 
Q 3034 994 3034 1497 
Q 3034 2003 2786 2293 
Q 2538 2584 2113 2584 
z
M 3366 4563 
L 3366 3988 
Q 3128 4100 2886 4159 
Q 2644 4219 2406 4219 
Q 1781 4219 1451 3797 
Q 1122 3375 1075 2522 
Q 1259 2794 1537 2939 
Q 1816 3084 2150 3084 
Q 2853 3084 3261 2657 
Q 3669 2231 3669 1497 
Q 3669 778 3244 343 
Q 2819 -91 2113 -91 
Q 1303 -91 875 529 
Q 447 1150 447 2328 
Q 447 3434 972 4092 
Q 1497 4750 2381 4750 
Q 2619 4750 2861 4703 
Q 3103 4656 3366 4563 
z
" transform="scale(0.015625)"/>
       </defs>
       <use xlink:href="#DejaVuSans-30"/>
       <use xlink:href="#DejaVuSans-2e" x="63.623047"/>
       <use xlink:href="#DejaVuSans-36" x="95.410156"/>
      </g>
     </g>
    </g>
    <g id="ytick_3">
     <g id="line2d_11">
      <g>
       <use xlink:href="#m96edf6718d" x="47.72" y="166.309892" style="stroke: #000000; stroke-width: 0.8"/>
      </g>
     </g>
     <g id="text_12">
      <!-- 0.8 -->
      <g transform="translate(24.816875 170.109111) scale(0.1 -0.1)">
       <defs>
        <path id="DejaVuSans-38" d="M 2034 2216 
Q 1584 2216 1326 1975 
Q 1069 1734 1069 1313 
Q 1069 891 1326 650 
Q 1584 409 2034 409 
Q 2484 409 2743 651 
Q 3003 894 3003 1313 
Q 3003 1734 2745 1975 
Q 2488 2216 2034 2216 
z
M 1403 2484 
Q 997 2584 770 2862 
Q 544 3141 544 3541 
Q 544 4100 942 4425 
Q 1341 4750 2034 4750 
Q 2731 4750 3128 4425 
Q 3525 4100 3525 3541 
Q 3525 3141 3298 2862 
Q 3072 2584 2669 2484 
Q 3125 2378 3379 2068 
Q 3634 1759 3634 1313 
Q 3634 634 3220 271 
Q 2806 -91 2034 -91 
Q 1263 -91 848 271 
Q 434 634 434 1313 
Q 434 1759 690 2068 
Q 947 2378 1403 2484 
z
M 1172 3481 
Q 1172 3119 1398 2916 
Q 1625 2713 2034 2713 
Q 2441 2713 2670 2916 
Q 2900 3119 2900 3481 
Q 2900 3844 2670 4047 
Q 2441 4250 2034 4250 
Q 1625 4250 1398 4047 
Q 1172 3844 1172 3481 
z
" transform="scale(0.015625)"/>
       </defs>
       <use xlink:href="#DejaVuSans-30"/>
       <use xlink:href="#DejaVuSans-2e" x="63.623047"/>
       <use xlink:href="#DejaVuSans-38" x="95.410156"/>
      </g>
     </g>
    </g>
    <g id="ytick_4">
     <g id="line2d_12">
      <g>
       <use xlink:href="#m96edf6718d" x="47.72" y="115.093693" style="stroke: #000000; stroke-width: 0.8"/>
      </g>
     </g>
     <g id="text_13">
      <!-- 1.0 -->
      <g transform="translate(24.816875 118.892912) scale(0.1 -0.1)">
       <use xlink:href="#DejaVuSans-31"/>
       <use xlink:href="#DejaVuSans-2e" x="63.623047"/>
       <use xlink:href="#DejaVuSans-30" x="95.410156"/>
      </g>
     </g>
    </g>
    <g id="ytick_5">
     <g id="line2d_13">
      <g>
       <use xlink:href="#m96edf6718d" x="47.72" y="63.877495" style="stroke: #000000; stroke-width: 0.8"/>
      </g>
     </g>
     <g id="text_14">
      <!-- 1.2 -->
      <g transform="translate(24.816875 67.676714) scale(0.1 -0.1)">
       <use xlink:href="#DejaVuSans-31"/>
       <use xlink:href="#DejaVuSans-2e" x="63.623047"/>
       <use xlink:href="#DejaVuSans-32" x="95.410156"/>
      </g>
     </g>
    </g>
    <g id="text_15">
     <!-- Loss -->
     <g transform="translate(18.737187 183.427188) rotate(-90) scale(0.1 -0.1)">
      <defs>
       <path id="DejaVuSans-4c" d="M 628 4666 
L 1259 4666 
L 1259 531 
L 3531 531 
L 3531 0 
L 628 0 
L 628 4666 
z
" transform="scale(0.015625)"/>
       <path id="DejaVuSans-73" d="M 2834 3397 
L 2834 2853 
Q 2591 2978 2328 3040 
Q 2066 3103 1784 3103 
Q 1356 3103 1142 2972 
Q 928 2841 928 2578 
Q 928 2378 1081 2264 
Q 1234 2150 1697 2047 
L 1894 2003 
Q 2506 1872 2764 1633 
Q 3022 1394 3022 966 
Q 3022 478 2636 193 
Q 2250 -91 1575 -91 
Q 1294 -91 989 -36 
Q 684 19 347 128 
L 347 722 
Q 666 556 975 473 
Q 1284 391 1588 391 
Q 1994 391 2212 530 
Q 2431 669 2431 922 
Q 2431 1156 2273 1281 
Q 2116 1406 1581 1522 
L 1381 1569 
Q 847 1681 609 1914 
Q 372 2147 372 2553 
Q 372 3047 722 3315 
Q 1072 3584 1716 3584 
Q 2034 3584 2315 3537 
Q 2597 3491 2834 3397 
z
" transform="scale(0.015625)"/>
      </defs>
      <use xlink:href="#DejaVuSans-4c"/>
      <use xlink:href="#DejaVuSans-6f" x="53.962891"/>
      <use xlink:href="#DejaVuSans-73" x="115.144531"/>
      <use xlink:href="#DejaVuSans-73" x="167.244141"/>
     </g>
    </g>
   </g>
   <g id="line2d_14">
    <path d="M 61.557273 215.04598 
L 63.021534 209.956413 
L 64.485796 211.379013 
L 65.950058 209.0359 
L 67.414319 207.229432 
L 68.878581 208.535746 
L 70.342843 207.850445 
L 71.807104 208.058788 
L 73.271366 214.178194 
L 74.735628 218.822094 
L 76.199889 217.996575 
L 77.664151 225.981808 
L 79.128413 237.623562 
L 80.592674 239.802383 
L 82.056936 242.324777 
L 83.521198 248.026429 
L 84.985459 252.340641 
L 86.449721 255.244472 
L 87.913983 260.222641 
L 89.378244 260.075752 
L 90.842506 262.092432 
L 92.306768 266.837915 
L 93.771029 269.449795 
L 95.235291 271.183225 
L 96.699553 273.528295 
L 98.163814 273.290145 
L 99.628076 275.988112 
L 101.092338 277.502614 
L 102.556599 277.260026 
L 104.020861 277.662837 
L 105.485123 278.798921 
L 106.949384 279.791788 
L 108.413646 280.557118 
L 109.877908 280.46433 
L 111.342169 281.629166 
L 112.806431 281.695189 
L 114.270693 282.437273 
L 115.734954 282.607496 
L 117.199216 282.433483 
L 118.663478 283.879315 
L 120.127739 283.367062 
L 121.592001 283.832506 
L 123.056263 282.278278 
L 124.520524 282.667874 
L 125.984786 285.83488 
L 127.449048 285.823534 
L 128.913309 286.20971 
L 130.377571 286.888184 
L 131.841833 286.696969 
L 133.306094 287.392882 
L 134.770356 288.217551 
L 136.234618 286.883018 
L 137.698879 289.374187 
L 139.163141 287.845345 
L 140.627403 289.459695 
L 143.555926 289.125536 
L 145.020188 289.564094 
L 146.484449 289.836585 
L 147.948711 290.351103 
L 149.412973 290.227117 
L 150.877234 290.98886 
L 152.341496 290.050438 
L 153.805758 290.281514 
L 155.270019 290.668544 
L 158.198543 290.492174 
L 159.662804 292.808379 
L 161.127066 291.466203 
L 162.591328 290.859029 
L 164.055589 291.696143 
L 165.519851 290.956956 
L 166.984113 291.632087 
L 168.448374 293.541598 
L 169.912636 290.849113 
L 171.376898 292.782868 
L 172.841159 292.985265 
L 174.305421 293.760615 
L 177.233944 294.393494 
L 178.698206 294.102654 
L 180.162468 294.435128 
L 181.626729 293.723528 
L 184.555253 293.93226 
L 186.019514 295.29691 
L 187.483776 293.839577 
L 188.948038 294.401424 
L 190.412299 295.373321 
L 191.876561 294.893054 
L 193.340823 293.744619 
L 194.805084 294.945145 
L 196.269346 294.728116 
L 197.733608 294.692402 
L 199.197869 295.66511 
L 200.662131 295.448636 
L 202.126392 294.678036 
L 203.590654 295.815985 
L 205.054916 294.958376 
L 206.519177 295.415542 
L 207.983439 296.539466 
L 209.447701 295.739043 
L 210.911962 296.761209 
L 212.376224 296.713026 
L 213.840486 296.550363 
L 215.304747 297.603791 
L 216.769009 297.931369 
L 218.233271 297.213086 
L 219.697532 296.814325 
L 221.161794 297.836617 
L 222.626056 297.250353 
L 224.090317 297.899424 
L 225.554579 298.362423 
L 227.018841 297.985073 
L 228.483102 298.910809 
L 229.947364 298.501291 
L 231.411626 298.423886 
L 232.875887 298.552706 
L 234.340149 298.031117 
L 235.804411 298.496249 
L 237.268672 297.091857 
L 238.732934 298.323132 
L 240.197196 299.028573 
L 241.661457 299.213876 
L 243.125719 298.594872 
L 244.589981 298.893954 
L 246.054242 300.059685 
L 247.518504 299.58714 
L 250.447027 298.983336 
L 251.911289 300.321242 
L 253.375551 300.884037 
L 254.839812 300.22322 
L 256.304074 300.517228 
L 257.768336 299.623064 
L 259.232597 299.843328 
L 260.696859 299.862334 
L 262.161121 300.523873 
L 263.625382 300.825019 
L 265.089644 300.810368 
L 266.553906 301.683507 
L 268.018167 300.711604 
L 269.482429 301.287508 
L 270.946691 300.607842 
L 272.410952 300.873261 
L 273.875214 301.295468 
L 275.339476 300.158834 
L 276.803737 300.947413 
L 278.267999 300.995451 
L 279.732261 301.304452 
L 281.196522 302.540491 
L 282.660784 301.617114 
L 284.125046 302.025052 
L 287.053569 302.085347 
L 288.517831 302.947599 
L 289.982092 303.377659 
L 291.446354 302.565013 
L 292.910616 303.260393 
L 294.374877 302.735608 
L 295.839139 301.992277 
L 297.303401 302.598425 
L 298.767662 302.954206 
L 300.231924 302.760269 
L 301.696186 302.986831 
L 303.160447 302.747863 
L 304.624709 302.800867 
L 306.088971 302.508748 
L 307.553232 302.71574 
L 309.017494 303.253055 
L 311.946017 302.571379 
L 314.874541 302.932453 
L 316.338802 303.427376 
L 317.803064 303.653135 
L 319.267326 303.583595 
L 320.731587 304.370092 
L 322.195849 302.789477 
L 323.660111 304.12386 
L 325.124372 302.983848 
L 326.588634 304.262087 
L 328.052896 303.83189 
L 329.517157 304.01625 
L 330.981419 303.902922 
L 335.374204 304.243176 
L 336.838466 304.805455 
L 338.302727 303.702287 
L 338.302727 303.702287 
" clip-path="url(#p62e747a2ed)" style="fill: none; stroke: #1f77b4; stroke-width: 1.5; stroke-linecap: square"/>
   </g>
   <g id="line2d_15">
    <path d="M 61.557273 129.001748 
L 63.021534 117.847725 
L 64.485796 40.114545 
L 65.950058 170.196459 
L 67.414319 165.344733 
L 68.878581 148.664175 
L 70.342843 152.444368 
L 71.807104 117.804195 
L 73.271366 136.712889 
L 74.735628 160.902021 
L 76.199889 163.691273 
L 77.664151 187.662697 
L 79.128413 161.972951 
L 80.592674 160.483032 
L 82.056936 177.37195 
L 83.521198 158.886596 
L 84.985459 148.734871 
L 86.449721 148.157782 
L 87.913983 162.635607 
L 89.378244 98.787434 
L 90.842506 134.69013 
L 92.306768 173.681599 
L 93.771029 192.546981 
L 95.235291 187.184686 
L 96.699553 142.862566 
L 98.163814 163.521708 
L 99.628076 168.691742 
L 101.092338 185.505066 
L 102.556599 164.666261 
L 104.020861 182.243874 
L 105.485123 162.333109 
L 106.949384 137.395344 
L 108.413646 177.811606 
L 109.877908 202.941689 
L 111.342169 207.241625 
L 112.806431 198.043396 
L 114.270693 186.114576 
L 115.734954 159.278465 
L 117.199216 203.732902 
L 118.663478 135.360716 
L 120.127739 133.637992 
L 121.592001 139.754335 
L 123.056263 155.403921 
L 124.520524 222.668943 
L 125.984786 183.076032 
L 127.449048 162.345483 
L 128.913309 207.677289 
L 130.377571 243.234903 
L 131.841833 220.593417 
L 133.306094 209.712785 
L 134.770356 169.350529 
L 136.234618 240.542303 
L 137.698879 183.517017 
L 139.163141 212.949147 
L 140.627403 205.857752 
L 142.091664 200.944746 
L 143.555926 205.126288 
L 145.020188 184.31238 
L 146.484449 210.705543 
L 147.948711 196.768228 
L 149.412973 237.551609 
L 150.877234 196.738847 
L 152.341496 199.954129 
L 153.805758 210.493385 
L 155.270019 216.272867 
L 156.734281 150.89939 
L 158.198543 253.778241 
L 159.662804 208.552722 
L 161.127066 220.64314 
L 162.591328 195.832056 
L 164.055589 187.367038 
L 165.519851 229.777684 
L 166.984113 201.423229 
L 168.448374 185.57578 
L 169.912636 195.990095 
L 171.376898 230.604539 
L 172.841159 201.007054 
L 174.305421 210.096053 
L 175.769683 207.223107 
L 177.233944 221.592357 
L 178.698206 212.342928 
L 180.162468 148.336522 
L 181.626729 178.130219 
L 183.090991 213.169487 
L 184.555253 240.383448 
L 186.019514 170.51407 
L 187.483776 194.488466 
L 188.948038 230.141235 
L 190.412299 240.89607 
L 191.876561 185.531275 
L 193.340823 213.463377 
L 194.805084 195.981872 
L 196.269346 220.986617 
L 197.733608 211.771961 
L 199.197869 206.716362 
L 200.662131 212.711348 
L 202.126392 201.759787 
L 203.590654 171.300537 
L 205.054916 194.04906 
L 206.519177 224.153409 
L 207.983439 224.265973 
L 209.447701 222.386365 
L 210.911962 228.312662 
L 212.376224 168.117538 
L 213.840486 228.906965 
L 215.304747 258.121916 
L 216.769009 211.289109 
L 218.233271 182.15157 
L 219.697532 230.502605 
L 221.161794 192.90853 
L 222.626056 230.831182 
L 224.090317 230.565249 
L 225.554579 200.396578 
L 227.018841 250.821624 
L 228.483102 221.66926 
L 229.947364 218.999645 
L 231.411626 238.820792 
L 232.875887 196.834525 
L 234.340149 236.824096 
L 235.804411 199.683457 
L 237.268672 196.627121 
L 238.732934 245.780612 
L 240.197196 212.287875 
L 241.661457 234.101016 
L 243.125719 201.209965 
L 244.589981 212.934806 
L 246.054242 216.534702 
L 247.518504 194.24776 
L 248.982766 176.122532 
L 250.447027 228.816732 
L 251.911289 226.214672 
L 253.375551 203.546947 
L 254.839812 230.332905 
L 256.304074 224.771014 
L 257.768336 229.404656 
L 259.232597 209.711536 
L 260.696859 237.916656 
L 262.161121 253.088972 
L 263.625382 217.247243 
L 265.089644 260.919869 
L 266.553906 225.727985 
L 268.018167 210.943977 
L 269.482429 217.258109 
L 270.946691 226.771727 
L 272.410952 219.193027 
L 273.875214 184.65785 
L 275.339476 225.556138 
L 278.267999 217.392423 
L 279.732261 244.435306 
L 281.196522 228.612223 
L 282.660784 245.3725 
L 284.125046 235.589247 
L 285.589307 241.38223 
L 287.053569 263.765128 
L 288.517831 264.131485 
L 289.982092 238.988722 
L 291.446354 238.10106 
L 292.910616 230.260985 
L 294.374877 233.693813 
L 295.839139 236.107982 
L 297.303401 255.015151 
L 298.767662 234.788444 
L 300.231924 224.151149 
L 301.696186 235.543333 
L 303.160447 236.628193 
L 304.624709 182.621128 
L 306.088971 216.656324 
L 307.553232 214.601183 
L 309.017494 234.012508 
L 310.481756 213.313909 
L 311.946017 242.331696 
L 313.410279 236.465102 
L 314.874541 239.521292 
L 316.338802 246.877458 
L 317.803064 230.612118 
L 319.267326 241.744808 
L 320.731587 200.894749 
L 322.195849 231.781864 
L 323.660111 201.292878 
L 325.124372 254.75753 
L 326.588634 230.103199 
L 328.052896 218.793503 
L 329.517157 228.939651 
L 330.981419 231.556142 
L 332.445681 242.138551 
L 333.909942 240.490305 
L 335.374204 262.974076 
L 336.838466 214.695985 
L 338.302727 196.874084 
L 338.302727 196.874084 
" clip-path="url(#p62e747a2ed)" style="fill: none; stroke: #ff7f0e; stroke-width: 1.5; stroke-linecap: square"/>
   </g>
   <g id="patch_3">
    <path d="M 47.72 318.04 
L 47.72 26.88 
" style="fill: none; stroke: #000000; stroke-width: 0.8; stroke-linejoin: miter; stroke-linecap: square"/>
   </g>
   <g id="patch_4">
    <path d="M 352.14 318.04 
L 352.14 26.88 
" style="fill: none; stroke: #000000; stroke-width: 0.8; stroke-linejoin: miter; stroke-linecap: square"/>
   </g>
   <g id="patch_5">
    <path d="M 47.72 318.04 
L 352.14 318.04 
" style="fill: none; stroke: #000000; stroke-width: 0.8; stroke-linejoin: miter; stroke-linecap: square"/>
   </g>
   <g id="patch_6">
    <path d="M 47.72 26.88 
L 352.14 26.88 
" style="fill: none; stroke: #000000; stroke-width: 0.8; stroke-linejoin: miter; stroke-linecap: square"/>
   </g>
   <g id="text_16">
    <!-- Loss vs Epoch -->
    <g transform="translate(157.905625 20.88) scale(0.12 -0.12)">
     <defs>
      <path id="DejaVuSans-20" transform="scale(0.015625)"/>
      <path id="DejaVuSans-76" d="M 191 3500 
L 800 3500 
L 1894 563 
L 2988 3500 
L 3597 3500 
L 2284 0 
L 1503 0 
L 191 3500 
z
" transform="scale(0.015625)"/>
     </defs>
     <use xlink:href="#DejaVuSans-4c"/>
     <use xlink:href="#DejaVuSans-6f" x="53.962891"/>
     <use xlink:href="#DejaVuSans-73" x="115.144531"/>
     <use xlink:href="#DejaVuSans-73" x="167.244141"/>
     <use xlink:href="#DejaVuSans-20" x="219.34375"/>
     <use xlink:href="#DejaVuSans-76" x="251.130859"/>
     <use xlink:href="#DejaVuSans-73" x="310.310547"/>
     <use xlink:href="#DejaVuSans-20" x="362.410156"/>
     <use xlink:href="#DejaVuSans-45" x="394.197266"/>
     <use xlink:href="#DejaVuSans-70" x="457.380859"/>
     <use xlink:href="#DejaVuSans-6f" x="520.857422"/>
     <use xlink:href="#DejaVuSans-63" x="582.039062"/>
     <use xlink:href="#DejaVuSans-68" x="637.019531"/>
    </g>
   </g>
   <g id="legend_1">
    <g id="patch_7">
     <path d="M 238.64625 64.23625 
L 345.14 64.23625 
Q 347.14 64.23625 347.14 62.23625 
L 347.14 33.88 
Q 347.14 31.88 345.14 31.88 
L 238.64625 31.88 
Q 236.64625 31.88 236.64625 33.88 
L 236.64625 62.23625 
Q 236.64625 64.23625 238.64625 64.23625 
z
" style="fill: #ffffff; opacity: 0.8; stroke: #cccccc; stroke-linejoin: miter"/>
    </g>
    <g id="line2d_16">
     <path d="M 240.64625 39.978437 
L 250.64625 39.978437 
L 260.64625 39.978437 
" style="fill: none; stroke: #1f77b4; stroke-width: 1.5; stroke-linecap: square"/>
    </g>
    <g id="text_17">
     <!-- Train Loss -->
     <g transform="translate(268.64625 43.478437) scale(0.1 -0.1)">
      <defs>
       <path id="DejaVuSans-54" d="M -19 4666 
L 3928 4666 
L 3928 4134 
L 2272 4134 
L 2272 0 
L 1638 0 
L 1638 4134 
L -19 4134 
L -19 4666 
z
" transform="scale(0.015625)"/>
       <path id="DejaVuSans-72" d="M 2631 2963 
Q 2534 3019 2420 3045 
Q 2306 3072 2169 3072 
Q 1681 3072 1420 2755 
Q 1159 2438 1159 1844 
L 1159 0 
L 581 0 
L 581 3500 
L 1159 3500 
L 1159 2956 
Q 1341 3275 1631 3429 
Q 1922 3584 2338 3584 
Q 2397 3584 2469 3576 
Q 2541 3569 2628 3553 
L 2631 2963 
z
" transform="scale(0.015625)"/>
       <path id="DejaVuSans-61" d="M 2194 1759 
Q 1497 1759 1228 1600 
Q 959 1441 959 1056 
Q 959 750 1161 570 
Q 1363 391 1709 391 
Q 2188 391 2477 730 
Q 2766 1069 2766 1631 
L 2766 1759 
L 2194 1759 
z
M 3341 1997 
L 3341 0 
L 2766 0 
L 2766 531 
Q 2569 213 2275 61 
Q 1981 -91 1556 -91 
Q 1019 -91 701 211 
Q 384 513 384 1019 
Q 384 1609 779 1909 
Q 1175 2209 1959 2209 
L 2766 2209 
L 2766 2266 
Q 2766 2663 2505 2880 
Q 2244 3097 1772 3097 
Q 1472 3097 1187 3025 
Q 903 2953 641 2809 
L 641 3341 
Q 956 3463 1253 3523 
Q 1550 3584 1831 3584 
Q 2591 3584 2966 3190 
Q 3341 2797 3341 1997 
z
" transform="scale(0.015625)"/>
       <path id="DejaVuSans-69" d="M 603 3500 
L 1178 3500 
L 1178 0 
L 603 0 
L 603 3500 
z
M 603 4863 
L 1178 4863 
L 1178 4134 
L 603 4134 
L 603 4863 
z
" transform="scale(0.015625)"/>
       <path id="DejaVuSans-6e" d="M 3513 2113 
L 3513 0 
L 2938 0 
L 2938 2094 
Q 2938 2591 2744 2837 
Q 2550 3084 2163 3084 
Q 1697 3084 1428 2787 
Q 1159 2491 1159 1978 
L 1159 0 
L 581 0 
L 581 3500 
L 1159 3500 
L 1159 2956 
Q 1366 3272 1645 3428 
Q 1925 3584 2291 3584 
Q 2894 3584 3203 3211 
Q 3513 2838 3513 2113 
z
" transform="scale(0.015625)"/>
      </defs>
      <use xlink:href="#DejaVuSans-54"/>
      <use xlink:href="#DejaVuSans-72" x="46.333984"/>
      <use xlink:href="#DejaVuSans-61" x="87.447266"/>
      <use xlink:href="#DejaVuSans-69" x="148.726562"/>
      <use xlink:href="#DejaVuSans-6e" x="176.509766"/>
      <use xlink:href="#DejaVuSans-20" x="239.888672"/>
      <use xlink:href="#DejaVuSans-4c" x="271.675781"/>
      <use xlink:href="#DejaVuSans-6f" x="325.638672"/>
      <use xlink:href="#DejaVuSans-73" x="386.820312"/>
      <use xlink:href="#DejaVuSans-73" x="438.919922"/>
     </g>
    </g>
    <g id="line2d_17">
     <path d="M 240.64625 54.656563 
L 250.64625 54.656563 
L 260.64625 54.656563 
" style="fill: none; stroke: #ff7f0e; stroke-width: 1.5; stroke-linecap: square"/>
    </g>
    <g id="text_18">
     <!-- Validation Loss -->
     <g transform="translate(268.64625 58.156563) scale(0.1 -0.1)">
      <defs>
       <path id="DejaVuSans-56" d="M 1831 0 
L 50 4666 
L 709 4666 
L 2188 738 
L 3669 4666 
L 4325 4666 
L 2547 0 
L 1831 0 
z
" transform="scale(0.015625)"/>
       <path id="DejaVuSans-6c" d="M 603 4863 
L 1178 4863 
L 1178 0 
L 603 0 
L 603 4863 
z
" transform="scale(0.015625)"/>
       <path id="DejaVuSans-64" d="M 2906 2969 
L 2906 4863 
L 3481 4863 
L 3481 0 
L 2906 0 
L 2906 525 
Q 2725 213 2448 61 
Q 2172 -91 1784 -91 
Q 1150 -91 751 415 
Q 353 922 353 1747 
Q 353 2572 751 3078 
Q 1150 3584 1784 3584 
Q 2172 3584 2448 3432 
Q 2725 3281 2906 2969 
z
M 947 1747 
Q 947 1113 1208 752 
Q 1469 391 1925 391 
Q 2381 391 2643 752 
Q 2906 1113 2906 1747 
Q 2906 2381 2643 2742 
Q 2381 3103 1925 3103 
Q 1469 3103 1208 2742 
Q 947 2381 947 1747 
z
" transform="scale(0.015625)"/>
       <path id="DejaVuSans-74" d="M 1172 4494 
L 1172 3500 
L 2356 3500 
L 2356 3053 
L 1172 3053 
L 1172 1153 
Q 1172 725 1289 603 
Q 1406 481 1766 481 
L 2356 481 
L 2356 0 
L 1766 0 
Q 1100 0 847 248 
Q 594 497 594 1153 
L 594 3053 
L 172 3053 
L 172 3500 
L 594 3500 
L 594 4494 
L 1172 4494 
z
" transform="scale(0.015625)"/>
      </defs>
      <use xlink:href="#DejaVuSans-56"/>
      <use xlink:href="#DejaVuSans-61" x="60.658203"/>
      <use xlink:href="#DejaVuSans-6c" x="121.9375"/>
      <use xlink:href="#DejaVuSans-69" x="149.720703"/>
      <use xlink:href="#DejaVuSans-64" x="177.503906"/>
      <use xlink:href="#DejaVuSans-61" x="240.980469"/>
      <use xlink:href="#DejaVuSans-74" x="302.259766"/>
      <use xlink:href="#DejaVuSans-69" x="341.46875"/>
      <use xlink:href="#DejaVuSans-6f" x="369.251953"/>
      <use xlink:href="#DejaVuSans-6e" x="430.433594"/>
      <use xlink:href="#DejaVuSans-20" x="493.8125"/>
      <use xlink:href="#DejaVuSans-4c" x="525.599609"/>
      <use xlink:href="#DejaVuSans-6f" x="579.5625"/>
      <use xlink:href="#DejaVuSans-73" x="640.744141"/>
      <use xlink:href="#DejaVuSans-73" x="692.84375"/>
     </g>
    </g>
   </g>
  </g>
  <g id="axes_2">
   <g id="patch_8">
    <path d="M 406.25 318.04 
L 710.67 318.04 
L 710.67 26.88 
L 406.25 26.88 
z
" style="fill: #ffffff"/>
   </g>
   <g id="matplotlib.axis_3">
    <g id="xtick_9">
     <g id="line2d_18">
      <g>
       <use xlink:href="#m5116ea0c02" x="420.087273" y="318.04" style="stroke: #000000; stroke-width: 0.8"/>
      </g>
     </g>
     <g id="text_19">
      <!-- 0 -->
      <g transform="translate(416.906023 332.638438) scale(0.1 -0.1)">
       <use xlink:href="#DejaVuSans-30"/>
      </g>
     </g>
    </g>
    <g id="xtick_10">
     <g id="line2d_19">
      <g>
       <use xlink:href="#m5116ea0c02" x="456.693814" y="318.04" style="stroke: #000000; stroke-width: 0.8"/>
      </g>
     </g>
     <g id="text_20">
      <!-- 25 -->
      <g transform="translate(450.331314 332.638438) scale(0.1 -0.1)">
       <use xlink:href="#DejaVuSans-32"/>
       <use xlink:href="#DejaVuSans-35" x="63.623047"/>
      </g>
     </g>
    </g>
    <g id="xtick_11">
     <g id="line2d_20">
      <g>
       <use xlink:href="#m5116ea0c02" x="493.300356" y="318.04" style="stroke: #000000; stroke-width: 0.8"/>
      </g>
     </g>
     <g id="text_21">
      <!-- 50 -->
      <g transform="translate(486.937856 332.638438) scale(0.1 -0.1)">
       <use xlink:href="#DejaVuSans-35"/>
       <use xlink:href="#DejaVuSans-30" x="63.623047"/>
      </g>
     </g>
    </g>
    <g id="xtick_12">
     <g id="line2d_21">
      <g>
       <use xlink:href="#m5116ea0c02" x="529.906898" y="318.04" style="stroke: #000000; stroke-width: 0.8"/>
      </g>
     </g>
     <g id="text_22">
      <!-- 75 -->
      <g transform="translate(523.544398 332.638438) scale(0.1 -0.1)">
       <use xlink:href="#DejaVuSans-37"/>
       <use xlink:href="#DejaVuSans-35" x="63.623047"/>
      </g>
     </g>
    </g>
    <g id="xtick_13">
     <g id="line2d_22">
      <g>
       <use xlink:href="#m5116ea0c02" x="566.513439" y="318.04" style="stroke: #000000; stroke-width: 0.8"/>
      </g>
     </g>
     <g id="text_23">
      <!-- 100 -->
      <g transform="translate(556.969689 332.638438) scale(0.1 -0.1)">
       <use xlink:href="#DejaVuSans-31"/>
       <use xlink:href="#DejaVuSans-30" x="63.623047"/>
       <use xlink:href="#DejaVuSans-30" x="127.246094"/>
      </g>
     </g>
    </g>
    <g id="xtick_14">
     <g id="line2d_23">
      <g>
       <use xlink:href="#m5116ea0c02" x="603.119981" y="318.04" style="stroke: #000000; stroke-width: 0.8"/>
      </g>
     </g>
     <g id="text_24">
      <!-- 125 -->
      <g transform="translate(593.576231 332.638438) scale(0.1 -0.1)">
       <use xlink:href="#DejaVuSans-31"/>
       <use xlink:href="#DejaVuSans-32" x="63.623047"/>
       <use xlink:href="#DejaVuSans-35" x="127.246094"/>
      </g>
     </g>
    </g>
    <g id="xtick_15">
     <g id="line2d_24">
      <g>
       <use xlink:href="#m5116ea0c02" x="639.726522" y="318.04" style="stroke: #000000; stroke-width: 0.8"/>
      </g>
     </g>
     <g id="text_25">
      <!-- 150 -->
      <g transform="translate(630.182772 332.638438) scale(0.1 -0.1)">
       <use xlink:href="#DejaVuSans-31"/>
       <use xlink:href="#DejaVuSans-35" x="63.623047"/>
       <use xlink:href="#DejaVuSans-30" x="127.246094"/>
      </g>
     </g>
    </g>
    <g id="xtick_16">
     <g id="line2d_25">
      <g>
       <use xlink:href="#m5116ea0c02" x="676.333064" y="318.04" style="stroke: #000000; stroke-width: 0.8"/>
      </g>
     </g>
     <g id="text_26">
      <!-- 175 -->
      <g transform="translate(666.789314 332.638438) scale(0.1 -0.1)">
       <use xlink:href="#DejaVuSans-31"/>
       <use xlink:href="#DejaVuSans-37" x="63.623047"/>
       <use xlink:href="#DejaVuSans-35" x="127.246094"/>
      </g>
     </g>
    </g>
    <g id="text_27">
     <!-- Epoch -->
     <g transform="translate(543.149063 346.316563) scale(0.1 -0.1)">
      <use xlink:href="#DejaVuSans-45"/>
      <use xlink:href="#DejaVuSans-70" x="63.183594"/>
      <use xlink:href="#DejaVuSans-6f" x="126.660156"/>
      <use xlink:href="#DejaVuSans-63" x="187.841797"/>
      <use xlink:href="#DejaVuSans-68" x="242.822266"/>
     </g>
    </g>
   </g>
   <g id="matplotlib.axis_4">
    <g id="ytick_6">
     <g id="line2d_26">
      <g>
       <use xlink:href="#m96edf6718d" x="406.25" y="289.353603" style="stroke: #000000; stroke-width: 0.8"/>
      </g>
     </g>
     <g id="text_28">
      <!-- 0.65 -->
      <g transform="translate(376.984375 293.152822) scale(0.1 -0.1)">
       <use xlink:href="#DejaVuSans-30"/>
       <use xlink:href="#DejaVuSans-2e" x="63.623047"/>
       <use xlink:href="#DejaVuSans-36" x="95.410156"/>
       <use xlink:href="#DejaVuSans-35" x="159.033203"/>
      </g>
     </g>
    </g>
    <g id="ytick_7">
     <g id="line2d_27">
      <g>
       <use xlink:href="#m96edf6718d" x="406.25" y="232.221289" style="stroke: #000000; stroke-width: 0.8"/>
      </g>
     </g>
     <g id="text_29">
      <!-- 0.70 -->
      <g transform="translate(376.984375 236.020508) scale(0.1 -0.1)">
       <use xlink:href="#DejaVuSans-30"/>
       <use xlink:href="#DejaVuSans-2e" x="63.623047"/>
       <use xlink:href="#DejaVuSans-37" x="95.410156"/>
       <use xlink:href="#DejaVuSans-30" x="159.033203"/>
      </g>
     </g>
    </g>
    <g id="ytick_8">
     <g id="line2d_28">
      <g>
       <use xlink:href="#m96edf6718d" x="406.25" y="175.088975" style="stroke: #000000; stroke-width: 0.8"/>
      </g>
     </g>
     <g id="text_30">
      <!-- 0.75 -->
      <g transform="translate(376.984375 178.888194) scale(0.1 -0.1)">
       <use xlink:href="#DejaVuSans-30"/>
       <use xlink:href="#DejaVuSans-2e" x="63.623047"/>
       <use xlink:href="#DejaVuSans-37" x="95.410156"/>
       <use xlink:href="#DejaVuSans-35" x="159.033203"/>
      </g>
     </g>
    </g>
    <g id="ytick_9">
     <g id="line2d_29">
      <g>
       <use xlink:href="#m96edf6718d" x="406.25" y="117.956661" style="stroke: #000000; stroke-width: 0.8"/>
      </g>
     </g>
     <g id="text_31">
      <!-- 0.80 -->
      <g transform="translate(376.984375 121.75588) scale(0.1 -0.1)">
       <use xlink:href="#DejaVuSans-30"/>
       <use xlink:href="#DejaVuSans-2e" x="63.623047"/>
       <use xlink:href="#DejaVuSans-38" x="95.410156"/>
       <use xlink:href="#DejaVuSans-30" x="159.033203"/>
      </g>
     </g>
    </g>
    <g id="ytick_10">
     <g id="line2d_30">
      <g>
       <use xlink:href="#m96edf6718d" x="406.25" y="60.824347" style="stroke: #000000; stroke-width: 0.8"/>
      </g>
     </g>
     <g id="text_32">
      <!-- 0.85 -->
      <g transform="translate(376.984375 64.623566) scale(0.1 -0.1)">
       <use xlink:href="#DejaVuSans-30"/>
       <use xlink:href="#DejaVuSans-2e" x="63.623047"/>
       <use xlink:href="#DejaVuSans-38" x="95.410156"/>
       <use xlink:href="#DejaVuSans-35" x="159.033203"/>
      </g>
     </g>
    </g>
    <g id="text_33">
     <!-- Accuracy -->
     <g transform="translate(370.904688 195.288125) rotate(-90) scale(0.1 -0.1)">
      <defs>
       <path id="DejaVuSans-41" d="M 2188 4044 
L 1331 1722 
L 3047 1722 
L 2188 4044 
z
M 1831 4666 
L 2547 4666 
L 4325 0 
L 3669 0 
L 3244 1197 
L 1141 1197 
L 716 0 
L 50 0 
L 1831 4666 
z
" transform="scale(0.015625)"/>
       <path id="DejaVuSans-75" d="M 544 1381 
L 544 3500 
L 1119 3500 
L 1119 1403 
Q 1119 906 1312 657 
Q 1506 409 1894 409 
Q 2359 409 2629 706 
Q 2900 1003 2900 1516 
L 2900 3500 
L 3475 3500 
L 3475 0 
L 2900 0 
L 2900 538 
Q 2691 219 2414 64 
Q 2138 -91 1772 -91 
Q 1169 -91 856 284 
Q 544 659 544 1381 
z
M 1991 3584 
L 1991 3584 
z
" transform="scale(0.015625)"/>
       <path id="DejaVuSans-79" d="M 2059 -325 
Q 1816 -950 1584 -1140 
Q 1353 -1331 966 -1331 
L 506 -1331 
L 506 -850 
L 844 -850 
Q 1081 -850 1212 -737 
Q 1344 -625 1503 -206 
L 1606 56 
L 191 3500 
L 800 3500 
L 1894 763 
L 2988 3500 
L 3597 3500 
L 2059 -325 
z
" transform="scale(0.015625)"/>
      </defs>
      <use xlink:href="#DejaVuSans-41"/>
      <use xlink:href="#DejaVuSans-63" x="66.658203"/>
      <use xlink:href="#DejaVuSans-63" x="121.638672"/>
      <use xlink:href="#DejaVuSans-75" x="176.619141"/>
      <use xlink:href="#DejaVuSans-72" x="239.998047"/>
      <use xlink:href="#DejaVuSans-61" x="281.111328"/>
      <use xlink:href="#DejaVuSans-63" x="342.390625"/>
      <use xlink:href="#DejaVuSans-79" x="397.371094"/>
     </g>
    </g>
   </g>
   <g id="line2d_31">
    <path d="M 420.087273 300.484969 
L 421.551534 302.889767 
L 423.015796 304.805455 
L 424.480058 303.501157 
L 425.944319 302.359896 
L 427.408581 301.707748 
L 428.872843 304.194065 
L 430.337104 304.805455 
L 431.801366 274.1137 
L 433.265628 252.429751 
L 434.729889 271.097512 
L 436.194151 226.955187 
L 437.658413 193.165726 
L 439.122674 189.619666 
L 440.586936 183.138937 
L 442.051198 169.52533 
L 443.515459 157.623614 
L 444.979721 149.308716 
L 446.443983 137.896112 
L 447.908244 135.572831 
L 449.372506 132.026772 
L 450.836768 119.187592 
L 452.301029 115.641533 
L 453.765291 110.505861 
L 455.229553 104.799558 
L 456.693814 104.962595 
L 458.158076 100.60135 
L 459.622338 97.70744 
L 461.086599 97.992755 
L 462.550861 95.098844 
L 464.015123 94.935807 
L 465.479384 90.207728 
L 466.943646 90.859877 
L 468.407908 90.819118 
L 469.872169 85.764964 
L 471.336431 85.724205 
L 472.800693 84.868259 
L 474.264954 85.683445 
L 475.729216 85.764964 
L 477.193478 81.852071 
L 478.657739 83.930795 
L 480.122001 82.259664 
L 481.586263 85.031297 
L 483.050524 84.664463 
L 484.514786 78.958161 
L 485.979048 79.56955 
L 487.443309 76.838677 
L 488.907571 77.205511 
L 490.371833 77.857659 
L 491.836094 75.412101 
L 493.300356 74.474637 
L 494.764618 77.001714 
L 496.228879 69.705799 
L 497.693141 72.885024 
L 499.157403 70.398707 
L 500.621664 71.621486 
L 502.085926 73.12958 
L 503.550188 71.336171 
L 505.014449 68.972131 
L 506.478711 68.279223 
L 507.942973 71.784523 
L 509.407234 68.442261 
L 510.871496 70.031873 
L 512.335758 69.787318 
L 513.800019 68.686816 
L 516.728543 68.686816 
L 518.192804 66.934166 
L 519.657066 66.771129 
L 521.121328 69.094409 
L 522.585589 67.586315 
L 524.049851 69.420484 
L 525.514113 66.852648 
L 526.978374 63.265829 
L 528.442636 67.586315 
L 529.906898 64.610886 
L 531.371159 64.610886 
L 534.299683 62.206087 
L 535.763944 62.572921 
L 537.228206 61.350142 
L 538.692468 63.714181 
L 540.156729 64.203293 
L 541.620991 63.062033 
L 543.085253 63.7957 
L 544.549514 59.964326 
L 546.013776 63.184311 
L 547.478038 62.287606 
L 548.942299 58.496991 
L 550.406561 62.002291 
L 551.870823 63.673422 
L 553.335084 61.268623 
L 554.799346 60.983308 
L 556.263608 61.839254 
L 557.727869 58.53775 
L 559.192131 59.475214 
L 560.656392 60.90179 
L 562.120654 58.53775 
L 563.584916 61.390901 
L 565.049177 59.352936 
L 566.513439 57.641045 
L 567.977701 58.741547 
L 569.441962 56.7851 
L 570.906224 56.336748 
L 572.370486 55.03245 
L 573.834747 56.092192 
L 575.299009 53.728152 
L 576.763271 54.910172 
L 578.227532 57.274212 
L 579.691794 53.972708 
L 581.156056 55.358525 
L 582.620317 53.809671 
L 584.084579 54.054227 
L 585.548841 53.931949 
L 587.013102 51.404872 
L 588.477364 54.176505 
L 589.941626 55.317765 
L 591.405887 53.768912 
L 594.334411 54.624857 
L 595.798672 54.502579 
L 597.262934 53.972708 
L 598.727196 52.586892 
L 600.191457 52.057021 
L 601.655719 52.790688 
L 603.119981 52.09778 
L 604.584242 50.019056 
L 606.048504 50.752723 
L 607.512766 50.793483 
L 608.977027 51.649428 
L 610.441289 48.755518 
L 611.905551 48.184887 
L 613.369812 49.692981 
L 614.834074 48.510962 
L 616.298336 50.834242 
L 617.762597 51.445631 
L 619.226859 49.7745 
L 620.691121 47.818054 
L 622.155382 49.244629 
L 623.619644 48.307165 
L 625.083906 46.758312 
L 626.548167 48.062609 
L 628.012429 46.187681 
L 629.476691 49.244629 
L 630.940952 49.815259 
L 632.405214 45.902366 
L 633.869476 48.918555 
L 635.333737 47.247423 
L 636.797999 48.59248 
L 638.262261 47.288183 
L 639.726522 44.190476 
L 641.190784 46.187681 
L 642.655046 46.799071 
L 644.119307 45.657811 
L 645.583569 45.943126 
L 647.047831 44.149716 
L 648.512092 43.008456 
L 649.976354 45.08718 
L 651.440616 42.886178 
L 652.904877 43.94592 
L 654.369139 45.576292 
L 655.833401 43.986679 
L 657.297662 45.739329 
L 660.226186 43.171493 
L 661.690447 44.475791 
L 663.154709 43.33453 
L 664.618971 43.538327 
L 666.083232 44.394272 
L 667.547494 43.701364 
L 669.011756 43.619845 
L 670.476017 46.187681 
L 671.940279 44.883384 
L 673.404541 43.94592 
L 674.868802 43.497568 
L 676.333064 42.723141 
L 677.797326 43.33453 
L 679.261587 40.522138 
L 680.725849 43.456808 
L 682.190111 42.682381 
L 683.654372 43.742123 
L 685.118634 40.644416 
L 686.582896 42.682381 
L 688.047157 41.500362 
L 689.511419 42.234029 
L 690.975681 41.133528 
L 692.439942 41.907955 
L 693.904204 42.030233 
L 695.368466 40.359101 
L 696.832727 40.114545 
L 696.832727 40.114545 
" clip-path="url(#pe42f905084)" style="fill: none; stroke: #1f77b4; stroke-width: 1.5; stroke-linecap: square"/>
   </g>
   <g id="line2d_32">
    <path d="M 420.087273 270.513506 
L 421.551534 269.697476 
L 423.015796 269.493468 
L 424.480058 269.697476 
L 428.872843 269.697476 
L 430.337104 270.717513 
L 433.265628 268.677438 
L 434.729889 266.229347 
L 436.194151 246.236608 
L 437.658413 266.84137 
L 439.122674 255.824962 
L 440.586936 234.608177 
L 442.051198 255.620955 
L 443.515459 259.497098 
L 444.979721 245.012562 
L 446.443983 238.076306 
L 447.908244 266.433355 
L 449.372506 260.109121 
L 450.836768 229.507989 
L 452.301029 194.214683 
L 453.765291 210.535287 
L 455.229553 241.544434 
L 456.693814 239.096343 
L 458.158076 235.016192 
L 459.622338 236.03623 
L 461.086599 235.628215 
L 462.550861 233.792147 
L 464.015123 218.695589 
L 465.479384 251.540804 
L 466.943646 222.77574 
L 468.407908 206.659143 
L 469.872169 200.946932 
L 471.336431 211.963339 
L 474.264954 230.120011 
L 475.729216 192.582622 
L 477.193478 229.303981 
L 478.657739 240.728404 
L 480.122001 226.447875 
L 481.586263 252.968857 
L 483.050524 171.97786 
L 484.514786 205.639105 
L 485.979048 196.866781 
L 487.443309 174.221943 
L 488.907571 155.657256 
L 490.371833 184.218313 
L 491.836094 179.118124 
L 493.300356 228.487951 
L 494.764618 138.316614 
L 496.228879 203.395022 
L 497.693141 187.482434 
L 499.157403 206.659143 
L 500.621664 182.586252 
L 502.085926 204.41506 
L 503.550188 215.839483 
L 505.014449 169.733777 
L 506.478711 176.874041 
L 507.942973 148.720999 
L 509.407234 181.97423 
L 510.871496 190.746554 
L 512.335758 192.378615 
L 513.800019 189.930524 
L 515.264281 230.936041 
L 516.728543 116.487807 
L 518.192804 189.930524 
L 519.657066 164.429581 
L 521.121328 194.826705 
L 524.049851 146.476916 
L 525.514113 176.466026 
L 526.978374 209.107234 
L 528.442636 196.254758 
L 529.906898 148.108977 
L 531.371159 179.118124 
L 532.835421 178.914117 
L 534.299683 181.770222 
L 535.763944 181.566215 
L 537.228206 166.061641 
L 538.692468 230.936041 
L 540.156729 201.150939 
L 541.620991 183.810298 
L 543.085253 144.232833 
L 544.549514 205.027083 
L 546.013776 188.094456 
L 547.478038 149.741037 
L 548.942299 138.112607 
L 550.406561 202.170977 
L 551.870823 184.830335 
L 553.335084 188.094456 
L 554.799346 163.61355 
L 556.263608 162.185498 
L 557.727869 183.402283 
L 559.192131 174.833966 
L 560.656392 175.037973 
L 562.120654 201.354947 
L 563.584916 171.16183 
L 565.049177 153.413173 
L 566.513439 156.065271 
L 567.977701 152.189128 
L 569.441962 152.597143 
L 570.906224 211.555324 
L 572.370486 151.373097 
L 573.834747 116.487807 
L 575.299009 176.466026 
L 576.763271 197.274796 
L 578.227532 150.761075 
L 579.691794 183.198275 
L 581.156056 150.149052 
L 582.620317 155.657256 
L 584.084579 190.542547 
L 585.548841 127.912229 
L 587.013102 148.925007 
L 588.477364 159.737407 
L 589.941626 161.573475 
L 591.405887 178.506101 
L 592.870149 140.764705 
L 594.334411 169.121754 
L 595.798672 184.42232 
L 597.262934 132.400395 
L 598.727196 159.941415 
L 600.191457 144.436841 
L 601.655719 185.442358 
L 603.119981 162.389505 
L 604.584242 161.369467 
L 606.048504 184.014305 
L 607.512766 201.354947 
L 608.977027 160.553437 
L 610.441289 147.088939 
L 611.905551 168.509732 
L 613.369812 146.272909 
L 614.834074 147.088939 
L 616.298336 150.35306 
L 617.762597 170.957822 
L 619.226859 139.54066 
L 620.691121 116.691814 
L 622.155382 156.269279 
L 623.619644 96.903082 
L 625.083906 144.640848 
L 626.548167 159.329392 
L 628.012429 161.369467 
L 629.476691 142.192758 
L 630.940952 154.433211 
L 632.405214 189.930524 
L 633.869476 146.884931 
L 635.333737 153.005158 
L 636.797999 150.35306 
L 638.262261 127.912229 
L 639.726522 148.312984 
L 641.190784 124.036086 
L 642.655046 140.560697 
L 644.119307 128.320244 
L 645.583569 104.655369 
L 647.047831 103.227316 
L 648.512092 133.624441 
L 649.976354 124.444101 
L 651.440616 136.276539 
L 652.904877 134.848486 
L 654.369139 133.828448 
L 655.833401 108.531512 
L 657.297662 140.560697 
L 658.761924 151.577105 
L 660.226186 139.744667 
L 661.690447 132.808411 
L 663.154709 194.826705 
L 664.618971 145.660886 
L 666.083232 147.700962 
L 667.547494 130.564327 
L 669.011756 157.901339 
L 670.476017 130.564327 
L 671.940279 146.680924 
L 673.404541 134.440471 
L 674.868802 117.303837 
L 676.333064 149.741037 
L 677.797326 128.524252 
L 679.261587 170.957822 
L 680.725849 135.868524 
L 682.190111 163.409543 
L 683.654372 106.491437 
L 685.118634 145.864894 
L 686.582896 166.061641 
L 688.047157 139.336652 
L 689.511419 138.928637 
L 690.975681 130.564327 
L 692.439942 134.848486 
L 693.904204 98.943157 
L 695.368466 153.61718 
L 696.832727 190.746554 
L 696.832727 190.746554 
" clip-path="url(#pe42f905084)" style="fill: none; stroke: #ff7f0e; stroke-width: 1.5; stroke-linecap: square"/>
   </g>
   <g id="patch_9">
    <path d="M 406.25 318.04 
L 406.25 26.88 
" style="fill: none; stroke: #000000; stroke-width: 0.8; stroke-linejoin: miter; stroke-linecap: square"/>
   </g>
   <g id="patch_10">
    <path d="M 710.67 318.04 
L 710.67 26.88 
" style="fill: none; stroke: #000000; stroke-width: 0.8; stroke-linejoin: miter; stroke-linecap: square"/>
   </g>
   <g id="patch_11">
    <path d="M 406.25 318.04 
L 710.67 318.04 
" style="fill: none; stroke: #000000; stroke-width: 0.8; stroke-linejoin: miter; stroke-linecap: square"/>
   </g>
   <g id="patch_12">
    <path d="M 406.25 26.88 
L 710.67 26.88 
" style="fill: none; stroke: #000000; stroke-width: 0.8; stroke-linejoin: miter; stroke-linecap: square"/>
   </g>
   <g id="text_34">
    <!-- Accuracy vs Epoch -->
    <g transform="translate(502.2025 20.88) scale(0.12 -0.12)">
     <use xlink:href="#DejaVuSans-41"/>
     <use xlink:href="#DejaVuSans-63" x="66.658203"/>
     <use xlink:href="#DejaVuSans-63" x="121.638672"/>
     <use xlink:href="#DejaVuSans-75" x="176.619141"/>
     <use xlink:href="#DejaVuSans-72" x="239.998047"/>
     <use xlink:href="#DejaVuSans-61" x="281.111328"/>
     <use xlink:href="#DejaVuSans-63" x="342.390625"/>
     <use xlink:href="#DejaVuSans-79" x="397.371094"/>
     <use xlink:href="#DejaVuSans-20" x="456.550781"/>
     <use xlink:href="#DejaVuSans-76" x="488.337891"/>
     <use xlink:href="#DejaVuSans-73" x="547.517578"/>
     <use xlink:href="#DejaVuSans-20" x="599.617188"/>
     <use xlink:href="#DejaVuSans-45" x="631.404297"/>
     <use xlink:href="#DejaVuSans-70" x="694.587891"/>
     <use xlink:href="#DejaVuSans-6f" x="758.064453"/>
     <use xlink:href="#DejaVuSans-63" x="819.246094"/>
     <use xlink:href="#DejaVuSans-68" x="874.226562"/>
    </g>
   </g>
   <g id="legend_2">
    <g id="patch_13">
     <path d="M 573.454375 313.04 
L 703.67 313.04 
Q 705.67 313.04 705.67 311.04 
L 705.67 282.68375 
Q 705.67 280.68375 703.67 280.68375 
L 573.454375 280.68375 
Q 571.454375 280.68375 571.454375 282.68375 
L 571.454375 311.04 
Q 571.454375 313.04 573.454375 313.04 
z
" style="fill: #ffffff; opacity: 0.8; stroke: #cccccc; stroke-linejoin: miter"/>
    </g>
    <g id="line2d_33">
     <path d="M 575.454375 288.782188 
L 585.454375 288.782188 
L 595.454375 288.782188 
" style="fill: none; stroke: #1f77b4; stroke-width: 1.5; stroke-linecap: square"/>
    </g>
    <g id="text_35">
     <!-- Train Accuracy -->
     <g transform="translate(603.454375 292.282188) scale(0.1 -0.1)">
      <use xlink:href="#DejaVuSans-54"/>
      <use xlink:href="#DejaVuSans-72" x="46.333984"/>
      <use xlink:href="#DejaVuSans-61" x="87.447266"/>
      <use xlink:href="#DejaVuSans-69" x="148.726562"/>
      <use xlink:href="#DejaVuSans-6e" x="176.509766"/>
      <use xlink:href="#DejaVuSans-20" x="239.888672"/>
      <use xlink:href="#DejaVuSans-41" x="271.675781"/>
      <use xlink:href="#DejaVuSans-63" x="338.333984"/>
      <use xlink:href="#DejaVuSans-63" x="393.314453"/>
      <use xlink:href="#DejaVuSans-75" x="448.294922"/>
      <use xlink:href="#DejaVuSans-72" x="511.673828"/>
      <use xlink:href="#DejaVuSans-61" x="552.787109"/>
      <use xlink:href="#DejaVuSans-63" x="614.066406"/>
      <use xlink:href="#DejaVuSans-79" x="669.046875"/>
     </g>
    </g>
    <g id="line2d_34">
     <path d="M 575.454375 303.460313 
L 585.454375 303.460313 
L 595.454375 303.460313 
" style="fill: none; stroke: #ff7f0e; stroke-width: 1.5; stroke-linecap: square"/>
    </g>
    <g id="text_36">
     <!-- Validation Accuracy -->
     <g transform="translate(603.454375 306.960313) scale(0.1 -0.1)">
      <use xlink:href="#DejaVuSans-56"/>
      <use xlink:href="#DejaVuSans-61" x="60.658203"/>
      <use xlink:href="#DejaVuSans-6c" x="121.9375"/>
      <use xlink:href="#DejaVuSans-69" x="149.720703"/>
      <use xlink:href="#DejaVuSans-64" x="177.503906"/>
      <use xlink:href="#DejaVuSans-61" x="240.980469"/>
      <use xlink:href="#DejaVuSans-74" x="302.259766"/>
      <use xlink:href="#DejaVuSans-69" x="341.46875"/>
      <use xlink:href="#DejaVuSans-6f" x="369.251953"/>
      <use xlink:href="#DejaVuSans-6e" x="430.433594"/>
      <use xlink:href="#DejaVuSans-20" x="493.8125"/>
      <use xlink:href="#DejaVuSans-41" x="525.599609"/>
      <use xlink:href="#DejaVuSans-63" x="592.257812"/>
      <use xlink:href="#DejaVuSans-63" x="647.238281"/>
      <use xlink:href="#DejaVuSans-75" x="702.21875"/>
      <use xlink:href="#DejaVuSans-72" x="765.597656"/>
      <use xlink:href="#DejaVuSans-61" x="806.710938"/>
      <use xlink:href="#DejaVuSans-63" x="867.990234"/>
      <use xlink:href="#DejaVuSans-79" x="922.970703"/>
     </g>
    </g>
   </g>
  </g>
  <g id="axes_3">
   <g id="patch_14">
    <path d="M 764.78 318.04 
L 1069.2 318.04 
L 1069.2 26.88 
L 764.78 26.88 
z
" style="fill: #ffffff"/>
   </g>
   <g id="matplotlib.axis_5">
    <g id="xtick_17">
     <g id="line2d_35">
      <g>
       <use xlink:href="#m5116ea0c02" x="778.617273" y="318.04" style="stroke: #000000; stroke-width: 0.8"/>
      </g>
     </g>
     <g id="text_37">
      <!-- 0 -->
      <g transform="translate(775.436023 332.638438) scale(0.1 -0.1)">
       <use xlink:href="#DejaVuSans-30"/>
      </g>
     </g>
    </g>
    <g id="xtick_18">
     <g id="line2d_36">
      <g>
       <use xlink:href="#m5116ea0c02" x="815.223814" y="318.04" style="stroke: #000000; stroke-width: 0.8"/>
      </g>
     </g>
     <g id="text_38">
      <!-- 25 -->
      <g transform="translate(808.861314 332.638438) scale(0.1 -0.1)">
       <use xlink:href="#DejaVuSans-32"/>
       <use xlink:href="#DejaVuSans-35" x="63.623047"/>
      </g>
     </g>
    </g>
    <g id="xtick_19">
     <g id="line2d_37">
      <g>
       <use xlink:href="#m5116ea0c02" x="851.830356" y="318.04" style="stroke: #000000; stroke-width: 0.8"/>
      </g>
     </g>
     <g id="text_39">
      <!-- 50 -->
      <g transform="translate(845.467856 332.638438) scale(0.1 -0.1)">
       <use xlink:href="#DejaVuSans-35"/>
       <use xlink:href="#DejaVuSans-30" x="63.623047"/>
      </g>
     </g>
    </g>
    <g id="xtick_20">
     <g id="line2d_38">
      <g>
       <use xlink:href="#m5116ea0c02" x="888.436898" y="318.04" style="stroke: #000000; stroke-width: 0.8"/>
      </g>
     </g>
     <g id="text_40">
      <!-- 75 -->
      <g transform="translate(882.074398 332.638438) scale(0.1 -0.1)">
       <use xlink:href="#DejaVuSans-37"/>
       <use xlink:href="#DejaVuSans-35" x="63.623047"/>
      </g>
     </g>
    </g>
    <g id="xtick_21">
     <g id="line2d_39">
      <g>
       <use xlink:href="#m5116ea0c02" x="925.043439" y="318.04" style="stroke: #000000; stroke-width: 0.8"/>
      </g>
     </g>
     <g id="text_41">
      <!-- 100 -->
      <g transform="translate(915.499689 332.638438) scale(0.1 -0.1)">
       <use xlink:href="#DejaVuSans-31"/>
       <use xlink:href="#DejaVuSans-30" x="63.623047"/>
       <use xlink:href="#DejaVuSans-30" x="127.246094"/>
      </g>
     </g>
    </g>
    <g id="xtick_22">
     <g id="line2d_40">
      <g>
       <use xlink:href="#m5116ea0c02" x="961.649981" y="318.04" style="stroke: #000000; stroke-width: 0.8"/>
      </g>
     </g>
     <g id="text_42">
      <!-- 125 -->
      <g transform="translate(952.106231 332.638438) scale(0.1 -0.1)">
       <use xlink:href="#DejaVuSans-31"/>
       <use xlink:href="#DejaVuSans-32" x="63.623047"/>
       <use xlink:href="#DejaVuSans-35" x="127.246094"/>
      </g>
     </g>
    </g>
    <g id="xtick_23">
     <g id="line2d_41">
      <g>
       <use xlink:href="#m5116ea0c02" x="998.256522" y="318.04" style="stroke: #000000; stroke-width: 0.8"/>
      </g>
     </g>
     <g id="text_43">
      <!-- 150 -->
      <g transform="translate(988.712772 332.638438) scale(0.1 -0.1)">
       <use xlink:href="#DejaVuSans-31"/>
       <use xlink:href="#DejaVuSans-35" x="63.623047"/>
       <use xlink:href="#DejaVuSans-30" x="127.246094"/>
      </g>
     </g>
    </g>
    <g id="xtick_24">
     <g id="line2d_42">
      <g>
       <use xlink:href="#m5116ea0c02" x="1034.863064" y="318.04" style="stroke: #000000; stroke-width: 0.8"/>
      </g>
     </g>
     <g id="text_44">
      <!-- 175 -->
      <g transform="translate(1025.319314 332.638438) scale(0.1 -0.1)">
       <use xlink:href="#DejaVuSans-31"/>
       <use xlink:href="#DejaVuSans-37" x="63.623047"/>
       <use xlink:href="#DejaVuSans-35" x="127.246094"/>
      </g>
     </g>
    </g>
    <g id="text_45">
     <!-- Epoch -->
     <g transform="translate(901.679062 346.316563) scale(0.1 -0.1)">
      <use xlink:href="#DejaVuSans-45"/>
      <use xlink:href="#DejaVuSans-70" x="63.183594"/>
      <use xlink:href="#DejaVuSans-6f" x="126.660156"/>
      <use xlink:href="#DejaVuSans-63" x="187.841797"/>
      <use xlink:href="#DejaVuSans-68" x="242.822266"/>
     </g>
    </g>
   </g>
   <g id="matplotlib.axis_6">
    <g id="ytick_11">
     <g id="line2d_43">
      <g>
       <use xlink:href="#m96edf6718d" x="764.78" y="299.601364" style="stroke: #000000; stroke-width: 0.8"/>
      </g>
     </g>
     <g id="text_46">
      <!-- 0.76 -->
      <g transform="translate(735.514375 303.400583) scale(0.1 -0.1)">
       <use xlink:href="#DejaVuSans-30"/>
       <use xlink:href="#DejaVuSans-2e" x="63.623047"/>
       <use xlink:href="#DejaVuSans-37" x="95.410156"/>
       <use xlink:href="#DejaVuSans-36" x="159.033203"/>
      </g>
     </g>
    </g>
    <g id="ytick_12">
     <g id="line2d_44">
      <g>
       <use xlink:href="#m96edf6718d" x="764.78" y="263.282063" style="stroke: #000000; stroke-width: 0.8"/>
      </g>
     </g>
     <g id="text_47">
      <!-- 0.78 -->
      <g transform="translate(735.514375 267.081281) scale(0.1 -0.1)">
       <use xlink:href="#DejaVuSans-30"/>
       <use xlink:href="#DejaVuSans-2e" x="63.623047"/>
       <use xlink:href="#DejaVuSans-37" x="95.410156"/>
       <use xlink:href="#DejaVuSans-38" x="159.033203"/>
      </g>
     </g>
    </g>
    <g id="ytick_13">
     <g id="line2d_45">
      <g>
       <use xlink:href="#m96edf6718d" x="764.78" y="226.962761" style="stroke: #000000; stroke-width: 0.8"/>
      </g>
     </g>
     <g id="text_48">
      <!-- 0.80 -->
      <g transform="translate(735.514375 230.76198) scale(0.1 -0.1)">
       <use xlink:href="#DejaVuSans-30"/>
       <use xlink:href="#DejaVuSans-2e" x="63.623047"/>
       <use xlink:href="#DejaVuSans-38" x="95.410156"/>
       <use xlink:href="#DejaVuSans-30" x="159.033203"/>
      </g>
     </g>
    </g>
    <g id="ytick_14">
     <g id="line2d_46">
      <g>
       <use xlink:href="#m96edf6718d" x="764.78" y="190.643459" style="stroke: #000000; stroke-width: 0.8"/>
      </g>
     </g>
     <g id="text_49">
      <!-- 0.82 -->
      <g transform="translate(735.514375 194.442678) scale(0.1 -0.1)">
       <use xlink:href="#DejaVuSans-30"/>
       <use xlink:href="#DejaVuSans-2e" x="63.623047"/>
       <use xlink:href="#DejaVuSans-38" x="95.410156"/>
       <use xlink:href="#DejaVuSans-32" x="159.033203"/>
      </g>
     </g>
    </g>
    <g id="ytick_15">
     <g id="line2d_47">
      <g>
       <use xlink:href="#m96edf6718d" x="764.78" y="154.324158" style="stroke: #000000; stroke-width: 0.8"/>
      </g>
     </g>
     <g id="text_50">
      <!-- 0.84 -->
      <g transform="translate(735.514375 158.123377) scale(0.1 -0.1)">
       <use xlink:href="#DejaVuSans-30"/>
       <use xlink:href="#DejaVuSans-2e" x="63.623047"/>
       <use xlink:href="#DejaVuSans-38" x="95.410156"/>
       <use xlink:href="#DejaVuSans-34" x="159.033203"/>
      </g>
     </g>
    </g>
    <g id="ytick_16">
     <g id="line2d_48">
      <g>
       <use xlink:href="#m96edf6718d" x="764.78" y="118.004856" style="stroke: #000000; stroke-width: 0.8"/>
      </g>
     </g>
     <g id="text_51">
      <!-- 0.86 -->
      <g transform="translate(735.514375 121.804075) scale(0.1 -0.1)">
       <use xlink:href="#DejaVuSans-30"/>
       <use xlink:href="#DejaVuSans-2e" x="63.623047"/>
       <use xlink:href="#DejaVuSans-38" x="95.410156"/>
       <use xlink:href="#DejaVuSans-36" x="159.033203"/>
      </g>
     </g>
    </g>
    <g id="ytick_17">
     <g id="line2d_49">
      <g>
       <use xlink:href="#m96edf6718d" x="764.78" y="81.685555" style="stroke: #000000; stroke-width: 0.8"/>
      </g>
     </g>
     <g id="text_52">
      <!-- 0.88 -->
      <g transform="translate(735.514375 85.484773) scale(0.1 -0.1)">
       <use xlink:href="#DejaVuSans-30"/>
       <use xlink:href="#DejaVuSans-2e" x="63.623047"/>
       <use xlink:href="#DejaVuSans-38" x="95.410156"/>
       <use xlink:href="#DejaVuSans-38" x="159.033203"/>
      </g>
     </g>
    </g>
    <g id="ytick_18">
     <g id="line2d_50">
      <g>
       <use xlink:href="#m96edf6718d" x="764.78" y="45.366253" style="stroke: #000000; stroke-width: 0.8"/>
      </g>
     </g>
     <g id="text_53">
      <!-- 0.90 -->
      <g transform="translate(735.514375 49.165472) scale(0.1 -0.1)">
       <defs>
        <path id="DejaVuSans-39" d="M 703 97 
L 703 672 
Q 941 559 1184 500 
Q 1428 441 1663 441 
Q 2288 441 2617 861 
Q 2947 1281 2994 2138 
Q 2813 1869 2534 1725 
Q 2256 1581 1919 1581 
Q 1219 1581 811 2004 
Q 403 2428 403 3163 
Q 403 3881 828 4315 
Q 1253 4750 1959 4750 
Q 2769 4750 3195 4129 
Q 3622 3509 3622 2328 
Q 3622 1225 3098 567 
Q 2575 -91 1691 -91 
Q 1453 -91 1209 -44 
Q 966 3 703 97 
z
M 1959 2075 
Q 2384 2075 2632 2365 
Q 2881 2656 2881 3163 
Q 2881 3666 2632 3958 
Q 2384 4250 1959 4250 
Q 1534 4250 1286 3958 
Q 1038 3666 1038 3163 
Q 1038 2656 1286 2365 
Q 1534 2075 1959 2075 
z
" transform="scale(0.015625)"/>
       </defs>
       <use xlink:href="#DejaVuSans-30"/>
       <use xlink:href="#DejaVuSans-2e" x="63.623047"/>
       <use xlink:href="#DejaVuSans-39" x="95.410156"/>
       <use xlink:href="#DejaVuSans-30" x="159.033203"/>
      </g>
     </g>
    </g>
    <g id="text_54">
     <!-- F1-Score -->
     <g transform="translate(729.434688 194.323281) rotate(-90) scale(0.1 -0.1)">
      <defs>
       <path id="DejaVuSans-46" d="M 628 4666 
L 3309 4666 
L 3309 4134 
L 1259 4134 
L 1259 2759 
L 3109 2759 
L 3109 2228 
L 1259 2228 
L 1259 0 
L 628 0 
L 628 4666 
z
" transform="scale(0.015625)"/>
       <path id="DejaVuSans-2d" d="M 313 2009 
L 1997 2009 
L 1997 1497 
L 313 1497 
L 313 2009 
z
" transform="scale(0.015625)"/>
       <path id="DejaVuSans-53" d="M 3425 4513 
L 3425 3897 
Q 3066 4069 2747 4153 
Q 2428 4238 2131 4238 
Q 1616 4238 1336 4038 
Q 1056 3838 1056 3469 
Q 1056 3159 1242 3001 
Q 1428 2844 1947 2747 
L 2328 2669 
Q 3034 2534 3370 2195 
Q 3706 1856 3706 1288 
Q 3706 609 3251 259 
Q 2797 -91 1919 -91 
Q 1588 -91 1214 -16 
Q 841 59 441 206 
L 441 856 
Q 825 641 1194 531 
Q 1563 422 1919 422 
Q 2459 422 2753 634 
Q 3047 847 3047 1241 
Q 3047 1584 2836 1778 
Q 2625 1972 2144 2069 
L 1759 2144 
Q 1053 2284 737 2584 
Q 422 2884 422 3419 
Q 422 4038 858 4394 
Q 1294 4750 2059 4750 
Q 2388 4750 2728 4690 
Q 3069 4631 3425 4513 
z
" transform="scale(0.015625)"/>
       <path id="DejaVuSans-65" d="M 3597 1894 
L 3597 1613 
L 953 1613 
Q 991 1019 1311 708 
Q 1631 397 2203 397 
Q 2534 397 2845 478 
Q 3156 559 3463 722 
L 3463 178 
Q 3153 47 2828 -22 
Q 2503 -91 2169 -91 
Q 1331 -91 842 396 
Q 353 884 353 1716 
Q 353 2575 817 3079 
Q 1281 3584 2069 3584 
Q 2775 3584 3186 3129 
Q 3597 2675 3597 1894 
z
M 3022 2063 
Q 3016 2534 2758 2815 
Q 2500 3097 2075 3097 
Q 1594 3097 1305 2825 
Q 1016 2553 972 2059 
L 3022 2063 
z
" transform="scale(0.015625)"/>
      </defs>
      <use xlink:href="#DejaVuSans-46"/>
      <use xlink:href="#DejaVuSans-31" x="57.519531"/>
      <use xlink:href="#DejaVuSans-2d" x="121.142578"/>
      <use xlink:href="#DejaVuSans-53" x="157.226562"/>
      <use xlink:href="#DejaVuSans-63" x="220.703125"/>
      <use xlink:href="#DejaVuSans-6f" x="275.683594"/>
      <use xlink:href="#DejaVuSans-72" x="336.865234"/>
      <use xlink:href="#DejaVuSans-65" x="375.728516"/>
     </g>
    </g>
   </g>
   <g id="line2d_51">
    <path d="M 778.617273 304.805455 
L 780.081534 278.007428 
L 781.545796 287.017318 
L 783.010058 278.48008 
L 784.474319 275.099417 
L 785.938581 266.049301 
L 787.402843 279.295484 
L 788.867104 276.94427 
L 790.331366 277.917204 
L 791.795628 258.656575 
L 793.259889 289.973991 
L 794.724151 245.280434 
L 796.188413 205.001572 
L 797.652674 201.588512 
L 799.116936 196.641244 
L 800.581198 181.989656 
L 802.045459 169.669346 
L 803.509721 159.821736 
L 804.973983 148.495134 
L 806.438244 146.203316 
L 807.902506 142.759579 
L 809.366768 129.042106 
L 810.831029 125.456565 
L 812.295291 120.101255 
L 813.759553 113.654107 
L 815.223814 114.104034 
L 816.688076 109.493454 
L 818.152338 106.500102 
L 819.616599 106.902567 
L 821.080861 103.635715 
L 822.545123 102.682592 
L 824.009384 97.747669 
L 825.473646 98.728888 
L 826.937908 98.392642 
L 828.402169 92.456676 
L 829.866431 93.194924 
L 831.330693 91.757925 
L 832.794954 92.732846 
L 834.259216 93.188397 
L 835.723478 88.357049 
L 837.187739 90.884363 
L 838.652001 88.714913 
L 840.116263 91.924218 
L 841.580524 91.705197 
L 843.044786 85.205671 
L 844.509048 85.995738 
L 845.973309 82.637568 
L 847.437571 82.819077 
L 848.901833 83.925688 
L 850.366094 81.170995 
L 851.830356 79.854073 
L 853.294618 82.667312 
L 854.758879 74.390265 
L 856.223141 78.037153 
L 857.687403 75.005924 
L 859.151664 76.321824 
L 860.615926 78.142951 
L 862.080188 75.905647 
L 863.544449 73.3902 
L 865.008711 72.422659 
L 866.472973 76.668119 
L 867.937234 72.97441 
L 869.401496 74.649564 
L 870.865758 74.441309 
L 872.330019 73.139388 
L 873.794281 73.227244 
L 875.258543 73.007744 
L 876.722804 71.217425 
L 878.187066 70.86392 
L 879.651328 73.80265 
L 881.115589 71.914058 
L 882.579851 74.084505 
L 884.044113 71.165678 
L 885.508374 66.983637 
L 886.972636 71.957732 
L 888.436898 68.507637 
L 889.901159 68.496896 
L 892.829683 65.702432 
L 894.293944 65.776125 
L 895.758206 64.644095 
L 897.222468 67.278149 
L 898.686729 67.892065 
L 900.150991 66.527287 
L 901.615253 67.426711 
L 903.079514 62.857836 
L 904.543776 66.73923 
L 906.008038 65.501361 
L 907.472299 61.362294 
L 908.936561 65.406065 
L 910.400823 67.342597 
L 911.865084 64.527789 
L 913.329346 64.378575 
L 914.793608 65.215572 
L 916.257869 61.394378 
L 917.722131 62.255632 
L 919.186392 64.020462 
L 920.650654 61.508483 
L 922.114916 64.960803 
L 923.579177 62.419962 
L 925.043439 60.521941 
L 926.507701 61.783157 
L 927.971962 59.412918 
L 929.436224 58.904149 
L 930.900486 57.318343 
L 932.364747 58.556902 
L 933.829009 55.632907 
L 935.293271 57.282034 
L 936.757532 59.974399 
L 938.221794 56.049521 
L 939.686056 57.536784 
L 941.150317 56.02036 
L 942.614579 56.447995 
L 944.078841 56.138119 
L 945.543102 53.11343 
L 947.007364 56.302817 
L 948.471626 57.738301 
L 949.935887 55.957555 
L 951.400149 56.32302 
L 952.864411 56.973747 
L 954.328672 56.643409 
L 955.792934 56.150437 
L 957.257196 54.420122 
L 958.721457 53.885736 
L 960.185719 54.923964 
L 961.649981 53.978302 
L 963.114242 51.670959 
L 964.578504 52.479832 
L 966.042766 52.453202 
L 967.507027 53.459027 
L 968.971289 49.972496 
L 970.435551 49.598082 
L 971.899812 51.171317 
L 973.364074 49.86242 
L 974.828336 52.614853 
L 976.292597 53.235642 
L 979.221121 49.193054 
L 980.685382 50.730466 
L 982.149644 49.619143 
L 983.613906 47.952445 
L 985.078167 49.148124 
L 986.542429 47.168771 
L 988.006691 50.691202 
L 989.470952 51.368458 
L 990.935214 46.7725 
L 992.399476 50.290242 
L 993.863737 48.176165 
L 995.327999 49.879596 
L 996.792261 48.373875 
L 998.256522 44.789393 
L 999.720784 47.178403 
L 1001.185046 47.840554 
L 1002.649307 46.582461 
L 1004.113569 46.901892 
L 1005.577831 44.698969 
L 1007.042092 43.364402 
L 1008.506354 45.895605 
L 1009.970616 43.367542 
L 1011.434877 44.455911 
L 1012.899139 46.477475 
L 1014.363401 44.356643 
L 1015.827662 46.668242 
L 1017.291924 45.208894 
L 1018.756186 43.564492 
L 1020.220447 45.261289 
L 1021.684709 43.934856 
L 1023.148971 44.159204 
L 1024.613232 44.994461 
L 1026.077494 44.36902 
L 1027.541756 44.121951 
L 1029.006017 47.101373 
L 1031.934541 44.579295 
L 1033.398802 44.154146 
L 1034.863064 43.308786 
L 1036.327326 43.84969 
L 1037.791587 40.461589 
L 1039.255849 44.01643 
L 1040.720111 43.03956 
L 1042.184372 44.184456 
L 1043.648634 40.664941 
L 1045.112896 43.03956 
L 1046.577157 41.783084 
L 1048.041419 42.501022 
L 1049.505681 41.302368 
L 1050.969942 42.363435 
L 1052.434204 42.21112 
L 1053.898466 40.447149 
L 1055.362727 40.114545 
L 1055.362727 40.114545 
" clip-path="url(#p503844f1e3)" style="fill: none; stroke: #1f77b4; stroke-width: 1.5; stroke-linecap: square"/>
   </g>
   <g id="line2d_52">
    <path d="M 778.617273 227.274114 
L 780.081534 226.262667 
L 787.402843 226.262667 
L 788.867104 228.132465 
L 790.331366 226.806951 
L 791.795628 225.639086 
L 793.259889 224.230519 
L 794.724151 209.263373 
L 796.188413 224.234917 
L 797.652674 215.904628 
L 799.116936 199.207836 
L 800.581198 215.518673 
L 802.045459 218.897026 
L 803.509721 207.405304 
L 804.973983 202.245514 
L 806.438244 223.92251 
L 807.902506 219.216104 
L 809.366768 195.301208 
L 810.831029 167.039567 
L 812.295291 180.096553 
L 813.759553 205.202831 
L 815.223814 202.755167 
L 816.688076 199.824458 
L 818.152338 200.338379 
L 819.616599 200.16236 
L 821.080861 198.487921 
L 822.545123 186.563538 
L 824.009384 212.578101 
L 825.473646 189.845233 
L 826.937908 177.214711 
L 828.402169 172.324177 
L 829.866431 181.257392 
L 832.794954 195.934223 
L 834.259216 165.820798 
L 835.723478 195.283861 
L 837.187739 204.263198 
L 838.652001 192.714297 
L 840.116263 213.461746 
L 841.580524 149.026821 
L 843.044786 176.310926 
L 844.509048 169.098248 
L 845.973309 150.674142 
L 847.437571 135.508586 
L 848.901833 158.907473 
L 850.366094 154.160557 
L 851.830356 194.415447 
L 853.294618 120.845331 
L 854.758879 174.334281 
L 856.223141 161.438878 
L 857.687403 177.006096 
L 859.151664 157.670164 
L 860.615926 175.308643 
L 862.080188 184.54079 
L 863.544449 147.179107 
L 865.008711 152.594082 
L 866.472973 129.09813 
L 867.937234 157.221844 
L 869.401496 164.226833 
L 870.865758 165.381214 
L 872.330019 163.14485 
L 873.794281 196.584015 
L 875.258543 101.862469 
L 876.722804 163.211877 
L 878.187066 141.879371 
L 879.651328 167.478797 
L 881.115589 148.153222 
L 882.579851 126.95309 
L 885.508374 178.864118 
L 886.972636 168.524429 
L 888.436898 128.624095 
L 889.901159 154.291423 
L 891.365421 154.512659 
L 892.829683 156.918101 
L 894.293944 156.614564 
L 895.758206 143.593455 
L 897.222468 196.365538 
L 898.686729 172.423209 
L 900.150991 158.234023 
L 901.615253 125.287142 
L 903.079514 175.671375 
L 904.543776 161.682439 
L 906.008038 130.233802 
L 907.472299 119.950908 
L 908.936561 173.329899 
L 910.400823 158.955807 
L 911.865084 162.217531 
L 913.329346 141.685603 
L 914.793608 140.521747 
L 916.257869 158.222955 
L 917.722131 150.738586 
L 919.186392 151.235949 
L 920.650654 172.659567 
L 922.114916 147.623483 
L 923.579177 133.001965 
L 925.043439 135.488847 
L 926.507701 132.184138 
L 927.971962 132.231234 
L 929.436224 180.855763 
L 930.900486 130.982576 
L 932.364747 101.638303 
L 933.829009 152.37958 
L 935.293271 169.298935 
L 936.757532 130.572276 
L 938.221794 157.720927 
L 939.686056 129.916921 
L 941.150317 135.633279 
L 942.614579 164.124346 
L 944.078841 111.103216 
L 945.543102 128.728174 
L 947.007364 138.03781 
L 948.471626 139.680613 
L 949.935887 153.775664 
L 951.400149 121.816917 
L 952.864411 146.143356 
L 954.328672 158.548091 
L 955.792934 114.7054 
L 957.257196 138.276094 
L 958.721457 124.984515 
L 960.185719 159.667031 
L 961.649981 140.634066 
L 963.114242 139.505188 
L 964.578504 158.404978 
L 966.042766 172.79708 
L 967.507027 138.677775 
L 968.971289 127.549377 
L 970.435551 145.55743 
L 971.899812 127.320181 
L 973.364074 127.246356 
L 974.828336 130.584143 
L 976.292597 147.707181 
L 977.756859 121.094432 
L 979.221121 101.153587 
L 980.685382 134.920695 
L 982.149644 84.024544 
L 983.613906 125.404239 
L 985.078167 138.124182 
L 986.542429 139.505188 
L 988.006691 123.31303 
L 989.470952 133.455196 
L 990.935214 163.480284 
L 992.399476 127.007504 
L 993.863737 132.2782 
L 995.327999 130.706803 
L 996.792261 110.643007 
L 998.256522 128.376438 
L 999.720784 107.225077 
L 1001.185046 121.399457 
L 1002.649307 111.180462 
L 1004.113569 91.169527 
L 1005.577831 90.06361 
L 1007.042092 115.735689 
L 1008.506354 108.218421 
L 1009.970616 117.971243 
L 1012.899139 115.625055 
L 1014.363401 93.384355 
L 1015.827662 121.637205 
L 1017.291924 131.160043 
L 1018.756186 121.215054 
L 1020.220447 115.301887 
L 1021.684709 167.343137 
L 1023.148971 125.99694 
L 1024.613232 127.902534 
L 1026.077494 112.607065 
L 1027.541756 136.766095 
L 1029.006017 113.649922 
L 1030.470279 127.131673 
L 1031.934541 116.10968 
L 1033.398802 100.930156 
L 1034.863064 129.683383 
L 1036.327326 111.132724 
L 1037.791587 147.771537 
L 1039.255849 117.257822 
L 1040.720111 141.447202 
L 1042.184372 91.729495 
L 1043.648634 127.083634 
L 1045.112896 143.46632 
L 1046.577157 120.676688 
L 1048.041419 121.089325 
L 1049.505681 113.475506 
L 1050.969942 117.351404 
L 1052.434204 85.872417 
L 1053.898466 132.994104 
L 1055.362727 164.428911 
L 1055.362727 164.428911 
" clip-path="url(#p503844f1e3)" style="fill: none; stroke: #ff7f0e; stroke-width: 1.5; stroke-linecap: square"/>
   </g>
   <g id="patch_15">
    <path d="M 764.78 318.04 
L 764.78 26.88 
" style="fill: none; stroke: #000000; stroke-width: 0.8; stroke-linejoin: miter; stroke-linecap: square"/>
   </g>
   <g id="patch_16">
    <path d="M 1069.2 318.04 
L 1069.2 26.88 
" style="fill: none; stroke: #000000; stroke-width: 0.8; stroke-linejoin: miter; stroke-linecap: square"/>
   </g>
   <g id="patch_17">
    <path d="M 764.78 318.04 
L 1069.2 318.04 
" style="fill: none; stroke: #000000; stroke-width: 0.8; stroke-linejoin: miter; stroke-linecap: square"/>
   </g>
   <g id="patch_18">
    <path d="M 764.78 26.88 
L 1069.2 26.88 
" style="fill: none; stroke: #000000; stroke-width: 0.8; stroke-linejoin: miter; stroke-linecap: square"/>
   </g>
   <g id="text_55">
    <!-- F1-Score vs Epoch -->
    <g transform="translate(861.890313 20.88) scale(0.12 -0.12)">
     <use xlink:href="#DejaVuSans-46"/>
     <use xlink:href="#DejaVuSans-31" x="57.519531"/>
     <use xlink:href="#DejaVuSans-2d" x="121.142578"/>
     <use xlink:href="#DejaVuSans-53" x="157.226562"/>
     <use xlink:href="#DejaVuSans-63" x="220.703125"/>
     <use xlink:href="#DejaVuSans-6f" x="275.683594"/>
     <use xlink:href="#DejaVuSans-72" x="336.865234"/>
     <use xlink:href="#DejaVuSans-65" x="375.728516"/>
     <use xlink:href="#DejaVuSans-20" x="437.251953"/>
     <use xlink:href="#DejaVuSans-76" x="469.039062"/>
     <use xlink:href="#DejaVuSans-73" x="528.21875"/>
     <use xlink:href="#DejaVuSans-20" x="580.318359"/>
     <use xlink:href="#DejaVuSans-45" x="612.105469"/>
     <use xlink:href="#DejaVuSans-70" x="675.289062"/>
     <use xlink:href="#DejaVuSans-6f" x="738.765625"/>
     <use xlink:href="#DejaVuSans-63" x="799.947266"/>
     <use xlink:href="#DejaVuSans-68" x="854.927734"/>
    </g>
   </g>
   <g id="legend_3">
    <g id="patch_19">
     <path d="M 771.78 64.23625 
L 868.453438 64.23625 
Q 870.453438 64.23625 870.453438 62.23625 
L 870.453438 33.88 
Q 870.453438 31.88 868.453438 31.88 
L 771.78 31.88 
Q 769.78 31.88 769.78 33.88 
L 769.78 62.23625 
Q 769.78 64.23625 771.78 64.23625 
z
" style="fill: #ffffff; opacity: 0.8; stroke: #cccccc; stroke-linejoin: miter"/>
    </g>
    <g id="line2d_53">
     <path d="M 773.78 39.978437 
L 783.78 39.978437 
L 793.78 39.978437 
" style="fill: none; stroke: #1f77b4; stroke-width: 1.5; stroke-linecap: square"/>
    </g>
    <g id="text_56">
     <!-- Train F1 -->
     <g transform="translate(801.78 43.478437) scale(0.1 -0.1)">
      <use xlink:href="#DejaVuSans-54"/>
      <use xlink:href="#DejaVuSans-72" x="46.333984"/>
      <use xlink:href="#DejaVuSans-61" x="87.447266"/>
      <use xlink:href="#DejaVuSans-69" x="148.726562"/>
      <use xlink:href="#DejaVuSans-6e" x="176.509766"/>
      <use xlink:href="#DejaVuSans-20" x="239.888672"/>
      <use xlink:href="#DejaVuSans-46" x="271.675781"/>
      <use xlink:href="#DejaVuSans-31" x="329.195312"/>
     </g>
    </g>
    <g id="line2d_54">
     <path d="M 773.78 54.656563 
L 783.78 54.656563 
L 793.78 54.656563 
" style="fill: none; stroke: #ff7f0e; stroke-width: 1.5; stroke-linecap: square"/>
    </g>
    <g id="text_57">
     <!-- Validation F1 -->
     <g transform="translate(801.78 58.156563) scale(0.1 -0.1)">
      <use xlink:href="#DejaVuSans-56"/>
      <use xlink:href="#DejaVuSans-61" x="60.658203"/>
      <use xlink:href="#DejaVuSans-6c" x="121.9375"/>
      <use xlink:href="#DejaVuSans-69" x="149.720703"/>
      <use xlink:href="#DejaVuSans-64" x="177.503906"/>
      <use xlink:href="#DejaVuSans-61" x="240.980469"/>
      <use xlink:href="#DejaVuSans-74" x="302.259766"/>
      <use xlink:href="#DejaVuSans-69" x="341.46875"/>
      <use xlink:href="#DejaVuSans-6f" x="369.251953"/>
      <use xlink:href="#DejaVuSans-6e" x="430.433594"/>
      <use xlink:href="#DejaVuSans-20" x="493.8125"/>
      <use xlink:href="#DejaVuSans-46" x="525.599609"/>
      <use xlink:href="#DejaVuSans-31" x="583.119141"/>
     </g>
    </g>
   </g>
  </g>
 </g>
 <defs>
  <clipPath id="p62e747a2ed">
   <rect x="47.72" y="26.88" width="304.42" height="291.16"/>
  </clipPath>
  <clipPath id="pe42f905084">
   <rect x="406.25" y="26.88" width="304.42" height="291.16"/>
  </clipPath>
  <clipPath id="p503844f1e3">
   <rect x="764.78" y="26.88" width="304.42" height="291.16"/>
  </clipPath>
 </defs>
</svg>
