<?xml version="1.0" encoding="utf-8" standalone="no"?>
<!DOCTYPE svg PUBLIC "-//W3C//DTD SVG 1.1//EN"
  "http://www.w3.org/Graphics/SVG/1.1/DTD/svg11.dtd">
<svg xmlns:xlink="http://www.w3.org/1999/xlink" width="1080pt" height="360pt" viewBox="0 0 1080 360" xmlns="http://www.w3.org/2000/svg" version="1.1">
 <metadata>
  <rdf:RDF xmlns:dc="http://purl.org/dc/elements/1.1/" xmlns:cc="http://creativecommons.org/ns#" xmlns:rdf="http://www.w3.org/1999/02/22-rdf-syntax-ns#">
   <cc:Work>
    <dc:type rdf:resource="http://purl.org/dc/dcmitype/StillImage"/>
    <dc:date>2024-10-23T10:57:54.354511</dc:date>
    <dc:format>image/svg+xml</dc:format>
    <dc:creator>
     <cc:Agent>
      <dc:title>Matplotlib v3.8.2, https://matplotlib.org/</dc:title>
     </cc:Agent>
    </dc:creator>
   </cc:Work>
  </rdf:RDF>
 </metadata>
 <defs>
  <style type="text/css">*{stroke-linejoin: round; stroke-linecap: butt}</style>
 </defs>
 <g id="figure_1">
  <g id="patch_1">
   <path d="M 0 360 
L 1080 360 
L 1080 0 
L 0 0 
z
" style="fill: #ffffff"/>
  </g>
  <g id="axes_1">
   <g id="patch_2">
    <path d="M 47.72 318.04 
L 343.579569 318.04 
L 343.579569 26.88 
L 47.72 26.88 
z
" style="fill: #ffffff"/>
   </g>
   <g id="matplotlib.axis_1">
    <g id="xtick_1">
     <g id="line2d_1">
      <defs>
       <path id="m87423e5a8c" d="M 0 0 
L 0 3.5 
" style="stroke: #000000; stroke-width: 0.8"/>
      </defs>
      <g>
       <use xlink:href="#m87423e5a8c" x="61.168162" y="318.04" style="stroke: #000000; stroke-width: 0.8"/>
      </g>
     </g>
     <g id="text_1">
      <!-- 0 -->
      <g transform="translate(57.986912 332.638438) scale(0.1 -0.1)">
       <defs>
        <path id="DejaVuSans-30" d="M 2034 4250 
Q 1547 4250 1301 3770 
Q 1056 3291 1056 2328 
Q 1056 1369 1301 889 
Q 1547 409 2034 409 
Q 2525 409 2770 889 
Q 3016 1369 3016 2328 
Q 3016 3291 2770 3770 
Q 2525 4250 2034 4250 
z
M 2034 4750 
Q 2819 4750 3233 4129 
Q 3647 3509 3647 2328 
Q 3647 1150 3233 529 
Q 2819 -91 2034 -91 
Q 1250 -91 836 529 
Q 422 1150 422 2328 
Q 422 3509 836 4129 
Q 1250 4750 2034 4750 
z
" transform="scale(0.015625)"/>
       </defs>
       <use xlink:href="#DejaVuSans-30"/>
      </g>
     </g>
    </g>
    <g id="xtick_2">
     <g id="line2d_2">
      <g>
       <use xlink:href="#m87423e5a8c" x="117.436623" y="318.04" style="stroke: #000000; stroke-width: 0.8"/>
      </g>
     </g>
     <g id="text_2">
      <!-- 50 -->
      <g transform="translate(111.074123 332.638438) scale(0.1 -0.1)">
       <defs>
        <path id="DejaVuSans-35" d="M 691 4666 
L 3169 4666 
L 3169 4134 
L 1269 4134 
L 1269 2991 
Q 1406 3038 1543 3061 
Q 1681 3084 1819 3084 
Q 2600 3084 3056 2656 
Q 3513 2228 3513 1497 
Q 3513 744 3044 326 
Q 2575 -91 1722 -91 
Q 1428 -91 1123 -41 
Q 819 9 494 109 
L 494 744 
Q 775 591 1075 516 
Q 1375 441 1709 441 
Q 2250 441 2565 725 
Q 2881 1009 2881 1497 
Q 2881 1984 2565 2268 
Q 2250 2553 1709 2553 
Q 1456 2553 1204 2497 
Q 953 2441 691 2322 
L 691 4666 
z
" transform="scale(0.015625)"/>
       </defs>
       <use xlink:href="#DejaVuSans-35"/>
       <use xlink:href="#DejaVuSans-30" x="63.623047"/>
      </g>
     </g>
    </g>
    <g id="xtick_3">
     <g id="line2d_3">
      <g>
       <use xlink:href="#m87423e5a8c" x="173.705085" y="318.04" style="stroke: #000000; stroke-width: 0.8"/>
      </g>
     </g>
     <g id="text_3">
      <!-- 100 -->
      <g transform="translate(164.161335 332.638438) scale(0.1 -0.1)">
       <defs>
        <path id="DejaVuSans-31" d="M 794 531 
L 1825 531 
L 1825 4091 
L 703 3866 
L 703 4441 
L 1819 4666 
L 2450 4666 
L 2450 531 
L 3481 531 
L 3481 0 
L 794 0 
L 794 531 
z
" transform="scale(0.015625)"/>
       </defs>
       <use xlink:href="#DejaVuSans-31"/>
       <use xlink:href="#DejaVuSans-30" x="63.623047"/>
       <use xlink:href="#DejaVuSans-30" x="127.246094"/>
      </g>
     </g>
    </g>
    <g id="xtick_4">
     <g id="line2d_4">
      <g>
       <use xlink:href="#m87423e5a8c" x="229.973546" y="318.04" style="stroke: #000000; stroke-width: 0.8"/>
      </g>
     </g>
     <g id="text_4">
      <!-- 150 -->
      <g transform="translate(220.429796 332.638438) scale(0.1 -0.1)">
       <use xlink:href="#DejaVuSans-31"/>
       <use xlink:href="#DejaVuSans-35" x="63.623047"/>
       <use xlink:href="#DejaVuSans-30" x="127.246094"/>
      </g>
     </g>
    </g>
    <g id="xtick_5">
     <g id="line2d_5">
      <g>
       <use xlink:href="#m87423e5a8c" x="286.242007" y="318.04" style="stroke: #000000; stroke-width: 0.8"/>
      </g>
     </g>
     <g id="text_5">
      <!-- 200 -->
      <g transform="translate(276.698257 332.638438) scale(0.1 -0.1)">
       <defs>
        <path id="DejaVuSans-32" d="M 1228 531 
L 3431 531 
L 3431 0 
L 469 0 
L 469 531 
Q 828 903 1448 1529 
Q 2069 2156 2228 2338 
Q 2531 2678 2651 2914 
Q 2772 3150 2772 3378 
Q 2772 3750 2511 3984 
Q 2250 4219 1831 4219 
Q 1534 4219 1204 4116 
Q 875 4013 500 3803 
L 500 4441 
Q 881 4594 1212 4672 
Q 1544 4750 1819 4750 
Q 2544 4750 2975 4387 
Q 3406 4025 3406 3419 
Q 3406 3131 3298 2873 
Q 3191 2616 2906 2266 
Q 2828 2175 2409 1742 
Q 1991 1309 1228 531 
z
" transform="scale(0.015625)"/>
       </defs>
       <use xlink:href="#DejaVuSans-32"/>
       <use xlink:href="#DejaVuSans-30" x="63.623047"/>
       <use xlink:href="#DejaVuSans-30" x="127.246094"/>
      </g>
     </g>
    </g>
    <g id="xtick_6">
     <g id="line2d_6">
      <g>
       <use xlink:href="#m87423e5a8c" x="342.510468" y="318.04" style="stroke: #000000; stroke-width: 0.8"/>
      </g>
     </g>
     <g id="text_6">
      <!-- 250 -->
      <g transform="translate(332.966718 332.638438) scale(0.1 -0.1)">
       <use xlink:href="#DejaVuSans-32"/>
       <use xlink:href="#DejaVuSans-35" x="63.623047"/>
       <use xlink:href="#DejaVuSans-30" x="127.246094"/>
      </g>
     </g>
    </g>
    <g id="text_7">
     <!-- Epoch -->
     <g transform="translate(180.338847 346.316563) scale(0.1 -0.1)">
      <defs>
       <path id="DejaVuSans-45" d="M 628 4666 
L 3578 4666 
L 3578 4134 
L 1259 4134 
L 1259 2753 
L 3481 2753 
L 3481 2222 
L 1259 2222 
L 1259 531 
L 3634 531 
L 3634 0 
L 628 0 
L 628 4666 
z
" transform="scale(0.015625)"/>
       <path id="DejaVuSans-70" d="M 1159 525 
L 1159 -1331 
L 581 -1331 
L 581 3500 
L 1159 3500 
L 1159 2969 
Q 1341 3281 1617 3432 
Q 1894 3584 2278 3584 
Q 2916 3584 3314 3078 
Q 3713 2572 3713 1747 
Q 3713 922 3314 415 
Q 2916 -91 2278 -91 
Q 1894 -91 1617 61 
Q 1341 213 1159 525 
z
M 3116 1747 
Q 3116 2381 2855 2742 
Q 2594 3103 2138 3103 
Q 1681 3103 1420 2742 
Q 1159 2381 1159 1747 
Q 1159 1113 1420 752 
Q 1681 391 2138 391 
Q 2594 391 2855 752 
Q 3116 1113 3116 1747 
z
" transform="scale(0.015625)"/>
       <path id="DejaVuSans-6f" d="M 1959 3097 
Q 1497 3097 1228 2736 
Q 959 2375 959 1747 
Q 959 1119 1226 758 
Q 1494 397 1959 397 
Q 2419 397 2687 759 
Q 2956 1122 2956 1747 
Q 2956 2369 2687 2733 
Q 2419 3097 1959 3097 
z
M 1959 3584 
Q 2709 3584 3137 3096 
Q 3566 2609 3566 1747 
Q 3566 888 3137 398 
Q 2709 -91 1959 -91 
Q 1206 -91 779 398 
Q 353 888 353 1747 
Q 353 2609 779 3096 
Q 1206 3584 1959 3584 
z
" transform="scale(0.015625)"/>
       <path id="DejaVuSans-63" d="M 3122 3366 
L 3122 2828 
Q 2878 2963 2633 3030 
Q 2388 3097 2138 3097 
Q 1578 3097 1268 2742 
Q 959 2388 959 1747 
Q 959 1106 1268 751 
Q 1578 397 2138 397 
Q 2388 397 2633 464 
Q 2878 531 3122 666 
L 3122 134 
Q 2881 22 2623 -34 
Q 2366 -91 2075 -91 
Q 1284 -91 818 406 
Q 353 903 353 1747 
Q 353 2603 823 3093 
Q 1294 3584 2113 3584 
Q 2378 3584 2631 3529 
Q 2884 3475 3122 3366 
z
" transform="scale(0.015625)"/>
       <path id="DejaVuSans-68" d="M 3513 2113 
L 3513 0 
L 2938 0 
L 2938 2094 
Q 2938 2591 2744 2837 
Q 2550 3084 2163 3084 
Q 1697 3084 1428 2787 
Q 1159 2491 1159 1978 
L 1159 0 
L 581 0 
L 581 4863 
L 1159 4863 
L 1159 2956 
Q 1366 3272 1645 3428 
Q 1925 3584 2291 3584 
Q 2894 3584 3203 3211 
Q 3513 2838 3513 2113 
z
" transform="scale(0.015625)"/>
      </defs>
      <use xlink:href="#DejaVuSans-45"/>
      <use xlink:href="#DejaVuSans-70" x="63.183594"/>
      <use xlink:href="#DejaVuSans-6f" x="126.660156"/>
      <use xlink:href="#DejaVuSans-63" x="187.841797"/>
      <use xlink:href="#DejaVuSans-68" x="242.822266"/>
     </g>
    </g>
   </g>
   <g id="matplotlib.axis_2">
    <g id="ytick_1">
     <g id="line2d_7">
      <defs>
       <path id="me423b8fb53" d="M 0 0 
L -3.5 0 
" style="stroke: #000000; stroke-width: 0.8"/>
      </defs>
      <g>
       <use xlink:href="#me423b8fb53" x="47.72" y="317.555983" style="stroke: #000000; stroke-width: 0.8"/>
      </g>
     </g>
     <g id="text_8">
      <!-- 0.2 -->
      <g transform="translate(24.816875 321.355201) scale(0.1 -0.1)">
       <defs>
        <path id="DejaVuSans-2e" d="M 684 794 
L 1344 794 
L 1344 0 
L 684 0 
L 684 794 
z
" transform="scale(0.015625)"/>
       </defs>
       <use xlink:href="#DejaVuSans-30"/>
       <use xlink:href="#DejaVuSans-2e" x="63.623047"/>
       <use xlink:href="#DejaVuSans-32" x="95.410156"/>
      </g>
     </g>
    </g>
    <g id="ytick_2">
     <g id="line2d_8">
      <g>
       <use xlink:href="#me423b8fb53" x="47.72" y="266.779483" style="stroke: #000000; stroke-width: 0.8"/>
      </g>
     </g>
     <g id="text_9">
      <!-- 0.4 -->
      <g transform="translate(24.816875 270.578702) scale(0.1 -0.1)">
       <defs>
        <path id="DejaVuSans-34" d="M 2419 4116 
L 825 1625 
L 2419 1625 
L 2419 4116 
z
M 2253 4666 
L 3047 4666 
L 3047 1625 
L 3713 1625 
L 3713 1100 
L 3047 1100 
L 3047 0 
L 2419 0 
L 2419 1100 
L 313 1100 
L 313 1709 
L 2253 4666 
z
" transform="scale(0.015625)"/>
       </defs>
       <use xlink:href="#DejaVuSans-30"/>
       <use xlink:href="#DejaVuSans-2e" x="63.623047"/>
       <use xlink:href="#DejaVuSans-34" x="95.410156"/>
      </g>
     </g>
    </g>
    <g id="ytick_3">
     <g id="line2d_9">
      <g>
       <use xlink:href="#me423b8fb53" x="47.72" y="216.002984" style="stroke: #000000; stroke-width: 0.8"/>
      </g>
     </g>
     <g id="text_10">
      <!-- 0.6 -->
      <g transform="translate(24.816875 219.802203) scale(0.1 -0.1)">
       <defs>
        <path id="DejaVuSans-36" d="M 2113 2584 
Q 1688 2584 1439 2293 
Q 1191 2003 1191 1497 
Q 1191 994 1439 701 
Q 1688 409 2113 409 
Q 2538 409 2786 701 
Q 3034 994 3034 1497 
Q 3034 2003 2786 2293 
Q 2538 2584 2113 2584 
z
M 3366 4563 
L 3366 3988 
Q 3128 4100 2886 4159 
Q 2644 4219 2406 4219 
Q 1781 4219 1451 3797 
Q 1122 3375 1075 2522 
Q 1259 2794 1537 2939 
Q 1816 3084 2150 3084 
Q 2853 3084 3261 2657 
Q 3669 2231 3669 1497 
Q 3669 778 3244 343 
Q 2819 -91 2113 -91 
Q 1303 -91 875 529 
Q 447 1150 447 2328 
Q 447 3434 972 4092 
Q 1497 4750 2381 4750 
Q 2619 4750 2861 4703 
Q 3103 4656 3366 4563 
z
" transform="scale(0.015625)"/>
       </defs>
       <use xlink:href="#DejaVuSans-30"/>
       <use xlink:href="#DejaVuSans-2e" x="63.623047"/>
       <use xlink:href="#DejaVuSans-36" x="95.410156"/>
      </g>
     </g>
    </g>
    <g id="ytick_4">
     <g id="line2d_10">
      <g>
       <use xlink:href="#me423b8fb53" x="47.72" y="165.226485" style="stroke: #000000; stroke-width: 0.8"/>
      </g>
     </g>
     <g id="text_11">
      <!-- 0.8 -->
      <g transform="translate(24.816875 169.025704) scale(0.1 -0.1)">
       <defs>
        <path id="DejaVuSans-38" d="M 2034 2216 
Q 1584 2216 1326 1975 
Q 1069 1734 1069 1313 
Q 1069 891 1326 650 
Q 1584 409 2034 409 
Q 2484 409 2743 651 
Q 3003 894 3003 1313 
Q 3003 1734 2745 1975 
Q 2488 2216 2034 2216 
z
M 1403 2484 
Q 997 2584 770 2862 
Q 544 3141 544 3541 
Q 544 4100 942 4425 
Q 1341 4750 2034 4750 
Q 2731 4750 3128 4425 
Q 3525 4100 3525 3541 
Q 3525 3141 3298 2862 
Q 3072 2584 2669 2484 
Q 3125 2378 3379 2068 
Q 3634 1759 3634 1313 
Q 3634 634 3220 271 
Q 2806 -91 2034 -91 
Q 1263 -91 848 271 
Q 434 634 434 1313 
Q 434 1759 690 2068 
Q 947 2378 1403 2484 
z
M 1172 3481 
Q 1172 3119 1398 2916 
Q 1625 2713 2034 2713 
Q 2441 2713 2670 2916 
Q 2900 3119 2900 3481 
Q 2900 3844 2670 4047 
Q 2441 4250 2034 4250 
Q 1625 4250 1398 4047 
Q 1172 3844 1172 3481 
z
" transform="scale(0.015625)"/>
       </defs>
       <use xlink:href="#DejaVuSans-30"/>
       <use xlink:href="#DejaVuSans-2e" x="63.623047"/>
       <use xlink:href="#DejaVuSans-38" x="95.410156"/>
      </g>
     </g>
    </g>
    <g id="ytick_5">
     <g id="line2d_11">
      <g>
       <use xlink:href="#me423b8fb53" x="47.72" y="114.449985" style="stroke: #000000; stroke-width: 0.8"/>
      </g>
     </g>
     <g id="text_12">
      <!-- 1.0 -->
      <g transform="translate(24.816875 118.249204) scale(0.1 -0.1)">
       <use xlink:href="#DejaVuSans-31"/>
       <use xlink:href="#DejaVuSans-2e" x="63.623047"/>
       <use xlink:href="#DejaVuSans-30" x="95.410156"/>
      </g>
     </g>
    </g>
    <g id="ytick_6">
     <g id="line2d_12">
      <g>
       <use xlink:href="#me423b8fb53" x="47.72" y="63.673486" style="stroke: #000000; stroke-width: 0.8"/>
      </g>
     </g>
     <g id="text_13">
      <!-- 1.2 -->
      <g transform="translate(24.816875 67.472705) scale(0.1 -0.1)">
       <use xlink:href="#DejaVuSans-31"/>
       <use xlink:href="#DejaVuSans-2e" x="63.623047"/>
       <use xlink:href="#DejaVuSans-32" x="95.410156"/>
      </g>
     </g>
    </g>
    <g id="text_14">
     <!-- Loss -->
     <g transform="translate(18.737187 183.427188) rotate(-90) scale(0.1 -0.1)">
      <defs>
       <path id="DejaVuSans-4c" d="M 628 4666 
L 1259 4666 
L 1259 531 
L 3531 531 
L 3531 0 
L 628 0 
L 628 4666 
z
" transform="scale(0.015625)"/>
       <path id="DejaVuSans-73" d="M 2834 3397 
L 2834 2853 
Q 2591 2978 2328 3040 
Q 2066 3103 1784 3103 
Q 1356 3103 1142 2972 
Q 928 2841 928 2578 
Q 928 2378 1081 2264 
Q 1234 2150 1697 2047 
L 1894 2003 
Q 2506 1872 2764 1633 
Q 3022 1394 3022 966 
Q 3022 478 2636 193 
Q 2250 -91 1575 -91 
Q 1294 -91 989 -36 
Q 684 19 347 128 
L 347 722 
Q 666 556 975 473 
Q 1284 391 1588 391 
Q 1994 391 2212 530 
Q 2431 669 2431 922 
Q 2431 1156 2273 1281 
Q 2116 1406 1581 1522 
L 1381 1569 
Q 847 1681 609 1914 
Q 372 2147 372 2553 
Q 372 3047 722 3315 
Q 1072 3584 1716 3584 
Q 2034 3584 2315 3537 
Q 2597 3491 2834 3397 
z
" transform="scale(0.015625)"/>
      </defs>
      <use xlink:href="#DejaVuSans-4c"/>
      <use xlink:href="#DejaVuSans-6f" x="53.962891"/>
      <use xlink:href="#DejaVuSans-73" x="115.144531"/>
      <use xlink:href="#DejaVuSans-73" x="167.244141"/>
     </g>
    </g>
   </g>
   <g id="line2d_13">
    <path d="M 61.168162 213.544165 
L 62.293531 208.498294 
L 63.418901 209.90868 
L 64.54427 207.585684 
L 65.669639 205.794724 
L 66.795008 207.089823 
L 67.920378 206.410406 
L 69.045747 206.61696 
L 70.171116 212.68383 
L 71.296485 217.287861 
L 72.421854 216.469429 
L 73.547224 224.386108 
L 74.672593 235.927915 
L 75.797962 238.088031 
L 76.923331 240.58877 
L 78.048701 246.241472 
L 79.17407 250.518646 
L 80.299439 253.397547 
L 81.424808 258.332978 
L 82.550177 258.18735 
L 83.675547 260.186716 
L 84.800916 264.891459 
L 85.926285 267.480915 
L 87.051654 269.199464 
L 88.177024 271.524401 
L 89.302393 271.288295 
L 90.427762 273.9631 
L 91.553131 275.4646 
L 92.6785 275.224094 
L 93.80387 275.623447 
L 96.054608 277.734121 
L 97.179977 278.49288 
L 98.305347 278.400889 
L 99.430716 279.555724 
L 100.556085 279.621181 
L 101.681454 280.356894 
L 102.806823 280.525655 
L 103.932193 280.353136 
L 105.057562 281.786556 
L 106.182931 281.278701 
L 107.3083 281.740149 
L 108.43367 280.199264 
L 109.559039 280.585515 
L 110.684408 283.725332 
L 111.809777 283.714083 
L 112.935146 284.096944 
L 114.060516 284.769593 
L 115.185885 284.58002 
L 117.436623 286.087547 
L 118.561993 284.764471 
L 119.687362 287.234253 
L 120.812731 285.718537 
L 121.9381 287.319027 
L 124.188839 286.987737 
L 125.314208 287.42253 
L 126.439577 287.692682 
L 127.564946 288.202782 
L 128.690316 288.079861 
L 129.815685 288.835064 
L 130.941054 287.904699 
L 132.066423 288.133791 
L 133.191793 288.517498 
L 135.442531 288.342642 
L 136.5679 290.638962 
L 137.693269 289.308309 
L 138.818639 288.706348 
L 139.944008 289.536275 
L 141.069377 288.803434 
L 142.194746 289.472769 
L 143.320116 291.365887 
L 144.445485 288.696517 
L 145.570854 290.61367 
L 146.696223 290.81433 
L 147.821592 291.583023 
L 150.072331 292.210469 
L 151.1977 291.922126 
L 152.323069 292.251746 
L 153.448439 291.546254 
L 155.699177 291.753195 
L 156.824546 293.106129 
L 157.949915 291.661307 
L 159.075285 292.218331 
L 160.200654 293.181883 
L 161.326023 292.70574 
L 162.451392 291.567165 
L 163.576762 292.757383 
L 164.702131 292.542218 
L 165.8275 292.50681 
L 166.952869 293.471168 
L 168.078238 293.256552 
L 169.203608 292.492568 
L 170.328977 293.620748 
L 171.454346 292.770502 
L 172.579715 293.223742 
L 173.705085 294.338017 
L 174.830454 293.544466 
L 175.955823 294.557856 
L 177.081192 294.510087 
L 178.206561 294.34882 
L 179.331931 295.393204 
L 180.4573 295.717971 
L 181.582669 295.005854 
L 182.708038 294.610517 
L 183.833408 295.624032 
L 184.958777 295.042801 
L 186.084146 295.6863 
L 187.209515 296.145324 
L 188.334884 295.771214 
L 189.460254 296.689002 
L 190.585623 296.283 
L 191.710992 296.206259 
L 192.836361 296.333974 
L 193.961731 295.816862 
L 195.0871 296.278001 
L 196.212469 294.885666 
L 197.337838 296.10637 
L 198.463207 296.805755 
L 199.588577 296.989467 
L 200.713946 296.375777 
L 201.839315 296.672292 
L 202.964684 297.828015 
L 204.090054 297.359527 
L 206.340792 296.760907 
L 207.466161 298.087326 
L 208.59153 298.64529 
L 209.7169 297.990146 
L 210.842269 298.28163 
L 211.967638 297.395142 
L 213.093007 297.613515 
L 214.218377 297.632358 
L 215.343746 298.288217 
L 216.469115 298.586778 
L 217.594484 298.572253 
L 218.719853 299.437896 
L 219.845223 298.474337 
L 220.970592 299.045297 
L 222.095961 298.371466 
L 223.22133 298.634606 
L 224.3467 299.053188 
L 225.472069 297.926313 
L 226.597438 298.708122 
L 227.722807 298.755747 
L 228.848177 299.062095 
L 229.973546 300.287523 
L 231.098915 299.372073 
L 232.224284 299.776509 
L 234.475023 299.836286 
L 235.600392 300.691136 
L 236.725761 301.117503 
L 237.85113 300.311834 
L 238.9765 301.001244 
L 240.101869 300.480964 
L 241.227238 299.744015 
L 242.352607 300.344959 
L 243.477976 300.697686 
L 244.603346 300.505413 
L 245.728715 300.730031 
L 246.854084 300.493114 
L 247.979453 300.545663 
L 249.104823 300.256052 
L 250.230192 300.461267 
L 251.355561 300.993969 
L 253.606299 300.318145 
L 255.857038 300.67612 
L 256.982407 301.166794 
L 258.107776 301.390614 
L 259.233146 301.321672 
L 260.358515 302.101416 
L 261.483884 300.534371 
L 262.609253 301.857298 
L 263.734622 300.727073 
L 264.859992 301.994338 
L 265.985361 301.567835 
L 267.11073 301.750612 
L 268.236099 301.638257 
L 271.612207 301.975589 
L 272.737576 302.533041 
L 273.862945 301.439344 
L 274.988315 299.610846 
L 276.113684 302.383605 
L 277.239053 303.448689 
L 278.364422 302.351795 
L 279.489792 302.951919 
L 280.615161 301.903223 
L 281.74053 301.82928 
L 282.865899 302.316401 
L 283.991268 301.607528 
L 285.116638 302.696383 
L 286.242007 302.733673 
L 287.367376 303.006709 
L 288.492745 302.946663 
L 289.618115 302.719911 
L 290.743484 303.052606 
L 291.868853 302.490221 
L 292.994222 303.410335 
L 294.119591 302.824777 
L 295.244961 302.703497 
L 296.37033 303.189855 
L 297.495699 303.316061 
L 298.621068 303.79157 
L 299.746438 303.471227 
L 300.871807 302.641364 
L 301.997176 303.779513 
L 303.122545 303.431554 
L 304.247914 303.333066 
L 305.373284 303.944985 
L 306.498653 303.022962 
L 307.624022 303.634438 
L 308.749391 303.916651 
L 309.874761 303.797043 
L 311.00013 302.994027 
L 312.125499 304.129944 
L 313.250868 303.519753 
L 314.376237 304.369373 
L 315.501607 303.067691 
L 316.626976 304.015118 
L 317.752345 304.277918 
L 318.877714 304.038305 
L 320.003084 304.419862 
L 321.128453 304.150985 
L 323.379191 304.805455 
L 325.62993 304.094069 
L 329.006037 304.56796 
L 330.131407 303.807863 
L 330.131407 303.807863 
" clip-path="url(#p415ae6c85a)" style="fill: none; stroke: #1f77b4; stroke-width: 1.5; stroke-linecap: square"/>
   </g>
   <g id="line2d_14">
    <path d="M 61.168162 128.238637 
L 62.293531 117.180373 
L 63.418901 40.114545 
L 64.54427 169.079685 
L 65.669639 164.269612 
L 66.795008 147.732259 
L 67.920378 151.479998 
L 69.045747 117.137217 
L 70.171116 135.883577 
L 71.296485 159.865041 
L 72.421854 162.630348 
L 73.547224 186.395973 
L 74.672593 160.926777 
L 75.797962 159.449649 
L 76.923331 176.193573 
L 78.048701 157.866919 
L 79.17407 147.802349 
L 80.299439 147.230214 
L 81.424808 161.583744 
L 82.550177 98.283718 
L 84.800916 172.534904 
L 85.926285 191.238325 
L 87.051654 185.922066 
L 88.177024 141.980458 
L 89.302393 162.462238 
L 90.427762 167.587886 
L 91.553131 184.256865 
L 92.6785 163.596964 
L 93.80387 181.023671 
L 94.929239 161.283843 
L 96.054608 136.560173 
L 97.179977 176.629455 
L 98.305347 201.543792 
L 99.430716 205.806813 
L 100.556085 196.687551 
L 101.681454 184.861143 
L 102.806823 158.255423 
L 103.932193 202.328212 
L 105.057562 134.543013 
L 106.182931 132.835078 
L 107.3083 138.898912 
L 108.43367 154.414143 
L 109.559039 221.101685 
L 110.684408 181.848685 
L 111.809777 161.296111 
L 112.935146 206.238736 
L 114.060516 241.491083 
L 115.185885 219.043977 
L 116.311254 208.256757 
L 117.436623 168.241017 
L 118.561993 238.821599 
L 119.687362 182.285884 
L 120.812731 211.465335 
L 121.9381 204.43482 
L 123.06347 199.563993 
L 124.188839 203.709636 
L 125.314208 183.074419 
L 126.439577 209.240992 
L 127.564946 195.423331 
L 128.690316 235.85658 
L 129.815685 195.394203 
L 130.941054 198.581881 
L 132.066423 209.030655 
L 133.191793 214.76052 
L 134.317162 149.948284 
L 135.442531 251.943904 
L 136.5679 207.106654 
L 137.693269 219.093273 
L 138.818639 194.495197 
L 139.944008 186.102852 
L 141.069377 228.149396 
L 142.194746 200.038369 
L 143.320116 184.326972 
L 144.445485 194.651879 
L 145.570854 228.969152 
L 146.696223 199.625766 
L 147.821592 208.636735 
L 148.946962 205.788453 
L 150.072331 220.034341 
L 151.1977 210.86432 
L 152.323069 147.407419 
L 153.448439 176.945332 
L 154.573808 211.683782 
L 155.699177 238.664108 
L 156.824546 169.394569 
L 157.949915 193.163141 
L 159.075285 228.509826 
L 160.200654 239.172329 
L 161.326023 184.28285 
L 162.451392 211.97515 
L 163.576762 194.643726 
L 164.702131 219.433801 
L 165.8275 210.298255 
L 166.952869 205.286059 
L 168.078238 211.229577 
L 169.203608 200.372037 
L 170.328977 170.174285 
L 171.454346 192.727507 
L 172.579715 222.573406 
L 173.705085 222.685004 
L 174.830454 220.821533 
L 175.955823 226.696952 
L 177.081192 167.018612 
L 178.206561 227.286152 
L 179.331931 256.250288 
L 180.4573 209.819548 
L 181.582669 180.932159 
L 182.708038 228.868094 
L 183.833408 191.59677 
L 184.958777 229.19385 
L 186.084146 228.930199 
L 187.209515 199.020531 
L 188.334884 249.012671 
L 189.460254 220.110584 
L 190.585623 217.463888 
L 191.710992 237.114868 
L 192.836361 195.489059 
L 193.961731 235.135313 
L 195.0871 198.313532 
L 196.212469 195.283436 
L 197.337838 244.014936 
L 198.463207 210.80974 
L 199.588577 232.435611 
L 200.713946 199.826935 
L 201.839315 211.451116 
L 202.964684 215.020107 
L 204.090054 192.924502 
L 205.215423 174.954882 
L 206.340792 227.196694 
L 207.466161 224.616973 
L 208.59153 202.143854 
L 209.7169 228.69985 
L 210.842269 223.185708 
L 211.967638 227.77957 
L 213.093007 208.255519 
L 214.218377 236.218493 
L 215.343746 251.260553 
L 216.469115 215.72653 
L 217.594484 259.02422 
L 218.719853 224.134464 
L 219.845223 209.477379 
L 220.970592 215.737303 
L 222.095961 225.169246 
L 223.22133 217.65561 
L 224.3467 183.416923 
L 225.472069 223.964093 
L 227.722807 215.870465 
L 228.848177 242.68118 
L 229.973546 226.993941 
L 231.098915 243.610328 
L 232.224284 233.911066 
L 233.349653 239.654315 
L 234.475023 261.845052 
L 235.600392 262.208264 
L 236.725761 237.281355 
L 237.85113 236.401314 
L 238.9765 228.628547 
L 240.101869 232.031904 
L 241.227238 234.425347 
L 242.352607 253.170195 
L 243.477976 233.117137 
L 244.603346 222.571166 
L 245.728715 233.865546 
L 246.854084 234.941092 
L 247.979453 181.397687 
L 249.104823 215.140684 
L 250.230192 213.103188 
L 251.355561 232.347863 
L 252.48093 211.826965 
L 253.606299 240.595629 
L 254.731669 234.779401 
L 255.857038 237.809354 
L 256.982407 245.102365 
L 258.107776 228.976666 
L 259.233146 240.01378 
L 260.358515 199.514426 
L 261.483884 230.13637 
L 262.609253 199.909136 
L 263.734622 252.914786 
L 264.859992 228.472116 
L 265.985361 217.259516 
L 267.11073 227.318558 
L 268.236099 229.912586 
L 269.361469 240.404143 
L 270.486838 238.770047 
L 271.612207 261.060791 
L 272.737576 213.197176 
L 273.862945 195.528278 
L 274.988315 248.58127 
L 276.113684 234.301994 
L 277.239053 228.855954 
L 278.364422 237.957506 
L 279.489792 216.83981 
L 280.615161 210.651913 
L 281.74053 192.16972 
L 282.865899 224.96989 
L 283.991268 241.953793 
L 285.116638 219.681597 
L 286.242007 235.256789 
L 287.367376 237.727092 
L 289.618115 232.66902 
L 290.743484 227.40261 
L 291.868853 238.64726 
L 292.994222 223.596238 
L 294.119591 222.526277 
L 295.244961 230.230996 
L 296.37033 252.336844 
L 297.495699 253.340629 
L 298.621068 234.146077 
L 299.746438 218.437106 
L 300.871807 239.089855 
L 301.997176 245.6006 
L 303.122545 231.159503 
L 304.247914 261.702819 
L 305.373284 239.192602 
L 306.498653 238.291584 
L 307.624022 236.574016 
L 308.749391 229.89496 
L 309.874761 220.50567 
L 311.00013 259.477629 
L 312.125499 232.4487 
L 314.376237 219.225006 
L 315.501607 245.572371 
L 316.626976 251.679912 
L 317.752345 227.688211 
L 318.877714 231.85254 
L 320.003084 234.837342 
L 321.128453 249.12664 
L 322.253822 241.890049 
L 323.379191 220.77228 
L 324.50456 236.5938 
L 325.62993 228.420591 
L 326.755299 239.781753 
L 327.880668 214.48708 
L 329.006037 229.380257 
L 330.131407 255.342322 
L 330.131407 255.342322 
" clip-path="url(#p415ae6c85a)" style="fill: none; stroke: #ff7f0e; stroke-width: 1.5; stroke-linecap: square"/>
   </g>
   <g id="patch_3">
    <path d="M 47.72 318.04 
L 47.72 26.88 
" style="fill: none; stroke: #000000; stroke-width: 0.8; stroke-linejoin: miter; stroke-linecap: square"/>
   </g>
   <g id="patch_4">
    <path d="M 343.579569 318.04 
L 343.579569 26.88 
" style="fill: none; stroke: #000000; stroke-width: 0.8; stroke-linejoin: miter; stroke-linecap: square"/>
   </g>
   <g id="patch_5">
    <path d="M 47.72 318.04 
L 343.579569 318.04 
" style="fill: none; stroke: #000000; stroke-width: 0.8; stroke-linejoin: miter; stroke-linecap: square"/>
   </g>
   <g id="patch_6">
    <path d="M 47.72 26.88 
L 343.579569 26.88 
" style="fill: none; stroke: #000000; stroke-width: 0.8; stroke-linejoin: miter; stroke-linecap: square"/>
   </g>
   <g id="text_15">
    <!-- Loss vs Epoch -->
    <g transform="translate(153.625409 20.88) scale(0.12 -0.12)">
     <defs>
      <path id="DejaVuSans-20" transform="scale(0.015625)"/>
      <path id="DejaVuSans-76" d="M 191 3500 
L 800 3500 
L 1894 563 
L 2988 3500 
L 3597 3500 
L 2284 0 
L 1503 0 
L 191 3500 
z
" transform="scale(0.015625)"/>
     </defs>
     <use xlink:href="#DejaVuSans-4c"/>
     <use xlink:href="#DejaVuSans-6f" x="53.962891"/>
     <use xlink:href="#DejaVuSans-73" x="115.144531"/>
     <use xlink:href="#DejaVuSans-73" x="167.244141"/>
     <use xlink:href="#DejaVuSans-20" x="219.34375"/>
     <use xlink:href="#DejaVuSans-76" x="251.130859"/>
     <use xlink:href="#DejaVuSans-73" x="310.310547"/>
     <use xlink:href="#DejaVuSans-20" x="362.410156"/>
     <use xlink:href="#DejaVuSans-45" x="394.197266"/>
     <use xlink:href="#DejaVuSans-70" x="457.380859"/>
     <use xlink:href="#DejaVuSans-6f" x="520.857422"/>
     <use xlink:href="#DejaVuSans-63" x="582.039062"/>
     <use xlink:href="#DejaVuSans-68" x="637.019531"/>
    </g>
   </g>
   <g id="legend_1">
    <g id="patch_7">
     <path d="M 230.085819 64.23625 
L 336.579569 64.23625 
Q 338.579569 64.23625 338.579569 62.23625 
L 338.579569 33.88 
Q 338.579569 31.88 336.579569 31.88 
L 230.085819 31.88 
Q 228.085819 31.88 228.085819 33.88 
L 228.085819 62.23625 
Q 228.085819 64.23625 230.085819 64.23625 
z
" style="fill: #ffffff; opacity: 0.8; stroke: #cccccc; stroke-linejoin: miter"/>
    </g>
    <g id="line2d_15">
     <path d="M 232.085819 39.978437 
L 242.085819 39.978437 
L 252.085819 39.978437 
" style="fill: none; stroke: #1f77b4; stroke-width: 1.5; stroke-linecap: square"/>
    </g>
    <g id="text_16">
     <!-- Train Loss -->
     <g transform="translate(260.085819 43.478437) scale(0.1 -0.1)">
      <defs>
       <path id="DejaVuSans-54" d="M -19 4666 
L 3928 4666 
L 3928 4134 
L 2272 4134 
L 2272 0 
L 1638 0 
L 1638 4134 
L -19 4134 
L -19 4666 
z
" transform="scale(0.015625)"/>
       <path id="DejaVuSans-72" d="M 2631 2963 
Q 2534 3019 2420 3045 
Q 2306 3072 2169 3072 
Q 1681 3072 1420 2755 
Q 1159 2438 1159 1844 
L 1159 0 
L 581 0 
L 581 3500 
L 1159 3500 
L 1159 2956 
Q 1341 3275 1631 3429 
Q 1922 3584 2338 3584 
Q 2397 3584 2469 3576 
Q 2541 3569 2628 3553 
L 2631 2963 
z
" transform="scale(0.015625)"/>
       <path id="DejaVuSans-61" d="M 2194 1759 
Q 1497 1759 1228 1600 
Q 959 1441 959 1056 
Q 959 750 1161 570 
Q 1363 391 1709 391 
Q 2188 391 2477 730 
Q 2766 1069 2766 1631 
L 2766 1759 
L 2194 1759 
z
M 3341 1997 
L 3341 0 
L 2766 0 
L 2766 531 
Q 2569 213 2275 61 
Q 1981 -91 1556 -91 
Q 1019 -91 701 211 
Q 384 513 384 1019 
Q 384 1609 779 1909 
Q 1175 2209 1959 2209 
L 2766 2209 
L 2766 2266 
Q 2766 2663 2505 2880 
Q 2244 3097 1772 3097 
Q 1472 3097 1187 3025 
Q 903 2953 641 2809 
L 641 3341 
Q 956 3463 1253 3523 
Q 1550 3584 1831 3584 
Q 2591 3584 2966 3190 
Q 3341 2797 3341 1997 
z
" transform="scale(0.015625)"/>
       <path id="DejaVuSans-69" d="M 603 3500 
L 1178 3500 
L 1178 0 
L 603 0 
L 603 3500 
z
M 603 4863 
L 1178 4863 
L 1178 4134 
L 603 4134 
L 603 4863 
z
" transform="scale(0.015625)"/>
       <path id="DejaVuSans-6e" d="M 3513 2113 
L 3513 0 
L 2938 0 
L 2938 2094 
Q 2938 2591 2744 2837 
Q 2550 3084 2163 3084 
Q 1697 3084 1428 2787 
Q 1159 2491 1159 1978 
L 1159 0 
L 581 0 
L 581 3500 
L 1159 3500 
L 1159 2956 
Q 1366 3272 1645 3428 
Q 1925 3584 2291 3584 
Q 2894 3584 3203 3211 
Q 3513 2838 3513 2113 
z
" transform="scale(0.015625)"/>
      </defs>
      <use xlink:href="#DejaVuSans-54"/>
      <use xlink:href="#DejaVuSans-72" x="46.333984"/>
      <use xlink:href="#DejaVuSans-61" x="87.447266"/>
      <use xlink:href="#DejaVuSans-69" x="148.726562"/>
      <use xlink:href="#DejaVuSans-6e" x="176.509766"/>
      <use xlink:href="#DejaVuSans-20" x="239.888672"/>
      <use xlink:href="#DejaVuSans-4c" x="271.675781"/>
      <use xlink:href="#DejaVuSans-6f" x="325.638672"/>
      <use xlink:href="#DejaVuSans-73" x="386.820312"/>
      <use xlink:href="#DejaVuSans-73" x="438.919922"/>
     </g>
    </g>
    <g id="line2d_16">
     <path d="M 232.085819 54.656563 
L 242.085819 54.656563 
L 252.085819 54.656563 
" style="fill: none; stroke: #ff7f0e; stroke-width: 1.5; stroke-linecap: square"/>
    </g>
    <g id="text_17">
     <!-- Validation Loss -->
     <g transform="translate(260.085819 58.156563) scale(0.1 -0.1)">
      <defs>
       <path id="DejaVuSans-56" d="M 1831 0 
L 50 4666 
L 709 4666 
L 2188 738 
L 3669 4666 
L 4325 4666 
L 2547 0 
L 1831 0 
z
" transform="scale(0.015625)"/>
       <path id="DejaVuSans-6c" d="M 603 4863 
L 1178 4863 
L 1178 0 
L 603 0 
L 603 4863 
z
" transform="scale(0.015625)"/>
       <path id="DejaVuSans-64" d="M 2906 2969 
L 2906 4863 
L 3481 4863 
L 3481 0 
L 2906 0 
L 2906 525 
Q 2725 213 2448 61 
Q 2172 -91 1784 -91 
Q 1150 -91 751 415 
Q 353 922 353 1747 
Q 353 2572 751 3078 
Q 1150 3584 1784 3584 
Q 2172 3584 2448 3432 
Q 2725 3281 2906 2969 
z
M 947 1747 
Q 947 1113 1208 752 
Q 1469 391 1925 391 
Q 2381 391 2643 752 
Q 2906 1113 2906 1747 
Q 2906 2381 2643 2742 
Q 2381 3103 1925 3103 
Q 1469 3103 1208 2742 
Q 947 2381 947 1747 
z
" transform="scale(0.015625)"/>
       <path id="DejaVuSans-74" d="M 1172 4494 
L 1172 3500 
L 2356 3500 
L 2356 3053 
L 1172 3053 
L 1172 1153 
Q 1172 725 1289 603 
Q 1406 481 1766 481 
L 2356 481 
L 2356 0 
L 1766 0 
Q 1100 0 847 248 
Q 594 497 594 1153 
L 594 3053 
L 172 3053 
L 172 3500 
L 594 3500 
L 594 4494 
L 1172 4494 
z
" transform="scale(0.015625)"/>
      </defs>
      <use xlink:href="#DejaVuSans-56"/>
      <use xlink:href="#DejaVuSans-61" x="60.658203"/>
      <use xlink:href="#DejaVuSans-6c" x="121.9375"/>
      <use xlink:href="#DejaVuSans-69" x="149.720703"/>
      <use xlink:href="#DejaVuSans-64" x="177.503906"/>
      <use xlink:href="#DejaVuSans-61" x="240.980469"/>
      <use xlink:href="#DejaVuSans-74" x="302.259766"/>
      <use xlink:href="#DejaVuSans-69" x="341.46875"/>
      <use xlink:href="#DejaVuSans-6f" x="369.251953"/>
      <use xlink:href="#DejaVuSans-6e" x="430.433594"/>
      <use xlink:href="#DejaVuSans-20" x="493.8125"/>
      <use xlink:href="#DejaVuSans-4c" x="525.599609"/>
      <use xlink:href="#DejaVuSans-6f" x="579.5625"/>
      <use xlink:href="#DejaVuSans-73" x="640.744141"/>
      <use xlink:href="#DejaVuSans-73" x="692.84375"/>
     </g>
    </g>
   </g>
  </g>
  <g id="axes_2">
   <g id="patch_8">
    <path d="M 406.25 318.04 
L 702.109569 318.04 
L 702.109569 26.88 
L 406.25 26.88 
z
" style="fill: #ffffff"/>
   </g>
   <g id="matplotlib.axis_3">
    <g id="xtick_7">
     <g id="line2d_17">
      <g>
       <use xlink:href="#m87423e5a8c" x="419.698162" y="318.04" style="stroke: #000000; stroke-width: 0.8"/>
      </g>
     </g>
     <g id="text_18">
      <!-- 0 -->
      <g transform="translate(416.516912 332.638438) scale(0.1 -0.1)">
       <use xlink:href="#DejaVuSans-30"/>
      </g>
     </g>
    </g>
    <g id="xtick_8">
     <g id="line2d_18">
      <g>
       <use xlink:href="#m87423e5a8c" x="475.966623" y="318.04" style="stroke: #000000; stroke-width: 0.8"/>
      </g>
     </g>
     <g id="text_19">
      <!-- 50 -->
      <g transform="translate(469.604123 332.638438) scale(0.1 -0.1)">
       <use xlink:href="#DejaVuSans-35"/>
       <use xlink:href="#DejaVuSans-30" x="63.623047"/>
      </g>
     </g>
    </g>
    <g id="xtick_9">
     <g id="line2d_19">
      <g>
       <use xlink:href="#m87423e5a8c" x="532.235085" y="318.04" style="stroke: #000000; stroke-width: 0.8"/>
      </g>
     </g>
     <g id="text_20">
      <!-- 100 -->
      <g transform="translate(522.691335 332.638438) scale(0.1 -0.1)">
       <use xlink:href="#DejaVuSans-31"/>
       <use xlink:href="#DejaVuSans-30" x="63.623047"/>
       <use xlink:href="#DejaVuSans-30" x="127.246094"/>
      </g>
     </g>
    </g>
    <g id="xtick_10">
     <g id="line2d_20">
      <g>
       <use xlink:href="#m87423e5a8c" x="588.503546" y="318.04" style="stroke: #000000; stroke-width: 0.8"/>
      </g>
     </g>
     <g id="text_21">
      <!-- 150 -->
      <g transform="translate(578.959796 332.638438) scale(0.1 -0.1)">
       <use xlink:href="#DejaVuSans-31"/>
       <use xlink:href="#DejaVuSans-35" x="63.623047"/>
       <use xlink:href="#DejaVuSans-30" x="127.246094"/>
      </g>
     </g>
    </g>
    <g id="xtick_11">
     <g id="line2d_21">
      <g>
       <use xlink:href="#m87423e5a8c" x="644.772007" y="318.04" style="stroke: #000000; stroke-width: 0.8"/>
      </g>
     </g>
     <g id="text_22">
      <!-- 200 -->
      <g transform="translate(635.228257 332.638438) scale(0.1 -0.1)">
       <use xlink:href="#DejaVuSans-32"/>
       <use xlink:href="#DejaVuSans-30" x="63.623047"/>
       <use xlink:href="#DejaVuSans-30" x="127.246094"/>
      </g>
     </g>
    </g>
    <g id="xtick_12">
     <g id="line2d_22">
      <g>
       <use xlink:href="#m87423e5a8c" x="701.040468" y="318.04" style="stroke: #000000; stroke-width: 0.8"/>
      </g>
     </g>
     <g id="text_23">
      <!-- 250 -->
      <g transform="translate(691.496718 332.638438) scale(0.1 -0.1)">
       <use xlink:href="#DejaVuSans-32"/>
       <use xlink:href="#DejaVuSans-35" x="63.623047"/>
       <use xlink:href="#DejaVuSans-30" x="127.246094"/>
      </g>
     </g>
    </g>
    <g id="text_24">
     <!-- Epoch -->
     <g transform="translate(538.868847 346.316563) scale(0.1 -0.1)">
      <use xlink:href="#DejaVuSans-45"/>
      <use xlink:href="#DejaVuSans-70" x="63.183594"/>
      <use xlink:href="#DejaVuSans-6f" x="126.660156"/>
      <use xlink:href="#DejaVuSans-63" x="187.841797"/>
      <use xlink:href="#DejaVuSans-68" x="242.822266"/>
     </g>
    </g>
   </g>
   <g id="matplotlib.axis_4">
    <g id="ytick_7">
     <g id="line2d_23">
      <g>
       <use xlink:href="#me423b8fb53" x="406.25" y="289.615578" style="stroke: #000000; stroke-width: 0.8"/>
      </g>
     </g>
     <g id="text_25">
      <!-- 0.65 -->
      <g transform="translate(376.984375 293.414797) scale(0.1 -0.1)">
       <use xlink:href="#DejaVuSans-30"/>
       <use xlink:href="#DejaVuSans-2e" x="63.623047"/>
       <use xlink:href="#DejaVuSans-36" x="95.410156"/>
       <use xlink:href="#DejaVuSans-35" x="159.033203"/>
      </g>
     </g>
    </g>
    <g id="ytick_8">
     <g id="line2d_24">
      <g>
       <use xlink:href="#me423b8fb53" x="406.25" y="233.451902" style="stroke: #000000; stroke-width: 0.8"/>
      </g>
     </g>
     <g id="text_26">
      <!-- 0.70 -->
      <g transform="translate(376.984375 237.25112) scale(0.1 -0.1)">
       <defs>
        <path id="DejaVuSans-37" d="M 525 4666 
L 3525 4666 
L 3525 4397 
L 1831 0 
L 1172 0 
L 2766 4134 
L 525 4134 
L 525 4666 
z
" transform="scale(0.015625)"/>
       </defs>
       <use xlink:href="#DejaVuSans-30"/>
       <use xlink:href="#DejaVuSans-2e" x="63.623047"/>
       <use xlink:href="#DejaVuSans-37" x="95.410156"/>
       <use xlink:href="#DejaVuSans-30" x="159.033203"/>
      </g>
     </g>
    </g>
    <g id="ytick_9">
     <g id="line2d_25">
      <g>
       <use xlink:href="#me423b8fb53" x="406.25" y="177.288225" style="stroke: #000000; stroke-width: 0.8"/>
      </g>
     </g>
     <g id="text_27">
      <!-- 0.75 -->
      <g transform="translate(376.984375 181.087444) scale(0.1 -0.1)">
       <use xlink:href="#DejaVuSans-30"/>
       <use xlink:href="#DejaVuSans-2e" x="63.623047"/>
       <use xlink:href="#DejaVuSans-37" x="95.410156"/>
       <use xlink:href="#DejaVuSans-35" x="159.033203"/>
      </g>
     </g>
    </g>
    <g id="ytick_10">
     <g id="line2d_26">
      <g>
       <use xlink:href="#me423b8fb53" x="406.25" y="121.124548" style="stroke: #000000; stroke-width: 0.8"/>
      </g>
     </g>
     <g id="text_28">
      <!-- 0.80 -->
      <g transform="translate(376.984375 124.923767) scale(0.1 -0.1)">
       <use xlink:href="#DejaVuSans-30"/>
       <use xlink:href="#DejaVuSans-2e" x="63.623047"/>
       <use xlink:href="#DejaVuSans-38" x="95.410156"/>
       <use xlink:href="#DejaVuSans-30" x="159.033203"/>
      </g>
     </g>
    </g>
    <g id="ytick_11">
     <g id="line2d_27">
      <g>
       <use xlink:href="#me423b8fb53" x="406.25" y="64.960872" style="stroke: #000000; stroke-width: 0.8"/>
      </g>
     </g>
     <g id="text_29">
      <!-- 0.85 -->
      <g transform="translate(376.984375 68.760091) scale(0.1 -0.1)">
       <use xlink:href="#DejaVuSans-30"/>
       <use xlink:href="#DejaVuSans-2e" x="63.623047"/>
       <use xlink:href="#DejaVuSans-38" x="95.410156"/>
       <use xlink:href="#DejaVuSans-35" x="159.033203"/>
      </g>
     </g>
    </g>
    <g id="text_30">
     <!-- Accuracy -->
     <g transform="translate(370.904688 195.288125) rotate(-90) scale(0.1 -0.1)">
      <defs>
       <path id="DejaVuSans-41" d="M 2188 4044 
L 1331 1722 
L 3047 1722 
L 2188 4044 
z
M 1831 4666 
L 2547 4666 
L 4325 0 
L 3669 0 
L 3244 1197 
L 1141 1197 
L 716 0 
L 50 0 
L 1831 4666 
z
" transform="scale(0.015625)"/>
       <path id="DejaVuSans-75" d="M 544 1381 
L 544 3500 
L 1119 3500 
L 1119 1403 
Q 1119 906 1312 657 
Q 1506 409 1894 409 
Q 2359 409 2629 706 
Q 2900 1003 2900 1516 
L 2900 3500 
L 3475 3500 
L 3475 0 
L 2900 0 
L 2900 538 
Q 2691 219 2414 64 
Q 2138 -91 1772 -91 
Q 1169 -91 856 284 
Q 544 659 544 1381 
z
M 1991 3584 
L 1991 3584 
z
" transform="scale(0.015625)"/>
       <path id="DejaVuSans-79" d="M 2059 -325 
Q 1816 -950 1584 -1140 
Q 1353 -1331 966 -1331 
L 506 -1331 
L 506 -850 
L 844 -850 
Q 1081 -850 1212 -737 
Q 1344 -625 1503 -206 
L 1606 56 
L 191 3500 
L 800 3500 
L 1894 763 
L 2988 3500 
L 3597 3500 
L 2059 -325 
z
" transform="scale(0.015625)"/>
      </defs>
      <use xlink:href="#DejaVuSans-41"/>
      <use xlink:href="#DejaVuSans-63" x="66.658203"/>
      <use xlink:href="#DejaVuSans-63" x="121.638672"/>
      <use xlink:href="#DejaVuSans-75" x="176.619141"/>
      <use xlink:href="#DejaVuSans-72" x="239.998047"/>
      <use xlink:href="#DejaVuSans-61" x="281.111328"/>
      <use xlink:href="#DejaVuSans-63" x="342.390625"/>
      <use xlink:href="#DejaVuSans-79" x="397.371094"/>
     </g>
    </g>
   </g>
   <g id="line2d_28">
    <path d="M 419.698162 300.558219 
L 420.823531 302.922246 
L 421.948901 304.805455 
L 424.199639 302.401359 
L 425.325008 301.760267 
L 426.450378 304.204431 
L 427.575747 304.805455 
L 428.701116 274.634057 
L 429.826485 253.317744 
L 430.951854 271.669006 
L 432.077224 228.275083 
L 433.202593 195.058497 
L 434.327962 191.572559 
L 435.453331 185.201706 
L 436.578701 171.818908 
L 437.70407 160.118977 
L 438.829439 151.945052 
L 439.954808 140.72594 
L 441.080177 138.442049 
L 442.205547 134.956111 
L 443.330916 122.33461 
L 444.456285 118.848671 
L 445.581654 113.800071 
L 446.707024 108.190515 
L 447.832393 108.350788 
L 448.957762 104.063484 
L 450.083131 101.218638 
L 451.2085 101.499116 
L 452.33387 98.65427 
L 453.459239 98.493997 
L 454.584608 93.846079 
L 455.709977 94.487171 
L 456.835347 94.447103 
L 457.960716 89.478639 
L 459.086085 89.43857 
L 460.211454 88.597137 
L 461.336823 89.398502 
L 462.462193 89.478639 
L 463.587562 85.632086 
L 464.712931 87.675567 
L 465.8383 86.032769 
L 466.96367 88.75741 
L 468.089039 88.396796 
L 469.214408 82.78724 
L 470.339777 83.388264 
L 471.465146 80.70369 
L 472.590516 81.064305 
L 473.715885 81.705397 
L 474.841254 79.301301 
L 475.966623 78.379731 
L 477.091993 80.863963 
L 478.217362 73.691745 
L 479.342731 76.817069 
L 480.4681 74.372906 
L 481.59347 75.574953 
L 482.718839 77.057479 
L 483.844208 75.294476 
L 484.969577 72.970517 
L 486.094946 72.289356 
L 487.220316 75.735226 
L 488.345685 72.449629 
L 489.471054 74.012291 
L 490.596423 73.771882 
L 491.721793 72.690039 
L 493.972531 72.690039 
L 495.0979 70.967104 
L 496.223269 70.806831 
L 497.348639 73.090721 
L 498.474008 71.608196 
L 499.599377 73.411267 
L 500.724746 70.886967 
L 501.850116 67.360961 
L 502.975485 71.608196 
L 504.100854 68.683213 
L 505.226223 68.683213 
L 507.476962 66.319186 
L 508.602331 66.6798 
L 509.7277 65.477752 
L 510.853069 67.801711 
L 511.978439 68.28253 
L 513.103808 67.160619 
L 514.229177 67.881848 
L 515.354546 64.115432 
L 516.479915 67.280824 
L 517.605285 66.399322 
L 518.730654 62.672974 
L 519.856023 66.118845 
L 520.981392 67.761643 
L 522.106762 65.397616 
L 523.232131 65.117138 
L 524.3575 65.958572 
L 525.482869 62.713043 
L 526.608238 63.634613 
L 527.733608 65.037002 
L 528.858977 62.713043 
L 529.984346 65.517821 
L 531.109715 63.514408 
L 532.235085 61.831541 
L 533.360454 62.913384 
L 534.485823 60.990108 
L 535.611192 60.549357 
L 536.736561 59.267173 
L 537.861931 60.308947 
L 538.9873 57.984988 
L 540.112669 59.146968 
L 541.238038 61.470927 
L 542.363408 58.225398 
L 543.488777 59.587719 
L 544.614146 58.065125 
L 545.739515 58.305534 
L 546.864884 58.18533 
L 547.990254 55.701098 
L 549.115623 58.425739 
L 550.240992 59.54765 
L 551.366361 58.025057 
L 553.6171 58.86649 
L 554.742469 58.746285 
L 555.867838 58.225398 
L 556.993207 56.863077 
L 558.118577 56.34219 
L 559.243946 57.063418 
L 560.369315 56.382258 
L 561.494684 54.338777 
L 562.620054 55.060006 
L 563.745423 55.100074 
L 564.870792 55.941507 
L 565.996161 53.096661 
L 567.12153 52.535705 
L 568.2469 54.018231 
L 569.372269 52.856251 
L 570.497638 55.140142 
L 571.623007 55.741166 
L 572.748377 54.098367 
L 573.873746 52.175091 
L 574.999115 53.57748 
L 576.124484 52.65591 
L 577.249853 51.133316 
L 578.375223 52.415501 
L 579.500592 50.572361 
L 580.625961 53.57748 
L 581.75133 54.138436 
L 582.8767 50.291883 
L 584.002069 53.256934 
L 585.127438 51.614135 
L 586.252807 52.936388 
L 587.378177 51.654204 
L 588.503546 48.609016 
L 589.628915 50.572361 
L 590.754284 51.173385 
L 591.879653 50.051473 
L 593.005023 50.331951 
L 594.130392 48.568948 
L 595.255761 47.447037 
L 596.38113 49.490518 
L 597.5065 47.326832 
L 598.631869 48.368607 
L 599.757238 49.971337 
L 600.882607 48.408675 
L 602.007976 50.13161 
L 604.258715 47.60731 
L 605.384084 48.889494 
L 606.509453 47.767583 
L 607.634823 47.967924 
L 608.760192 48.809357 
L 609.885561 48.128197 
L 611.01093 48.04806 
L 612.136299 50.572361 
L 613.261669 49.290176 
L 614.387038 48.368607 
L 615.512407 47.927856 
L 616.637776 47.166559 
L 617.763146 47.767583 
L 618.888515 45.002873 
L 620.013884 47.887787 
L 621.139253 47.126491 
L 622.264622 48.168265 
L 623.389992 45.123078 
L 624.515361 47.126491 
L 625.64073 45.964511 
L 626.766099 46.68574 
L 627.891469 45.603897 
L 629.016838 46.365194 
L 630.142207 46.485398 
L 631.267576 44.8426 
L 632.392945 44.60219 
L 633.518315 48.328538 
L 635.769053 42.518641 
L 636.894422 44.081303 
L 638.019792 43.440211 
L 639.145161 46.285057 
L 640.27053 47.406968 
L 641.395899 45.403555 
L 642.521268 46.325125 
L 643.646638 43.68062 
L 644.772007 44.522054 
L 645.897376 43.480279 
L 647.022745 45.283351 
L 648.148115 44.001166 
L 649.273484 44.562122 
L 650.398853 45.363487 
L 651.524222 42.518641 
L 652.649591 44.481986 
L 653.774961 43.640552 
L 654.90033 43.119665 
L 656.025699 42.879255 
L 657.151068 41.356661 
L 658.276438 42.198095 
L 659.401807 44.522054 
L 660.527176 43.720689 
L 661.652545 43.23987 
L 662.777914 43.039528 
L 663.903284 42.99946 
L 665.028653 43.800825 
L 666.154022 42.037822 
L 667.279391 41.476866 
L 668.404761 42.037822 
L 669.53013 42.07789 
L 671.780868 43.23987 
L 672.906237 42.278231 
L 674.031607 43.039528 
L 675.156976 41.597071 
L 676.282345 42.438504 
L 677.407714 42.478573 
L 678.533084 40.354955 
L 679.658453 41.116252 
L 680.783822 41.436798 
L 681.909191 41.236457 
L 683.03456 40.114545 
L 684.15993 41.637139 
L 685.285299 42.598777 
L 686.410668 41.15632 
L 687.536037 41.436798 
L 688.661407 42.238163 
L 688.661407 42.238163 
" clip-path="url(#pc10d6affb4)" style="fill: none; stroke: #1f77b4; stroke-width: 1.5; stroke-linecap: square"/>
   </g>
   <g id="line2d_29">
    <path d="M 419.698162 271.094901 
L 420.823531 270.292706 
L 421.948901 270.092158 
L 423.07427 270.292706 
L 426.450378 270.292706 
L 427.575747 271.29545 
L 429.826485 269.289963 
L 430.951854 266.883378 
L 432.077224 247.2296 
L 433.202593 267.485024 
L 434.327962 256.655392 
L 435.453331 235.798322 
L 436.578701 256.454843 
L 437.70407 260.265269 
L 438.829439 246.026308 
L 439.954808 239.207651 
L 441.080177 267.083926 
L 442.205547 260.866915 
L 443.330916 230.784603 
L 444.456285 196.08967 
L 445.581654 212.13357 
L 446.707024 242.616979 
L 447.832393 240.210394 
L 448.957762 236.199419 
L 450.083131 237.202163 
L 451.2085 236.801066 
L 452.33387 234.996127 
L 453.459239 220.15552 
L 454.584608 252.443868 
L 455.709977 224.166495 
L 456.835347 208.323144 
L 457.960716 202.707779 
L 459.086085 213.537411 
L 461.336823 231.386249 
L 462.462193 194.48528 
L 463.587562 230.584054 
L 464.712931 241.814784 
L 465.8383 227.776372 
L 466.96367 253.847709 
L 468.089039 174.229857 
L 469.214408 207.3204 
L 470.339777 198.696804 
L 471.465146 176.435893 
L 472.590516 158.185957 
L 473.715885 186.262781 
L 474.841254 181.249063 
L 475.966623 229.78186 
L 477.091993 141.139313 
L 478.217362 205.114364 
L 479.342731 189.471561 
L 480.4681 208.323144 
L 481.59347 184.658391 
L 482.718839 206.117107 
L 483.844208 217.347837 
L 484.969577 172.02382 
L 486.094946 179.043027 
L 487.220316 151.3673 
L 488.345685 184.056745 
L 489.471054 192.680341 
L 490.596423 194.284731 
L 491.721793 191.878146 
L 492.847162 232.188444 
L 493.972531 119.680598 
L 495.0979 191.878146 
L 496.223269 166.809553 
L 497.348639 196.691316 
L 499.599377 149.161263 
L 501.850116 210.729729 
L 502.975485 198.095158 
L 504.100854 150.765653 
L 505.226223 181.249063 
L 506.351592 181.048514 
L 507.476962 183.856196 
L 508.602331 183.655648 
L 509.7277 168.413943 
L 510.853069 232.188444 
L 511.978439 202.908327 
L 513.103808 185.861684 
L 514.229177 146.955227 
L 515.354546 206.718754 
L 516.479915 190.073208 
L 517.605285 152.370043 
L 518.730654 140.938765 
L 519.856023 203.911071 
L 520.981392 186.864428 
L 522.106762 190.073208 
L 523.232131 166.007358 
L 524.3575 164.603517 
L 525.482869 185.460586 
L 526.608238 177.037539 
L 527.733608 177.238088 
L 528.858977 203.108876 
L 529.984346 173.427662 
L 531.109715 155.979921 
L 532.235085 158.587054 
L 533.360454 154.776628 
L 534.485823 155.177726 
L 535.611192 213.136314 
L 536.736561 153.974433 
L 537.861931 119.680598 
L 538.9873 178.641929 
L 540.112669 199.097901 
L 541.238038 153.372787 
L 542.363408 185.260038 
L 543.488777 152.771141 
L 544.614146 158.185957 
L 545.739515 192.479793 
L 546.864884 130.911327 
L 547.990254 151.567848 
L 549.115623 162.196932 
L 550.240992 164.001871 
L 551.366361 180.647417 
L 552.491731 143.545898 
L 553.6171 171.422174 
L 554.742469 186.46333 
L 555.867838 135.3234 
L 556.993207 162.397481 
L 558.118577 147.155776 
L 559.243946 187.466074 
L 560.369315 164.804066 
L 561.494684 163.801322 
L 562.620054 186.062233 
L 563.745423 203.108876 
L 564.870792 162.999127 
L 565.996161 149.76291 
L 567.12153 170.820528 
L 568.2469 148.960715 
L 569.372269 149.76291 
L 570.497638 152.971689 
L 571.623007 173.227113 
L 572.748377 142.342606 
L 573.873746 119.881146 
L 574.999115 158.787603 
L 576.124484 100.427918 
L 577.249853 147.356325 
L 578.375223 161.795834 
L 579.500592 163.801322 
L 580.625961 144.94974 
L 581.75133 156.982664 
L 582.8767 191.878146 
L 584.002069 149.562361 
L 585.127438 155.578823 
L 586.252807 152.971689 
L 587.378177 130.911327 
L 588.503546 150.966202 
L 589.628915 127.100901 
L 590.754284 143.34535 
L 591.879653 131.312425 
L 593.005023 108.04877 
L 594.130392 106.644929 
L 595.255761 136.526692 
L 596.38113 127.501999 
L 597.5065 139.133826 
L 598.631869 137.729985 
L 599.757238 136.727241 
L 600.882607 111.859196 
L 602.007976 143.34535 
L 603.133346 154.174982 
L 604.258715 142.543155 
L 605.384084 135.724497 
L 606.509453 196.691316 
L 607.634823 148.359068 
L 608.760192 150.364556 
L 609.885561 133.518461 
L 611.01093 160.391993 
L 612.136299 133.518461 
L 613.261669 149.361812 
L 614.387038 137.328887 
L 615.512407 120.482792 
L 616.637776 152.370043 
L 617.763146 131.512974 
L 618.888515 173.227113 
L 620.013884 138.732728 
L 621.139253 165.806809 
L 622.264622 109.853709 
L 623.389992 148.559617 
L 624.515361 168.413943 
L 625.64073 142.142057 
L 626.766099 141.74096 
L 627.891469 133.518461 
L 629.016838 137.729985 
L 630.142207 102.433405 
L 631.267576 156.180469 
L 632.392945 192.680341 
L 633.518315 121.686085 
L 634.643684 130.710779 
L 635.769053 138.331631 
L 636.894422 132.11462 
L 638.019792 159.589798 
L 639.145161 153.974433 
L 640.27053 169.817784 
L 641.395899 138.53218 
L 642.521268 126.699804 
L 643.646638 148.15852 
L 644.772007 134.721754 
L 647.022745 134.320656 
L 648.148115 134.721754 
L 649.273484 142.342606 
L 650.398853 129.908584 
L 651.524222 144.94974 
L 652.649591 137.930533 
L 653.774961 136.92779 
L 654.90033 110.655904 
L 656.025699 111.458099 
L 657.151068 135.724497 
L 658.276438 152.570592 
L 659.401807 130.911327 
L 660.527176 113.664135 
L 661.652545 133.919559 
L 662.777914 109.452611 
L 663.903284 125.095414 
L 665.028653 132.716266 
L 666.154022 141.139313 
L 667.279391 144.147545 
L 668.404761 138.933277 
L 669.53013 104.438893 
L 670.655499 134.721754 
L 671.780868 143.144801 
L 672.906237 139.936021 
L 674.031607 115.268525 
L 675.156976 111.057001 
L 676.282345 135.523949 
L 677.407714 132.916815 
L 678.533084 132.11462 
L 679.658453 111.057001 
L 680.783822 120.88389 
L 681.909191 142.342606 
L 683.03456 136.727241 
L 684.15993 143.946996 
L 685.285299 129.106389 
L 686.410668 146.754678 
L 687.536037 138.331631 
L 688.661407 112.86194 
L 688.661407 112.86194 
" clip-path="url(#pc10d6affb4)" style="fill: none; stroke: #ff7f0e; stroke-width: 1.5; stroke-linecap: square"/>
   </g>
   <g id="patch_9">
    <path d="M 406.25 318.04 
L 406.25 26.88 
" style="fill: none; stroke: #000000; stroke-width: 0.8; stroke-linejoin: miter; stroke-linecap: square"/>
   </g>
   <g id="patch_10">
    <path d="M 702.109569 318.04 
L 702.109569 26.88 
" style="fill: none; stroke: #000000; stroke-width: 0.8; stroke-linejoin: miter; stroke-linecap: square"/>
   </g>
   <g id="patch_11">
    <path d="M 406.25 318.04 
L 702.109569 318.04 
" style="fill: none; stroke: #000000; stroke-width: 0.8; stroke-linejoin: miter; stroke-linecap: square"/>
   </g>
   <g id="patch_12">
    <path d="M 406.25 26.88 
L 702.109569 26.88 
" style="fill: none; stroke: #000000; stroke-width: 0.8; stroke-linejoin: miter; stroke-linecap: square"/>
   </g>
   <g id="text_31">
    <!-- Accuracy vs Epoch -->
    <g transform="translate(497.922284 20.88) scale(0.12 -0.12)">
     <use xlink:href="#DejaVuSans-41"/>
     <use xlink:href="#DejaVuSans-63" x="66.658203"/>
     <use xlink:href="#DejaVuSans-63" x="121.638672"/>
     <use xlink:href="#DejaVuSans-75" x="176.619141"/>
     <use xlink:href="#DejaVuSans-72" x="239.998047"/>
     <use xlink:href="#DejaVuSans-61" x="281.111328"/>
     <use xlink:href="#DejaVuSans-63" x="342.390625"/>
     <use xlink:href="#DejaVuSans-79" x="397.371094"/>
     <use xlink:href="#DejaVuSans-20" x="456.550781"/>
     <use xlink:href="#DejaVuSans-76" x="488.337891"/>
     <use xlink:href="#DejaVuSans-73" x="547.517578"/>
     <use xlink:href="#DejaVuSans-20" x="599.617188"/>
     <use xlink:href="#DejaVuSans-45" x="631.404297"/>
     <use xlink:href="#DejaVuSans-70" x="694.587891"/>
     <use xlink:href="#DejaVuSans-6f" x="758.064453"/>
     <use xlink:href="#DejaVuSans-63" x="819.246094"/>
     <use xlink:href="#DejaVuSans-68" x="874.226562"/>
    </g>
   </g>
   <g id="legend_2">
    <g id="patch_13">
     <path d="M 564.893944 313.04 
L 695.109569 313.04 
Q 697.109569 313.04 697.109569 311.04 
L 697.109569 282.68375 
Q 697.109569 280.68375 695.109569 280.68375 
L 564.893944 280.68375 
Q 562.893944 280.68375 562.893944 282.68375 
L 562.893944 311.04 
Q 562.893944 313.04 564.893944 313.04 
z
" style="fill: #ffffff; opacity: 0.8; stroke: #cccccc; stroke-linejoin: miter"/>
    </g>
    <g id="line2d_30">
     <path d="M 566.893944 288.782188 
L 576.893944 288.782188 
L 586.893944 288.782188 
" style="fill: none; stroke: #1f77b4; stroke-width: 1.5; stroke-linecap: square"/>
    </g>
    <g id="text_32">
     <!-- Train Accuracy -->
     <g transform="translate(594.893944 292.282188) scale(0.1 -0.1)">
      <use xlink:href="#DejaVuSans-54"/>
      <use xlink:href="#DejaVuSans-72" x="46.333984"/>
      <use xlink:href="#DejaVuSans-61" x="87.447266"/>
      <use xlink:href="#DejaVuSans-69" x="148.726562"/>
      <use xlink:href="#DejaVuSans-6e" x="176.509766"/>
      <use xlink:href="#DejaVuSans-20" x="239.888672"/>
      <use xlink:href="#DejaVuSans-41" x="271.675781"/>
      <use xlink:href="#DejaVuSans-63" x="338.333984"/>
      <use xlink:href="#DejaVuSans-63" x="393.314453"/>
      <use xlink:href="#DejaVuSans-75" x="448.294922"/>
      <use xlink:href="#DejaVuSans-72" x="511.673828"/>
      <use xlink:href="#DejaVuSans-61" x="552.787109"/>
      <use xlink:href="#DejaVuSans-63" x="614.066406"/>
      <use xlink:href="#DejaVuSans-79" x="669.046875"/>
     </g>
    </g>
    <g id="line2d_31">
     <path d="M 566.893944 303.460313 
L 576.893944 303.460313 
L 586.893944 303.460313 
" style="fill: none; stroke: #ff7f0e; stroke-width: 1.5; stroke-linecap: square"/>
    </g>
    <g id="text_33">
     <!-- Validation Accuracy -->
     <g transform="translate(594.893944 306.960313) scale(0.1 -0.1)">
      <use xlink:href="#DejaVuSans-56"/>
      <use xlink:href="#DejaVuSans-61" x="60.658203"/>
      <use xlink:href="#DejaVuSans-6c" x="121.9375"/>
      <use xlink:href="#DejaVuSans-69" x="149.720703"/>
      <use xlink:href="#DejaVuSans-64" x="177.503906"/>
      <use xlink:href="#DejaVuSans-61" x="240.980469"/>
      <use xlink:href="#DejaVuSans-74" x="302.259766"/>
      <use xlink:href="#DejaVuSans-69" x="341.46875"/>
      <use xlink:href="#DejaVuSans-6f" x="369.251953"/>
      <use xlink:href="#DejaVuSans-6e" x="430.433594"/>
      <use xlink:href="#DejaVuSans-20" x="493.8125"/>
      <use xlink:href="#DejaVuSans-41" x="525.599609"/>
      <use xlink:href="#DejaVuSans-63" x="592.257812"/>
      <use xlink:href="#DejaVuSans-63" x="647.238281"/>
      <use xlink:href="#DejaVuSans-75" x="702.21875"/>
      <use xlink:href="#DejaVuSans-72" x="765.597656"/>
      <use xlink:href="#DejaVuSans-61" x="806.710938"/>
      <use xlink:href="#DejaVuSans-63" x="867.990234"/>
      <use xlink:href="#DejaVuSans-79" x="922.970703"/>
     </g>
    </g>
   </g>
  </g>
  <g id="axes_3">
   <g id="patch_14">
    <path d="M 764.78 318.04 
L 1060.639569 318.04 
L 1060.639569 26.88 
L 764.78 26.88 
z
" style="fill: #ffffff"/>
   </g>
   <g id="matplotlib.axis_5">
    <g id="xtick_13">
     <g id="line2d_32">
      <g>
       <use xlink:href="#m87423e5a8c" x="778.228162" y="318.04" style="stroke: #000000; stroke-width: 0.8"/>
      </g>
     </g>
     <g id="text_34">
      <!-- 0 -->
      <g transform="translate(775.046912 332.638438) scale(0.1 -0.1)">
       <use xlink:href="#DejaVuSans-30"/>
      </g>
     </g>
    </g>
    <g id="xtick_14">
     <g id="line2d_33">
      <g>
       <use xlink:href="#m87423e5a8c" x="834.496623" y="318.04" style="stroke: #000000; stroke-width: 0.8"/>
      </g>
     </g>
     <g id="text_35">
      <!-- 50 -->
      <g transform="translate(828.134123 332.638438) scale(0.1 -0.1)">
       <use xlink:href="#DejaVuSans-35"/>
       <use xlink:href="#DejaVuSans-30" x="63.623047"/>
      </g>
     </g>
    </g>
    <g id="xtick_15">
     <g id="line2d_34">
      <g>
       <use xlink:href="#m87423e5a8c" x="890.765085" y="318.04" style="stroke: #000000; stroke-width: 0.8"/>
      </g>
     </g>
     <g id="text_36">
      <!-- 100 -->
      <g transform="translate(881.221335 332.638438) scale(0.1 -0.1)">
       <use xlink:href="#DejaVuSans-31"/>
       <use xlink:href="#DejaVuSans-30" x="63.623047"/>
       <use xlink:href="#DejaVuSans-30" x="127.246094"/>
      </g>
     </g>
    </g>
    <g id="xtick_16">
     <g id="line2d_35">
      <g>
       <use xlink:href="#m87423e5a8c" x="947.033546" y="318.04" style="stroke: #000000; stroke-width: 0.8"/>
      </g>
     </g>
     <g id="text_37">
      <!-- 150 -->
      <g transform="translate(937.489796 332.638438) scale(0.1 -0.1)">
       <use xlink:href="#DejaVuSans-31"/>
       <use xlink:href="#DejaVuSans-35" x="63.623047"/>
       <use xlink:href="#DejaVuSans-30" x="127.246094"/>
      </g>
     </g>
    </g>
    <g id="xtick_17">
     <g id="line2d_36">
      <g>
       <use xlink:href="#m87423e5a8c" x="1003.302007" y="318.04" style="stroke: #000000; stroke-width: 0.8"/>
      </g>
     </g>
     <g id="text_38">
      <!-- 200 -->
      <g transform="translate(993.758257 332.638438) scale(0.1 -0.1)">
       <use xlink:href="#DejaVuSans-32"/>
       <use xlink:href="#DejaVuSans-30" x="63.623047"/>
       <use xlink:href="#DejaVuSans-30" x="127.246094"/>
      </g>
     </g>
    </g>
    <g id="xtick_18">
     <g id="line2d_37">
      <g>
       <use xlink:href="#m87423e5a8c" x="1059.570468" y="318.04" style="stroke: #000000; stroke-width: 0.8"/>
      </g>
     </g>
     <g id="text_39">
      <!-- 250 -->
      <g transform="translate(1050.026718 332.638438) scale(0.1 -0.1)">
       <use xlink:href="#DejaVuSans-32"/>
       <use xlink:href="#DejaVuSans-35" x="63.623047"/>
       <use xlink:href="#DejaVuSans-30" x="127.246094"/>
      </g>
     </g>
    </g>
    <g id="text_40">
     <!-- Epoch -->
     <g transform="translate(897.398847 346.316563) scale(0.1 -0.1)">
      <use xlink:href="#DejaVuSans-45"/>
      <use xlink:href="#DejaVuSans-70" x="63.183594"/>
      <use xlink:href="#DejaVuSans-6f" x="126.660156"/>
      <use xlink:href="#DejaVuSans-63" x="187.841797"/>
      <use xlink:href="#DejaVuSans-68" x="242.822266"/>
     </g>
    </g>
   </g>
   <g id="matplotlib.axis_6">
    <g id="ytick_12">
     <g id="line2d_38">
      <g>
       <use xlink:href="#me423b8fb53" x="764.78" y="299.702624" style="stroke: #000000; stroke-width: 0.8"/>
      </g>
     </g>
     <g id="text_41">
      <!-- 0.76 -->
      <g transform="translate(735.514375 303.501842) scale(0.1 -0.1)">
       <use xlink:href="#DejaVuSans-30"/>
       <use xlink:href="#DejaVuSans-2e" x="63.623047"/>
       <use xlink:href="#DejaVuSans-37" x="95.410156"/>
       <use xlink:href="#DejaVuSans-36" x="159.033203"/>
      </g>
     </g>
    </g>
    <g id="ytick_13">
     <g id="line2d_39">
      <g>
       <use xlink:href="#me423b8fb53" x="764.78" y="264.090009" style="stroke: #000000; stroke-width: 0.8"/>
      </g>
     </g>
     <g id="text_42">
      <!-- 0.78 -->
      <g transform="translate(735.514375 267.889228) scale(0.1 -0.1)">
       <use xlink:href="#DejaVuSans-30"/>
       <use xlink:href="#DejaVuSans-2e" x="63.623047"/>
       <use xlink:href="#DejaVuSans-37" x="95.410156"/>
       <use xlink:href="#DejaVuSans-38" x="159.033203"/>
      </g>
     </g>
    </g>
    <g id="ytick_14">
     <g id="line2d_40">
      <g>
       <use xlink:href="#me423b8fb53" x="764.78" y="228.477395" style="stroke: #000000; stroke-width: 0.8"/>
      </g>
     </g>
     <g id="text_43">
      <!-- 0.80 -->
      <g transform="translate(735.514375 232.276613) scale(0.1 -0.1)">
       <use xlink:href="#DejaVuSans-30"/>
       <use xlink:href="#DejaVuSans-2e" x="63.623047"/>
       <use xlink:href="#DejaVuSans-38" x="95.410156"/>
       <use xlink:href="#DejaVuSans-30" x="159.033203"/>
      </g>
     </g>
    </g>
    <g id="ytick_15">
     <g id="line2d_41">
      <g>
       <use xlink:href="#me423b8fb53" x="764.78" y="192.86478" style="stroke: #000000; stroke-width: 0.8"/>
      </g>
     </g>
     <g id="text_44">
      <!-- 0.82 -->
      <g transform="translate(735.514375 196.663999) scale(0.1 -0.1)">
       <use xlink:href="#DejaVuSans-30"/>
       <use xlink:href="#DejaVuSans-2e" x="63.623047"/>
       <use xlink:href="#DejaVuSans-38" x="95.410156"/>
       <use xlink:href="#DejaVuSans-32" x="159.033203"/>
      </g>
     </g>
    </g>
    <g id="ytick_16">
     <g id="line2d_42">
      <g>
       <use xlink:href="#me423b8fb53" x="764.78" y="157.252166" style="stroke: #000000; stroke-width: 0.8"/>
      </g>
     </g>
     <g id="text_45">
      <!-- 0.84 -->
      <g transform="translate(735.514375 161.051385) scale(0.1 -0.1)">
       <use xlink:href="#DejaVuSans-30"/>
       <use xlink:href="#DejaVuSans-2e" x="63.623047"/>
       <use xlink:href="#DejaVuSans-38" x="95.410156"/>
       <use xlink:href="#DejaVuSans-34" x="159.033203"/>
      </g>
     </g>
    </g>
    <g id="ytick_17">
     <g id="line2d_43">
      <g>
       <use xlink:href="#me423b8fb53" x="764.78" y="121.639551" style="stroke: #000000; stroke-width: 0.8"/>
      </g>
     </g>
     <g id="text_46">
      <!-- 0.86 -->
      <g transform="translate(735.514375 125.43877) scale(0.1 -0.1)">
       <use xlink:href="#DejaVuSans-30"/>
       <use xlink:href="#DejaVuSans-2e" x="63.623047"/>
       <use xlink:href="#DejaVuSans-38" x="95.410156"/>
       <use xlink:href="#DejaVuSans-36" x="159.033203"/>
      </g>
     </g>
    </g>
    <g id="ytick_18">
     <g id="line2d_44">
      <g>
       <use xlink:href="#me423b8fb53" x="764.78" y="86.026937" style="stroke: #000000; stroke-width: 0.8"/>
      </g>
     </g>
     <g id="text_47">
      <!-- 0.88 -->
      <g transform="translate(735.514375 89.826156) scale(0.1 -0.1)">
       <use xlink:href="#DejaVuSans-30"/>
       <use xlink:href="#DejaVuSans-2e" x="63.623047"/>
       <use xlink:href="#DejaVuSans-38" x="95.410156"/>
       <use xlink:href="#DejaVuSans-38" x="159.033203"/>
      </g>
     </g>
    </g>
    <g id="ytick_19">
     <g id="line2d_45">
      <g>
       <use xlink:href="#me423b8fb53" x="764.78" y="50.414323" style="stroke: #000000; stroke-width: 0.8"/>
      </g>
     </g>
     <g id="text_48">
      <!-- 0.90 -->
      <g transform="translate(735.514375 54.213541) scale(0.1 -0.1)">
       <defs>
        <path id="DejaVuSans-39" d="M 703 97 
L 703 672 
Q 941 559 1184 500 
Q 1428 441 1663 441 
Q 2288 441 2617 861 
Q 2947 1281 2994 2138 
Q 2813 1869 2534 1725 
Q 2256 1581 1919 1581 
Q 1219 1581 811 2004 
Q 403 2428 403 3163 
Q 403 3881 828 4315 
Q 1253 4750 1959 4750 
Q 2769 4750 3195 4129 
Q 3622 3509 3622 2328 
Q 3622 1225 3098 567 
Q 2575 -91 1691 -91 
Q 1453 -91 1209 -44 
Q 966 3 703 97 
z
M 1959 2075 
Q 2384 2075 2632 2365 
Q 2881 2656 2881 3163 
Q 2881 3666 2632 3958 
Q 2384 4250 1959 4250 
Q 1534 4250 1286 3958 
Q 1038 3666 1038 3163 
Q 1038 2656 1286 2365 
Q 1534 2075 1959 2075 
z
" transform="scale(0.015625)"/>
       </defs>
       <use xlink:href="#DejaVuSans-30"/>
       <use xlink:href="#DejaVuSans-2e" x="63.623047"/>
       <use xlink:href="#DejaVuSans-39" x="95.410156"/>
       <use xlink:href="#DejaVuSans-30" x="159.033203"/>
      </g>
     </g>
    </g>
    <g id="text_49">
     <!-- F1-Score -->
     <g transform="translate(729.434688 194.323281) rotate(-90) scale(0.1 -0.1)">
      <defs>
       <path id="DejaVuSans-46" d="M 628 4666 
L 3309 4666 
L 3309 4134 
L 1259 4134 
L 1259 2759 
L 3109 2759 
L 3109 2228 
L 1259 2228 
L 1259 0 
L 628 0 
L 628 4666 
z
" transform="scale(0.015625)"/>
       <path id="DejaVuSans-2d" d="M 313 2009 
L 1997 2009 
L 1997 1497 
L 313 1497 
L 313 2009 
z
" transform="scale(0.015625)"/>
       <path id="DejaVuSans-53" d="M 3425 4513 
L 3425 3897 
Q 3066 4069 2747 4153 
Q 2428 4238 2131 4238 
Q 1616 4238 1336 4038 
Q 1056 3838 1056 3469 
Q 1056 3159 1242 3001 
Q 1428 2844 1947 2747 
L 2328 2669 
Q 3034 2534 3370 2195 
Q 3706 1856 3706 1288 
Q 3706 609 3251 259 
Q 2797 -91 1919 -91 
Q 1588 -91 1214 -16 
Q 841 59 441 206 
L 441 856 
Q 825 641 1194 531 
Q 1563 422 1919 422 
Q 2459 422 2753 634 
Q 3047 847 3047 1241 
Q 3047 1584 2836 1778 
Q 2625 1972 2144 2069 
L 1759 2144 
Q 1053 2284 737 2584 
Q 422 2884 422 3419 
Q 422 4038 858 4394 
Q 1294 4750 2059 4750 
Q 2388 4750 2728 4690 
Q 3069 4631 3425 4513 
z
" transform="scale(0.015625)"/>
       <path id="DejaVuSans-65" d="M 3597 1894 
L 3597 1613 
L 953 1613 
Q 991 1019 1311 708 
Q 1631 397 2203 397 
Q 2534 397 2845 478 
Q 3156 559 3463 722 
L 3463 178 
Q 3153 47 2828 -22 
Q 2503 -91 2169 -91 
Q 1331 -91 842 396 
Q 353 884 353 1716 
Q 353 2575 817 3079 
Q 1281 3584 2069 3584 
Q 2775 3584 3186 3129 
Q 3597 2675 3597 1894 
z
M 3022 2063 
Q 3016 2534 2758 2815 
Q 2500 3097 2075 3097 
Q 1594 3097 1305 2825 
Q 1016 2553 972 2059 
L 3022 2063 
z
" transform="scale(0.015625)"/>
      </defs>
      <use xlink:href="#DejaVuSans-46"/>
      <use xlink:href="#DejaVuSans-31" x="57.519531"/>
      <use xlink:href="#DejaVuSans-2d" x="121.142578"/>
      <use xlink:href="#DejaVuSans-53" x="157.226562"/>
      <use xlink:href="#DejaVuSans-63" x="220.703125"/>
      <use xlink:href="#DejaVuSans-6f" x="275.683594"/>
      <use xlink:href="#DejaVuSans-72" x="336.865234"/>
      <use xlink:href="#DejaVuSans-65" x="375.728516"/>
     </g>
    </g>
   </g>
   <g id="line2d_46">
    <path d="M 778.228162 304.805455 
L 779.353531 278.528854 
L 780.478901 287.363433 
L 781.60427 278.992309 
L 782.729639 275.677426 
L 783.855008 266.803403 
L 784.980378 279.791847 
L 786.105747 277.486382 
L 787.231116 278.440385 
L 788.356485 259.554522 
L 789.481854 290.262576 
L 790.607224 246.438649 
L 791.732593 206.943518 
L 792.857962 203.596868 
L 793.983331 198.745862 
L 795.108701 184.379359 
L 796.23407 172.298774 
L 797.359439 162.642774 
L 798.484808 151.536561 
L 799.610177 149.289336 
L 800.735547 145.912606 
L 801.860916 132.462043 
L 802.986285 128.946268 
L 804.111654 123.695159 
L 805.237024 117.373457 
L 806.362393 117.81463 
L 807.487762 113.293761 
L 808.613131 110.358653 
L 809.7385 110.753286 
L 810.86387 107.55 
L 811.989239 106.615422 
L 813.114608 101.776521 
L 814.239977 102.738648 
L 815.365347 102.408945 
L 816.490716 96.588478 
L 817.616085 97.312362 
L 818.741454 95.903323 
L 819.866823 96.859274 
L 820.992193 97.305962 
L 822.117562 92.56862 
L 823.242931 95.046758 
L 824.3683 92.919521 
L 825.49367 96.066381 
L 826.619039 95.851621 
L 827.744408 89.478561 
L 828.869777 90.253255 
L 829.995146 86.960426 
L 831.120516 87.138403 
L 832.245885 88.223483 
L 833.371254 85.52239 
L 834.496623 84.231092 
L 835.621993 86.989591 
L 836.747362 78.873597 
L 837.872731 82.449525 
L 838.9981 79.477276 
L 840.12347 80.767572 
L 841.248839 82.553264 
L 842.374208 80.359493 
L 843.499577 77.89299 
L 844.624946 76.944275 
L 845.750316 81.107129 
L 846.875685 77.48529 
L 848.001054 79.127851 
L 849.126423 78.923648 
L 850.251793 77.647059 
L 851.377162 77.733205 
L 852.502531 77.517976 
L 853.6279 75.762493 
L 854.753269 75.415866 
L 855.878639 78.297415 
L 857.004008 76.44557 
L 858.129377 78.573786 
L 859.254746 75.711752 
L 860.380116 71.611084 
L 861.505485 76.488394 
L 862.630854 73.10543 
L 863.756223 73.094899 
L 866.006962 70.354808 
L 867.132331 70.427068 
L 868.2577 69.317064 
L 869.383069 71.899866 
L 870.508439 72.501836 
L 871.633808 71.163613 
L 872.759177 72.045536 
L 873.884546 67.565561 
L 875.009915 71.371433 
L 876.135285 70.157649 
L 877.260654 66.099119 
L 878.386023 70.064207 
L 879.511392 71.963059 
L 880.636762 69.203021 
L 881.762131 69.05671 
L 882.8875 69.877421 
L 884.012869 66.130578 
L 885.138238 66.975075 
L 886.263608 68.705565 
L 887.388977 66.242463 
L 888.514346 69.627609 
L 889.639715 67.136207 
L 890.765085 65.275117 
L 891.890454 66.511793 
L 893.015823 64.187673 
L 894.141192 63.688803 
L 895.266561 62.133854 
L 896.391931 63.348313 
L 897.5173 60.481212 
L 898.642669 62.098251 
L 899.768038 64.738229 
L 900.893408 60.88972 
L 902.018777 62.348044 
L 903.144146 60.861126 
L 904.269515 61.280441 
L 905.394884 60.976594 
L 906.520254 58.010758 
L 907.645623 61.138088 
L 908.770992 62.54564 
L 909.896361 60.799544 
L 911.021731 61.157897 
L 912.1471 61.795963 
L 913.272469 61.472052 
L 914.397838 60.988672 
L 915.523207 59.292025 
L 916.648577 58.768037 
L 917.773946 59.786063 
L 918.899315 58.858801 
L 920.024684 56.596354 
L 921.150054 57.389488 
L 922.275423 57.363376 
L 923.400792 58.34963 
L 924.526161 54.93094 
L 925.65153 54.56381 
L 926.7769 56.106434 
L 927.902269 54.823005 
L 929.027638 57.521882 
L 930.153007 58.130592 
L 932.403746 54.166663 
L 933.529115 55.674161 
L 934.654484 54.584462 
L 935.779853 52.950194 
L 936.905223 54.122608 
L 938.030592 52.181768 
L 939.155961 55.635661 
L 940.28133 56.299739 
L 941.4067 51.793207 
L 942.532069 55.242502 
L 943.657438 53.16956 
L 944.782807 54.839846 
L 945.908177 53.363424 
L 947.033546 49.848687 
L 948.158915 52.191213 
L 949.284284 52.840479 
L 950.409653 51.606866 
L 951.535023 51.920082 
L 952.660392 49.760023 
L 953.785761 48.451423 
L 954.91113 50.933375 
L 956.0365 48.454502 
L 957.161869 49.521694 
L 958.287238 51.503923 
L 959.412607 49.424357 
L 960.537976 51.690978 
L 961.663346 50.260026 
L 962.788715 48.64762 
L 963.914084 50.311401 
L 965.039453 49.010778 
L 966.164823 49.23076 
L 967.290192 50.049765 
L 968.415561 49.436494 
L 969.54093 49.194232 
L 970.666299 52.115681 
L 972.917038 49.642677 
L 974.042407 49.225801 
L 975.167776 48.396889 
L 976.293146 48.927268 
L 977.418515 45.605091 
L 978.543884 49.090764 
L 979.669253 48.132901 
L 980.794622 49.25552 
L 981.919992 45.804487 
L 983.045361 48.132901 
L 984.17073 46.900874 
L 985.296099 47.604843 
L 986.421469 46.429511 
L 987.546838 47.469932 
L 988.672207 47.320581 
L 989.797576 45.590933 
L 990.922945 45.264801 
L 992.048315 49.581946 
L 994.299053 42.868524 
L 995.424422 44.706573 
L 996.549792 43.912939 
L 997.675161 47.210824 
L 998.80053 48.631399 
L 999.925899 46.172833 
L 1001.051268 47.179532 
L 1002.176638 44.193574 
L 1003.302007 45.144026 
L 1004.427376 43.865102 
L 1005.552745 46.091858 
L 1006.678115 44.694511 
L 1007.803484 45.122729 
L 1008.928853 46.021165 
L 1010.054222 42.931265 
L 1011.179591 45.129025 
L 1012.304961 44.160341 
L 1013.43033 43.43989 
L 1014.555699 43.428887 
L 1015.681068 41.471882 
L 1016.806438 42.387062 
L 1017.931807 45.198499 
L 1019.057176 44.253893 
L 1020.182545 43.728594 
L 1021.307914 43.427239 
L 1022.433284 43.393948 
L 1023.558653 44.257128 
L 1024.684022 42.351813 
L 1025.809391 41.767939 
L 1026.934761 42.351813 
L 1028.06013 42.278037 
L 1030.310868 43.701581 
L 1031.436237 42.409125 
L 1032.561607 43.562143 
L 1033.686976 41.67245 
L 1034.812345 42.828708 
L 1035.937714 42.897914 
L 1037.063084 40.32469 
L 1038.188453 41.129198 
L 1039.313822 41.600986 
L 1040.439191 41.362647 
L 1041.56456 40.114545 
L 1042.68993 41.732538 
L 1043.815299 43.096662 
L 1044.940668 41.304598 
L 1046.066037 41.547646 
L 1047.191407 42.563415 
L 1047.191407 42.563415 
" clip-path="url(#p8ae04c3b4c)" style="fill: none; stroke: #1f77b4; stroke-width: 1.5; stroke-linecap: square"/>
   </g>
   <g id="line2d_47">
    <path d="M 778.228162 228.782689 
L 779.353531 227.790923 
L 784.980378 227.790923 
L 786.105747 229.624339 
L 789.481854 225.798316 
L 790.607224 211.122395 
L 791.732593 225.802628 
L 792.857962 217.634426 
L 793.983331 201.262515 
L 795.108701 217.255982 
L 796.23407 220.568599 
L 797.359439 209.300479 
L 798.484808 204.241086 
L 799.610177 225.4963 
L 800.735547 220.881469 
L 801.860916 197.4319 
L 802.986285 169.720164 
L 804.111654 182.523091 
L 805.237024 207.140861 
L 806.362393 204.740823 
L 807.487762 201.867139 
L 808.613131 202.37106 
L 809.7385 202.198465 
L 810.86387 200.556607 
L 811.989239 188.864244 
L 813.114608 214.372626 
L 814.239977 192.082085 
L 815.365347 179.697323 
L 816.490716 174.901947 
L 817.616085 183.661343 
L 819.866823 198.052598 
L 820.992193 168.525109 
L 822.117562 197.414891 
L 823.242931 206.219511 
L 824.3683 194.895324 
L 825.49367 215.239077 
L 826.619039 152.057902 
L 827.744408 178.811124 
L 828.869777 171.738788 
L 829.995146 153.673171 
L 831.120516 138.8027 
L 832.245885 161.746301 
L 833.371254 157.091749 
L 834.496623 196.563373 
L 835.621993 124.424757 
L 836.747362 176.87294 
L 837.872731 164.228451 
L 838.9981 179.492767 
L 840.12347 160.533067 
L 841.248839 177.828343 
L 842.374208 186.880855 
L 843.499577 150.24614 
L 844.624946 155.555753 
L 845.750316 132.516976 
L 846.875685 160.09347 
L 848.001054 166.962158 
L 849.126423 168.094078 
L 850.251793 165.901228 
L 851.377162 198.689747 
L 852.502531 105.811257 
L 853.6279 165.966951 
L 854.753269 145.049525 
L 855.878639 170.150847 
L 858.129377 130.413674 
L 860.380116 181.314637 
L 861.505485 171.176134 
L 862.630854 132.052165 
L 863.756223 157.220068 
L 864.881592 157.437 
L 866.006962 159.795638 
L 867.132331 159.498006 
L 868.2577 146.730257 
L 869.383069 198.47552 
L 870.508439 174.999053 
L 871.633808 161.085954 
L 872.759177 128.780141 
L 873.884546 178.184017 
L 875.009915 164.467272 
L 876.135285 133.630551 
L 877.260654 123.547738 
L 878.386023 175.888101 
L 879.511392 161.793694 
L 880.636762 164.991953 
L 881.762131 144.859528 
L 882.8875 143.718317 
L 884.012869 161.075102 
L 885.138238 153.736361 
L 886.263608 154.224047 
L 887.388977 175.230811 
L 888.514346 150.68187 
L 889.639715 136.344852 
L 890.765085 138.783346 
L 891.890454 135.542938 
L 893.015823 135.589118 
L 894.141192 183.267529 
L 895.266561 134.364756 
L 896.391931 105.591452 
L 897.5173 155.345425 
L 898.642669 171.93557 
L 899.768038 133.962439 
L 900.893408 160.582842 
L 902.018777 133.319836 
L 903.144146 138.924968 
L 904.269515 166.861666 
L 905.394884 114.8722 
L 906.520254 132.154219 
L 907.645623 141.282711 
L 908.770992 142.893549 
L 909.896361 156.714344 
L 911.021731 125.377438 
L 912.1471 149.230543 
L 913.272469 161.393911 
L 914.397838 118.404295 
L 915.523207 141.51636 
L 916.648577 128.483403 
L 917.773946 162.491079 
L 918.899315 143.82845 
L 920.024684 142.721538 
L 921.150054 161.253583 
L 922.275423 175.365649 
L 923.400792 141.910224 
L 924.526161 130.998358 
L 925.65153 148.656018 
L 926.7769 130.773623 
L 927.902269 130.701233 
L 929.027638 133.974076 
L 930.153007 150.76394 
L 931.278377 124.669011 
L 932.403746 105.116168 
L 933.529115 138.226249 
L 934.654484 88.320415 
L 935.779853 128.89496 
L 936.905223 141.367403 
L 938.030592 142.721538 
L 939.155961 126.84444 
L 940.28133 136.789264 
L 941.4067 166.230136 
L 942.532069 130.467029 
L 943.657438 135.63517 
L 944.782807 134.094348 
L 945.908177 114.420946 
L 947.033546 131.809327 
L 948.158915 111.069522 
L 949.284284 124.968102 
L 950.409653 114.947943 
L 951.535023 95.326373 
L 952.660392 94.241975 
L 953.785761 119.414537 
L 954.91113 112.043537 
L 956.0365 121.606592 
L 958.287238 119.306055 
L 959.412607 97.498106 
L 960.537976 125.201224 
L 961.663346 134.538769 
L 962.788715 124.787287 
L 963.914084 118.989176 
L 965.039453 170.017827 
L 966.164823 129.476128 
L 967.290192 131.344644 
L 968.415561 116.346789 
L 969.54093 140.035741 
L 970.666299 117.369354 
L 971.791669 130.588782 
L 972.917038 119.781251 
L 974.042407 104.897084 
L 975.167776 133.090842 
L 976.293146 114.901135 
L 977.418515 150.827043 
L 978.543884 120.907053 
L 979.669253 144.625765 
L 980.794622 95.875447 
L 981.919992 130.541678 
L 983.045361 146.605596 
L 984.17073 124.259396 
L 985.296099 124.664004 
L 986.421469 117.198332 
L 987.546838 120.998814 
L 988.672207 90.132333 
L 989.797576 136.337144 
L 990.922945 167.160305 
L 992.048315 106.41988 
L 993.173684 114.580074 
L 994.299053 120.840101 
L 995.424422 115.833282 
L 996.549792 139.039322 
L 997.675161 134.364756 
L 998.80053 147.802354 
L 999.925899 121.132508 
L 1001.051268 111.714725 
L 1002.176638 129.300952 
L 1003.302007 118.613101 
L 1004.427376 117.52103 
L 1006.678115 118.498481 
L 1007.803484 124.31954 
L 1008.928853 113.525809 
L 1010.054222 126.609803 
L 1011.179591 120.888161 
L 1012.304961 119.598064 
L 1013.43033 97.299631 
L 1014.555699 98.088731 
L 1015.681068 119.275864 
L 1016.806438 133.325132 
L 1019.057176 99.625625 
L 1020.182545 117.384581 
L 1021.307914 97.045859 
L 1022.433284 109.104111 
L 1024.684022 124.074249 
L 1025.809391 126.374462 
L 1026.934761 121.371787 
L 1028.06013 92.252889 
L 1029.185499 118.555778 
L 1030.310868 125.141623 
L 1031.436237 122.778231 
L 1032.561607 101.682866 
L 1033.686976 96.81813 
L 1034.812345 118.297 
L 1035.937714 116.09485 
L 1037.063084 116.173777 
L 1038.188453 97.507818 
L 1039.313822 105.586154 
L 1040.439191 124.610699 
L 1041.56456 120.10916 
L 1042.68993 126.374177 
L 1043.815299 112.80895 
L 1044.940668 128.250276 
L 1046.066037 121.64782 
L 1047.191407 100.236501 
L 1047.191407 100.236501 
" clip-path="url(#p8ae04c3b4c)" style="fill: none; stroke: #ff7f0e; stroke-width: 1.5; stroke-linecap: square"/>
   </g>
   <g id="patch_15">
    <path d="M 764.78 318.04 
L 764.78 26.88 
" style="fill: none; stroke: #000000; stroke-width: 0.8; stroke-linejoin: miter; stroke-linecap: square"/>
   </g>
   <g id="patch_16">
    <path d="M 1060.639569 318.04 
L 1060.639569 26.88 
" style="fill: none; stroke: #000000; stroke-width: 0.8; stroke-linejoin: miter; stroke-linecap: square"/>
   </g>
   <g id="patch_17">
    <path d="M 764.78 318.04 
L 1060.639569 318.04 
" style="fill: none; stroke: #000000; stroke-width: 0.8; stroke-linejoin: miter; stroke-linecap: square"/>
   </g>
   <g id="patch_18">
    <path d="M 764.78 26.88 
L 1060.639569 26.88 
" style="fill: none; stroke: #000000; stroke-width: 0.8; stroke-linejoin: miter; stroke-linecap: square"/>
   </g>
   <g id="text_50">
    <!-- F1-Score vs Epoch -->
    <g transform="translate(857.610097 20.88) scale(0.12 -0.12)">
     <use xlink:href="#DejaVuSans-46"/>
     <use xlink:href="#DejaVuSans-31" x="57.519531"/>
     <use xlink:href="#DejaVuSans-2d" x="121.142578"/>
     <use xlink:href="#DejaVuSans-53" x="157.226562"/>
     <use xlink:href="#DejaVuSans-63" x="220.703125"/>
     <use xlink:href="#DejaVuSans-6f" x="275.683594"/>
     <use xlink:href="#DejaVuSans-72" x="336.865234"/>
     <use xlink:href="#DejaVuSans-65" x="375.728516"/>
     <use xlink:href="#DejaVuSans-20" x="437.251953"/>
     <use xlink:href="#DejaVuSans-76" x="469.039062"/>
     <use xlink:href="#DejaVuSans-73" x="528.21875"/>
     <use xlink:href="#DejaVuSans-20" x="580.318359"/>
     <use xlink:href="#DejaVuSans-45" x="612.105469"/>
     <use xlink:href="#DejaVuSans-70" x="675.289062"/>
     <use xlink:href="#DejaVuSans-6f" x="738.765625"/>
     <use xlink:href="#DejaVuSans-63" x="799.947266"/>
     <use xlink:href="#DejaVuSans-68" x="854.927734"/>
    </g>
   </g>
   <g id="legend_3">
    <g id="patch_19">
     <path d="M 771.78 64.23625 
L 868.453438 64.23625 
Q 870.453438 64.23625 870.453438 62.23625 
L 870.453438 33.88 
Q 870.453438 31.88 868.453438 31.88 
L 771.78 31.88 
Q 769.78 31.88 769.78 33.88 
L 769.78 62.23625 
Q 769.78 64.23625 771.78 64.23625 
z
" style="fill: #ffffff; opacity: 0.8; stroke: #cccccc; stroke-linejoin: miter"/>
    </g>
    <g id="line2d_48">
     <path d="M 773.78 39.978437 
L 783.78 39.978437 
L 793.78 39.978437 
" style="fill: none; stroke: #1f77b4; stroke-width: 1.5; stroke-linecap: square"/>
    </g>
    <g id="text_51">
     <!-- Train F1 -->
     <g transform="translate(801.78 43.478437) scale(0.1 -0.1)">
      <use xlink:href="#DejaVuSans-54"/>
      <use xlink:href="#DejaVuSans-72" x="46.333984"/>
      <use xlink:href="#DejaVuSans-61" x="87.447266"/>
      <use xlink:href="#DejaVuSans-69" x="148.726562"/>
      <use xlink:href="#DejaVuSans-6e" x="176.509766"/>
      <use xlink:href="#DejaVuSans-20" x="239.888672"/>
      <use xlink:href="#DejaVuSans-46" x="271.675781"/>
      <use xlink:href="#DejaVuSans-31" x="329.195312"/>
     </g>
    </g>
    <g id="line2d_49">
     <path d="M 773.78 54.656563 
L 783.78 54.656563 
L 793.78 54.656563 
" style="fill: none; stroke: #ff7f0e; stroke-width: 1.5; stroke-linecap: square"/>
    </g>
    <g id="text_52">
     <!-- Validation F1 -->
     <g transform="translate(801.78 58.156563) scale(0.1 -0.1)">
      <use xlink:href="#DejaVuSans-56"/>
      <use xlink:href="#DejaVuSans-61" x="60.658203"/>
      <use xlink:href="#DejaVuSans-6c" x="121.9375"/>
      <use xlink:href="#DejaVuSans-69" x="149.720703"/>
      <use xlink:href="#DejaVuSans-64" x="177.503906"/>
      <use xlink:href="#DejaVuSans-61" x="240.980469"/>
      <use xlink:href="#DejaVuSans-74" x="302.259766"/>
      <use xlink:href="#DejaVuSans-69" x="341.46875"/>
      <use xlink:href="#DejaVuSans-6f" x="369.251953"/>
      <use xlink:href="#DejaVuSans-6e" x="430.433594"/>
      <use xlink:href="#DejaVuSans-20" x="493.8125"/>
      <use xlink:href="#DejaVuSans-46" x="525.599609"/>
      <use xlink:href="#DejaVuSans-31" x="583.119141"/>
     </g>
    </g>
   </g>
  </g>
 </g>
 <defs>
  <clipPath id="p415ae6c85a">
   <rect x="47.72" y="26.88" width="295.859569" height="291.16"/>
  </clipPath>
  <clipPath id="pc10d6affb4">
   <rect x="406.25" y="26.88" width="295.859569" height="291.16"/>
  </clipPath>
  <clipPath id="p8ae04c3b4c">
   <rect x="764.78" y="26.88" width="295.859569" height="291.16"/>
  </clipPath>
 </defs>
</svg>
