<?xml version="1.0" encoding="utf-8" standalone="no"?>
<!DOCTYPE svg PUBLIC "-//W3C//DTD SVG 1.1//EN"
  "http://www.w3.org/Graphics/SVG/1.1/DTD/svg11.dtd">
<svg xmlns:xlink="http://www.w3.org/1999/xlink" width="1080pt" height="360pt" viewBox="0 0 1080 360" xmlns="http://www.w3.org/2000/svg" version="1.1">
 <metadata>
  <rdf:RDF xmlns:dc="http://purl.org/dc/elements/1.1/" xmlns:cc="http://creativecommons.org/ns#" xmlns:rdf="http://www.w3.org/1999/02/22-rdf-syntax-ns#">
   <cc:Work>
    <dc:type rdf:resource="http://purl.org/dc/dcmitype/StillImage"/>
    <dc:date>2024-10-23T16:55:23.958840</dc:date>
    <dc:format>image/svg+xml</dc:format>
    <dc:creator>
     <cc:Agent>
      <dc:title>Matplotlib v3.8.2, https://matplotlib.org/</dc:title>
     </cc:Agent>
    </dc:creator>
   </cc:Work>
  </rdf:RDF>
 </metadata>
 <defs>
  <style type="text/css">*{stroke-linejoin: round; stroke-linecap: butt}</style>
 </defs>
 <g id="figure_1">
  <g id="patch_1">
   <path d="M 0 360 
L 1080 360 
L 1080 0 
L 0 0 
z
" style="fill: #ffffff"/>
  </g>
  <g id="axes_1">
   <g id="patch_2">
    <path d="M 47.72 318.04 
L 351.574266 318.04 
L 351.574266 26.88 
L 47.72 26.88 
z
" style="fill: #ffffff"/>
   </g>
   <g id="matplotlib.axis_1">
    <g id="xtick_1">
     <g id="line2d_1">
      <defs>
       <path id="m4069e0c3b4" d="M 0 0 
L 0 3.5 
" style="stroke: #000000; stroke-width: 0.8"/>
      </defs>
      <g>
       <use xlink:href="#m4069e0c3b4" x="61.531558" y="318.04" style="stroke: #000000; stroke-width: 0.8"/>
      </g>
     </g>
     <g id="text_1">
      <!-- 0 -->
      <g transform="translate(58.350308 332.638438) scale(0.1 -0.1)">
       <defs>
        <path id="DejaVuSans-30" d="M 2034 4250 
Q 1547 4250 1301 3770 
Q 1056 3291 1056 2328 
Q 1056 1369 1301 889 
Q 1547 409 2034 409 
Q 2525 409 2770 889 
Q 3016 1369 3016 2328 
Q 3016 3291 2770 3770 
Q 2525 4250 2034 4250 
z
M 2034 4750 
Q 2819 4750 3233 4129 
Q 3647 3509 3647 2328 
Q 3647 1150 3233 529 
Q 2819 -91 2034 -91 
Q 1250 -91 836 529 
Q 422 1150 422 2328 
Q 422 3509 836 4129 
Q 1250 4750 2034 4750 
z
" transform="scale(0.015625)"/>
       </defs>
       <use xlink:href="#DejaVuSans-30"/>
      </g>
     </g>
    </g>
    <g id="xtick_2">
     <g id="line2d_2">
      <g>
       <use xlink:href="#m4069e0c3b4" x="117.33583" y="318.04" style="stroke: #000000; stroke-width: 0.8"/>
      </g>
     </g>
     <g id="text_2">
      <!-- 20 -->
      <g transform="translate(110.97333 332.638438) scale(0.1 -0.1)">
       <defs>
        <path id="DejaVuSans-32" d="M 1228 531 
L 3431 531 
L 3431 0 
L 469 0 
L 469 531 
Q 828 903 1448 1529 
Q 2069 2156 2228 2338 
Q 2531 2678 2651 2914 
Q 2772 3150 2772 3378 
Q 2772 3750 2511 3984 
Q 2250 4219 1831 4219 
Q 1534 4219 1204 4116 
Q 875 4013 500 3803 
L 500 4441 
Q 881 4594 1212 4672 
Q 1544 4750 1819 4750 
Q 2544 4750 2975 4387 
Q 3406 4025 3406 3419 
Q 3406 3131 3298 2873 
Q 3191 2616 2906 2266 
Q 2828 2175 2409 1742 
Q 1991 1309 1228 531 
z
" transform="scale(0.015625)"/>
       </defs>
       <use xlink:href="#DejaVuSans-32"/>
       <use xlink:href="#DejaVuSans-30" x="63.623047"/>
      </g>
     </g>
    </g>
    <g id="xtick_3">
     <g id="line2d_3">
      <g>
       <use xlink:href="#m4069e0c3b4" x="173.140103" y="318.04" style="stroke: #000000; stroke-width: 0.8"/>
      </g>
     </g>
     <g id="text_3">
      <!-- 40 -->
      <g transform="translate(166.777603 332.638438) scale(0.1 -0.1)">
       <defs>
        <path id="DejaVuSans-34" d="M 2419 4116 
L 825 1625 
L 2419 1625 
L 2419 4116 
z
M 2253 4666 
L 3047 4666 
L 3047 1625 
L 3713 1625 
L 3713 1100 
L 3047 1100 
L 3047 0 
L 2419 0 
L 2419 1100 
L 313 1100 
L 313 1709 
L 2253 4666 
z
" transform="scale(0.015625)"/>
       </defs>
       <use xlink:href="#DejaVuSans-34"/>
       <use xlink:href="#DejaVuSans-30" x="63.623047"/>
      </g>
     </g>
    </g>
    <g id="xtick_4">
     <g id="line2d_4">
      <g>
       <use xlink:href="#m4069e0c3b4" x="228.944376" y="318.04" style="stroke: #000000; stroke-width: 0.8"/>
      </g>
     </g>
     <g id="text_4">
      <!-- 60 -->
      <g transform="translate(222.581876 332.638438) scale(0.1 -0.1)">
       <defs>
        <path id="DejaVuSans-36" d="M 2113 2584 
Q 1688 2584 1439 2293 
Q 1191 2003 1191 1497 
Q 1191 994 1439 701 
Q 1688 409 2113 409 
Q 2538 409 2786 701 
Q 3034 994 3034 1497 
Q 3034 2003 2786 2293 
Q 2538 2584 2113 2584 
z
M 3366 4563 
L 3366 3988 
Q 3128 4100 2886 4159 
Q 2644 4219 2406 4219 
Q 1781 4219 1451 3797 
Q 1122 3375 1075 2522 
Q 1259 2794 1537 2939 
Q 1816 3084 2150 3084 
Q 2853 3084 3261 2657 
Q 3669 2231 3669 1497 
Q 3669 778 3244 343 
Q 2819 -91 2113 -91 
Q 1303 -91 875 529 
Q 447 1150 447 2328 
Q 447 3434 972 4092 
Q 1497 4750 2381 4750 
Q 2619 4750 2861 4703 
Q 3103 4656 3366 4563 
z
" transform="scale(0.015625)"/>
       </defs>
       <use xlink:href="#DejaVuSans-36"/>
       <use xlink:href="#DejaVuSans-30" x="63.623047"/>
      </g>
     </g>
    </g>
    <g id="xtick_5">
     <g id="line2d_5">
      <g>
       <use xlink:href="#m4069e0c3b4" x="284.748649" y="318.04" style="stroke: #000000; stroke-width: 0.8"/>
      </g>
     </g>
     <g id="text_5">
      <!-- 80 -->
      <g transform="translate(278.386149 332.638438) scale(0.1 -0.1)">
       <defs>
        <path id="DejaVuSans-38" d="M 2034 2216 
Q 1584 2216 1326 1975 
Q 1069 1734 1069 1313 
Q 1069 891 1326 650 
Q 1584 409 2034 409 
Q 2484 409 2743 651 
Q 3003 894 3003 1313 
Q 3003 1734 2745 1975 
Q 2488 2216 2034 2216 
z
M 1403 2484 
Q 997 2584 770 2862 
Q 544 3141 544 3541 
Q 544 4100 942 4425 
Q 1341 4750 2034 4750 
Q 2731 4750 3128 4425 
Q 3525 4100 3525 3541 
Q 3525 3141 3298 2862 
Q 3072 2584 2669 2484 
Q 3125 2378 3379 2068 
Q 3634 1759 3634 1313 
Q 3634 634 3220 271 
Q 2806 -91 2034 -91 
Q 1263 -91 848 271 
Q 434 634 434 1313 
Q 434 1759 690 2068 
Q 947 2378 1403 2484 
z
M 1172 3481 
Q 1172 3119 1398 2916 
Q 1625 2713 2034 2713 
Q 2441 2713 2670 2916 
Q 2900 3119 2900 3481 
Q 2900 3844 2670 4047 
Q 2441 4250 2034 4250 
Q 1625 4250 1398 4047 
Q 1172 3844 1172 3481 
z
" transform="scale(0.015625)"/>
       </defs>
       <use xlink:href="#DejaVuSans-38"/>
       <use xlink:href="#DejaVuSans-30" x="63.623047"/>
      </g>
     </g>
    </g>
    <g id="xtick_6">
     <g id="line2d_6">
      <g>
       <use xlink:href="#m4069e0c3b4" x="340.552922" y="318.04" style="stroke: #000000; stroke-width: 0.8"/>
      </g>
     </g>
     <g id="text_6">
      <!-- 100 -->
      <g transform="translate(331.009172 332.638438) scale(0.1 -0.1)">
       <defs>
        <path id="DejaVuSans-31" d="M 794 531 
L 1825 531 
L 1825 4091 
L 703 3866 
L 703 4441 
L 1819 4666 
L 2450 4666 
L 2450 531 
L 3481 531 
L 3481 0 
L 794 0 
L 794 531 
z
" transform="scale(0.015625)"/>
       </defs>
       <use xlink:href="#DejaVuSans-31"/>
       <use xlink:href="#DejaVuSans-30" x="63.623047"/>
       <use xlink:href="#DejaVuSans-30" x="127.246094"/>
      </g>
     </g>
    </g>
    <g id="text_7">
     <!-- Epoch -->
     <g transform="translate(184.336195 346.316563) scale(0.1 -0.1)">
      <defs>
       <path id="DejaVuSans-45" d="M 628 4666 
L 3578 4666 
L 3578 4134 
L 1259 4134 
L 1259 2753 
L 3481 2753 
L 3481 2222 
L 1259 2222 
L 1259 531 
L 3634 531 
L 3634 0 
L 628 0 
L 628 4666 
z
" transform="scale(0.015625)"/>
       <path id="DejaVuSans-70" d="M 1159 525 
L 1159 -1331 
L 581 -1331 
L 581 3500 
L 1159 3500 
L 1159 2969 
Q 1341 3281 1617 3432 
Q 1894 3584 2278 3584 
Q 2916 3584 3314 3078 
Q 3713 2572 3713 1747 
Q 3713 922 3314 415 
Q 2916 -91 2278 -91 
Q 1894 -91 1617 61 
Q 1341 213 1159 525 
z
M 3116 1747 
Q 3116 2381 2855 2742 
Q 2594 3103 2138 3103 
Q 1681 3103 1420 2742 
Q 1159 2381 1159 1747 
Q 1159 1113 1420 752 
Q 1681 391 2138 391 
Q 2594 391 2855 752 
Q 3116 1113 3116 1747 
z
" transform="scale(0.015625)"/>
       <path id="DejaVuSans-6f" d="M 1959 3097 
Q 1497 3097 1228 2736 
Q 959 2375 959 1747 
Q 959 1119 1226 758 
Q 1494 397 1959 397 
Q 2419 397 2687 759 
Q 2956 1122 2956 1747 
Q 2956 2369 2687 2733 
Q 2419 3097 1959 3097 
z
M 1959 3584 
Q 2709 3584 3137 3096 
Q 3566 2609 3566 1747 
Q 3566 888 3137 398 
Q 2709 -91 1959 -91 
Q 1206 -91 779 398 
Q 353 888 353 1747 
Q 353 2609 779 3096 
Q 1206 3584 1959 3584 
z
" transform="scale(0.015625)"/>
       <path id="DejaVuSans-63" d="M 3122 3366 
L 3122 2828 
Q 2878 2963 2633 3030 
Q 2388 3097 2138 3097 
Q 1578 3097 1268 2742 
Q 959 2388 959 1747 
Q 959 1106 1268 751 
Q 1578 397 2138 397 
Q 2388 397 2633 464 
Q 2878 531 3122 666 
L 3122 134 
Q 2881 22 2623 -34 
Q 2366 -91 2075 -91 
Q 1284 -91 818 406 
Q 353 903 353 1747 
Q 353 2603 823 3093 
Q 1294 3584 2113 3584 
Q 2378 3584 2631 3529 
Q 2884 3475 3122 3366 
z
" transform="scale(0.015625)"/>
       <path id="DejaVuSans-68" d="M 3513 2113 
L 3513 0 
L 2938 0 
L 2938 2094 
Q 2938 2591 2744 2837 
Q 2550 3084 2163 3084 
Q 1697 3084 1428 2787 
Q 1159 2491 1159 1978 
L 1159 0 
L 581 0 
L 581 4863 
L 1159 4863 
L 1159 2956 
Q 1366 3272 1645 3428 
Q 1925 3584 2291 3584 
Q 2894 3584 3203 3211 
Q 3513 2838 3513 2113 
z
" transform="scale(0.015625)"/>
      </defs>
      <use xlink:href="#DejaVuSans-45"/>
      <use xlink:href="#DejaVuSans-70" x="63.183594"/>
      <use xlink:href="#DejaVuSans-6f" x="126.660156"/>
      <use xlink:href="#DejaVuSans-63" x="187.841797"/>
      <use xlink:href="#DejaVuSans-68" x="242.822266"/>
     </g>
    </g>
   </g>
   <g id="matplotlib.axis_2">
    <g id="ytick_1">
     <g id="line2d_7">
      <defs>
       <path id="m79c4976277" d="M 0 0 
L -3.5 0 
" style="stroke: #000000; stroke-width: 0.8"/>
      </defs>
      <g>
       <use xlink:href="#m79c4976277" x="47.72" y="290.014614" style="stroke: #000000; stroke-width: 0.8"/>
      </g>
     </g>
     <g id="text_8">
      <!-- 0.3 -->
      <g transform="translate(24.816875 293.813833) scale(0.1 -0.1)">
       <defs>
        <path id="DejaVuSans-2e" d="M 684 794 
L 1344 794 
L 1344 0 
L 684 0 
L 684 794 
z
" transform="scale(0.015625)"/>
        <path id="DejaVuSans-33" d="M 2597 2516 
Q 3050 2419 3304 2112 
Q 3559 1806 3559 1356 
Q 3559 666 3084 287 
Q 2609 -91 1734 -91 
Q 1441 -91 1130 -33 
Q 819 25 488 141 
L 488 750 
Q 750 597 1062 519 
Q 1375 441 1716 441 
Q 2309 441 2620 675 
Q 2931 909 2931 1356 
Q 2931 1769 2642 2001 
Q 2353 2234 1838 2234 
L 1294 2234 
L 1294 2753 
L 1863 2753 
Q 2328 2753 2575 2939 
Q 2822 3125 2822 3475 
Q 2822 3834 2567 4026 
Q 2313 4219 1838 4219 
Q 1578 4219 1281 4162 
Q 984 4106 628 3988 
L 628 4550 
Q 988 4650 1302 4700 
Q 1616 4750 1894 4750 
Q 2613 4750 3031 4423 
Q 3450 4097 3450 3541 
Q 3450 3153 3228 2886 
Q 3006 2619 2597 2516 
z
" transform="scale(0.015625)"/>
       </defs>
       <use xlink:href="#DejaVuSans-30"/>
       <use xlink:href="#DejaVuSans-2e" x="63.623047"/>
       <use xlink:href="#DejaVuSans-33" x="95.410156"/>
      </g>
     </g>
    </g>
    <g id="ytick_2">
     <g id="line2d_8">
      <g>
       <use xlink:href="#m79c4976277" x="47.72" y="256.278743" style="stroke: #000000; stroke-width: 0.8"/>
      </g>
     </g>
     <g id="text_9">
      <!-- 0.4 -->
      <g transform="translate(24.816875 260.077962) scale(0.1 -0.1)">
       <use xlink:href="#DejaVuSans-30"/>
       <use xlink:href="#DejaVuSans-2e" x="63.623047"/>
       <use xlink:href="#DejaVuSans-34" x="95.410156"/>
      </g>
     </g>
    </g>
    <g id="ytick_3">
     <g id="line2d_9">
      <g>
       <use xlink:href="#m79c4976277" x="47.72" y="222.542872" style="stroke: #000000; stroke-width: 0.8"/>
      </g>
     </g>
     <g id="text_10">
      <!-- 0.5 -->
      <g transform="translate(24.816875 226.34209) scale(0.1 -0.1)">
       <defs>
        <path id="DejaVuSans-35" d="M 691 4666 
L 3169 4666 
L 3169 4134 
L 1269 4134 
L 1269 2991 
Q 1406 3038 1543 3061 
Q 1681 3084 1819 3084 
Q 2600 3084 3056 2656 
Q 3513 2228 3513 1497 
Q 3513 744 3044 326 
Q 2575 -91 1722 -91 
Q 1428 -91 1123 -41 
Q 819 9 494 109 
L 494 744 
Q 775 591 1075 516 
Q 1375 441 1709 441 
Q 2250 441 2565 725 
Q 2881 1009 2881 1497 
Q 2881 1984 2565 2268 
Q 2250 2553 1709 2553 
Q 1456 2553 1204 2497 
Q 953 2441 691 2322 
L 691 4666 
z
" transform="scale(0.015625)"/>
       </defs>
       <use xlink:href="#DejaVuSans-30"/>
       <use xlink:href="#DejaVuSans-2e" x="63.623047"/>
       <use xlink:href="#DejaVuSans-35" x="95.410156"/>
      </g>
     </g>
    </g>
    <g id="ytick_4">
     <g id="line2d_10">
      <g>
       <use xlink:href="#m79c4976277" x="47.72" y="188.807" style="stroke: #000000; stroke-width: 0.8"/>
      </g>
     </g>
     <g id="text_11">
      <!-- 0.6 -->
      <g transform="translate(24.816875 192.606219) scale(0.1 -0.1)">
       <use xlink:href="#DejaVuSans-30"/>
       <use xlink:href="#DejaVuSans-2e" x="63.623047"/>
       <use xlink:href="#DejaVuSans-36" x="95.410156"/>
      </g>
     </g>
    </g>
    <g id="ytick_5">
     <g id="line2d_11">
      <g>
       <use xlink:href="#m79c4976277" x="47.72" y="155.071129" style="stroke: #000000; stroke-width: 0.8"/>
      </g>
     </g>
     <g id="text_12">
      <!-- 0.7 -->
      <g transform="translate(24.816875 158.870348) scale(0.1 -0.1)">
       <defs>
        <path id="DejaVuSans-37" d="M 525 4666 
L 3525 4666 
L 3525 4397 
L 1831 0 
L 1172 0 
L 2766 4134 
L 525 4134 
L 525 4666 
z
" transform="scale(0.015625)"/>
       </defs>
       <use xlink:href="#DejaVuSans-30"/>
       <use xlink:href="#DejaVuSans-2e" x="63.623047"/>
       <use xlink:href="#DejaVuSans-37" x="95.410156"/>
      </g>
     </g>
    </g>
    <g id="ytick_6">
     <g id="line2d_12">
      <g>
       <use xlink:href="#m79c4976277" x="47.72" y="121.335258" style="stroke: #000000; stroke-width: 0.8"/>
      </g>
     </g>
     <g id="text_13">
      <!-- 0.8 -->
      <g transform="translate(24.816875 125.134476) scale(0.1 -0.1)">
       <use xlink:href="#DejaVuSans-30"/>
       <use xlink:href="#DejaVuSans-2e" x="63.623047"/>
       <use xlink:href="#DejaVuSans-38" x="95.410156"/>
      </g>
     </g>
    </g>
    <g id="ytick_7">
     <g id="line2d_13">
      <g>
       <use xlink:href="#m79c4976277" x="47.72" y="87.599386" style="stroke: #000000; stroke-width: 0.8"/>
      </g>
     </g>
     <g id="text_14">
      <!-- 0.9 -->
      <g transform="translate(24.816875 91.398605) scale(0.1 -0.1)">
       <defs>
        <path id="DejaVuSans-39" d="M 703 97 
L 703 672 
Q 941 559 1184 500 
Q 1428 441 1663 441 
Q 2288 441 2617 861 
Q 2947 1281 2994 2138 
Q 2813 1869 2534 1725 
Q 2256 1581 1919 1581 
Q 1219 1581 811 2004 
Q 403 2428 403 3163 
Q 403 3881 828 4315 
Q 1253 4750 1959 4750 
Q 2769 4750 3195 4129 
Q 3622 3509 3622 2328 
Q 3622 1225 3098 567 
Q 2575 -91 1691 -91 
Q 1453 -91 1209 -44 
Q 966 3 703 97 
z
M 1959 2075 
Q 2384 2075 2632 2365 
Q 2881 2656 2881 3163 
Q 2881 3666 2632 3958 
Q 2384 4250 1959 4250 
Q 1534 4250 1286 3958 
Q 1038 3666 1038 3163 
Q 1038 2656 1286 2365 
Q 1534 2075 1959 2075 
z
" transform="scale(0.015625)"/>
       </defs>
       <use xlink:href="#DejaVuSans-30"/>
       <use xlink:href="#DejaVuSans-2e" x="63.623047"/>
       <use xlink:href="#DejaVuSans-39" x="95.410156"/>
      </g>
     </g>
    </g>
    <g id="ytick_8">
     <g id="line2d_14">
      <g>
       <use xlink:href="#m79c4976277" x="47.72" y="53.863515" style="stroke: #000000; stroke-width: 0.8"/>
      </g>
     </g>
     <g id="text_15">
      <!-- 1.0 -->
      <g transform="translate(24.816875 57.662734) scale(0.1 -0.1)">
       <use xlink:href="#DejaVuSans-31"/>
       <use xlink:href="#DejaVuSans-2e" x="63.623047"/>
       <use xlink:href="#DejaVuSans-30" x="95.410156"/>
      </g>
     </g>
    </g>
    <g id="text_16">
     <!-- Loss -->
     <g transform="translate(18.737187 183.427188) rotate(-90) scale(0.1 -0.1)">
      <defs>
       <path id="DejaVuSans-4c" d="M 628 4666 
L 1259 4666 
L 1259 531 
L 3531 531 
L 3531 0 
L 628 0 
L 628 4666 
z
" transform="scale(0.015625)"/>
       <path id="DejaVuSans-73" d="M 2834 3397 
L 2834 2853 
Q 2591 2978 2328 3040 
Q 2066 3103 1784 3103 
Q 1356 3103 1142 2972 
Q 928 2841 928 2578 
Q 928 2378 1081 2264 
Q 1234 2150 1697 2047 
L 1894 2003 
Q 2506 1872 2764 1633 
Q 3022 1394 3022 966 
Q 3022 478 2636 193 
Q 2250 -91 1575 -91 
Q 1294 -91 989 -36 
Q 684 19 347 128 
L 347 722 
Q 666 556 975 473 
Q 1284 391 1588 391 
Q 1994 391 2212 530 
Q 2431 669 2431 922 
Q 2431 1156 2273 1281 
Q 2116 1406 1581 1522 
L 1381 1569 
Q 847 1681 609 1914 
Q 372 2147 372 2553 
Q 372 3047 722 3315 
Q 1072 3584 1716 3584 
Q 2034 3584 2315 3537 
Q 2597 3491 2834 3397 
z
" transform="scale(0.015625)"/>
      </defs>
      <use xlink:href="#DejaVuSans-4c"/>
      <use xlink:href="#DejaVuSans-6f" x="53.962891"/>
      <use xlink:href="#DejaVuSans-73" x="115.144531"/>
      <use xlink:href="#DejaVuSans-73" x="167.244141"/>
     </g>
    </g>
   </g>
   <g id="line2d_15">
    <path d="M 61.531558 191.756266 
L 64.321771 225.245042 
L 67.111985 239.067688 
L 69.902198 245.996478 
L 72.692412 245.424107 
L 75.482626 249.579138 
L 78.272839 252.175603 
L 81.063053 253.09381 
L 83.853267 254.812687 
L 86.64348 256.238269 
L 89.433694 257.800436 
L 92.223908 256.59576 
L 95.014121 259.92742 
L 97.804335 263.762297 
L 100.594549 263.31143 
L 103.384762 266.000236 
L 106.174976 264.75336 
L 108.96519 265.515031 
L 111.755403 266.798994 
L 114.545617 270.691206 
L 117.33583 270.157511 
L 120.126044 272.11984 
L 122.916258 274.733887 
L 125.706471 272.530423 
L 128.496685 275.621577 
L 131.286899 275.671184 
L 134.077112 279.431879 
L 136.867326 278.571694 
L 139.65754 280.609854 
L 142.447753 280.88987 
L 145.237967 279.724249 
L 148.028181 282.240879 
L 150.818394 281.776343 
L 153.608608 281.504135 
L 156.398821 281.821892 
L 159.189035 282.745191 
L 161.979249 284.142155 
L 164.769462 282.107703 
L 167.559676 284.625396 
L 170.34989 284.503615 
L 173.140103 285.846659 
L 175.930317 283.342051 
L 178.720531 286.671141 
L 181.510744 286.488362 
L 184.300958 286.852515 
L 187.091172 287.476385 
L 189.881385 288.143573 
L 192.671599 288.475696 
L 195.461812 289.736361 
L 198.252026 287.545447 
L 201.04224 291.533109 
L 203.832453 291.465118 
L 206.622667 292.064348 
L 209.412881 291.861545 
L 212.203094 294.254341 
L 214.993308 292.057843 
L 217.783522 293.054232 
L 220.573735 294.058498 
L 223.363949 294.455769 
L 226.154163 292.999134 
L 228.944376 295.383584 
L 231.73459 294.269062 
L 234.524804 292.805524 
L 237.315017 293.435266 
L 240.105231 295.099491 
L 242.895444 295.167871 
L 245.685658 296.305365 
L 248.475872 295.477836 
L 251.266085 296.254351 
L 254.056299 295.696877 
L 256.846513 296.173463 
L 259.636726 297.889731 
L 262.42694 297.164967 
L 265.217154 298.200062 
L 268.007367 298.17327 
L 270.797581 299.270384 
L 273.587795 300.701164 
L 276.378008 300.577148 
L 279.168222 300.642622 
L 281.958435 300.900245 
L 284.748649 301.203726 
L 287.538863 301.489425 
L 290.329076 301.906035 
L 293.11929 300.313015 
L 295.909504 300.725465 
L 298.699717 302.272104 
L 301.489931 299.943931 
L 304.280145 302.773454 
L 307.070358 301.184957 
L 309.860572 302.351635 
L 312.650786 302.055418 
L 315.440999 301.987296 
L 318.231213 301.797655 
L 321.021427 302.752111 
L 323.81164 302.888359 
L 326.601854 303.070479 
L 329.392067 301.724623 
L 332.182281 304.805455 
L 334.972495 304.108361 
L 337.762708 302.555253 
" clip-path="url(#pb6318104e6)" style="fill: none; stroke: #1f77b4; stroke-width: 1.5; stroke-linecap: square"/>
   </g>
   <g id="line2d_16">
    <path d="M 61.531558 40.114545 
L 64.321771 72.601531 
L 67.111985 102.654739 
L 69.902198 64.388497 
L 72.692412 96.899746 
L 75.482626 154.104432 
L 78.272839 102.375507 
L 81.063053 85.115966 
L 83.853267 164.193507 
L 86.64348 125.942506 
L 89.433694 127.326178 
L 92.223908 69.865149 
L 95.014121 166.792371 
L 97.804335 153.456621 
L 100.594549 157.693268 
L 103.384762 97.841944 
L 106.174976 104.905921 
L 108.96519 163.897569 
L 111.755403 193.971766 
L 114.545617 144.48458 
L 117.33583 224.599097 
L 120.126044 238.307916 
L 122.916258 125.613527 
L 125.706471 120.672699 
L 128.496685 164.675685 
L 131.286899 163.209128 
L 134.077112 181.133275 
L 136.867326 217.237267 
L 139.65754 216.034129 
L 142.447753 122.600177 
L 145.237967 194.363861 
L 148.028181 141.489503 
L 150.818394 154.306799 
L 153.608608 137.971607 
L 156.398821 216.424643 
L 159.189035 201.313006 
L 161.979249 86.388088 
L 164.769462 180.050078 
L 167.559676 162.902976 
L 170.34989 223.126674 
L 173.140103 99.350622 
L 175.930317 201.409258 
L 178.720531 204.192492 
L 181.510744 220.369169 
L 184.300958 218.567392 
L 187.091172 145.018696 
L 189.881385 185.463809 
L 192.671599 228.396065 
L 195.461812 219.03285 
L 198.252026 245.813408 
L 201.04224 210.328247 
L 203.832453 251.89225 
L 206.622667 155.999772 
L 209.412881 241.007946 
L 212.203094 161.730202 
L 214.993308 255.354667 
L 217.783522 168.038108 
L 220.573735 251.543944 
L 223.363949 248.159927 
L 226.154163 241.752982 
L 228.944376 245.071205 
L 231.73459 253.951954 
L 234.524804 212.372682 
L 237.315017 231.862329 
L 240.105231 178.996294 
L 242.895444 159.817349 
L 245.685658 217.287903 
L 248.475872 234.390359 
L 251.266085 135.4038 
L 254.056299 223.061089 
L 256.846513 249.625771 
L 259.636726 194.224456 
L 262.42694 251.354174 
L 265.217154 252.009163 
L 268.007367 187.813991 
L 270.797581 236.441415 
L 273.587795 190.380898 
L 276.378008 251.992987 
L 279.168222 233.541583 
L 281.958435 202.634105 
L 284.748649 221.693629 
L 287.538863 275.532436 
L 290.329076 228.54217 
L 293.11929 206.03207 
L 295.909504 272.964668 
L 298.699717 127.949 
L 301.489931 247.816559 
L 304.280145 239.098061 
L 307.070358 265.312948 
L 309.860572 255.378888 
L 312.650786 194.772706 
L 315.440999 228.223836 
L 318.231213 258.901033 
L 321.021427 251.903501 
L 323.81164 243.18409 
L 326.601854 199.679329 
L 329.392067 273.629908 
L 332.182281 219.75262 
L 334.972495 248.490078 
L 337.762708 236.198828 
" clip-path="url(#pb6318104e6)" style="fill: none; stroke: #ff7f0e; stroke-width: 1.5; stroke-linecap: square"/>
   </g>
   <g id="patch_3">
    <path d="M 47.72 318.04 
L 47.72 26.88 
" style="fill: none; stroke: #000000; stroke-width: 0.8; stroke-linejoin: miter; stroke-linecap: square"/>
   </g>
   <g id="patch_4">
    <path d="M 351.574266 318.04 
L 351.574266 26.88 
" style="fill: none; stroke: #000000; stroke-width: 0.8; stroke-linejoin: miter; stroke-linecap: square"/>
   </g>
   <g id="patch_5">
    <path d="M 47.72 318.04 
L 351.574266 318.04 
" style="fill: none; stroke: #000000; stroke-width: 0.8; stroke-linejoin: miter; stroke-linecap: square"/>
   </g>
   <g id="patch_6">
    <path d="M 47.72 26.88 
L 351.574266 26.88 
" style="fill: none; stroke: #000000; stroke-width: 0.8; stroke-linejoin: miter; stroke-linecap: square"/>
   </g>
   <g id="text_17">
    <!-- Loss vs Epoch -->
    <g transform="translate(157.622758 20.88) scale(0.12 -0.12)">
     <defs>
      <path id="DejaVuSans-20" transform="scale(0.015625)"/>
      <path id="DejaVuSans-76" d="M 191 3500 
L 800 3500 
L 1894 563 
L 2988 3500 
L 3597 3500 
L 2284 0 
L 1503 0 
L 191 3500 
z
" transform="scale(0.015625)"/>
     </defs>
     <use xlink:href="#DejaVuSans-4c"/>
     <use xlink:href="#DejaVuSans-6f" x="53.962891"/>
     <use xlink:href="#DejaVuSans-73" x="115.144531"/>
     <use xlink:href="#DejaVuSans-73" x="167.244141"/>
     <use xlink:href="#DejaVuSans-20" x="219.34375"/>
     <use xlink:href="#DejaVuSans-76" x="251.130859"/>
     <use xlink:href="#DejaVuSans-73" x="310.310547"/>
     <use xlink:href="#DejaVuSans-20" x="362.410156"/>
     <use xlink:href="#DejaVuSans-45" x="394.197266"/>
     <use xlink:href="#DejaVuSans-70" x="457.380859"/>
     <use xlink:href="#DejaVuSans-6f" x="520.857422"/>
     <use xlink:href="#DejaVuSans-63" x="582.039062"/>
     <use xlink:href="#DejaVuSans-68" x="637.019531"/>
    </g>
   </g>
   <g id="legend_1">
    <g id="patch_7">
     <path d="M 238.080516 64.23625 
L 344.574266 64.23625 
Q 346.574266 64.23625 346.574266 62.23625 
L 346.574266 33.88 
Q 346.574266 31.88 344.574266 31.88 
L 238.080516 31.88 
Q 236.080516 31.88 236.080516 33.88 
L 236.080516 62.23625 
Q 236.080516 64.23625 238.080516 64.23625 
z
" style="fill: #ffffff; opacity: 0.8; stroke: #cccccc; stroke-linejoin: miter"/>
    </g>
    <g id="line2d_17">
     <path d="M 240.080516 39.978437 
L 250.080516 39.978437 
L 260.080516 39.978437 
" style="fill: none; stroke: #1f77b4; stroke-width: 1.5; stroke-linecap: square"/>
    </g>
    <g id="text_18">
     <!-- Train Loss -->
     <g transform="translate(268.080516 43.478437) scale(0.1 -0.1)">
      <defs>
       <path id="DejaVuSans-54" d="M -19 4666 
L 3928 4666 
L 3928 4134 
L 2272 4134 
L 2272 0 
L 1638 0 
L 1638 4134 
L -19 4134 
L -19 4666 
z
" transform="scale(0.015625)"/>
       <path id="DejaVuSans-72" d="M 2631 2963 
Q 2534 3019 2420 3045 
Q 2306 3072 2169 3072 
Q 1681 3072 1420 2755 
Q 1159 2438 1159 1844 
L 1159 0 
L 581 0 
L 581 3500 
L 1159 3500 
L 1159 2956 
Q 1341 3275 1631 3429 
Q 1922 3584 2338 3584 
Q 2397 3584 2469 3576 
Q 2541 3569 2628 3553 
L 2631 2963 
z
" transform="scale(0.015625)"/>
       <path id="DejaVuSans-61" d="M 2194 1759 
Q 1497 1759 1228 1600 
Q 959 1441 959 1056 
Q 959 750 1161 570 
Q 1363 391 1709 391 
Q 2188 391 2477 730 
Q 2766 1069 2766 1631 
L 2766 1759 
L 2194 1759 
z
M 3341 1997 
L 3341 0 
L 2766 0 
L 2766 531 
Q 2569 213 2275 61 
Q 1981 -91 1556 -91 
Q 1019 -91 701 211 
Q 384 513 384 1019 
Q 384 1609 779 1909 
Q 1175 2209 1959 2209 
L 2766 2209 
L 2766 2266 
Q 2766 2663 2505 2880 
Q 2244 3097 1772 3097 
Q 1472 3097 1187 3025 
Q 903 2953 641 2809 
L 641 3341 
Q 956 3463 1253 3523 
Q 1550 3584 1831 3584 
Q 2591 3584 2966 3190 
Q 3341 2797 3341 1997 
z
" transform="scale(0.015625)"/>
       <path id="DejaVuSans-69" d="M 603 3500 
L 1178 3500 
L 1178 0 
L 603 0 
L 603 3500 
z
M 603 4863 
L 1178 4863 
L 1178 4134 
L 603 4134 
L 603 4863 
z
" transform="scale(0.015625)"/>
       <path id="DejaVuSans-6e" d="M 3513 2113 
L 3513 0 
L 2938 0 
L 2938 2094 
Q 2938 2591 2744 2837 
Q 2550 3084 2163 3084 
Q 1697 3084 1428 2787 
Q 1159 2491 1159 1978 
L 1159 0 
L 581 0 
L 581 3500 
L 1159 3500 
L 1159 2956 
Q 1366 3272 1645 3428 
Q 1925 3584 2291 3584 
Q 2894 3584 3203 3211 
Q 3513 2838 3513 2113 
z
" transform="scale(0.015625)"/>
      </defs>
      <use xlink:href="#DejaVuSans-54"/>
      <use xlink:href="#DejaVuSans-72" x="46.333984"/>
      <use xlink:href="#DejaVuSans-61" x="87.447266"/>
      <use xlink:href="#DejaVuSans-69" x="148.726562"/>
      <use xlink:href="#DejaVuSans-6e" x="176.509766"/>
      <use xlink:href="#DejaVuSans-20" x="239.888672"/>
      <use xlink:href="#DejaVuSans-4c" x="271.675781"/>
      <use xlink:href="#DejaVuSans-6f" x="325.638672"/>
      <use xlink:href="#DejaVuSans-73" x="386.820312"/>
      <use xlink:href="#DejaVuSans-73" x="438.919922"/>
     </g>
    </g>
    <g id="line2d_18">
     <path d="M 240.080516 54.656563 
L 250.080516 54.656563 
L 260.080516 54.656563 
" style="fill: none; stroke: #ff7f0e; stroke-width: 1.5; stroke-linecap: square"/>
    </g>
    <g id="text_19">
     <!-- Validation Loss -->
     <g transform="translate(268.080516 58.156563) scale(0.1 -0.1)">
      <defs>
       <path id="DejaVuSans-56" d="M 1831 0 
L 50 4666 
L 709 4666 
L 2188 738 
L 3669 4666 
L 4325 4666 
L 2547 0 
L 1831 0 
z
" transform="scale(0.015625)"/>
       <path id="DejaVuSans-6c" d="M 603 4863 
L 1178 4863 
L 1178 0 
L 603 0 
L 603 4863 
z
" transform="scale(0.015625)"/>
       <path id="DejaVuSans-64" d="M 2906 2969 
L 2906 4863 
L 3481 4863 
L 3481 0 
L 2906 0 
L 2906 525 
Q 2725 213 2448 61 
Q 2172 -91 1784 -91 
Q 1150 -91 751 415 
Q 353 922 353 1747 
Q 353 2572 751 3078 
Q 1150 3584 1784 3584 
Q 2172 3584 2448 3432 
Q 2725 3281 2906 2969 
z
M 947 1747 
Q 947 1113 1208 752 
Q 1469 391 1925 391 
Q 2381 391 2643 752 
Q 2906 1113 2906 1747 
Q 2906 2381 2643 2742 
Q 2381 3103 1925 3103 
Q 1469 3103 1208 2742 
Q 947 2381 947 1747 
z
" transform="scale(0.015625)"/>
       <path id="DejaVuSans-74" d="M 1172 4494 
L 1172 3500 
L 2356 3500 
L 2356 3053 
L 1172 3053 
L 1172 1153 
Q 1172 725 1289 603 
Q 1406 481 1766 481 
L 2356 481 
L 2356 0 
L 1766 0 
Q 1100 0 847 248 
Q 594 497 594 1153 
L 594 3053 
L 172 3053 
L 172 3500 
L 594 3500 
L 594 4494 
L 1172 4494 
z
" transform="scale(0.015625)"/>
      </defs>
      <use xlink:href="#DejaVuSans-56"/>
      <use xlink:href="#DejaVuSans-61" x="60.658203"/>
      <use xlink:href="#DejaVuSans-6c" x="121.9375"/>
      <use xlink:href="#DejaVuSans-69" x="149.720703"/>
      <use xlink:href="#DejaVuSans-64" x="177.503906"/>
      <use xlink:href="#DejaVuSans-61" x="240.980469"/>
      <use xlink:href="#DejaVuSans-74" x="302.259766"/>
      <use xlink:href="#DejaVuSans-69" x="341.46875"/>
      <use xlink:href="#DejaVuSans-6f" x="369.251953"/>
      <use xlink:href="#DejaVuSans-6e" x="430.433594"/>
      <use xlink:href="#DejaVuSans-20" x="493.8125"/>
      <use xlink:href="#DejaVuSans-4c" x="525.599609"/>
      <use xlink:href="#DejaVuSans-6f" x="579.5625"/>
      <use xlink:href="#DejaVuSans-73" x="640.744141"/>
      <use xlink:href="#DejaVuSans-73" x="692.84375"/>
     </g>
    </g>
   </g>
  </g>
  <g id="axes_2">
   <g id="patch_8">
    <path d="M 406.25 318.04 
L 710.104266 318.04 
L 710.104266 26.88 
L 406.25 26.88 
z
" style="fill: #ffffff"/>
   </g>
   <g id="matplotlib.axis_3">
    <g id="xtick_7">
     <g id="line2d_19">
      <g>
       <use xlink:href="#m4069e0c3b4" x="420.061558" y="318.04" style="stroke: #000000; stroke-width: 0.8"/>
      </g>
     </g>
     <g id="text_20">
      <!-- 0 -->
      <g transform="translate(416.880308 332.638438) scale(0.1 -0.1)">
       <use xlink:href="#DejaVuSans-30"/>
      </g>
     </g>
    </g>
    <g id="xtick_8">
     <g id="line2d_20">
      <g>
       <use xlink:href="#m4069e0c3b4" x="475.86583" y="318.04" style="stroke: #000000; stroke-width: 0.8"/>
      </g>
     </g>
     <g id="text_21">
      <!-- 20 -->
      <g transform="translate(469.50333 332.638438) scale(0.1 -0.1)">
       <use xlink:href="#DejaVuSans-32"/>
       <use xlink:href="#DejaVuSans-30" x="63.623047"/>
      </g>
     </g>
    </g>
    <g id="xtick_9">
     <g id="line2d_21">
      <g>
       <use xlink:href="#m4069e0c3b4" x="531.670103" y="318.04" style="stroke: #000000; stroke-width: 0.8"/>
      </g>
     </g>
     <g id="text_22">
      <!-- 40 -->
      <g transform="translate(525.307603 332.638438) scale(0.1 -0.1)">
       <use xlink:href="#DejaVuSans-34"/>
       <use xlink:href="#DejaVuSans-30" x="63.623047"/>
      </g>
     </g>
    </g>
    <g id="xtick_10">
     <g id="line2d_22">
      <g>
       <use xlink:href="#m4069e0c3b4" x="587.474376" y="318.04" style="stroke: #000000; stroke-width: 0.8"/>
      </g>
     </g>
     <g id="text_23">
      <!-- 60 -->
      <g transform="translate(581.111876 332.638438) scale(0.1 -0.1)">
       <use xlink:href="#DejaVuSans-36"/>
       <use xlink:href="#DejaVuSans-30" x="63.623047"/>
      </g>
     </g>
    </g>
    <g id="xtick_11">
     <g id="line2d_23">
      <g>
       <use xlink:href="#m4069e0c3b4" x="643.278649" y="318.04" style="stroke: #000000; stroke-width: 0.8"/>
      </g>
     </g>
     <g id="text_24">
      <!-- 80 -->
      <g transform="translate(636.916149 332.638438) scale(0.1 -0.1)">
       <use xlink:href="#DejaVuSans-38"/>
       <use xlink:href="#DejaVuSans-30" x="63.623047"/>
      </g>
     </g>
    </g>
    <g id="xtick_12">
     <g id="line2d_24">
      <g>
       <use xlink:href="#m4069e0c3b4" x="699.082922" y="318.04" style="stroke: #000000; stroke-width: 0.8"/>
      </g>
     </g>
     <g id="text_25">
      <!-- 100 -->
      <g transform="translate(689.539172 332.638438) scale(0.1 -0.1)">
       <use xlink:href="#DejaVuSans-31"/>
       <use xlink:href="#DejaVuSans-30" x="63.623047"/>
       <use xlink:href="#DejaVuSans-30" x="127.246094"/>
      </g>
     </g>
    </g>
    <g id="text_26">
     <!-- Epoch -->
     <g transform="translate(542.866195 346.316563) scale(0.1 -0.1)">
      <use xlink:href="#DejaVuSans-45"/>
      <use xlink:href="#DejaVuSans-70" x="63.183594"/>
      <use xlink:href="#DejaVuSans-6f" x="126.660156"/>
      <use xlink:href="#DejaVuSans-63" x="187.841797"/>
      <use xlink:href="#DejaVuSans-68" x="242.822266"/>
     </g>
    </g>
   </g>
   <g id="matplotlib.axis_4">
    <g id="ytick_9">
     <g id="line2d_25">
      <g>
       <use xlink:href="#m79c4976277" x="406.25" y="316.564539" style="stroke: #000000; stroke-width: 0.8"/>
      </g>
     </g>
     <g id="text_27">
      <!-- 0.65 -->
      <g transform="translate(376.984375 320.363758) scale(0.1 -0.1)">
       <use xlink:href="#DejaVuSans-30"/>
       <use xlink:href="#DejaVuSans-2e" x="63.623047"/>
       <use xlink:href="#DejaVuSans-36" x="95.410156"/>
       <use xlink:href="#DejaVuSans-35" x="159.033203"/>
      </g>
     </g>
    </g>
    <g id="ytick_10">
     <g id="line2d_26">
      <g>
       <use xlink:href="#m79c4976277" x="406.25" y="253.597134" style="stroke: #000000; stroke-width: 0.8"/>
      </g>
     </g>
     <g id="text_28">
      <!-- 0.70 -->
      <g transform="translate(376.984375 257.396353) scale(0.1 -0.1)">
       <use xlink:href="#DejaVuSans-30"/>
       <use xlink:href="#DejaVuSans-2e" x="63.623047"/>
       <use xlink:href="#DejaVuSans-37" x="95.410156"/>
       <use xlink:href="#DejaVuSans-30" x="159.033203"/>
      </g>
     </g>
    </g>
    <g id="ytick_11">
     <g id="line2d_27">
      <g>
       <use xlink:href="#m79c4976277" x="406.25" y="190.629729" style="stroke: #000000; stroke-width: 0.8"/>
      </g>
     </g>
     <g id="text_29">
      <!-- 0.75 -->
      <g transform="translate(376.984375 194.428948) scale(0.1 -0.1)">
       <use xlink:href="#DejaVuSans-30"/>
       <use xlink:href="#DejaVuSans-2e" x="63.623047"/>
       <use xlink:href="#DejaVuSans-37" x="95.410156"/>
       <use xlink:href="#DejaVuSans-35" x="159.033203"/>
      </g>
     </g>
    </g>
    <g id="ytick_12">
     <g id="line2d_28">
      <g>
       <use xlink:href="#m79c4976277" x="406.25" y="127.662325" style="stroke: #000000; stroke-width: 0.8"/>
      </g>
     </g>
     <g id="text_30">
      <!-- 0.80 -->
      <g transform="translate(376.984375 131.461543) scale(0.1 -0.1)">
       <use xlink:href="#DejaVuSans-30"/>
       <use xlink:href="#DejaVuSans-2e" x="63.623047"/>
       <use xlink:href="#DejaVuSans-38" x="95.410156"/>
       <use xlink:href="#DejaVuSans-30" x="159.033203"/>
      </g>
     </g>
    </g>
    <g id="ytick_13">
     <g id="line2d_29">
      <g>
       <use xlink:href="#m79c4976277" x="406.25" y="64.69492" style="stroke: #000000; stroke-width: 0.8"/>
      </g>
     </g>
     <g id="text_31">
      <!-- 0.85 -->
      <g transform="translate(376.984375 68.494139) scale(0.1 -0.1)">
       <use xlink:href="#DejaVuSans-30"/>
       <use xlink:href="#DejaVuSans-2e" x="63.623047"/>
       <use xlink:href="#DejaVuSans-38" x="95.410156"/>
       <use xlink:href="#DejaVuSans-35" x="159.033203"/>
      </g>
     </g>
    </g>
    <g id="text_32">
     <!-- Accuracy -->
     <g transform="translate(370.904688 195.288125) rotate(-90) scale(0.1 -0.1)">
      <defs>
       <path id="DejaVuSans-41" d="M 2188 4044 
L 1331 1722 
L 3047 1722 
L 2188 4044 
z
M 1831 4666 
L 2547 4666 
L 4325 0 
L 3669 0 
L 3244 1197 
L 1141 1197 
L 716 0 
L 50 0 
L 1831 4666 
z
" transform="scale(0.015625)"/>
       <path id="DejaVuSans-75" d="M 544 1381 
L 544 3500 
L 1119 3500 
L 1119 1403 
Q 1119 906 1312 657 
Q 1506 409 1894 409 
Q 2359 409 2629 706 
Q 2900 1003 2900 1516 
L 2900 3500 
L 3475 3500 
L 3475 0 
L 2900 0 
L 2900 538 
Q 2691 219 2414 64 
Q 2138 -91 1772 -91 
Q 1169 -91 856 284 
Q 544 659 544 1381 
z
M 1991 3584 
L 1991 3584 
z
" transform="scale(0.015625)"/>
       <path id="DejaVuSans-79" d="M 2059 -325 
Q 1816 -950 1584 -1140 
Q 1353 -1331 966 -1331 
L 506 -1331 
L 506 -850 
L 844 -850 
Q 1081 -850 1212 -737 
Q 1344 -625 1503 -206 
L 1606 56 
L 191 3500 
L 800 3500 
L 1894 763 
L 2988 3500 
L 3597 3500 
L 2059 -325 
z
" transform="scale(0.015625)"/>
      </defs>
      <use xlink:href="#DejaVuSans-41"/>
      <use xlink:href="#DejaVuSans-63" x="66.658203"/>
      <use xlink:href="#DejaVuSans-63" x="121.638672"/>
      <use xlink:href="#DejaVuSans-75" x="176.619141"/>
      <use xlink:href="#DejaVuSans-72" x="239.998047"/>
      <use xlink:href="#DejaVuSans-61" x="281.111328"/>
      <use xlink:href="#DejaVuSans-63" x="342.390625"/>
      <use xlink:href="#DejaVuSans-79" x="397.371094"/>
     </g>
    </g>
   </g>
   <g id="line2d_30">
    <path d="M 420.061558 297.989683 
L 422.851771 202.474784 
L 425.641985 159.319553 
L 428.432198 139.024523 
L 431.222412 142.87228 
L 434.012626 134.648643 
L 436.802839 127.5567 
L 439.593053 126.123222 
L 442.383267 122.200019 
L 445.17348 117.899585 
L 447.963694 118.050478 
L 450.753908 118.955832 
L 453.544121 113.750044 
L 456.334335 107.563455 
L 459.124549 107.714347 
L 461.914762 106.054531 
L 464.704976 105.752746 
L 467.49519 101.678651 
L 470.285403 102.28222 
L 473.075617 95.869293 
L 475.86583 95.944739 
L 478.656044 95.190277 
L 481.446258 90.286273 
L 484.236471 93.756799 
L 487.026685 89.607258 
L 489.816899 88.852795 
L 492.607112 82.741653 
L 495.397326 82.213529 
L 498.18754 78.81845 
L 500.977753 79.271127 
L 503.767967 79.195681 
L 506.558181 76.404171 
L 509.348394 76.856849 
L 512.138608 78.139434 
L 514.928821 78.667557 
L 517.719035 77.913095 
L 520.509249 74.140785 
L 523.299462 74.518016 
L 526.089676 73.989893 
L 528.87989 75.197032 
L 531.670103 68.255981 
L 534.460317 78.667557 
L 537.250531 67.576965 
L 540.040744 69.689459 
L 542.830958 71.726506 
L 545.621172 68.633212 
L 548.411385 67.576965 
L 551.201599 67.27518 
L 553.991812 65.766256 
L 556.782026 67.576965 
L 559.57224 61.692161 
L 562.362453 60.485021 
L 565.152667 60.409575 
L 567.942881 62.748408 
L 570.733094 58.447974 
L 573.523308 60.032344 
L 576.313522 59.051544 
L 579.103735 58.146189 
L 581.893949 56.93905 
L 584.684163 59.428775 
L 587.474376 55.73191 
L 590.26459 57.995297 
L 593.054804 61.541268 
L 595.845017 57.995297 
L 598.635231 56.033695 
L 601.425444 54.675663 
L 604.215658 54.75111 
L 607.005872 55.807357 
L 609.796085 54.600217 
L 612.586299 54.977448 
L 615.376513 54.373879 
L 618.166726 53.54397 
L 620.95694 54.600217 
L 623.747154 50.752461 
L 626.537367 51.884154 
L 629.327581 49.318983 
L 632.117795 46.225688 
L 634.908008 48.036397 
L 637.698222 47.357381 
L 640.488435 49.696214 
L 643.278649 46.904704 
L 646.068863 45.018549 
L 648.859076 46.602919 
L 651.64929 49.017198 
L 654.439504 47.131043 
L 657.229717 46.225688 
L 660.019931 46.452027 
L 662.810145 42.60427 
L 665.600358 45.093995 
L 668.390572 42.679717 
L 671.180786 44.943103 
L 673.970999 43.735963 
L 676.761213 45.093995 
L 679.551427 44.641318 
L 682.34164 40.114545 
L 685.131854 42.830609 
L 687.922067 45.018549 
L 690.712281 40.340884 
L 693.502495 42.906055 
L 696.292708 43.962302 
" clip-path="url(#p27fed3d91b)" style="fill: none; stroke: #1f77b4; stroke-width: 1.5; stroke-linecap: square"/>
   </g>
   <g id="line2d_31">
    <path d="M 420.061558 304.805455 
L 422.851771 296.68301 
L 425.641985 292.621788 
L 428.432198 287.45296 
L 431.222412 300.37503 
L 434.012626 249.425151 
L 436.802839 280.438121 
L 439.593053 291.514182 
L 442.383267 232.81106 
L 445.17348 287.822162 
L 447.963694 250.163555 
L 450.753908 285.606949 
L 453.544121 238.349091 
L 456.334335 275.269293 
L 459.124549 274.900091 
L 461.914762 278.961313 
L 464.704976 284.499343 
L 467.49519 256.070788 
L 470.285403 199.213676 
L 473.075617 230.595848 
L 475.86583 148.632999 
L 478.656044 129.434494 
L 481.446258 249.425151 
L 484.236471 240.933505 
L 487.026685 189.245222 
L 489.816899 227.27303 
L 492.607112 193.306444 
L 495.397326 170.046717 
L 498.18754 187.03001 
L 500.977753 225.42702 
L 503.767967 184.814798 
L 506.558181 254.224778 
L 509.348394 229.857444 
L 512.138608 246.471535 
L 514.928821 168.569909 
L 517.719035 209.182131 
L 520.509249 266.408444 
L 523.299462 194.41405 
L 526.089676 250.532757 
L 528.87989 142.356565 
L 531.670103 254.59398 
L 534.460317 189.983626 
L 537.250531 198.844474 
L 540.040744 160.078262 
L 542.830958 177.430757 
L 545.621172 230.595848 
L 548.411385 184.445596 
L 551.201599 134.234121 
L 553.991812 168.200707 
L 556.782026 123.896464 
L 559.57224 153.801828 
L 562.362453 121.31205 
L 565.152667 214.350959 
L 567.942881 123.527262 
L 570.733094 202.536495 
L 573.523308 122.050454 
L 576.313522 183.337989 
L 579.103735 120.204444 
L 581.893949 115.77402 
L 584.684163 121.31205 
L 587.474376 114.297211 
L 590.26459 106.174767 
L 593.054804 147.894595 
L 595.845017 143.464171 
L 598.635231 213.243353 
L 601.425444 202.167293 
L 604.215658 176.323151 
L 607.005872 131.649706 
L 609.796085 216.935373 
L 612.586299 146.417787 
L 615.376513 115.035615 
L 618.166726 168.200707 
L 620.95694 119.46604 
L 623.747154 109.497585 
L 626.537367 165.616292 
L 629.327581 110.974393 
L 632.117795 161.185868 
L 634.908008 110.235989 
L 637.698222 112.451201 
L 640.488435 177.799959 
L 643.278649 146.417787 
L 646.068863 84.022646 
L 648.859076 128.326888 
L 651.64929 164.139484 
L 654.439504 91.406686 
L 657.229717 225.057818 
L 660.019931 104.328757 
L 662.810145 113.558807 
L 665.600358 91.406686 
L 668.390572 105.436363 
L 671.180786 161.55507 
L 673.970999 142.725767 
L 676.761213 93.9911 
L 679.551427 106.913171 
L 682.34164 128.326888 
L 685.131854 176.323151 
L 687.922067 82.91504 
L 690.712281 142.725767 
L 693.502495 99.898333 
L 696.292708 123.15806 
" clip-path="url(#p27fed3d91b)" style="fill: none; stroke: #ff7f0e; stroke-width: 1.5; stroke-linecap: square"/>
   </g>
   <g id="patch_9">
    <path d="M 406.25 318.04 
L 406.25 26.88 
" style="fill: none; stroke: #000000; stroke-width: 0.8; stroke-linejoin: miter; stroke-linecap: square"/>
   </g>
   <g id="patch_10">
    <path d="M 710.104266 318.04 
L 710.104266 26.88 
" style="fill: none; stroke: #000000; stroke-width: 0.8; stroke-linejoin: miter; stroke-linecap: square"/>
   </g>
   <g id="patch_11">
    <path d="M 406.25 318.04 
L 710.104266 318.04 
" style="fill: none; stroke: #000000; stroke-width: 0.8; stroke-linejoin: miter; stroke-linecap: square"/>
   </g>
   <g id="patch_12">
    <path d="M 406.25 26.88 
L 710.104266 26.88 
" style="fill: none; stroke: #000000; stroke-width: 0.8; stroke-linejoin: miter; stroke-linecap: square"/>
   </g>
   <g id="text_33">
    <!-- Accuracy vs Epoch -->
    <g transform="translate(501.919633 20.88) scale(0.12 -0.12)">
     <use xlink:href="#DejaVuSans-41"/>
     <use xlink:href="#DejaVuSans-63" x="66.658203"/>
     <use xlink:href="#DejaVuSans-63" x="121.638672"/>
     <use xlink:href="#DejaVuSans-75" x="176.619141"/>
     <use xlink:href="#DejaVuSans-72" x="239.998047"/>
     <use xlink:href="#DejaVuSans-61" x="281.111328"/>
     <use xlink:href="#DejaVuSans-63" x="342.390625"/>
     <use xlink:href="#DejaVuSans-79" x="397.371094"/>
     <use xlink:href="#DejaVuSans-20" x="456.550781"/>
     <use xlink:href="#DejaVuSans-76" x="488.337891"/>
     <use xlink:href="#DejaVuSans-73" x="547.517578"/>
     <use xlink:href="#DejaVuSans-20" x="599.617188"/>
     <use xlink:href="#DejaVuSans-45" x="631.404297"/>
     <use xlink:href="#DejaVuSans-70" x="694.587891"/>
     <use xlink:href="#DejaVuSans-6f" x="758.064453"/>
     <use xlink:href="#DejaVuSans-63" x="819.246094"/>
     <use xlink:href="#DejaVuSans-68" x="874.226562"/>
    </g>
   </g>
   <g id="legend_2">
    <g id="patch_13">
     <path d="M 413.25 64.23625 
L 543.465625 64.23625 
Q 545.465625 64.23625 545.465625 62.23625 
L 545.465625 33.88 
Q 545.465625 31.88 543.465625 31.88 
L 413.25 31.88 
Q 411.25 31.88 411.25 33.88 
L 411.25 62.23625 
Q 411.25 64.23625 413.25 64.23625 
z
" style="fill: #ffffff; opacity: 0.8; stroke: #cccccc; stroke-linejoin: miter"/>
    </g>
    <g id="line2d_32">
     <path d="M 415.25 39.978437 
L 425.25 39.978437 
L 435.25 39.978437 
" style="fill: none; stroke: #1f77b4; stroke-width: 1.5; stroke-linecap: square"/>
    </g>
    <g id="text_34">
     <!-- Train Accuracy -->
     <g transform="translate(443.25 43.478437) scale(0.1 -0.1)">
      <use xlink:href="#DejaVuSans-54"/>
      <use xlink:href="#DejaVuSans-72" x="46.333984"/>
      <use xlink:href="#DejaVuSans-61" x="87.447266"/>
      <use xlink:href="#DejaVuSans-69" x="148.726562"/>
      <use xlink:href="#DejaVuSans-6e" x="176.509766"/>
      <use xlink:href="#DejaVuSans-20" x="239.888672"/>
      <use xlink:href="#DejaVuSans-41" x="271.675781"/>
      <use xlink:href="#DejaVuSans-63" x="338.333984"/>
      <use xlink:href="#DejaVuSans-63" x="393.314453"/>
      <use xlink:href="#DejaVuSans-75" x="448.294922"/>
      <use xlink:href="#DejaVuSans-72" x="511.673828"/>
      <use xlink:href="#DejaVuSans-61" x="552.787109"/>
      <use xlink:href="#DejaVuSans-63" x="614.066406"/>
      <use xlink:href="#DejaVuSans-79" x="669.046875"/>
     </g>
    </g>
    <g id="line2d_33">
     <path d="M 415.25 54.656563 
L 425.25 54.656563 
L 435.25 54.656563 
" style="fill: none; stroke: #ff7f0e; stroke-width: 1.5; stroke-linecap: square"/>
    </g>
    <g id="text_35">
     <!-- Validation Accuracy -->
     <g transform="translate(443.25 58.156563) scale(0.1 -0.1)">
      <use xlink:href="#DejaVuSans-56"/>
      <use xlink:href="#DejaVuSans-61" x="60.658203"/>
      <use xlink:href="#DejaVuSans-6c" x="121.9375"/>
      <use xlink:href="#DejaVuSans-69" x="149.720703"/>
      <use xlink:href="#DejaVuSans-64" x="177.503906"/>
      <use xlink:href="#DejaVuSans-61" x="240.980469"/>
      <use xlink:href="#DejaVuSans-74" x="302.259766"/>
      <use xlink:href="#DejaVuSans-69" x="341.46875"/>
      <use xlink:href="#DejaVuSans-6f" x="369.251953"/>
      <use xlink:href="#DejaVuSans-6e" x="430.433594"/>
      <use xlink:href="#DejaVuSans-20" x="493.8125"/>
      <use xlink:href="#DejaVuSans-41" x="525.599609"/>
      <use xlink:href="#DejaVuSans-63" x="592.257812"/>
      <use xlink:href="#DejaVuSans-63" x="647.238281"/>
      <use xlink:href="#DejaVuSans-75" x="702.21875"/>
      <use xlink:href="#DejaVuSans-72" x="765.597656"/>
      <use xlink:href="#DejaVuSans-61" x="806.710938"/>
      <use xlink:href="#DejaVuSans-63" x="867.990234"/>
      <use xlink:href="#DejaVuSans-79" x="922.970703"/>
     </g>
    </g>
   </g>
  </g>
  <g id="axes_3">
   <g id="patch_14">
    <path d="M 764.78 318.04 
L 1068.634266 318.04 
L 1068.634266 26.88 
L 764.78 26.88 
z
" style="fill: #ffffff"/>
   </g>
   <g id="matplotlib.axis_5">
    <g id="xtick_13">
     <g id="line2d_34">
      <g>
       <use xlink:href="#m4069e0c3b4" x="778.591558" y="318.04" style="stroke: #000000; stroke-width: 0.8"/>
      </g>
     </g>
     <g id="text_36">
      <!-- 0 -->
      <g transform="translate(775.410308 332.638438) scale(0.1 -0.1)">
       <use xlink:href="#DejaVuSans-30"/>
      </g>
     </g>
    </g>
    <g id="xtick_14">
     <g id="line2d_35">
      <g>
       <use xlink:href="#m4069e0c3b4" x="834.39583" y="318.04" style="stroke: #000000; stroke-width: 0.8"/>
      </g>
     </g>
     <g id="text_37">
      <!-- 20 -->
      <g transform="translate(828.03333 332.638438) scale(0.1 -0.1)">
       <use xlink:href="#DejaVuSans-32"/>
       <use xlink:href="#DejaVuSans-30" x="63.623047"/>
      </g>
     </g>
    </g>
    <g id="xtick_15">
     <g id="line2d_36">
      <g>
       <use xlink:href="#m4069e0c3b4" x="890.200103" y="318.04" style="stroke: #000000; stroke-width: 0.8"/>
      </g>
     </g>
     <g id="text_38">
      <!-- 40 -->
      <g transform="translate(883.837603 332.638438) scale(0.1 -0.1)">
       <use xlink:href="#DejaVuSans-34"/>
       <use xlink:href="#DejaVuSans-30" x="63.623047"/>
      </g>
     </g>
    </g>
    <g id="xtick_16">
     <g id="line2d_37">
      <g>
       <use xlink:href="#m4069e0c3b4" x="946.004376" y="318.04" style="stroke: #000000; stroke-width: 0.8"/>
      </g>
     </g>
     <g id="text_39">
      <!-- 60 -->
      <g transform="translate(939.641876 332.638438) scale(0.1 -0.1)">
       <use xlink:href="#DejaVuSans-36"/>
       <use xlink:href="#DejaVuSans-30" x="63.623047"/>
      </g>
     </g>
    </g>
    <g id="xtick_17">
     <g id="line2d_38">
      <g>
       <use xlink:href="#m4069e0c3b4" x="1001.808649" y="318.04" style="stroke: #000000; stroke-width: 0.8"/>
      </g>
     </g>
     <g id="text_40">
      <!-- 80 -->
      <g transform="translate(995.446149 332.638438) scale(0.1 -0.1)">
       <use xlink:href="#DejaVuSans-38"/>
       <use xlink:href="#DejaVuSans-30" x="63.623047"/>
      </g>
     </g>
    </g>
    <g id="xtick_18">
     <g id="line2d_39">
      <g>
       <use xlink:href="#m4069e0c3b4" x="1057.612922" y="318.04" style="stroke: #000000; stroke-width: 0.8"/>
      </g>
     </g>
     <g id="text_41">
      <!-- 100 -->
      <g transform="translate(1048.069172 332.638438) scale(0.1 -0.1)">
       <use xlink:href="#DejaVuSans-31"/>
       <use xlink:href="#DejaVuSans-30" x="63.623047"/>
       <use xlink:href="#DejaVuSans-30" x="127.246094"/>
      </g>
     </g>
    </g>
    <g id="text_42">
     <!-- Epoch -->
     <g transform="translate(901.396195 346.316563) scale(0.1 -0.1)">
      <use xlink:href="#DejaVuSans-45"/>
      <use xlink:href="#DejaVuSans-70" x="63.183594"/>
      <use xlink:href="#DejaVuSans-6f" x="126.660156"/>
      <use xlink:href="#DejaVuSans-63" x="187.841797"/>
      <use xlink:href="#DejaVuSans-68" x="242.822266"/>
     </g>
    </g>
   </g>
   <g id="matplotlib.axis_6">
    <g id="ytick_14">
     <g id="line2d_40">
      <g>
       <use xlink:href="#m79c4976277" x="764.78" y="285.396037" style="stroke: #000000; stroke-width: 0.8"/>
      </g>
     </g>
     <g id="text_43">
      <!-- 0.78 -->
      <g transform="translate(735.514375 289.195256) scale(0.1 -0.1)">
       <use xlink:href="#DejaVuSans-30"/>
       <use xlink:href="#DejaVuSans-2e" x="63.623047"/>
       <use xlink:href="#DejaVuSans-37" x="95.410156"/>
       <use xlink:href="#DejaVuSans-38" x="159.033203"/>
      </g>
     </g>
    </g>
    <g id="ytick_15">
     <g id="line2d_41">
      <g>
       <use xlink:href="#m79c4976277" x="764.78" y="246.223133" style="stroke: #000000; stroke-width: 0.8"/>
      </g>
     </g>
     <g id="text_44">
      <!-- 0.80 -->
      <g transform="translate(735.514375 250.022352) scale(0.1 -0.1)">
       <use xlink:href="#DejaVuSans-30"/>
       <use xlink:href="#DejaVuSans-2e" x="63.623047"/>
       <use xlink:href="#DejaVuSans-38" x="95.410156"/>
       <use xlink:href="#DejaVuSans-30" x="159.033203"/>
      </g>
     </g>
    </g>
    <g id="ytick_16">
     <g id="line2d_42">
      <g>
       <use xlink:href="#m79c4976277" x="764.78" y="207.050229" style="stroke: #000000; stroke-width: 0.8"/>
      </g>
     </g>
     <g id="text_45">
      <!-- 0.82 -->
      <g transform="translate(735.514375 210.849448) scale(0.1 -0.1)">
       <use xlink:href="#DejaVuSans-30"/>
       <use xlink:href="#DejaVuSans-2e" x="63.623047"/>
       <use xlink:href="#DejaVuSans-38" x="95.410156"/>
       <use xlink:href="#DejaVuSans-32" x="159.033203"/>
      </g>
     </g>
    </g>
    <g id="ytick_17">
     <g id="line2d_43">
      <g>
       <use xlink:href="#m79c4976277" x="764.78" y="167.877325" style="stroke: #000000; stroke-width: 0.8"/>
      </g>
     </g>
     <g id="text_46">
      <!-- 0.84 -->
      <g transform="translate(735.514375 171.676544) scale(0.1 -0.1)">
       <use xlink:href="#DejaVuSans-30"/>
       <use xlink:href="#DejaVuSans-2e" x="63.623047"/>
       <use xlink:href="#DejaVuSans-38" x="95.410156"/>
       <use xlink:href="#DejaVuSans-34" x="159.033203"/>
      </g>
     </g>
    </g>
    <g id="ytick_18">
     <g id="line2d_44">
      <g>
       <use xlink:href="#m79c4976277" x="764.78" y="128.704421" style="stroke: #000000; stroke-width: 0.8"/>
      </g>
     </g>
     <g id="text_47">
      <!-- 0.86 -->
      <g transform="translate(735.514375 132.50364) scale(0.1 -0.1)">
       <use xlink:href="#DejaVuSans-30"/>
       <use xlink:href="#DejaVuSans-2e" x="63.623047"/>
       <use xlink:href="#DejaVuSans-38" x="95.410156"/>
       <use xlink:href="#DejaVuSans-36" x="159.033203"/>
      </g>
     </g>
    </g>
    <g id="ytick_19">
     <g id="line2d_45">
      <g>
       <use xlink:href="#m79c4976277" x="764.78" y="89.531517" style="stroke: #000000; stroke-width: 0.8"/>
      </g>
     </g>
     <g id="text_48">
      <!-- 0.88 -->
      <g transform="translate(735.514375 93.330735) scale(0.1 -0.1)">
       <use xlink:href="#DejaVuSans-30"/>
       <use xlink:href="#DejaVuSans-2e" x="63.623047"/>
       <use xlink:href="#DejaVuSans-38" x="95.410156"/>
       <use xlink:href="#DejaVuSans-38" x="159.033203"/>
      </g>
     </g>
    </g>
    <g id="ytick_20">
     <g id="line2d_46">
      <g>
       <use xlink:href="#m79c4976277" x="764.78" y="50.358613" style="stroke: #000000; stroke-width: 0.8"/>
      </g>
     </g>
     <g id="text_49">
      <!-- 0.90 -->
      <g transform="translate(735.514375 54.157831) scale(0.1 -0.1)">
       <use xlink:href="#DejaVuSans-30"/>
       <use xlink:href="#DejaVuSans-2e" x="63.623047"/>
       <use xlink:href="#DejaVuSans-39" x="95.410156"/>
       <use xlink:href="#DejaVuSans-30" x="159.033203"/>
      </g>
     </g>
    </g>
    <g id="text_50">
     <!-- F1-Score -->
     <g transform="translate(729.434688 194.323281) rotate(-90) scale(0.1 -0.1)">
      <defs>
       <path id="DejaVuSans-46" d="M 628 4666 
L 3309 4666 
L 3309 4134 
L 1259 4134 
L 1259 2759 
L 3109 2759 
L 3109 2228 
L 1259 2228 
L 1259 0 
L 628 0 
L 628 4666 
z
" transform="scale(0.015625)"/>
       <path id="DejaVuSans-2d" d="M 313 2009 
L 1997 2009 
L 1997 1497 
L 313 1497 
L 313 2009 
z
" transform="scale(0.015625)"/>
       <path id="DejaVuSans-53" d="M 3425 4513 
L 3425 3897 
Q 3066 4069 2747 4153 
Q 2428 4238 2131 4238 
Q 1616 4238 1336 4038 
Q 1056 3838 1056 3469 
Q 1056 3159 1242 3001 
Q 1428 2844 1947 2747 
L 2328 2669 
Q 3034 2534 3370 2195 
Q 3706 1856 3706 1288 
Q 3706 609 3251 259 
Q 2797 -91 1919 -91 
Q 1588 -91 1214 -16 
Q 841 59 441 206 
L 441 856 
Q 825 641 1194 531 
Q 1563 422 1919 422 
Q 2459 422 2753 634 
Q 3047 847 3047 1241 
Q 3047 1584 2836 1778 
Q 2625 1972 2144 2069 
L 1759 2144 
Q 1053 2284 737 2584 
Q 422 2884 422 3419 
Q 422 4038 858 4394 
Q 1294 4750 2059 4750 
Q 2388 4750 2728 4690 
Q 3069 4631 3425 4513 
z
" transform="scale(0.015625)"/>
       <path id="DejaVuSans-65" d="M 3597 1894 
L 3597 1613 
L 953 1613 
Q 991 1019 1311 708 
Q 1631 397 2203 397 
Q 2534 397 2845 478 
Q 3156 559 3463 722 
L 3463 178 
Q 3153 47 2828 -22 
Q 2503 -91 2169 -91 
Q 1331 -91 842 396 
Q 353 884 353 1716 
Q 353 2575 817 3079 
Q 1281 3584 2069 3584 
Q 2775 3584 3186 3129 
Q 3597 2675 3597 1894 
z
M 3022 2063 
Q 3016 2534 2758 2815 
Q 2500 3097 2075 3097 
Q 1594 3097 1305 2825 
Q 1016 2553 972 2059 
L 3022 2063 
z
" transform="scale(0.015625)"/>
      </defs>
      <use xlink:href="#DejaVuSans-46"/>
      <use xlink:href="#DejaVuSans-31" x="57.519531"/>
      <use xlink:href="#DejaVuSans-2d" x="121.142578"/>
      <use xlink:href="#DejaVuSans-53" x="157.226562"/>
      <use xlink:href="#DejaVuSans-63" x="220.703125"/>
      <use xlink:href="#DejaVuSans-6f" x="275.683594"/>
      <use xlink:href="#DejaVuSans-72" x="336.865234"/>
      <use xlink:href="#DejaVuSans-65" x="375.728516"/>
     </g>
    </g>
   </g>
   <g id="line2d_47">
    <path d="M 778.591558 304.805455 
L 781.381771 229.391702 
L 784.171985 178.036452 
L 786.962198 151.728363 
L 789.752412 156.427728 
L 792.542626 145.723201 
L 795.332839 138.137674 
L 798.123053 138.259038 
L 800.913267 137.169092 
L 803.70348 130.491653 
L 806.493694 137.75355 
L 809.283908 130.411462 
L 812.074121 124.776161 
L 814.864335 123.036361 
L 817.654549 120.951667 
L 820.444762 114.87327 
L 823.234976 119.189959 
L 826.02519 114.270106 
L 828.815403 110.629869 
L 831.605617 103.888132 
L 834.39583 105.364372 
L 837.186044 103.259827 
L 839.976258 100.590716 
L 842.766471 100.763231 
L 845.556685 96.675615 
L 848.346899 100.194788 
L 851.137112 89.606945 
L 853.927326 90.712609 
L 856.71754 84.164851 
L 859.507753 84.336416 
L 862.297967 84.581564 
L 865.088181 81.71095 
L 867.878394 85.939553 
L 870.668608 85.744596 
L 873.458821 84.194339 
L 876.249035 87.568783 
L 879.039249 78.346557 
L 881.829462 79.035852 
L 884.619676 78.839457 
L 887.40989 79.558188 
L 890.200103 72.235144 
L 892.990317 84.77685 
L 895.780531 71.061126 
L 898.570744 73.580016 
L 901.360958 81.159642 
L 904.151172 74.107057 
L 906.941385 73.673354 
L 909.731599 73.444124 
L 912.521812 72.756998 
L 915.312026 71.193087 
L 918.10224 64.233414 
L 920.892453 63.234339 
L 923.682667 63.230855 
L 926.472881 66.105656 
L 929.263094 61.229064 
L 932.053308 62.83156 
L 934.843522 61.785679 
L 937.633735 64.122816 
L 940.423949 59.235576 
L 943.214163 62.167138 
L 946.004376 57.924341 
L 948.79459 60.519101 
L 951.584804 64.959547 
L 954.375017 60.537049 
L 957.165231 58.265524 
L 959.955444 56.712589 
L 962.745658 56.63064 
L 965.535872 57.983052 
L 968.326085 56.706548 
L 971.116299 57.106678 
L 973.906513 56.371436 
L 976.696726 56.444556 
L 979.48694 56.49536 
L 982.277154 52.260376 
L 985.067367 53.721753 
L 987.857581 50.888022 
L 990.647795 47.210653 
L 993.438008 50.866101 
L 996.228222 48.448072 
L 999.018435 51.289227 
L 1001.808649 47.700743 
L 1004.598863 45.979129 
L 1007.389076 47.780325 
L 1010.17929 50.358613 
L 1012.969504 48.065756 
L 1015.759717 47.833813 
L 1018.549931 47.626414 
L 1021.340145 42.836829 
L 1024.130358 46.022759 
L 1026.920572 42.962997 
L 1029.710786 45.902102 
L 1032.500999 44.007446 
L 1035.291213 45.706127 
L 1038.081427 45.394187 
L 1040.87164 40.114545 
L 1043.661854 43.182652 
L 1046.452067 45.812352 
L 1049.242281 40.621285 
L 1052.032495 43.292522 
L 1054.822708 44.518909 
" clip-path="url(#pad031e2d1a)" style="fill: none; stroke: #1f77b4; stroke-width: 1.5; stroke-linecap: square"/>
   </g>
   <g id="line2d_48">
    <path d="M 778.591558 257.031363 
L 781.381771 250.530902 
L 784.171985 247.615947 
L 786.962198 244.683373 
L 789.752412 253.15639 
L 792.542626 214.753806 
L 795.332839 238.102946 
L 798.123053 246.641052 
L 800.913267 201.827654 
L 803.70348 244.684747 
L 806.493694 215.334615 
L 809.283908 241.895407 
L 812.074121 205.605737 
L 814.864335 234.288736 
L 817.654549 234.141836 
L 820.444762 237.250098 
L 823.234976 240.917233 
L 826.02519 219.173152 
L 828.815403 174.00493 
L 831.605617 199.293147 
L 834.39583 131.515873 
L 837.186044 115.014761 
L 839.976258 213.969781 
L 842.766471 207.399923 
L 845.556685 166.188521 
L 848.346899 196.502572 
L 851.137112 168.637113 
L 853.927326 149.642557 
L 856.71754 163.406703 
L 859.507753 195.14368 
L 862.297967 162.013514 
L 865.088181 217.468479 
L 867.878394 198.449549 
L 870.668608 211.646251 
L 873.458821 148.161259 
L 876.249035 181.720109 
L 879.039249 227.20032 
L 881.829462 169.67418 
L 884.619676 214.578295 
L 887.40989 126.026703 
L 890.200103 217.888302 
L 892.990317 166.221616 
L 895.780531 173.461997 
L 898.570744 141.10694 
L 901.360958 155.568999 
L 904.151172 199.040686 
L 906.941385 161.358296 
L 909.731599 119.175877 
L 912.521812 147.8464 
L 915.312026 109.870417 
L 918.10224 135.473296 
L 920.892453 107.45565 
L 923.682667 186.057255 
L 926.472881 109.243255 
L 929.263094 176.388429 
L 932.053308 107.921124 
L 934.843522 160.429111 
L 937.633735 106.559241 
L 940.423949 102.472157 
L 943.214163 107.45565 
L 946.004376 101.330768 
L 948.79459 93.952283 
L 951.584804 130.554814 
L 954.375017 126.893435 
L 957.165231 184.911537 
L 959.955444 176.203932 
L 962.745658 154.745918 
L 965.535872 116.782233 
L 968.326085 188.403348 
L 971.116299 129.371928 
L 973.906513 101.9984 
L 976.696726 148.290873 
L 979.48694 106.09118 
L 982.277154 97.835096 
L 985.067367 145.970203 
L 987.857581 98.0344 
L 990.647795 142.497277 
L 993.438008 97.744572 
L 996.228222 100.043002 
L 999.018435 156.221357 
L 1001.808649 130.004922 
L 1004.598863 74.636758 
L 1007.389076 113.927345 
L 1010.17929 144.815198 
L 1012.969504 81.26824 
L 1015.759717 194.971557 
L 1018.549931 92.266475 
L 1021.340145 101.240476 
L 1024.130358 81.26824 
L 1026.920572 93.935389 
L 1029.710786 142.595838 
L 1032.500999 126.768748 
L 1035.291213 84.214139 
L 1038.081427 95.569967 
L 1040.87164 113.726546 
L 1043.661854 155.08557 
L 1046.452067 73.94685 
L 1049.242281 125.933709 
L 1052.032495 88.483 
L 1054.822708 109.704572 
" clip-path="url(#pad031e2d1a)" style="fill: none; stroke: #ff7f0e; stroke-width: 1.5; stroke-linecap: square"/>
   </g>
   <g id="patch_15">
    <path d="M 764.78 318.04 
L 764.78 26.88 
" style="fill: none; stroke: #000000; stroke-width: 0.8; stroke-linejoin: miter; stroke-linecap: square"/>
   </g>
   <g id="patch_16">
    <path d="M 1068.634266 318.04 
L 1068.634266 26.88 
" style="fill: none; stroke: #000000; stroke-width: 0.8; stroke-linejoin: miter; stroke-linecap: square"/>
   </g>
   <g id="patch_17">
    <path d="M 764.78 318.04 
L 1068.634266 318.04 
" style="fill: none; stroke: #000000; stroke-width: 0.8; stroke-linejoin: miter; stroke-linecap: square"/>
   </g>
   <g id="patch_18">
    <path d="M 764.78 26.88 
L 1068.634266 26.88 
" style="fill: none; stroke: #000000; stroke-width: 0.8; stroke-linejoin: miter; stroke-linecap: square"/>
   </g>
   <g id="text_51">
    <!-- F1-Score vs Epoch -->
    <g transform="translate(861.607445 20.88) scale(0.12 -0.12)">
     <use xlink:href="#DejaVuSans-46"/>
     <use xlink:href="#DejaVuSans-31" x="57.519531"/>
     <use xlink:href="#DejaVuSans-2d" x="121.142578"/>
     <use xlink:href="#DejaVuSans-53" x="157.226562"/>
     <use xlink:href="#DejaVuSans-63" x="220.703125"/>
     <use xlink:href="#DejaVuSans-6f" x="275.683594"/>
     <use xlink:href="#DejaVuSans-72" x="336.865234"/>
     <use xlink:href="#DejaVuSans-65" x="375.728516"/>
     <use xlink:href="#DejaVuSans-20" x="437.251953"/>
     <use xlink:href="#DejaVuSans-76" x="469.039062"/>
     <use xlink:href="#DejaVuSans-73" x="528.21875"/>
     <use xlink:href="#DejaVuSans-20" x="580.318359"/>
     <use xlink:href="#DejaVuSans-45" x="612.105469"/>
     <use xlink:href="#DejaVuSans-70" x="675.289062"/>
     <use xlink:href="#DejaVuSans-6f" x="738.765625"/>
     <use xlink:href="#DejaVuSans-63" x="799.947266"/>
     <use xlink:href="#DejaVuSans-68" x="854.927734"/>
    </g>
   </g>
   <g id="legend_3">
    <g id="patch_19">
     <path d="M 771.78 64.23625 
L 868.453438 64.23625 
Q 870.453438 64.23625 870.453438 62.23625 
L 870.453438 33.88 
Q 870.453438 31.88 868.453438 31.88 
L 771.78 31.88 
Q 769.78 31.88 769.78 33.88 
L 769.78 62.23625 
Q 769.78 64.23625 771.78 64.23625 
z
" style="fill: #ffffff; opacity: 0.8; stroke: #cccccc; stroke-linejoin: miter"/>
    </g>
    <g id="line2d_49">
     <path d="M 773.78 39.978437 
L 783.78 39.978437 
L 793.78 39.978437 
" style="fill: none; stroke: #1f77b4; stroke-width: 1.5; stroke-linecap: square"/>
    </g>
    <g id="text_52">
     <!-- Train F1 -->
     <g transform="translate(801.78 43.478437) scale(0.1 -0.1)">
      <use xlink:href="#DejaVuSans-54"/>
      <use xlink:href="#DejaVuSans-72" x="46.333984"/>
      <use xlink:href="#DejaVuSans-61" x="87.447266"/>
      <use xlink:href="#DejaVuSans-69" x="148.726562"/>
      <use xlink:href="#DejaVuSans-6e" x="176.509766"/>
      <use xlink:href="#DejaVuSans-20" x="239.888672"/>
      <use xlink:href="#DejaVuSans-46" x="271.675781"/>
      <use xlink:href="#DejaVuSans-31" x="329.195312"/>
     </g>
    </g>
    <g id="line2d_50">
     <path d="M 773.78 54.656563 
L 783.78 54.656563 
L 793.78 54.656563 
" style="fill: none; stroke: #ff7f0e; stroke-width: 1.5; stroke-linecap: square"/>
    </g>
    <g id="text_53">
     <!-- Validation F1 -->
     <g transform="translate(801.78 58.156563) scale(0.1 -0.1)">
      <use xlink:href="#DejaVuSans-56"/>
      <use xlink:href="#DejaVuSans-61" x="60.658203"/>
      <use xlink:href="#DejaVuSans-6c" x="121.9375"/>
      <use xlink:href="#DejaVuSans-69" x="149.720703"/>
      <use xlink:href="#DejaVuSans-64" x="177.503906"/>
      <use xlink:href="#DejaVuSans-61" x="240.980469"/>
      <use xlink:href="#DejaVuSans-74" x="302.259766"/>
      <use xlink:href="#DejaVuSans-69" x="341.46875"/>
      <use xlink:href="#DejaVuSans-6f" x="369.251953"/>
      <use xlink:href="#DejaVuSans-6e" x="430.433594"/>
      <use xlink:href="#DejaVuSans-20" x="493.8125"/>
      <use xlink:href="#DejaVuSans-46" x="525.599609"/>
      <use xlink:href="#DejaVuSans-31" x="583.119141"/>
     </g>
    </g>
   </g>
  </g>
 </g>
 <defs>
  <clipPath id="pb6318104e6">
   <rect x="47.72" y="26.88" width="303.854266" height="291.16"/>
  </clipPath>
  <clipPath id="p27fed3d91b">
   <rect x="406.25" y="26.88" width="303.854266" height="291.16"/>
  </clipPath>
  <clipPath id="pad031e2d1a">
   <rect x="764.78" y="26.88" width="303.854266" height="291.16"/>
  </clipPath>
 </defs>
</svg>
